<svg xmlns="http://www.w3.org/2000/svg" width="529" height="131" fill="none" viewBox="0 0 529 131"><path fill="url(#a)" d="M56.7 0C46.5 0 38.3 8.3 38.3 18.4s8.3 18.4 18.4 18.4c10.2 0 18.4-8.3 18.4-18.4S66.8 0 56.7 0m0 31.7c-7.3 0-13.3-5.9-13.3-13.3 0-7.3 6-13.3 13.3-13.3S70 11 70 18.4c-.1 7.4-6 13.3-13.3 13.3M20.4 56.9 10 49.1l1.5-2.1c6.1-8.1 17.7-9.8 25.8-3.7h.1c-1.3.7-2.7 1.4-3.9 2.2-5.5 3.3-9.8 7.2-13.1 11.4M53 113l-.3 4.6L49 115c-2.7-1.9-5.6-2.9-8.1-2.9-1.3 0-3 .3-4.4 1.6-2.5 2.5-2 7.8 1.4 12.5l2.6 3.7-4.6.3h-1.2c-4.9 0-9.5-1.9-13-5.4s-5.4-8.1-5.4-13 1.9-9.5 5.4-13 8.1-5.4 13-5.4 9.5 1.9 13 5.4c3.7 3.6 5.7 8.8 5.3 14.2m10.8-96.6c.2.6.3 1.3.3 2 0 4.1-3.3 7.4-7.4 7.4s-7.4-3.3-7.4-7.4 3.3-7.4 7.4-7.4c.4 0 .8.1 1.2.1-.1.4-.2.9-.2 1.4 0 2.4 1.9 4.3 4.3 4.3.6 0 1.2-.1 1.8-.4M20.6 92.9c-.9.7-1.8 1.4-2.6 2.2-3 3-5.1 6.6-6.1 10.6l-1.1-1.5c-3-3.9-4.3-8.8-3.6-13.6.6-4.6 2.9-8.8 6.5-11.7H0v-2.6c0-10.2 8.3-18.4 18.4-18.4h1.3c-3.8 5.2-5.7 11-5.7 16.9q0 1.8.3 3.6c.6 5.1 2.8 10 6.3 14.5M101 0C90.8 0 82.6 8.3 82.6 18.4s8.3 18.4 18.4 18.4c10.2 0 18.4-8.3 18.4-18.4S111.2 0 101 0m0 31.7c-7.3 0-13.3-5.9-13.3-13.3 0-7.3 6-13.3 13.3-13.3s13.3 5.9 13.3 13.3-6 13.3-13.3 13.3m23.2 13.8c-1.3-.8-2.6-1.5-3.9-2.2h.1c8.1-6.1 19.7-4.5 25.8 3.7l1.5 2.1-10.4 7.8c-3.3-4.2-7.7-8.1-13.1-11.4M110 98.7c3.5-3.5 8.1-5.4 13-5.4s9.6 1.9 13 5.4c3.5 3.5 5.4 8.1 5.4 13s-1.9 9.5-5.4 13-8.1 5.4-13 5.4h-1.2l-4.6-.3 2.6-3.7c3.3-4.7 3.9-10 1.4-12.5-1.3-1.3-3.1-1.6-4.4-1.6-2.6 0-5.4 1-8.1 2.9l-3.7 2.6-.3-4.6c-.4-5.3 1.6-10.5 5.3-14.2m-1.9-82.3c.2.6.3 1.3.3 2 0 4.1-3.3 7.4-7.4 7.4s-7.4-3.3-7.4-7.4S96.9 11 101 11c.4 0 .8.1 1.2.1-.1.4-.2.9-.2 1.4 0 2.4 1.9 4.3 4.3 4.3.6 0 1.3-.1 1.8-.4M121 51.7c-11.2-6.8-26.2-10.6-42.1-10.6-16 0-31 3.8-42.1 10.6-10.5 6.4-16.2 14.6-16.2 23.1 0 5.2 2.1 10.2 6.1 14.8 2.5-.9 5.2-1.4 8-1.4 6.3 0 12.2 2.4 16.6 6.9 3.1 3.1 5.2 6.9 6.2 11.1 6.7 1.6 13.9 2.4 21.4 2.4 7.4 0 14.6-.8 21.4-2.4 1-4.1 3.1-8 6.2-11.1 4.5-4.4 10.4-6.9 16.6-6.9 2.8 0 5.5.5 8 1.4 4-4.6 6.1-9.6 6.1-14.8 0-8.5-5.8-16.7-16.2-23.1M78.8 68.6c-7.2 0-13.1-5.9-13.1-13.1h26.2c0 7.2-5.8 13.1-13.1 13.1m79 10.3h-13.7c3.6 3 5.9 7.1 6.5 11.7.7 4.9-.6 9.7-3.6 13.6l-1.1 1.5c-1-4-3.1-7.6-6.1-10.6-.8-.8-1.7-1.5-2.6-2.2 3.5-4.5 5.7-9.4 6.3-14.5q.3-1.8.3-3.6c0-6-2-11.7-5.7-16.9h1.3c10.2 0 18.4 8.3 18.4 18.4z"/><path fill="#333" d="M230.6 36.2c5.7 0 10.5.7 14.3 2.1q5.85 2.1 9.3 6c2.3 2.6 4 5.7 5 9.3q1.5 5.4 1.5 12v45q-3.9.9-12 2.1c-5.3.8-11.4 1.2-18.1 1.2-4.4 0-8.5-.4-12.2-1.3-3.7-.8-6.8-2.2-9.4-4.1s-4.6-4.4-6.1-7.4-2.2-6.8-2.2-11.2c0-4.3.8-7.8 2.5-10.8 1.7-2.9 3.9-5.3 6.7-7.2 2.8-1.8 6.1-3.2 9.9-4q5.55-1.2 11.7-1.2c1.9 0 3.9.1 6 .4 2.1.2 4.3.6 6.7 1.2v-2.8c0-2-.2-3.9-.7-5.7s-1.3-3.4-2.5-4.8-2.7-2.4-4.7-3.2c-1.9-.8-4.4-1.1-7.3-1.1-4 0-7.6.3-10.9.9s-6 1.2-8.1 2l-2.1-13.9c2.2-.8 5.3-1.5 9.5-2.3q6.15-1.2 13.2-1.2m1.5 64c5.3 0 9.3-.3 12.1-.8v-19c-.9-.3-2.3-.6-4.1-.8-1.8-.3-3.8-.4-6-.4-1.9 0-3.8.1-5.7.4s-3.7.8-5.2 1.6c-1.6.8-2.8 1.8-3.8 3.2-.9 1.4-1.4 3.1-1.4 5.2 0 4.1 1.3 6.9 3.8 8.4 2.4 1.4 5.9 2.2 10.3 2.2M298 16.3c0 3.2-1 5.8-3.1 7.7s-4.5 2.8-7.4 2.8-5.4-.9-7.5-2.8-3.1-4.4-3.1-7.7 1-5.9 3.1-7.8 4.6-2.8 7.5-2.8c2.8 0 5.3.9 7.4 2.8s3.1 4.5 3.1 7.8m-1.8 95.9H279V38h17.2zm40.9 0c-4.7-9.7-9.6-20.9-14.6-33.6-5-12.6-9.5-26.2-13.6-40.6h18.3c1 4.2 2.3 8.6 3.6 13.4 1.4 4.8 2.8 9.6 4.4 14.3 1.6 4.8 3.2 9.4 4.8 13.9 1.7 4.5 3.2 8.5 4.6 12.1 1.4-3.6 2.9-7.6 4.6-12.1 1.6-4.5 3.2-9.1 4.8-13.9s3.1-9.6 4.5-14.3c1.4-4.8 2.7-9.2 3.7-13.4h17.7c-4.1 14.5-8.6 28-13.6 40.6s-9.9 23.8-14.6 33.6zM384 75.5c0-6.5 1-12.2 2.9-17.2 1.9-4.9 4.5-9 7.7-12.3s6.9-5.7 11.1-7.4 8.4-2.5 12.8-2.5c10.2 0 18.2 3.2 23.9 9.5S451 61.4 451 74c0 .9 0 2-.1 3.2 0 1.2-.1 2.2-.2 3.2h-48.9q.75 9 6.3 13.8c3.7 3.3 9.2 4.9 16.2 4.9 4.2 0 8-.4 11.4-1.1 3.5-.8 6.2-1.6 8.2-2.4l2.3 14q-1.35.75-3.9 1.5c-1.7.5-3.5 1-5.7 1.4-2.1.4-4.4.8-6.9 1.1s-5 .4-7.5.4c-6.5 0-12.2-1-17-2.9s-8.8-4.6-11.9-8.1-5.4-7.5-7-12.2c-1.5-4.6-2.3-9.7-2.3-15.3m49.8-7.7c0-2.4-.3-4.6-1-6.7s-1.6-4-2.9-5.5c-1.3-1.6-2.8-2.8-4.7-3.7-1.8-.9-4-1.3-6.6-1.3s-5 .5-7 1.5-3.7 2.3-5 3.9c-1.4 1.6-2.4 3.5-3.2 5.5-.8 2.1-1.3 4.2-1.6 6.4h32zm32.5-27.4q4.95-1.35 12.9-2.7c5.3-.9 11.2-1.3 17.6-1.3 6.1 0 11.1.8 15.2 2.5s7.3 4 9.7 7q3.6 4.5 5.1 10.8t1.5 13.8v41.7h-17.2v-39c0-4-.3-7.4-.8-10.1-.5-2.8-1.4-5.1-2.6-6.8s-2.8-3-4.8-3.8-4.5-1.2-7.4-1.2c-2.2 0-4.4.1-6.8.4s-4.1.5-5.2.7v59.8h-17.2z"/><defs><linearGradient id="a" x1="0" x2="157.8" y1="65.1" y2="65.1" gradientUnits="userSpaceOnUse"><stop stop-color="#e17343"/><stop offset="1" stop-color="#db3654"/></linearGradient></defs></svg>