<svg xmlns="http://www.w3.org/2000/svg" width="388" height="158" fill="none" viewBox="0 0 388 158"><path fill="#09c" d="M80.67 154.263C48.216 144.4 24.629 114.447 24.629 79c0-35.822 24.09-66.025 57.036-75.633 3.374-1.001 2.5-3.125-1.621-3.125C36.234.242.666 35.567.666 79.001s35.568 78.759 79.378 78.759c4.121-.001 4.37-2.374.626-3.497M39.731 97.349a55 55 0 0 1-.376-6.367c0-34.572 27.962-62.529 62.534-62.529 32.697 0 42.433 14.603 43.683 13.602 1.372-.996-11.86-29.954-50.177-29.954-34.572 0-62.529 27.957-62.529 62.529 0 7.988 1.499 15.604 4.243 22.591 1.123 2.999 2.871 2.999 2.622.128m26.211-45.058c16.224-7.114 36.696-7.363 56.787-.249 13.48 4.741 21.346 11.484 21.971 11.107 1.123-.498-7.866-14.603-23.968-20.721a57.17 57.17 0 0 0-55.664 8.491c-1.748 1.372-1.123 2.246.874 1.372"/><path fill="#f93" d="M387.334 81.747c0 4.492-3.745 8.237-8.237 8.237-4.497 0-8.237-3.618-8.237-8.237 0-4.492 3.618-8.237 8.237-8.237s8.237 3.618 8.237 8.237m-268.098 46.056.996 10.985h17.352l-5.869-63.779h-25.833l-32.703 63.779h17.723l5.493-10.985zm-.873-12.358H102.51l13.607-27.58h.122zm43.31-4.492h2.622l12.358-16.849h16.097l-17.098 21.468 10.488 23.216h-17.103l-6.865-18.099h-2.495l-3.867 18.099h-14.603l13.475-63.779h14.603zm53.919 27.833h14.603l5.864-27.835c3.247-15.35-2.617-17.22-17.596-17.22-10.482 0-20.594-.127-23.465 13.724h14.603c.874-3.994 3.369-4.862 6.992-4.862 6.361 0 6.113 2.617 5.239 6.738l-1.499 7.114h-.62c-.503-5.117-6.992-4.99-11.113-4.99-10.604 0-16.849 3.369-19.095 14.1-2.368 11.356 2.998 13.857 13.231 13.857 5.117 0 11.981-1.001 14.354-7.114h.498zm-4.121-18.47c4.746 0 7.866.371 7.114 4.116-.996 4.619-2.993 5.493-9.111 5.493-2.246 0-6.361 0-5.366-4.868.874-4.121 3.745-4.741 7.363-4.741m48.304-26.213-1.372 6.24h.625c2.871-5.244 8.734-6.738 13.729-6.738 6.24 0 12.479 1.123 11.605 8.734h.625c2.119-6.367 8.613-8.734 14.227-8.734 10.361 0 14.73 4.243 12.479 14.603l-6.489 30.579h-14.603l5.493-25.838c.747-4.619 1.499-8.115-4.121-8.115-5.742 0-7.612 3.745-8.613 8.613l-5.366 25.34h-14.603l5.742-27.088c.752-4.116 1.001-6.865-4.116-6.865-5.991 0-7.866 3.247-8.989 8.613l-5.366 25.34h-14.603l9.487-44.684zm79.007 44.683h14.603l5.991-27.835c3.247-15.35-2.622-17.22-17.596-17.22-10.488 0-20.599-.127-23.465 13.724h14.603c.869-3.994 3.369-4.862 6.987-4.862 6.367 0 6.118 2.617 5.244 6.738l-1.499 7.114h-.625c-.498-5.117-6.987-4.99-11.107-4.99-10.61 0-16.849 3.369-19.095 14.1-2.373 11.356 2.993 13.857 13.226 13.857 5.122 0 11.987-1.001 14.354-7.114h.503zm-3.994-18.47c4.741 0 7.861.371 7.114 4.116-.996 4.619-2.993 5.493-9.111 5.493-2.246 0-6.367 0-5.366-4.868.874-4.121 3.745-4.741 7.363-4.741m39.815 18.47H360l9.36-44.684h14.73z"/></svg>