<svg xmlns="http://www.w3.org/2000/svg" width="150" height="40" fill="none" viewBox="0 0 150 40"><g clip-path="url(#a)"><path fill="#ff0036" d="M28.84 16.634V1.14c0-.621-.5-1.12-1.121-1.12H22.38v21.349c0 .859 1.038 1.288 1.64.68l4.396-4.396c.27-.27.423-.635.423-1.02"/><path fill="#ffc900" d="M22.382.02h-10.15c-.384 0-.75.153-1.019.422L6.818 4.838c-.603.602-.18 1.64.679 1.64h14.89V.019z"/><path fill="#1904da" d="M16.621 28.853H1.128c-.622 0-1.122-.5-1.122-1.121v-5.338h21.35c.859 0 1.288 1.038.68 1.64L17.64 28.43c-.276.276-.64.423-1.019.423"/><path fill="#08b1d5" d="M.006 22.394v-10.15c0-.384.154-.749.423-1.018L4.825 6.83c.602-.602 1.64-.18 1.64.68V22.4z"/><path fill="#07242d" d="M62.787 27.43H49.793c-7.164 0-12.995-5.83-12.995-12.994S42.63 1.442 49.793 1.442s12.994 5.83 12.994 12.994zM49.793 6.721c-4.255 0-7.715 3.46-7.715 7.715s3.46 7.715 7.715 7.715h7.715v-7.715c0-4.254-3.46-7.715-7.715-7.715M149.981 27.43h-12.995c-7.163 0-12.994-5.83-12.994-12.994s5.831-12.994 12.994-12.994c7.164 0 12.995 5.83 12.995 12.994zM136.986 6.721c-4.254 0-7.714 3.46-7.714 7.715s3.46 7.715 7.714 7.715h7.715v-7.715c.006-4.254-3.46-7.715-7.715-7.715m-29.064 20.716c-7.17 0-13.001-5.83-13.001-13V2.242h5.28v12.193c0 4.255 3.466 7.721 7.721 7.721 4.254 0 7.721-3.466 7.721-7.72V2.242h5.28v12.193c0 7.17-5.831 13-13.001 13M78.85 1.442c-7.163 0-12.993 5.83-12.993 12.994S71.687 27.43 78.85 27.43l5.28-5.28h-5.28c-4.255 0-7.715-3.46-7.715-7.714s3.46-7.715 7.715-7.715 7.715 3.46 7.715 7.715v25.4h5.28v-25.4c0-7.164-5.825-12.994-12.995-12.994"/></g><defs><clipPath id="a"><path fill="#fff" d="M0 0h150v39.855H0z"/></clipPath></defs></svg>