<svg xmlns="http://www.w3.org/2000/svg" width="1029" height="263" fill="none" viewBox="0 0 1029 263"><path fill="#41bf47" d="M114.215 196.547c-52.68 2.3-101.635-44.845-98.428-103.44C18.455 44.366 58.827-1.305 117.687.07c49.6 1.16 98.457 42.839 95.1 105.237-2.539 47.253-43.72 92.899-98.572 91.239M192.76 98.9c1.242-43.28-35.978-77.465-74.745-78.961-47.043-1.816-79.874 36.329-82.182 72.584-3.217 50.52 37.168 84.885 78.295 84.891 42.693.005 79.472-34.967 78.632-78.514"/><path fill="#000" d="M453.743 260.216c-6.12 0-11.947.3-17.7-.228-1.319-.121-3.291-3.046-3.4-4.776-.576-9.442-.664-18.913-.916-28.374-.066-2.491.071-5-.217-7.47-.836-7.179-4.624-10.573-11.9-10.833-2.145-.077-4.295-.012-6.971-.012v51.271h-20.116V133.812a5 5 0 0 1 1.637-.534c11.481.088 22.986-.2 34.436.456 13.979.8 22.2 9.462 22.96 23.427.336 6.134.243 12.3.129 18.446-.174 9.347-3.306 17.245-12.113 22.457 10.443 5.671 12.263 15.279 12.469 25.588.182 9.135.141 18.276.387 27.41.072 2.782.772 5.548 1.315 9.154M412.636 190.5c3.547-.182 6.528-.133 9.449-.527 5.742-.775 8.945-3.655 9.293-9.281.369-6.79.363-13.596-.02-20.385-.188-3.805-1.981-7.5-6.115-8.153s-8.423-.142-12.607-.142zm542.148 69.71c-4.962 0-10.9.124-16.823-.121a3.98 3.98 0 0 1-2.781-2.582 77 77 0 0 1-1.132-11.35c-.166-6.809-.044-13.626-.049-20.439-.009-14.571-4.647-18.609-19.727-16.728v50.9H894.45V134.135c13.42 0 26.766-.96 39.9.291 11.311 1.078 17.661 8.639 18.848 20.04.721 7.927.831 15.897.33 23.84-.414 8.176-3.85 15.067-11.792 19.659 11.139 6.5 12.377 16.981 12.446 28.056.07 11.234.385 22.468.602 34.189m-40.314-108v38.012c2.89 0 5.517.2 8.1-.038 7.548-.7 10.224-3.311 11.034-10.829.3-3.294.426-6.602.378-9.909.027-16.424-2.6-18.872-18.8-17.65-.136.009-.267.15-.712.413zm-31.1 44.251c0 11.623.057 23.246-.01 34.868-.064 11.3-3.3 21.4-14.109 26.6-11.576 5.571-23.609 5.422-34.753-1.581-7.608-4.78-11.073-12.561-11.205-21.176-.382-24.889-.824-49.806-.058-74.675.628-20.384 13.888-30.744 34.249-28.6 15.9 1.677 25.507 11.982 25.834 28.194.245 12.124.048 24.249.052 36.37m-40.286-.257c0 11.793-.059 23.587.03 35.38.036 4.661.956 9.039 6.1 10.912 7.455 2.716 13.785-1.433 13.981-9.749.332-14.11.183-28.233.188-42.35 0-9.965.155-19.938-.183-29.892-.272-7.99-5.649-11.818-13.111-9.932-4.5 1.139-6.882 4.53-6.951 10.75-.133 11.626-.038 23.254-.054 34.877zm-459.463 63.765h-20.252c-1.2-7.4-2.406-14.864-3.636-22.466h-24.112c-1 6.47-2.138 12.8-2.886 19.185-.326 2.779-1.416 3.671-4.105 3.584-4.8-.156-9.6-.044-15.074-.044l20.305-126.734h29.479zm-35.383-98.9-1.285-.012-8.657 58.156h18.683l-8.741-58.14zm333.224 98.902h-19.847l-3.58-22.674c-7.362 0-14.491-.144-21.6.156-1.065.045-2.693 2.045-2.949 3.357-1.237 6.322-2.093 12.718-3.1 19.158H612c1.282-8.332 2.47-16.324 3.747-24.3 5.222-32.639 10.52-65.267 15.638-97.922.54-3.449 1.67-4.8 5.334-4.637 6.981.3 13.987.207 20.977.032 2.858-.071 4.155.809 4.617 3.727q9.39 59.266 18.918 118.513a43 43 0 0 1 .231 4.59M655.3 219.327l-8.965-59.52-.89.068-8.938 59.78c5.41 0 10.214.018 15.019-.014 1.138-.007 2.274-.184 3.774-.314m91.781-43.535H728.3c0-5.28.208-10.262-.048-15.221-.382-7.409-4.817-11.119-11.712-10.28-5.106.621-7.823 3.725-8.174 8.538-.459 6.283-.469 12.606-.492 18.912-.059 16.284-.033 32.568 0 48.853a68 68 0 0 0 .349 6.958c.68 6.428 3.878 9.374 10 9.362 5.977-.011 9.6-3.136 9.945-9.478.365-6.76.083-13.555.083-20.629h19.479c-.468 9.284-.141 18.464-1.566 27.363-2.074 12.955-12.085 20.806-25.242 21.186a54.4 54.4 0 0 1-9.959-.332c-14.255-2.236-22.641-11.909-22.954-28.1-.47-24.25-.725-48.537.076-72.771.789-23.867 24.225-36.3 45.468-24.926 8.585 4.6 12.416 12.381 13.4 21.5.669 6.206.128 12.542.128 19.065"/><path fill="#41bf47" d="M229.492 243.771v18.369H.313v-18.369z"/><path fill="#000" d="M958.328 133.23c6.853 0 12.971-.185 19.057.172 1.081.064 2.561 2.234 2.956 3.677 4.341 15.845 8.5 31.741 12.723 47.618.372 1.4.861 2.768 1.616 5.173 4.665-17.7 9.2-34.338 13.36-51.069 1.05-4.229 2.62-6.206 7.27-5.7 4.24.458 8.57.1 13.59.1-2.79 9.533-5.36 18.386-7.98 27.223-5.05 17.022-10.27 34-15.12 51.077a58 58 0 0 0-2.09 14.156c-.3 11.271-.1 22.555-.1 34.2h-19.996c0-2.818-.182-5.746.029-8.645 1.6-22.01-1.822-43.156-9.152-64.014-6.091-17.357-10.625-35.259-16.163-53.968M581 259.986h-19.933V133.649h52.206v17.829h-31.941v37.953H606.2v18.145H581zM459.243 151.777v-18.123h61.407v18.067h-20.567v108.142h-19.89V151.777zm335.945 108.165h-20.137V151.718h-20.636v-18.142h60.992v18.044h-20.219zm-246.11.01h-19.42V133.546h19.42z"/><path fill="#41bf47" d="M499.356 69.487c-7.663-4.827-8.007-11.35-6.1-20.694 1.444-7.072 9.158-10.686 16.4-10.736 9.394-.066 18.795.776 28.2 1.227 1.445 7.188 1.192 7.65-5.291 9.26.258 3.177 1.234 6.53.653 9.587-2.087 10.969-9.272 13.61-18.613 14.7-1.15.133-2.433-.277-3.47.088a33 33 0 0 0-4.579 2.412c1.583.835 3.109 2.236 4.759 2.4 5.886.6 11.933.149 17.7 1.244 11.129 2.113 11.3 16.777 5.907 22.882-7.872 8.915-18.433 8.913-29 8.531a33 33 0 0 1-9.016-1.955c-4.9-1.632-7.837-5.022-8.411-10.353-.62-5.753 1.513-9.91 6.674-12.542.717-.366 1.368-.861 2.053-1.3-4.541-5.252-3.891-10.602 2.134-14.751m14.77 20.337c-2.326 0-4.874-.6-6.918.16a13.96 13.96 0 0 0-5.76 4.575c-.486.63.7 3.285 1.791 4.253 3.9 3.449 16.876 2.383 20.215-1.6.925-1.1 1.943-3.288 1.455-4.152a7.52 7.52 0 0 0-4.336-3.122c-2.022-.523-4.287-.121-6.447-.114m5.372-34.332c.033-4.723-3.081-8.552-6.97-8.57s-7.076 3.872-7.013 8.554c.054 4.01 3.5 8.257 6.8 8.376 3.905.14 7.15-3.637 7.185-8.36zm-83.283 8.19c.1-8.326 2.107-15.785 9.081-20.913 7.845-5.769 16.607-6.33 25.547-3.018 8.518 3.156 12.45 9.895 13.713 18.59 1.151 7.932.532 15.56-4.044 22.323-5.936 8.775-15.189 10.18-24.528 8.91-9.216-1.254-15.655-7.068-18.324-16.228-.903-3.099-.987-6.436-1.445-9.664m14.944.2.426.063a30.5 30.5 0 0 0 .054 5.454c.8 4.3 2.956 7.7 7.648 8.364 4.207.6 8.038-.382 9.651-4.866 2.219-6.167 2.426-12.322-.506-18.47-1.656-3.472-4.17-4.708-7.828-4.56-3.85.156-6.738 1.853-7.946 5.412-.924 2.73-1.029 5.73-1.499 8.608zm-86.466 24.675H351V23.963h37.314v11.7h-23.339v16.18h21.391v11.848h-21.673zm-58.756 6.254c1.9 0 3.62-.319 5.167.056 6.014 1.456 9.631-3.183 9.6-8.935-.113-18.606-.042-37.213-.042-55.82v-5.79h14.717c.089 1.263.258 2.537.259 3.812.017 19.105.344 38.22-.205 57.309-.151 5.231-1.728 11.287-4.778 15.386-6.154 8.272-15.335 8.177-24.714 5.663zm125.957-56.329c-.5 4.472-.965 8.676-1.492 13.415-2.254 0-4.369-.043-6.481.008A10.487 10.487 0 0 0 413.6 62.273c-.073 8.616-.019 17.232-.019 26.19h-14.7V39.431c9.751-1.392 9.751-1.392 13.2 6.562 4.939-6.2 10.993-9.493 19.813-7.51"/><path fill="#fff" d="M412.636 190.5v-38.484c4.184 0 8.486-.506 12.607.142s5.927 4.348 6.115 8.153c.383 6.789.389 13.595.02 20.385-.348 5.626-3.551 8.506-9.293 9.281-2.921.394-5.902.345-9.449.523m501.834-38.291c.445-.263.576-.4.716-.414 16.2-1.222 18.825 1.226 18.8 17.65a94 94 0 0 1-.378 9.909c-.81 7.518-3.486 10.126-11.034 10.829-2.585.24-5.212.038-8.1.038zM843.091 196.2c.006-11.627-.086-23.255.043-34.881.069-6.22 2.446-9.611 6.951-10.75 7.462-1.886 12.839 1.942 13.111 9.932.338 9.954.187 19.927.183 29.892 0 14.117.144 28.24-.188 42.35-.2 8.316-6.526 12.465-13.981 9.749-5.14-1.873-6.06-6.251-6.1-10.912-.085-11.789-.026-23.58-.019-35.38m-494.853-35.127 8.741 58.144H338.3l8.657-58.156zM655.3 219.327c-1.5.13-2.636.307-3.774.314-4.8.032-9.609.014-15.019.014l8.938-59.78.89-.068zM514.126 89.82c2.16 0 4.425-.405 6.447.122a7.52 7.52 0 0 1 4.336 3.122c.488.864-.53 3.05-1.455 4.152-3.339 3.979-16.313 5.045-20.215 1.6-1.094-.968-2.277-3.623-1.791-4.253a13.96 13.96 0 0 1 5.76-4.574c2.044-.76 4.592-.165 6.918-.169m5.374-34.328c-.033 4.723-3.278 8.5-7.18 8.36-3.3-.12-6.749-4.365-6.8-8.376-.063-4.682 3.126-8.571 7.013-8.554s6.998 3.847 6.967 8.57m-68.341 8.395c.47-2.878.575-5.879 1.5-8.6 1.208-3.559 4.1-5.256 7.946-5.412 3.658-.148 6.172 1.088 7.828 4.559 2.932 6.149 2.725 12.3.506 18.471-1.613 4.484-5.444 5.463-9.651 4.866-4.692-.666-6.852-4.068-7.648-8.364a30.5 30.5 0 0 1-.054-5.454z"/></svg>