<svg xmlns="http://www.w3.org/2000/svg" width="237" height="41" fill="none" viewBox="0 0 237 41"><g fill="#eb6c34" clip-path="url(#a)"><path d="M63.96 22.517h-6.724a1.94 1.94 0 0 1-1.427-.492 1.85 1.85 0 0 1-.508-1.41 1.92 1.92 0 0 1 .459-1.427 1.9 1.9 0 0 1 1.427-.525h14.087v-7.281H54.563a9.2 9.2 0 0 0-6.823 2.394 9.2 9.2 0 0 0-2.394 6.822 9.22 9.22 0 0 0 2.394 6.806 9.22 9.22 0 0 0 6.823 2.411h6.675a1.94 1.94 0 0 1 1.426.525 1.9 1.9 0 0 1 .525 1.443 1.8 1.8 0 0 1-.525 1.41 1.92 1.92 0 0 1-1.426.509h-16.17V41H63.96a9.2 9.2 0 0 0 6.822-2.427 9.12 9.12 0 0 0 2.428-6.79 9.18 9.18 0 0 0-2.428-6.839 9.25 9.25 0 0 0-6.822-2.427m27.404 10.595a2.9 2.9 0 0 1-.59-2.067V18.663h9.102v-7.281h-9.102V3.46h-9.84v7.922H76.8v7.281h4.133v12.89a16.8 16.8 0 0 0 .492 4.38 6.56 6.56 0 0 0 1.64 2.935A6.4 6.4 0 0 0 86 40.508c1.43.37 2.903.541 4.38.508h9.659v-7.314h-6.56a2.9 2.9 0 0 1-2.116-.59m67.717-18.778a9.2 9.2 0 0 0-3.854-2.23 18.8 18.8 0 0 0-5.576-.722h-15.99v7.281h15.58a3.28 3.28 0 0 1 2.362.689c.523.664.77 1.504.688 2.345v.345h-11.25a9.53 9.53 0 0 0-7.052 2.46 9.53 9.53 0 0 0-2.444 7.035 9.56 9.56 0 0 0 2.444 7.02A9.6 9.6 0 0 0 141.04 41h21.058V23.747a18.6 18.6 0 0 0-.738-5.576 9.3 9.3 0 0 0-2.28-3.837m-6.708 19.483h-8.511a2.3 2.3 0 0 1-1.64-.59 2.2 2.2 0 0 1-.607-1.64 2.3 2.3 0 0 1 .607-1.723 2.3 2.3 0 0 1 1.64-.59h8.511zM104.96 20.664V41h9.84V22.058c0-2.427.853-3.395 2.46-3.395h10.922v-7.281h-13.907a9.28 9.28 0 0 0-9.315 9.282M13.3 5.428 0 41h11.054l10.053-30.75L31.16 41h11.054l-13.3-35.572a8.331 8.331 0 0 0-15.614 0m179.006 6.052H180.4V41h11.939q7.134 0 10.578-3.592c2.296-2.394 3.444-6.117 3.444-11.2 0-5.085-1.148-8.808-3.444-11.202s-5.855-3.526-10.611-3.526m8.446 19.68a7.6 7.6 0 0 1-1.64 3.28 6.7 6.7 0 0 1-3.083 1.886 15.3 15.3 0 0 1-4.657.607h-6.15V15.58h6.15a15.9 15.9 0 0 1 4.657.59 6.97 6.97 0 0 1 3.034 1.87 7.5 7.5 0 0 1 1.64 3.28 20 20 0 0 1 .509 4.92 20 20 0 0 1-.46 4.92m35.408-1.378a6.9 6.9 0 0 0-1.394-2.23 5.7 5.7 0 0 0-1.886-1.312 7 7 0 0 0-1.87-.574q.36-.075.706-.197.469-.172.902-.426a5.3 5.3 0 0 0 1.902-1.935c.281-.52.501-1.07.656-1.64a9 9 0 0 0 .246-2.247 9.3 9.3 0 0 0-.558-3.395 6.56 6.56 0 0 0-1.64-2.41 6.95 6.95 0 0 0-2.574-1.46 11.3 11.3 0 0 0-3.444-.476h-14.924V41h15.678a12.6 12.6 0 0 0 3.674-.492 7.4 7.4 0 0 0 2.738-1.46 6.3 6.3 0 0 0 1.722-2.46 9.7 9.7 0 0 0 .574-3.46 9 9 0 0 0-.508-3.346m-19.073-14.251h9.003a4.57 4.57 0 0 1 3.28.984 4.02 4.02 0 0 1 1.066 3.1 4.1 4.1 0 0 1-1.066 3.165 4.64 4.64 0 0 1-3.28.967h-9.003zm13.333 20.287a4.92 4.92 0 0 1-3.428 1.098h-9.84V27.88h9.84a4.72 4.72 0 0 1 3.428 1.115 4.55 4.55 0 0 1 1.148 3.428 4.5 4.5 0 0 1-1.148 3.395"/></g><defs><clipPath id="a"><path fill="#fff" d="M0 0h237v41H0z"/></clipPath></defs></svg>