<svg xmlns="http://www.w3.org/2000/svg" width="1000" height="250" fill="none" viewBox="0 0 1000 250"><g fill-rule="evenodd" clip-path="url(#a)" clip-rule="evenodd"><path fill="#f26e7e" d="M40.17 138.844c9.203-5.326 9.218-22.569.035-38.513-9.184-15.945-24.09-24.552-33.293-19.226s-9.218 22.569-.034 38.513 24.09 24.552 33.292 19.226m.055 34.14c9.184 15.945 9.17 33.187-.034 38.513-9.203 5.326-24.108-3.282-33.292-19.226s-9.169-33.187.034-38.513 24.108 3.282 33.292 19.226m62.715 36.344c9.184 15.944 9.169 33.186-.034 38.514-9.203 5.325-24.109-3.283-33.293-19.227s-9.168-33.187.035-38.513 24.108 3.282 33.292 19.226m-.02-72.653c9.184 15.945 9.168 33.187-.035 38.513s-24.108-3.281-33.292-19.226-9.169-33.187.034-38.512 24.109 3.281 33.293 19.225"/><path fill="#8a3391" d="M228.379 119.658c9.183-15.944 9.169-33.187-.034-38.513s-24.108 3.282-33.292 19.226-9.169 33.187.034 38.513 24.109-3.282 33.292-19.226m.002 34.123c9.203 5.326 9.219 22.569.035 38.513s-24.09 24.552-33.293 19.226-9.218-22.569-.034-38.513 24.089-24.552 33.292-19.226m-62.702 36.284c9.203 5.326 9.218 22.569.034 38.513s-24.089 24.552-33.292 19.226c-9.203-5.325-9.218-22.569-.034-38.513s24.089-24.552 33.292-19.226m-.035-72.636c9.203 5.325 9.218 22.568.034 38.512-9.184 15.945-24.09 24.553-33.293 19.227s-9.218-22.569-.034-38.513c9.184-15.945 24.09-24.552 33.293-19.226"/><path fill="#f7bf2a" d="M150.876 19.287c0 10.652-14.89 19.287-33.258 19.287S84.36 29.94 84.36 19.287 99.25 0 117.618 0s33.258 8.635 33.258 19.287M88.174 55.534c0 10.652-14.89 19.287-33.258 19.287s-33.258-8.635-33.258-19.287 14.89-19.287 33.258-19.287 33.258 8.635 33.258 19.287m92.227 19.287c18.368 0 33.258-8.635 33.258-19.287s-14.89-19.287-33.258-19.287-33.258 8.635-33.258 19.287 14.89 19.287 33.258 19.287m-29.525 17.041c0 10.652-14.89 19.287-33.258 19.287S84.36 102.514 84.36 91.862s14.89-19.287 33.258-19.287 33.258 8.635 33.258 19.287"/><path fill="#000" d="M598.16 44.811h12.365c3.837 0 5.969 2.137 5.969 5.983v143.914c0 3.846-2.132 5.983-5.969 5.983H598.16c-3.838 0-5.969-2.137-5.969-5.983V50.794c0-3.846 2.131-5.983 5.969-5.983M360.362 200.69c3.838 0 5.97-2.136 5.97-5.983v-48.185h25.047c31.765 0 51.696-19.017 51.696-47.65 0-28.526-19.931-47.65-51.696-47.65h-44.233c-3.838 0-5.97 2.136-5.97 5.982v137.503c0 3.847 2.132 5.983 5.97 5.983zm5.97-128.208h23.449c17.906 0 28.033 10.364 28.033 26.39 0 16.133-10.127 26.496-28.033 26.496h-23.449zm94.652 23.612v62.181c0 27.245 17.588 44.873 44.129 44.873 14.068 0 26.113-6.944 33.574-17.094v8.654c0 3.846 2.132 5.983 5.97 5.983h12.47c3.838 0 5.969-2.137 5.969-5.983V96.094c0-3.846-2.131-5.983-5.969-5.983h-12.47c-3.838 0-5.97 2.137-5.97 5.983v54.275c0 18.377-13.216 31.304-28.565 31.304-14.71 0-24.835-10.47-24.835-25.428v-60.15c0-3.847-2.132-5.984-5.969-5.984h-12.365c-3.838 0-5.969 2.137-5.969 5.983m182.585 0v62.181c0 27.245 17.586 44.873 44.127 44.873 14.071 0 26.116-6.944 33.577-17.094v8.654c0 3.846 2.132 5.983 5.969 5.983h12.471c3.838 0 5.969-2.137 5.969-5.983V96.094c0-3.846-2.131-5.983-5.969-5.983h-12.471c-3.837 0-5.969 2.137-5.969 5.983v54.275c0 18.377-13.217 31.304-28.567 31.304-14.708 0-24.835-10.47-24.835-25.428v-60.15c0-3.847-2.132-5.984-5.967-5.984h-12.365c-3.838 0-5.97 2.137-5.97 5.983m302.071 36.433v62.288c0 3.846-2.132 5.983-5.967 5.983h-12.471c-3.837 0-5.969-2.137-5.969-5.983v-60.151c0-14.958-9.273-25.428-22.918-25.428-13.75 0-26.753 13.889-26.753 30.663v54.916c0 3.846-2.131 5.983-5.969 5.983h-12.471c-3.837 0-5.969-2.137-5.969-5.983v-60.151c0-14.958-9.273-25.428-22.915-25.428-13.111 0-26.756 12.607-26.756 30.663v54.916c0 3.846-2.131 5.983-5.969 5.983h-12.471c-3.835 0-5.967-2.137-5.967-5.983v-98.72c0-3.847 2.132-5.983 5.967-5.983h12.471c3.838 0 5.969 2.136 5.969 5.983v8.44c7.782-10.257 18.975-16.988 31.871-16.988 16.628 0 30.591 8.654 37.52 22.971 7.247-13.89 20.678-22.97 36.452-22.97 23.983 0 42.315 17.735 42.315 44.979M1000 59.983c0-8.44-6.609-14.957-15.136-14.957-8.528 0-15.029 6.517-15.029 14.957 0 8.334 6.501 14.85 15.029 14.85S1000 68.318 1000 59.984m-2.984 36.112c0-3.846-2.131-5.983-5.969-5.983h-12.365c-3.837 0-5.969 2.137-5.969 5.983v98.613c0 3.847 2.132 5.983 5.969 5.983h12.365c3.838 0 5.969-2.136 5.969-5.983z"/></g><defs><clipPath id="a"><path fill="#fff" d="M0 0h1000v250H0z"/></clipPath></defs></svg>