<svg xmlns="http://www.w3.org/2000/svg" width="40" height="40" class="w-6 h-6"><defs><linearGradient id="a" x1="0%" x2="100%" y1="100%" y2="0%"><stop offset="0%" stop-color="#4d27a8"/><stop offset="100%" stop-color="#a166ff"/></linearGradient></defs><g fill="none" fill-rule="evenodd"><path fill="url(#a)" d="M0 0h40v40H0z"/><path fill="#fff" d="m30.971 21.03-2.944-1.263v10.489c2.546-.352 2.932-2.968 2.948-3.087zm-3.944 9.24V19.76l-3.035 1.273v6.2c.012.055.445 2.768 3.035 3.037m.306-11.722a.5.5 0 0 1 .391 0l3.944 1.693a.5.5 0 0 1 .303.459v6.534c-.183 1.447-1.357 4.063-4.527 4.063-3.075 0-4.254-2.612-4.448-3.994l-.004-6.603c0-.201.121-.383.306-.461zm5.65.637-5.461-2.406-5.53 2.327v7.128c-.001.042-.054 2.868 1.657 4.623.917.94 2.194 1.419 3.795 1.419 1.602 0 2.887-.48 3.819-1.422 1.735-1.758 1.72-4.585 1.72-4.613zM31.98 31.55c-1.127 1.144-2.654 1.725-4.536 1.725-1.884 0-3.404-.581-4.517-1.727-2.005-2.063-1.939-5.197-1.935-5.33v-7.445a.5.5 0 0 1 .305-.461l6.035-2.54a.5.5 0 0 1 .396.004l5.956 2.625c.182.08.299.259.299.457v7.375c.002.125.027 3.255-2.003 5.317m-20.988-7.314h8v1h-8c-2.811 0-4.811-2.016-4.979-5.016A4 4 0 0 1 6 19.84c0-2.508 1.318-4.222 3.817-4.978a8 8 0 0 1-.032-.647c0-2.916 1.577-5.445 4.017-6.445 3.298-1.348 7.042-.895 9.106 1.104a8.2 8.2 0 0 1 1.76 2.485c.609-.451 1.4-.663 2.349-.614 1.78.09 3.149 1.713 3.433 4.007 1.498.124 2.485.883 3.01 2.308l-.937.346c-.428-1.157-1.208-1.673-2.531-1.673a.5.5 0 0 1-.5-.47c-.138-2.338-1.406-3.463-2.526-3.52-.948-.05-1.645.22-2.079.792a.5.5 0 0 1-.473.193.5.5 0 0 1-.395-.323 7.4 7.4 0 0 0-1.807-2.814c-1.788-1.73-5.09-2.1-8.031-.895-2.063.845-3.396 3.01-3.396 5.519 0 .273.035.696.066.959a.5.5 0 0 1-.376.544C8.169 16.29 7 17.678 7 19.842c0 .1-.001.2.009.302.141 2.495 1.703 4.093 3.983 4.093z"/></g></svg>