<svg xmlns="http://www.w3.org/2000/svg" width="40" height="40" class="w-6 h-6"><defs><linearGradient id="a" x1="0%" x2="100%" y1="100%" y2="0%"><stop offset="0%" stop-color="#c8511b"/><stop offset="100%" stop-color="#f90"/></linearGradient></defs><g fill="none" fill-rule="evenodd"><path fill="url(#a)" d="M0 0h40v40H0z"/><path fill="#fff" d="M14.386 33H8.27l6.763-14.426 3.064 6.44L14.387 33zm1.085-15.798a.49.49 0 0 0-.442-.282h-.002a.49.49 0 0 0-.441.285l-7.538 16.08a.5.5 0 0 0 .028.482.49.49 0 0 0 .415.233h7.206c.19 0 .363-.111.445-.286l3.944-8.489a.5.5 0 0 0-.002-.432zM32.018 33h-5.882l-9.47-20.711a.49.49 0 0 0-.444-.289H12.37l.005-5h7.549l9.424 20.71c.08.177.256.29.446.29h2.224zm.49-6h-2.4L20.684 6.29a.49.49 0 0 0-.446-.29h-8.353a.496.496 0 0 0-.491.5l-.006 6a.5.5 0 0 0 .144.354.5.5 0 0 0 .347.146h4.032l9.468 20.711a.49.49 0 0 0 .445.289h6.686a.495.495 0 0 0 .491-.5v-6c0-.276-.219-.5-.491-.5z"/></g></svg>