<svg xmlns="http://www.w3.org/2000/svg" width="118" height="70" fill="none" viewBox="0 0 118 70"><path fill="#252f3e" d="M33.254 25.423c0 1.44.157 2.608.431 3.465.314.856.707 1.79 1.256 2.803.196.311.275.623.275.895 0 .39-.236.779-.746 1.168l-2.472 1.635c-.354.234-.707.35-1.02.35-.393 0-.786-.194-1.178-.544a12 12 0 0 1-1.413-1.83 30 30 0 0 1-1.216-2.297q-4.593 5.373-11.539 5.372c-3.296 0-5.926-.934-7.849-2.803s-2.904-4.36-2.904-7.475c0-3.309 1.177-5.995 3.571-8.02s5.573-3.036 9.616-3.036c1.334 0 2.707.117 4.16.311 1.452.195 2.943.506 4.513.857v-2.842c0-2.96-.628-5.023-1.845-6.23-1.256-1.206-3.375-1.79-6.397-1.79a18 18 0 0 0-4.238.506c-1.452.35-2.865.778-4.239 1.323a11 11 0 0 1-1.373.506c-.275.078-.471.117-.628.117-.55 0-.824-.389-.824-1.207V4.75c0-.623.078-1.09.274-1.363s.55-.545 1.1-.817q2.06-1.051 4.944-1.752c1.923-.507 3.964-.74 6.122-.74 4.67 0 8.085 1.051 10.283 3.153 2.158 2.103 3.257 5.295 3.257 9.578v12.614zM17.32 31.34c1.295 0 2.63-.233 4.042-.7 1.413-.468 2.669-1.324 3.729-2.492.627-.74 1.098-1.557 1.334-2.492.235-.934.392-2.063.392-3.387v-1.635a33 33 0 0 0-3.61-.662 30 30 0 0 0-3.69-.233c-2.629 0-4.552.506-5.847 1.557s-1.923 2.53-1.923 4.477c0 1.83.47 3.192 1.452 4.127.942.973 2.316 1.44 4.12 1.44m31.514 4.205c-.706 0-1.177-.117-1.491-.39-.314-.233-.589-.778-.824-1.518L37.296 3.543c-.236-.779-.353-1.285-.353-1.557 0-.623.314-.974.942-.974h3.846c.745 0 1.255.117 1.53.39.314.233.55.778.785 1.518l6.593 25.773L56.762 2.92c.196-.779.431-1.285.745-1.518s.864-.39 1.57-.39h3.14c.745 0 1.256.117 1.57.39.314.233.588.778.745 1.518l6.201 26.085 6.79-26.085c.235-.779.51-1.285.785-1.518.313-.234.824-.39 1.53-.39h3.65c.628 0 .981.312.981.974 0 .194-.04.389-.078.622-.04.234-.118.546-.275.974l-9.458 30.094q-.353 1.168-.825 1.519c-.314.233-.824.389-1.49.389h-3.376c-.746 0-1.256-.117-1.57-.39-.314-.272-.589-.778-.746-1.557L60.57 8.527l-6.044 25.071c-.197.78-.432 1.285-.746 1.558-.314.272-.863.39-1.57.39zm50.43 1.051c-2.04 0-4.081-.233-6.043-.7-1.963-.468-3.493-.974-4.514-1.558-.627-.35-1.06-.74-1.216-1.09a2.7 2.7 0 0 1-.236-1.09v-1.986c0-.817.314-1.207.903-1.207q.354 0 .707.117c.235.078.588.234.98.39a21.5 21.5 0 0 0 4.318 1.362c1.57.312 3.1.467 4.67.467 2.472 0 4.395-.428 5.73-1.284 1.334-.857 2.04-2.103 2.04-3.699 0-1.09-.353-1.985-1.059-2.725-.707-.74-2.041-1.402-3.964-2.025l-5.69-1.751c-2.865-.896-4.985-2.22-6.28-3.972-1.295-1.713-1.962-3.62-1.962-5.645q0-2.452 1.06-4.321a10 10 0 0 1 2.825-3.193c1.178-.895 2.512-1.557 4.082-2.024S98.833 0 100.56 0c.863 0 1.766.039 2.629.156.903.117 1.727.272 2.551.428.785.195 1.531.39 2.237.623q1.06.35 1.648.7c.55.312.942.624 1.178.974q.353.467.353 1.285v1.83c0 .817-.314 1.245-.903 1.245-.314 0-.824-.155-1.491-.467q-3.356-1.518-7.535-1.518c-2.237 0-4.003.35-5.22 1.09s-1.844 1.869-1.844 3.465c0 1.09.392 2.024 1.177 2.764s2.237 1.48 4.317 2.141l5.573 1.752c2.826.896 4.866 2.142 6.083 3.738s1.805 3.426 1.805 5.45c0 1.674-.353 3.193-1.02 4.516-.707 1.324-1.648 2.492-2.865 3.426-1.217.974-2.669 1.675-4.356 2.18-1.766.546-3.611.818-5.612.818"/><path fill="#f90" fill-rule="evenodd" d="M106.682 55.517C93.77 64.977 75.011 70 58.881 70 36.276 70 15.907 61.708.523 47.926c-1.217-1.09-.118-2.57 1.334-1.714 16.64 9.578 37.166 15.379 58.398 15.379 14.324 0 30.062-2.96 44.543-9.033 2.159-.973 4.003 1.402 1.884 2.96" clip-rule="evenodd"/><path fill="#f90" fill-rule="evenodd" d="M112.059 49.444c-1.649-2.102-10.911-1.012-15.11-.506-1.256.155-1.452-.935-.314-1.752 7.378-5.14 19.505-3.66 20.918-1.947 1.413 1.752-.392 13.782-7.3 19.544-1.059.895-2.08.428-1.609-.74 1.57-3.854 5.063-12.536 3.415-14.6" clip-rule="evenodd"/></svg>