<svg xmlns="http://www.w3.org/2000/svg" width="40" height="40" fill="none" viewBox="0 0 40 40"><path fill="#fff" d="M0 0h40v40H0z"/><mask id="a" fill="#fff"><rect width="40" height="39" y="1" rx=".25"/></mask><rect width="40" height="39" y="1" fill="#fff" stroke="#202124" stroke-width="2" mask="url(#a)" rx=".25"/><path fill="#252f3e" d="M12.32 18.126c0 .414.047.75.13.996.093.246.21.515.373.806a.47.47 0 0 1 .082.257c0 .112-.07.224-.222.336l-.737.47a.6.6 0 0 1-.304.1c-.117 0-.233-.055-.35-.156a3.5 3.5 0 0 1-.421-.526 9 9 0 0 1-.363-.66Q9.14 21.294 7.07 21.293c-.982 0-1.766-.269-2.339-.806s-.865-1.253-.865-2.149c0-.951.35-1.723 1.064-2.305.713-.582 1.66-.873 2.865-.873.398 0 .807.033 1.24.09.432.055.877.145 1.344.245v-.817c0-.85-.187-1.444-.55-1.79-.373-.348-1.005-.515-1.905-.515-.41 0-.83.044-1.263.145q-.65.148-1.263.38a4 4 0 0 1-.41.146.8.8 0 0 1-.187.034c-.164 0-.245-.112-.245-.347v-.549c0-.179.023-.313.081-.391s.164-.157.328-.236q.614-.301 1.473-.503a7.4 7.4 0 0 1 1.825-.213c1.391 0 2.409.302 3.064.907.643.604.97 1.522.97 2.753v3.626zm-4.747 1.7c.386 0 .783-.066 1.204-.2a2.6 2.6 0 0 0 1.111-.717c.187-.212.328-.448.398-.716a4 4 0 0 0 .117-.974v-.47c-.34-.078-.702-.146-1.076-.19a9 9 0 0 0-1.1-.068c-.783 0-1.356.146-1.742.448s-.573.728-.573 1.287c0 .526.14.918.433 1.187.28.28.69.414 1.228.414m9.39 1.21c-.21 0-.35-.034-.444-.112-.094-.067-.175-.224-.246-.437l-2.748-8.652c-.07-.224-.105-.369-.105-.447 0-.18.094-.28.28-.28h1.147c.222 0 .374.033.456.112.093.067.163.224.234.436l1.964 7.41 1.825-7.41c.058-.224.128-.37.222-.436.093-.067.257-.112.468-.112h.935c.222 0 .374.033.468.112.093.067.175.224.222.436l1.848 7.5 2.023-7.5c.07-.224.152-.37.234-.436.093-.067.245-.112.456-.112h1.087c.188 0 .293.09.293.28 0 .056-.012.112-.023.179a1.6 1.6 0 0 1-.082.28l-2.819 8.651q-.105.336-.245.437c-.094.067-.246.112-.445.112h-1.006c-.222 0-.374-.034-.467-.112s-.175-.224-.223-.448l-1.812-7.22-1.801 7.21c-.058.223-.128.368-.222.447-.094.078-.258.112-.468.112zm15.028.302a8 8 0 0 1-1.801-.202c-.585-.134-1.041-.28-1.345-.447-.187-.101-.316-.213-.363-.314a.8.8 0 0 1-.07-.313v-.57c0-.236.094-.348.27-.348q.105 0 .21.034c.07.022.175.067.292.111.398.169.83.303 1.286.392.468.09.924.135 1.392.135.737 0 1.31-.123 1.707-.37.398-.246.608-.604.608-1.063 0-.313-.105-.57-.315-.784-.21-.212-.608-.402-1.181-.582l-1.696-.503c-.854-.258-1.485-.638-1.871-1.142-.386-.492-.585-1.04-.585-1.623q0-.705.316-1.242c.21-.358.491-.672.842-.918.35-.257.748-.448 1.216-.582s.959-.19 1.474-.19c.257 0 .526.011.783.045.27.033.515.078.76.123.234.056.456.112.667.179q.315.1.491.201c.164.09.28.18.35.28q.105.135.106.37v.525c0 .236-.093.359-.269.359-.093 0-.245-.045-.444-.135q-1-.436-2.246-.436c-.666 0-1.193.1-1.555.313-.363.213-.55.537-.55.996 0 .314.117.582.351.795s.667.425 1.287.615l1.66.504c.842.258 1.45.616 1.813 1.075.362.459.538.985.538 1.567 0 .48-.105.918-.304 1.298-.21.38-.491.716-.854.985-.362.28-.795.481-1.298.627a5.8 5.8 0 0 1-1.672.235"/><path fill="#f90" fill-rule="evenodd" d="M34.2 26.777c-3.847 2.72-9.437 4.164-14.243 4.164-6.736 0-12.805-2.384-17.39-6.346-.362-.313-.035-.739.398-.493 4.959 2.754 11.075 4.422 17.401 4.422 4.269 0 8.958-.851 13.273-2.597.644-.28 1.194.403.562.85" clip-rule="evenodd"/><path fill="#f90" fill-rule="evenodd" d="M35.803 25.031c-.491-.604-3.251-.29-4.502-.145-.374.044-.433-.269-.094-.504 2.199-1.477 5.812-1.052 6.233-.56.421.504-.116 3.963-2.175 5.62-.316.257-.62.122-.48-.213.469-1.108 1.51-3.604 1.018-4.198" clip-rule="evenodd"/><path fill="#202124" d="M0 .25A.25.25 0 0 1 .25 0h39.5a.25.25 0 0 1 .25.25v2.5H0z"/><circle cx="1.114" cy="1.354" r=".35" fill="#ff6058" stroke="#e14942" stroke-width=".05"/><circle cx="2.264" cy="1.354" r=".35" fill="#ffc130" stroke="#e1a325" stroke-width=".05"/><circle cx="3.414" cy="1.354" r=".35" fill="#27ca40" stroke="#3eaf3f" stroke-width=".05"/></svg>