<svg xmlns="http://www.w3.org/2000/svg" width="44" height="44" fill="none" viewBox="0 0 44 44"><path fill="#2e27ad" fill-rule="evenodd" d="M41.964 27.98v-3.53c-1.73.942-4.35 1.43-6.958 1.43-2.61 0-5.23-.488-6.96-1.43v3.53c0 .628 2.368 2.101 6.96 2.101 4.59 0 6.958-1.473 6.958-2.1zm0 6.092v-3.42c-1.73.941-4.35 1.43-6.958 1.43-2.61 0-5.23-.489-6.96-1.43v3.42c0 .628 2.368 2.1 6.96 2.1 4.59 0 6.958-1.472 6.958-2.1m0 5.44v-2.769c-1.73.942-4.35 1.43-6.958 1.43-2.61 0-5.23-.488-6.96-1.43v2.768c0 .628 2.368 2.101 6.96 2.101 4.59 0 6.958-1.473 6.958-2.1M28.047 21.778c0 .628 2.367 2.1 6.959 2.1 4.59 0 6.958-1.472 6.958-2.1s-2.367-2.1-6.958-2.1-6.96 1.472-6.96 2.1zm15.917 0V39.51c0 2.693-4.507 4.101-8.958 4.101s-8.96-1.408-8.96-4.1V21.778c0-2.693 4.508-4.1 8.96-4.1 4.45 0 8.958 1.407 8.958 4.1M2 38.102V5.75A3.755 3.755 0 0 1 5.75 2h32.353a3.755 3.755 0 0 1 3.75 3.75v12.688h2V5.75A5.756 5.756 0 0 0 38.103 0H5.75A5.756 5.756 0 0 0 0 5.75v32.352a5.756 5.756 0 0 0 5.75 5.75h19.664v-2H5.75A3.755 3.755 0 0 1 2 38.102M32.978 6.384v7.856h4.262v-1.259h-2.674V6.384zm-2.97 3.922q0-1.428-.373-2.119-.375-.69-1.145-.69t-1.145.69q-.374.691-.373 2.12-.001 1.394.385 2.108.384.714 1.133.714.747 0 1.133-.714t.386-2.109zm-.373 3.911q.351.284.782.442t1.054.227v1.292a5.1 5.1 0 0 1-1.723-.6c-.54-.3-1.02-.696-1.417-1.168q-1.427-.056-2.21-1.128t-.783-2.976q0-1.95.828-3.02.827-1.072 2.324-1.072t2.324 1.072q.826 1.07.827 3.02 0 1.52-.516 2.528t-1.49 1.383m-7.991-1.078q-.375 0-.902-.107a6 6 0 0 1-.946-.266v1.191q.361.204.896.328.532.126 1.065.125 1.223 0 1.92-.629.699-.63.698-1.706-.001-.555-.164-.947a2 2 0 0 0-.51-.709 4.8 4.8 0 0 0-.935-.634l-.613-.329q-.498-.27-.673-.498c-.12-.152-.176-.344-.176-.579q0-.42.27-.657.274-.238.75-.238.702 0 1.62.34v-1.2a4.2 4.2 0 0 0-1.78-.41q-.713 0-1.262.278-.551.278-.87.794-.315.515-.315 1.207 0 .749.362 1.27.364.52 1.2.974l.614.328q.466.25.663.494c.135.168.206.38.199.595q-.001.476-.284.731-.285.255-.827.254m-5.827 2.177q-.216.227-.646.227-.239 0-.545-.044v1.042q.51.17.998.17.646 0 1.042-.375.399-.373.636-1.212l1.916-6.676h-1.6l-.85 4.261-.871-4.26h-1.645l1.87 5.904-.021.203q-.069.535-.284.76M12.02 14.24V8.731l-1.326 3.57h-1.35L8.029 8.765v5.475H6.612V6.384h1.815l1.62 4.4 1.62-4.4h1.77v7.856z" clip-rule="evenodd"/></svg>