<svg xmlns="http://www.w3.org/2000/svg" width="44" height="44" fill="none" viewBox="0 0 44 44"><path fill="#2e27ad" fill-rule="evenodd" d="M35.006 30.082c-4.591 0-6.958-1.473-6.958-2.101v-3.53c1.729.943 4.35 1.43 6.958 1.43s5.229-.487 6.958-1.43v3.53c0 .628-2.367 2.101-6.958 2.101m0 6.092c-4.591 0-6.958-1.473-6.958-2.101v-3.421c1.729.943 4.35 1.43 6.958 1.43s5.229-.487 6.958-1.43v3.421c0 .628-2.367 2.101-6.958 2.101m0 5.439c-4.591 0-6.958-1.472-6.958-2.1v-2.769c1.729.942 4.35 1.43 6.958 1.43s5.229-.488 6.958-1.43v2.769c0 .628-2.367 2.1-6.958 2.1m0-21.933c4.59 0 6.958 1.472 6.958 2.1s-2.367 2.101-6.958 2.101-6.958-1.473-6.958-2.101 2.367-2.1 6.958-2.1m0-2c-4.451 0-8.958 1.408-8.958 4.1v17.733c0 2.692 4.507 4.1 8.958 4.1 4.45 0 8.958-1.408 8.958-4.1V21.78c0-2.692-4.507-4.1-8.958-4.1M5.75 41.853h19.664v2H5.75A5.756 5.756 0 0 1 0 38.103V5.751A5.757 5.757 0 0 1 5.75 0h32.354c3.17 0 5.75 2.58 5.75 5.751v12.688h-2V5.751A3.755 3.755 0 0 0 38.104 2H5.75A3.755 3.755 0 0 0 2 5.751v32.352a3.755 3.755 0 0 0 3.75 3.75M38.629 5.805v5.336h2.197v.707h-3.043V5.805zm-4.3 5.458q-.705 0-1.062-.615-.359-.614-.358-1.818 0-1.203.358-1.813t1.063-.611q.705 0 1.065.611.356.61.356 1.813-.001 1.204-.356 1.818-.36.616-1.065.615zm1.867-.406q.418-.788.418-2.027 0-1.491-.601-2.315-.602-.824-1.683-.824t-1.682.824-.602 2.315q0 .95.248 1.648t.737 1.082q.489.382 1.177.418.497.54 1.09.864c.39.213.816.352 1.256.409v-.741a3.3 3.3 0 0 1-.828-.2q-.375-.15-.724-.428.776-.235 1.194-1.025m-6.1.136q.268-.262.267-.724 0-.627-.697-.985l-.62-.314q-.584-.296-.846-.68-.26-.384-.261-.942 0-.741.463-1.199.46-.458 1.21-.458.586 0 1.309.314v.681a3 3 0 0 0-1.247-.271q-.41 0-.65.239-.24.24-.24.651 0 .322.166.548.165.228.55.428l.618.314q.569.289.833.679.267.394.267.943 0 .794-.497 1.277-.498.483-1.325.484-.392 0-.773-.091a2.1 2.1 0 0 1-.64-.266v-.672q.714.306 1.386.305.462 0 .728-.261zm-5.022-2.725a.71.71 0 0 1 .624-.336q.358 0 .532.266.174.267.174.823 0 .061-.004.124l-.004.113h-1.57q.027-.655.248-.99m1.976 2.759q-.602.271-1.1.271-.583 0-.85-.349-.265-.348-.274-1.134h2.233q.069-.33.069-.723 0-.88-.353-1.334-.354-.453-1.042-.453-.81 0-1.247.601-.436.602-.436 1.727 0 1.176.436 1.753.435.575 1.326.575.705 0 1.238-.332zm-4.251-3.501q.256-.135.588-.134.14 0 .279.026v.759q-.195-.031-.392-.035-.496 0-.907.322v3.384h-.82V7.427h.68l.079.531q.235-.296.493-.432m-3.99 3.563a.69.69 0 0 1-.644-.38q-.21-.38-.21-1.164 0-.802.197-1.182a.65.65 0 0 1 .615-.379q.391 0 .8.315v2.458q-.4.332-.757.332zm.533 1.647q-.227.332-.768.331-.496 0-1.15-.269v.628q.557.322 1.22.322 1.736 0 1.736-2.153V7.427h-.681l-.06.357q-.507-.471-1.056-.471-.662 0-1.055.611-.392.61-.392 1.647 0 .655.17 1.147.17.493.493.767.322.275.767.275.523 0 1.002-.445v.323q0 .767-.226 1.098m-4.648-2.049V8.089h-.62v-.54l.656-.105.12-1.256h.664v1.239h1.012v.662h-1.012v2.538q0 .331.109.466.108.135.388.135.27 0 .532-.087v.601q-.375.158-.794.157-.54 0-.798-.296-.257-.296-.257-.916m-1.834.458q.178-.17.178-.484 0-.375-.48-.61l-.567-.279q-.784-.383-.784-1.203 0-.558.365-.907.367-.348.952-.349.549 0 1.054.28v.592a2.3 2.3 0 0 0-.985-.227q-.296 0-.471.157a.55.55 0 0 0-.174.428q0 .217.118.366.117.148.396.287l.532.262q.41.201.597.479.188.28.187.69 0 .601-.374.968-.376.366-1.002.366-.673 0-1.221-.323v-.593q.68.27 1.177.27.32 0 .502-.17m-3.38-.252a.72.72 0 0 1-.671.405.71.71 0 0 1-.671-.405q-.22-.407-.22-1.26 0-.855.22-1.256a.71.71 0 0 1 .67-.401q.454 0 .673.401.216.4.217 1.256 0 .854-.217 1.26zm-.671-3.58q-.828 0-1.27.602-.439.602-.44 1.718.001 1.124.44 1.725.442.603 1.27.603t1.268-.603q.44-.6.44-1.725 0-1.116-.44-1.718t-1.268-.602M5.352 8.517a.75.75 0 0 1-.641.313h-.863V6.476h.863q.41 0 .64.309.232.31.232.868 0 .55-.231.864m.305-2.477a1.6 1.6 0 0 0-.86-.235h-1.77v6.043h.82V9.502h.95q.724 0 1.174-.506t.449-1.343q0-.54-.196-.959a1.5 1.5 0 0 0-.567-.654" clip-rule="evenodd"/></svg>