<svg xmlns="http://www.w3.org/2000/svg" width="1306" height="2500" fill="none" viewBox="0 0 1306 2500"><g clip-path="url(#a)"><path fill="#3c4929" d="M107.133 845.701 0 880.677l110.959 12.851zm-5.331 209.449L653 1090.39l551.2-35.24L653 947.732zM1196.32 893.528 1306 880.677l-109.68-29.237z"/><path fill="#b7ca9d" d="m802.92 1800.61 288.78 68.34-289.546 87.32z"/><path fill="#4b612c" d="M101.802 470.588v-194.89L653 .118l2.459 2.065-1.265 247.406-1.194.52-2.066 5.698L349.442 377.51l-2.765 428.72 160.454-26.987L653 750.057V2500.04l-165.132-82.53V2184l-144.65-57.84V1030.98l-241.416 24.17V860.297L0 880.677V511.284z"/><path fill="#759c3e" d="m507.136 779.264-163.918 32.772V373.96l163.918 51.107zm431.169-636.512 265.825 132.946v194.89L1306 511.284v369.363l-101.87-20.35v194.853l-129.79-12.95-111.629-11.22v219.06H1204.2v200.41l-112.22 10.07v202.08l-273.914 54.44v233.5l273.294-81.11.62 206L818.066 2184v233.51L653 2500.04V750.057l145.762 29.13 156.021 20.6V377.459L657.168 262.684 653 250.109V.117z"/><path fill="#3c4929" d="M818.066 316.113 653 250.145 343.218 373.96l163.918 51.107z"/><path fill="#3c4929" d="M343.218 373.96 653 250.145l65.172 26.038 99.894 39.93 144.645 57.918-7.729 7.862-147.313 45.868-8.877-2.694L653 373.96l-145.864 51.107z"/><path fill="#4b612c" d="m798.792 425.067 163.919-51.036v438.041l-163.919-32.885z"/></g><defs><clipPath id="a"><path fill="#fff" d="M0 0h1306v2500H0z"/></clipPath></defs></svg>