<svg xmlns="http://www.w3.org/2000/svg" width="940" height="155" fill="none" viewBox="0 0 940 155"><path fill="#f26e7e" fill-rule="evenodd" d="M20.572 58.87c3.912-2.258 3.918-9.57.015-16.33s-10.238-10.41-14.15-8.15c-3.91 2.258-3.917 9.569-.014 16.329s10.238 10.41 14.15 8.152m.024 14.475c3.903 6.76 3.896 14.072-.015 16.33s-10.246-1.392-14.149-8.152-3.897-14.071.015-16.33c3.91-2.258 10.246 1.392 14.149 8.152m26.653 15.41c3.904 6.76 3.897 14.071-.014 16.33s-10.246-1.392-14.15-8.152c-3.902-6.76-3.896-14.071.015-16.33s10.246 1.392 14.15 8.152m-.008-30.805c3.903 6.76 3.897 14.072-.015 16.33-3.91 2.258-10.246-1.392-14.149-8.152s-3.897-14.071.015-16.33c3.91-2.258 10.246 1.392 14.149 8.152" clip-rule="evenodd"/><path fill="#8a3391" fill-rule="evenodd" d="M100.561 50.735c3.903-6.76 3.897-14.071-.014-16.33-3.912-2.258-10.246 1.392-14.15 8.152s-3.896 14.072.015 16.33 10.246-1.392 14.149-8.152m.001 14.468c3.911 2.258 3.918 9.57.015 16.33s-10.239 10.41-14.15 8.151c-3.91-2.258-3.917-9.569-.014-16.329s10.238-10.41 14.149-8.152M73.914 80.588c3.91 2.258 3.917 9.569.014 16.33-3.903 6.759-10.238 10.409-14.15 8.151-3.91-2.258-3.917-9.57-.014-16.33s10.238-10.41 14.15-8.151m-.015-30.798c3.91 2.258 3.917 9.569.014 16.33s-10.238 10.41-14.15 8.151c-3.91-2.258-3.917-9.57-.014-16.33s10.238-10.41 14.15-8.151" clip-rule="evenodd"/><path fill="#f7bf2a" fill-rule="evenodd" d="M67.622 8.178c0 4.516-6.328 8.177-14.135 8.177s-14.134-3.66-14.134-8.177S45.68 0 53.487 0s14.135 3.661 14.135 8.178M40.974 23.546c0 4.517-6.328 8.178-14.135 8.178s-14.134-3.661-14.134-8.178c0-4.516 6.328-8.177 14.134-8.177 7.807 0 14.135 3.661 14.135 8.177m39.197 8.178c7.806 0 14.134-3.661 14.134-8.178 0-4.516-6.328-8.177-14.135-8.177s-14.134 3.661-14.134 8.177c0 4.517 6.328 8.178 14.135 8.178M67.622 38.95c0 4.516-6.328 8.177-14.135 8.177s-14.134-3.661-14.134-8.177c0-4.517 6.328-8.178 14.134-8.178 7.807 0 14.135 3.661 14.135 8.178" clip-rule="evenodd"/><path fill="#000" d="M158.62 62.95h10.575c13.41 0 21.825-8.01 21.825-20.07 0-12.015-8.415-20.07-21.825-20.07H150.52c-1.62 0-2.52.9-2.52 2.52v57.96c0 1.62.9 2.52 2.52 2.52h5.58c1.62 0 2.52-.9 2.52-2.52zm21.735-20.07c0 6.795-4.275 11.16-11.835 11.16h-9.9V31.765h9.9c7.56 0 11.835 4.365 11.835 11.115m37.779 43.965c5.94 0 11.025-2.925 14.175-7.2v3.645c0 1.62.9 2.52 2.52 2.52h5.265c1.62 0 2.52-.9 2.52-2.52V41.71c0-1.62-.9-2.52-2.52-2.52h-5.265c-1.62 0-2.52.9-2.52 2.52v22.86c0 7.74-5.58 13.185-12.06 13.185-6.21 0-10.485-4.41-10.485-10.71V41.71c0-1.62-.9-2.52-2.52-2.52h-5.22c-1.62 0-2.52.9-2.52 2.52v26.235c0 11.475 7.425 18.9 18.63 18.9m37.701-64.215v60.66c0 1.62.9 2.52 2.52 2.52h5.22c1.62 0 2.52-.9 2.52-2.52V22.63c0-1.62-.9-2.52-2.52-2.52h-5.22c-1.62 0-2.52.9-2.52 2.52m41.225 64.215c5.94 0 11.025-2.925 14.175-7.2v3.645c0 1.62.9 2.52 2.52 2.52h5.265c1.62 0 2.52-.9 2.52-2.52V41.71c0-1.62-.9-2.52-2.52-2.52h-5.265c-1.62 0-2.52.9-2.52 2.52v22.86c0 7.74-5.58 13.185-12.06 13.185-6.21 0-10.485-4.41-10.485-10.71V41.71c0-1.62-.9-2.52-2.52-2.52h-5.22c-1.62 0-2.52.9-2.52 2.52v26.235c0 11.475 7.425 18.9 18.63 18.9m92.016-48.735c-6.66 0-12.33 3.825-15.435 9.675-2.925-6.03-8.82-9.675-15.84-9.675-5.445 0-10.17 2.835-13.41 7.155V41.71c0-1.62-.9-2.52-2.52-2.52h-5.265c-1.62 0-2.52.9-2.52 2.52v41.58c0 1.62.9 2.52 2.52 2.52h5.265c1.62 0 2.52-.9 2.52-2.52V60.16c0-7.605 5.76-12.915 11.295-12.915 5.76 0 9.675 4.41 9.675 10.71V83.29c0 1.62.9 2.52 2.52 2.52h5.265c1.62 0 2.52-.9 2.52-2.52V60.16c0-7.065 5.49-12.915 11.295-12.915 5.76 0 9.675 4.41 9.675 10.71V83.29c0 1.62.9 2.52 2.52 2.52h5.265c1.62 0 2.52-.9 2.52-2.52V57.055c0-11.475-7.74-18.945-17.865-18.945m28.933-11.61c0 3.51 2.745 6.255 6.345 6.255s6.39-2.745 6.39-6.255c0-3.555-2.79-6.3-6.39-6.3s-6.345 2.745-6.345 6.3m1.215 15.21v41.58c0 1.62.9 2.52 2.52 2.52h5.22c1.62 0 2.52-.9 2.52-2.52V41.71c0-1.62-.9-2.52-2.52-2.52h-5.22c-1.62 0-2.52.9-2.52 2.52m106.009 26.685-2.43-1.755c-1.305-.945-2.52-.765-3.51.585-4.815 6.525-11.52 10.35-20.07 10.35-11.475 0-21.555-8.955-21.555-23.265 0-14.265 9.855-23.265 21.15-23.265 7.56 0 14.31 3.915 17.37 11.295.54 1.35 1.44 2.025 2.88 2.025h6.03c1.8 0 2.7-1.125 2.115-2.835-4.05-12.33-14.49-19.8-28.53-19.8-17.865 0-31.77 13.86-31.77 32.58 0 18.765 13.905 32.58 31.77 32.58 12.015 0 20.97-4.995 27.27-15.03.855-1.35.54-2.52-.72-3.465m35.128-21.15c.765 0 1.53.045 2.295.18 1.665.27 2.655-.315 2.79-2.07l.36-4.275c.135-1.575-.54-2.61-2.07-2.835a12 12 0 0 0-1.845-.135c-5.94 0-10.8 3.195-13.77 7.515V41.71c0-1.62-.9-2.52-2.52-2.52h-5.265c-1.62 0-2.52.9-2.52 2.52v41.58c0 1.62.9 2.52 2.52 2.52h5.265c1.62 0 2.52-.9 2.52-2.52V60.475c0-7.695 5.715-13.23 12.24-13.23m9.11 15.255c0 13.545 10.89 24.39 25.56 24.39s25.515-10.845 25.515-24.39-10.845-24.39-25.515-24.39-25.56 10.845-25.56 24.39m10.395 0c0-8.46 6.57-15.255 15.165-15.255s15.165 6.795 15.165 15.255c0 8.505-6.57 15.255-15.165 15.255s-15.165-6.75-15.165-15.255m50.555 11.97-1.26 1.485c-.99 1.17-1.08 2.385-.045 3.555 4.185 4.725 9.36 7.38 15.93 7.38 11.205 0 17.82-6.03 17.82-14.085 0-7.83-5.085-12.645-15.84-14.805-5.85-1.17-8.505-3.555-8.505-6.48s2.79-4.905 6.66-4.905c3.06 0 5.22 1.35 6.21 3.51.63 1.395 1.305 2.115 2.79 2.115h4.905c1.755 0 2.745-1.08 2.25-2.79-2.115-7.2-8.055-11.34-16.74-11.34-9.945 0-16.245 5.67-16.245 13.275 0 7.47 4.995 12.465 15.165 14.49 6.66 1.305 9.18 3.42 9.18 6.795 0 3.465-3.105 5.76-8.19 5.76-4.05 0-7.56-1.53-10.53-4.095-1.26-1.125-2.475-1.125-3.555.135m42.275 0-1.26 1.485c-.99 1.17-1.08 2.385-.045 3.555 4.185 4.725 9.36 7.38 15.93 7.38 11.205 0 17.82-6.03 17.82-14.085 0-7.83-5.085-12.645-15.84-14.805-5.85-1.17-8.505-3.555-8.505-6.48s2.79-4.905 6.66-4.905c3.06 0 5.22 1.35 6.21 3.51.63 1.395 1.305 2.115 2.79 2.115h4.905c1.755 0 2.745-1.08 2.25-2.79-2.115-7.2-8.055-11.34-16.74-11.34-9.945 0-16.245 5.67-16.245 13.275 0 7.47 4.995 12.465 15.165 14.49 6.66 1.305 9.18 3.42 9.18 6.795 0 3.465-3.105 5.76-8.19 5.76-4.05 0-7.56-1.53-10.53-4.095-1.26-1.125-2.475-1.125-3.555.135m73.122-35.28h-6.03c-1.485 0-2.385.675-2.79 2.16l-8.595 31.275-8.865-31.32c-.405-1.44-1.305-2.115-2.79-2.115h-5.4c-1.8 0-2.61 1.08-2.07 2.835l13.005 41.715c.45 1.44 1.35 2.07 2.835 2.07h6.21c1.485 0 2.385-.675 2.79-2.115l8.685-30.96 8.73 30.96c.405 1.44 1.305 2.115 2.79 2.115h6.21c1.485 0 2.385-.63 2.835-2.07l13.005-41.715c.54-1.755-.27-2.835-2.07-2.835h-5.445c-1.485 0-2.385.675-2.79 2.115l-8.82 31.32-8.64-31.275c-.405-1.44-1.305-2.16-2.79-2.16m34.678 23.31c0 13.59 9.63 24.39 22.77 24.39 6.795 0 12.466-2.835 16.38-7.38v3.78c0 1.62.901 2.52 2.521 2.52h5.175c1.62 0 2.519-.9 2.519-2.52V41.71c0-1.62-.899-2.52-2.519-2.52h-5.175c-1.62 0-2.521.9-2.521 2.52v3.825c-3.914-4.59-9.585-7.425-16.38-7.425-13.14 0-22.77 10.845-22.77 24.39m10.395 0c0-8.46 6.12-15.255 14.401-15.255s14.354 6.795 14.354 15.255c0 8.505-6.164 15.255-14.354 15.255s-14.401-6.75-14.401-15.255m52.229-39.87v60.66c0 1.62.9 2.52 2.52 2.52h5.22c1.62 0 2.52-.9 2.52-2.52V22.63c0-1.62-.9-2.52-2.52-2.52h-5.22c-1.62 0-2.52.9-2.52 2.52m58.01 16.56h-5.22c-1.62 0-2.43.9-2.565 2.565-.72 10.125-5.715 13.86-11.97 13.86h-4.455V22.63c0-1.62-.9-2.52-2.52-2.52h-5.265c-1.62 0-2.52.9-2.52 2.52v60.66c0 1.62.9 2.52 2.52 2.52h5.265c1.62 0 2.52-.9 2.52-2.52V64.435h6.435l11.43 19.665c.675 1.17 1.62 1.71 2.97 1.71h6.12c1.98 0 2.745-1.305 1.71-3.015l-12.195-20.7c6.075-3.42 9.72-10.305 10.215-20.295.09-1.71-.855-2.61-2.475-2.61m-170.77 75.18v-2.31c0-1.05-.54-1.68-1.56-1.77q-.9-.09-1.8-.09c-7.86 0-11.67 3.57-11.67 10.89v1.83h-4.08c-1.08 0-1.68.6-1.68 1.68v2.64c0 1.08.6 1.68 1.68 1.68h4.08v23.4c0 1.08.6 1.68 1.68 1.68h3.48c1.08 0 1.68-.6 1.68-1.68v-23.4h6.51c1.08 0 1.68-.6 1.68-1.68v-2.64c0-1.08-.6-1.68-1.68-1.68h-6.51v-1.74c0-3.48 1.5-5.22 5.43-5.22.42 0 .9 0 1.38.03.9.06 1.38-.51 1.38-1.62m2.8 24.09c0 9.03 7.26 16.26 17.04 16.26s17.01-7.23 17.01-16.26-7.23-16.26-17.01-16.26-17.04 7.23-17.04 16.26m6.93 0c0-5.64 4.38-10.17 10.11-10.17s10.11 4.53 10.11 10.17c0 5.67-4.38 10.17-10.11 10.17s-10.11-4.5-10.11-10.17m48.403-10.17c.51 0 1.02.03 1.53.12 1.11.18 1.77-.21 1.86-1.38l.24-2.85c.09-1.05-.36-1.74-1.38-1.89-.39-.06-.81-.09-1.23-.09-3.96 0-7.2 2.13-9.18 5.01v-2.61c0-1.08-.6-1.68-1.68-1.68h-3.51c-1.08 0-1.68.6-1.68 1.68v27.72c0 1.08.6 1.68 1.68 1.68h3.51c1.08 0 1.68-.6 1.68-1.68v-15.21c0-5.13 3.81-8.82 8.16-8.82M834.55 112h-4.98c-.96 0-1.59.42-1.92 1.35l-14.25 38.73c-.42 1.17.12 1.92 1.35 1.92h4.08c.96 0 1.59-.45 1.92-1.35l3.03-8.79h16.53l3.03 8.79c.33.9.96 1.35 1.92 1.35h4.08c1.23 0 1.77-.75 1.35-1.92l-14.22-38.73c-.33-.93-.96-1.35-1.92-1.35m3.84 25.95h-12.66l6.33-18.27zM879.773 112h-4.08c-.99 0-1.59.45-1.86 1.41l-8.52 30.54-7.89-30.51c-.24-.99-.87-1.44-1.86-1.44h-3.96c-1.2 0-1.74.75-1.41 1.89l10.92 38.7c.27.96.87 1.41 1.86 1.41h4.14c.99 0 1.59-.45 1.86-1.41l8.76-30.9 8.73 30.9c.27.96.87 1.41 1.86 1.41h4.17c.99 0 1.59-.45 1.86-1.41l10.92-38.7c.33-1.14-.21-1.89-1.41-1.89h-3.96c-.99 0-1.62.45-1.86 1.44l-7.92 30.51-8.49-30.51c-.27-.96-.87-1.44-1.86-1.44m32.389 32.43-1.08 1.17c-.69.75-.78 1.56-.09 2.37 3.69 4.32 8.43 6.75 13.47 6.75 9.36 0 15.09-5.13 15.09-12.3 0-6.48-3.87-10.8-13.35-12.96-6.21-1.41-8.82-3.6-8.82-6.93 0-3.06 2.85-5.13 6.78-5.13 3.48 0 6.18 1.62 7.02 4.68.3 1.02.81 1.53 1.83 1.53h3.81c1.14 0 1.8-.66 1.59-1.8-1.32-7.17-7.59-10.53-14.55-10.53-8.04 0-13.65 4.83-13.65 11.76 0 6.12 4.41 10.38 12.93 12.18 7.05 1.47 9.24 4.08 9.24 7.35 0 3.66-3.39 6.03-8.13 6.03-3.78 0-6.99-1.68-9.72-4.2-.81-.78-1.62-.78-2.37.03"/></svg>