<svg xmlns="http://www.w3.org/2000/svg" width="184" height="50" fill="none" viewBox="0 0 184 50"><path fill="#737373" d="M81.24 1.78 76 14.56c-.21.49-.48 1.24-.82 2.25h-.06a20 20 0 0 0-.77-2.2L69.2 1.78h-4.57V21h3V8.61c0-1.75 0-3-.12-3.77h.06q.18.977.52 1.91L74 21h2.24L82 6.65a14 14 0 0 0 .54-1.82h.05c-.13 1.48-.2 2.73-.2 3.75V21h3.23V1.78zM91.7.86a1.9 1.9 0 0 0-1.33.51 1.74 1.74 0 0 0 0 2.54c.364.327.84.502 1.33.49a2 2 0 0 0 1.37-.51 1.7 1.7 0 0 0 0-2.52A2 2 0 0 0 91.7.86m1.58 6.43h-3.17v13.75h3.17zM98.58 9a7.4 7.4 0 0 0-2.05 5.46 6.68 6.68 0 0 0 1.91 5 6.77 6.77 0 0 0 5 1.92 7.9 7.9 0 0 0 4-1V17.7a5.14 5.14 0 0 1-3.23 1.2 4.34 4.34 0 0 1-3.21-1.24 4.62 4.62 0 0 1-1.21-3.37 4.87 4.87 0 0 1 1.28-3.5 4.4 4.4 0 0 1 3.3-1.34 5.13 5.13 0 0 1 3.11 1.08v-2.9a8.1 8.1 0 0 0-3.37-.66 7.43 7.43 0 0 0-5.5 2.06m18.78-1.98a3.26 3.26 0 0 0-2.15.81 4.8 4.8 0 0 0-1.43 2.27h-.05V7.29h-3.17V21h3.17v-6.54a5.48 5.48 0 0 1 .94-3.39 2.83 2.83 0 0 1 2.35-1.25 2.62 2.62 0 0 1 1.65.44V7.31a2.7 2.7 0 0 0-1.31-.26M127.51 7a7.5 7.5 0 0 0-5.43 2 7.16 7.16 0 0 0-2 5.41 6.9 6.9 0 0 0 1.92 5.03 7 7 0 0 0 5.17 1.93 6.8 6.8 0 0 0 6.865-4.398c.342-.913.484-1.89.415-2.862a7.26 7.26 0 0 0-1.83-5.25A6.78 6.78 0 0 0 127.51 7m2.69 10.7a3.5 3.5 0 0 1-2.88 1.22 3.69 3.69 0 0 1-2.92-1.24 5 5 0 0 1-1.09-3.4 5.27 5.27 0 0 1 1.08-3.52 3.63 3.63 0 0 1 2.93-1.28 3.48 3.48 0 0 1 2.88 1.24 5.4 5.4 0 0 1 1 3.5 5.33 5.33 0 0 1-1 3.48m15.49-3.04a5.5 5.5 0 0 0-1.22-.86c-.53-.27-1.07-.52-1.61-.73l-1.22-.42a6 6 0 0 1-.9-.43 1.8 1.8 0 0 1-.57-.55 1.5 1.5 0 0 1-.18-.75 1.2 1.2 0 0 1 .18-.67 1.66 1.66 0 0 1 .54-.51 2.6 2.6 0 0 1 .83-.34 4.5 4.5 0 0 1 1.08-.12 5.9 5.9 0 0 1 3.39 1V7.55a9.7 9.7 0 0 0-3.47-.58 9 9 0 0 0-2.12.26 6.6 6.6 0 0 0-1.83.78 4.1 4.1 0 0 0-1.28 1.28 3.2 3.2 0 0 0-.48 1.75c-.009.48.069.958.23 1.41.155.402.39.77.69 1.08.336.343.724.63 1.15.85q.754.405 1.55.72l1.26.45q.524.178 1 .46c.259.147.487.344.67.58.164.234.248.514.24.8 0 1.11-.95 1.67-2.87 1.67a6.35 6.35 0 0 1-3.91-1.33v2.89a9.5 9.5 0 0 0 4 .74 10.3 10.3 0 0 0 2.26-.24 6.3 6.3 0 0 0 1.89-.76 3.94 3.94 0 0 0 1.31-1.29 3.34 3.34 0 0 0 .5-1.83 3.5 3.5 0 0 0-.28-1.48 3.2 3.2 0 0 0-.78-1.1M156.31 7a7.47 7.47 0 0 0-5.43 2 7.12 7.12 0 0 0-2 5.41 6.93 6.93 0 0 0 1.93 5.11 7 7 0 0 0 5.19 1.85 7.57 7.57 0 0 0 6.651-4.546 7.58 7.58 0 0 0-1.211-7.964 6.77 6.77 0 0 0-5.1-1.89zM159 17.67a3.5 3.5 0 0 1-2.88 1.22 3.7 3.7 0 0 1-2.92-1.24 5 5 0 0 1-1.09-3.4 5.27 5.27 0 0 1 1.08-3.52 3.65 3.65 0 0 1 2.93-1.28 3.48 3.48 0 0 1 2.88 1.24 5.4 5.4 0 0 1 1 3.5 5.33 5.33 0 0 1-1 3.48m9.91-16.04a4.32 4.32 0 0 0-1.45 3.43v2.23h-2.39v2.45h2.39V21h3.17V9.74h3.24V7.29h-3.25V5.43c0-1.72.77-2.57 2.31-2.57a3 3 0 0 1 1.46.36V.63a5.5 5.5 0 0 0-1.86-.25 5.3 5.3 0 0 0-3.62 1.25m11.27 1.59-3.17.89v3.18h-2.33v2.45H177v7.77c0 2.56 1.36 3.85 4.07 3.85a5.7 5.7 0 0 0 2.45-.46v-2.48a2.18 2.18 0 0 1-1.4.46 1.89 1.89 0 0 1-1.5-.52 2.67 2.67 0 0 1-.45-1.74V9.74h3.35V7.29h-3.35zM72 29.71 64.63 49h3.55l1.7-4.9h7.7l1.76 4.9h3.56l-7.27-19.26zm-1.24 11.75 2.69-7.68q.19-.594.28-1.21h.05q.087.614.26 1.21l2.72 7.68zm13.57-3.81h6.98L83.59 47.8v1.17h11.96v-2.43h-7.52l7.55-10.02v-1.3H84.33zm22.96 5.48a3.9 3.9 0 0 1-.91 2.67 3 3 0 0 1-2.31 1q-2.92 0-2.92-3.71v-7.9H98v8.23c0 3.9 1.66 5.85 5 5.85a4.57 4.57 0 0 0 4.29-2.5h.05V49h3.17V35.21h-3.17zm14.1-8.13a3.27 3.27 0 0 0-2.15.82 4.77 4.77 0 0 0-1.43 2.26h-.05v-2.87h-3.17V49h3.17v-6.61a5.5 5.5 0 0 1 .94-3.4 2.86 2.86 0 0 1 2.35-1.25 2.73 2.73 0 0 1 1.66.44v-3a2.7 2.7 0 0 0-1.31-.26m13.85 1.78a5.6 5.6 0 0 0-4.44-1.81 6.37 6.37 0 0 0-4.8 2 7.25 7.25 0 0 0-1.94 5.24 7.47 7.47 0 0 0 1.75 5.27 6.36 6.36 0 0 0 4.85 1.87 9.5 9.5 0 0 0 5.05-1.18V45.6a7 7 0 0 1-4.11 1.31 4.48 4.48 0 0 1-3.13-1 4 4 0 0 1-1.2-2.94h9.53v-1.2a7.5 7.5 0 0 0-1.56-5zm-1.49 4.07h-6.48c.105-.96.515-1.86 1.17-2.57a3.1 3.1 0 0 1 2.31-1 2.73 2.73 0 0 1 2.19.93 4.06 4.06 0 0 1 .81 2.62"/><path fill="#f25022" d="M23.91.4H.47v23.44h23.44z"/><path fill="#7fba00" d="M49.69.4H26.25v23.44h23.44z"/><path fill="#00a4ef" d="M23.91 26.19H.47v23.44h23.44z"/><path fill="#ffb900" d="M49.69 26.19H26.25v23.44h23.44z"/></svg>