<svg xmlns="http://www.w3.org/2000/svg" width="40" height="40" fill="none" viewBox="0 0 40 40"><path fill="#fff" d="M0 0h40v40H0z"/><mask id="a" fill="#fff"><rect width="40" height="39" y="1" rx=".25"/></mask><rect width="40" height="39" y="1" stroke="#202124" stroke-width="2" mask="url(#a)" rx=".25"/><path fill="#202124" d="M0 .25A.25.25 0 0 1 .25 0h39.5a.25.25 0 0 1 .25.25v2.5H0z"/><circle cx="1.114" cy="1.354" r=".35" fill="#ff6058" stroke="#e14942" stroke-width=".05"/><circle cx="2.264" cy="1.354" r=".35" fill="#ffc130" stroke="#e1a325" stroke-width=".05"/><circle cx="3.414" cy="1.354" r=".35" fill="#27ca40" stroke="#3eaf3f" stroke-width=".05"/><path fill="#f25022" d="M19.287 6H5v14.287h14.287z"/><path fill="#7fba00" d="M35 6H20.713v14.287H35z"/><path fill="#00a4ef" d="M19.287 21.72H5v14.286h14.287z"/><path fill="#ffb900" d="M35 21.72H20.713v14.286H35z"/></svg>