<svg xmlns="http://www.w3.org/2000/svg" width="259" height="74" fill="none" viewBox="0 0 259 74"><path fill="#59b4d9" d="M34.999 70.422a6.4 6.4 0 0 1-4.542-1.948L2.26 39.586a6.5 6.5 0 0 1-1.835-4.589c.02-1.7.73-3.354 1.946-4.54l28.89-28.194A6.4 6.4 0 0 1 35.85.426a6.4 6.4 0 0 1 4.542 1.948l28.191 28.888a6.4 6.4 0 0 1 1.837 4.587 6.4 6.4 0 0 1-1.95 4.544L39.588 68.585A6.4 6.4 0 0 1 35 70.422"/><path fill="#fff" d="M54.548 30.185a5.473 5.473 0 0 0-5.54 5.406 5.43 5.43 0 0 0 .866 3.011L38.901 49.311a6.4 6.4 0 0 0-.912-.533l.337-27.658c1.645-.927 2.778-2.66 2.802-4.684a5.473 5.473 0 0 0-10.944-.134c-.025 2.025 1.066 3.785 2.686 4.752l-.336 27.656a6 6 0 0 0-.89.483L20.921 38.208a5.43 5.43 0 0 0 .915-2.947 5.472 5.472 0 1 0-10.944-.134 5.473 5.473 0 0 0 5.407 5.54 5.4 5.4 0 0 0 1.787-.301l11.27 11.548a6.372 6.372 0 1 0 12.202 2.645 6.4 6.4 0 0 0-.461-2.458l11.58-11.3a5.4 5.4 0 0 0 1.734.329 5.47 5.47 0 0 0 5.537-5.406 5.47 5.47 0 0 0-5.401-5.539"/><path fill="#fff" d="m54.554 38.13 2.527-2.467-20.22-20.712-2.528 2.467z" opacity=".5"/><path fill="#fff" d="m36.972 17.467-2.468-2.529-20.717 20.219 2.469 2.529z" opacity=".5"/><path fill="#b8d432" d="M38.922 54.527a3.794 3.794 0 0 1-7.586-.093 3.79 3.79 0 0 1 3.838-3.746 3.795 3.795 0 0 1 3.748 3.839m-.224-38.121a3.043 3.043 0 1 1-6.085-.073 3.043 3.043 0 0 1 6.085.073M19.412 35.23a3.045 3.045 0 0 1-6.086-.074 3.043 3.043 0 1 1 6.086.074m38.113.463a3.045 3.045 0 0 1-6.089-.074 3.044 3.044 0 0 1 6.089.074"/><path fill="#fff" d="M40.392 2.374A6.4 6.4 0 0 0 35.85.426a6.4 6.4 0 0 0-4.587 1.837L2.373 30.457a6.5 6.5 0 0 0-1.947 4.54 6.5 6.5 0 0 0 1.837 4.589l15.962 16.356L49.17 11.367z" opacity=".1"/><path fill="#4e9ab9" d="m104.299 30.154-2.906.012-2.4-6.272-9.5.039-2.21 6.29-2.921.012 8.502-22.44 2.72-.012zm-6.176-8.615-3.554-9.533q-.173-.468-.35-1.499h-.062q-.153.954-.354 1.502l-3.445 9.561zm20.239-6.708-9.416 13.117 9.375-.038.009 2.187-13.141.053-.003-.796 9.416-13.054-8.578.034-.009-2.187 12.344-.05zm16.311 15.2-2.562.01-.01-2.53h-.063q-1.582 2.911-4.925 2.926-5.718.023-5.747-6.79l-.038-9.562 2.546-.01.038 9.156q.02 5.063 3.895 5.046 1.876-.007 3.073-1.387 1.212-1.395 1.204-3.63l-.037-9.219 2.562-.01zm13.478-13.461q-.675-.513-1.94-.508-1.64.007-2.744 1.558-1.087 1.551-1.076 4.223l.033 8.157-2.563.01-.065-16 2.562-.01.014 3.297h.063q.54-1.69 1.66-2.633 1.122-.958 2.512-.963 1-.005 1.533.213zm15.665 5.983-11.297.046q.073 2.671 1.454 4.12 1.381 1.447 3.787 1.437 2.703-.011 4.961-1.801l.01 2.406q-2.103 1.539-5.571 1.554-3.391.013-5.338-2.15-1.946-2.18-1.962-6.133-.016-3.735 2.085-6.087 2.115-2.367 5.256-2.38 3.14-.014 4.868 2.011 1.726 2.024 1.741 5.634zm-2.634-2.16q-.024-2.22-1.093-3.45-1.052-1.23-2.927-1.222-1.812.007-3.072 1.31-1.26 1.301-1.549 3.396zm33.088 9.695-2.906.013-2.402-6.271-9.501.04-2.206 6.291-2.922.013 8.497-22.443 2.718-.012zm-6.178-8.614-3.556-9.532q-.175-.468-.351-1.498h-.062q-.153.953-.354 1.502l-3.442 9.562zm20.05 7.82q-1.84 1.116-4.37 1.128-3.422.015-5.541-2.195-2.104-2.224-2.119-5.772-.016-3.953 2.238-6.353 2.255-2.417 6.037-2.433 2.11-.009 3.722.765l.011 2.625q-1.787-1.243-3.818-1.233-2.453.01-4.023 1.783-1.556 1.756-1.543 4.616.012 2.813 1.488 4.43 1.492 1.62 3.976 1.609 2.093-.01 3.932-1.408zm11.299.529q-.905.504-2.388.51-4.203.018-4.223-4.67l-.042-9.468-2.75.012-.009-2.187 2.75-.012-.017-3.906 2.559-.84.021 4.735 4.031-.018.009 2.188-4.031.017.039 9.016q.008 1.609.557 2.294.55.685 1.816.68.968-.004 1.669-.539zm4.648-19.927a1.63 1.63 0 0 1-1.174-.463q-.486-.467-.489-1.186t.479-1.19a1.6 1.6 0 0 1 1.17-.489q.702-.003 1.189.48.504.466.506 1.185.003.688-.495 1.174a1.62 1.62 0 0 1-1.186.49m1.337 20.057-2.562.011-.07-16 2.563-.01zm17.696-16.076-6.305 16.027-2.516.01-6.132-15.973 2.813-.012 4.112 11.607q.46 1.28.572 2.232h.063q.151-1.204.491-2.174l4.199-11.706zm15.663 8.573-11.297.048q.074 2.671 1.455 4.12 1.381 1.446 3.787 1.436 2.704-.012 4.961-1.803l.011 2.406q-2.102 1.54-5.571 1.556-3.391.015-5.338-2.149-1.946-2.18-1.964-6.132-.016-3.735 2.083-6.087 2.115-2.369 5.256-2.383t4.868 2.01q1.727 2.025 1.743 5.634zm-2.635-2.161q-.025-2.22-1.093-3.448-1.053-1.23-2.927-1.222-1.813.008-3.073 1.31t-1.548 3.397zM84.301 66.242l-.02-22.406 6.188-.005q11.844-.01 11.854 10.911.004 5.188-3.29 8.347-3.279 3.144-8.794 3.148zM86.91 46.21l.015 17.656 3.344-.003q4.406-.003 6.857-2.365t2.447-6.69q-.007-8.61-9.163-8.601zm20.78-.05q-.687 0-1.172-.467-.484-.468-.484-1.187-.002-.72.482-1.188a1.6 1.6 0 0 1 1.172-.486q.704 0 1.187.484.502.468.502 1.187 0 .687-.499 1.172a1.62 1.62 0 0 1-1.188.485m1.268 20.062-2.562.002-.014-16 2.562-.002zm13.52-13.418q-.673-.516-1.938-.514-1.64 0-2.749 1.55-1.092 1.547-1.09 4.219l.007 8.156-2.562.002-.014-16 2.562-.002.003 3.297h.063q.545-1.688 1.67-2.626 1.124-.955 2.515-.956 1 0 1.531.218zm15.646 6.033-11.297.01q.065 2.672 1.441 4.124t3.782 1.45q2.704-.003 4.968-1.786l.002 2.406q-2.108 1.533-5.577 1.536-3.391.003-5.33-2.167-1.94-2.186-1.942-6.139-.004-3.734 2.104-6.08 2.122-2.361 5.263-2.364t4.861 2.027 1.724 5.64zm-2.627-2.17q-.018-2.219-1.081-3.452-1.049-1.233-2.923-1.231-1.813 0-3.077 1.299t-1.56 3.392zm17.43 8.782q-1.844 1.11-4.374 1.113-3.422.003-5.534-2.214-2.095-2.232-2.098-5.779-.004-3.952 2.259-6.346 2.264-2.408 6.045-2.411 2.11-.002 3.72.778l.002 2.625q-1.782-1.248-3.813-1.247-2.453.002-4.031 1.77-1.56 1.75-1.558 4.61.003 2.813 1.473 4.436 1.485 1.624 3.97 1.622 2.094-.002 3.937-1.394zm11.297.569q-.906.5-2.391.502-4.202.002-4.206-4.684l-.009-9.469-2.75.002-.002-2.187 2.75-.003-.003-3.906 2.561-.83.005 4.734 4.031-.003.002 2.187-4.031.004.007 9.015q.002 1.61.549 2.297.548.687 1.813.686.969 0 1.671-.533zm10.11.522q-3.547.003-5.674-2.23-2.112-2.247-2.115-5.95-.003-4.032 2.197-6.3 2.202-2.267 5.952-2.27 3.578-.004 5.58 2.198 2.017 2.2 2.021 6.107.003 3.829-2.167 6.143-2.154 2.298-5.794 2.302m.174-14.594q-2.469.002-3.904 1.69-1.435 1.674-1.434 4.627.003 2.844 1.457 4.483 1.455 1.64 3.892 1.637 2.485-.001 3.812-1.612 1.341-1.61 1.339-4.58-.003-3-1.348-4.623-1.329-1.624-3.814-1.622m20.219.795q-.67-.515-1.937-.514-1.64 0-2.748 1.55-1.094 1.547-1.091 4.219l.008 8.156-2.563.002-.014-16 2.562-.002.003 3.297h.062q.547-1.687 1.67-2.626 1.125-.955 2.515-.956 1 0 1.532.218zm15.514-2.607L202.897 68.7q-1.965 4.971-5.526 4.974-1 0-1.673-.201l-.002-2.297q.828.28 1.516.28 1.938-.002 2.904-2.315l1.278-3.033-6.263-15.963 2.844-.003 4.339 12.309q.077.235.329 1.218h.094q.077-.375.311-1.187l4.536-12.348z"/></svg>