<svg xmlns="http://www.w3.org/2000/svg" width="60" height="44" fill="none" viewBox="0 0 60 44"><path fill="url(#a)" d="M48.3 16.833A17.157 17.157 0 0 0 30.8.213a17.57 17.57 0 0 0-16.747 11.63A16.23 16.23 0 0 0 0 27.667a16.487 16.487 0 0 0 16.893 16.046h29.174A14.306 14.306 0 0 0 60 30.09a13.684 13.684 0 0 0-11.7-13.257"/><path fill="#f2f2f2" d="M43 31V19.667h-3v13.766h8.2V31zm-23.8-5.567a6.1 6.1 0 0 1-1.7-1.033 1.47 1.47 0 0 1-.4-1.067 1.14 1.14 0 0 1 .5-1 2.28 2.28 0 0 1 1.4-.4 5.4 5.4 0 0 1 3.333.967v-2.867A8.6 8.6 0 0 0 19 19.5a5.47 5.47 0 0 0-3.633 1.133 3.6 3.6 0 0 0-1.4 2.967c0 1.7 1.066 3.033 3.333 4.033.736.314 1.43.717 2.067 1.2a1.4 1.4 0 0 1 .5 1.067 1.27 1.27 0 0 1-.534 1.033 2.7 2.7 0 0 1-1.5.367 5.53 5.53 0 0 1-3.633-1.4V33a7.24 7.24 0 0 0 3.567.8 6.26 6.26 0 0 0 3.933-1.1 3.6 3.6 0 0 0 1.1-3.033 3.5 3.5 0 0 0-.833-2.334 8.1 8.1 0 0 0-2.767-1.9m17.467 5.3a7.3 7.3 0 0 0 0-7.733 6.03 6.03 0 0 0-2.334-2.5A6.67 6.67 0 0 0 31 19.633a7.04 7.04 0 0 0-3.6.9A6.2 6.2 0 0 0 24.967 23a8.2 8.2 0 0 0-.867 3.8 7.5 7.5 0 0 0 .8 3.333 5.9 5.9 0 0 0 2.3 2.467 6.85 6.85 0 0 0 3.333 1l2.867 3.333h4.033l-4.1-3.666a5.97 5.97 0 0 0 3.334-2.534m-3.334-.833a3.14 3.14 0 0 1-2.533 1.167 3.05 3.05 0 0 1-2.533-1.2 5.08 5.08 0 0 1-.967-3.334 5.1 5.1 0 0 1 .967-3.333 3.33 3.33 0 0 1 2.6-1.233 2.9 2.9 0 0 1 2.5 1.233c.657.983.973 2.154.9 3.333a4.86 4.86 0 0 1-.934 3.367"/><defs><linearGradient id="a" x1="33.027" x2="25.053" y1="46.143" y2=".943" gradientUnits="userSpaceOnUse"><stop offset=".15" stop-color="#0078d4"/><stop offset=".8" stop-color="#5ea0ef"/><stop offset="1" stop-color="#83b9f9"/></linearGradient></defs></svg>