<svg xmlns="http://www.w3.org/2000/svg" width="494" height="70" fill="none" viewBox="0 0 494 70"><path fill="#404041" d="M490.345 49.767a2.75 2.75 0 0 1-2.767-2.768 2.78 2.78 0 0 1 2.767-2.767A2.78 2.78 0 0 1 493.113 47a2.78 2.78 0 0 1-2.768 2.768m0-4.99A2.227 2.227 0 0 0 488.122 47c0 1.225.998 2.223 2.223 2.223A2.226 2.226 0 0 0 492.568 47a2.227 2.227 0 0 0-2.223-2.223m1.407 3.674h-.635l-.545-1.043h-.726v1.043h-.589v-3.04h1.451c.635 0 1.044.409 1.044.999a.94.94 0 0 1-.635.907zm-1.089-1.588c.227 0 .454-.136.454-.453 0-.363-.182-.454-.454-.454h-.907v.907zm-288.62-2.903h7.077v19.28h12.295v6.17h-19.372zm26.676 12.793v-.045c0-7.304 5.897-13.247 13.746-13.247 7.848 0 13.655 5.852 13.655 13.156v.09c0 7.305-5.898 13.248-13.746 13.248-7.803-.046-13.655-5.898-13.655-13.202m20.233 0v-.045c0-3.675-2.631-6.85-6.533-6.85-3.856 0-6.442 3.13-6.442 6.804v.091c0 3.675 2.631 6.85 6.488 6.85 3.901-.045 6.487-3.175 6.487-6.85m15.833 1.497V43.96h7.168v14.154c0 3.675 1.86 5.399 4.672 5.399 2.813 0 4.673-1.679 4.673-5.217V43.96h7.168v14.109c0 8.211-4.673 11.795-11.931 11.795-7.214.045-11.75-3.63-11.75-11.614m34.478-14.29h9.844c9.074 0 14.382 5.217 14.382 12.566v.091c0 7.35-5.354 12.793-14.518 12.793h-9.663zm9.935 19.19c4.219 0 7.032-2.314 7.032-6.442v-.091c0-4.083-2.813-6.442-7.032-6.442h-2.858v12.93zm24.498-19.19h20.369v6.215h-13.337v4.31h12.067v5.852h-12.067v9.073h-7.032zm30.168 0h7.032v19.28h12.34v6.17h-19.372zm37.79-.182h6.805l10.843 25.632h-7.576l-1.86-4.536h-9.799l-1.815 4.536h-7.395zm6.216 15.606-2.813-7.213-2.858 7.213zm20.505-15.424h12.022c3.902 0 6.578.998 8.302 2.767 1.497 1.452 2.268 3.403 2.268 5.943v.09c0 3.902-2.086 6.488-5.217 7.804l6.079 8.892h-8.166l-5.126-7.713h-3.085v7.713h-7.032zm11.705 12.249c2.404 0 3.765-1.18 3.765-2.995v-.136c0-1.996-1.452-2.994-3.811-2.994h-4.627v6.125zm21.049-12.249h20.461v6.033h-13.474v3.811h12.203v5.58h-12.203v4.038h13.655v5.988h-20.642zm-274.51 15.787c-.998 2.223-3.085 3.811-5.807 3.811-3.856 0-6.487-3.221-6.487-6.85v-.091c0-3.675 2.586-6.805 6.442-6.805 2.903 0 5.126 1.77 6.033 4.22h7.44c-1.179-6.08-6.532-10.571-13.428-10.571-7.848 0-13.746 5.943-13.746 13.247v.09c0 7.304 5.807 13.157 13.655 13.157 6.714 0 11.977-4.355 13.338-10.162z"/><path fill="#fff" d="m142.205 41.555-19.462-11.16-3.357-1.451-79.617.59v40.375l102.436.046z"/><path fill="#f38020" d="M106.774 66.235c.953-3.267.59-6.26-.998-8.484-1.451-2.041-3.901-3.22-6.85-3.357l-55.846-.726c-.363 0-.68-.181-.862-.453-.181-.273-.227-.636-.136-.998.182-.545.726-.953 1.316-.999l56.345-.726c6.668-.317 13.927-5.716 16.468-12.339l3.221-8.393c.136-.363.181-.726.09-1.089C115.893 12.25 101.24 0 83.728 0c-16.15 0-29.85 10.434-34.75 24.906a16.67 16.67 0 0 0-11.568-3.221c-7.758.771-13.973 6.986-14.744 14.744-.182 1.996-.046 3.947.408 5.761C10.417 42.555.3 52.898.3 65.646c0 1.134.09 2.268.227 3.402.09.545.544.953 1.089.953h103.072c.589 0 1.134-.408 1.315-.998z"/><path fill="#faae40" d="M124.558 30.35c-.499 0-1.044 0-1.543.045-.362 0-.68.273-.816.636l-2.178 7.576c-.952 3.266-.589 6.26.998 8.483 1.452 2.042 3.902 3.221 6.851 3.357l11.886.726c.363 0 .68.181.862.454.181.272.226.68.136.998-.182.544-.726.953-1.316.998l-12.385.726c-6.714.317-13.927 5.716-16.468 12.34l-.907 2.313c-.182.454.136.907.635.907h42.553c.499 0 .953-.317 1.089-.816a31 31 0 0 0 1.134-8.257c0-16.83-13.655-30.486-30.531-30.486"/></svg>