<svg xmlns="http://www.w3.org/2000/svg" width="720" height="180" fill="none" viewBox="0 0 720 180"><path fill="#737373" d="M253.056 121.204q-14.534 0-22.188-8.084-7.568-8.084-7.568-22.962 0-7.396 2.322-13.158 2.322-5.849 6.364-9.804 4.042-4.042 9.632-6.106t12.126-2.064q3.784 0 6.88.602 3.096.516 5.418 1.29 2.322.688 3.87 1.462t2.236 1.204l-3.87 10.836q-2.752-1.462-6.45-2.494-3.612-1.032-8.256-1.032a18.7 18.7 0 0 0-6.106 1.032q-2.924 1.032-5.246 3.354-2.237 2.236-3.612 5.848t-1.376 8.772q0 4.128.86 7.74.946 3.525 2.924 6.106 2.064 2.58 5.332 4.128 3.268 1.462 7.912 1.462 2.924 0 5.246-.344a49 49 0 0 0 4.128-.774 25 25 0 0 0 3.182-1.118q1.376-.602 2.494-1.118l3.698 10.75q-2.838 1.72-7.998 3.096t-11.954 1.376m45.79-.344q-5.59-.086-9.116-1.204-3.44-1.118-5.504-3.096-1.978-2.064-2.752-4.902-.688-2.924-.688-6.536V55.328l12.814-2.064v49.278q0 1.72.258 3.096t.946 2.322q.774.947 2.15 1.548t3.698.774zm51.463-23.564q0 5.332-1.548 9.804-1.548 4.386-4.472 7.568-2.924 3.096-7.052 4.816-4.043 1.72-9.116 1.72-4.989 0-9.116-1.72-4.043-1.72-6.966-4.816-2.925-3.182-4.558-7.568-1.635-4.471-1.634-9.804 0-5.332 1.634-9.718 1.719-4.386 4.644-7.482a21.4 21.4 0 0 1 7.052-4.816q4.128-1.72 8.944-1.72 4.902 0 8.944 1.72 4.127 1.72 7.052 4.816 2.923 3.096 4.558 7.482t1.634 9.718m-13.072 0q0-5.934-2.408-9.288-2.322-3.44-6.708-3.44t-6.794 3.44q-2.409 3.354-2.408 9.288t2.408 9.46q2.408 3.44 6.794 3.44t6.708-3.44q2.408-3.526 2.408-9.46m61.612 21.156q-3.268.946-8.428 1.72-5.16.86-10.836.86-5.762 0-9.632-1.548-3.784-1.548-6.02-4.3-2.236-2.838-3.182-6.708t-.946-8.514V74.764h12.814v23.65q0 6.192 1.634 8.944t6.106 2.752q1.376 0 2.924-.086a90 90 0 0 0 2.752-.344V74.764h12.814zm22.95-21.414q0 5.934 2.666 9.546t7.912 3.612q1.72 0 3.182-.086a40 40 0 0 0 2.408-.344V86.46q-1.203-.774-3.182-1.29a14.6 14.6 0 0 0-3.87-.516q-9.116 0-9.116 12.384m28.982 21.5a64 64 0 0 1-3.956 1.032q-2.235.43-4.73.774a67 67 0 0 1-4.988.516 47 47 0 0 1-4.816.258q-5.59 0-9.976-1.634t-7.396-4.644q-3.009-3.096-4.644-7.396-1.548-4.386-1.548-9.804 0-5.504 1.376-9.89 1.377-4.472 3.956-7.568a17 17 0 0 1 6.278-4.73q3.785-1.635 8.6-1.634 2.666 0 4.73.516 2.15.516 4.3 1.462V55.328l12.814-2.064zM503.544 120a120 120 0 0 0-2.15-6.364l-2.236-6.536h-23.22a304 304 0 0 1-2.322 6.536 199 199 0 0 0-2.064 6.364H457.62a1060 1060 0 0 1 6.364-17.802 769 769 0 0 1 5.848-15.394 789 789 0 0 1 5.676-13.674q2.838-6.536 5.848-12.728h12.814q2.924 6.192 5.762 12.728 2.838 6.45 5.676 13.674a525 525 0 0 1 5.934 15.394A1069 1069 0 0 1 517.906 120zm-16.082-46.096q-.43 1.29-1.29 3.526t-1.978 5.16q-1.119 2.925-2.494 6.45-1.29 3.526-2.666 7.396h16.942a888 888 0 0 0-2.666-7.396q-1.29-3.525-2.494-6.45-1.119-2.925-1.978-5.16a312 312 0 0 0-1.376-3.526m53.982-13.502q1.548 2.838 3.526 7.052a199 199 0 0 1 4.214 9.03 318 318 0 0 1 4.386 9.89 12792 12792 0 0 1 4.042 9.546l4.042-9.546a573 573 0 0 1 4.3-9.89 538 538 0 0 1 4.214-9.03q2.064-4.215 3.612-7.052h12.212q.861 5.935 1.548 13.33.774 7.31 1.29 15.308.603 7.912 1.032 15.91.516 7.998.86 15.05H577.65q-.258-8.686-.688-18.92a509 509 0 0 0-1.29-20.64 3403 3403 0 0 1-3.44 7.998l-3.784 8.772a777 777 0 0 1-3.526 8.428 882 882 0 0 0-2.924 6.794h-9.374a809 809 0 0 0-2.924-6.794q-1.719-4.042-3.612-8.428a565 565 0 0 0-3.698-8.772q-1.892-4.386-3.44-7.998a512 512 0 0 0-1.29 20.64q-.43 10.234-.688 18.92H523.9q.345-7.052.774-15.05.516-7.998 1.032-15.91.603-7.998 1.29-15.308.774-7.395 1.634-13.33zm72.624 29.756q0 4.386 1.032 7.912 1.118 3.526 3.096 6.106a14.3 14.3 0 0 0 4.988 3.87q2.923 1.376 6.708 1.376 3.698 0 6.622-1.376 3.01-1.375 4.988-3.87 2.064-2.58 3.096-6.106 1.118-3.525 1.118-7.912 0-4.386-1.118-7.912-1.032-3.612-3.096-6.106a13 13 0 0 0-4.988-3.956q-2.924-1.376-6.622-1.376-3.784 0-6.708 1.462a13.9 13.9 0 0 0-4.988 3.956q-1.978 2.494-3.096 6.106-1.032 3.526-1.032 7.826m45.494 0q0 6.278-1.548 11.352-1.548 4.987-4.386 8.772a24.6 24.6 0 0 1-6.622 6.278q-3.87 2.494-8.514 3.612a4.65 4.65 0 0 0 1.892 2.752q1.462 1.118 3.698 1.806 2.237.688 5.16 1.032 3.01.344 6.45.602l-2.752 9.804q-6.708-.258-11.524-1.376-4.73-1.032-8.084-2.924-3.268-1.891-5.246-4.644-1.892-2.752-2.924-6.364-5.332-.688-9.89-2.924a26 26 0 0 1-7.912-6.192q-3.354-3.87-5.246-9.288t-1.892-12.298q0-7.654 2.408-13.416 2.407-5.849 6.45-9.804a27.2 27.2 0 0 1 9.46-5.934q5.418-1.978 11.352-1.978 6.106 0 11.524 1.978 5.418 1.979 9.46 5.934t6.364 9.804q2.322 5.761 2.322 13.416m29.071-30.444q13.33 0 20.468 4.73 7.138 4.644 7.138 15.308 0 10.75-7.224 15.566-7.224 4.73-20.64 4.73h-4.214V120h-13.416V61.262q4.386-.86 9.288-1.204t8.6-.344m.86 11.438q-1.461 0-2.924.086-1.376.086-2.408.172v17.2h4.214q6.966 0 10.492-1.892t3.526-7.052q0-2.495-.946-4.128-.86-1.635-2.58-2.58-1.633-1.032-4.042-1.376-2.407-.43-5.332-.43"/><path fill="#070707" d="M18.641 110.961c-1.81-12.72.7-24.72 6.41-36.06 1.36-2.69 1.52-4.76-.15-7.24-1.28-1.91-2.1-4.13-3.26-6.13-3.71-6.39-5.24-13.17-3.8-20.51 1.01-5.12-.36-9.36-4.18-13.03-3.69-3.55-7.05-7.45-10.58-11.18-5.53-5.84-3.35-13.92 4.41-16.24 2.61-.78 5.3-.78 7.83.12 7.47 2.66 14.25 6.63 18.75 13.27 7.64 11.28 14.1 23.23 17.08 36.68.57 2.58 1.72 2.98 3.7 2.31 5.17-1.75 10.27-3.71 15.44-5.44 2.3-.77 2.13-2.84 2.54-4.46 3.22-12.55 11.05-21.64 21.4-28.87 1.08-.76 2.22-1.45 3.38-2.09 12.95-7.21 22.06-3.45 25.93 10.82.73 2.7 1.29 5.52 1.38 8.3.09 2.89 1.19 3.48 3.9 3.39 10.53-.35 20.75 1.35 30.68 4.98 7.56 2.76 13.49 7.62 18.61 13.63 9.03 10.62 15.76 22.45 18.94 36.15.23.98-.18 2.49 1.52 2.72v23.87c-1.66.15-1.45 1.62-1.71 2.62-1.36 5.2-3.49 10.05-7.18 13.99-1.43 1.53-1.33 2.7-.56 4.38 1.39 3.02.35 5.43-2.22 7.35-5.73 4.29-11.86 7.94-18.62 10.29-5.72 1.98-11.15.92-15.68-3.28-1.23-1.14-2.02-1.71-3.76-.82-6.76 3.45-14.09 4.68-21.6 4.97-1.75.07-2.96.15-3.62 2.32-2.68 8.8-9.62 11.51-17.96 11.99-2.51.52-5.01.76-7.5-.09-.33-2.04 1.38-1.92 2.5-2.18 2.58-.6 5.23-.87 7.82-1.4 9.09-1.86 12.91-7.06 12.11-16.32-.26-2.98-1.22-5.84-1.46-8.82-.11-1.34-.05-2.9 1.5-3.31 1.65-.44 2.29 1.03 2.76 2.27 1.02 2.64 1.49 5.44 1.78 8.23.29 2.74 1.6 3.53 4.28 3.45 6.03-.2 11.78-1.15 16.96-4.21.22-1.77-1.15-2.11-1.94-2.83-7.54-6.8-9.08-19.38-3.35-27.73.83-1.22 1.73-2.89 3.47-1.93 1.58.86 1.19 2.64.58 4.03-2.25 5.11-3.77 10.21-1.64 15.83 2.09 5.53 4.8 7.57 10.73 7.75 6.31.19 12.03-1.97 17.74-4.23 1.23-.49 2.42-1.09 3.66-1.54 1.11-.4 2.41-.84 3.15.37.86 1.41-.11 2.56-1.2 3.38-2.68 2.02-5.79 3.16-8.93 4.24-1.4.48-2.9.75-4.16 1.59-1.27.86-1.5 2.13-1.13 3.52.46 1.69 1.83 1.9 3.17 1.46 6.5-2.15 12.45-5.36 17.72-9.74 1.42-1.18 1.68-2.89.83-4.53-1.28-2.49-.44-4.38 1.29-6.25 7.38-8 9.09-18 8.69-28.21-.84-21.32-10.33-38.79-25.75-53.08-7.74-7.17-17.72-9.45-27.85-10.63-5.52-.64-11.12-2.19-16.7-.13-2.83-1.21-1.67-4.14-2.67-6.14-1.24-4.96-1.7-10.14-4.45-14.66-3.33-5.47-6.97-7.16-12.94-4.97-12.65 4.62-21.52 13.46-26.63 25.81-3.82 9.25-5.07 19.18-6.46 29.02-.14.98-.05 2-.33 2.96-.49 1.73-.92 4.06-3.24 3.6-2.2-.44-1.24-2.71-1.2-4.24.07-2.98.29-5.96.93-8.88.68-3.12-.39-4.43-3.76-4.7-20.08-1.6-33.83 8.54-39.87 29.67-1.09 3.82-1.58 7.79-2.75 11.61-.85 2.93-.23 5.95-.54 8.9-.17 1.66.41 3.85-2.24 4.26"/><path fill="#0a0a0a" d="M98.131 168.711c2.3 1.86 5.04.49 7.52 1.03-.61.21-1.22.59-1.84.61-4.55.17-8.13.8-11.77 4.97-5.17 5.92-13.22 4.94-20.55 3.75-1.13-.18-2.21-.86-3.34-.93-7.63-.47-12.13-4.56-13.85-12.38-8.37 5.47-16.71 3.11-24.96.68-3.78-1.12-6.6-3.66-7.81-7.63-1.21-2.25.26-3.85 1.33-5.56 1.75-1.53 2.34-5 5.89-3.51.97 2-.53 3.44-1.15 5.09-.65 1.71-1.39 3.43-.52 5.26.67 1.41 1.78 2.53 3.43 2.43 1.48-.08 1.54-1.5 1.8-2.61.15-.65.22-1.31.46-1.93.8-2.05 1.98-4.76 4.23-4.07 2.47.76.79 3.38.39 5.2-1.05 4.74-.07 6.05 4.75 6.25 2.85.12 5.58-.25 8.18-1.58 2.31-1.18 3.61-2.64 2.94-5.5-.68-2.89-.89-5.8 3.66-3.64 1.02.48 1.96.2 2.82-.33 5.25-3.28 11-3.21 16.82-2.5 4.28.52 7.98.09 9.7-4.66.34-.95.95-1.85 2.17-1.62 1.42.27 1.67 1.51 1.72 2.68.12 3.12-1.32 5.42-4.05 6.84-3 1.57-6.2 2.26-9.6 1.73-1.8-.28-3.57-.66-5.4-.71-7.25-.2-10.91 2.59-12.69 9.7.43-.26.45-.78.72-1.13.91-1.15 1.74-2.74 3.54-1.67 1.44.86.91 2.3.52 3.58-.29.95-.74 1.84-.97 2.81-.36 1.58-.28 3.11 1.43 3.77 2.02.78 2.54-.87 3.08-2.28.59-1.55 1.06-3.16 2.24-4.38.82-.86 1.8-1.63 3.04-.86 1.01.63.81 1.69.64 2.68-.36 2.18-2.55 4.48-.55 6.52 2.31 2.37 5.6 1.54 8.52 1.33 4.64-.34 8.62-1.99 11.29-6.17 1.51-2.4 3.65-3.29 6.22-1.26"/><path fill="#101010" d="M23.561 154.001c-.2 1.81-2.76 2.61-2.03 4.81-2.47-4.78-.32-8.54 2.79-11.98 3.2-3.54 7.48-5.21 12.11-6.29-.89-1.95-1.23-3.88-3.27-4.91-10.14-5.08-13.38-14.27-14.51-24.68 1.74-1.78.57-3.99.89-5.98.42-2.63-.88-5.46.91-7.94 2.21 2.11 1.53 4.88 1.49 7.39-.1 5.94.53 11.71 3.08 17.15.92 1.51 1.75 3.08 2.43 4.72.76 2.47 2.54 3.95 4.82 4.95 11.2 4.91 22.79 5 34.56 2.92 2.12-.37 4.23-.81 6.4-.63 1.36.24 2.8.36 3.26 2.03-5.55 4.47-12.41 3.72-18.82 4.48-4.38.52-8.9.35-13.34-.16-.96-.11-2.65-.49-2.7.38-.31 5.71-5.03 3.92-8.05 4.96-1.58.54-3.05 1.24-4.47 2.09-2.87 1.39-4.85 3.5-5.55 6.69"/><path fill="#fcfcfc" d="M27.631 146.991c3.72-2.91 7.7-4.93 12.81-3.04.35-2.65-2.2-3.71-2-6.24 12.71 1.79 25.38 1.72 37.81-1.95 4.46-3.29 10.17-4.45 14.2-8.45 2.28-2.05 4.44-4.2 6.42-6.54 10.5-12.87 13.24-26.93 6.41-42.39-1.27-2.87-.87-5.08 1.66-6.92 1.07-.77 2.14-1.54 3.04-2.52 2.32-2.12 4.58-4.31 6.65-6.69 5.1-5.65 8.02-12.28 8.97-19.8.18-1.45.15-2.97 1.32-4.11.85-2.05 2.69-1.6 4.27-1.62 11.05-.16 21.74 1.64 31.98 5.93 4.83 2.03 8.87 5.15 12.39 8.94 14.41 15.46 23.43 33.23 22.71 54.91-.32 9.79-2.26 19.16-9.93 26.18-1.71 1.56-.73 2.44.06 3.67 1.41 2.2 1.69 4.28-.74 6.07-5.9 4.34-12.11 8.1-19.12 10.34-1.56.5-3.64 1.54-4.59-1.04-.99-2.69.38-6.37 2.51-7.07 4.95-1.63 9.99-3.06 14.47-6.14-1.35-2.02-2.53-.75-3.55-.28-5.44 2.48-10.99 4.65-16.94 5.47-12.28 1.69-19.21-5.85-16.95-18.17.65-3.54 2.38-6.67 3.75-9.6-1.19-1.21-1.83-.69-2.12-.22-3.82 6.21-5.36 12.82-3.06 19.94 1.3 4.02 3.32 7.56 7.53 9.36 2.34 1 2.81 2.29.13 3.59-6.69 3.24-13.83 4.37-21.17 4.66-2.49.1-2.44-1.51-2.57-3.25-.31-4.21-.72-8.41-2.74-12.4-1.99.98-1.31 2.12-1 3.11 1.18 3.83 1.66 7.76 1.71 11.75.09 7.21-2.88 11.52-9.64 13.91-4.57 1.62-9.4 1.75-14.16 2.32-2.62-.44-4.63-.33-5.63 2.96-.8 2.65-3.52 3.85-6.09 4.7-4.34 1.44-8.81 1.52-13.27.78-3.84-.64-4.33-1.64-3.02-5.49.48-1.4 1.18-2.73 1.84-4.06.35-.71.29-1.35-.33-1.71-.69-.41-1.18.1-1.57.68-1.22 1.81-1.82 3.88-2.51 5.92-.4 1.16.44 3.5-2.16 2.9-2.21-.51-4.74-.81-4.99-3.92-.16-2.1.71-3.85 1.73-5.59.44-.75 1.67-1.69.38-2.48-1.54-.94-1.81.8-2.35 1.62-.79 1.18-1.37 2.5-2.18 4.01-2.32-7.71 3.38-14.46 11.71-14.26 3.63.09 7.27.76 10.89.66 5.73-.17 8.71-3.02 8.93-7.95.03-.65-.04-1.32-.97-1.5-.07.01-.35-.03-.39.04-3.47 7.53-4.32 7.99-13.23 7.01-9-.99-10.98-.45-17.39 4.74-.67.2-.8-.37-1.09-.74-.69-.9-.54-3.16-2.23-2.39-1.73.79-.14 2.41.32 3.38 1.5 3.14.29 4.93-2.44 6.41-3.46 1.88-7.08 2.7-11 2.38-5.57-.45-7.09-3.05-5.02-8.36.49-1.26 2.17-2.25 1.18-3.99-3.47 2.21-4.03 3.56-4.14 9.95-7.2-.03-9.52-3.46-6.86-9.93.68-1.66 2.22-2.9 2.31-4.83-.89-.66-1.51-1.45-.95-2.65"/><path fill="#fcfcfc" d="M24.441 122.681c-3.1-4.28-3.62-9.33-3.98-14.33-.27-3.75-.03-7.54-.02-11.31 1.46-8.35 3.69-16.41 7.93-23.88 8.73-15.4 23.14-19.91 38.78-17.88 2.64.34 2.71 1.47 2.34 3.62-.72 4.24-1.15 8.53-1.69 12.79-.11.9-.61 1.95.99 2.72 1.43-1.29 1.17-3.16 1.37-4.8 1.1-9.21 2.57-18.36 5.21-27.27 4.01-13.53 13.01-22.9 25.21-29.23 10.04-5.2 16.7-2.14 20.33 8.61 1.17 3.47 1.58 7.09 2.15 10.68 2.22 11.2-.78 20.99-7.96 29.66-2.22 2.34-4.52 4.6-6.82 6.85-5.41 4.62-11.19 8.68-17.66 11.69 2.32-.95 4.51-2.17 6.58-3.57 3.15-2.14 5.25-1.05 6.62 2.14 4.39 10.17 4.75 20.36.13 30.58-1.84 4.08-4.23 7.8-7.01 11.29-2.18 2.24-4.37 4.45-6.62 6.62-5.12 3.99-10.64 6.97-17.34 7.07-7.47.51-14.81 2.42-22.38 1.96-6.96-.42-13.81-1.12-19.9-4.95-.26-2.31 2.27-1.69 3.04-2.92 1.96-2.53 2.35-4.57-1.75-4.75-2.61-.11-4.77-2.41-7.55-1.39"/><path fill="#fcfcfc" d="M9.621 4.62c-.52-.4-1.35-.72-1.49-1.23-.24-.82.66-.87 1.25-.96 1.83-.27 3.66-.23 5.4.4 6.65 2.42 12.84 5.88 16.93 11.67 7.48 10.58 13.39 22.03 16.93 34.62.89 3.17.83 5.13-3 6.13-4.35 1.13-8.02 3.84-11.74 7.14-3.04-6.04-5.81-11.76-6.09-18.36-.12-2.81-.49-5.63-.37-8.43.46-10.45-4.33-18.39-11.72-25.13-2.87-1.08-4.79-3.15-6.1-5.85"/><path fill="#fcb5a2" d="M14.511 11.69c9.03 8.47 11.59 19.22 11.08 31.11-.26 6.15 1.85 11.79 4.66 17.07 1.94 3.63 1.41 6.14-2.3 8.6-4.54-8.57-10.25-16.57-7.88-27.19 1.29-5.76-.42-10.68-4.76-14.85-3.81-3.67-7.24-7.74-10.92-11.55-1.69-1.78-2.94-3.6-2.15-6.18s2.99-2.8 5.17-3.04c3.54.62 5.85 2.7 7.1 6.03"/><path fill="#1d1d1d" d="M113.911 61.95c7.45-8.48 9.37-18.69 9.16-29.55 2.06 1.53-.25 4.42 1.84 5.95.08 9.62-2.84 18.07-9.79 24.92-1.05.15-1.55-.21-1.21-1.32"/><path fill="#e4e4e4" d="M159.991 145.631c-.17 2.78-.29 4.72-.4 6.66-.41.06-.76.24-1.03.14-2.65-.96-6.13-2.28-5.43-5.25.56-2.4 4.23-.75 6.86-1.55"/><path fill="#b9b9b9" d="M63.181 52.73c2.9-1.9 5.21-2.49 7.58-3.02.5 4.68-.52 4.18-7.58 3.02"/><path fill="#1d1716" d="M14.511 11.69c-2.6-1.73-4.26-4.59-7.11-6.03.81-.2 1.75-.11 2.21-1.04 2.67 1.28 4.56 3.38 6.1 5.84q-.585.615-1.2 1.23"/><path fill="#c8c8c8" d="M27.631 146.991c.44.85 1.18 1.59.95 2.68-3.28-.42-2.85 3.45-5.01 4.33-.72-.44-1.45-1.14-.78-1.87 1.58-1.74 2.5-4.12 4.84-5.14"/><path fill="#080808" d="M24.441 122.681c.22-1.5-.2-4.03 2.55-1.92 1.79 1.37 3.59 2.12 5.87 2.1 4.51-.03 5.1.99 3.12 5.09-.34.71-1.02 1.26-1.54 1.88-3.62 1.6-6.09.14-7.92-3-.69-1.38-1.38-2.76-2.08-4.15"/><path fill="#1b1b1b" d="M72.971 134.731c6.1-1.68 11.92-3.97 16.93-7.97 1.15-.34 1.53.13 1.32 1.23-4.16 4.2-9.15 6.79-14.98 7.77-.79-1.27-2.16-.74-3.27-1.03"/><path fill="#676767" d="M26.531 126.841c2.31 1.86 4.62 3.74 7.92 3-.64 1.84-3.05.19-3.76 1.91-2.17-.97-3.73-2.47-4.16-4.91"/><path fill="#111" d="M96.021 120.671c3.25-4.76 6.68-9.4 8.48-15 3.28-10.22 1.95-19.82-3.63-29.41-4.18 2.2-7.96 4.81-12.26 6.32-.87.31-1.98 1.18-2.54-.1-.58-1.32.83-1.57 1.67-1.89 7.52-2.85 13.74-7.78 20.08-12.51 1.09-.31 1.44.16 1.28 1.19-5.25 3.35-5.65 6.9-3.16 13.03 5.99 14.75 1.61 28.06-8.73 39.65-1.03.16-1.51-.19-1.19-1.28"/><path fill="#232323" d="M109.101 69.27c-.43-.4-.85-.8-1.28-1.19 1.78-2.29 3.85-4.29 6.09-6.13.4.44.8.88 1.21 1.32-1.57 2.44-3.55 4.46-6.02 6"/><path fill="#202020" d="m96.021 120.671 1.19 1.28c-1.51 2.49-3.54 4.48-5.99 6.04l-1.32-1.23z"/><path fill="#0c0a0a" d="M74.531 71.1c.5-9.32 1.72-19.15 5.54-28.48 2.3-5.61 5.54-10.55 10.39-14.29 6.81-5.26 15.23-6.12 21.33-2.24 6.06 3.86 8.86 12.52 6.77 20.84-1.77 7.04-5.77 12.56-11.51 16.9-8.74 6.6-18.71 10.51-29.22 13.17-3.4.86-3.44.71-3.3-5.9"/><path fill="#0f0f0f" d="M74.621 107.541c-2.9-.1-4.84-2.04-4.63-4.61.22-2.74 3.34-5.3 6.27-5.12 2.96.18 3.86 2.2 3.91 4.71.06 2.87-2.55 5.13-5.55 5.02"/><path fill="#feb6a3" d="M76.901 69.83c.52-9.66 1.94-18.77 5.69-27.38 2.64-6.06 6.48-11.14 12.42-14.34 10.97-5.92 22.11.75 21.97 13.22-.08 7.34-3.16 13.47-8.53 18.35-8.28 7.52-18.32 11.76-28.97 14.49-5.26 1.34-1.41-3.26-2.58-4.34"/></svg>