<svg xmlns="http://www.w3.org/2000/svg" width="1030" height="207" viewBox="0 0 1030 207"><g fill="none"><path fill="#e95420" d="M122.487 117.862a4.844 4.844 0 0 1 4.845 4.844 4.842 4.842 0 0 1-9.683 0 4.84 4.84 0 0 1 4.838-4.839zm27.193-14.607h-40.664l-58.59-38.717 2.43-5.852 44.13 9.064.133-33.46 22.482 26.087 36.55-39.727 5.432 3.223-17.766 52.365 53.532-15.477C181.114 24.978 145.044.027 103.255.027 46.325.028.005 46.35.005 103.287c-.002 31.055 13.777 58.952 35.542 77.891v-19.713a9.675 9.675 0 0 1 9.68-9.677c5.347 0 9.681 4.332 9.681 9.677v33.04a103 103 0 0 0 6.456 3.148v-36.188a9.673 9.673 0 0 1 9.678-9.677 9.677 9.677 0 0 1 9.677 9.677v42.6c2.129.476 4.284.886 6.456 1.228v-43.828c0-5.345 4.337-9.677 9.683-9.677a9.677 9.677 0 0 1 9.678 9.677v44.927c0 .037-.006.07-.006.101q3.257-.103 6.456-.405v-83.35c0-5.346 4.337-9.678 9.683-9.678s9.678 4.338 9.678 9.678v79.631c42.819-12.596 74.168-52.24 74.168-99.082 0-11.903-2.033-23.341-5.757-33.99l-51.083 33.958z"/><path fill="#000" d="M300 182.4q-12 0-21.2-3.8t-15.3-10.9-9.3-17-3.2-21.9q0-12.2 3.3-22.2t9.5-17.2 15-11.1 19.8-3.9q8.4 0 15.7 1.4t11.3 3.6l-3.4 11.2q-4-2-9-3.2t-13.4-1.2q-17.2 0-26.1 11.1t-8.9 31.5q0 9.2 2 16.9t6.5 13.2 11.6 8.6 17.3 3.1q8.4 0 14.1-1.9t8.3-3.3l2.8 11.2q-3.6 2-11.3 3.9t-16.1 1.9m70.9-.4q-6.6-.2-11.5-1.7t-8.2-4.6-5-8-1.7-12.3v-128l13-2.4v130q0 4.8.9 7.7t2.7 4.6 4.7 2.5 6.9 1.4zm108.5-53.4q0 12.2-3.5 22.2t-9.8 17a44.6 44.6 0 0 1-14.9 10.9q-8.6 3.9-19 3.9t-19-3.9a44.6 44.6 0 0 1-14.9-10.9q-6.3-7-9.8-17t-3.5-22.2 3.5-22.2 9.8-17.1 14.9-11 19-3.9 19 3.9 14.9 11 9.8 17.1 3.5 22.2m-13.8 0q0-19.4-9-30.9t-24.4-11.5-24.4 11.5-9 30.9 9 30.8 24.4 11.4 24.4-11.4 9-30.8m116.9 48q-5.8 1.6-15.6 3.6t-24 2q-11.6 0-19.4-3.4t-12.6-9.6-6.9-15-2.1-19.4v-58h13v53.8q0 11 1.6 18.6t5.2 12.3 9.3 6.8 13.9 2.1q9.2 0 16-1t8.6-1.8V76.8h13zm112.1.4q-5.8 2-14.8 3.8t-22.8 1.8q-11.4 0-20.7-3.7t-16-10.7-10.4-17-3.7-22.6q0-11.8 3.1-21.7t9.1-17.1 14.7-11.2 19.9-4q10.2 0 17.7 2.9t10.9 5.5V27.4l13-2.4zm-13-81.4q-1.8-1.4-4.5-3t-6.3-3-7.8-2.3-8.8-.9q-9.6 0-16.1 3.4t-10.5 9.1-5.8 13.4-1.8 16.3q0 20.4 10.2 31.3t27 10.9q9.6 0 15.5-.9t8.9-1.9zm31.3 20.4h45.2v12.6h-45.2zm76.5 64.2h-13V76.8h13zm3-134.6q0 4.6-2.8 7.3t-6.8 2.7-6.8-2.7-2.8-7.3 2.8-7.3 6.8-2.7 6.8 2.7 2.8 7.3m26.9 34.8q5.8-1.6 15.6-3.6t24-2q11.8 0 19.7 3.4t12.6 9.7 6.7 15.1 2 19.4v57.8h-13v-53.6q0-11-1.5-18.6t-5-12.4-9.2-6.9-14.3-2.1q-9.2 0-15.9 1t-8.7 1.8v90.8h-13zm122.3 99.8h-13V76.8h13zm3-134.6q0 4.6-2.8 7.3t-6.8 2.7-6.8-2.7-2.8-7.3 2.8-7.3 6.8-2.7 6.8 2.7 2.8 7.3m39.1 31.2h41.2v11h-41.2v55q0 8.8 1.5 14.3t4.3 8.5 6.8 4 8.8 1q8.2 0 13.2-1.9t7.8-3.5l3.2 10.8q-2.8 1.8-9.8 4.1t-15.2 2.3q-9.6 0-16.1-2.5t-10.4-7.6-5.5-12.7-1.6-18V46.4l13-2.4z"/></g></svg>