<svg xmlns="http://www.w3.org/2000/svg" width="1665" height="270" fill="none" viewBox="0 0 1665 270"><path fill="#173361" d="M176.166 130.535c-12.079-.353-24.229-.494-36.308-.565 0-12.079-.07-24.228-.423-36.307l-.565-20.626c-.119-2.3-.222-4.61-.324-6.92-.204-4.573-.408-9.155-.736-13.706h-5.792c-.329 4.55-.532 9.133-.736 13.706-.103 2.31-.205 4.62-.324 6.92l-.565 20.626c-.139 5.582-.21 11.233-.28 16.816l-.002.207q-.988-2.287-1.966-4.572c-1.584-3.698-3.165-7.386-4.816-11.038l-8.405-18.79c-1.144-2.396-2.266-4.802-3.388-7.206-1.788-3.834-3.575-7.666-5.442-11.442l-5.369 2.26c1.559 4.624 3.224 9.213 4.895 13.816v.001c.677 1.866 1.356 3.734 2.028 5.608l7.346 19.284a1060 1060 0 0 0 6.287 15.823c-4.026-3.955-8.123-7.911-12.22-11.867L94.085 88.365a957 957 0 0 1-5.12-4.67h-.001c-3.364-3.083-6.739-6.176-10.207-9.175l-4.097 4.097c2.64 3.052 5.352 6.008 8.066 8.966 1.934 2.108 3.869 4.217 5.78 6.362l14.197 14.975a645 645 0 0 0 11.867 12.221l-3.526-1.414h-.002c-4.1-1.645-8.176-3.28-12.294-4.873l-19.284-7.346q-2.808-1.01-5.605-2.027l-.004-.001c-4.604-1.671-9.192-3.337-13.817-4.895l-2.26 5.369c3.879 1.961 7.814 3.782 11.752 5.605 2.301 1.065 4.603 2.13 6.896 3.224l18.79 8.406c3.652 1.651 7.34 3.232 11.038 4.816l.002.001q2.283.977 4.571 1.964l-.211.003c-5.582.07-11.232.14-16.813.28l-20.626.565c-2.3.119-4.608.221-6.919.324h-.002c-4.572.203-9.154.407-13.705.736v5.792c4.55.328 9.133.532 13.705.735h.002c2.311.103 4.619.206 6.919.324l20.626.566c10.059.294 20.168.343 30.244.392h.027l6.037.031v.043c.07 12.065.141 24.2.565 36.265l.635 20.626c.119 2.301.222 4.609.324 6.92.204 4.572.407 9.155.736 13.706h5.298c.328-4.551.532-9.134.735-13.706.103-2.311.206-4.619.324-6.92l.636-20.626c.211-5.757.282-11.584.352-17.343v-.002l.001-.102q.77 1.772 1.531 3.534l.007.015.001.003c1.799 4.159 3.584 8.285 5.454 12.412l8.477 18.789a885 885 0 0 1 2.935 6.232l.001.001c1.946 4.159 3.892 8.319 5.964 12.415l4.874-2.048c-1.34-4.019-2.759-7.985-4.176-11.947-.899-2.514-1.798-5.026-2.676-7.549l-7.275-19.284a647 647 0 0 0-6.358-16.247q1.57 1.519 3.142 3.044l.009.009c3.121 3.028 6.252 6.067 9.423 9.026l15.045 14.128c1.535 1.385 3.063 2.784 4.593 4.183 3.539 3.239 7.086 6.484 10.736 9.591l3.743-3.744c-3.22-3.723-6.512-7.339-9.799-10.95l-.005-.005q-1.99-2.183-3.97-4.373l-14.127-15.046c-2.96-3.17-5.998-6.302-9.027-9.423q-1.53-1.576-3.052-3.15c2.002.78 3.995 1.57 5.985 2.358 3.416 1.354 6.825 2.705 10.261 3.999l19.284 7.276c2.405.836 4.799 1.701 7.195 2.567h.001c4.079 1.474 8.162 2.95 12.3 4.285l2.049-4.874c-4.097-2.072-8.256-4.018-12.416-5.965h-.001c-2.08-.973-4.16-1.947-6.232-2.936l-18.789-8.476c-5.298-2.402-10.666-4.733-15.964-6.993l.108-.002c5.757-.07 11.583-.141 17.339-.351l20.626-.636c2.301-.119 4.609-.221 6.921-.324 4.572-.203 9.154-.407 13.705-.736v-5.297c-4.551-.329-9.133-.533-13.706-.736-2.311-.103-4.619-.205-6.92-.324z"/><path fill="#173361" fill-rule="evenodd" d="M0 134.917C0 60.537 60.536 0 134.917 0c74.452 0 134.988 60.536 134.917 134.917 0 74.381-60.536 134.917-134.917 134.917C60.537 269.834 0 209.298 0 134.917m12.573 0c0 67.459 54.886 122.344 122.344 122.344 67.459 0 122.344-54.885 122.344-122.344 0-67.458-54.885-122.344-122.344-122.344-67.458 0-122.344 54.886-122.344 122.344m648.103-.485c0 36.449-29.385 65.481-65.834 65.481s-65.834-29.032-65.834-65.481 29.385-65.48 65.834-65.48 65.834 29.031 65.834 65.48m-14.834 0c0-28.608-22.321-51.707-50.93-51.707s-51 23.099-51 51.707 22.322 51.706 50.93 51.706 51-23.027 51-51.706" clip-rule="evenodd"/><path fill="#173361" d="M478.861 152.519h15.258c-5.934 28.467-29.173 47.61-60.254 47.61-36.449 0-65.834-28.255-65.834-65.622s29.385-65.481 65.834-65.481c31.081 0 54.32 19.001 60.254 47.397h-15.258c-5.227-20.626-21.968-33.693-44.996-33.693-28.608 0-50.929 22.109-50.929 51.706s22.321 51.918 50.929 51.918c23.028 0 39.769-13.421 44.996-33.835m332.494 45.126V71.205h-14.692v101.011L715.359 71.205h-11.867v126.44h14.693V97.976l80.88 99.669zm67.572-112.878v46.479h64.35v13.633h-64.35v52.766h-14.693V71.205h86.814v13.562zm207.353 112.878v-13.562h-69.72V71.205h-14.69v126.44zm140-54.108c0 33.694-21.55 56.369-54.11 56.369s-54.11-22.675-54.11-56.369V71.205h14.7v72.332c0 24.723 15.61 42.594 39.41 42.594 23.59 0 39.42-17.871 39.42-42.594V71.205h14.69zm66.26-15.399V84.767h73.81V71.205h-88.51v126.44h88.51v-13.562h-73.81v-42.382h66.4v-13.563zm225.59-56.933v126.44h-12.29l-80.88-99.669v99.669h-14.69V71.205h11.94l81.23 101.011V71.205zm39 13.562V71.205H1665v13.562h-46.62v112.878h-14.7V84.767z"/></svg>