<svg xmlns="http://www.w3.org/2000/svg" width="200" height="33" fill="none" viewBox="0 0 200 33"><g fill="#0074a1" fill-rule="evenodd" clip-path="url(#a)" clip-rule="evenodd"><path d="M57.755 18.452h1.86c-.726 3.338-3.562 5.586-7.352 5.586-4.448 0-8.032-3.317-8.032-7.702 0-4.387 3.584-7.682 8.032-7.682 3.789 0 6.626 2.226 7.352 5.564h-1.86c-.636-2.422-2.678-3.949-5.49-3.949-3.496 0-6.219 2.596-6.219 6.067 0 3.469 2.723 6.088 6.218 6.088 2.813 0 4.855-1.572 5.49-3.972m21.091-2.106a7.663 7.663 0 0 1-7.692 7.692 7.663 7.663 0 0 1-7.692-7.692 7.663 7.663 0 0 1 7.692-7.692 7.663 7.663 0 0 1 7.692 7.692m-1.738 0c0-3.365-2.607-6.075-5.954-6.075s-5.954 2.71-5.954 6.075 2.608 6.075 5.954 6.075 5.954-2.71 5.954-6.075m20.007-7.692v15.385h-1.423L86.317 11.91v12.13h-1.702V8.654h1.38l9.417 12.285V8.654zm8.52 1.652v5.656h7.836v1.65h-7.836v6.427h-1.789V8.654h10.577v1.652zm25.134 12.08v1.652h-10.577V8.654h1.841v13.733zm16.346-5.084c0 4.024-2.682 6.736-6.73 6.736s-6.731-2.711-6.731-6.736V8.654h1.827v8.648c0 2.957 1.942 5.091 4.904 5.091 2.937 0 4.903-2.134 4.903-5.091V8.654h1.827zm8.487-6.996v5.27h7.933v1.653h-7.933v5.159h8.821v1.65h-10.577V8.654h10.577v1.652zm26.129-1.652v15.385h-1.423l-9.375-12.128V24.04h-1.702V8.654h1.38l9.417 12.285V8.654zM200 10.306h-5.41v13.733h-1.702V10.305H187.5V8.654H200zM23.438 17.284c.84-.046 1.682-.072 2.524-.134v-.646c-.842-.062-1.683-.089-2.524-.135l-2.524-.078a188 188 0 0 0-4.445-.067c-.003-1.48-.01-2.963-.049-4.445l-.071-2.524c-.043-.842-.067-1.683-.127-2.524h-.713c-.06.841-.084 1.682-.127 2.524l-.07 2.524c-.02.695-.028 1.391-.035 2.086-.274-.639-.548-1.279-.832-1.914l-1.03-2.305c-.363-.76-.707-1.529-1.084-2.284l-.658.275c.266.799.566 1.586.848 2.38l.901 2.359c.248.649.506 1.294.765 1.94q-.742-.731-1.5-1.45l-1.834-1.735c-.625-.565-1.238-1.143-1.875-1.695l-.503.503c.552.638 1.13 1.25 1.694 1.875l1.735 1.835q.72.756 1.45 1.5-.966-.391-1.94-.765l-2.36-.901c-.792-.282-1.58-.582-2.38-.85l-.273.66c.755.376 1.523.72 2.284 1.083l2.304 1.03c.635.284 1.274.558 1.914.832q-1.042.009-2.087.034l-2.523.071c-.841.044-1.682.068-2.524.127v.714c.842.06 1.683.083 2.524.127l2.524.07c1.483.04 2.965.047 4.447.05.01 1.48.02 2.962.066 4.444l.079 2.524c.045.841.072 1.683.133 2.524h.647c.061-.841.088-1.683.134-2.524l.078-2.524c.022-.712.034-1.425.044-2.137q.42.982.858 1.958l1.038 2.301c.364.76.71 1.527 1.09 2.282l.596-.25c-.265-.8-.56-1.587-.841-2.382l-.895-2.36q-.38-1-.777-1.993.765.746 1.543 1.481l1.84 1.73c.626.562 1.24 1.138 1.879 1.69l.458-.457c-.552-.639-1.128-1.253-1.69-1.88l-1.73-1.84a127 127 0 0 0-1.48-1.542q.991.397 1.99.778l2.362.893c.795.28 1.582.577 2.383.842l.248-.598c-.755-.377-1.52-.726-2.281-1.09l-2.301-1.037c-.65-.293-1.304-.575-1.958-.858.711-.01 1.424-.021 2.136-.043z"/><path d="M16.346 32.692C7.333 32.692 0 25.36 0 16.346S7.333 0 16.346 0s16.346 7.333 16.346 16.346-7.332 16.346-16.346 16.346m0-31.163c-8.17 0-14.817 6.646-14.817 14.817s6.647 14.817 14.817 14.817 14.817-6.647 14.817-14.817S24.517 1.53 16.346 1.53"/></g><defs><clipPath id="a"><path fill="#fff" d="M0 0h200v32.692H0z"/></clipPath></defs></svg>