<svg xmlns="http://www.w3.org/2000/svg" width="238" height="70" fill="none" viewBox="0 0 238 70"><path fill="#000" d="M95.72 26.619c0-6.835 3.978-10.813 13.275-10.813 3.417 0 6.82.416 10.137 1.236l-.782 6.1a55 55 0 0 0-9.133-.979c-4.876 0-6.439 1.68-6.439 5.657v14.36c0 3.977 1.563 5.657 6.439 5.657a55 55 0 0 0 9.122-.956l.781 6.1a42.3 42.3 0 0 1-10.136 1.237c-9.332 0-13.275-3.978-13.275-10.814zm38.518 27.611c-9.332 0-11.875-5.156-11.875-10.756v-6.893c0-5.6 2.519-10.755 11.875-10.755s11.874 5.156 11.874 10.755v6.893c0 5.6-2.519 10.755-11.874 10.755m0-22.572c-3.64 0-5.04 1.621-5.04 4.666v7.337c0 3.08 1.4 4.666 5.04 4.666 3.639 0 5.039-1.621 5.039-4.666v-7.302c.011-3.08-1.4-4.701-5.039-4.701m32.649 22.001V34.62c0-1.458-.618-2.181-2.181-2.181a18.9 18.9 0 0 0-7.116 2.333v18.885h-6.835v-27.26h5.202l.677 2.332a27.3 27.3 0 0 1 10.918-2.858c4.538 0 6.159 3.197 6.159 8.06v19.726zm20.915.572a32.1 32.1 0 0 1-9.413-1.564l.956-5.202a30.5 30.5 0 0 0 8.165 1.166c3.022 0 3.5-.676 3.5-2.741 0-1.68-.338-2.52-4.759-3.581-6.661-1.621-7.443-3.301-7.443-8.562 0-5.482 2.403-7.897 10.195-7.897 2.75.005 5.49.326 8.166.956l-.677 5.436a48 48 0 0 0-7.5-.781c-2.963 0-3.5.676-3.5 2.333 0 2.181.164 2.333 3.861 3.3 7.617 2.019 8.341 3.022 8.341 8.621-.07 5.26-1.727 8.515-9.892 8.515m21.136-27.832v19.037c0 1.458.619 2.182 2.182 2.182a18.85 18.85 0 0 0 7.115-2.334V26.397h6.836v27.26h-5.203l-.676-2.332a27.3 27.3 0 0 1-10.918 2.858c-4.538 0-6.159-3.196-6.159-8.06V26.396zm22.024 27.261V15.246l6.835-.957v39.369z"/><path fill="#961d59" fill-rule="evenodd" d="M34.866 42.46A7.547 7.547 0 1 1 42.4 34.9a7.537 7.537 0 0 1-7.535 7.56" clip-rule="evenodd"/><path fill="#d62783" fill-rule="evenodd" d="M49.552 38.4a3.5 3.5 0 1 1 0-7 3.5 3.5 0 0 1 0 7m12.738 3.278a3.336 3.336 0 1 1 .07-.28c0 .082 0 .175-.07.28m-2.462-9.017a3.5 3.5 0 1 1 2.59-4.187c.085.45.085.913 0 1.364a3.35 3.35 0 0 1-2.59 2.823m12.388 8.632a3.5 3.5 0 1 1-2.823-4.036 3.5 3.5 0 0 1 2.928 3.721.9.9 0 0 0-.07.315m-2.869-8.737a3.5 3.5 0 1 1 2.858-4c.035.298.035.6 0 .897a3.5 3.5 0 0 1-2.893 3.103m-2.391 20.798a3.499 3.499 0 1 1 .431-1.434 3.14 3.14 0 0 1-.431 1.434m-1.26-31.996a3.5 3.5 0 0 1-5.092-3.988 3.498 3.498 0 0 1 6.421-.771c.37.621.521 1.348.432 2.065a3.5 3.5 0 0 1-1.761 2.74" clip-rule="evenodd"/><path fill="#d62783" d="M34.994 69.988a34.994 34.994 0 1 1 0-69.988 34.66 34.66 0 0 1 21.253 7.197l-4.28 5.634A27.995 27.995 0 0 0 6.998 34.994a27.995 27.995 0 0 0 44.979 22.233l4.27 5.588a34.7 34.7 0 0 1-21.254 7.173"/><path fill="#000" d="M100.912 9.168V5.401h-3.5v3.767H95.71V.128h1.761V3.92h3.5V.13h1.68v9.04zm8.165 0h-1.4l-.128-.443a3.83 3.83 0 0 1-1.983.607c-1.237 0-1.75-.852-1.75-1.972 0-1.33.595-1.83 1.983-1.83h1.633v-.69c0-.722-.21-.979-1.295-.979a10 10 0 0 0-1.878.198l-.21-1.248a9.2 9.2 0 0 1 2.333-.303c2.135 0 2.765.723 2.765 2.333zm-1.668-2.46h-1.26c-.56 0-.712.15-.712.64s.152.654.689.654a2.76 2.76 0 0 0 1.283-.338zm5.272 2.624a8.3 8.3 0 0 1-2.333-.373l.234-1.249a8 8 0 0 0 2.018.28c.758 0 .863-.163.863-.653s-.082-.606-1.167-.851c-1.656-.385-1.854-.794-1.854-2.053 0-1.26.595-1.89 2.543-1.89a9.3 9.3 0 0 1 2.041.233l-.163 1.295a12.5 12.5 0 0 0-1.867-.187c-.735 0-.863.164-.863.56 0 .397 0 .56.957.793 1.901.479 2.076.724 2.076 2.065 0 1.342-.443 2.03-2.485 2.03m7.792-.129V4.666c0-.35-.151-.525-.548-.525a4.8 4.8 0 0 0-1.773.548v4.48h-1.703V0l1.703.257v2.88a6.2 6.2 0 0 1 2.485-.63c1.166 0 1.539.76 1.539 1.926v4.735zm3.173-7.477V.128h1.703v1.598zm0 7.442v-6.52h1.703v6.52zm3.056-6.462c0-1.633.992-2.59 3.301-2.59.849 0 1.694.098 2.52.292l-.198 1.458a14 14 0 0 0-2.275-.233c-1.166 0-1.598.397-1.598 1.353v3.43c0 .944.385 1.353 1.598 1.353a14 14 0 0 0 2.275-.234l.198 1.458c-.826.195-1.671.293-2.52.292-2.333 0-3.301-.945-3.301-2.59zm9.542 6.626c-2.333 0-2.951-1.237-2.951-2.566v-1.68c0-1.342.63-2.566 2.951-2.566s2.951 1.236 2.951 2.566V6.73c0 1.341-.63 2.6-2.951 2.6m0-5.401c-.91 0-1.26.385-1.26 1.166v1.75c0 .735.35 1.167 1.26 1.167s1.26-.385 1.26-1.167v-1.82c-.012-.734-.362-1.12-1.26-1.12zm7.745.105a13.5 13.5 0 0 0-1.796.945v4.2h-1.703V2.647h1.435l.116.723a7.7 7.7 0 0 1 1.785-.851zm6.801 2.963a2.02 2.02 0 0 1-.535 1.728 2.02 2.02 0 0 1-1.705.605 10 10 0 0 1-1.808-.187v2.636l-1.703.257v-9.33h1.353l.164.548a3.67 3.67 0 0 1 2.146-.688c1.365 0 2.088.782 2.088 2.263zm-4.059.735q.743.16 1.504.175c.619 0 .852-.28.852-.875V4.7c0-.537-.21-.828-.84-.828a2.46 2.46 0 0 0-1.516.595z"/></svg>