<svg xmlns="http://www.w3.org/2000/svg" width="424" height="377" fill="none" viewBox="0 0 424 377"><path fill="url(#a)" d="M242.25 110.35c5.6 0 11.2 2.1 15.4 6.4l12.6 12.6-12.6-12.6c-4.2-4.3-9.8-6.4-15.4-6.4"/><path fill="url(#b)" d="M119.05 125.55c14-14 36.8-14 50.8 0l10.6 10.6 32.9-32.9c15.9-15.9 41.9-15.9 57.8 0l12.6 12.6 31.6-31.6-68.9-68.9c-19.8-19.8-52.3-19.8-72.2 0l-142.1 142.3c-16.9 16.8-19.3 42.8-7.5 62.4l.4-.4z"/><path fill="url(#c)" d="M304.75 249.35c-14 14-36.8 14-50.8 0l-12.5-12.6-41.5 41.5c-15.9 15.9-41.9 15.9-57.8 0l-10.7-10.7-30.8 30.8 63.3 63.3c19.8 19.8 52.3 19.8 72.2 0l142.3-142.2c14.8-14.8 18.6-36.7 11.3-55l-4.6 4.6z"/><path fill="#fff" d="M186.45 264.75c-2.1 2.1-4.6 3.7-7.2 4.8s-5.4 1.6-8.2 1.6c-5.6 0-11.2-2.1-15.4-6.4l-10.7-10.7-12.3-12.3c-4.3-4.3-6.4-9.8-6.4-15.4 0-2.8.5-5.6 1.6-8.2s2.7-5.1 4.8-7.2l61.3-61.3 32.9-32.9c3.2-3.2 7.1-5.2 11.3-6 1.4-.3 2.8-.4 4.2-.4 5.6 0 11.2 2.1 15.4 6.4l12.6 12.6 13.5-13.5-12.6-12.6c-15.9-15.9-41.9-15.9-57.8 0l-33 32.9-61.3 61.3c-3 3-5.4 6.3-7.3 9.9-.6 1.2-1.2 2.4-1.7 3.6-4.5 11.1-3.9 23.7 1.7 34.4 1.9 3.6 4.3 6.9 7.3 9.9l12.3 12.3 10.7 10.7c15.9 15.9 41.9 15.9 57.8 0l41.5-41.5-13.5-13.5z"/><path fill="#2c256c" d="m385.05 169.05 4.6-4.6c-1.7-4.2-4-8.2-6.8-12 1 5.5 1.7 11 2.2 16.6"/><path fill="#5b2d82" d="m25.05 219.55-.4.4c.3.5.5 1 .8 1.4-.1-.5-.3-1.1-.4-1.8"/><path fill="url(#d)" d="m227.55 172.15 42.8-42.8-12.6-12.6c-4.3-4.3-9.8-6.4-15.4-6.4-1.4 0-2.8.1-4.2.4-4.1.8-8.1 2.8-11.3 6l-32.9 32.9 2.3 2.3c14 14 14 36.8 0 50.8l-51.4 51.4 10.7 10.7c4.3 4.3 9.8 6.4 15.4 6.4 2.8 0 5.6-.5 8.2-1.6s5.1-2.7 7.2-4.8l41.5-41.5-.4-.4c-13.9-14-13.9-36.8.1-50.8"/><path fill="url(#e)" d="m227.55 172.15 42.8-42.8-12.6-12.6c-4.3-4.3-9.8-6.4-15.4-6.4-1.4 0-2.8.1-4.2.4-4.1.8-8.1 2.8-11.3 6l-32.9 32.9 2.3 2.3c14 14 14 36.8 0 50.8l-51.4 51.4 10.7 10.7c4.3 4.3 9.8 6.4 15.4 6.4 2.8 0 5.6-.5 8.2-1.6s5.1-2.7 7.2-4.8l41.5-41.5-.4-.4c-13.9-14-13.9-36.8.1-50.8"/><path fill="#fff" d="M186.45 264.75c-2.1 2.1-4.6 3.7-7.2 4.8 2.6-1 5.1-2.6 7.2-4.8"/><path fill="url(#f)" d="M186.45 264.75c-2.1 2.1-4.6 3.7-7.2 4.8 2.6-1 5.1-2.6 7.2-4.8"/><path fill="#fff" d="m144.95 254.15 10.7 10.7c4.3 4.3 9.8 6.4 15.4 6.4-5.6 0-11.2-2.1-15.4-6.4z"/><path fill="url(#g)" d="m144.95 254.15 10.7 10.7c4.3 4.3 9.8 6.4 15.4 6.4-5.6 0-11.2-2.1-15.4-6.4z"/><path fill="#fff" d="M226.85 116.75c3.2-3.2 7.1-5.2 11.3-6-4.2.8-8.2 2.8-11.3 6"/><path fill="url(#h)" d="M226.85 116.75c3.2-3.2 7.1-5.2 11.3-6-4.2.8-8.2 2.8-11.3 6"/><path fill="#2c256c" d="M32.15 229.75c-2.6-2.6-4.8-5.4-6.7-8.3-.3-.5-.6-1-.8-1.4l-13.5 13.5c-14 14-14 36.8 0 50.8l26.3 26.4c11.3 11.3 28.3 13.5 41.8 6.6 3.2-1.7 6.3-3.8 9-6.6l8.4-8.4 3-3 1-1z"/><path fill="#5b2d82" d="M119.15 255.25c-3-3-5.4-6.3-7.3-9.9-5.6-10.7-6.2-23.3-1.7-34.4.5-1.2 1.1-2.4 1.7-3.6 1.9-3.6 4.3-6.9 7.3-9.9l61.3-61.3-10.6-10.6c-14-14-36.8-14-50.8 0l-94 94c.1.6.3 1.2.4 1.9 1.9 2.9 4.1 5.7 6.7 8.3l68.6 68.6 30.8-30.8z"/><path fill="#5b2d82" d="M110.15 210.95c-4.5 11.1-3.9 23.7 1.7 34.4-5.6-10.7-6.2-23.3-1.7-34.4m34.8 43.2 51.4-51.4c14-14 14-36.8 0-50.8l-2.3-2.3-61.3 61.3c-2.1 2.1-3.7 4.6-4.8 7.2s-1.6 5.4-1.6 8.2c0 5.6 2.1 11.2 6.4 15.4z"/><path fill="#5b2d82" d="M132.55 241.75c-4.3-4.3-6.4-9.8-6.4-15.4.1 5.6 2.2 11.2 6.4 15.4l12.3 12.3zm.1-30.8c-2.1 2.1-3.7 4.6-4.8 7.2 1-2.6 2.6-5.1 4.8-7.2"/><path fill="#2c256c" d="m270.35 129.35-42.8 42.8c-14 14-14 36.8 0 50.8l.4.4 52.7-52.7c3.2-3.2 5.2-7.1 6-11.3.3-1.4.4-2.8.4-4.2 0-5.6-2.1-11.2-6.4-15.4z"/><path fill="#2c256c" d="M280.65 170.55c3.2-3.2 5.2-7.1 6-11.3-.8 4.2-2.8 8.1-6 11.3"/><path fill="#623393" d="M280.65 139.75c4.3 4.3 6.4 9.8 6.4 15.4 0-5.6-2.1-11.2-6.4-15.4l-10.4-10.4zm13.5 44.3c4-4 7-8.6 9-13.5-2 4.9-5 9.5-9 13.5"/><path fill="#623393" d="M303.15 170.55c.5-1.2.9-2.5 1.3-3.7 4.1-13.9.7-29.6-10.3-40.5l-10.4-10.4-13.5 13.5 10.4 10.4c4.3 4.3 6.4 9.8 6.4 15.4 0 1.4-.1 2.8-.4 4.2-.8 4.1-2.8 8.1-6 11.3l-52.7 52.7 13.5 13.5 52.7-52.7c4-4.2 7-8.8 9-13.7m109.6-80.1-26.4-26.4c-13.2-13.2-34.1-14-48.2-2.3-.9.7-1.8 1.5-2.6 2.4l-17 17-3 3-.1.1 63 63c1.6 1.6 3.1 3.4 4.4 5.2 2.8 3.7 5.1 7.7 6.8 12l23.1-23.1c14-14.1 14-36.8 0-50.9"/><path fill="#2c256c" d="M294.15 126.25c11 11 14.4 26.6 10.3 40.5-.4 1.3-.8 2.5-1.3 3.7-2 4.9-5 9.5-9 13.5l-52.7 52.8 12.5 12.5c14 14 36.8 14 50.8 0l80.3-80.3c-.5-5.6-1.2-11.1-2.2-16.6-1.4-1.8-2.8-3.5-4.4-5.2l-63-63-31.6 31.6z"/><path fill="#2c256c" d="M294.15 126.25c11 11 14.4 26.6 10.3 40.5 4.1-13.9.7-29.5-10.3-40.5l-10.4-10.4z"/><defs><linearGradient id="a" x1="89.223" x2="303.602" y1="286.987" y2="72.6" gradientUnits="userSpaceOnUse"><stop stop-color="#623393"/><stop offset=".574" stop-color="#452b7c"/><stop offset="1" stop-color="#2c256c"/></linearGradient><linearGradient id="b" x1="48.519" x2="262.899" y1="246.285" y2="31.898" gradientUnits="userSpaceOnUse"><stop stop-color="#754fa0"/><stop offset=".181" stop-color="#6e4a99"/><stop offset=".457" stop-color="#5c3f8b"/><stop offset=".791" stop-color="#413079"/><stop offset="1" stop-color="#2c256c"/></linearGradient><linearGradient id="c" x1="150.386" x2="364.765" y1="348.148" y2="133.762" gradientUnits="userSpaceOnUse"><stop stop-color="#754fa0"/><stop offset=".181" stop-color="#6e4a99"/><stop offset=".457" stop-color="#5c3f8b"/><stop offset=".791" stop-color="#413079"/><stop offset="1" stop-color="#2c256c"/></linearGradient><linearGradient id="d" x1="99.859" x2="314.239" y1="297.623" y2="83.236" gradientUnits="userSpaceOnUse"><stop stop-color="#623393"/><stop offset=".574" stop-color="#452b7c"/><stop offset="1" stop-color="#2c256c"/></linearGradient><linearGradient id="e" x1="79.535" x2="336.997" y1="317.948" y2="60.477" gradientUnits="userSpaceOnUse"><stop stop-color="#754fa0"/><stop offset=".181" stop-color="#6e4a99"/><stop offset=".457" stop-color="#5c3f8b"/><stop offset=".791" stop-color="#413079"/><stop offset="1" stop-color="#2c256c"/></linearGradient><linearGradient id="f" x1="105.863" x2="363.326" y1="344.276" y2="86.805" gradientUnits="userSpaceOnUse"><stop stop-color="#623393"/><stop offset=".574" stop-color="#452b7c"/><stop offset="1" stop-color="#2c256c"/></linearGradient><linearGradient id="g" x1="91.152" x2="348.614" y1="329.565" y2="72.094" gradientUnits="userSpaceOnUse"><stop stop-color="#623393"/><stop offset=".574" stop-color="#452b7c"/><stop offset="1" stop-color="#2c256c"/></linearGradient><linearGradient id="h" x1="53.918" x2="311.38" y1="292.332" y2="34.861" gradientUnits="userSpaceOnUse"><stop stop-color="#623393"/><stop offset=".574" stop-color="#452b7c"/><stop offset="1" stop-color="#2c256c"/></linearGradient></defs></svg>