<svg xmlns="http://www.w3.org/2000/svg" width="276" height="70" fill="none" viewBox="0 0 276 70"><path fill="#632ca6" fill-rule="evenodd" d="M89.871 49.833H76.987V20.17H89.87c9.281 0 13.929 4.675 13.929 14.021q-.007 15.639-13.929 15.64m-7.38-4.775h6.546c6.167 0 9.247-3.62 9.247-10.87q0-9.256-9.247-9.256h-6.545zm27.077 4.777h-5.657l12.619-29.662h5.922l12.888 29.662h-5.922l-3.741-8.09h-9.519l1.891-4.77h6.174l-4.865-11.142zm22.661-29.663h22.551v4.769h-8.519v24.894h-5.505V24.939h-8.527zm25.383 29.663h-5.657l12.62-29.662h5.922l12.888 29.662h-5.929l-3.742-8.09h-9.518l1.891-4.77h6.174l-4.861-11.142zm42.312 0h-12.884V20.17h12.884q13.93.001 13.929 14.021.002 15.639-13.929 15.64m-7.376-4.775h6.546c6.163 0 9.253-3.62 9.253-10.87q-.001-9.256-9.253-9.256h-6.546zm25.036-10.013c0-10.06 4.978-15.086 14.927-15.086 9.798 0 14.69 5.026 14.69 15.086q0 15.002-14.69 15.003-14.262 0-14.927-15.003m14.927 10.221c5.981 0 8.975-3.448 8.975-10.352 0-6.793-2.994-10.194-8.975-10.194q-9.208.002-9.208 10.194 0 10.355 9.208 10.353m37.672-7.435v6.945q-1.907.496-3.411.496c-6.735 0-10.097-3.562-10.097-10.683q0-9.862 10.704-9.86 4.468.001 8.312 1.661v-4.981q-3.845-1.449-8.729-1.45-16.005-.002-16.006 14.63c0 10.301 5.243 15.458 15.733 15.458 3.607 0 6.605-.523 9.002-1.578v-15.52h-8.895l-1.86 4.879zM54.732 49.664l-5.812-3.831-4.847 8.096-5.636-1.647-4.965 7.576.255 2.384 26.985-4.971-1.567-16.86zm-25.166-7.266 4.33-.596c.7.314 1.188.434 2.03.648 1.308.341 2.82.668 5.063-.462.52-.258 1.61-1.254 2.047-1.819l17.738-3.217 1.809 21.9-30.389 5.477zm32.948-7.892-1.75.334L57.4.086.087 6.732 7.15 64.033l6.707-.975c-.534-.765-1.371-1.691-2.794-2.876-1.977-1.64-1.278-4.43-.11-6.191 1.54-2.973 9.487-6.756 9.036-11.51-.162-1.73-.437-3.98-2.043-5.523-.058.641.049 1.258.049 1.258s-.658-.84-.99-1.988c-.327-.44-.581-.579-.93-1.168-.247.679-.213 1.468-.213 1.468s-.537-1.275-.627-2.35c-.32.483-.4 1.396-.4 1.396s-.699-2.009-.54-3.09c-.32-.941-1.268-2.808-1-7.053 1.75 1.227 5.602.934 7.1-1.278.5-.733.841-2.732-.247-6.67-.7-2.525-2.429-6.287-3.104-7.716l-.08.058c.355 1.15 1.09 3.559 1.372 4.73.85 3.545 1.078 4.779.678 6.412-.34 1.419-1.154 2.35-3.22 3.39-2.068 1.043-4.81-1.496-4.986-1.633-2.008-1.599-3.562-4.21-3.734-5.478-.18-1.388.799-2.222 1.295-3.356-.706.204-1.495.562-1.495.562s.94-.975 2.101-1.816c.483-.316.762-.52 1.268-.94-.734-.01-1.33.007-1.33.007s1.223-.662 2.491-1.14c-.927-.042-1.815-.007-1.815-.007s2.728-1.22 4.881-2.116c1.482-.606 2.929-.427 3.742.748 1.068 1.54 2.187 2.377 4.564 2.897 1.461-.647 1.902-.978 3.735-1.478 1.612-1.774 2.88-2.005 2.88-2.005s-.627.576-.796 1.482c.916-.72 1.919-1.323 1.919-1.323s-.39.479-.751 1.24l.082.124c1.069-.64 2.322-1.144 2.322-1.144s-.358.455-.778 1.04c.806-.006 2.439.035 3.07.107 3.74.083 4.516-3.996 5.953-4.506 1.798-.64 2.6-1.03 5.663 1.978 2.629 2.584 4.682 7.203 3.662 8.24-.854.858-2.542-.334-4.41-2.666a10.1 10.1 0 0 1-2.084-4.544C42.946 7.066 41.8 6.16 41.8 6.16s.665 1.485.665 2.794c0 .716.09 3.39 1.236 4.888-.113.22-.165 1.085-.292 1.25-1.334-1.612-4.2-2.766-4.665-3.107 1.581 1.296 5.216 4.272 6.611 7.125 1.32 2.697.541 5.17 1.21 5.812.189.182 2.838 3.482 3.348 5.143.889 2.89.052 5.929-1.11 7.813l-3.248.507c-.475-.131-.796-.2-1.223-.445.234-.416.703-1.453.706-1.667l-.182-.32c-1.013 1.433-2.705 2.825-4.114 3.624-1.843 1.044-3.965.882-5.346.455-3.924-1.21-7.635-3.862-8.527-4.558 0 0-.027.554.141.682.989 1.116 3.256 3.135 5.447 4.54l-4.668.514 2.208 17.187c-.978.141-1.13.21-2.201.362-.944-3.335-2.75-5.516-4.723-6.784-1.74-1.12-4.141-1.37-6.443-.916l-.148.172c1.599-.165 3.487.066 5.423 1.292 1.901 1.203 3.434 4.31 4 6.18.723 2.391 1.222 4.948-.724 7.659-1.385 1.926-5.423 2.99-8.689.689.872 1.402 2.05 2.55 3.635 2.763 2.357.32 4.592-.09 6.129-1.667 1.312-1.35 2.012-4.176 1.826-7.149l2.077-.3.751 5.337 34.41-4.145zM41.578 20.009c-.096.22-.248.362-.02 1.075l.014.041.034.093.093.214c.41.833.858 1.622 1.605 2.025a6 6 0 0 1 .603-.065c.703-.031 1.147.08 1.43.234.024-.141.03-.344.014-.648-.055-1.057.21-2.856-1.823-3.803-.768-.355-1.843-.248-2.201.2a.7.7 0 0 1 .169.038c.547.186.182.372.082.596m5.698 9.87c-.265-.148-1.512-.09-2.387.014-1.667.196-3.47.775-3.865 1.081-.717.555-.393 1.523.137 1.92 1.489 1.109 2.791 1.856 4.166 1.674.844-.11 1.588-1.447 2.115-2.663.365-.834.365-1.733-.166-2.026m-14.768-8.561c.471-.448-2.343-1.033-4.527.455-1.61 1.099-1.66 3.455-.12 4.788.154.131.282.228.399.303a13 13 0 0 1 1.553-.616c1-.324 1.826-.493 2.509-.579.327-.365.706-1.006.61-2.167-.128-1.581-1.324-1.33-.424-2.184" clip-rule="evenodd"/></svg>