<svg xmlns="http://www.w3.org/2000/svg" width="965" height="155" fill="none" viewBox="0 0 965 155"><path fill="#000" d="M399.252 104.008v-39.6c0-1.033-.685-1.721-1.711-1.721h-13.006V47.19h13.006c1.026 0 1.711-.689 1.711-1.721V20.676h18.481v24.793c0 1.032.685 1.721 1.712 1.721h18.14v15.497h-18.14c-1.027 0-1.712.688-1.712 1.721v35.124c0 16.529 5.819 17.906 13.349 17.906 2.738 0 6.845-.344 9.241-.689v16.185c-3.08.344-8.214 1.033-14.033 1.033-7.188-.344-27.038-.344-27.038-29.959m502.431 9.642 15.06-7.92c3.422 7.92 9.924 13.086 17.454 13.086 5.819 0 12.322-2.411 12.322-9.642 0-4.821-3.08-7.576-10.268-9.986l-10.268-3.444c-14.374-4.477-21.562-12.74-21.562-24.449 0-14.807 12.322-25.826 29.092-25.826 13.348 0 24.642 7.23 30.118 18.595l-15.059 8.264c-3.422-7.232-8.898-11.363-15.401-11.363s-10.952 3.443-10.952 8.608c0 4.477 3.422 7.92 10.267 9.986l10.268 3.444C957.813 87.824 965 96.088 965 107.452c0 17.907-15.401 27.204-30.803 27.204-15.401-.344-27.723-8.265-32.514-21.006m-56.814-15.496c-.342.345-.684.69-.684 1.034v33.058H825.36V10h18.825v66.805c0 .689.342 1.377 1.026 1.377.685.344 1.369 0 1.712-.345l30.46-30.991h22.931L864.72 83.003q-1.027 1.033 0 2.066l38.674 47.177h-22.931l-29.776-37.19c-.343-.345-.685-.69-1.027-.69s-.684 0-1.027.345zm-28.75-39.6L804.14 69.918c-6.845-5.165-13.69-7.576-21.22-7.576-15.743 0-27.38 11.707-27.38 27.548s11.637 27.548 27.38 27.548c6.846 0 14.033-2.41 21.562-7.575l10.611 11.363c-15.402 11.364-23.616 13.43-34.226 13.43-12.663 0-23.958-4.477-32.173-12.742-7.871-7.919-12.32-19.627-12.32-32.024 0-25.826 18.824-44.766 44.835-44.766 8.557 0 21.22 1.377 34.91 13.43m-88.302-36.846c0 6.199-5.134 11.364-11.294 11.364s-11.295-5.165-11.295-11.364c0-6.198 5.134-11.363 11.295-11.363s11.294 5.165 11.294 11.363m-1.711 110.538h-18.824V47.19h18.824zm-59.894-37.19v37.534h-18.825V47.535h18.482v10.33c0 .689.343 1.378 1.027 1.722.685.344 1.369 0 1.711-.689 4.791-7.92 13.69-13.085 23.274-13.085 1.369 0 2.395 0 3.08.345V65.44c-1.027-.345-2.738-.345-4.449-.345-15.06-.343-24.3 11.364-24.3 29.96M565.246 89.89c0-15.496 11.637-27.548 26.696-27.548s26.696 12.052 26.696 27.548-11.637 27.548-26.696 27.548-26.696-12.052-26.696-27.548m1.711 32.369h.685c.342 0 1.026.345 1.368.689 6.503 7.576 16.087 11.708 27.039 11.708 23.273 0 41.071-19.628 41.071-44.766 0-12.396-4.107-23.416-11.98-32.025-7.529-8.264-18.139-12.741-29.434-12.741-10.609 0-20.535 4.477-27.038 12.396-.342.345-1.026.69-1.711.345-.684-.345-1.026-.688-1.026-1.377V10.345h-18.825V132.59h18.825v-8.609c0-1.033.342-1.377 1.026-1.722m-78.034-4.821c-14.717 0-26.696-12.052-26.696-27.548s11.637-27.548 26.696-27.548 26.696 12.052 26.696 27.548-11.979 27.548-26.696 27.548m44.151 14.808V47.19h-18.482v8.61c0 .689-.342 1.378-1.026 1.378-.685.343-1.369 0-1.712-.345-6.16-7.575-15.744-11.708-27.038-11.708-23.273 0-41.071 19.629-41.071 44.766 0 25.138 18.14 44.766 41.071 44.766 10.609 0 20.535-4.477 27.038-12.397.343-.688 1.027-.688 1.712-.345.684.345 1.026.69 1.026 1.379v9.297h18.482zm-202.615-14.808c-14.718 0-26.696-12.052-26.696-27.548s11.636-27.548 26.696-27.548c14.716 0 26.696 12.052 26.696 27.548s-11.98 27.548-26.696 27.548m44.151 14.808V47.19h-18.482v8.61c0 .689-.342 1.378-1.027 1.378-.684.343-1.369 0-1.711-.345-6.161-7.575-15.744-11.708-27.038-11.708-23.274 0-41.071 19.629-41.071 44.766 0 25.138 18.14 44.766 41.071 44.766 10.61 0 20.535-4.477 27.038-12.397.342-.688 1.027-.688 1.711-.345.685.345 1.027.69 1.027 1.379v9.297h18.482zm-144.09-14.808c-15.059 0-26.696-12.052-26.696-27.548s11.637-27.548 26.696-27.548c14.717 0 26.696 12.052 26.696 27.548s-11.979 27.548-26.696 27.548m44.151 14.808V10.344h-18.824v45.8c0 .688-.342 1.377-1.027 1.377-.684.344-1.369 0-1.711-.344-6.503-7.576-16.086-11.708-27.038-11.708-23.274 0-41.071 19.627-41.071 44.766 0 12.396 4.107 23.415 11.979 32.024 7.53 8.265 18.14 12.741 29.434 12.741 10.61 0 20.535-4.476 27.038-12.396.342-.345 1.027-.689 1.711-.345.685.345 1.027.689 1.027 1.378v8.953h18.482z"/><path fill="#ff3621" d="m134.526 63.811-63.633 36.217L3.203 61.44 0 63.164V91.19l70.893 40.529 63.633-36.217v14.875l-63.633 36.217-67.69-38.589L0 109.729v4.743L70.893 155 142 114.472V86.447l-3.203-1.725-67.904 38.588-63.42-36.217V72.434l63.42 36.002L142 67.906V40.314l-3.63-1.94-67.477 38.372L10.89 42.47 70.893 8.408l49.54 28.025 4.484-2.372v-3.449L70.893 0 0 40.313v4.312l70.893 40.528 63.633-36.217z"/></svg>