<svg xmlns="http://www.w3.org/2000/svg" width="255" height="54" fill="none" viewBox="0 0 255 54"><path fill="#0080ff" d="M27.48 53.533v-10.38c10.987 0 19.516-10.896 15.297-22.46-1.548-4.25-4.977-7.68-9.257-9.228-11.564-4.188-22.46 4.31-22.46 15.298H.71C.71 9.25 17.646-4.41 36.009 1.328c8.013 2.52 14.417 8.893 16.906 16.906 5.736 18.363-7.922 35.3-25.435 35.3"/><path fill="#0080ff" fill-rule="evenodd" d="M27.51 43.214H17.16v-10.35h10.35zm-10.35 7.921H9.24v-7.921h7.921zm-7.921-7.921H2.59v-6.648h6.65z" clip-rule="evenodd"/><path fill="#0080ff" d="M82.304 13.896c-2.36-1.662-5.363-2.467-8.796-2.467H66v23.866h7.562c3.433 0 6.436-.858 8.796-2.628 1.287-.911 2.306-2.199 3.057-3.808.697-1.608 1.072-3.54 1.072-5.63 0-2.092-.375-3.97-1.072-5.579-.751-1.608-1.77-2.896-3.11-3.754m-11.906 1.555h2.36c2.628 0 4.773.537 6.436 1.556 1.823 1.126 2.735 3.218 2.735 6.221 0 3.11-.912 5.31-2.736 6.49-1.555 1.019-3.7 1.555-6.382 1.555h-2.413zm21.291-4.344c-.751 0-1.341.269-1.877.751a2.47 2.47 0 0 0-.751 1.824c0 .75.268 1.34.75 1.877.483.482 1.127.75 1.878.75.697 0 1.34-.268 1.877-.75.483-.483.75-1.126.75-1.877s-.267-1.341-.75-1.824c-.536-.482-1.18-.75-1.877-.75m2.092 7.347h-4.237v16.84h4.236zm15.392 1.395c-1.287-1.127-2.682-1.824-4.237-1.824q-3.54 0-5.792 2.413c-1.502 1.555-2.306 3.594-2.306 6.06 0 2.36.75 4.399 2.252 6.008 1.502 1.555 3.486 2.36 5.792 2.36 1.609 0 3.057-.43 4.184-1.341v.375q0 2.091-1.127 3.218-1.125 1.126-3.057 1.126c-1.93 0-3.164-.75-4.666-2.789l-2.896 2.79.054.106c.643.859 1.555 1.717 2.842 2.521 1.234.805 2.843 1.234 4.72 1.234 2.521 0 4.559-.751 6.06-2.307q2.253-2.333 2.253-6.114V18.401h-4.183v1.448zm-1.126 9.975c-.751.858-1.717 1.233-2.897 1.233-1.233 0-2.145-.429-2.896-1.233-.75-.858-1.072-1.93-1.072-3.272 0-1.394.375-2.467 1.072-3.325s1.717-1.233 2.896-1.233c1.234 0 2.146.429 2.897 1.233.75.858 1.126 1.984 1.126 3.325s-.376 2.414-1.126 3.272m13.14-11.37h-4.237v16.84h4.237zm-2.092-7.348c-.751 0-1.341.269-1.877.751a2.46 2.46 0 0 0-.751 1.824c0 .75.268 1.34.751 1.877.482.482 1.126.75 1.877.75.697 0 1.341-.268 1.877-.75.483-.483.751-1.126.751-1.877s-.268-1.341-.751-1.824c-.536-.482-1.126-.75-1.877-.75m11.37 2.788h-4.183v4.559h-2.414v3.861h2.414v6.973q0 3.298 1.287 4.666c.858.911 2.413 1.34 4.559 1.34.697 0 1.394 0 2.038-.053h.214V31.38l-1.448.054c-1.019 0-1.663-.161-1.984-.537q-.483-.563-.483-2.252v-6.382h3.969V18.4h-3.969zm28.05-2.521h-4.237v23.92h4.237zm42.798 17.913c-.751.858-1.555 1.61-2.145 1.985s-1.341.59-2.199.59c-1.234 0-2.253-.43-3.057-1.395-.805-.911-1.234-2.145-1.234-3.54 0-1.448.429-2.627 1.234-3.54.804-.91 1.823-1.394 3.057-1.394 1.341 0 2.789.859 4.022 2.307l2.789-2.682c-1.823-2.36-4.13-3.486-6.918-3.486-2.307 0-4.345.858-6.007 2.52-1.663 1.663-2.467 3.755-2.467 6.276s.858 4.612 2.467 6.275c1.662 1.662 3.647 2.52 6.007 2.52 3.057 0 5.524-1.34 7.24-3.754zm17.431-8.473c-.59-.858-1.395-1.502-2.414-1.985-1.019-.482-2.199-.75-3.486-.75-2.36 0-4.291.858-5.739 2.574-1.394 1.716-2.145 3.808-2.145 6.329 0 2.574.805 4.666 2.306 6.275q2.334 2.412 6.114 2.413c2.843 0 5.203-1.18 6.973-3.432l.107-.108-2.789-2.681c-.268.321-.644.643-.965.965-.429.375-.805.697-1.234.912-.644.321-1.341.482-2.145.482-1.18 0-2.146-.321-2.896-1.019-.698-.643-1.127-1.501-1.234-2.574h11.209l.054-1.555c0-1.073-.161-2.146-.429-3.11a9.1 9.1 0 0 0-1.287-2.736m-9.279 3.969c.215-.805.59-1.502 1.127-1.985.589-.59 1.34-.858 2.198-.858 1.019 0 1.824.268 2.36.858.483.537.805 1.18.858 1.985zm25.529-5.042c-1.287-1.073-3.057-1.662-5.256-1.662a8.76 8.76 0 0 0-3.915.911c-1.126.537-2.199 1.502-2.896 2.682l.054.054 2.735 2.574c1.126-1.77 2.36-2.413 4.022-2.413.912 0 1.609.214 2.199.697.536.482.858 1.072.858 1.823v.805c-1.072-.322-2.091-.483-3.11-.483-2.092 0-3.808.483-5.096 1.448-1.287.965-1.93 2.413-1.93 4.237 0 1.609.536 2.843 1.662 3.808 1.127.912 2.467 1.394 4.076 1.394s3.111-.643 4.505-1.77v1.395h4.184V24.408c-.161-1.984-.805-3.593-2.092-4.666m-7.508 9.118c.482-.322 1.18-.483 2.038-.483 1.019 0 2.091.215 3.218.59v1.663c-.912.858-2.146 1.287-3.647 1.287-.751 0-1.288-.161-1.717-.483-.375-.322-.59-.697-.59-1.233 0-.59.215-1.02.698-1.341m25.743-8.796c-1.18-1.34-2.842-1.984-4.934-1.984-1.663 0-3.057.482-4.076 1.448v-1.02h-4.13v16.787h4.237v-9.278c0-1.287.322-2.306.912-3.003s1.394-1.073 2.521-1.073c.965 0 1.662.322 2.199.966s.804 1.555.804 2.628v9.76H255v-9.76c0-2.307-.59-4.184-1.77-5.471m-104.261-.322c-1.287-1.073-3.057-1.662-5.256-1.662a8.76 8.76 0 0 0-3.915.911c-1.126.537-2.199 1.502-2.896 2.682l.053.054 2.736 2.574c1.126-1.77 2.359-2.413 4.022-2.413.912 0 1.609.214 2.199.697.536.482.858 1.072.858 1.823v.805c-1.073-.322-2.092-.483-3.111-.483-2.091 0-3.807.483-5.095 1.448s-1.93 2.413-1.93 4.237c0 1.609.536 2.843 1.662 3.808 1.126.912 2.467 1.394 4.076 1.394s3.111-.643 4.505-1.77v1.395h4.184V24.408c-.161-1.984-.805-3.593-2.092-4.666m-7.508 9.118c.482-.322 1.179-.483 2.038-.483 1.019 0 2.091.215 3.217.59v1.663c-.911.858-2.145 1.287-3.647 1.287-.75 0-1.287-.161-1.716-.483-.375-.322-.59-.697-.59-1.233 0-.59.215-1.02.698-1.341m32.447 6.81c-6.811 0-12.335-5.523-12.335-12.335 0-6.81 5.524-12.335 12.335-12.335s12.335 5.524 12.335 12.335-5.524 12.336-12.335 12.336m0-20.326c-4.398 0-7.991 3.594-7.991 7.991s3.593 7.992 7.991 7.992 7.991-3.594 7.991-7.992-3.593-7.99-7.991-7.99"/></svg>