<svg xmlns="http://www.w3.org/2000/svg" width="320" height="70" fill="none" viewBox="0 0 320 70"><path fill="#1a5ec6" fill-rule="evenodd" d="M32.572 2.1c-1.51 0-3.02.08-4.45.398v14.809c-2.065-.796-4.448-1.195-7.626-1.195C9.216 16.112 0 23.835 0 36.255 0 48.994 8.421 56 20.814 56c6.117 0 12.393-1.672 16.286-3.742V2.498c-1.51-.318-3.098-.398-4.528-.398M21.266 48.99c-6.8 0-11.466-4.704-11.466-12.245 0-7.46 4.982-12.245 11.625-12.245 2.688 0 5.14.324 7.275 1.703v21.57c-2.372.892-4.824 1.298-7.433 1.217M65.73 16.1c-8.147 0-14.776 3.18-18.13 5.964v32.838c1.517.319 3.035.398 4.472.398 1.518 0 3.115-.08 4.553-.398V26.437c1.757-1.034 4.872-2.068 8.386-2.068 5.83 0 9.184 2.624 9.184 9.542v20.991c1.598.319 3.035.398 4.553.398 1.437 0 3.035-.08 4.552-.398V31.764c0-8.667-5.351-15.664-17.57-15.664M106.7 56c10.412 0 16.5-4.76 16.5-12.612 0-7.457-6.007-10.233-14.258-11.502-6.488-1.032-8.17-2.222-8.17-4.68 0-2.38 2.083-3.887 6.889-3.887 4.565 0 8.49 1.348 11.134 2.855 1.842-1.428 3.043-3.649 3.444-6.425-2.483-1.745-7.369-3.649-14.258-3.649-9.612 0-15.94 4.76-15.94 11.74 0 7.932 6.408 10.391 13.137 11.423 6.808 1.03 8.971 2.459 8.971 4.997s-1.923 4.522-7.289 4.522c-6.008 0-9.372-2.063-11.695-3.729-1.922 1.19-3.444 3.332-4.165 6.188C93.163 53.065 98.209 56 106.7 56m28.832-44.1c3.178 0 5.868-2.644 5.868-5.95S138.71 0 135.532 0c-3.342 0-6.032 2.644-6.032 5.95s2.69 5.95 6.032 5.95m-.042 43.4c1.53 0 3.06-.08 4.51-.399V17.2c-1.45-.32-3.06-.399-4.51-.399-1.53 0-3.06.08-4.59.399v37.7c1.53.32 3.141.399 4.59.399m58.506-39.2c-5.165 0-9.845 1.988-12.992 4.373-2.825-2.703-7.021-4.373-12.509-4.373-7.989 0-14.929 3.34-17.995 5.964v32.838c1.533.319 3.066.398 4.519.398 1.533 0 3.147-.08 4.6-.398V26.437c2.017-1.193 4.842-2.068 7.827-2.068 6.214 0 8.554 3.896 8.554 9.303v21.23c1.534.319 3.067.398 4.681.398 1.452 0 3.066-.08 4.519-.398V30.97c0-1.193-.162-2.385-.404-3.499 1.856-1.51 4.439-3.1 8.151-3.1 6.213 0 8.634 3.895 8.634 9.302v21.23c1.453.319 2.986.398 4.6.398 1.453 0 3.066-.08 4.519-.398V30.97c0-8.19-5.649-14.869-16.704-14.869m43.303 0c-7.166 0-13.137 2.787-16.799 5.812v47.69c1.592.318 3.025.398 4.538.398s3.025-.08 4.458-.398v-14.65c2.389.797 4.936 1.115 8.121 1.115 10.509 0 19.983-7.404 19.983-20.143 0-13.057-8.757-19.824-20.301-19.824m-1.666 32.2c-2.925 0-5.298-.48-7.433-1.523V26.343c2.293-1.282 4.745-1.843 7.354-1.843 6.88 0 11.546 4.407 11.546 11.7 0 7.532-4.666 12.1-11.467 12.1m34.567 7c1.633 0 3.353-.08 4.9-.4V2.5c-1.633-.32-3.353-.4-4.986-.4s-3.267.08-4.814.4v52.4c1.719.32 3.353.4 4.9.4m49-22.19c0-10.095-7.2-17.01-17.36-17.01-10.8 0-19.04 8.425-19.04 20.109 0 12.32 8.16 19.791 19.52 19.791 7.6 0 12.56-2.782 15.76-5.325-.32-2.305-1.92-4.849-3.92-6.12-2.48 1.748-5.68 3.894-11.2 3.894-6.32 0-10.16-3.815-10.88-10.014h26.8c.24-2.067.32-3.339.32-5.326m-27.3-.21c.641-5.189 4.089-9.1 9.701-9.1 6.174.08 8.499 4.63 8.499 9.1z" clip-rule="evenodd"/></svg>