<svg xmlns="http://www.w3.org/2000/svg" width="492" height="127" fill="none" viewBox="0 0 492 127"><path fill="#28a8f1" d="M491.99 67.37c-2.8 3.34-3.69 3.47-8 2.27-12.73-3.59-21.9 5.82-21.56 15.5.22 6.25 0 12.52 0 18.78v2c-.28 3.05-2.38 5.12-5.11 5.09s-4.68-2-5-5c-.06-.61 0-1.22 0-1.84V66a15.3 15.3 0 0 1 .3-3.24 4.88 4.88 0 0 1 9.36-.79c.59 2 1.25 1.87 2.79.89 6.44-4.12 13.45-5 20.82-3.28a9.9 9.9 0 0 1 6.4 4.06zM97.85 0c.71 1.41.43 2.93.45 4.41v9.57c0 1.85-.67 2.78-2.61 2.77H82.42c-1.24 0-2.54-.22-2.54-1.72 0-5-.55-10 .35-15zM64.32 59.59h56.89a35.5 35.5 0 0 0 11.41-2.07c1.42-.48 2-1 1.16-2.64-5.17-10.5-2.77-20.19 3.35-29.46.78-1.17 1.48-1 2.53-.39a27.1 27.1 0 0 1 13.2 17.17c.45 1.74 1.15 2.16 2.78 1.9a32.5 32.5 0 0 1 14 .85 18.4 18.4 0 0 1 5.53 2.57 2.57 2.57 0 0 1 1.1 3.6 23.45 23.45 0 0 1-11.89 12.39 24 24 0 0 1-11.86 2.66c-2.11-.1-3.14.67-3.93 2.63a103.6 103.6 0 0 1-15.47 27 78.2 78.2 0 0 1-35.24 24.61c-14.9 5.29-30.28 6.65-46 5.43a81.3 81.3 0 0 1-22.53-4.76c-10.56-4-17.63-11.6-22.34-21.57a76.94 76.94 0 0 1-7-33.27c0-4.52 2.09-6.65 6.61-6.65zm162.03 4.69V41.64a4.63 4.63 0 0 1 3.27-4.68 5 5 0 0 1 5.58 1.47 4.48 4.48 0 0 1 1 3c0 15.38.15 30.75-.09 46.13-.16 10.39-9.31 20.39-20.24 22.84a26.1 26.1 0 0 1-31.563-20.872 26.095 26.095 0 0 1 12.501-27.079 26.1 26.1 0 0 1 9.952-3.379 25.82 25.82 0 0 1 17.91 4.16c.44.28.84.52 1.68 1.05m-16.27 4.69a15.66 15.66 0 0 0-16.06 15.95 16.18 16.18 0 0 0 16 16.27 16.37 16.37 0 0 0 16.36-16.18 15.87 15.87 0 0 0-10.055-14.943 15.9 15.9 0 0 0-6.245-1.097m214.84 20.91h-16.77c-2.54 0-2.64.18-1.46 2.5a16.3 16.3 0 0 0 10.78 8.378 16.28 16.28 0 0 0 13.37-2.768c.55-.41 1.07-.85 1.62-1.25 2.32-1.68 5-1.56 6.69.27a5.16 5.16 0 0 1 0 6.91 19.8 19.8 0 0 1-6.44 4.62 26.424 26.424 0 0 1-32.25-7.48 26.2 26.2 0 0 1-5.392-15.291A26.19 26.19 0 0 1 428.82 60.06a26.23 26.23 0 0 1 18.53 22.65c.19 2 .3 4.13-1.31 5.77a5.42 5.42 0 0 1-4.12 1.45c-5.71-.07-11.34-.05-17-.05m-3.85-9.86h13.49c1.95 0 2.13-.34 1.27-2.14a16.8 16.8 0 0 0-4.07-5.06c-7.51-6.77-20.53-4.34-25.05 4.67-1.12 2.25-1 2.53 1.48 2.54zm-72.39-6.22V42.38c0-3.7 1.75-5.7 4.89-5.67s5 2.14 5 5.67v32.64c0 .65-.33 1.54.31 1.9s1.22-.41 1.76-.76A8255 8255 0 0 0 385.9 59.9c1.78-1.15 3.67-1.52 5.56-.26a5 5 0 0 1 2.3 5.09 5.09 5.09 0 0 1-2.7 3.63c-5.49 3.55-10.95 7.15-16.49 10.63-1.58 1-1.67 1.69-.42 3.08 6.06 6.71 12.06 13.52 18.06 20.27 2.11 2.38 2.1 5.6 0 7.47s-5 1.68-7.24-.75c-6.4-7.05-12.78-14.13-19.05-21.3-1.31-1.51-2.14-1.81-4-.7-2.6 1.54-3.64 3.37-3.44 6.41.27 4.13.08 8.29.05 12.44a5 5 0 0 1-3 4.7 4.72 4.72 0 0 1-5-.67c-1.53-1.12-1.86-2.73-1.86-4.51q.03-15.84.01-31.63m-55.13 11.37a25.99 25.99 0 0 1-16.247 24.003 26 26 0 0 1-10.003 1.897 26.13 26.13 0 0 1 .2-52.26c14.6.08 26.55 12.18 26.05 26.36m-42.24-.14a16.193 16.193 0 0 0 16.07 16.16 16.39 16.39 0 0 0 16.26-16.08 16.17 16.17 0 0 0-10.137-15.114 16.2 16.2 0 0 0-6.293-1.166 16 16 0 0 0-15.9 16.2M298.3 85c.21-10.33 4.86-18.2 13.94-23 9.24-4.92 18.51-4.21 27.29 1.59a14.2 14.2 0 0 1 2.46 2.13 4.65 4.65 0 0 1 .45 6.15 4.78 4.78 0 0 1-6.18 1.56 28 28 0 0 1-2.54-1.69c-5.76-3.74-11.75-3.92-17.58-.51s-8.57 8.95-7.72 15.7c.87 6.91 4.91 11.52 11.64 13.56 5 1.53 9.7.51 14-2.43.45-.31.86-.68 1.32-1a4.891 4.891 0 0 1 6.16 7.59 24.13 24.13 0 0 1-19.23 6.32 26.08 26.08 0 0 1-23.74-22.27c-.2-1.2-.19-2.43-.27-3.7M67.5 36.41h-7.15a1.88 1.88 0 0 1-2.17-2.1V22.07a2.16 2.16 0 0 1 2.41-2.41H74.5a2.22 2.22 0 0 1 2.42 2.44v12c0 1.63-.89 2.3-2.47 2.28-2.31 0-4.63.03-6.95.03"/><path fill="#28a8f1" d="M24.33 56.39c-2.32 0-4.64-.05-7 0a2.17 2.17 0 0 1-2.55-2.44V42.11a2.24 2.24 0 0 1 2.56-2.52h13.87a2 2 0 0 1 2.29 2.28v12.24a2 2 0 0 1-2.28 2.25h-6.95zm43.01 0H60.8c-1.79 0-2.66-.72-2.65-2.54V42.22c0-1.88.9-2.68 2.79-2.65 4.29.06 8.59 0 12.88 0 2.48 0 3.07.58 3.09 3v10.82c0 2.48-.55 3-3 3zm43.41 0H104c-1.73 0-2.48-.8-2.47-2.48V42.07c0-1.71.8-2.48 2.5-2.47h13.51c1.83 0 2.53.83 2.5 2.64q-.11 5.81 0 11.63c0 1.83-.68 2.61-2.54 2.55-2.24-.09-4.5-.03-6.75-.03M45.66 36.41h-7c-1.5 0-2.3-.57-2.29-2.15V22.02a1.998 1.998 0 0 1 2.21-2.34q7-.06 14.11 0c1.47 0 2.19.84 2.18 2.36v12.24c0 1.44-.64 2.13-2.1 2.12-2.33-.01-4.72.01-7.11.01m43.47 0h-6.95c-1.61 0-2.39-.61-2.37-2.28v-12a2.12 2.12 0 0 1 2.34-2.44h13.9c1.58 0 2.29.9 2.27 2.5q-.06 6 0 12c0 1.56-.68 2.23-2.22 2.21-2.33-.02-4.65.01-6.97.01M45.71 56.39h-6.75c-1.68 0-2.55-.68-2.54-2.41v-12c0-1.63.84-2.34 2.41-2.34h13.7a2.07 2.07 0 0 1 2.38 2.37v12.24c0 1.56-.74 2.2-2.26 2.17-2.31-.06-4.62-.03-6.94-.03m43.41 0h-6.75c-1.67 0-2.56-.66-2.55-2.4v-12c0-1.62.8-2.36 2.39-2.36h13.71a2.08 2.08 0 0 1 2.39 2.36v12.24c0 1.55-.71 2.22-2.24 2.19-2.32-.06-4.63-.04-6.95-.03m388.45 50.81a3.6 3.6 0 0 1-3.32 3.46 3.497 3.497 0 0 1-3.73-3.24 3.53 3.53 0 0 1 3.42-3.486 3.527 3.527 0 0 1 3.63 3.266m-3.45-.69c-.06 0-.13-.09-.17-.07s-.06.1-.08.16.12.08.16.07.06-.08.09-.16"/></svg>