<svg xmlns="http://www.w3.org/2000/svg" width="60" height="60" fill="none" viewBox="0 0 60 60"><path fill="url(#a)" d="M60 0H0v60h60z"/><path fill="#fff" d="M30 51.608a.8.8 0 0 1-.4-.104L11.2 40.88a.8.8 0 0 1-.4-.695v-21.25a.8.8 0 0 1 .4-.695L28 8.496a.801.801 0 0 1 1.2.696v9.207a.8.8 0 0 1-.4.696l-8.4 4.903v11.096l9.6 5.544 8.38-4.8a.8.8 0 0 1 .799 0l8 4.617a.798.798 0 0 1 0 1.391l-16.78 9.657a.8.8 0 0 1-.399.105M12.398 39.72l17.6 10.167 15.2-8.8-6.4-3.695-8.4 4.871a.8.8 0 0 1-.8 0l-10.4-6.007a.8.8 0 0 1-.4-.696v-12a.8.8 0 0 1 .4-.696l8.4-4.888v-7.4l-15.2 8.8z"/><path fill="#fff" d="M48.398 39.144a.8.8 0 0 1-.4-.104l-8-4.6a.69.69 0 0 1-.36-.696V24l-8.44-4.8a.8.8 0 0 1-.4-.696V9.28a.8.8 0 0 1 .4-.696.85.85 0 0 1 .8 0l16.8 9.656a.8.8 0 0 1 .4.696v19.408a.8.8 0 0 1-.8.8m-7.2-5.856 6.4 3.664v-17.55l-15.2-8.735v7.383l8.4 4.8a.8.8 0 0 1 .4.689z"/><path fill="#fff" d="M26 35.593v-12h1.605v5.464l5.2-5.464h2.112l-5.43 5.844 5.898 6.16H33.2l-5.595-5.605v5.601z"/><defs><linearGradient id="a" x1="-12.424" x2="72.424" y1="72.424" y2="-12.424" gradientUnits="userSpaceOnUse"><stop stop-color="#c8511b"/><stop offset="1" stop-color="#f90"/></linearGradient></defs></svg>