<svg xmlns="http://www.w3.org/2000/svg" width="251" height="25" viewBox="0 0 190 20"><path d="M45.871 10.46h3.732v-.987h-3.732v-2.17h5.564v-.988h-6.717v7.566h6.92v-.987h-5.767zm29.586.395c.068 1.184-.814 2.171-2.036 2.237h-.271c-1.154.066-2.104-.855-2.172-1.974V6.381h-1.085v4.54c-.068 1.645 1.221 3.092 2.985 3.158h.272c2.578 0 3.393-1.71 3.393-3.158V6.38h-1.086zm8.482-4.539h-1.086v7.5h1.086zm13.3 5.921-5.496-5.921h-1.086v7.566h1.086V7.96l5.496 5.92h1.086V6.317h-1.086zm8.961-5.921h-1.085v7.5h1.085zm10.85 3.487 3.257-3.487h-1.425l-2.511 2.763-2.511-2.763h-1.493l3.122 3.487-3.868 4.079h1.425l3.189-3.356 3.054 3.356h1.561zm-56.929-3.75c-2.24 0-4.071 1.776-4.071 3.947v.132c-.068 2.17 1.696 3.947 3.868 4.013h.27q.917 0 1.833-.395l.61.724h1.29l-1.086-1.316c.95-.79 1.561-1.908 1.493-3.158.068-2.171-1.696-3.947-3.936-4.013-.067.066-.135.066-.271.066m2.986 4.079c.068.92-.34 1.776-1.018 2.368l-.61-.658h-1.29l1.086 1.184c-.34.132-.747.198-1.086.198-1.629 0-2.986-1.316-2.986-2.895v-.132c-.136-1.579 1.086-2.96 2.714-3.092h.136c1.697 0 2.986 1.316 2.986 2.96.068-.065.068 0 .068.067"/><path fill="#ed1c24" d="M29.518 4.671v8.882l-2.104.723V3.947l-6.31-2.17v14.67L19 17.171V1.053L15.81 0l-3.188 1.053v16.118l-2.104-.724V1.777l-6.31 2.17v10.33l-2.104-.724V4.67L0 5.329v9.737l6.31 2.105V5.395l2.104-.724v13.224l6.311 2.106V2.5l1.086-.33 1.085.33V20l6.311-2.106V4.671l2.104.724v11.776l6.31-2.105V5.329zm6.107 9.671c1.018 0 1.9-.855 1.9-1.842s-.882-1.842-1.9-1.842-1.9.855-1.9 1.842c0 1.053.882 1.842 1.9 1.842m0-.197c-.95 0-1.696-.724-1.696-1.645s.746-1.645 1.696-1.645 1.696.724 1.696 1.645c.068.921-.678 1.645-1.696 1.645q.102 0 0 0m-.746-.724h.475v-.592h.271l.407.592h.61l-.474-.658c.271-.066.475-.329.407-.592 0-.46-.34-.658-.814-.658h-.95zm.475-.987v-.526h.407c.203 0 .339.066.339.263s-.136.263-.34.263z"/><path fill="#707073" d="M134.36 0h-.339v20h.339zm12.89 6.382h1.493l2.511 3.552 2.442-3.552h1.493v7.5h-1.425v-5.33l-2.578 3.553h-.068l-2.511-3.487v5.33h-1.357zm10.86 0h6.039v1.184h-4.546v1.973h4.071v1.185h-4.071v1.973h4.614v1.185h-6.107zm10.85 1.25h-2.578v-1.25h6.582v1.25h-2.579v6.25h-1.425zm8.08-1.316h1.357l3.529 7.5h-1.493l-.814-1.777h-3.868l-.814 1.777h-1.425zm2.036 4.605-1.425-2.96-1.357 2.96zm5.224-4.539h1.425v6.25H190v1.184h-5.7z"/></svg>