<svg xmlns="http://www.w3.org/2000/svg" width="66" height="16" fill="none" viewBox="0 0 66 16"><g fill="#5ab552"><path d="m12.66 5.23.876-2.324a7.5 7.5 0 0 0-1.295-1.265A7.5 7.5 0 0 0 9.68.358 9.4 9.4 0 0 0 7.363.006a14 14 0 0 0-1.632.046l1.812 2.064-.839 2.154q.322-.013.659.02a5.2 5.2 0 0 1 2.888 1.225z"/><path d="M4.406 1.829q-.465.194-.892.444l1.155.447.127 1.16.13-.08a6 6 0 0 1 1.913-.739l.343-.881-.752-.857a7 7 0 0 0-2.024.506"/><path d="m4.38 2.941-1.194-.462a7 7 0 0 0-1.111.917A6.9 6.9 0 0 0 .699 5.369l1.37-.289.833 1.018q.045-.1.092-.197a4.9 4.9 0 0 1 1.511-1.822zm6.664 7.576a4 4 0 0 0 .318-.66l1.293 1.566 2.17-.468a8 8 0 0 1-.442 1.005 7.5 7.5 0 0 1-1.765 2.24 7 7 0 0 1-2.515 1.406l-.055.017-1.608-1.36.421-1.85.032-.014a4.5 4.5 0 0 0 2.151-1.883"/><path d="M14.135 3.77a8 8 0 0 0-.375-.57l-.874 2.32-2.341.277q.744.786.972 1.901a3.9 3.9 0 0 1-.041 1.806l1.299 1.572 2.166-.466q.204-.651.301-1.335a8.4 8.4 0 0 0-.08-2.835 8.4 8.4 0 0 0-1.027-2.67M.548 5.719l1.4-.295.824 1.006a4.54 4.54 0 0 0-.19 2.254q.053.333.146.646L1.25 8.993.189 10.248A7.5 7.5 0 0 1 0 8.544 7.6 7.6 0 0 1 .548 5.72"/><path d="M3.782 11.221a5 5 0 0 1-.938-1.544L1.367 9.34.284 10.617q.108.38.256.75a7.3 7.3 0 0 0 1.564 2.405q.609.624 1.334 1.078l-.08-1.91 1.467-.84a4.5 4.5 0 0 1-1.043-.879"/><path d="M5.145 12.277q.473.234 1.012.359 1.208.28 2.354-.094l-.418 1.838 1.593 1.347a8.4 8.4 0 0 1-2.442.267 7.7 7.7 0 0 1-3.487-.955l-.079-1.923z"/></g><g fill="#435261"><path fill-rule="evenodd" d="M54.882 6.78c0 1.659-.545 3.746-1.577 4.778-.487.487-1.043.742-1.728.742-1.692 0-1.936-1.693-1.936-2.551 0-1.588.545-3.676 1.623-4.73.464-.453 1.032-.72 1.716-.72 1.693 0 1.902 1.554 1.902 2.482m-2.62-.962c-.72.73-1.125 2.91-1.125 4.07 0 .44.058 1.136.66 1.136a.66.66 0 0 0 .476-.232c.777-.765 1.113-3.28 1.113-4.127 0-.499-.07-1.09-.603-1.09q-.279 0-.521.243" clip-rule="evenodd"/><path d="M41.896 10.723c.255.15.66.266 1.078.266.66.023 1.124-.382 1.124-.997 0-.521-.29-.823-.776-1.31-.615-.58-.928-1.205-.928-1.89 0-1.449 1.02-2.47 2.55-2.47.603 0 .986.128 1.172.244l-.395 1.252a1.66 1.66 0 0 0-.846-.208c-.614 0-1.032.394-1.043.997 0 .37.15.66.777 1.217.637.568.939 1.252.939 1.879 0 1.623-1.079 2.574-2.563 2.574-.776 0-1.275-.175-1.46-.29zM21.542 8.752h-1.716l-.428 2.168h1.97l-.254 1.287h-3.41l1.497-7.815h3.269l-.255 1.276h-1.797l-.383 1.855h1.75zm1.295 3.455-.243-7.815h1.611l-.104 3.954a57 57 0 0 1-.116 2.214h.023c.162-.603.43-1.518.673-2.214l1.402-3.954h1.6l-3.269 7.815zm5.769-3.455h1.716l.244-1.23h-1.751l.383-1.854h1.797l.255-1.276h-3.27l-1.496 7.815h3.41l.254-1.287h-1.97zm2.034 3.455 1.497-7.815h1.321l.603 3.108c.197 1.031.324 1.774.382 2.423h.024l.056-.476v-.004c.099-.837.229-1.945.43-3.022l.383-2.029h1.253l-1.496 7.815h-1.24l-.627-2.91a16 16 0 0 1-.394-2.597h-.023a64 64 0 0 1-.534 3.431l-.394 2.076zm5.957-6.447h1.357l-1.23 6.447h1.45l1.229-6.447h1.357l.266-1.368h-4.162zm9.565 0h1.357l-1.23 6.447h1.45l1.229-6.447h1.356l.267-1.368h-4.162z"/><path fill-rule="evenodd" d="M57.696 4.357a9.6 9.6 0 0 0-1.553.14l-1.473 7.71h1.415l.58-3.13h.243c.487 0 .684.312.684 1.263 0 .858.023 1.647.058 1.867h1.46c-.078-.28-.102-1.186-.124-2.03l-.003-.092c-.023-.87-.208-1.322-.638-1.519v-.023c.893-.301 1.589-1.217 1.589-2.365 0-.51-.186-.963-.51-1.287-.406-.406-1.055-.534-1.728-.534m-.463 3.595h-.337l.452-2.424c.093-.023.233-.034.383-.034.545 0 .719.44.719.858 0 .823-.487 1.6-1.217 1.6" clip-rule="evenodd"/><path d="M63.451 8.752h-1.715l-.43 2.168h1.971l-.255 1.287h-3.408l1.496-7.815h3.269l-.255 1.276h-1.797l-.383 1.855h1.75z"/><g fill-rule="evenodd" clip-rule="evenodd"><path d="M64.737 11.275v.665h.175v-.235h.036l.039.002a.2.2 0 0 1 .059.011.08.08 0 0 1 .049.049q.008.021.01.081.004.06.012.092h.166l-.006-.018-.005-.02-.001-.02v-.059q0-.102-.059-.15a.2.2 0 0 0-.094-.038.2.2 0 0 0 .115-.044q.047-.038.047-.121 0-.11-.089-.16a.3.3 0 0 0-.131-.034h-.137zm.217.117q.065 0 .1.014.055.021.055.076t-.035.079a.16.16 0 0 1-.095.024h-.067v-.193z"/><path d="M65 12.207a.58.58 0 0 0 .42-.17q.18-.175.18-.43 0-.25-.175-.425c-.175-.175-.26-.176-.425-.176a.6.6 0 0 0-.413.163.57.57 0 0 0-.187.438.58.58 0 0 0 .174.426.58.58 0 0 0 .426.174m-.496-.6a.48.48 0 0 1 .144-.348q.145-.15.352-.15.205 0 .35.15a.48.48 0 0 1 .145.347.5.5 0 0 1-.145.354.47.47 0 0 1-.35.146.48.48 0 0 1-.35-.145.48.48 0 0 1-.146-.355"/></g></g></svg>