<svg xmlns="http://www.w3.org/2000/svg" width="150" height="37" fill="none" viewBox="0 0 150 37"><g clip-path="url(#a)"><path fill="#da291c" d="M21.003.187.066 36.427h2.905L21.003 5.372v5.11L5.976 36.426h3.006l12.02-20.736v5.21l-9.014 15.527h3.005l6.011-10.317v5.109l-3.006 5.208h23.943z"/><path fill="#000" d="M42.66 17.667h9.451v2.019h-7.188v3.297h6.4v2.019h-6.4v3.396h7.286v2.02h-9.537zm23.976 0-4.43 6.203 4.628 6.499h-2.657l-3.346-4.874-3.348 4.874h-2.561l4.578-6.5-4.431-6.267h2.657l3.151 4.578 3.202-4.578h2.561zm2.02 6.4c0-3.643 2.757-6.597 6.694-6.597 3.89 0 6.646 2.954 6.646 6.548s-2.757 6.597-6.695 6.597c-3.89 0-6.646-2.954-6.646-6.548m10.978 0c0-2.51-1.822-4.529-4.333-4.529-2.51 0-4.283 2.02-4.283 4.48s1.821 4.529 4.332 4.529 4.284-2.02 4.284-4.48m5.12 4.48 1.33-1.624c1.23 1.035 2.461 1.676 4.036 1.676 1.38 0 2.265-.64 2.265-1.624v-.05c0-.885-.49-1.378-2.856-1.968-2.707-.64-4.234-1.477-4.234-3.79v-.05c0-2.18 1.821-3.678 4.332-3.678 1.87 0 3.348.54 4.628 1.624l-1.181 1.676c-1.13-.837-2.313-1.33-3.447-1.33-1.33 0-2.068.69-2.068 1.526v.049c0 .985.591 1.428 3.052 2.02 2.707.64 4.087 1.623 4.087 3.74v.05c0 2.362-1.87 3.79-4.529 3.79a8.12 8.12 0 0 1-5.415-2.02zm12.947-4.48c0-3.643 2.707-6.597 6.548-6.597 2.362 0 3.79.837 5.022 1.969l-1.428 1.676c-1.036-.936-2.117-1.575-3.594-1.575-2.412 0-4.183 1.969-4.183 4.48 0 2.51 1.771 4.528 4.183 4.528 1.575 0 2.561-.64 3.643-1.624l1.441 1.479c-1.329 1.378-2.806 2.264-5.169 2.264-3.678-.05-6.45-2.954-6.45-6.597zm19.544-6.499h2.068l5.613 12.8h-2.377l-1.281-3.051h-5.994l-1.33 3.052h-2.314zm3.202 7.766-2.216-5.07-2.18 5.07zm7.68-7.68h2.215v10.682h6.695v2.019h-8.91zm12.259 0h9.452v2.02h-7.188v3.296h6.401v2.02h-6.401v3.396h7.284v2.047h-9.537z"/></g><defs><clipPath id="a"><path fill="#fff" d="M0 0h150v36.508H0z"/></clipPath></defs></svg>