<svg xmlns="http://www.w3.org/2000/svg" width="71" height="71" fill="none" viewBox="0 0 71 71"><path fill="#e21d38" d="M35.644 70.263c19.251 0 34.858-15.67 34.858-35s-15.607-35-34.858-35c-19.252 0-34.858 15.67-34.858 35s15.606 35 34.858 35"/><path fill="#fff" d="M34.843 38.716c17.115 1.419 23.71 6.148 23.396 12.612-.314 3.469-3.612 6.78-7.851 7.095-5.025.315-7.38-1.734-8.793-3.942-1.256-2.05-2.67-4.099-4.083-6.306-.314-.63-.942-.158-1.413.158-1.1.946-2.041 2.05-2.983 2.995-.628.63-.471 1.104-.314 1.577.942 2.207 1.884 4.414 2.826 6.464 1.57.946 8.636 2.207 13.818 1.734 3.611-.315 8.008-1.734 11.776-4.414 3.611-2.838 6.28-6.622 6.752-12.77.157-3.784-.471-7.726-3.769-11.352s-8.95-6.622-20.412-7.41c.628-1.892 1.1-3.626 1.727-5.36 6.909.315 13.033.788 18.214 1.419.471-2.05.628-3.942 1.1-5.834l-1.414-1.734c-2.669-.315-5.181-.946-8.008-1.261a125 125 0 0 0-11.462-.946c-2.67 7.567-5.81 17.185-9.107 27.275M30.289 9.234c-1.256 0-2.983.315-5.81.946-6.123 1.734-13.66 5.99-14.445 13.085-.157 1.104-.157 2.365-.314 3.469-1.727.157-3.297.315-4.868.473-.157 1.418-.157 2.68-.314 4.099 1.57-.158 3.14-.158 4.868-.316-.314 7.41 0 14.82.628 21.757.157 1.104.157 2.05.157 2.68-.157.631-1.256.946-2.826.946l2.04 2.523c5.968 1.103 13.505 1.892 21.513 2.05V58.58c-4.711-.316-6.91-.947-7.223-1.892-.314-.789-.314-1.892-.471-2.996-.314-7.252-.471-15.135-.314-23.176 2.669 0 5.338 0 8.008-.157 1.413-.63 2.669-1.261 3.925-1.892v-2.68c-4.083 0-8.008.157-11.934.157q.237-4.965.472-9.46c.157-2.049 1.57-3.468 2.826-3.468 2.198-.157 4.24.789 6.28 1.735 1.1.473 2.199 1.103 3.298 1.576.471.158 1.1.316 1.57-.157.628-.789 1.256-1.577 1.884-2.208.315-.473.158-.788 0-.946-1.413-1.103-2.669-2.05-4.082-3.153-.785-.63-2.198-.63-3.454-.63-.471-.158-.943 0-1.414 0"/></svg>