<svg xmlns="http://www.w3.org/2000/svg" width="181" height="70" fill="none" viewBox="0 0 181 70"><path fill="#d52f2f" d="M123.018 7.184v47.164h14.166v-7.206h-4.681V0h-9.487zM0 47.141h4.815V24.387H0v-6.258l4.815-.792v-6.334C4.815 3.33 6.485 0 16.271 0c2.114 0 4.618.312 6.811.707l-1.3 7.713c-1.485-.235-2.221-.277-3.16-.277-3.448 0-4.32.344-4.32 3.712v5.482h7.157v7.05h-7.157V47.14h4.765v7.205L0 54.348zm118.192-2.278c-1.483.313-2.782.276-3.72.299-3.903.096-3.566-1.187-3.566-4.867V24.387h7.428v-7.05h-7.428V0h-9.487v42.263c0 8.297 2.048 12.084 10.972 12.084 2.114 0 5.018-.544 7.211-1.013zm-28.615-20.49v-1.262c-2.87-.523-5.72-.53-7.266-.53-4.415 0-4.953 2.34-4.953 3.61 0 1.795.613 2.766 5.395 3.812 6.991 1.57 14.013 3.207 14.013 11.876 0 8.22-4.232 12.468-13.137 12.468-5.96 0-11.743-1.28-16.155-2.4v-7.084h7.185l-.005 1.26c3.091.596 6.333.536 8.025.536 4.71 0 5.472-2.53 5.472-3.877 0-1.868-1.351-2.765-5.765-3.66-8.316-1.421-14.917-4.26-14.917-12.708 0-7.996 5.348-11.132 14.254-11.132 6.034 0 10.622.936 15.036 2.056v7.037zM41.52 44.844v-1.116h-1.137v1.113a10.036 10.036 0 0 1-9.43-9.488h1.13v-1.136h-1.124a10.035 10.035 0 0 1 9.424-9.411v1.118h1.137V24.8c4.993.267 9.016 4.185 9.45 9.132v.326h-1.138v1.136h1.139v.311a10.035 10.035 0 0 1-9.451 9.137m18.94.02-.006-29.52h-9.486v2.768a19.4 19.4 0 0 0-6.45-2.44h.053v-3.276h1.158V9.986h-9.552v2.41h1.157v3.275h.066c-9.073 1.67-15.949 9.615-15.949 19.172 0 10.77 8.731 19.5 19.5 19.5 3.54.005 7.016-.958 10.047-2.786l1.709 2.79h10.02v-9.483zm100.734-27.526h19.567v7.043h-4.678l-11.999 29.522C160.645 62.195 154.996 70 146.394 70c-2.116 0-4.932-.234-6.884-.704l.858-8.61c1.253.235 2.894.389 3.756.389 3.989 0 8.489-2.472 9.897-6.776L141.862 24.38h-4.678v-7.043h19.577v7.043h-4.676l6.888 16.947 6.887-16.947h-4.666zM45.931 30.601l-.723-.722-3.666 3.195a1.7 1.7 0 0 0-.59-.104c-.99 0-1.79.824-1.79 1.84s.8 1.842 1.79 1.842 1.792-.825 1.792-1.842q-.001-.29-.082-.554z"/></svg>