<svg xmlns="http://www.w3.org/2000/svg" width="510" height="255" fill="none" viewBox="0 0 510 255"><g clip-path="url(#a)"><path fill="#326ce5" d="M3.771 67.843a7.387 7.387 0 0 1 0-12.385L86.515 1.664a7.39 7.39 0 0 1 8.052 0l82.744 53.794a7.385 7.385 0 0 1 0 12.385l-82.744 53.794a7.39 7.39 0 0 1-8.052 0z"/><path fill="#c1d2f7" d="M103.606 77.337h5.74a4.355 4.355 0 0 0 3.771-6.532L94.313 38.234a4.355 4.355 0 0 0-7.543 0l-18.805 32.57a4.354 4.354 0 0 0 3.772 6.532h5.74a4.355 4.355 0 0 1 4.354 4.355v37.18l3.852 2.505a8.91 8.91 0 0 0 9.716 0l3.852-2.505v-37.18a4.356 4.356 0 0 1 4.355-4.355"/><path fill="#326ce5" d="m119.208 149.218-19.957-12.974v6.149a157 157 0 0 0 19.957 6.825m-19.957 4.229v8.632c6.595 2.013 13.267 3.666 19.872 5.294 21.568 5.316 41.939 10.338 58.322 26.721a74 74 0 0 1 2.386 2.529 7.396 7.396 0 0 0-2.521-9.631l-32.412-21.072c-7.866-2.598-15.884-4.582-23.806-6.534-7.468-1.841-14.776-3.679-21.84-5.939m-17.42-7.079a81 81 0 0 1-8.208-4.787l-7.412 4.818a90 90 0 0 0 15.62 9.155zm24.802 27.477q-3.717-.917-7.382-1.841v8.483q2.712.68 5.413 1.345c21.568 5.316 41.94 10.338 58.323 26.721l.081.085 7.007-4.555c-.428-.448-.829-.905-1.271-1.348-18.004-18.003-40.457-23.538-62.171-28.89m-24.802-6.893c-9.373-3.21-18.255-7.341-26.36-13.571l-7.257 4.718c10.32 8.512 21.808 13.676 33.617 17.504zm0 18.745c-16.133-4.228-31.304-9.389-44.266-20.674l-7.134 4.638c15.223 14.026 33.335 19.889 51.4 24.533zm17.42 12.863c16.877 4.356 32.747 9.567 46.189 21.538l7.094-4.612c-15.706-14.763-34.556-20.658-53.282-25.417zm-79.359-22.048-7.041 4.578c.247.254.472.516.725.769 18.004 18.004 40.457 23.539 62.17 28.891 18.804 4.635 36.696 9.051 51.83 20.962l7.216-4.691c-17.05-14.356-37.362-19.399-57.077-24.258-21.351-5.263-41.525-10.255-57.823-26.251M4.934 190.501c-.82-.82-1.59-1.657-2.354-2.496a7.37 7.37 0 0 0-1.07 9.046 7.4 7.4 0 0 0 2.263 2.328l24.364 15.84c10.783 4.465 22.062 7.257 33.15 9.99 17.314 4.267 33.852 8.359 48.179 18.277l7.37-4.792c-16.294-12.248-35.196-16.941-53.58-21.473-21.567-5.316-41.94-10.338-58.322-26.72m79.284 61.178a87 87 0 0 1 4.804 2.51 7.38 7.38 0 0 0 5.546-1.017l4.09-2.659c-13.137-8.787-27.743-13.236-42.297-16.945z"/><path fill="#1a1a1a" d="M250.945 59.547q-12.41 0-19.996 8.077-7.586 8.08-7.584 22.85v7.289h-15.759v13.198h15.759v81.95h14.775v-81.95h19.306V97.763H238.14v-7.288q0-9.06 3.842-13.888 3.84-4.826 11.129-4.828a15.3 15.3 0 0 1 4.827.69c1.276.415 2.499.977 3.644 1.675l3.743-11.228a19.3 19.3 0 0 0-6.501-2.562 38.4 38.4 0 0 0-7.879-.787m30.251 1.969h14.775V192.91h-14.775zm105.629 106.18a36.2 36.2 0 0 1-11.819 10.047 32.77 32.77 0 0 1-16.351 4.333 35.7 35.7 0 0 1-8.668-.984 15.7 15.7 0 0 1-6.796-3.546 16 16 0 0 1-4.334-6.698 31.4 31.4 0 0 1-1.477-10.441V97.763h-14.775v67.175q0 15.564 7.683 22.949 7.683 7.387 22.654 7.387a40.8 40.8 0 0 0 19.503-4.727 50.2 50.2 0 0 0 14.38-11.032v13.396h14.774V97.763h-14.774zm86.479-23.64 34.474-46.293h-17.139l-26.397 36.247-26.397-36.247h-17.138l34.474 46.293-36.444 48.855h16.942l28.563-39.005 28.565 39.005h17.138z"/></g><defs><clipPath id="a"><path fill="#fff" d="M0 0h510v255H0z"/></clipPath></defs></svg>