<svg xmlns="http://www.w3.org/2000/svg" width="278" height="75" fill="none" viewBox="0 0 278 75"><g fill="#100e0f" clip-path="url(#a)"><path d="M53.41 32.099H30.113c-.6 0-1.085.485-1.085 1.093v11.395c0 .6.485 1.094 1.085 1.094h9.093V59.84s-2.04.693-7.684.693c-6.66 0-15.96-2.433-15.96-22.883 0-20.457 9.685-23.144 18.778-23.144 7.87 0 11.265 1.386 13.42 2.055.678.208 1.302-.47 1.302-1.07l2.602-11.01c0-.285-.092-.624-.416-.847C50.362 2.987 45.02 0 31.514 0 15.96 0 0 6.621 0 38.436c0 31.821 18.27 36.556 33.67 36.556 12.75 0 20.48-5.45 20.48-5.45.316-.178.354-.624.354-.825V33.192c0-.608-.493-1.093-1.093-1.093M173.514 3.811a1.08 1.08 0 0 0-1.078-1.093h-13.119c-.601 0-1.086.493-1.086 1.093v25.354h-20.45V3.811c0-.608-.485-1.093-1.085-1.093h-13.12c-.601 0-1.086.493-1.086 1.093v68.664c0 .608.485 1.1 1.086 1.1h13.12c.6 0 1.085-.492 1.085-1.1V43.1h20.45l-.039 29.366c0 .608.485 1.1 1.086 1.1h13.151c.6 0 1.078-.492 1.085-1.1zM78.172 12.82c0-4.728-3.788-8.547-8.461-8.547-4.666 0-8.462 3.82-8.462 8.547 0 4.72 3.788 8.546 8.462 8.546 4.673.008 8.461-3.827 8.461-8.546m-.939 45.172v-31.69c0-.601-.485-1.094-1.085-1.094H63.066c-.6 0-1.14.616-1.14 1.224v45.411c0 1.332.832 1.733 1.91 1.733h11.788c1.294 0 1.61-.632 1.61-1.756zm146.142-32.684h-13.019c-.601 0-1.086.493-1.086 1.1v33.67s-3.311 2.418-8 2.418c-4.696 0-5.944-2.133-5.944-6.73V26.41c0-.608-.485-1.101-1.085-1.101h-13.213c-.592 0-1.085.493-1.085 1.1v31.584c0 13.65 7.607 16.993 18.078 16.993 8.585 0 15.514-4.743 15.514-4.743s.331 2.502.478 2.794.539.593.955.593l8.407-.038c.593 0 1.086-.493 1.086-1.093l-.008-46.09a1.076 1.076 0 0 0-1.078-1.1m35.595-1.549c-7.399 0-12.427 3.303-12.427 3.303V3.811c0-.608-.485-1.093-1.086-1.093h-13.158c-.601 0-1.086.493-1.086 1.093v68.664c0 .608.485 1.1 1.086 1.1h9.132c.408 0 .723-.215.954-.585.224-.37.555-3.164.555-3.164s5.381 5.097 15.568 5.097c11.957 0 18.817-6.067 18.817-27.233-.008-21.158-10.956-23.93-18.355-23.93m-5.136 38.69c-4.519-.139-7.576-2.187-7.576-2.187V38.52s3.026-1.856 6.729-2.187c4.689-.423 9.209.994 9.209 12.18-.008 11.796-2.048 14.13-8.362 13.937M114.945 25.192h-9.84l-.016-13.004c0-.493-.254-.739-.823-.739H90.853c-.523 0-.8.231-.8.731v13.436s-6.722 1.625-7.176 1.755a1.086 1.086 0 0 0-.786 1.048v8.446c0 .608.485 1.093 1.086 1.093h6.875V58.27c0 15.091 10.587 16.57 17.725 16.57 3.264 0 7.168-1.048 7.814-1.287.393-.146.616-.546.616-.985l.008-9.286a1.1 1.1 0 0 0-1.086-1.093c-.569 0-2.04.231-3.549.231-4.835 0-6.475-2.248-6.475-5.158V37.957h9.84c.6 0 1.085-.493 1.085-1.093V26.293c0-.608-.485-1.1-1.085-1.1"/></g><defs><clipPath id="a"><path fill="#fff" d="M0 0h277.318v75H0z"/></clipPath></defs></svg>