<svg xmlns="http://www.w3.org/2000/svg" width="230" height="71" fill="none" viewBox="0 0 230 71"><path fill="#8c929d" d="M161.119 17.695h-4.907l.023 36.575h19.874v-4.525h-14.968zm33.903 30.158a8.37 8.37 0 0 1-6.077 2.565c-3.736 0-5.244-1.845-5.244-4.254 0-3.623 2.521-5.356 7.877-5.356q1.743.006 3.467.27v6.774zm-5.087-22.17a16.25 16.25 0 0 0-10.443 3.758l1.733 3.016c2.003-1.17 4.456-2.34 7.99-2.34 4.029 0 5.807 2.07 5.807 5.536v1.779a22.4 22.4 0 0 0-3.399-.27c-8.598 0-12.964 3.015-12.964 9.318 0 5.649 3.466 8.485 8.71 8.485 3.534 0 6.933-1.62 8.103-4.254l.9 3.579h3.467V35.563c-.023-5.92-2.589-9.88-9.904-9.88m25.736 24.902c-1.846 0-3.467-.225-4.682-.788V32.894c1.666-1.395 3.736-2.408 6.37-2.408 4.749 0 6.572 3.353 6.572 8.778 0 7.697-2.949 11.321-8.26 11.321m2.07-24.893a9 9 0 0 0-6.752 2.993v-4.731l-.022-6.257h-4.795l.023 35.674c2.408 1.013 5.694 1.553 9.273 1.553 9.161 0 13.572-5.852 13.572-15.957-.022-7.99-4.096-13.28-11.299-13.28m-110.047-4.024c4.344 0 7.158 1.44 8.981 2.903l2.116-3.669c-2.859-2.52-6.73-3.871-10.871-3.871-10.444 0-17.759 6.37-17.759 19.222 0 13.46 7.9 18.703 16.926 18.703 3.734.009 7.434-.71 10.893-2.115l-.112-14.383V33.93h-13.401v4.524h8.553l.112 10.917c-1.125.562-3.061 1.012-5.694 1.012-7.248 0-12.11-4.569-12.11-14.18-.022-9.79 4.997-14.54 12.357-14.54m34.566-3.973h-4.795l.023 6.145v21.224c0 5.92 2.566 9.881 9.881 9.881.989.003 1.976-.088 2.948-.27v-4.299q-1.107.168-2.228.158c-4.029 0-5.807-2.071-5.807-5.537v-14.63h8.035v-4.006h-8.028l-.023-8.666zm-16.987 36.58h4.794V26.36h-4.794zm0-31.759h4.794v-4.794h-4.794z"/><path fill="#fc6d26" d="m75.882 41.017-4.256-13.082L63.203 1.99a1.456 1.456 0 0 0-2.761 0l-8.418 25.93H24.038L15.616 1.99a1.457 1.457 0 0 0-2.762 0L4.447 27.92.19 41.018a2.9 2.9 0 0 0 1.049 3.239l36.79 26.739 36.792-26.74a2.9 2.9 0 0 0 1.062-3.238"/><path fill="#e24329" d="m38.038 70.97 13.986-43.052H24.047z"/><path fill="#fc6d26" d="M38.029 70.972 24.038 27.918H4.456z"/><path fill="#fca326" d="M4.44 27.933.183 41.015a2.9 2.9 0 0 0 1.049 3.239l36.791 26.74z"/><path fill="#e24329" d="M4.445 27.933h19.607l-8.439-25.93a1.457 1.457 0 0 0-2.761 0z"/><path fill="#fc6d26" d="m38.038 70.972 13.986-43.054h19.604z"/><path fill="#fca326" d="m71.622 27.933 4.26 13.082a2.9 2.9 0 0 1-1.049 3.239L38.04 70.97z"/><path fill="#e24329" d="M71.633 27.933H52.024l8.422-25.93a1.457 1.457 0 0 1 2.762 0l8.423 25.93z"/></svg>