<svg xmlns="http://www.w3.org/2000/svg" width="20" height="20" fill="none" viewBox="0 0 20 20"><path fill="#669df6" d="M0 13.56 3 16V4L0 6.43z"/><path fill="#4285f4" d="m0 8 3-2V4zm3 8v-2l-3-2z"/><path fill="#aecbfa" d="m6 18-6-6v4l4 4zM3.99.01 0 4l.01 4 5.98-5.99z"/><path fill="#669df6" d="m20 6.45-3-2.44v12l3-2.42z"/><path fill="#4285f4" d="m20 12.01-3 2v2zm-3-8v2l3 2z"/><path fill="#aecbfa" d="m14 2.01 6 6v-4l-4-4zM16.01 20 20 16.01l-.01-4L14.01 18zM6 11a1 1 0 1 0 0-2 1 1 0 0 0 0 2m4 0a1 1 0 1 0 0-2 1 1 0 0 0 0 2m3.99 0a1 1 0 1 0 0-2 1 1 0 0 0 0 2"/></svg>