<svg xmlns="http://www.w3.org/2000/svg" width="40" height="40" fill="none" viewBox="0 0 40 40"><path fill="#fff" d="M0 0h40v40H0z"/><mask id="a" fill="#fff"><rect width="40" height="39" y="1" rx=".25"/></mask><rect width="40" height="39" y="1" stroke="#202124" stroke-width="2" mask="url(#a)" rx=".25"/><path fill="#202124" d="M0 .25A.25.25 0 0 1 .25 0h39.5a.25.25 0 0 1 .25.25v2.5H0z"/><circle cx="1.114" cy="1.354" r=".35" fill="#ff6058" stroke="#e14942" stroke-width=".05"/><circle cx="2.264" cy="1.354" r=".35" fill="#ffc130" stroke="#e1a325" stroke-width=".05"/><circle cx="3.414" cy="1.354" r=".35" fill="#27ca40" stroke="#3eaf3f" stroke-width=".05"/><g clip-path="url(#b)"><path fill="#1976d2" d="M31.952 16.566a12.4 12.4 0 0 0-3.703-5.92l-3.872 3.871a6.94 6.94 0 0 1 2.538 4.757v1.27c.022 0 .043-.007.064-.007a3.55 3.55 0 0 1 3.547 3.547 3.55 3.55 0 0 1-3.547 3.548c-.021 0-.042-.006-.064-.007v.007H20v5.473h6.915v-.003l.064.003c4.975 0 9.021-4.047 9.021-9.02a9.02 9.02 0 0 0-4.048-7.52"/><path fill="#ffe082" d="m16.261 22.655 3.975-3.975-.01-.01-3.972 3.971z" opacity=".5"/><path fill="#90caf9" d="m16.261 22.655 3.975-3.975-.01-.01-3.972 3.971z" opacity=".5"/><path fill="#ff3d00" d="M20 7.485c-6.849 0-12.421 5.572-12.421 12.421 0 .196.02.388.03.581h5.473a7 7 0 0 1-.03-.58A6.955 6.955 0 0 1 20 12.958c1.658 0 3.182.586 4.377 1.559l3.872-3.873A12.36 12.36 0 0 0 20 7.486"/><path fill="#90caf9" d="M13.02 27.632c-.515 0-1-.116-1.442-.315l-3.966 3.967a8.96 8.96 0 0 0 5.408 1.821H20v-5.473z" opacity=".5"/><path fill="#4caf50" d="M13.02 27.632c-.515 0-1-.116-1.442-.315l-3.966 3.967a8.96 8.96 0 0 0 5.408 1.821H20v-5.473z"/><path fill="#ffc107" d="M9.474 24.086a3.55 3.55 0 0 1 3.545-3.545c1.434 0 2.676.861 3.234 2.1l3.973-3.972a9 9 0 0 0-7.208-3.602C8.051 15.067 4 19.11 4 24.087c0 2.94 1.424 5.549 3.611 7.197l3.966-3.966a3.55 3.55 0 0 1-2.103-3.232"/></g><defs><clipPath id="b"><path fill="#fff" d="M4 7h32v26.105H4z"/></clipPath></defs></svg>