<svg xmlns="http://www.w3.org/2000/svg" width="473" height="75" fill="none" viewBox="0 0 473 75"><path fill="#ea4335" d="M55.636 19.666h2.674l7.622-7.714.374-3.275A34.1 34.1 0 0 0 50.976.805a33.86 33.86 0 0 0-17.18.656 34.2 34.2 0 0 0-14.7 9.02 34.8 34.8 0 0 0-8.52 15.113 4.1 4.1 0 0 1 2.674-.163l15.243-2.544s.775-1.299 1.177-1.218a18.93 18.93 0 0 1 12.616-6.232 18.86 18.86 0 0 1 13.404 4.23z"/><path fill="#4285f4" d="M76.79 25.594a34.8 34.8 0 0 0-10.35-16.89L55.743 19.531a19.2 19.2 0 0 1 5.225 6.82 19.44 19.44 0 0 1 1.755 8.446v1.921a9.46 9.46 0 0 1 6.731 2.822 9.7 9.7 0 0 1 2.789 6.814 9.7 9.7 0 0 1-2.788 6.813 9.46 9.46 0 0 1-6.732 2.823h-19.04l-1.9 1.948v11.558l1.9 1.922h19.04a24.56 24.56 0 0 0 14.8-4.824 25.06 25.06 0 0 0 9.04-12.803 25.35 25.35 0 0 0-.28-15.734 25.03 25.03 0 0 0-9.494-12.463"/><path fill="#34a853" d="M24.615 71.31h19.04V55.88h-19.04a9.4 9.4 0 0 1-3.93-.866l-2.675.84-7.675 7.713-.669 2.707a24.44 24.44 0 0 0 14.95 5.034"/><path fill="#fbbc05" d="M24.615 21.263a24.57 24.57 0 0 0-14.36 4.752 25.05 25.05 0 0 0-8.96 12.313 25.35 25.35 0 0 0-.224 15.29 25.07 25.07 0 0 0 8.595 12.576l11.045-11.179a9.54 9.54 0 0 1-3.58-2.847 9.7 9.7 0 0 1-1.866-4.204 9.75 9.75 0 0 1 .277-4.6 9.66 9.66 0 0 1 2.357-3.943 9.5 9.5 0 0 1 3.896-2.385 9.4 9.4 0 0 1 4.545-.281c1.515.28 2.94.928 4.154 1.888a9.6 9.6 0 0 1 2.812 3.624l11.045-11.179a24.8 24.8 0 0 0-8.73-7.254 24.5 24.5 0 0 0-11.006-2.57"/><path fill="#5f6368" d="M138.376 60.537a24.1 24.1 0 0 1-9.564-1.846 24.4 24.4 0 0 1-8.086-5.49 23.8 23.8 0 0 1-5.535-8.035 24.05 24.05 0 0 1-1.872-9.611c-.039-3.3.599-6.573 1.874-9.611a23.85 23.85 0 0 1 5.533-8.037 24.4 24.4 0 0 1 8.07-5.562 24.1 24.1 0 0 1 9.58-1.908 23.4 23.4 0 0 1 9.149 1.73 23.6 23.6 0 0 1 7.779 5.172l-4.76 4.899a17.03 17.03 0 0 0-12.168-4.872 16.8 16.8 0 0 0-6.847 1.369 17 17 0 0 0-5.722 4.044 17.7 17.7 0 0 0-3.879 5.894 17.9 17.9 0 0 0-1.282 6.963 17.9 17.9 0 0 0 1.313 6.875 17.7 17.7 0 0 0 3.848 5.819 17.84 17.84 0 0 0 12.456 5.296 17.83 17.83 0 0 0 12.575-4.998 14.48 14.48 0 0 0 3.664-8.418h-16.046v-6.93h22.704c.224 1.396.313 2.81.268 4.223a21.9 21.9 0 0 1-1.312 8.592 21.7 21.7 0 0 1-4.545 7.377 22.75 22.75 0 0 1-7.853 5.387 22.5 22.5 0 0 1-9.342 1.678m52.789-4.601a16.26 16.26 0 0 1-11.325 4.606 16.26 16.26 0 0 1-11.325-4.606 15.4 15.4 0 0 1-3.508-5.26 15.6 15.6 0 0 1-1.119-6.244 15.6 15.6 0 0 1 1.121-6.242 15.5 15.5 0 0 1 3.506-5.261 16.3 16.3 0 0 1 11.325-4.596c4.219 0 8.275 1.646 11.325 4.596a15.5 15.5 0 0 1 3.505 5.26 15.6 15.6 0 0 1 1.121 6.243c.055 2.14-.33 4.267-1.131 6.247s-2 3.77-3.522 5.257zm-17.65-4.52a8.7 8.7 0 0 0 2.878 2.051 8.58 8.58 0 0 0 6.894 0 8.7 8.7 0 0 0 2.877-2.051 9.6 9.6 0 0 0 2.035-3.218c.459-1.2.677-2.48.64-3.766a9.8 9.8 0 0 0-.637-3.779 9.7 9.7 0 0 0-2.038-3.23 8.8 8.8 0 0 0-2.898-2.03 8.7 8.7 0 0 0-6.906 0 8.8 8.8 0 0 0-2.898 2.03 9.7 9.7 0 0 0-2.038 3.23 9.8 9.8 0 0 0-.636 3.78 9.7 9.7 0 0 0 .651 3.768 9.7 9.7 0 0 0 2.05 3.215zm52.468 4.52a16.26 16.26 0 0 1-11.325 4.606c-4.221 0-8.278-1.65-11.325-4.606a15.4 15.4 0 0 1-3.508-5.26 15.6 15.6 0 0 1-1.119-6.244 15.6 15.6 0 0 1 1.122-6.242 15.45 15.45 0 0 1 3.505-5.261 16.26 16.26 0 0 1 11.325-4.607c4.221 0 8.278 1.65 11.325 4.607a15.45 15.45 0 0 1 3.505 5.26 15.6 15.6 0 0 1 1.122 6.243 15.6 15.6 0 0 1-1.119 6.244 15.4 15.4 0 0 1-3.508 5.26m-17.65-4.52a8.7 8.7 0 0 0 2.878 2.051 8.58 8.58 0 0 0 6.894 0 8.7 8.7 0 0 0 2.878-2.051 9.7 9.7 0 0 0 2.034-3.218c.46-1.2.677-2.48.64-3.766a9.8 9.8 0 0 0-.636-3.779 9.7 9.7 0 0 0-2.038-3.23 8.8 8.8 0 0 0-2.899-2.03 8.7 8.7 0 0 0-6.905 0 8.8 8.8 0 0 0-2.899 2.03 9.7 9.7 0 0 0-2.038 3.23 9.8 9.8 0 0 0-.636 3.78 9.7 9.7 0 0 0 .652 3.768 9.6 9.6 0 0 0 2.049 3.215zm40.542 23.574a13.9 13.9 0 0 1-8.906-2.869 16.57 16.57 0 0 1-5.188-6.658l6.098-2.571a10.4 10.4 0 0 0 3.021 4.033 7.57 7.57 0 0 0 5.001 1.705 7.9 7.9 0 0 0 3.378-.53 8 8 0 0 0 2.853-1.906 9.96 9.96 0 0 0 2.22-7.038V56.83h-.241a10.2 10.2 0 0 1-3.759 2.827 10.1 10.1 0 0 1-4.611.827 14.4 14.4 0 0 1-5.836-1.22 14.5 14.5 0 0 1-4.861-3.49 15.6 15.6 0 0 1-3.435-5.196 15.7 15.7 0 0 1-1.138-6.145 15.9 15.9 0 0 1 1.135-6.183 15.7 15.7 0 0 1 3.438-5.239 14.5 14.5 0 0 1 4.856-3.506 14.35 14.35 0 0 1 5.841-1.23 11.4 11.4 0 0 1 4.92 1.11 9.9 9.9 0 0 1 3.477 2.57h.241v-2.57h6.632V58.21a17 17 0 0 1-.844 6.737 16.9 16.9 0 0 1-3.408 5.85 15 15 0 0 1-5.023 3.212 14.8 14.8 0 0 1-5.861.982m.481-20.787a7.7 7.7 0 0 0 3.32-.671 7.8 7.8 0 0 0 2.724-2.035 10.1 10.1 0 0 0 2.433-6.93 10.3 10.3 0 0 0-2.433-7.064 7.8 7.8 0 0 0-2.723-2.037 7.7 7.7 0 0 0-3.321-.67 8.2 8.2 0 0 0-3.417.672 8.3 8.3 0 0 0-2.841 2.035 9.95 9.95 0 0 0-2.674 7.01 9.8 9.8 0 0 0 .654 3.735 9.7 9.7 0 0 0 2.02 3.195 8.3 8.3 0 0 0 2.835 2.062 8.2 8.2 0 0 0 3.423.698m26.448-41.953v47.313h-6.98V12.25zm19.147 48.287a15 15 0 0 1-6.106-1.125 15.2 15.2 0 0 1-5.152-3.504 15.7 15.7 0 0 1-3.424-5.268 15.85 15.85 0 0 1-1.096-6.208 16 16 0 0 1 1.015-6.24 15.9 15.9 0 0 1 3.344-5.344 14.3 14.3 0 0 1 4.877-3.403 14.2 14.2 0 0 1 5.82-1.117 13.4 13.4 0 0 1 5.349 1.055 12.6 12.6 0 0 1 4.091 2.707 19 19 0 0 1 2.674 3.275 19.3 19.3 0 0 1 1.578 3.167l.722 1.84-21.394 8.905a8.1 8.1 0 0 0 3.105 3.645 7.95 7.95 0 0 0 4.597 1.227 9.04 9.04 0 0 0 4.5-1.187 9.2 9.2 0 0 0 3.336-3.279l5.348 3.654a17.7 17.7 0 0 1-5.134 4.926 14.4 14.4 0 0 1-8.05 2.274m-8.932-16.592 14.227-5.982a4.96 4.96 0 0 0-2.22-2.463 7.2 7.2 0 0 0-3.663-.947 8.22 8.22 0 0 0-5.75 2.571 8.6 8.6 0 0 0-2.05 3.117 8.7 8.7 0 0 0-.544 3.704M345.2 60.537a21.8 21.8 0 0 1-8.668-1.634 22 22 0 0 1-7.341-4.942 22.3 22.3 0 0 1-4.839-7.46 22.5 22.5 0 0 1-1.562-8.781 22.5 22.5 0 0 1 1.562-8.782 22.3 22.3 0 0 1 4.839-7.46 22 22 0 0 1 7.341-4.941 21.8 21.8 0 0 1 8.668-1.634 19.74 19.74 0 0 1 8.737 1.735 20 20 0 0 1 7.121 5.41l-3.851 3.79a14.6 14.6 0 0 0-5.334-4.226 14.4 14.4 0 0 0-6.647-1.323 16.15 16.15 0 0 0-6.436 1.179 16.3 16.3 0 0 0-5.464 3.639 16.9 16.9 0 0 0-3.723 5.794 17.1 17.1 0 0 0-1.117 6.819 17.1 17.1 0 0 0 1.117 6.818 16.9 16.9 0 0 0 3.723 5.795 16.3 16.3 0 0 0 5.464 3.639 16.2 16.2 0 0 0 6.436 1.179 16.8 16.8 0 0 0 7.4-1.622 17 17 0 0 0 5.971-4.712l3.851 3.898a21.04 21.04 0 0 1-7.407 5.71 22.45 22.45 0 0 1-9.841 2.112m27.597-.974h-5.535V15.85h5.535zm9.039-26.31a15.4 15.4 0 0 1 10.911-4.551 15.4 15.4 0 0 1 10.911 4.552 15.9 15.9 0 0 1 3.261 5.251 16 16 0 0 1 1.017 6.117 16 16 0 0 1-1.017 6.116 15.9 15.9 0 0 1-3.261 5.252 15.4 15.4 0 0 1-10.911 4.552 15.4 15.4 0 0 1-10.911-4.552 15.9 15.9 0 0 1-3.261-5.252 16 16 0 0 1-1.018-6.116 16 16 0 0 1 1.018-6.117 15.9 15.9 0 0 1 3.261-5.251m4.118 19.218a9.35 9.35 0 0 0 3.089 2.184 9.24 9.24 0 0 0 7.381 0 9.3 9.3 0 0 0 3.089-2.184 10.9 10.9 0 0 0 2.21-3.633 11 11 0 0 0 .651-4.216 11 11 0 0 0-.651-4.216 10.9 10.9 0 0 0-2.21-3.633 9.3 9.3 0 0 0-3.089-2.184 9.24 9.24 0 0 0-7.381 0 9.35 9.35 0 0 0-3.089 2.184 10.9 10.9 0 0 0-2.21 3.633 11 11 0 0 0-.651 4.216 11 11 0 0 0 .669 4.204 10.9 10.9 0 0 0 2.219 3.618zm52.656 7.092h-5.349V55.42h-.16a10.35 10.35 0 0 1-3.905 3.736 10.8 10.8 0 0 1-5.482 1.488 10.3 10.3 0 0 1-4.584-.733 10.4 10.4 0 0 1-3.813-2.677 13.65 13.65 0 0 1-2.861-9.149V29.681h5.536v17.377q0 8.363 7.3 8.363a6.7 6.7 0 0 0 3.132-.664 6.8 6.8 0 0 0 2.484-2.042 10.28 10.28 0 0 0 2.166-6.47V29.682h5.536zm18.799.974c-1.877.006-3.734-.4-5.442-1.19a13 13 0 0 1-4.452-3.384 16.35 16.35 0 0 1-4.145-11.341 16.35 16.35 0 0 1 4.145-11.341 13 13 0 0 1 4.452-3.385 12.9 12.9 0 0 1 5.442-1.19 12.4 12.4 0 0 1 6.044 1.462 10.3 10.3 0 0 1 4.011 3.654h.241l-.241-4.141V15.85H473v43.713h-5.348V55.42h-.241a10.3 10.3 0 0 1-4.011 3.654 12.4 12.4 0 0 1-5.991 1.462m.91-5.116a8.7 8.7 0 0 0 3.64-.736 8.8 8.8 0 0 0 3.018-2.187 11.04 11.04 0 0 0 2.675-7.876c.167-2.88-.794-5.71-2.675-7.877a9 9 0 0 0-3.03-2.21 8.95 8.95 0 0 0-7.31 0 9.05 9.05 0 0 0-3.031 2.21 10.9 10.9 0 0 0-2.11 3.655 11 11 0 0 0-.564 4.195 11 11 0 0 0 .564 4.194 10.9 10.9 0 0 0 2.11 3.655 8.8 8.8 0 0 0 3.037 2.227 8.7 8.7 0 0 0 3.676.75"/></svg>