<svg xmlns="http://www.w3.org/2000/svg" width="94" height="50" fill="none" viewBox="0 0 94 50"><path fill="#466bb0" d="M12.93 49.053.9 43.043h32.069zm0-32.069L.9 41.035l12.03-2.006zM14.927.95v38.079l18.042 2.006z"/><path fill="#000" d="M45.497 17.33v19.018h-4.19V17.33zm6.446 15.571c.173.298.397.521.645.72.272.198.57.322.917.421.347.1.694.124 1.066.124.273 0 .546-.025.843-.1.298-.074.57-.148.794-.297a1.74 1.74 0 0 0 .595-.52c.148-.224.248-.496.248-.843 0-.57-.373-.992-1.141-1.29-.744-.273-1.81-.57-3.149-.843a17 17 0 0 1-1.611-.446 5.6 5.6 0 0 1-1.389-.67 3.3 3.3 0 0 1-.992-1.04c-.248-.422-.372-.918-.372-1.538 0-.893.174-1.612.521-2.182a3.7 3.7 0 0 1 1.364-1.339 6 6 0 0 1 1.909-.694 13 13 0 0 1 2.182-.198q1.116 0 2.157.223c.694.149 1.314.372 1.884.719a4.4 4.4 0 0 1 1.364 1.339c.372.57.57 1.264.644 2.107h-3.595q-.075-1.079-.818-1.487a3.9 3.9 0 0 0-1.76-.397c-.223 0-.447.025-.695.05a1.9 1.9 0 0 0-.669.173c-.198.1-.372.223-.52.397q-.224.26-.224.67 0 .52.372.817.372.335.967.521c.397.124.868.248 1.364.347.52.1 1.041.223 1.562.347.545.124 1.09.273 1.611.447.521.173.992.421 1.389.694.397.297.744.644.992 1.09s.372.968.372 1.612c0 .918-.174 1.661-.546 2.281a4.5 4.5 0 0 1-1.413 1.488 6 6 0 0 1-2.008.793q-1.116.224-2.306.224c-.794 0-1.587-.075-2.331-.248a5.9 5.9 0 0 1-2.033-.794 4.4 4.4 0 0 1-1.463-1.487c-.372-.62-.595-1.389-.62-2.306h3.595c.05.47.124.818.298 1.115m18.67-10.339v2.53H67.86v6.818c0 .644.099 1.066.322 1.289s.645.322 1.29.322c.222 0 .42 0 .62-.025.197-.024.371-.05.57-.074v2.926c-.323.05-.67.099-1.067.099-.397.025-.768.025-1.14.025-.595 0-1.14-.05-1.662-.124-.52-.075-.991-.223-1.388-.471a2.43 2.43 0 0 1-.942-.992c-.223-.422-.347-.992-.347-1.686V25.09h-2.281v-2.529h2.28v-4.116h3.745v4.116zm1.909-2.132v-3.1h3.769v3.125h-3.77zm3.793 2.132v13.761h-3.768v-13.76zm3.05 3.893c.347-.893.818-1.661 1.438-2.281a6.6 6.6 0 0 1 2.232-1.463c.867-.347 1.834-.52 2.925-.52s2.058.173 2.95.52a6.7 6.7 0 0 1 2.257 1.463c.62.62 1.091 1.388 1.438 2.281s.496 1.884.496 3a8.7 8.7 0 0 1-.496 2.975 6.7 6.7 0 0 1-1.438 2.281 6.5 6.5 0 0 1-2.256 1.463c-.868.347-1.86.496-2.95.496-1.092 0-2.059-.174-2.926-.496-.868-.347-1.612-.818-2.232-1.463-.62-.62-1.09-1.388-1.438-2.28-.347-.893-.496-1.885-.496-2.976s.174-2.107.496-3m3.446 4.612c.1.52.298.991.546 1.413.248.421.595.744 1.017.992s.966.372 1.586.372 1.166-.124 1.612-.372.769-.57 1.041-.992a4.4 4.4 0 0 0 .546-1.413 8.7 8.7 0 0 0 .148-1.612 8.7 8.7 0 0 0-.148-1.612c-.1-.52-.298-.991-.546-1.413a2.86 2.86 0 0 0-1.041-.992c-.446-.247-.967-.396-1.612-.396-.644 0-1.165.124-1.586.396a3 3 0 0 0-1.017.992 4 4 0 0 0-.546 1.413 9 9 0 0 0-.148 1.612c-.025.546.05 1.091.148 1.612"/></svg>