<svg xmlns="http://www.w3.org/2000/svg" width="145" height="71" fill="none" viewBox="0 0 145 71"><path fill="#000" d="M8.721 70.077c-2.508-.894-4.543-2.76-5.689-5.216-.824-1.766-1.02-4.722-.445-6.7.771-2.654 3.292-5.373 5.809-6.267l1.236-.44v-3.978l-1.336-.421c-2.67-.841-5.462-3.206-6.893-5.836-1.812-3.33-1.812-8.21 0-11.54 1.431-2.63 4.224-4.994 6.893-5.835l1.336-.422v-3.979l-1.236-.438c-2.517-.894-5.038-3.613-5.81-6.267-.58-1.995-.378-4.926.465-6.766.837-1.826 2.946-3.942 4.792-4.807C9.103.575 9.553.5 11.847.5s2.744.075 4.004.665c1.845.865 3.955 2.981 4.792 4.807.843 1.84 1.044 4.77.464 6.766-.773 2.658-3.292 5.373-5.818 6.27l-1.245.442.07 1.942.071 1.942 1.292.33c1.727.442 2.962 1.097 4.637 2.46l1.393 1.136 1.015-.563c.559-.31 1.386-.794 1.838-1.076l.821-.512.04-2.583c.034-2.243.127-2.769.705-4.002.857-1.829 2.978-3.95 4.806-4.807 1.26-.59 1.71-.665 4.004-.665s2.744.075 4.004.665c1.829.857 3.95 2.978 4.807 4.807.59 1.26.665 1.71.665 4.004s-.075 2.744-.665 4.004c-.857 1.828-2.978 3.95-4.807 4.806-1.26.59-1.71.666-4.004.666-2.915 0-4.127-.397-6.063-1.984l-1.057-.866-1.861 1.056-1.86 1.055.19.985c.248 1.276.246 5.156-.003 6.326l-.193.912 1.89 1.106 1.89 1.107 1.03-.845c1.91-1.564 3.132-1.961 6.037-1.961 2.294 0 2.744.075 4.004.665 1.829.857 3.95 2.978 4.807 4.807.59 1.26.665 1.71.665 4.004s-.075 2.743-.665 4.004c-.857 1.828-2.978 3.95-4.807 4.806-1.26.59-1.71.665-4.004.665s-2.743-.074-4.004-.665c-1.828-.857-3.95-2.978-4.806-4.806-.593-1.266-.665-1.706-.665-4.052v-2.632l-1.755-.998c-.966-.55-1.826-.999-1.911-.999-.086 0-.768.499-1.516 1.108-1.641 1.336-2.884 1.993-4.602 2.432l-1.292.33-.07 1.942-.071 1.942 1.245.443c2.526.897 5.045 3.612 5.818 6.27.58 1.995.379 4.926-.464 6.766s-2.95 3.946-4.792 4.794c-1.9.875-5.212 1.04-7.13.356m4.918-5.063c2.885-1.234 3.559-5.18 1.253-7.337-2.848-2.663-7.475-.654-7.475 3.246 0 2.508 1.87 4.397 4.376 4.42.58.006 1.41-.142 1.846-.329m22.89-12.552c2.884-1.234 3.558-5.181 1.252-7.337-2.848-2.663-7.475-.654-7.475 3.246 0 2.508 1.87 4.397 4.377 4.42.58.006 1.41-.143 1.846-.33m-21.836-10.41c1.626-.555 3.57-2.5 4.125-4.126.93-2.728.324-5.428-1.664-7.415-2.816-2.817-7.06-2.817-9.876 0-1.987 1.987-2.593 4.687-1.664 7.415.53 1.556 2.507 3.575 4.024 4.11 1.463.517 3.565.523 5.055.015m21.836-15.433c2.884-1.234 3.558-5.18 1.252-7.337-2.848-2.663-7.475-.654-7.475 3.246 0 2.508 1.87 4.398 4.377 4.42.58.006 1.41-.142 1.846-.329m-22.89-12.552c2.885-1.234 3.559-5.181 1.253-7.337-2.848-2.663-7.475-.654-7.475 3.246 0 2.508 1.87 4.397 4.376 4.42.58.005 1.41-.143 1.846-.329m63.119 38.712c-4.18-.985-7.073-5.153-7.073-10.192 0-5.646 3.462-9.913 8.42-10.376 1.976-.184 3.839.32 5.564 1.508l1.247.857.076-.917.076-.917 2.277-.07 2.276-.072v19.973l-2.276-.07-2.277-.071-.077-.8c-.043-.44-.126-.8-.187-.8-.06 0-.57.333-1.132.74-1.815 1.315-4.48 1.78-6.914 1.207m4.766-4.196c2.368-.793 3.753-3.007 3.744-5.985-.007-2.014-.479-3.326-1.628-4.524-1.154-1.204-2.069-1.598-3.76-1.62-2.124-.029-3.626.915-4.653 2.925-1.442 2.82-.772 6.68 1.453 8.378 1.406 1.073 3.196 1.378 4.844.826m50.116 4.115c-3.556-.957-6.329-4.65-6.73-8.964-.435-4.675 1.742-8.946 5.498-10.783 1.173-.574 1.725-.687 3.381-.694 2.292-.009 3.769.464 5.441 1.74l1.092.834V32.6l2.277.071 2.277.07v19.691l-2.277.07-2.277.071v-1.992l-1.324.879c-2.306 1.53-4.743 1.94-7.358 1.237m5.114-4.108c2.335-.642 4.037-3.686 3.725-6.666-.241-2.31-1.284-4.068-2.903-4.895-2.089-1.066-4.235-.809-5.921.71-1.414 1.274-1.971 2.654-1.971 4.887 0 4.422 3.116 7.05 7.07 5.964M52.457 35.458V18.345h4.676v20.544l3.142-3.135 3.141-3.134h3.012c1.656 0 3.011.06 3.011.135 0 .074-1.884 1.985-4.187 4.246l-4.187 4.11 4.574 5.66 4.575 5.662-2.772.07c-1.525.038-2.904.019-3.067-.043-.162-.062-1.736-1.945-3.5-4.184-2.447-3.109-3.266-3.996-3.466-3.755-.154.185-.29 1.892-.33 4.114l-.069 3.798-2.276.07-2.277.071zm42.25 16.933c-.09-.09-.163-3.58-.163-7.753v-7.589h-1.477v-4.43h1.477l.005-3.877c.008-6.937.607-8.866 3.165-10.203 1.087-.568 1.626-.687 3.097-.687.98 0 2.13.121 2.556.27l.775.27v4.83l-.972-.47c-.985-.476-2.372-.612-2.867-.282-.739.493-.923 1.522-1.035 5.78l-.114 4.369h4.988v4.43H99.22v15.506h-2.174c-1.196 0-2.248-.074-2.338-.164m12.881-16.942V18.344h4.676v20.544l3.142-3.135 3.141-3.134h3.012c1.656 0 3.012.089 3.012.198s-1.883 2-4.183 4.202l-4.183 4.004 4.552 5.633c2.504 3.098 4.552 5.693 4.552 5.766s-1.326.133-2.946.133h-2.945l-3.262-4.17c-2.5-3.197-3.335-4.108-3.576-3.907-.232.192-.316 1.293-.316 4.169v3.908h-4.676z"/></svg>