<svg xmlns="http://www.w3.org/2000/svg" width="344" height="70" fill="none" viewBox="0 0 344 70"><path fill="#4d4d4d" d="M70.998 17.495a.64.64 0 0 1-.56-.319L60.716.319A.66.66 0 0 0 60.15 0H20.479a.64.64 0 0 0-.558.318L9.823 17.813c-.008 0-.008.007-.008.007L.085 34.678a.65.65 0 0 0 0 .644l9.73 16.851 10.106 17.51a.64.64 0 0 0 .558.317h39.67a.66.66 0 0 0 .566-.318l9.73-16.858a.64.64 0 0 1 .56-.319H83.11a.73.73 0 0 0 .728-.728V18.223a.73.73 0 0 0-.728-.728z"/><path fill="url(#a)" d="M252.327 17.151h-.006a17.2 17.2 0 0 0-6.244 2.614 18.6 18.6 0 0 0-2.632 2.15c-2.654 2.596-4.316 5.663-4.972 9.212l-.255.383.156.232v.006a20 20 0 0 0-.227 3.038q0 6.928 4.305 11.815c.308.36.645.709.993 1.052q1.334 1.307 2.823 2.282 4.425 2.893 10.218 2.893.644.002 1.272-.04 5.612-.316 9.863-3.497a18.5 18.5 0 0 0 1.911-1.638l.018-.018c1.406-1.376 2.532-2.892 3.375-4.536q.392-.758.697-1.557 1.21-3.094 1.208-6.756 0-.985-.088-1.928v-.012c-.179-1.946-.633-3.764-1.376-5.443q-1.315-3.031-3.834-5.489a18 18 0 0 0-2.195-1.847c-3.09-2.219-6.704-3.328-10.851-3.328-1.453 0-2.84.133-4.159.412m-.308 27.841a9.6 9.6 0 0 1-1.969-1.353 10 10 0 0 1-.906-.883c-2.005-2.184-3.003-4.833-3.003-7.946 0-.093 0-.18.005-.274q.078-4.495 2.998-7.702c1.458-1.603 3.166-2.625 5.117-3.055a10.6 10.6 0 0 1 2.254-.238q4.373 0 7.371 3.293.167.176.308.36 2.691 3.198 2.69 7.616c0 2.056-.436 3.903-1.307 5.553a11.4 11.4 0 0 1-1.691 2.393q-.149.164-.307.32a10 10 0 0 1-2.429 1.84q-2.083 1.116-4.635 1.116-2.466-.001-4.496-1.04m-67.678-23.055a19 19 0 0 0-1.76 1.987v.006q-3.562 4.627-3.561 10.978-.001 3.624 1.139 6.663a16.3 16.3 0 0 0 1.754 3.421v.006c.006 0 .006.006.006.006a17.2 17.2 0 0 0 2.323 2.777 17.7 17.7 0 0 0 3.486 2.654h.006q.47.271.958.517.349.174.715.331h.011l.006.006h.005q3.607 1.586 8.11 1.586 1.325-.002 2.591-.186h.016q.812-.115 1.604-.308c2.957-.709 5.664-2.207 8.132-4.49.494-.453.982-.947 1.458-1.47a.35.35 0 0 0-.012-.476l-4.507-4.641a.33.33 0 0 0-.302-.099.4.4 0 0 0-.204.122q-1.805 2.136-4.106 3.2-2.284 1.053-5.048 1.052-1.892.002-3.531-.598-1.995-.732-3.613-2.353a9.5 9.5 0 0 1-2.283-3.63q-.67-1.882-.669-4.188c0-3.027.9-5.478 2.713-7.349.134-.133.268-.267.413-.4 2.079-1.917 4.589-2.876 7.522-2.876 1.074 0 2.103.134 3.073.401 2.23.604 4.188 1.905 5.873 3.892a.337.337 0 0 0 .511.012l4.385-4.973a.35.35 0 0 0-.005-.464c-3.433-3.77-7.593-5.855-12.472-6.245a21 21 0 0 0-1.714-.07c-5.134 0-9.473 1.737-13.023 5.2M71.274 17.5H10.38a.66.66 0 0 0-.557.313c-.006 0-.006.012-.006.012l-.36.621-4.45 7.714-4.92 8.522a.64.64 0 0 0 0 .645l1.069 1.853 8.66 14.998a.65.65 0 0 0 .564.325h72.743a.72.72 0 0 0 .715-.72V18.225c0-.4-.326-.726-.727-.726zm268.649.04h-5.536a.34.34 0 0 0-.25.11l-2.736 2.975-5.838 6.349-3.927 4.263c-.209.233-.592.082-.592-.232V17.883a.343.343 0 0 0-.343-.343h-7.11a.34.34 0 0 0-.342.343v34.254c0 .186.151.343.342.343h7.11a.347.347 0 0 0 .343-.343V42.71c0-.082.029-.163.088-.227l.319-.36 2.811-3.131a.344.344 0 0 1 .529.029l2.684 3.619 4.803 6.465 1.761 2.364.644.871c.069.087.169.14.279.14h8.254a.35.35 0 0 0 .285-.546l-1.708-2.382-2.44-3.433q-1.087-1.516-2.341-3.276a44 44 0 0 0-.378-.534c-1.161-1.638-2.195-3.09-3.089-4.357q-2.249-3.147-3.398-4.751a.33.33 0 0 1 .029-.425l2.724-3.026 6.541-7.272 3.932-4.369a.4.4 0 0 0 .087-.215.34.34 0 0 0-.343-.354zm-48.968 0h-2.66a.35.35 0 0 0-.314.21l-9.155 21.19-.006.005-.011.024-.006.017-1.185 2.748-.069.168-.151.343-.128.29v.006l-3.561 8.243-.523 1.214a.343.343 0 0 0 .314.482h7.551c.127 0 .25-.076.308-.198 0-.005.006-.005.006-.011l2.631-6.123.436-1.01a.35.35 0 0 1 .319-.21h14.191c.14 0 .261.082.314.21l2.922 6.79v.006l.151.337a.335.335 0 0 0 .313.209h7.552a.345.345 0 0 0 .313-.482l-.069-.157-4.984-11.536-2.632-6.094-2.353-5.442-4.763-11.02a.335.335 0 0 0-.314-.209zm-3.276 20.064.906-2.092 2.968-6.848a.348.348 0 0 1 .634 0l1.655 3.863 1.673 3.909.499 1.168a.34.34 0 0 1-.314.476h-7.707a.34.34 0 0 1-.314-.476M218.898 17.54h-3.172a.34.34 0 0 0-.343.343v34.255c0 .185.151.342.343.342h22.003a.343.343 0 0 0 .343-.343V45.87a.343.343 0 0 0-.343-.342h-14.208a.34.34 0 0 1-.342-.337V17.883a.34.34 0 0 0-.198-.308.3.3 0 0 0-.146-.035zm-43.282 0h-2.886a.35.35 0 0 0-.297.169l-6.941 11.948-.006.006v.006l-.372.273-.278.215a.36.36 0 0 1-.146-.134l-.116-.197-.174-.297-6.861-11.82a.34.34 0 0 0-.295-.169h-7.662a.342.342 0 0 0-.296.511l3.322 5.81 6.012 10.507 2.422 4.235a.34.34 0 0 1 .046.168v13.367c0 .185.152.342.344.342h7.11a.343.343 0 0 0 .342-.343V38.771a.36.36 0 0 1 .046-.168l1.714-2.998 6.506-11.373 1.33-2.318.883-1.545v-.006l1.324-2.312a.34.34 0 0 0-.296-.51zm-34.015 0h-20.104a.34.34 0 0 0-.343.343v34.254c0 .186.15.343.343.343h25.052a.343.343 0 0 0 .343-.343v-6.215a.343.343 0 0 0-.343-.343h-17.257a.343.343 0 0 1-.343-.343v-6.564c0-.185.157-.342.343-.342h14.963a.344.344 0 0 0 .343-.343v-5.96a.343.343 0 0 0-.343-.343h-14.963a.344.344 0 0 1-.343-.342V24.83c0-.191.157-.343.343-.343h16.712a.343.343 0 0 0 .342-.342v-6.262a.343.343 0 0 0-.342-.343zm-30.288 0h-2.985a.34.34 0 0 0-.255.11l-5.408 5.873-7.093 7.714c-.209.233-.592.082-.592-.232V17.877a.34.34 0 0 0-.343-.337h-7.111a.34.34 0 0 0-.342.343v34.254c0 .186.151.343.343.343h7.11a.343.343 0 0 0 .343-.343V42.71c0-.08.028-.162.086-.226l1.482-1.656 1.65-1.835a.344.344 0 0 1 .528.029l4.932 6.633 3.543 4.77 1.423 1.916c.064.087.163.14.273.14h8.261c.278 0 .441-.32.278-.546l-.302-.424q-1.332-1.857-3.241-4.543-1.489-2.08-3.317-4.658l-.122-.175a2717 2717 0 0 0-6.372-8.934.34.34 0 0 1 .029-.424l3.114-3.456v-.006l2.561-2.846 2.463-2.736 5.06-5.623a.342.342 0 0 0-.256-.569z"/><path fill="#e1e1e1" d="M12.024 33.233 1.156 37.178.087 35.325a.64.64 0 0 1 0-.645l4.92-8.522z"/><path fill="#585858" d="M343.216 52.478h-4.485l-4.095-2.568 7.157-.36q.959 1.335 1.707 2.382a.35.35 0 0 1-.284.546"/><path fill="#585858" d="M338.731 52.478h-3.77a.35.35 0 0 1-.278-.14l-.645-.871.598-1.557z"/><path fill="#696969" d="M343.46 17.892a.4.4 0 0 1-.087.215l-3.933 4.369-.244-2.452z"/><path fill="#5e5e5e" d="m341.793 49.55-7.157.36 4.717-3.793z"/><path fill="#6d6d6d" d="m343.46 17.892-4.264 2.132.726-2.486h3.195c.209 0 .348.174.343.354"/><path fill="#636363" d="m339.353 46.117-4.717 3.793 2.376-7.069q1.253 1.76 2.341 3.276"/><path fill="#737373" d="m339.922 17.538-.726 2.486-4.142-2.486z"/><path fill="#757575" d="M321.044 17.88v3.538l-7.795.604v-4.141a.34.34 0 0 1 .342-.343h7.11c.186 0 .343.151.343.343m18.152 2.143-7.795.599 2.736-2.975a.34.34 0 0 1 .25-.11h.668z"/><path fill="#646464" d="m337.012 42.841-2.376 7.07-2.358-.808-4.804-6.465 6.07-4.688c.895 1.266 1.929 2.718 3.091 4.357z"/><path fill="#6d6d6d" d="M321.044 21.418v3.84l-7.795-2.95v-.285zm18.396 1.058-6.541 7.272-7.336-2.777 5.838-6.348 7.795-.599z"/><path fill="#6c6c6c" d="m333.544 37.95-6.07 4.688-2.684-3.62a.343.343 0 0 0-.528-.028l-2.812 3.13-8.202-18.616v-1.197l7.796 2.95v5.746c0 .313.383.465.592.232l3.927-4.264 7.336 2.777-2.724 3.026a.335.335 0 0 0-.029.425q1.15 1.604 3.398 4.751"/><path fill="#606060" d="m334.636 49.91-.598 1.557-1.76-2.364z"/><path fill="#707070" d="m321.45 42.12-.319.36a.34.34 0 0 0-.087.227v1.482l-7.795-6.617V23.504z"/><path fill="#636363" d="M310.507 51.996a.346.346 0 0 1-.314.482h-1.139l1.383-.64zm10.537-5.048v5.187a.347.347 0 0 1-.343.343h-7.11a.343.343 0 0 1-.342-.343v-1.592z"/><path fill="#6d6d6d" d="m310.437 51.839-1.382.639h-6.413a.335.335 0 0 1-.314-.21l-.151-.336v-.006l3.276-11.623zm10.607-7.65v2.759l-7.795 3.595v-12.97z"/><path fill="#767676" d="m305.453 40.303-3.276 11.623-2.922-6.79a.335.335 0 0 0-.314-.21h-14.19a.35.35 0 0 0-.32.21l-.436 1.01-6.598-3.903.151-.343 12.558-3.822h5.594c.244 0 .412-.25.314-.477l-.5-1.167 7.308-2.225z"/><path fill="#797979" d="M290.106 38.078 277.548 41.9l.07-.169 10.966-6.22-.906 2.09a.34.34 0 0 0 .314.477zm12.716-3.868-7.308 2.224-1.673-3.91 6.628-3.758z"/><path fill="#757575" d="m283.996 46.146-2.632 6.123c0 .005-.006.005-.006.011l-4.089-9.741v-.006l.128-.29z"/><path fill="#7f7f7f" d="m300.469 28.766-6.628 3.759-1.655-3.863a.347.347 0 0 0-.633 0l-2.969 6.848-10.967 6.221 1.185-2.747.006-.017.012-.024.006-.005 12.128-21.4h4.438c.14 0 .262.081.314.21z"/><path fill="#868686" d="M273.365 27.401c.744 1.68 1.197 3.497 1.377 5.443zm17.589-9.863-12.128 21.4 9.154-21.19a.35.35 0 0 1 .314-.21z"/><path fill="#8a8a8a" d="M274.829 34.784q.002 3.662-1.208 6.756l-8.045-1.18c.871-1.649 1.307-3.496 1.307-5.553q.002-4.417-2.689-7.615l3.142-7.127a18 18 0 0 1 2.196 1.847q2.518 2.457 3.834 5.49l1.376 5.442v.012q.087.942.087 1.928"/><path fill="#7d7d7d" d="m265.896 44.874 7.028-1.777c-.842 1.643-1.969 3.16-3.375 4.536zm15.463 7.406a.34.34 0 0 1-.308.198h-5.1l-2.243-1.696 3.561-8.243z"/><path fill="#797979" d="m265.896 44.874 3.653 2.76-.017.017a19 19 0 0 1-1.911 1.638zm10.054 7.604h-2.451a.343.343 0 0 1-.313-.482l.522-1.215z"/><path fill="#868686" d="M273.621 41.54a15 15 0 0 1-.697 1.557l-7.028 1.777-2.318-1.8q.158-.156.308-.32a11.4 11.4 0 0 0 1.69-2.393z"/><path fill="#7d7d7d" d="M267.621 49.289q-4.253 3.181-9.863 3.497l8.138-7.912z"/><path fill="#919191" d="m267.336 20.065-3.142 7.127a5 5 0 0 0-.308-.36q-2.997-3.294-7.371-3.293-1.176 0-2.254.238l-1.935-6.628a20 20 0 0 1 4.159-.413c4.148 0 7.761 1.11 10.851 3.329"/><path fill="#858585" d="m265.896 44.874-8.138 7.912q-.628.042-1.273.04-5.792 0-10.217-2.892l.912-4.903 4.838-.04q2.031 1.037 4.496 1.039 2.553 0 4.636-1.115z"/><path fill="#929292" d="M254.261 23.777c-1.952.43-3.66 1.452-5.118 3.055q-2.919 3.207-2.997 7.703l-7.749-2.957-.18-.07.255-.383 7.604-11.362a17.2 17.2 0 0 1 6.244-2.614h.006z"/><path fill="#898989" d="M250.049 43.637a9.6 9.6 0 0 0 1.969 1.353l-4.838.04zm15.846 1.237-4.745.04a10 10 0 0 0 2.428-1.84z"/><path fill="#8f8f8f" d="m250.049 43.637-2.869 1.394-8.806-13.285v-.005l-.157-.233.18.07 7.749 2.957c-.006.093-.006.18-.006.273q-.002 4.67 3.003 7.946.436.481.906.883"/><path fill="#999" d="m246.076 19.763-7.604 11.362c.657-3.55 2.318-6.616 4.973-9.213a18.5 18.5 0 0 1 2.631-2.15"/><path fill="#898989" d="m224.735 52.478 13.337-4.427v4.084a.343.343 0 0 1-.343.343zm22.445-7.448-.912 4.904a18.5 18.5 0 0 1-2.823-2.283 17 17 0 0 1-.994-1.052z"/><path fill="#919191" d="M238.071 45.867v2.184l-13.336 4.427h-7.226l6.865-6.953h13.355c.191 0 .342.156.342.342m9.109-.837-4.729 1.57q-4.304-4.89-4.304-11.816 0-1.575.227-3.038z"/><path fill="#979797" d="m224.375 45.525-6.866 6.953h-1.784a.343.343 0 0 1-.342-.343v-.03l7.795-22.026v15.109c0 .186.151.337.343.337z"/><path fill="#9f9f9f" d="M223.178 17.88v1.947l-.198-2.254a.33.33 0 0 1 .198.308"/><path fill="#a6a6a6" d="M211.549 23.05a.354.354 0 0 1 .006.465l-4.386 4.973c-.133.156-.377.145-.511-.012-1.684-1.987-3.642-3.288-5.873-3.892l-1.707-7.778c4.879.39 9.038 2.475 12.471 6.245m7.348-5.513-3.514 3.572v-3.23a.34.34 0 0 1 .342-.342z"/><path fill="#a0a0a0" d="M223.178 19.827v8.417l-7.795 2.155V21.11l3.514-3.572h3.938a.3.3 0 0 1 .145.035z"/><path fill="#9b9b9b" d="M211.328 45.943a.35.35 0 0 1 .012.476 23 23 0 0 1-1.458 1.47l-3.363-6.686c.11-.018.22.011.302.099zm11.85-17.699v1.835l-7.795 22.027V30.399z"/><path fill="#999" d="M209.882 47.889c-2.469 2.283-5.176 3.781-8.132 4.49l.458-7.853q2.302-1.066 4.107-3.201a.37.37 0 0 1 .203-.122z"/><path fill="#9d9d9d" d="m202.209 44.526-.459 7.853q-.793.193-1.604.308h-.017l-10.7-1.4h-.005l-.006-.006h-.012a13 13 0 0 1-.714-.331l4.937-5.971q1.64.599 3.532.598 2.763.001 5.048-1.051"/><path fill="#a3a3a3" d="m193.629 44.979-4.938 5.971a19 19 0 0 1-.958-.517h-.006l-5.803-5.425s0-.006-.006-.006c0 0 0-.006-.005-.006v-.006a16.3 16.3 0 0 1-1.755-3.421l7.575-2.573a9.54 9.54 0 0 0 2.283 3.63q1.619 1.62 3.613 2.353"/><path fill="#aaa" d="m176.871 21.122 2.492-.755-.883 1.545zm23.914 3.462a11.5 11.5 0 0 0-3.072-.4q-4.402 0-7.523 2.875a13 13 0 0 0-.412.4l-7.197-3.531v-.006a19 19 0 0 1 1.76-1.987c3.549-3.462 7.888-5.198 13.023-5.198q.87 0 1.714.07z"/><path fill="#a9a9a9" d="m176.871 21.122 1.609.79-1.33 2.318zm10.194 13.686q-.001 2.307.668 4.188l-7.574 2.573q-1.14-3.039-1.139-6.663-.001-6.352 3.561-10.978l7.197 3.531c-1.813 1.87-2.713 4.322-2.713 7.348"/><path fill="#989898" d="M189.417 51.281h.006v.006zm10.712 1.406a18 18 0 0 1-2.591.186q-4.503 0-8.109-1.586z"/><path fill="#b1b1b1" d="m180.687 18.05-1.324 2.311-2.492.761-1.255-3.584h4.775a.34.34 0 0 1 .296.511"/><path fill="#9e9e9e" d="M168.884 48.284v.912l-1.766-1.174z"/><path fill="#9d9d9d" d="M168.884 49.196v2.939a.343.343 0 0 1-.343.343h-1.661l.238-4.456z"/><path fill="#a4a4a4" d="m167.118 48.022 1.766-.906v1.168zm20.609 2.411a17.7 17.7 0 0 1-3.485-2.655 17.3 17.3 0 0 1-2.318-2.77z"/><path fill="#aeaeae" d="m177.15 24.23-6.506 11.373-6.355-5.042.546-.406.279-.215.372-.273v-.006l.005-.006 11.38-8.533z"/><path fill="#ababab" d="m170.644 35.603-1.714 2.998a.35.35 0 0 0-.046.168v8.347l-1.766.906-2.829-17.46z"/><path fill="#b4b4b4" d="M164.69 30.021a.36.36 0 0 0 .145.134l-.546.406.285-.737zm12.181-8.899-11.38 8.533 6.942-11.948a.35.35 0 0 1 .296-.169h2.887z"/><path fill="#a2a2a2" d="m167.118 48.022-.238 4.456h-5.397z"/><path fill="#bcbcbc" d="M146.346 17.88v2.382l-4.746-2.724h4.403c.186 0 .343.151.343.343m18.053 11.646-.11 1.034-11.681-6.703-3.323-5.809a.343.343 0 0 1 .296-.51h7.662c.122 0 .232.063.296.167z"/><path fill="#b8b8b8" d="m164.574 29.824-.285.737.11-1.034z"/><path fill="#a9a9a9" d="m167.118 48.022-5.635 4.456h-.052a.343.343 0 0 1-.343-.343v-2.649z"/><path fill="#b0b0b0" d="M161.088 44.862V38.77a.35.35 0 0 0-.046-.168l-2.422-4.235 5.669-3.805 2.829 17.461z"/><path fill="#aeaeae" d="m144.952 52.478 1.94-4.206v3.863a.343.343 0 0 1-.343.343zm22.166-4.456-6.03 1.464v-4.624z"/><path fill="#b9b9b9" d="M146.346 20.262v3.88a.343.343 0 0 1-.343.343h-3.294l-3.787-6.947h2.678zm17.943 10.299-5.669 3.805-6.012-10.508z"/><path fill="#bfbfbf" d="M142.709 24.485h-3.462l-5.164-6.662.407-.285h4.432z"/><path fill="#b5b5b5" d="M146.892 45.92v2.352l-1.94 4.206h-2.661l-20.319-9.806 6.977-.755v3.317c0 .192.157.343.342.343h17.258c.192 0 .343.157.343.343"/><path fill="#bdbdbd" d="M139.247 24.485h-8.411l3.248-6.662zm5.35 7.54v5.96a.343.343 0 0 1-.342.343h-14.964a.347.347 0 0 0-.342.342v3.247l-6.977.756 6.977-14.313v2.98c0 .191.157.342.342.342h14.964c.186 0 .342.151.342.343"/><path fill="#b6b6b6" d="M142.291 52.478h-17.234l-3.085-9.806z"/><path fill="#c3c3c3" d="m134.084 17.823-3.248 6.662h-1.545a.343.343 0 0 0-.342.343v3.532l-6.977 14.313-.819-1.342V23.858z"/><path fill="#c9c9c9" d="m117.308 18.107-5.06 5.623-.935-6.192h5.739c.297 0 .453.349.256.57m16.776-.285-12.931 6.035v-5.977a.34.34 0 0 1 .343-.343h10.758z"/><path fill="#bbb" d="M113.892 46.965a1160 1160 0 0 0 3.242 4.543l-7.9-2.068zm11.165 5.513h-3.561a.343.343 0 0 1-.343-.343v-9.027l.819-.435z"/><path fill="#b6b6b6" d="M117.157 52.478h-7.011l-.912-3.038 7.9 2.068.302.424a.346.346 0 0 1-.279.546"/><path fill="#c1c1c1" d="M110.575 42.307q1.829 2.577 3.317 4.658l-4.658 2.475 1.219-7.308zm11.397.366-.819.435v-1.777z"/><path fill="#c6c6c6" d="m110.453 42.132-1.219 7.308-5.577-3.788-4.931-6.633a.344.344 0 0 0-.53-.03l-1.649 1.836-8.864-6.018 19.541-5.489-3.114 3.456a.34.34 0 0 0-.029.425q1.823 2.537 6.372 8.933"/><path fill="#b8b8b8" d="M110.146 52.478h-1.249a.34.34 0 0 1-.273-.14l-1.423-1.917 2.033-.981z"/><path fill="#cdcdcd" d="m91.145 18.764 3.834-.889v2.474zm21.103 4.966-2.463 2.736-7.12-2.943 5.407-5.875a.35.35 0 0 1 .255-.11l2.987.002z"/><path fill="#ccc" d="m109.786 26.466-2.562 2.846v.006l-19.54 5.49 3.461-16.044 3.834 1.585v10.654c0 .313.383.465.593.232l7.093-7.712z"/><path fill="#c2c2c2" d="m87.683 34.808 8.864 6.017-1.48 1.656a.34.34 0 0 0-.088.226v9.428a.343.343 0 0 1-.343.343h-.098zm21.551 14.632-2.033.981-3.544-4.769z"/><path fill="#c8c8c8" d="m76.676 36.382 7.162-1.023v8.307zm17.862 16.096H92.51l-5.326-5.414V34.877l.5-.07z"/><path fill="#c2c2c2" d="m76.676 36.382 7.162 7.284v8.115a.72.72 0 0 1-.715.72h-8.335zM92.51 52.478h-4.983a.343.343 0 0 1-.343-.343v-5.071z"/><path fill="#c7c7c7" d="M76.676 36.382 74.788 52.5h-10.02l-3.038-7.313z"/><path fill="#cecece" d="m76.676 36.382 7.162-8.72v7.697zm14.469-17.618-3.462 16.043-.5.07V23.585z"/><path fill="#d3d3d3" d="M83.838 18.224v9.439l-7.162 8.719-5.403-18.885h11.839c.4 0 .726.326.726.727m7.307.54-3.961 4.821v-5.663z"/><path fill="#c6c6c6" d="M64.768 52.5h-5.286l-1.37-1.962 3.618-5.35z"/><path fill="#d5d5d5" d="M76.676 36.382 56.85 28l10.427-10.504h3.996z"/><path fill="#d0d0d0" d="m56.85 28 4.88 17.188 14.946-8.806z"/><path fill="#bfbfbf" d="M59.482 52.5h-1.435l.064-1.962z"/><path fill="#d9d9d9" d="M67.277 17.497 56.85 28.001l-1.882-9.394 4.026-1.11z"/><path fill="#d4d4d4" d="m56.85 28-24.062 5.55 25.323 16.988z"/><path fill="#d0d0d0" d="m56.85 28 1.261 22.538 3.619-5.35z"/><path fill="#d9d9d9" d="M54.968 18.607 32.788 33.55 56.85 28z"/><path fill="#d8d8d8" d="m32.788 33.55-10.43 18.951h-5.942l-4.392-19.268z"/><path fill="#e2e2e2" d="M22.097 17.498 12.024 33.233 9.458 18.444l.36-.621s0-.012.006-.012a.66.66 0 0 1 .558-.314z"/><path fill="#d8d8d8" d="M16.416 52.5H10.38a.65.65 0 0 1-.563-.324l-8.66-14.998 10.867-3.945z"/><path fill="#e4e4e4" d="m12.024 33.233-7.017-7.075 4.45-7.714z"/><path fill="#dedede" d="M43.78 17.497H26.212l6.577 16.054 22.18-14.944-6.685-1.11zm-20.312 0h-1.371L12.024 33.233l20.764.318-6.577-16.054z"/><path fill="#c5c5c5" d="M53.283 52.5h4.764l.064-1.962z"/><path fill="#d0d0d0" d="M58.111 50.538 32.788 33.55l4.563 18.95h15.932z"/><path fill="#d1d1d1" d="M22.358 52.5H37.35l-4.562-18.95z"/><path fill="#c8c8c8" d="m134.49 17.538-.407.285-.197-.285z"/><path fill="#cbcbcb" d="m134.083 17.823-1.829-.285h1.632z"/><path fill="#d1d1d1" d="m94.979 17.875-3.834.889 1.052-1.226h2.44c.191 0 .336.145.342.337"/><path fill="#d7d7d7" d="m92.197 17.538-1.052 1.226-.215-1.226z"/><path fill="#d9d9d9" d="m91.145 18.764-3.961-.842v-.041a.34.34 0 0 1 .342-.343h3.404z"/><path fill="#ddd" d="m55.037 17.497-.069 1.11 4.026-1.11z"/><path fill="#e3e3e3" d="m48.283 17.497 6.685 1.11-.617-1.11z"/><path fill="#e2e2e2" d="m54.352 17.497.617 1.11.068-1.11z"/><path fill="#00b8e3" d="M36.775 17.8 26.99 34.74a.6.6 0 0 0-.07.277h-6.823L33.52 11.76a.53.53 0 0 1 .2.194l.018.018 3.043 5.286c.089.17.083.37-.005.541"/><path fill="#33c6e9" d="m36.763 52.824-3.038 5.262a.6.6 0 0 1-.206.194L20.092 35.023v-.006h6.829a.53.53 0 0 0 .064.265c0 .012.006.018.012.03l9.766 16.929c.105.182.105.4 0 .583"/><path fill="#008aaa" d="M33.52 11.76 20.098 35.017h-.005v.006l-3.368 5.833-3.214-5.574a.5.5 0 0 1-.064-.265.6.6 0 0 1 .07-.277l3.256-5.639 9.889-17.123a.57.57 0 0 1 .5-.295h6.069c.1 0 .206.03.288.077"/><path fill="#00b8e3" d="M33.52 58.28a.6.6 0 0 1-.29.077h-6.068a.57.57 0 0 1-.5-.294L17.62 42.41l-.895-1.555 3.367-5.833z"/><path fill="#008aaa" d="M60.515 35.017 47.082 58.281a.6.6 0 0 1-.2-.195l-.012-.017-3.043-5.275a.59.59 0 0 1 .005-.541l9.772-16.941a.57.57 0 0 0 .082-.295z"/><path fill="#00b8e3" d="M67.16 35.017a.57.57 0 0 1-.082.295l-13.15 22.774a.57.57 0 0 1-.49.27h-6.062a.6.6 0 0 1-.294-.075l13.432-23.264 3.368-5.827 3.196 5.538a.57.57 0 0 1 .082.29m-6.646-.001h-6.828c0-.1-.03-.2-.082-.289l-9.766-16.923a.57.57 0 0 1 0-.582l3.043-5.269a.6.6 0 0 1 .2-.194z"/><path fill="#33c6e9" d="M63.882 29.184v.005l-3.368 5.828L47.081 11.76a.6.6 0 0 1 .295-.077h6.063c.2 0 .389.106.489.271z"/><defs><linearGradient id="a" x1="-.784" x2="345.649" y1="35.516" y2="35.516" gradientUnits="userSpaceOnUse"><stop stop-color="#e6e7e8"/><stop offset="1" stop-color="#77787b"/></linearGradient></defs></svg>