<svg xmlns="http://www.w3.org/2000/svg" width="231" height="75" fill="none" viewBox="0 0 231 75"><g fill-rule="evenodd" clip-path="url(#a)" clip-rule="evenodd"><path fill="#043558" d="M211.723 50.57h10.807V33.95h-10.807zm10.747-23.148h8.299v30.864c0 5.104-.537 5.995-1.91 7.36-1.075 1.127-2.807 1.662-5.792 1.662h-12.12l-3.762-4.155v-1.721h15.285v-4.215h-10.449c-3.164 0-4.776-.593-6.09-1.899-1.731-1.78-2.448-5.639-2.448-12.94s.836-11.336 2.628-13.176c1.373-1.306 3.045-1.84 6.03-1.84l6.209.06 4.12 3.739zm-97.918-8.191h9.792l-14.091 17.806 14.688 20.121h-10.389L113.387 41.37h-2.627v15.788h-8.837V19.231h8.837v14.72h2.627zM189.035 36.8v-2.73h-10.151v22.97h-8.239V27.421h8.239v3.739l4.12-3.74h2.388c.359-.059.777-.059 1.195-.059h3.582c2.508 0 4.12.534 5.254 1.662 1.254 1.187 1.732 2.73 1.732 7.123v20.892h-8.24V37.156c.12-.119.12-.238.12-.356m-43.407 13.71h10.807V33.891h-10.807zm.358 6.53c-2.985 0-4.597-.475-5.851-1.84-1.91-1.96-2.687-4.63-2.687-13 0-8.428.777-11.04 2.687-13.057 1.254-1.306 2.866-1.78 5.851-1.78h10.031c2.985 0 4.597.474 5.851 1.78 1.911 2.018 2.687 4.63 2.687 13.058s-.776 11.04-2.687 12.998c-1.313 1.366-2.866 1.84-5.851 1.84z"/><path fill="#169fcc" d="m26.923 64.17 2.04-2.632h15.093l7.867 10.052L50.525 75H31.06l.466-3.41z"/><path fill="#14b59a" d="m31.538 29.898 7.288-12.59h8.493l38.066 44.215L82.433 75H66.111l1.024-3.783z"/><path fill="#1bc263" d="m40.385 14.916 3.49-6.454L54.342 0 72.28 14.063l-2.327 2.374 3.123 4.323v4.627l-8.939 7.305L49.14 14.916z"/><path fill="#16bdcc" d="M12.664 43.034h4.741L29.77 32.692l16.385 19.039-4.622 6.933H26.408l-10.443 13.28-2.4 3.056H0V58.723z"/></g><defs><clipPath id="a"><path fill="#fff" d="M0 0h230.769v75H0z"/></clipPath></defs></svg>