<svg xmlns="http://www.w3.org/2000/svg" width="121" height="32" fill="none" viewBox="0 0 121 32"><path fill="#121212" d="m51.232 15.36 6.216-8.16h-3.816l-5.76 7.416V7.2H44.56V24h3.312v-7.872l6 7.872h3.816zm19.496 7.152c1.224-1.224 1.848-2.736 1.848-4.512s-.624-3.264-1.848-4.488-2.736-1.848-4.512-1.848-3.288.624-4.512 1.848-1.825 2.712-1.825 4.488.6 3.288 1.825 4.512c1.224 1.224 2.735 1.824 4.512 1.824s3.288-.6 4.512-1.824m-6.84-2.136c-.6-.624-.913-1.416-.913-2.376s.313-1.752.913-2.376c.624-.624 1.392-.936 2.328-.936s1.704.312 2.328.936q.936.936.936 2.376t-.937 2.376c-.624.624-1.392.936-2.328.936s-1.704-.312-2.328-.936m17.957-.312L78.725 12H75.34l4.92 11.616c-.576 1.632-1.488 2.328-3.144 2.304v2.88c3.072.168 5.088-1.344 6.336-4.8l4.368-12h-3.312zm21.044-.792c.072-.456.12-.864.12-1.272 0-1.8-.576-3.288-1.728-4.512-1.128-1.224-2.592-1.824-4.344-1.824-1.848 0-3.384.6-4.56 1.824C91.2 14.688 90.6 16.2 90.6 18q0 2.736 1.8 4.536c1.2 1.2 2.784 1.8 4.776 1.8 2.304 0 4.056-.864 5.232-2.568l-2.496-1.44c-.6.792-1.512 1.2-2.688 1.2-1.848 0-2.976-.744-3.384-2.256zm-9.096-2.4c.36-1.536 1.488-2.424 3.144-2.424 1.416 0 2.616.792 2.976 2.424zm20.762-5.208c-1.68 0-2.976.576-3.888 1.752V7.2h-3.096V24h3.096v-1.416c.912 1.176 2.208 1.752 3.888 1.752 1.608 0 3-.6 4.128-1.824 1.152-1.224 1.728-2.736 1.728-4.512s-.576-3.264-1.728-4.488c-1.128-1.224-2.52-1.848-4.128-1.848m-2.952 8.784q-.936-.972-.936-2.448c0-.984.312-1.8.936-2.424.624-.648 1.416-.96 2.376-.96s1.752.312 2.376.96c.648.624.96 1.44.96 2.424s-.312 1.8-.96 2.448q-.936.936-2.376.936t-2.376-.936M17.145 7.778l16.165 9.308V9.318L17.134 0 1 9.329v7.777z"/><path fill="#121212" d="m30.725 26.446 2.585-1.52v-4.769L17.134 10.83 1 20.157v4.789l2.586 1.5 13.548-7.84z"/><path fill="#121212" d="M17.145 29.632 21.25 32l6.744-3.879-10.86-6.267L6.317 28.12 13.06 32z"/></svg>