<svg xmlns="http://www.w3.org/2000/svg" width="152" height="41" fill="none" viewBox="0 0 152 41"><g clip-path="url(#a)"><path fill="#326ce5" d="M42.458 20.5c0 2.236-1.369 4.228-2.022 6.244-.678 2.09-.765 4.503-2.03 6.244-1.279 1.758-3.553 2.58-5.31 3.86-1.739 1.266-3.216 3.184-5.305 3.863-2.016.655-4.328-.007-6.562-.007s-4.546.662-6.562.007c-2.09-.68-3.566-2.597-5.306-3.864-1.757-1.28-4.03-2.101-5.309-3.86-1.265-1.74-1.352-4.152-2.03-6.243C1.367 24.726 0 22.734 0 20.5s1.369-4.228 2.022-6.244c.678-2.09.765-4.503 2.03-6.244 1.279-1.757 3.552-2.58 5.31-3.859C11.1 2.887 12.577.97 14.666.29c2.016-.655 4.328.006 6.562.006S25.775-.365 27.79.29c2.09.679 3.566 2.597 5.306 3.863 1.756 1.28 4.03 2.102 5.308 3.86 1.266 1.74 1.353 4.152 2.03 6.243.654 2.016 2.023 4.008 2.023 6.244"/><path stroke="#fff" stroke-miterlimit="10" d="M4.071 18.137c2.451 0 2.451 1.156 4.902 1.156s2.45-1.156 4.902-1.156 2.45 1.156 4.901 1.156c2.452 0 2.451-1.156 4.902-1.156s2.451 1.156 4.902 1.156 2.45-1.156 4.902-1.156c2.45 0 2.45 1.156 4.902 1.156M4.071 20.449c2.451 0 2.451 1.156 4.902 1.156s2.45-1.156 4.902-1.156 2.45 1.156 4.901 1.156c2.452 0 2.451-1.156 4.902-1.156s2.451 1.156 4.902 1.156 2.45-1.156 4.902-1.156c2.45 0 2.45 1.156 4.902 1.156M4.071 23.224c2.451 0 2.451 1.156 4.902 1.156s2.45-1.156 4.902-1.156 2.45 1.156 4.901 1.156c2.452 0 2.451-1.156 4.902-1.156s2.451 1.156 4.902 1.156 2.45-1.156 4.902-1.156c2.45 0 2.45 1.156 4.902 1.156"/><path fill="#fff" d="M21.228 2.453c-9.96 0-18.033 8.08-18.033 18.047s8.074 18.047 18.033 18.047S39.26 30.469 39.26 20.5 31.187 2.453 21.228 2.453m-.005 34.524c-9.095 0-16.457-7.372-16.459-16.474 0-9.112 7.382-16.494 16.483-16.477 9.101.018 16.453 7.389 16.445 16.49s-7.374 16.463-16.469 16.46"/><path fill="#fff" d="M12.91 28.677c-.059-.2-.333-.398-.546-.371-.303.039-.604.089-.968.143l.362-.962c.1-.264-.115-.392-.25-.533-.135-.14-.241.037-.333.11-.49.388-.964.795-1.458 1.177-.234.18-.057.286.037.416.095.13.192.276.385.106.223-.196.459-.379.693-.569q.016.031.015.04c-.046.134-.097.267-.142.401-.094.285.088.492.387.445.124-.02.25-.057.398.006-.24.198-.449.383-.671.547-.184.136-.096.246.015.347.11.101.156.365.392.174q.796-.644 1.588-1.29c.055-.045.125-.086.095-.187M22.565 9.23c.377.155.527.084.605-.307q.024-.128.054-.253c.017-.068 0-.183.104-.169.105.014.239-.007.277.15.038.155.086.293.128.44.12.405.203.468.615.49.155.007.19-.045.148-.183-.064-.22-.12-.444-.19-.663-.03-.1-.057-.159.08-.216.334-.141.424-.444.448-.756 0-.385-.231-.666-.663-.782-.352-.094-.712-.152-1.068-.231-.133-.03-.2.025-.224.152q-.206 1.042-.41 2.09c-.018.093-.03.185.096.237m1.013-1.793c.292-.03.573.14.57.312-.003.173-.104.257-.3.262-.12-.101-.4.064-.442-.195-.017-.109-.057-.353.172-.376zm-4.817 24.41c-.164-.053-.332-.121-.39.152-.062.3-.158.592-.258.954-.151-.452-.292-.84-.41-1.234-.076-.258-.297-.256-.483-.29-.205-.033-.168.174-.2.29-.174.599-.323 1.206-.509 1.801-.091.294.125.267.27.318.153.052.316.115.374-.139.07-.305.163-.604.257-.945.039.09.065.14.083.194.116.346.237.69.347 1.037.08.256.31.24.494.266.185.026.147-.173.177-.278.173-.6.32-1.208.509-1.802.086-.288-.114-.275-.261-.324m13.914-3.656c-.19-.028-.376-.084-.566-.102-.157-.014-.196-.068-.202-.23-.012-.405-.378-.737-.776-.742-.273-.008-.482.13-.65.322-.208.238-.387.502-.597.74-.142.163-.124.264.046.391q.761.573 1.498 1.174c.173.139.26.124.388-.05.231-.315.24-.307-.07-.549-.069-.053-.14-.103-.203-.162-.048-.046-.167-.064-.1-.169.054-.083.101-.193.24-.165.14.028.29.032.424.082.31.115.503-.006.672-.263.111-.167.117-.246-.104-.277m-1.733.313c-.044.004-.355-.263-.352-.302.008-.102.363-.442.462-.442.134.026.232.093.243.24.006.09-.288.499-.353.505M18.314 9.287c.02.115.058.208.201.185.52-.09 1.044-.168 1.56-.276.273-.057.085-.263.088-.404.003-.151-.08-.197-.227-.168-.282.055-.569.092-.852.149-.146.028-.185-.039-.199-.164-.012-.112-.028-.198.133-.216.239-.026.472-.093.71-.119.259-.028.211-.19.184-.354-.028-.164-.063-.3-.29-.237-.211.058-.436.067-.65.121-.15.038-.223.03-.254-.147-.034-.19.07-.205.205-.225.237-.035.473-.081.71-.116.153-.023.27-.065.208-.256-.049-.154.021-.397-.296-.331a17 17 0 0 1-1.362.231c-.219.028-.249.126-.216.307zm7.707 22.832a5 5 0 0 1-.515.178c-.145.046-.25.105-.163.289.069.142.05.378.325.268.05-.02.104-.067.153-.006s.016.134-.008.192c-.07.166-.218.237-.384.266s-.303-.05-.385-.195a1.9 1.9 0 0 1-.231-.647c-.054-.337.267-.632.572-.485.252.121.441.024.655-.038.146-.043.147-.13.063-.236-.196-.247-.463-.325-.765-.338a1.3 1.3 0 0 0-.867.324c-.288.26-.404.588-.288.963.146.49.23 1.04.84 1.202.468.123.88-.022 1.214-.354.36-.36.272-.78.115-1.209-.069-.183-.136-.26-.33-.174m3.582-1.092c-.212.165-.442.307-.654.472-.115.09-.173.062-.247-.046-.075-.11-.098-.174.026-.255.193-.127.377-.266.564-.4.061-.044.135-.08.128-.186a.8.8 0 0 0-.242-.335c-.107-.076-.19.04-.274.097-.174.12-.355.232-.517.367-.134.112-.173.01-.24-.07-.08-.093-.08-.15.031-.224.217-.141.417-.308.636-.445.179-.113.14-.221.035-.35-.093-.117-.15-.29-.355-.134-.376.281-.764.549-1.149.82-.121.084-.126.169-.041.288q.596.831 1.186 1.667c.072.1.142.14.26.054q.593-.433 1.195-.852c.19-.131.075-.24-.006-.36-.08-.118-.158-.248-.336-.108m-14.921-.938c-.081-.058-.167-.03-.24.026q-.876.682-1.751 1.367c-.077.057-.135.142-.024.204.205.116.392.405.664.1a.09.09 0 0 1 .126-.028l.653.424c.058.04.038.1.032.157-.031.248.14.528.387.541.258.013.136-.259.217-.387a.2.2 0 0 0 .02-.054l.462-1.9c-.064-.249-.35-.301-.546-.45m-.37 1.545c-.451-.266-.451-.266-.085-.558l.259-.2a3.3 3.3 0 0 1-.174.758m-.376-21.032c.289.401.732.52 1.203.347.488-.177.866-.655.846-1.091a1.2 1.2 0 0 0-.071-.306.12.12 0 0 0-.123-.1c-.168 0-.476.3-.478.48-.003.242-.158.363-.351.44-.183.074-.347 0-.455-.151a4 4 0 0 1-.343-.564c-.08-.166-.066-.347.085-.476.15-.129.337-.216.552-.099.15.083.555-.057.64-.204.059-.093-.015-.146-.062-.198a.8.8 0 0 0-.624-.27c-.773.002-1.376.598-1.294 1.249.046.366.273.655.475.943m8.207 21.956c-.196-.51-.33-.578-.855-.463a.22.22 0 0 0-.189.152q-.33 1.054-.656 2.113c-.019.062-.047.135.027.183.158.104.572-.042.643-.225.03-.076.03-.17.157-.167q.346.006.693-.01.125-.008.147.1c.045.232.183.3.375.25.39-.01.392-.01.264-.346zm-.61 1.044c-.174 0-.2-.048-.147-.195.063-.18.115-.365.189-.6l.187.48c.12.323.117.312-.23.315M27.22 10.91c.136.074.265.27.42.01.207-.347.43-.681.645-1.022.259-.41.266-.421.682-.16.221.14.28-.01.372-.145.1-.145.139-.255-.057-.37a29 29 0 0 1-1.36-.863c-.19-.126-.283-.093-.405.095-.135.206-.108.316.102.427.12.064.257.123.34.243-.042.069-.077.127-.115.183-.262.414-.516.833-.787 1.24-.146.225.023.284.164.362m.545 12.588-.443-1.817a.185.185 0 0 0-.308-.09l-1.428 1.368a.177.177 0 0 0 .073.297q.079.024.158.04c.115.026.104.064.05.146a3.8 3.8 0 0 1-1.155 1.132l-.012.007c-.398.19-.82.325-1.253.404a9 9 0 0 1-1.36.158.11.11 0 0 1-.101-.066.1.1 0 0 1-.008-.042v-6.382a.06.06 0 0 1 .018-.044.06.06 0 0 1 .044-.018c.058 0 .128.011.298.01.332-.004.679-.004 1.013-.023.108-.007.17-.003.238.049a.713.713 0 0 0 1.155-.558.72.72 0 0 0-.183-.486.71.71 0 0 0-.962-.091.24.24 0 0 1-.147.062q-.698-.003-1.394 0a.1.1 0 0 1-.08-.021v-.73q0-.038.024-.068a.4.4 0 0 1 .116-.081c.75-.382 1.14-1.009 1.14-1.843 0-1.32-1.286-2.28-2.558-1.934-1.009.274-1.664 1.276-1.474 2.299.14.751.582 1.277 1.3 1.556q.041.015.077.038a.1.1 0 0 1 .041.085v.597a.1.1 0 0 1-.03.073.1.1 0 0 1-.073.03q-.75-.008-1.503 0a.32.32 0 0 1-.19-.065.707.707 0 0 0-.96.098.716.716 0 0 0 .966 1.045.3.3 0 0 1 .19-.062c.485 0 .97.007 1.455 0a.2.2 0 0 1 .125.026.06.06 0 0 1 .018.044v6.349a.1.1 0 0 1-.034.078.1.1 0 0 1-.081.028 11 11 0 0 1-1.746-.29 5.4 5.4 0 0 1-1.038-.367 3.9 3.9 0 0 1-1.128-1.236.08.08 0 0 1 .057-.125l.154-.031a.177.177 0 0 0 .134-.213.2.2 0 0 0-.042-.081l-1.344-1.466a.173.173 0 0 0-.296.066l-.589 1.869a.195.195 0 0 0 .127.243q.05.015.1.004l.105-.024a.296.296 0 0 1 .329.153c.772 1.503 1.935 2.59 3.472 3.278.601.269.84.347 1.358.426a.1.1 0 0 1 .058.03l.79.783a.283.283 0 0 0 .395 0l.767-.752a.1.1 0 0 1 .065-.03c.768-.072 1.11-.262 1.938-.64 1.28-.587 2.295-1.606 2.95-2.852.057-.111.108-.125.206-.091l.115.036a.237.237 0 0 0 .301-.288m-6.59-7.621a1.024 1.024 0 0 1-.987-1.07c.027-.604.53-1.05 1.097-1.007.597.046 1.009.527.979 1.08-.033.603-.526 1.039-1.09.997"/><path fill="#326ce5" d="M55.648 25.112q-1.204 0-2.17-.49a3.83 3.83 0 0 1-1.498-1.386q-.532-.882-.532-2.002t.532-2.002a3.73 3.73 0 0 1 1.498-1.372q.966-.504 2.17-.504 1.19 0 2.072.504a2.9 2.9 0 0 1 1.302 1.414l-1.694.91q-.588-1.035-1.694-1.036-.854 0-1.414.56t-.56 1.526.56 1.526 1.414.56q1.12 0 1.694-1.036l1.694.924a3 3 0 0 1-1.302 1.4q-.882.504-2.072.504m11.914-3.85q0 .042-.042.588h-5.698q.153.7.728 1.106.573.406 1.428.406.588 0 1.036-.168.462-.182.854-.56l1.162 1.26q-1.065 1.218-3.108 1.218-1.274 0-2.254-.49-.981-.504-1.512-1.386-.532-.882-.532-2.002 0-1.106.518-1.988a3.7 3.7 0 0 1 1.442-1.386 4.2 4.2 0 0 1 2.058-.504q1.105 0 2.002.476a3.4 3.4 0 0 1 1.4 1.372q.518.882.518 2.058m-3.906-2.254q-.742 0-1.246.42-.505.42-.616 1.148h3.71q-.112-.714-.616-1.134-.504-.434-1.232-.434m7.446-.546q.392-.547 1.05-.826.672-.28 1.54-.28v2.016a8 8 0 0 0-.49-.028q-.938 0-1.47.532-.532.518-.532 1.568V25h-2.184v-7.532h2.086zm9.006 6.174q-.322.238-.798.364a4.2 4.2 0 0 1-.98.112q-1.344 0-2.086-.686-.728-.686-.728-2.016v-3.094h-1.162v-1.68h1.162v-1.834H77.7v1.834h1.876v1.68H77.7v3.066q0 .476.238.742.252.252.7.252.519 0 .882-.28zm.81-4.452h3.961v1.75h-3.962zm15.326-2.828q1.414 0 2.24.84.84.825.84 2.492V25H97.14v-3.976q0-.895-.378-1.33-.364-.448-1.05-.448-.771 0-1.218.504-.448.49-.448 1.47V25h-2.184v-3.976q0-1.778-1.428-1.778-.757 0-1.204.504-.448.49-.448 1.47V25h-2.184v-7.532h2.086v.868q.42-.476 1.022-.728.615-.252 1.344-.252.798 0 1.442.322.644.308 1.036.91a3.1 3.1 0 0 1 1.162-.91 3.7 3.7 0 0 1 1.554-.322m8.075 0q1.75 0 2.688.84.939.825.938 2.506V25h-2.044v-.938q-.616 1.05-2.296 1.05-.867 0-1.512-.294a2.25 2.25 0 0 1-.966-.812 2.1 2.1 0 0 1-.336-1.176q0-1.05.784-1.652.798-.602 2.45-.602h1.736q0-.714-.434-1.092-.433-.392-1.302-.392-.602 0-1.19.196-.573.182-.98.504l-.784-1.526q.617-.434 1.47-.672a6.7 6.7 0 0 1 1.778-.238m-.168 6.286q.56 0 .994-.252.435-.266.616-.77v-.77h-1.498q-1.344 0-1.344.882 0 .42.322.672.337.238.91.238m10.349-6.286q1.4 0 2.254.84.868.84.868 2.492V25h-2.184v-3.976q0-.895-.392-1.33-.391-.448-1.134-.448-.826 0-1.316.518-.49.504-.49 1.512V25h-2.184v-7.532h2.086v.882q.434-.476 1.078-.728a3.7 3.7 0 0 1 1.414-.266m8.14 0q1.749 0 2.688.84.938.825.938 2.506V25h-2.044v-.938q-.616 1.05-2.296 1.05-.868 0-1.512-.294a2.25 2.25 0 0 1-.966-.812 2.1 2.1 0 0 1-.336-1.176q0-1.05.784-1.652.797-.602 2.45-.602h1.736q0-.714-.434-1.092-.435-.392-1.302-.392-.603 0-1.19.196-.575.182-.98.504l-.784-1.526q.615-.434 1.47-.672a6.7 6.7 0 0 1 1.778-.238m-.168 6.286q.56 0 .994-.252.433-.266.616-.77v-.77h-1.498q-1.344 0-1.344.882 0 .42.322.672.336.238.91.238m13.622-6.174v6.272q0 2.072-1.078 3.08-1.077 1.008-3.15 1.008a8 8 0 0 1-2.072-.266q-.98-.266-1.624-.77l.868-1.568q.477.392 1.204.616.729.238 1.456.238 1.135 0 1.666-.518.546-.505.546-1.54v-.322q-.853.938-2.38.938-1.035 0-1.904-.448a3.53 3.53 0 0 1-1.358-1.288q-.504-.825-.504-1.904t.504-1.904 1.358-1.274a4 4 0 0 1 1.904-.462q1.638 0 2.492 1.078v-.966zm-4.13 5.376q.868 0 1.414-.504.56-.517.56-1.344 0-.825-.56-1.33-.546-.518-1.414-.518t-1.428.518q-.56.505-.56 1.33t.56 1.344q.561.504 1.428.504m13.541-1.582q0 .042-.042.588h-5.698q.154.7.728 1.106.575.406 1.428.406.588 0 1.036-.168.462-.182.854-.56l1.162 1.26q-1.064 1.218-3.108 1.218-1.274 0-2.254-.49a3.7 3.7 0 0 1-1.512-1.386q-.532-.882-.532-2.002 0-1.106.518-1.988a3.7 3.7 0 0 1 1.442-1.386 4.2 4.2 0 0 1 2.058-.504q1.106 0 2.002.476a3.4 3.4 0 0 1 1.4 1.372q.518.882.518 2.058m-3.906-2.254q-.742 0-1.246.42t-.616 1.148h3.71q-.112-.714-.616-1.134-.504-.434-1.232-.434m7.446-.546q.393-.547 1.05-.826.672-.28 1.54-.28v2.016a8 8 0 0 0-.49-.028q-.937 0-1.47.532-.532.518-.532 1.568V25h-2.184v-7.532h2.086z"/></g><defs><clipPath id="a"><path fill="#fff" d="M0 0h152v41H0z"/></clipPath></defs></svg>