<svg xmlns="http://www.w3.org/2000/svg" xml:space="preserve" id="Layer_1" x="0" y="0" viewBox="0 0 601 186"><style>.st6{fill:#fff}.st7{fill:#2c256c}.st8{fill:#5b2d82}.st14{fill:#623393}</style><path d="M279.3 73.3c9.2 0 16 3.1 21.9 8.4.5.5.5 1.2.1 1.6l-1.4 1.5c-.5.5-1 .5-1.5-.1-5.1-4.6-11.6-7.4-19-7.4-15.8 0-28.1 12.9-28.1 28.5 0 15.5 12.3 28.3 28.1 28.3 7.7 0 13.6-3.1 19-7.6.5-.4 1.1-.4 1.4-.2l1.5 1.5c.4.4.4 1.1 0 1.5-6.1 5.9-14 8.7-22 8.7-18 0-32.6-14.2-32.6-32.3 0-17.9 14.6-32.4 32.6-32.4m48.3 27.1c10.1 0 18.1 8.6 18.1 18.8 0 10.5-8 19-18.1 19-10.2 0-18.1-8.5-18.1-19 0-10.3 7.9-18.8 18.1-18.8m0 34.1c7.9 0 14.1-6.8 14.1-15.3 0-8.3-6.2-15-14.1-15-8 0-14.2 6.8-14.2 15 0 8.5 6.2 15.3 14.2 15.3m29.1-32.1c0-.6.5-1.2 1.2-1.2h1.1c.5 0 1 .4 1.1 1l.4 3.7c.9-1.3 4.5-5.6 11.3-5.6 2.9 0 4.9.8 5.6 1.1.8.3 1.3.9 1 1.6l-.7 1.8c-.3.6-.8.7-1.4.4-.4-.2-2.3-1.1-4.7-1.1-7 0-10.4 5.7-10.7 6.2V136c0 .7-.4 1.2-1.2 1.2h-1.8c-.6 0-1-.5-1-1.2v-33.6zm44-2c9.5 0 16.3 6.9 16.3 16.5 0 1.4 0 3.5-1.4 3.5H387c.4 7.7 5.9 14.2 14.1 14.2 4.8 0 8.5-1.9 10.6-3.3.8-.5 1.2-.6 1.6 0l.9 1.3c.3.4.2.9-.4 1.4-1.8 1.8-7.5 4.2-13.1 4.2-11 0-17.7-8.5-17.7-19 0-10.3 6.8-18.8 17.7-18.8m12.4 16.7c0-7-4.2-13.1-12.3-13.1-7.9 0-13.2 5.8-13.7 13.1z" style="fill:#434343"/><path d="M428.9 75.4c0-.6.5-1.2 1.1-1.2h19.1c17.5 0 31.7 14.1 31.7 31.4 0 17.6-14.2 31.6-31.7 31.6H430c-.5 0-1.1-.5-1.1-1.2zm19.5 58c15.8 0 27.9-12 27.9-27.7 0-15.6-12.2-27.6-27.9-27.6h-15.2v55.3zm47-58.9c0-.7.6-1.2 1.4-1.2h1.5l43.2 56.3h.1V75.4c0-.6.5-1.2 1.2-1.2h1.8c.6 0 1.2.5 1.2 1.2V137c0 .8-.7 1.2-1.4 1.2h-1.2c-.1 0-.8-.3-43.6-56.8h-.1v54.8c0 .6-.5 1.2-1.2 1.2h-1.7c-.6 0-1.2-.5-1.2-1.2zm65.7 54.4.8-1.1c.6-.7 1.3-1 2-.4.9.8 7.6 6.9 16.7 6.9 8.2 0 15.1-5.5 15.1-12.1 0-8-6.6-11.6-17.5-15.3-10.4-3.7-17.4-7.4-17.4-17.7 0-6.8 5.4-15.9 19.5-15.9 8.9 0 15.5 4.6 15.5 4.6.4.3 1 .9.4 1.9-.3.4-.5.8-.7 1.2-.5.7-1.1 1-2 .4-.3-.2-6.3-4.2-13.2-4.2-11.1 0-15.2 6.8-15.2 12 0 7.7 5.9 11 15 14 12.3 4.2 20.2 8.6 20.2 19 0 9-9.3 16-19.6 16-10.7 0-17.9-6.3-19.1-7.4-.8-.4-1.2-.9-.5-1.9" style="fill:#9a9a9a"/><linearGradient id="SVGID_1_" x1="29.455" x2="135.317" y1="58.694" y2="164.56" gradientTransform="matrix(1 0 0 -1 0 185.89)" gradientUnits="userSpaceOnUse"><stop offset="0" style="stop-color:#623393"/><stop offset=".574" style="stop-color:#452b7c"/><stop offset="1" style="stop-color:#2c256c"/></linearGradient><path d="M58.7 97.3c-1.5 1.5-2.7 3.1-3.6 4.9.9-1.7 2.1-3.4 3.6-4.9" style="fill:url(#SVGID_1_)"/><linearGradient id="SVGID_00000171721757184609866680000017989318805670967965_" x1="43.806" x2="149.669" y1="44.343" y2="150.209" gradientTransform="matrix(1 0 0 -1 0 185.89)" gradientUnits="userSpaceOnUse"><stop offset="0" style="stop-color:#623393"/><stop offset=".574" style="stop-color:#452b7c"/><stop offset="1" style="stop-color:#2c256c"/></linearGradient><path d="M119.5 54.3c2.8 0 5.5 1 7.6 3.1l6.2 6.2-6.2-6.2c-2.1-2-4.9-3.1-7.6-3.1" style="fill:url(#SVGID_00000171721757184609866680000017989318805670967965_)"/><linearGradient id="SVGID_00000031930411237919248360000013991796893422666936_" x1="23.631" x2="129.494" y1="64.518" y2="170.384" gradientTransform="matrix(1 0 0 -1 0 185.89)" gradientUnits="userSpaceOnUse"><stop offset="0" style="stop-color:#754fa0"/><stop offset=".181" style="stop-color:#6e4a99"/><stop offset=".457" style="stop-color:#5c3f8b"/><stop offset=".791" style="stop-color:#413079"/><stop offset="1" style="stop-color:#2c256c"/></linearGradient><path d="M58.6 61.8c6.9-6.9 18.2-6.9 25.1 0l5.2 5.2 16.2-16.2c7.9-7.9 20.7-7.9 28.5 0l6.2 6.2 15.6-15.6-34-34c-9.8-9.8-25.8-9.8-35.6 0L15.7 77.7C7.4 86 6.2 98.8 12 108.5l.2-.2z" style="fill:url(#SVGID_00000031930411237919248360000013991796893422666936_)"/><linearGradient id="SVGID_00000111182748153749579370000005785062810590405270_" x1="74.051" x2="179.914" y1="14.239" y2="120.106" gradientTransform="matrix(1 0 0 -1 0 185.89)" gradientUnits="userSpaceOnUse"><stop offset="0" style="stop-color:#754fa0"/><stop offset=".181" style="stop-color:#6e4a99"/><stop offset=".457" style="stop-color:#5c3f8b"/><stop offset=".791" style="stop-color:#413079"/><stop offset="1" style="stop-color:#2c256c"/></linearGradient><path d="M150.3 122.9c-6.9 6.9-18.2 6.9-25.1 0l-6.2-6.2-20.5 20.5c-7.9 7.9-20.7 7.9-28.5 0l-5.3-5.3-15.2 15.2 31.3 31.3c9.8 9.8 25.8 9.8 35.6 0l70.2-70.2c7.3-7.3 9.2-18.1 5.6-27.2l-2.3 2.3z" style="fill:url(#SVGID_00000111182748153749579370000005785062810590405270_)"/><path d="M91.9 130.6c-1.1 1.1-2.3 1.8-3.6 2.4-1.3.5-2.7.8-4.1.8-2.8 0-5.5-1-7.6-3.2l-5.3-5.3-6.1-6.1c-2.1-2.1-3.1-4.9-3.1-7.6 0-1.4.3-2.8.8-4.1s1.3-2.5 2.4-3.6l30.3-30.3 16.2-16.2c1.6-1.6 3.5-2.6 5.6-3 .7-.1 1.4-.2 2.1-.2 2.8 0 5.5 1 7.6 3.1l6.2 6.2 6.7-6.7-6.2-6.2c-7.9-7.9-20.7-7.9-28.5 0L88.9 67 58.6 97.3c-1.5 1.5-2.7 3.1-3.6 4.9-.3.6-.6 1.2-.8 1.8-2.2 5.5-1.9 11.7.8 17 .9 1.8 2.1 3.4 3.6 4.9l6.1 6.1 5.3 5.3c7.9 7.9 20.7 7.9 28.5 0l20.5-20.5-6.7-6.7z" class="st6"/><path d="m190 83.3 2.3-2.3c-.8-2.1-2-4.1-3.4-5.9.5 2.7.8 5.4 1.1 8.2" class="st7"/><path d="m12.2 108.3-.2.2c.1.2.3.5.4.7-.1-.3-.1-.6-.2-.9" class="st8"/><linearGradient id="SVGID_00000168795818460302226060000009790636770565612439_" x1="49.181" x2="155.044" y1="38.969" y2="144.835" gradientTransform="matrix(1 0 0 -1 0 185.89)" gradientUnits="userSpaceOnUse"><stop offset="0" style="stop-color:#623393"/><stop offset=".574" style="stop-color:#452b7c"/><stop offset="1" style="stop-color:#2c256c"/></linearGradient><path d="m112.2 84.8 21.1-21.1-6.2-6.2c-2.1-2.1-4.9-3.1-7.6-3.1-.7 0-1.4.1-2.1.2-2 .4-4 1.4-5.6 3L95.6 73.8l1.2 1.2c6.9 6.9 6.9 18.2 0 25.1l-25.4 25.4 5.3 5.3c2.1 2.1 4.9 3.2 7.6 3.2 1.4 0 2.8-.3 4.1-.8q1.95-.75 3.6-2.4l20.5-20.5-.2-.2c-7-7.1-7-18.3-.1-25.3" style="fill:url(#SVGID_00000168795818460302226060000009790636770565612439_)"/><linearGradient id="SVGID_00000120519147606066619760000002053137482117796759_" x1="39.144" x2="166.282" y1="28.932" y2="156.073" gradientTransform="matrix(1 0 0 -1 0 185.89)" gradientUnits="userSpaceOnUse"><stop offset="0" style="stop-color:#754fa0"/><stop offset=".181" style="stop-color:#6e4a99"/><stop offset=".457" style="stop-color:#5c3f8b"/><stop offset=".791" style="stop-color:#413079"/><stop offset="1" style="stop-color:#2c256c"/></linearGradient><path d="m112.2 84.8 21.1-21.1-6.2-6.2c-2.1-2.1-4.9-3.1-7.6-3.1-.7 0-1.4.1-2.1.2-2 .4-4 1.4-5.6 3L95.6 73.8l1.2 1.2c6.9 6.9 6.9 18.2 0 25.1l-25.4 25.4 5.3 5.3c2.1 2.1 4.9 3.2 7.6 3.2 1.4 0 2.8-.3 4.1-.8q1.95-.75 3.6-2.4l20.5-20.5-.2-.2c-7-7.1-7-18.3-.1-25.3" style="fill:url(#SVGID_00000120519147606066619760000002053137482117796759_)"/><path d="M91.9 130.6c-1 1-2.3 1.8-3.6 2.4q2.1-.9 3.6-2.4" class="st6"/><linearGradient id="SVGID_00000044158863438242645540000017723789408818625187_" x1="52.044" x2="179.181" y1="16.033" y2="143.174" gradientTransform="matrix(1 0 0 -1 0 185.89)" gradientUnits="userSpaceOnUse"><stop offset="0" style="stop-color:#623393"/><stop offset=".574" style="stop-color:#452b7c"/><stop offset="1" style="stop-color:#2c256c"/></linearGradient><path d="M91.9 130.6c-1 1-2.3 1.8-3.6 2.4q2.1-.9 3.6-2.4" style="fill:url(#SVGID_00000044158863438242645540000017723789408818625187_)"/><path d="m71.4 125.3 5.3 5.3c2.1 2.1 4.9 3.2 7.6 3.2-2.8 0-5.5-1-7.6-3.2z" class="st6"/><linearGradient id="SVGID_00000104669809416299049000000001181802159645112251_" x1="44.794" x2="171.931" y1="23.282" y2="150.424" gradientTransform="matrix(1 0 0 -1 0 185.89)" gradientUnits="userSpaceOnUse"><stop offset="0" style="stop-color:#623393"/><stop offset=".574" style="stop-color:#452b7c"/><stop offset="1" style="stop-color:#2c256c"/></linearGradient><path d="m71.4 125.3 5.3 5.3c2.1 2.1 4.9 3.2 7.6 3.2-2.8 0-5.5-1-7.6-3.2z" style="fill:url(#SVGID_00000104669809416299049000000001181802159645112251_)"/><path d="M111.8 57.5c1.6-1.6 3.5-2.6 5.6-3-2 .4-4 1.4-5.6 3" class="st6"/><linearGradient id="SVGID_00000035509388541574982190000016645153972802625718_" x1="26.395" x2="153.532" y1="41.681" y2="168.823" gradientTransform="matrix(1 0 0 -1 0 185.89)" gradientUnits="userSpaceOnUse"><stop offset="0" style="stop-color:#623393"/><stop offset=".574" style="stop-color:#452b7c"/><stop offset="1" style="stop-color:#2c256c"/></linearGradient><path d="M111.8 57.5c1.6-1.6 3.5-2.6 5.6-3-2 .4-4 1.4-5.6 3" style="fill:url(#SVGID_00000035509388541574982190000016645153972802625718_)"/><path d="M15.7 113.3c-1.3-1.3-2.4-2.6-3.3-4.1-.1-.2-.3-.5-.4-.7l-6.7 6.7c-6.9 6.9-6.9 18.2 0 25.1l13 13c5.6 5.6 14 6.7 20.6 3.2 1.6-.8 3.1-1.9 4.4-3.2l4.2-4.2 1.5-1.5.5-.5z" class="st7"/><path d="M58.7 125.9c-1.5-1.5-2.7-3.1-3.6-4.9-2.8-5.3-3-11.5-.8-17 .2-.6.5-1.2.8-1.8.9-1.8 2.1-3.4 3.6-4.9L88.9 67l-5.2-5.2c-6.9-6.9-18.2-6.9-25.1 0l-46.4 46.4c.1.3.1.6.2.9.9 1.5 2 2.8 3.3 4.1l33.9 33.9L64.8 132z" class="st8"/><path d="M54.2 104c-2.2 5.5-1.9 11.7.8 17-2.7-5.3-3-11.5-.8-17m17.2 21.3 25.4-25.4c6.9-6.9 6.9-18.2 0-25.1l-1.2-1.2L65.3 104c-1 1-1.8 2.3-2.4 3.6s-.8 2.7-.8 4.1c0 2.8 1 5.5 3.1 7.6z" class="st8"/><path d="M65.3 119.2c-2.1-2.1-3.1-4.9-3.1-7.6 0 2.8 1 5.5 3.1 7.6l6.1 6.1zm0-15.2c-1.1 1.1-1.8 2.3-2.4 3.6q.9-2.1 2.4-3.6" class="st8"/><path d="m133.3 63.7-21.1 21.1c-6.9 6.9-6.9 18.2 0 25.1l.2.2 26-26c1.6-1.6 2.6-3.5 3-5.6.1-.7.2-1.4.2-2.1 0-2.8-1-5.5-3.1-7.6z" class="st7"/><path d="M138.4 84.1c1.6-1.6 2.6-3.5 3-5.6-.4 2-1.4 4-3 5.6" class="st7"/><path d="M138.4 68.8c2.1 2.1 3.2 4.9 3.1 7.6.1-2.7-1-5.5-3.1-7.6l-5.1-5.1zm6.7 21.9c2-2 3.4-4.2 4.4-6.7-1 2.5-2.4 4.8-4.4 6.7" class="st14"/><path d="M149.5 84c.2-.6.5-1.2.6-1.8 2-6.9.3-14.6-5.1-20l-5.1-5.1-6.7 6.7 5.1 5.1c2.1 2.1 3.2 4.9 3.1 7.6 0 .7-.1 1.4-.2 2.1-.4 2-1.4 4-3 5.6l-26 26 6.7 6.7 26-26c2.2-2.1 3.6-4.4 4.6-6.9m54.2-39.5-13-13c-6.5-6.5-16.8-6.9-23.8-1.2-.4.4-.9.7-1.3 1.2l-8.4 8.4-1.5 1.5 31.1 31.1c.8.8 1.5 1.7 2.2 2.5 1.4 1.8 2.5 3.8 3.4 5.9l11.4-11.4c6.8-6.8 6.8-18-.1-25" class="st14"/><path d="M145.1 62.2c5.4 5.4 7.1 13.2 5.1 20l-.6 1.8c-1 2.4-2.5 4.7-4.4 6.7l-26 26 6.2 6.2c6.9 6.9 18.2 6.9 25.1 0L190 83.3c-.2-2.7-.6-5.5-1.1-8.2-.7-.9-1.4-1.7-2.2-2.5l-31.1-31.1L140 57.1z" class="st7"/><path d="M145.1 62.2c5.4 5.4 7.1 13.2 5.1 20 2-6.9.3-14.6-5.1-20l-5.1-5.1z" class="st7"/></svg>