<svg xmlns="http://www.w3.org/2000/svg" xml:space="preserve" viewBox="0 0 318 361"><path d="M300.475 326.571h2.296v-5.115h1.817c1.201 0 2.063.117 2.552.426.803.47 1.213 1.48 1.213 2.975v1.05l.051.39c.028.087.028.122.035.164.012.063.017.082.052.11h2.128l-.077-.145q-.096-.147-.103-.665c-.03-.367-.03-.681-.03-.971v-.97c0-.65-.244-1.315-.712-2.027-.483-.686-1.241-1.093-2.267-1.274.81-.136 1.447-.351 1.89-.613.868-.548 1.268-1.438 1.268-2.575 0-1.637-.646-2.756-2.008-3.304-.752-.309-1.93-.466-3.561-.466h-4.544zm6.532-7.014c-.462.2-1.194.29-2.185.29h-2.05v-4.736h1.957c1.269 0 2.189.18 2.76.508.583.326.864.955.864 1.899 0 1.007-.438 1.667-1.346 2.04m6.67-7.82c-2.337-2.307-5.132-3.449-8.436-3.449-3.233 0-6.054 1.143-8.337 3.449-2.336 2.313-3.467 5.11-3.467 8.395 0 3.28 1.12 6.09 3.425 8.39 2.29 2.337 5.116 3.496 8.38 3.496 3.303 0 6.098-1.159 8.435-3.495 2.29-2.313 3.471-5.134 3.471-8.391 0-3.308-1.182-6.082-3.471-8.395m-1.206 1.177c2 1.953 2.978 4.388 2.978 7.218 0 2.802-.979 5.256-2.978 7.253-1.97 1.988-4.388 3.008-7.23 3.008-2.82 0-5.225-1.02-7.22-3.008-1.957-1.997-2.964-4.45-2.964-7.253 0-2.83 1.007-5.265 2.964-7.218 2.023-2.032 4.418-3.03 7.22-3.03 2.83 0 5.238.998 7.23 3.03" style="fill:#989898"/><path d="M3.113 270.006a18.2 18.2 0 0 0 6.832 6.78l139.765 80.692.004-.004a18.24 18.24 0 0 0 9.288 2.526c3.39 0 6.566-.92 9.289-2.526l139.769-80.693a18.2 18.2 0 0 0 6.827-6.776 18.2 18.2 0 0 0 2.457-9.305V99.313l-.005-.004a18.3 18.3 0 0 0-2.456-9.306 18.3 18.3 0 0 0-6.832-6.78L168.281 2.53v-.004A18.2 18.2 0 0 0 158.999 0c-3.386 0-6.557.92-9.28 2.526v.004L9.954 83.224a18.26 18.26 0 0 0-6.837 6.78 18.3 18.3 0 0 0-2.456 9.305l-.005.004V260.7c-.03 3.163.76 6.37 2.452 9.306" style="fill:#009639"/><path d="M61.844 119.038h122.807v122.807H61.844z" style="fill:none;stroke:#fff;stroke-width:12.0483;stroke-linecap:round;stroke-linejoin:round;stroke-miterlimit:10"/><path d="M220.702 104.799h35.455v35.455h-35.455zm0 57.474h35.455v35.455h-35.455zm0 57.473h35.455v35.455h-35.455zm-33.266-39.304h31.183m-32.844 14.67 35.41 26.968m-35.41-56.309 35.41-26.968" style="fill:none;stroke:#fff;stroke-width:8.0121;stroke-linecap:round;stroke-linejoin:round;stroke-miterlimit:10"/></svg>