<svg xmlns="http://www.w3.org/2000/svg" width="397" height="68" fill="none" viewBox="0 0 397 68"><path fill="#326de6" d="M63.281 15.124c-.396-1.288-1.348-2.333-2.537-2.977L36.557.402C35.922.08 35.208 0 34.574 0s-1.348 0-1.983.16L8.404 11.987c-1.19.563-2.062 1.61-2.379 2.977L.077 41.429A5.13 5.13 0 0 0 .95 45.29l16.732 20.996c.952.966 2.3 1.61 3.648 1.69h26.646c1.428.16 2.776-.483 3.648-1.69L68.357 45.29c.793-1.126 1.11-2.493.951-3.861z"/><path fill="#fff" d="M59.554 40.383c-.08 0-.158 0-.158-.08s-.159-.08-.318-.08c-.317-.081-.634-.081-.951-.081-.159 0-.318 0-.476-.08h-.08a16 16 0 0 1-2.696-.483.97.97 0 0 1-.555-.563c.08 0 0 0 0 0l-.634-.161c.317-2.333.158-4.746-.317-7.08a22 22 0 0 0-2.776-6.596l.476-.482v-.081c0-.241.08-.563.238-.724.713-.643 1.427-1.126 2.22-1.609l.476-.241c.317-.161.555-.322.872-.483.08-.08.159-.08.238-.16.08-.081 0-.081 0-.162.714-.563.873-1.528.318-2.252-.238-.322-.714-.563-1.11-.563s-.794.16-1.111.402l-.08.08c-.079.08-.158.161-.237.161-.238.242-.476.483-.635.724-.079.161-.238.242-.317.322a10.5 10.5 0 0 1-1.982 1.77c-.159.08-.318.16-.476.16-.08 0-.238 0-.317-.08h-.08l-.634.403c-.635-.644-1.348-1.288-1.983-1.931-2.934-2.333-6.582-3.781-10.31-4.183l-.078-.644v.08c-.238-.16-.318-.402-.397-.643 0-.885 0-1.77.159-2.735v-.08c0-.161.079-.322.079-.483.08-.322.08-.644.159-.965v-.483c.079-.805-.556-1.609-1.349-1.69-.475-.08-.951.161-1.348.564a1.6 1.6 0 0 0-.476 1.126v.402c0 .322.08.644.16.966.078.16.078.321.078.482v.08c.16.886.16 1.77.16 2.736-.08.241-.16.482-.398.643v.161l-.079.644c-.872.08-1.744.241-2.696.402-3.727.804-7.137 2.816-9.754 5.631l-.476-.322h-.08c-.079 0-.158.08-.317.08-.158 0-.317-.08-.475-.16-.714-.563-1.428-1.207-1.983-1.85-.08-.161-.238-.242-.317-.322-.238-.242-.397-.483-.635-.724-.079-.08-.158-.08-.238-.161l-.079-.08c-.317-.242-.713-.403-1.11-.403-.476 0-.872.161-1.11.563-.476.724-.317 1.69.317 2.253.08 0 .08.08.08.08s.158.161.237.161c.238.161.555.322.873.483l.475.241c.793.483 1.586.965 2.22 1.609.16.16.318.483.239.724v-.08l.476.482c-.08.161-.16.242-.238.402-2.459 3.942-3.49 8.608-2.776 13.193l-.634.161c0 .08-.08.08-.08.08-.08.242-.317.403-.555.564a14.5 14.5 0 0 1-2.696.483c-.159 0-.317 0-.476.08-.317 0-.634.08-.952.08-.079 0-.158.08-.317.08-.08 0-.08 0-.158.081-.873.161-1.428.966-1.27 1.85.16.724.873 1.207 1.587 1.127.158 0 .238 0 .396-.08.08 0 .08 0 .08-.081 0-.08.237 0 .317 0 .317-.08.634-.241.872-.322.159-.08.317-.16.476-.16h.08c.872-.323 1.665-.564 2.616-.725h.08c.238 0 .475.08.634.241.08 0 .08.08.08.08l.713-.08c1.19 3.7 3.41 7 6.503 9.412.713.564 1.348 1.046 2.141 1.448l-.396.564c0 .08.079.08.079.08.158.241.158.563.08.804-.318.805-.794 1.61-1.27 2.333v.08c-.08.162-.158.242-.317.403s-.317.483-.555.805c-.08.08-.08.16-.159.24 0 0 0 .081-.079.081-.396.805-.08 1.77.634 2.172.159.08.397.161.555.161.635 0 1.19-.402 1.507-.965 0 0 0-.08.08-.08 0-.081.079-.161.158-.242.08-.322.238-.563.317-.885l.159-.482c.238-.885.634-1.69 1.03-2.494.16-.242.397-.402.635-.483.08 0 .08 0 .08-.08l.317-.644c2.22.885 4.52 1.287 6.9 1.287 1.427 0 2.854-.16 4.281-.563.873-.16 1.745-.483 2.538-.724l.317.563c.08 0 .08 0 .08.08.238.081.476.242.634.483.397.805.793 1.61 1.031 2.494V58l.159.483c.079.322.158.644.317.885.08.08.08.161.158.241 0 0 0 .08.08.08.317.564.872.966 1.507.966.237 0 .396-.08.634-.16.317-.162.634-.483.714-.886.079-.402.079-.804-.08-1.206 0-.08-.079-.08-.079-.08 0-.081-.08-.162-.159-.242a2.9 2.9 0 0 0-.555-.805c-.079-.16-.158-.24-.317-.402v-.16c-.555-.725-.952-1.529-1.269-2.334-.079-.24-.079-.563.08-.804 0-.08.079-.08.079-.08l-.238-.644c4.044-2.494 7.137-6.355 8.565-10.94l.634.08c.08 0 .08-.08.08-.08a.9.9 0 0 1 .634-.242h.08c.872.161 1.744.402 2.537.724h.08c.158.08.316.161.475.161.317.161.555.322.872.402.08 0 .159.08.317.08.08 0 .08 0 .16.081.158.08.237.08.396.08.713 0 1.348-.482 1.586-1.126-.08-.884-.714-1.528-1.428-1.689M36.636 37.89l-2.141 1.046-2.142-1.046-.555-2.333 1.507-1.93h2.38l1.506 1.93zm12.926-5.229c.397 1.69.476 3.38.317 5.069l-7.533-2.172c-.714-.161-1.11-.885-.952-1.61.08-.24.159-.402.317-.562l5.948-5.47a16.5 16.5 0 0 1 1.903 4.746M45.28 24.94l-6.503 4.666c-.555.321-1.348.24-1.745-.322a.74.74 0 0 1-.238-.563l-.475-8.125c3.489.402 6.582 1.93 8.96 4.344m-14.354-4.103 1.586-.322-.397 8.045c0 .724-.634 1.287-1.348 1.287-.238 0-.396-.08-.634-.161L23.55 24.94c2.062-2.011 4.6-3.46 7.375-4.103m-9.675 7.08 5.868 5.309c.556.482.635 1.287.16 1.85-.16.241-.318.322-.635.402L18.95 37.73a17.13 17.13 0 0 1 2.3-9.814M19.902 41.51l7.85-1.367c.635 0 1.27.402 1.349 1.046.08.24.08.563-.08.804l-3.013 7.401c-2.775-1.85-4.996-4.666-6.106-7.884m18.002 9.975c-1.11.242-2.22.403-3.41.403-1.666 0-3.41-.322-4.996-.805l3.885-7.16c.397-.482 1.031-.643 1.586-.321.238.16.397.322.635.563l3.806 6.999c-.476.08-.951.16-1.506.322m9.675-6.998a15.25 15.25 0 0 1-4.759 4.827l-3.09-7.565c-.159-.644.158-1.287.713-1.529.238-.08.476-.16.714-.16l7.93 1.367c-.396 1.126-.872 2.172-1.506 3.057"/><path fill="#000" d="M384.219 50.278c1.11.08 2.3-.08 3.331-.483a1.8 1.8 0 0 0 .951-1.77c-.079-.804-.555-1.528-1.268-1.77-1.19-.723-2.538-1.367-3.886-1.77-1.348-.482-2.538-1.045-3.648-1.608-1.031-.483-1.903-1.126-2.776-1.93a7.6 7.6 0 0 1-1.744-2.736c-.476-1.206-.635-2.494-.635-3.78-.079-2.655 1.11-5.23 3.172-6.839 2.141-1.689 4.996-2.493 8.644-2.493 1.745 0 3.569.16 5.313.563 1.349.241 2.697.563 4.045 1.046l-1.507 6.837c-1.11-.402-2.141-.643-3.251-.965-1.269-.322-2.617-.402-3.886-.402-2.696 0-4.045.724-4.045 2.252 0 .322.08.644.159.966.159.321.397.563.714.804s.793.483 1.348.804 1.348.644 2.3.966a30 30 0 0 1 4.599 2.091c1.111.563 2.062 1.288 2.855 2.253.714.724 1.19 1.609 1.507 2.654a12.4 12.4 0 0 1 .476 3.38c.158 2.734-1.111 5.389-3.41 6.917-2.221 1.529-5.393 2.333-9.517 2.333a23.8 23.8 0 0 1-6.74-.724c-1.269-.322-2.459-.724-3.648-1.126l1.427-7.08c1.428.564 2.934 1.047 4.441 1.368 1.586.08 3.093.242 4.679.242m-43.696-8.85c-.079-2.412.397-4.826 1.19-7.078.714-1.93 1.824-3.62 3.251-5.149 1.348-1.367 2.855-2.413 4.6-3.057 1.744-.724 3.568-1.045 5.392-1.045 4.283 0 7.693 1.367 10.151 4.022s3.727 6.596 3.727 11.745c0 .483 0 1.046-.079 1.69 0 .643-.079 1.125-.079 1.608h-19.35c.158 1.69 1.031 3.298 2.458 4.264a10.13 10.13 0 0 0 5.869 1.608c1.506 0 3.092-.16 4.599-.402a15.5 15.5 0 0 0 3.727-1.206l1.19 7.079c-.555.322-1.19.482-1.824.724-.872.241-1.745.482-2.617.563-.952.16-1.903.322-3.013.483-1.031.08-2.142.16-3.252.16a18 18 0 0 1-7.137-1.206c-1.903-.724-3.569-1.85-4.996-3.299-1.348-1.448-2.3-3.217-2.934-5.068-.555-2.171-.873-4.343-.873-6.435m20.064-3.297c0-.724-.159-1.448-.397-2.172-.158-.724-.555-1.287-.951-1.85-.476-.564-1.031-1.046-1.666-1.368-.793-.402-1.586-.563-2.458-.563s-1.665.16-2.458.563c-.635.322-1.269.724-1.745 1.287s-.872 1.207-1.11 1.93a10.6 10.6 0 0 0-.476 2.173zm-43.299-19.95 8.564-1.368v9.01h10.31v7.24h-10.31v10.78c-.079 1.528.238 3.056.952 4.343.634 1.046 1.903 1.61 3.886 1.61a15.5 15.5 0 0 0 2.775-.242 15 15 0 0 0 2.697-.724l1.189 6.757c-1.11.483-2.3.805-3.489 1.126a22.5 22.5 0 0 1-4.679.483 14.2 14.2 0 0 1-5.789-.965c-1.428-.563-2.696-1.529-3.648-2.655-.952-1.207-1.586-2.655-1.983-4.183a20.7 20.7 0 0 1-.475-5.39zM282.632 41.43c-.079-2.413.397-4.827 1.19-7.08.714-1.93 1.824-3.62 3.251-5.148 1.348-1.367 2.855-2.413 4.6-3.057 1.745-.724 3.569-1.045 5.392-1.045 4.283 0 7.693 1.367 10.151 4.022s3.727 6.596 3.727 11.745c0 .483 0 1.046-.079 1.69s-.079 1.125-.079 1.608h-19.429c.158 1.69 1.031 3.298 2.458 4.264a10.13 10.13 0 0 0 5.868 1.608c1.507 0 3.093-.16 4.6-.402a17.4 17.4 0 0 0 3.807-1.206l1.189 7.079c-.555.322-1.189.482-1.824.724-.872.241-1.745.482-2.617.563-.952.16-1.903.322-3.013.483-1.031.08-2.142.16-3.252.16a18 18 0 0 1-7.137-1.206c-1.903-.724-3.569-1.85-4.996-3.299-1.348-1.448-2.3-3.217-2.934-5.068-.635-2.171-.952-4.343-.873-6.435m20.064-3.298c0-.724-.159-1.448-.397-2.172-.158-.724-.555-1.287-.951-1.85-.476-.564-1.031-1.046-1.666-1.368-.793-.402-1.586-.563-2.458-.563s-1.665.16-2.458.563c-.635.322-1.19.724-1.666 1.287-.475.563-.872 1.207-1.11 1.93a10.7 10.7 0 0 0-.476 2.173zm-52.578-11.263a64 64 0 0 1 5.631-1.206c2.379-.402 4.837-.563 7.216-.563 2.142-.08 4.283.321 6.345 1.045 1.586.564 3.013 1.529 4.044 2.816s1.745 2.816 2.141 4.425c.476 1.85.635 3.78.635 5.711v17.296h-8.486v-16.17c0-2.815-.396-4.746-1.11-5.953-.714-1.126-2.062-1.77-4.044-1.77-.635 0-1.269 0-1.983.081-.714 0-1.269.08-1.824.16v23.652h-8.565zm-6.027 6.677c-.793-.16-1.665-.402-2.696-.563-1.11-.241-2.22-.322-3.331-.322-.634 0-1.268.08-1.982.161-.555.08-1.11.161-1.666.322v23.41h-8.564V27.432c1.744-.644 3.568-1.127 5.392-1.529 2.3-.563 4.679-.804 6.979-.724.555 0 1.11.08 1.665.08a9 9 0 0 1 1.983.242c.634.08 1.269.16 1.982.322q.834.12 1.666.482zm-53.212 7.884c-.079-2.413.397-4.827 1.19-7.08.714-1.93 1.824-3.62 3.251-5.148 1.348-1.367 2.855-2.413 4.6-3.057 1.744-.724 3.568-1.045 5.392-1.045 4.283 0 7.693 1.367 10.151 4.022s3.727 6.596 3.727 11.664c0 .483 0 1.046-.079 1.69s-.079 1.126-.079 1.609h-19.429c.158 1.689 1.031 3.298 2.458 4.263a10.13 10.13 0 0 0 5.868 1.609c1.507 0 3.093-.16 4.6-.402 1.269-.242 2.538-.644 3.727-1.126l1.19 7.079c-.555.322-1.19.482-1.824.724-.873.241-1.745.482-2.617.563-.952.16-1.904.322-3.014.483-1.031.08-2.141.16-3.251.16a18 18 0 0 1-7.137-1.206c-1.904-.724-3.569-1.85-4.996-3.299-1.349-1.448-2.3-3.217-2.935-5.068-.475-2.171-.793-4.263-.793-6.435m20.143-3.298c0-.724-.158-1.448-.396-2.172-.159-.724-.555-1.287-.952-1.85-.476-.564-1.031-1.046-1.665-1.368-.793-.402-1.586-.563-2.459-.563-.872 0-1.665.16-2.458.563-.635.322-1.269.724-1.745 1.287s-.872 1.207-1.11 1.93a10.7 10.7 0 0 0-.476 2.173zm-34.021 2.815c0-5.63-2.062-8.366-6.106-8.366-.872 0-1.745.08-2.617.322-.714.16-1.427.483-2.062.885v15.767c.397.08.952.16 1.586.241s1.348.08 2.141.08a6.02 6.02 0 0 0 5.314-2.413 11.65 11.65 0 0 0 1.744-6.516m8.724.322c0 2.252-.318 4.505-1.111 6.677a13.6 13.6 0 0 1-3.013 5.068c-1.428 1.448-3.093 2.574-4.917 3.298-2.141.805-4.361 1.126-6.661 1.126-1.031 0-2.141-.08-3.252-.16-1.11-.081-2.22-.242-3.33-.322-1.031-.161-2.062-.322-3.093-.563q-1.546-.242-2.617-.724V12.63l8.565-1.368v15.285a19 19 0 0 1 3.013-.966c1.11-.241 2.22-.321 3.331-.321 1.982 0 3.886.321 5.71 1.206a11.54 11.54 0 0 1 4.123 3.218c1.19 1.528 2.062 3.218 2.538 5.068.476 2.011.714 4.264.714 6.516m-36.162 14.158c-1.824.483-3.728.885-5.631 1.127-2.379.402-4.837.563-7.216.563-2.221.08-4.362-.322-6.424-1.046a10.45 10.45 0 0 1-4.044-2.896 12.1 12.1 0 0 1-2.141-4.585c-.476-1.85-.635-3.862-.635-5.792V25.823h8.565V41.83c0 2.816.396 4.827 1.11 6.033s2.062 1.85 4.044 1.85c.635 0 1.269 0 1.983-.08s1.269-.08 1.824-.241v-23.57h8.565zM99.602 36.924c.872-.965 1.665-1.93 2.617-2.896.872-1.046 1.745-2.011 2.617-2.976.872-1.046 1.665-1.931 2.379-2.816s1.428-1.69 1.983-2.333h10.15c-2.061 2.333-4.044 4.666-5.947 6.838-1.983 2.172-4.045 4.424-6.345 6.677 1.269 1.206 2.459 2.413 3.569 3.78 1.19 1.449 2.379 2.897 3.569 4.506a81 81 0 0 1 3.172 4.665 50 50 0 0 1 2.379 4.264h-9.834c-.634-1.046-1.348-2.092-2.141-3.298-.793-1.207-1.665-2.414-2.458-3.7a40 40 0 0 0-2.855-3.54c-.872-1.046-1.824-2.011-2.855-2.816v13.434h-8.565V12.63l8.565-1.368z"/></svg>