<svg xmlns="http://www.w3.org/2000/svg" xmlns:xlink="http://www.w3.org/1999/xlink" width="653.88" height="291.79" enable-background="new 0 0 653.879 291.785" viewBox="0 0 653.879 291.785"><linearGradient id="a"><stop offset="0" stop-color="#fff"/><stop offset="1" stop-color="#fff" stop-opacity="0"/></linearGradient><linearGradient xlink:href="#a" id="d"/><linearGradient id="c" gradientUnits="userSpaceOnUse"><stop offset="0" stop-color="#005f61"/><stop offset="1" stop-color="#91c4b7"/></linearGradient><filter id="b"><feGaussianBlur stdDeviation="4.576"/></filter><mask id="l"><g filter="url(#b)"><path fill="#2f6962" d="M17.749 121.529c-4.495-13.055 2.443-27.282 15.498-31.776l211.219-72.725c13.055-4.495 27.282 2.444 31.777 15.499l38.943 113.096c4.495 13.055-2.444 27.281-15.499 31.776l-211.22 72.724c-13.055 4.495-27.282-2.444-31.777-15.499z"/></g></mask><linearGradient id="e" x1="128.61" x2="138.61" y1="239.37" y2="267.8" gradientUnits="userSpaceOnUse"><stop offset="0" stop-color="#3e3e3e"/><stop offset="1" stop-color="#3e3e3e" stop-opacity="0"/></linearGradient><mask id="q"><path fill="#2f6962" d="M95.108 61.776 244.59 10.309c15.666-5.394 32.738 2.933 38.132 18.599l39.799 115.58c5.394 15.666-2.932 32.738-18.598 38.131l-103.98 35.801z"/></mask><filter id="p"><feGaussianBlur stdDeviation="1.635"/></filter><linearGradient id="g" x1="173.7" x2="166.66" y1="265.11" y2="244.64" gradientUnits="userSpaceOnUse"><stop offset="0" stop-color="#c8c7c5"/><stop offset="1" stop-color="#c8c7c5" stop-opacity="0"/></linearGradient><linearGradient xlink:href="#c" id="m" x1="308.85" x2="270.58" y1="100.3" y2="-8.08"/><filter id="w"><feGaussianBlur stdDeviation="1.215"/></filter><mask id="x"><path fill="#7c858c" d="M113.124 36.661c17.233 36.62 75.371 131.675 105.366 171.054-4.069 13.505-18.428 20.812-30.299 17.44L72.849 58.555c-.07-12.347 22.899-26.599 40.275-21.894"/></mask><filter id="u" width="1.36" height="1.36" x="-.18" y="-.18"><feGaussianBlur stdDeviation="1.018"/></filter><mask id="v"><path fill="#aaa" fill-rule="evenodd" d="M213.967 236.836c-1.976 1.5-5.717 14.758-3.574 17.84 3.186 4.585 22.424-12.698 20.66-17.246-1.812-4.675-15.356-1.412-17.086-.594m-9.629-7.347 2.49 3.782s.69 1.043.296 3.403c-.616 3.69-3.175 13.259-3.326 21.122-.018.95-.919 9.504 7.22 7.07s24.968-17.858 28.332-24.692c3.363-6.834-.965-10.639-6.216-10.987-5.251-.35-13.346.22-17.069.848s-3.494-.758-6.677-4.35c-.24-.27-5.05 3.804-5.05 3.804" clip-rule="evenodd"/></mask><radialGradient xlink:href="#d" id="h" cx="197.57" cy="252.72" r="166.51" gradientTransform="matrix(1.54333 -.10321 .09131 1.36539 -130.42 -95.01)" gradientUnits="userSpaceOnUse"/><radialGradient xlink:href="#d" id="i" cx="135.64" cy="12" r="161.65" gradientTransform="rotate(-18.971 269.963 404.05)scale(1.9779 .78935)" gradientUnits="userSpaceOnUse"/><radialGradient xlink:href="#a" id="B" cx="143.6" cy="139.94" r="68.38" gradientTransform="matrix(1.33664 .0783 -.10786 1.84128 -33.25 -128.97)" gradientUnits="userSpaceOnUse"/><linearGradient xlink:href="#c" id="o" x1="396.63" x2="397.29" y1="165.47" y2="6.78"/><linearGradient id="s" x1="227.67" x2="227.67" y1="217.85" y2="275" gradientUnits="userSpaceOnUse"><stop offset="0" stop-color="#fff"/><stop offset="1" stop-color="#868686"/></linearGradient><linearGradient id="j" x1="110.77" x2="145.47" y1="168.58" y2="151.58" gradientUnits="userSpaceOnUse"><stop offset="0" stop-color="#005f61"/><stop offset="1"/></linearGradient><radialGradient id="n" cx="228.55" cy="-6.51" r="111.43" gradientTransform="rotate(-6.522 275.458 1158.935)scale(1.5578 1.5567)" gradientUnits="userSpaceOnUse"><stop offset="0" stop-color="#91c4b7"/><stop offset="1" stop-color="#005f61"/></radialGradient><path fill="#7c858c" d="M11.004 141.618c-6.293-18.277 3.421-38.194 21.698-44.487l216.721-74.619c18.277-6.293 38.195 3.422 44.488 21.699l43.577 126.552c6.293 18.277-3.421 38.194-21.698 44.487L99.069 289.869c-18.277 6.292-38.195-3.422-44.488-21.699z"/><path fill="url(#e)" d="M7.097 130.272c-6.294-18.277 3.421-38.194 21.698-44.487l216.722-74.619c18.277-6.293 38.194 3.422 44.488 21.699l43.577 126.552c6.293 18.277-3.421 38.194-21.698 44.487L95.162 278.523c-18.277 6.293-38.195-3.422-44.488-21.699z"/><path fill="url(#g)" fill-rule="evenodd" d="m156.599 246.825 13.562-4.67 6.521 18.94-13.562 4.67zm25.041-8.622 13.562-4.67 6.521 18.939-13.562 4.67zm25.041-8.622 13.563-4.67 6.521 18.94-13.562 4.67zm25.042-8.623 13.562-4.67 6.521 18.94-13.562 4.67zm25.041-8.622 13.562-4.67 6.521 18.939-13.562 4.67zm-125.207 43.112 13.562-4.67 6.521 18.94-13.562 4.67z" clip-rule="evenodd" opacity=".7"/><path fill="url(#h)" d="M2.568 124.472c-6.293-18.277 3.421-38.194 21.698-44.487l221.25-76.178c18.277-6.292 38.195 3.422 44.488 21.699l41.752 121.253c6.293 18.277-3.421 38.194-21.698 44.487l-221.25 76.178c-18.277 6.293-38.195-3.422-44.488-21.699z"/><path fill="#7c858c" d="M1.917 122.581c-6.293-18.277 3.421-38.194 21.698-44.487l221.25-76.178c18.277-6.293 38.194 3.422 44.488 21.699l41.752 121.253c6.293 18.277-3.421 38.194-21.698 44.487l-221.25 76.178c-18.277 6.293-38.195-3.422-44.488-21.699z"/><path fill="url(#i)" d="M5.763 123.175C-.35 105.42 9.086 86.072 26.841 79.958L243.342 5.416c17.755-6.113 37.104 3.324 43.217 21.079l38.787 112.64c6.113 17.755-3.323 37.103-21.078 43.216L87.767 256.893c-17.755 6.113-37.103-3.324-43.217-21.079z" opacity=".9"/><path fill="#3e3e3e" d="M7.427 123.74c-5.934-17.232 3.225-36.012 20.458-41.945L243.792 7.457c17.232-5.933 36.012 3.226 41.946 20.459l39.771 115.497c5.934 17.233-3.226 36.012-20.458 41.945L89.143 259.696c-17.233 5.933-36.012-3.227-41.946-20.459z"/><path fill="url(#j)" d="M10.414 122.666C5.02 107 13.346 89.928 29.012 84.534L244.59 10.309c15.666-5.394 32.738 2.933 38.132 18.599l39.799 115.58c5.394 15.666-2.932 32.738-18.598 38.131L88.345 256.844c-15.666 5.394-32.738-2.933-38.133-18.599z"/><g fill="#3c857c" mask="url(#l)" transform="translate(-12 -4)"><path d="M10.414 122.666C5.02 107 13.346 89.928 29.012 84.534L244.59 10.309c15.666-5.394 32.738 2.933 38.132 18.599l39.799 115.58c5.394 15.666-2.932 32.738-18.598 38.131L88.345 256.844c-15.666 5.394-32.738-2.933-38.133-18.599z"/></g><path fill="#ffe600" fill-rule="evenodd" d="M30 102.111c-1.771-7.695 2.602-9.355 2.672-9.379 1.371-.472 6.183-1.554 7.316 1.737 1.025 2.977-4.531 7.82-9.583 9.56-5.015 1.727-12.469 1.364-13.494-1.613-1.133-3.291 3.325-5.401 4.696-5.873.069-.024 4.342-2.237 7.88 5.746.13.293.571.074.513-.178" clip-rule="evenodd"/><path d="M32.867 154.308c7.274 17.049 17.313 28.317 23.916 26.044 6.602-2.273 7.575-17.334 2.812-35.247-.367-3.303-.911-9.542-.275-13.127.464-2.615-.112-3.379-2.212-1.079-.634.694-1.14 1.345-1.514 2.022-7.335-18.703-18.159-31.442-25.141-29.038s-7.669 19.106-1.934 38.36c-.712-.304-1.51-.505-2.438-.662-3.071-.52-3.054.437-1.079 2.212 2.709 2.435 6.121 7.686 7.865 10.515"/><path fill="#fff" fill-rule="evenodd" d="M30.621 139.494c5.498 15.966 14.795 27.243 20.766 25.187s6.355-16.666.857-32.632-14.795-27.243-20.766-25.187-6.354 16.665-.857 32.632m23.197 28.556c.536 1.558 1.515 2.634 2.186 2.403s.78-1.681.243-3.239c-.536-1.558-1.515-2.633-2.186-2.403-.67.231-.779 1.682-.243 3.239m-4.7 1.619c.536 1.558 1.515 2.634 2.186 2.403.67-.231.779-1.681.243-3.239s-1.515-2.634-2.186-2.402c-.671.23-.78 1.68-.243 3.238" clip-rule="evenodd"/><ellipse cx="50.87" cy="163.33" fill="#ffe600" rx="4.43" ry="2.14" transform="rotate(161.003 50.868 163.327)"/><path fill="#ffe600" fill-rule="evenodd" d="M64.282 90.307c-1.771-7.695 2.603-9.355 2.672-9.379 1.371-.472 6.183-1.554 7.316 1.737 1.025 2.978-4.531 7.82-9.583 9.56-5.015 1.727-12.469 1.364-13.494-1.613-1.133-3.291 3.325-5.401 4.696-5.873.07-.024 4.342-2.237 7.88 5.746.13.292.572.074.513-.178" clip-rule="evenodd"/><path d="M67.15 142.503c7.274 17.049 17.313 28.317 23.916 26.044 6.602-2.273 7.575-17.333 2.812-35.247-.367-3.303-.911-9.542-.275-13.127.464-2.615-.112-3.379-2.212-1.079-.634.694-1.139 1.345-1.514 2.022-7.334-18.704-18.159-31.442-25.141-29.038s-7.669 19.106-1.934 38.36c-.712-.304-1.51-.505-2.438-.662-3.071-.52-3.054.437-1.079 2.211 2.709 2.436 6.121 7.687 7.865 10.516"/><path fill="#fff" fill-rule="evenodd" d="M64.904 127.689c5.498 15.967 14.795 27.243 20.766 25.187s6.355-16.666.857-32.632c-5.498-15.967-14.795-27.243-20.766-25.187s-6.355 16.666-.857 32.632m23.197 28.557c.536 1.558 1.515 2.633 2.186 2.402s.779-1.681.243-3.239c-.537-1.558-1.515-2.633-2.186-2.402s-.779 1.681-.243 3.239m-4.7 1.619c.536 1.558 1.515 2.633 2.185 2.402s.78-1.681.243-3.239c-.536-1.558-1.515-2.633-2.186-2.402s-.779 1.681-.242 3.239" clip-rule="evenodd"/><ellipse cx="85.15" cy="151.52" fill="#ffe600" rx="4.43" ry="2.14" transform="rotate(161.003 85.152 151.525)"/><path fill="#ffe600" fill-rule="evenodd" d="M98.565 78.502c-1.771-7.694 2.602-9.355 2.672-9.379 1.371-.472 6.183-1.554 7.316 1.736 1.025 2.978-4.531 7.82-9.583 9.56-5.015 1.727-12.469 1.364-13.494-1.613-1.133-3.291 3.325-5.401 4.696-5.873.069-.024 4.342-2.237 7.88 5.746.13.293.572.075.513-.177" clip-rule="evenodd"/><path d="M101.433 130.699c7.274 17.048 17.313 28.317 23.915 26.043s7.576-17.333 2.812-35.246c-.367-3.303-.911-9.542-.275-13.127.464-2.615-.112-3.379-2.212-1.079-.634.695-1.139 1.345-1.514 2.022-7.334-18.703-18.159-31.441-25.14-29.038-6.982 2.404-7.669 19.106-1.934 38.36-.712-.303-1.51-.504-2.438-.662-3.071-.52-3.054.437-1.079 2.212 2.709 2.435 6.121 7.686 7.865 10.515"/><path fill="#fff" fill-rule="evenodd" d="M99.187 115.885c5.498 15.967 14.795 27.243 20.766 25.187s6.355-16.666.857-32.632c-5.498-15.967-14.795-27.243-20.766-25.187s-6.355 16.665-.857 32.632m23.197 28.556c.536 1.558 1.515 2.633 2.186 2.403.67-.231.779-1.681.243-3.239s-1.515-2.634-2.185-2.403c-.671.232-.78 1.682-.244 3.239m-4.701 1.619c.536 1.558 1.515 2.633 2.186 2.402s.78-1.681.243-3.239c-.536-1.558-1.515-2.633-2.185-2.402s-.78 1.681-.244 3.239" clip-rule="evenodd"/><ellipse cx="119.43" cy="139.72" fill="#ffe600" rx="4.43" ry="2.14" transform="rotate(161.003 119.432 139.718)"/><path fill="#ffe600" fill-rule="evenodd" d="M96.575 238.982c3.342 7.154 7.811 5.77 7.88 5.746 1.371-.472 5.829-2.583 4.696-5.873-1.025-2.977-8.385-3.373-13.437-1.633-5.015 1.727-10.665 6.602-9.64 9.579 1.133 3.291 5.946 2.208 7.316 1.736.07-.023 4.799-.91 2.672-9.379-.078-.31.403-.41.513-.176" clip-rule="evenodd"/><path d="M66.699 196.085c-4.764-17.913-3.791-32.973 2.812-35.247 6.602-2.273 16.641 8.995 23.915 26.043 1.744 2.829 5.156 8.08 7.865 10.514 1.976 1.775 1.992 2.732-1.079 2.212-.927-.157-1.726-.358-2.438-.662 5.735 19.254 5.048 35.956-1.934 38.36s-17.806-10.334-25.141-29.038c-.374.677-.88 1.328-1.514 2.022-2.1 2.3-2.675 1.536-2.212-1.079.637-3.583.093-9.822-.274-13.125"/><path fill="#fff" fill-rule="evenodd" d="M74.049 209.142c-5.498-15.966-5.114-30.576.857-32.632s15.269 9.22 20.766 25.187c5.498 15.967 5.114 30.577-.857 32.633-5.971 2.054-15.268-9.222-20.766-25.188m.699-36.785c-.536-1.558-.428-3.008.243-3.239.67-.231 1.649.845 2.185 2.403.537 1.558.427 3.008-.243 3.239s-1.649-.845-2.185-2.403m-4.701 1.619c-.536-1.558-.427-3.008.243-3.239s1.649.845 2.186 2.403.427 3.008-.243 3.239-1.65-.845-2.186-2.403" clip-rule="evenodd"/><ellipse cx="75.36" cy="177.99" fill="#ffe600" rx="4.43" ry="2.14" transform="rotate(161.003 75.364 177.983)"/><path fill="#ffe600" fill-rule="evenodd" d="M130.858 227.178c3.341 7.154 7.81 5.77 7.88 5.746 1.371-.472 5.829-2.582 4.696-5.873-1.025-2.977-8.385-3.373-13.437-1.633-5.015 1.727-10.665 6.602-9.64 9.579 1.133 3.291 5.946 2.208 7.316 1.737.069-.024 4.799-.91 2.672-9.379-.078-.312.404-.412.513-.177" clip-rule="evenodd"/><path d="M100.982 184.281c-4.764-17.913-3.791-32.973 2.812-35.247 6.602-2.273 16.641 8.995 23.915 26.044 1.745 2.829 5.157 8.08 7.865 10.513 1.976 1.775 1.993 2.732-1.079 2.212-.927-.157-1.726-.358-2.438-.662 5.736 19.254 5.048 35.957-1.934 38.36-6.981 2.404-17.806-10.334-25.141-29.038-.374.678-.879 1.328-1.513 2.022-2.1 2.301-2.676 1.537-2.212-1.079.636-3.584.092-9.822-.275-13.125"/><path fill="#fff" fill-rule="evenodd" d="M108.332 197.337c-5.498-15.966-5.114-30.576.857-32.632s15.268 9.22 20.766 25.187c5.498 15.966 5.114 30.576-.857 32.632s-15.268-9.22-20.766-25.187m.699-36.784c-.536-1.558-.428-3.008.243-3.239s1.649.845 2.186 2.402.427 3.008-.243 3.239c-.671.231-1.65-.845-2.186-2.402m-4.701 1.618c-.536-1.558-.427-3.008.243-3.239s1.649.845 2.185 2.402.428 3.008-.243 3.239-1.649-.844-2.185-2.402" clip-rule="evenodd"/><ellipse cx="109.64" cy="166.18" fill="#ffe600" rx="4.43" ry="2.14" transform="rotate(161.003 109.644 166.18)"/><path fill="#ffe600" fill-rule="evenodd" d="M165.141 215.373c3.342 7.154 7.811 5.77 7.88 5.746 1.371-.472 5.829-2.582 4.696-5.873-1.025-2.977-8.385-3.372-13.438-1.633-5.015 1.727-10.665 6.602-9.64 9.579 1.133 3.291 5.945 2.208 7.316 1.737.069-.024 4.799-.91 2.672-9.379-.078-.311.404-.411.514-.177" clip-rule="evenodd"/><path d="M135.265 172.476c-4.764-17.913-3.791-32.973 2.812-35.246s16.641 8.995 23.916 26.043c1.744 2.829 5.156 8.08 7.865 10.514 1.975 1.775 1.992 2.731-1.079 2.212-.927-.157-1.726-.358-2.438-.662 5.735 19.254 5.048 35.957-1.934 38.36-6.982 2.404-17.806-10.334-25.141-29.038-.374.678-.88 1.328-1.514 2.022-2.1 2.301-2.676 1.537-2.212-1.079.636-3.584.092-9.823-.275-13.126"/><path fill="#fff" fill-rule="evenodd" d="M142.615 185.533c-5.498-15.967-5.114-30.577.857-32.633s15.269 9.221 20.766 25.187 5.114 30.576-.857 32.632-15.268-9.22-20.766-25.186m.699-36.785c-.537-1.558-.428-3.008.243-3.239s1.649.845 2.186 2.402.428 3.008-.243 3.239-1.65-.844-2.186-2.402m-4.701 1.619c-.536-1.558-.427-3.008.243-3.239.671-.231 1.649.845 2.186 2.402s.428 3.008-.243 3.239-1.65-.845-2.186-2.402" clip-rule="evenodd"/><ellipse cx="143.93" cy="154.38" fill="#ffe600" rx="4.43" ry="2.14" transform="rotate(160.998 143.923 154.382)"/><path fill="url(#m)" d="M95.108 61.776 244.59 10.309c15.666-5.394 32.738 2.933 38.132 18.599l39.799 115.58c5.394 15.666-2.932 32.738-18.598 38.131l-103.98 35.801z"/><path fill="url(#n)" d="m97.289 65.035 149.077-51.329c13.362-4.601 27.924 2.502 32.525 15.864l39.859 115.756c4.602 13.362-2.5 27.923-15.863 32.524l-105.732 36.404z"/><path fill="#fff" fill-rule="evenodd" d="M289.833 129.825c0 12.985-2.517 16.034-7.42 16.034-3.71 0-6.094-1.327-8.614-3.314V115.91c2.52-1.988 5.037-3.312 8.482-3.312 5.035 0 7.552 3.312 7.552 17.227m23.589-.797c0-25.838-10.072-36.041-23.19-36.041-7.289 0-11.661 2.648-16.433 6.359V67.411l-23.851 9.542v87.059h23.851v-4.638c3.844 2.916 8.614 6.096 15.504 6.096 15.24 0 24.119-11.53 24.119-36.442m-73.636 34.984V94.444h-23.851v69.567h23.851zm1.987-86.396c0-6.759-5.698-11.529-13.913-11.529-7.819 0-13.648 4.77-13.648 11.529 0 7.287 5.829 11.792 13.648 11.792 8.216 0 13.913-4.505 13.913-11.792m-39.003 86.396V67.411l-23.851 9.542v87.059z" clip-rule="evenodd"/><path fill="url(#o)" fill-rule="evenodd" d="M389.317 94.444H364.14l-6.361 25.574c-1.456 5.832-3.444 14.178-4.372 20.804-.795-6.626-2.782-14.973-4.24-20.804l-6.229-25.574h-25.309l24.118 69.567H365.2zm31.35-16.828c0-6.759-5.698-11.529-13.913-11.529-7.819 0-13.648 4.77-13.648 11.529 0 7.287 5.83 11.792 13.648 11.792 8.215 0 13.913-4.505 13.913-11.792m-1.988 86.396V94.444h-23.851v69.567h23.851zM477.34 95.9c-2.782-1.721-6.228-2.914-11.262-2.914-6.096 0-10.734 2.517-14.843 6.492v-5.035h-23.851v69.567h23.851v-37.897c0-8.482 3.579-11.264 9.41-11.264 4.636 0 8.082 2.517 11.131 5.832zm52.949 45.585c-3.71 2.517-6.361 3.71-9.542 3.71-3.975 0-5.963-1.591-5.963-6.891v-25.177h15.106V94.444h-15.106V67.411l-23.19 9.408v17.625h-10.599v18.683h10.599v30.212c0 15.769 5.832 22.13 18.42 22.13 6.758 0 12.589-1.458 17.227-3.71z" clip-rule="evenodd"/><path fill="#25514b" d="M127.052 43.547c17.233 36.62 72.865 128.908 102.86 168.287-2.858 14.11-18.673 23.308-29.809 18.791L84.761 64.024c-.07-12.347 22.06-27.271 42.291-20.477" filter="url(#p)" mask="url(#q)" transform="translate(-2)"/><path fill="#3e3e3e" fill-rule="evenodd" d="M218.304 241.188c-2.9 1.834-8.917 18.762-6.01 22.858 4.325 6.093 32.696-15.214 30.405-21.183-2.356-6.136-21.883-2.64-24.395-1.675m-14.341-9.677 3.368 5.018s.934 1.385.252 4.412c-1.066 4.734-5.207 16.96-5.819 27.111-.074 1.226-1.793 12.229 9.964 9.517s36.593-21.745 41.746-30.395-.843-13.795-8.332-14.524c-7.489-.73-19.089-.425-24.443.189s-4.956-1.165-9.326-5.975c-.327-.361-7.41 4.647-7.41 4.647" clip-rule="evenodd"/><path fill="url(#s)" fill-rule="evenodd" d="M216.503 238.52c-2.9 1.834-8.917 18.762-6.009 22.858 4.324 6.092 32.696-15.214 30.405-21.183-2.356-6.136-21.882-2.64-24.396-1.675m-13.394-10.003 3.368 5.018s.934 1.385.252 4.412c-1.066 4.734-5.207 16.96-5.819 27.111-.074 1.226-1.793 12.229 9.964 9.517s36.593-21.745 41.746-30.395-.843-13.795-8.332-14.524c-7.489-.73-19.089-.425-24.443.189s-4.956-1.165-9.326-5.975c-.328-.361-7.41 4.647-7.41 4.647" clip-rule="evenodd"/><path fill="#54575a" d="M214.776 227.853c-2.797 3.296-6.24 5.845-9.926 7.474.432-2.596-.374-3.792-.374-3.792l-3.368-5.018s7.083-5.008 7.41-4.647c3.294 3.624 3.879 5.527 6.258 5.983" filter="url(#u)" mask="url(#v)" transform="matrix(1.42953 .05311 -.05041 1.29187 -77.43 -78.8)"/><path fill="#c8c7c5" d="M116.052 45.547c17.234 36.62 72.865 128.908 102.86 168.287-2.858 14.11-18.673 23.308-29.809 18.791L73.761 66.024c-.07-12.347 22.06-27.271 42.291-20.477"/><path fill="#7c858c" d="M113.124 44.661c17.233 36.62 75.371 131.675 105.366 171.054-4.069 13.505-18.428 20.812-30.299 17.44L72.849 66.555c-.07-12.347 22.899-26.599 40.275-21.894"/><path fill="#c8c7c5" d="M192.119 225.881 73.534 54.687c3.174-9.061 16.868-17.988 30.225-18.875 22.158 44.223 78.164 134.394 111.831 178.223-5.194 8.137-14.62 12.648-23.471 11.846" filter="url(#w)" mask="url(#x)" transform="translate(0 8)"/><path fill="url(#B)" fill-rule="evenodd" d="M203.927 231.912 80.383 53.463c3.583-3.084 8.164-5.73 13.116-7.479 6.902 12.484 25.22 44.608 54.336 88.542 22.713 34.272 46.085 68.024 64.139 91.973a26.3 26.3 0 0 1-8.047 5.413m-3.597 1.245a24.5 24.5 0 0 1-4.223.733L75.218 59.278a23.7 23.7 0 0 1 2.494-3.23z" clip-rule="evenodd"/><path fill="#005f6a" fill-rule="evenodd" d="M364.11 175.909h-4.284l-3.612 11.34a48 48 0 0 0-.896 3.22c-.168-.7-.56-2.128-.924-3.22l-3.695-11.34h-4.341l6.972 19.6h3.808zm4.76.001h3.92v19.6h-3.92zm25.95 19.598-3.752-7.616c2.492-.98 3.752-2.828 3.752-5.768 0-4.172-3.052-6.216-6.748-6.216h-9.128v19.6h3.92v-7.056h3.948l3.5 7.056zm-4.031-13.3c0 1.708-.98 2.548-2.8 2.548h-5.124v-5.04h5.124c1.736.001 2.8.729 2.8 2.492m22.231-2.436v-3.863h-15.177v3.863h5.628v15.736h3.921v-15.736zm20.353 7.084v-10.948h-3.92v11.003c0 3.136-1.54 5.068-4.032 5.068s-4.004-1.988-4.004-5.124v-10.948h-3.92v11.003c0 5.712 3.192 8.904 7.924 8.904 4.984.002 7.952-3.273 7.952-8.958m22.117 8.652-7.448-19.6h-3.808l-7.504 19.6h4.2l1.54-4.368h7.168l1.54 4.368zm-7.196-8.091h-4.48l1.26-3.556c.392-1.148.784-2.324.98-3.052.196.728.588 1.904.98 3.052zm25.427 8.091v-3.863h-9.828v-15.736h-3.92v19.599zm4.729-19.598h3.92v19.6h-3.92zm24.915 19.598v-3.584h-6.748c-1.148 0-3.192.028-3.976.056.504-.504 1.624-1.792 2.24-2.548l8.344-10.052v-3.472h-14.756v3.583h6.133c1.148 0 3.192-.027 3.976-.056-.504.504-1.624 1.792-2.24 2.548l-8.428 10.052v3.472h15.455zm22.346 0-7.448-19.6h-3.808l-7.504 19.6h4.2l1.54-4.368h7.168l1.54 4.368zm-7.196-8.091h-4.48l1.26-3.556c.392-1.148.784-2.324.98-3.052.196.728.588 1.904.98 3.052zm22.935-7.645v-3.863h-15.176v3.863h5.628v15.736h3.92v-15.736zm4.9-3.862h3.92v19.6h-3.92zm26.062 9.798c0-5.964-3.164-10.108-8.512-10.108s-8.512 4.144-8.512 10.108 3.164 10.108 8.512 10.108 8.512-4.143 8.512-10.108m-4.032 0c0 3.5-1.316 6.216-4.48 6.216s-4.48-2.716-4.48-6.216 1.316-6.216 4.48-6.216 4.48 2.716 4.48 6.216m24.75 9.8v-19.6h-3.864v8.288c0 1.092.056 3.557.056 4.284-.252-.504-.896-1.484-1.372-2.212l-6.944-10.36h-3.752v19.6h3.864v-8.624c0-1.092-.056-3.556-.056-4.284.252.504.896 1.484 1.372 2.212l7.196 10.696zm32.188 0-7.448-19.6h-3.808l-7.504 19.6h4.2l1.54-4.368h7.168l1.54 4.368zm-7.196-8.091h-4.48l1.26-3.556c.392-1.148.784-2.324.98-3.052.196.728.588 1.904.98 3.052zm26.994-5.292c0-4.172-3.052-6.216-6.748-6.216H629.8v19.6h3.92v-6.944h4.312c4.061-.001 7.084-1.904 7.084-6.44m-4.032.083c0 1.708-.98 2.548-2.8 2.548h-4.564v-5.04h4.508c1.736.001 2.856.784 2.856 2.492m8.876-6.298h3.92v19.6h-3.92z" clip-rule="evenodd"/></svg>