<svg xmlns="http://www.w3.org/2000/svg" width="229" height="71" fill="none" viewBox="0 0 229 71"><path fill="#000" d="m77.67 15.677 6.596-1.593V45.93c0 3.526 1.024 5.573 3.071 6.256-1.023 1.933-2.73 2.957-5.231 2.957-2.958 0-4.55-2.048-4.55-6.256v-33.21zm16.605 38.896V31.6h-3.64v-5.46h10.35v28.434zm3.412-39.351c1.023 0 1.933.34 2.729 1.137.797.796 1.138 1.706 1.138 2.73 0 1.023-.341 1.933-1.138 2.73-.796.795-1.706 1.136-2.73 1.136-1.023 0-1.933-.34-2.729-1.137s-1.137-1.706-1.137-2.73c0-1.023.341-1.933 1.137-2.73.796-.795 1.706-1.136 2.73-1.136m29.229 39.351V38.196c0-2.389-.455-4.209-1.365-5.232-.91-1.137-2.388-1.706-4.549-1.706a6.2 6.2 0 0 0-3.071.796 8.1 8.1 0 0 0-2.616 2.047v20.472h-6.596v-28.32h4.777l1.251 2.616c1.819-2.16 4.435-3.184 7.961-3.184 3.412 0 6.028 1.024 7.961 3.07 1.934 2.048 2.957 4.891 2.957 8.417v17.401zm11.828-14.217q0-6.482 3.754-10.577t9.894-4.094c4.322 0 7.62 1.251 10.009 3.867 2.388 2.616 3.525 6.141 3.525 10.69 0 4.55-1.251 8.076-3.639 10.805-2.388 2.616-5.687 3.981-10.009 3.981-4.321 0-7.62-1.365-10.008-3.98-2.275-2.73-3.526-6.256-3.526-10.692m6.938 0c0 6.256 2.275 9.327 6.71 9.327 2.047 0 3.64-.797 4.891-2.389s1.819-3.98 1.819-6.937c0-6.142-2.274-9.213-6.71-9.213-2.047 0-3.753.796-4.89 2.389-1.251 1.592-1.82 3.866-1.82 6.823m43.787 14.217v-1.706c-.569.569-1.478 1.137-2.73 1.592q-1.876.683-4.094.683c-3.981 0-7.051-1.251-9.326-3.754-2.275-2.502-3.412-6.027-3.412-10.463s1.251-8.075 3.867-10.918 5.8-4.208 9.781-4.208c2.161 0 4.094.455 5.914 1.364V15.79l6.597-1.592v40.375zm0-21.61q-2.047-1.705-4.435-1.705-3.925 0-6.142 2.388c-1.479 1.593-2.161 3.98-2.161 6.938q0 8.871 8.53 8.871c.682 0 1.365-.227 2.388-.569.91-.34 1.479-.796 1.82-1.137zm38.555 9.44H207.78c.114 2.275.91 3.981 2.275 5.232 1.478 1.251 3.298 1.934 5.8 1.934 2.957 0 5.345-.796 6.824-2.389l2.616 5.005c-2.275 1.933-5.801 2.843-10.464 2.843q-6.482 0-10.235-3.753-3.754-3.753-3.754-10.577c0-4.436 1.365-8.075 4.095-10.805q4.094-4.094 9.894-4.094c4.095 0 7.393 1.25 9.895 3.64 2.502 2.501 3.753 5.572 3.753 9.325.114.796-.113 1.934-.455 3.64M208.007 37.4h13.876c-.455-4.094-2.73-6.255-6.824-6.255-3.753.114-6.142 2.161-7.052 6.255"/><path fill="#004712" d="m49.769 37.131-.797 9.158-2.628-1.831.32-4.619v-.16l-.08-.079-.08-.08-5.654-3.742.08-4.062zm-13.857 9.955-4.061-3.106v.717c0 .16-.08.318-.16.398l-3.026 2.07 3.345 2.708.08.08v.159l.159 3.185 3.743 3.106zM10.35 51.068l1.911 9.158 7.884 8.362-1.353-9.238zm7.406 1.354L15.844 39.6l-9.556-7.963L8.836 44.06zM14.73 31.716 12.101 13.56 1.111 6.71l3.584 17.122z"/><path fill="#00b259" d="m57.573 32.194-1.194 8.68-6.53 5.256.796-8.919zM36.788 47.086l.08 9.397 8.362-6.69.557-9.158zm-5.415 3.822L19.587 59.35l1.433 9.715 10.672-8.52zm-.319-6.37-.557-12.742L16.72 39.68l1.911 13.22zM30.18 24.39l-.717-17.202-16.564 6.371 2.707 18.476z"/><path fill="#000" d="M58.529 31.238q0-.12 0 0v-.16s0-.079-.08-.079c0 0-.08 0-.08-.08l-9.556-5.335c-.159-.08-.318-.08-.398 0l-8.123 4.938h-.08v.477l-.079 4.3-3.265-2.15a.5.5 0 0 0-.478 0l-4.858 2.708-.239-4.778v-.399h-.08l-4.937-3.264 4.62-2.39a.44.44 0 0 0 .238-.398l-.876-18.077v-.08s0-.08-.08-.08c0 0 0-.079-.08-.079L17.597.26c-.08-.08-.16-.08-.239-.08L.395 5.436s-.08 0-.08.08c0 0-.08 0-.08.08v.477L3.978 24.31c0 .08.08.16.16.239l5.096 3.982-3.743 1.752s-.08 0-.08.08c0 0 0 .079-.079.079v.16L8.2 44.297c0 .08.08.16.16.24l3.583 3.344-2.39 1.434-.079.08s0 .079-.08.079v.239l2.23 10.591c0 .08.08.16.08.24l8.68 9.555h.08s.08 0 .08.08h.398l11.467-9.158c.08-.08.16-.239.16-.319l-.24-6.29 3.823 3.185s.08 0 .08.08h.398l9.238-7.327c.08-.08.159-.16.159-.319l.319-4.619 2.787 1.912h.318s.08 0 .08-.08l7.486-5.973c.08-.08.16-.159.16-.239zq0 .12 0 0m-8.68 14.892.796-8.92 7.008-5.016-1.195 8.68zm-3.504-1.672.318-4.62v-.159l-.08-.079-.08-.08-5.653-3.743.08-4.061 8.839 5.495-.796 9.158zm-1.195 5.335-8.362 6.69-.08-9.397 9-6.45zM31.771 60.544l-10.75 8.521-1.434-9.715 11.706-8.362zm-19.59-.318-1.911-9.158 8.52 8.282 1.354 9.238zm-.16-46.667 2.628 18.157-9.954-7.884L1.111 6.71zm17.44-6.37.718 17.2-14.574 7.646-2.707-18.476zm1.594 37.348L18.63 52.82 16.72 39.6l13.777-7.884zM15.844 39.68l1.911 12.82-8.919-8.44-2.548-12.424zm16.325 10.432v-.16l-.08-.079-3.344-2.708 3.026-2.07c.16-.08.16-.24.16-.398v-.717l4.06 3.106.08 9.397-3.742-3.106z"/></svg>