<svg xmlns="http://www.w3.org/2000/svg" width="273" height="75" fill="none" viewBox="0 0 273 75"><path fill="#c02126" d="M73.175 64.294h-4.258v2.616h4.136v1.52h-4.136v3.65h4.258v1.521h-5.84V62.652h5.84zm1.46 2.494h1.52v.609c.305-.305.548-.548.791-.67.244-.121.487-.182.852-.182.73 0 1.338.365 1.764 1.034.487-.669 1.156-1.034 1.947-1.034 1.52 0 2.25.912 2.25 2.798v4.258h-1.52v-3.832c0-.67-.061-1.156-.244-1.4-.182-.303-.426-.425-.79-.425-.426 0-.73.183-.913.487s-.304.851-.304 1.581v3.528h-1.52v-3.832c0-1.216-.366-1.825-1.035-1.825-.426 0-.73.183-.973.487-.183.304-.304.851-.304 1.581v3.528h-1.521zm15.755 0h1.52v6.874h-1.52v-.73c-.61.608-1.34.912-2.069.912-.912 0-1.703-.365-2.311-1.034-.609-.73-.913-1.581-.913-2.615q0-1.551.913-2.555c.608-.67 1.338-1.034 2.25-1.034.79 0 1.46.304 2.068.973zm-3.711 3.407c0 .669.182 1.216.486 1.642.365.426.791.608 1.338.608.548 0 1.035-.182 1.4-.608.364-.426.547-.973.547-1.582 0-.608-.183-1.155-.547-1.581s-.791-.608-1.4-.608c-.547 0-.973.182-1.338.608-.304.365-.486.912-.486 1.52m6.63-6.264c0-.305.121-.548.304-.73.183-.183.426-.305.73-.305s.486.122.73.304c.182.183.304.426.304.73 0 .305-.122.548-.304.73a1 1 0 0 1-.73.304c-.304 0-.487-.121-.73-.304a1.12 1.12 0 0 1-.304-.73m1.764 2.858v6.874h-1.52v-6.874zm3.163-5.047v11.922h-1.52V61.74zm12.165 9.245h-4.562l-1.155 2.677h-1.704l5.232-11.618 5.048 11.618h-1.764zm-.608-1.52-1.581-3.71-1.643 3.71zm5.718-2.677v3.954c0 1.156.426 1.703 1.338 1.703.852 0 1.338-.547 1.338-1.703v-3.954h1.521v4.015c0 .547-.061 1.034-.182 1.399-.122.365-.365.67-.67.973-.547.487-1.155.73-2.007.73q-1.186 0-2.007-.73c-.304-.304-.548-.608-.669-.973-.122-.304-.183-.79-.183-1.4v-4.014zm7.36 1.46v5.414h-1.521v-5.414h-.669v-1.46h.669v-2.554h1.521v2.554h1.216v1.46zm1.703 1.947c0-.974.365-1.825 1.034-2.555a3.45 3.45 0 0 1 2.494-1.034c.973 0 1.825.365 2.555 1.034.669.73 1.034 1.581 1.034 2.615s-.365 1.886-1.034 2.616c-.669.67-1.521 1.034-2.555 1.034a3.45 3.45 0 0 1-2.494-1.034c-.669-.79-1.034-1.642-1.034-2.676m1.581 0q0 1.003.548 1.642c.365.426.852.608 1.46.608s1.095-.182 1.46-.608.547-.912.547-1.582c0-.669-.182-1.216-.547-1.581-.365-.426-.852-.608-1.46-.608s-1.095.182-1.46.608c-.365.365-.548.851-.548 1.52m6.874-3.406h1.521v.609c.304-.305.547-.548.79-.67.244-.121.487-.182.852-.182.73 0 1.338.365 1.764 1.034.487-.669 1.156-1.034 1.947-1.034 1.52 0 2.25.912 2.25 2.798v4.258h-1.521v-3.832c0-.67-.06-1.156-.243-1.4-.182-.303-.426-.425-.791-.425-.425 0-.73.183-.912.487s-.304.851-.304 1.581v3.528h-1.521v-3.832c0-1.216-.365-1.825-1.034-1.825-.426 0-.73.183-.973.487-.183.304-.304.851-.304 1.581v3.528h-1.521zm15.693 0h1.521v6.874h-1.521v-.73c-.608.608-1.338.912-2.068.912-.912 0-1.703-.365-2.311-1.034-.608-.73-.913-1.581-.913-2.615q0-1.551.913-2.555c.608-.67 1.338-1.034 2.25-1.034.791 0 1.46.304 2.069.973zm-3.649 3.407c0 .669.182 1.216.486 1.642.365.426.791.608 1.339.608s1.034-.182 1.399-.608.547-.973.547-1.582c0-.608-.182-1.155-.547-1.581s-.791-.608-1.399-.608c-.548 0-.974.182-1.339.608-.304.365-.486.912-.486 1.52m8.455-1.946v5.414h-1.521v-5.414h-.669v-1.46h.669v-2.554h1.521v2.554h1.216v1.46zm1.703-4.318c0-.305.122-.548.304-.73.183-.183.426-.305.73-.305s.487.122.73.304c.183.183.304.426.304.73 0 .305-.121.548-.304.73a1 1 0 0 1-.73.304c-.304 0-.486-.121-.73-.304-.243-.182-.304-.486-.304-.73m1.764 2.858v6.874h-1.52v-6.874zm1.277 3.408c0-.974.365-1.825 1.035-2.555a3.44 3.44 0 0 1 2.493-1.034c.974 0 1.825.365 2.555 1.034.669.73 1.034 1.581 1.034 2.615s-.365 1.886-1.034 2.616c-.669.67-1.521 1.034-2.555 1.034a3.44 3.44 0 0 1-2.493-1.034c-.67-.79-1.035-1.642-1.035-2.676m1.582 0q0 1.003.547 1.642c.365.426.852.608 1.46.608.609 0 1.095-.182 1.46-.608s.548-.912.548-1.582c0-.669-.183-1.216-.548-1.581-.365-.426-.851-.608-1.46-.608-.608 0-1.095.182-1.46.608-.365.365-.547.851-.547 1.52m6.873-3.406h1.521v.609c.547-.548 1.156-.852 1.825-.852q1.186 0 1.825.73c.365.426.547 1.156.547 2.129V73.6h-1.521v-3.832c0-.67-.121-1.156-.304-1.4-.182-.242-.486-.425-.973-.425q-.73 0-1.095.547c-.182.365-.304.974-.304 1.825v3.346h-1.521zM208.82 25.79h-7.36v3.65c-2.555-2.859-6.022-4.44-9.976-4.44-8.637 0-14.902 7.178-14.902 17.093 0 9.55 6.265 16.545 14.841 16.545 4.015 0 7.056-1.339 10.037-4.563v4.44c0 6.631-2.616 9.916-8.09 9.916-2.92 0-5.84-1.46-7.117-3.71-.73-1.278-.973-2.495-1.216-5.232h-7.178C177.92 69.04 183.82 75 193.309 75c5.414 0 10.158-2.19 12.774-6.144 2.129-3.04 2.737-5.839 2.737-12.043zm-15.998 5.719c5.292 0 8.942 4.136 8.942 10.158 0 6.204-3.528 10.34-8.82 10.34-5.353 0-8.82-4.014-8.82-10.219-.061-6.204 3.406-10.28 8.698-10.28"/><path fill="#646569" d="M67.214 25.79v31.813h7.3V41.18c0-6.752 1.824-9.671 5.9-9.671 3.284 0 4.866 2.737 4.866 8.455v17.64h7.3V41.18c0-6.813 1.824-9.671 5.9-9.671 3.527 0 4.865 2.372 4.865 8.394v17.7h7.3V37.956c0-8.516-3.65-13.017-10.706-13.017-3.893 0-7.117 1.643-9.367 4.684-1.947-3.041-4.927-4.684-8.455-4.684-3.163 0-4.806.852-7.543 3.771v-2.92zm70.925 0v3.711c-3.163-3.224-5.901-4.562-9.915-4.562-8.516 0-15.025 7.117-15.025 16.545 0 9.976 6.326 17.093 15.207 17.093 3.832 0 6.326-1.156 9.733-4.32v3.346h7.36V25.791zm-8.638 5.719c5.353 0 9.063 4.258 9.063 10.218 0 6.144-3.71 10.28-9.063 10.28-5.17 0-8.82-4.318-8.82-10.28 0-5.9 3.771-10.218 8.82-10.218m29.136-5.719h-7.36v31.813h7.36zm-3.588-17.7c-2.738 0-4.867 2.129-4.867 4.745s2.19 4.866 4.745 4.866a4.88 4.88 0 0 0 4.866-4.866 4.71 4.71 0 0 0-4.744-4.745m17.7-8.09h-7.36v57.603h7.36z"/><path fill="#c02126" d="M220.56 25.79h-7.361v18.431c0 4.988.913 7.726 3.346 10.341 2.555 2.616 6.022 4.015 10.219 4.015 4.258 0 7.725-1.338 10.28-4.015 2.433-2.615 3.345-5.353 3.345-10.34V25.79h-7.36V44.1c0 5.413-1.946 7.907-6.265 7.907-4.258 0-6.204-2.494-6.204-7.907zm24.695 0v31.813h7.36V42.275c0-7.847 1.825-10.706 6.752-10.706 4.562 0 5.961 2.069 5.961 8.334v17.761h7.36V38.14c0-8.942-3.71-13.139-11.496-13.139-3.467 0-5.657.973-8.516 3.771v-2.92h-7.421zm-215.51 2.495c-6.205 0-11.254 5.048-11.254 11.253 0 6.204 5.05 11.253 11.253 11.253 6.205 0 11.254-5.049 11.254-11.253 0-6.205-5.05-11.253-11.253-11.253M12.226 39.538c0-9.672 7.847-17.518 17.518-17.518 9.672 0 17.519 7.846 17.519 17.518 0 .669-.061 1.277-.122 1.885-.121 1.703 1.095 2.98 2.798 2.98 2.859 0 3.163-3.71 3.163-4.926 0-12.956-10.462-23.419-23.418-23.419-12.957 0-23.419 10.463-23.419 23.419s10.462 23.418 23.419 23.418c6.873 0 13.017-2.98 17.335-7.664l4.806 4.015a29.55 29.55 0 0 1-22.141 9.915C13.26 69.16 0 55.839 0 39.477 0 23.054 13.321 9.793 29.684 9.793c16.423 0 29.683 13.321 29.683 29.684 0 6.57-3.163 11.922-9.428 11.922-2.798 0-4.44-1.277-5.413-2.676-3.103 4.988-8.577 8.272-14.903 8.272-9.55.061-17.397-7.786-17.397-17.457m17.518-5.17c2.86 0 5.17 2.31 5.17 5.109a5.166 5.166 0 0 1-5.17 5.17 5.166 5.166 0 0 1-5.17-5.17c.061-2.798 2.312-5.11 5.17-5.11"/></svg>