<svg xmlns="http://www.w3.org/2000/svg" xml:space="preserve" width="24" height="24" viewBox="0 0 24 24"><g fill-rule="evenodd" clip-rule="evenodd"><path d="M4.316 2.886a1.3 1.3 0 0 0 .203.212q.053.041.11.076c.038.021.076.045.116.062q.061.03.122.055.06.024.123.045l.12.039q.06.018.122.034.096.153.187.348.09.199.18.424l.184.461q.094.236.197.468c.07.15.141.299.224.435.081.137.169.264.265.373q.142.168.313.275a1 1 0 0 0 .377.144.7.7 0 0 0 .26-.01 1 1 0 0 0 .123-.032l.121-.045.127-.046a2 2 0 0 1 .133-.045c.045-.011.09-.029.134-.044.047-.015.093-.033.147-.041l.517.969c.175.325.349.649.52.962q.256.47.514.938l.517.931q.259.466.521.928l.521.926.527.925c.174.306.413.708.588 1.012.049-.005.044-.002.094-.015.043-.012.068-.006.118-.017.051-.01.084-.015.134-.02.042-.007.083-.007.139-.014a.7.7 0 0 0 .144-.024c.044-.01.08-.014.122-.023.044-.012.09-.017.13-.032.044-.018.132-.025.171-.046-.16-.327-.337-.69-.505-1.014s-.38-.627-.553-.949q-.262-.485-.53-.966a110 110 0 0 0-.542-.966q-.272-.48-.549-.96l-.547-.964q-.272-.479-.542-.961-.269-.48-.533-.963.36-.159.575-.373.214-.216.308-.475a1.5 1.5 0 0 0 .087-.546 2.5 2.5 0 0 0-.088-.587 4 4 0 0 0-.219-.601 6 6 0 0 0-.305-.586 9 9 0 0 0-.681-1.006q.01-.073.029-.147l.041-.155.042-.158a3 3 0 0 0 .06-.316.7.7 0 0 0-.025-.302.6.6 0 0 0-.062-.144q-.072.06-.143.126-.069.069-.134.14-.063.073-.124.153-.063.079-.121.159a13 13 0 0 0-.231.329l-.112.159-.114.154q.048.087.113.179.06.09.132.187l.146.195q.08.096.156.2a7 7 0 0 1 .3.426 2.6 2.6 0 0 1 .235.453q.038.1.073.205.033.106.059.216.023.11.038.224.012.11.007.222a1 1 0 0 1-.03.212.8.8 0 0 1-.202.368 1 1 0 0 1-.19.142 9 9 0 0 1-.384-.609q-.09-.16-.176-.322-.085-.164-.167-.329L7.91 3.19l-.156-.336-.151-.335c-.052-.11-.115-.195-.184-.302-.026-.033-.034-.054-.065-.074l-.093-.061-.094-.062-.095-.059a1 1 0 0 0-.094-.051 1 1 0 0 0-.102-.041.6.6 0 0 0-.21-.029 1.5 1.5 0 0 0-.067.443c-.001.148-.041.283.019.432.032.145.116.287.174.425q.09.212.198.418.107.208.222.415c.074.138.148.275.213.412q.102.204.172.412.073.207.099.415-.246.026-.439-.029a1 1 0 0 1-.344-.186 1.3 1.3 0 0 1-.264-.299 2.5 2.5 0 0 1-.202-.388 5 5 0 0 1-.16-.435 13 13 0 0 1-.133-.452q-.063-.225-.126-.431a4 4 0 0 0-.127-.357q-.1.003-.203.003l-.209.004a14 14 0 0 0-.629.025l-.207.013a2 2 0 0 0-.399.061v.023l.003.02.006.022.01.02.012.02.015.021q.007.011.016.019l.02.019"/><path fill="#2196f3" d="M9.623 1.601c.108.156.177.322.327.47 3.693-1.902 8.07.205 10.539 2.875-.124-.441-.326-.984-.642-1.332-1.625-1.802-5.022-3.45-8.436-2.736-.398.083-.846.173-1.318.374-.219.096-.54.218-.504.301m5.388 17.781c-.835.415-1.675.81-2.565 1.069-1.94.565-4.347-.35-5.873-1.602-1.446-1.188-2.72-3.077-3.223-4.871-.907-3.226.164-6.452 2.129-9.064-.013-.23-.135-.47-.26-.646-2.926 2.966-3.891 7.568-2.591 11.53 1.557 5.532 7.723 8.621 13.69 6.197-.162-.443-.397-.779-.595-1.285a7.3 7.3 0 0 0-.712-1.328m-1.056-8.488c-.458-.12-.958-.056-1.408-.029l-.065.006c.306.488.609 1.022.895 1.512.926-.301 1.934-.037 2.873-.059-.521-.671-1.412-1.207-2.295-1.43m.112 1.109c-.073.072-.195.076-.284.032a.29.29 0 0 1-.101-.331c.048-.127.2-.162.311-.109.166.088.203.298.074.408m.742-.029a.3.3 0 0 1-.248-.007c-.066-.044-.139-.136-.081-.272.182-.404.715.085.329.279"/><path fill="#2196f3" d="M20.942 16.428a4.5 4.5 0 0 0-.467-1.367 3.6 3.6 0 0 0-.396-.595 3.3 3.3 0 0 0-1.1-.89 3.7 3.7 0 0 0-.622-.241 5 5 0 0 0-.661-.137 7 7 0 0 0-.696-.041 8 8 0 0 0-1.423.133 9 9 0 0 0-.703.154q-.348.09-.679.194-.334.107-.643.227l-.221.083q-.114.041-.234.081c-.081.024-.162.051-.246.07a2 2 0 0 1-.242.047 1.2 1.2 0 0 1-.457-.004.65.65 0 0 1-.376-.219.55.55 0 0 1-.124-.2.7.7 0 0 1-.044-.22 1 1 0 0 1-.008-.12l.001-.125.005-.131q.002-.066.002-.136-.055-.082-.095-.146l-.085-.133-.091-.141-.081-.14a2 2 0 0 0-.105-.157c-.037-.05-.062-.107-.096-.153-.03-.055-.064-.094-.093-.147-.031-.053-.133-.257-.174-.295a5 5 0 0 0-.307.439 2 2 0 0 0-.146.3 2.3 2.3 0 0 0-.167.648 4 4 0 0 0-.03.337 6 6 0 0 0-.002.342 6 6 0 0 0 .062.671c.038.126.069.243.103.35.033.11.07.21.124.305a3 3 0 0 0 .325.47c.057.072.284.253.378.301.189.099.14.074.257.118.104.041.133.051.225.073.101.029.2.046.329.072q.178.02.351.021c.117.001.232 0 .359-.001q.185-.01.374-.027c.125-.016.256-.03.38-.049.128-.022.255-.04.375-.065q.188-.035.37-.072.177-.03.342-.067c.111-.02.221-.037.319-.051a.9.9 0 0 1 .347.009q.179.03.354.117c.116.055.228.127.334.207a1.9 1.9 0 0 1 .506.636q.085.187.117.395.035.203-.002.422a1.4 1.4 0 0 1-.15.436c.073.133.149.262.226.396q.12.198.231.393l.235.389.239.389.246.382c.076.13.159.255.241.384q.123.185.244.378l.246.379q.168-.055.356-.147a4.4 4.4 0 0 0 .75-.513q.191-.16.373-.336a7 7 0 0 0 .339-.366q.166-.192.302-.39.139-.195.249-.388a3.5 3.5 0 0 0 .352-1.08 4 4 0 0 0 .06-.722 4.6 4.6 0 0 0-.062-.736m-4.65-.825c.364-.535.973-.093.797.327-.175.414-.98.317-.797-.327m.668 2.971c-.447-.386.106-.897.458-.728.447.215.115 1.022-.458.728m.006-1.236c-.423-.364.041-.873.399-.759.521.161.222 1.037-.399.759"/><path d="M14.908 16.175c-.296.05-.679.108-.967.21.079.13.097.151.147.24l.037.07c1.198 2.005 2.13 4.123 3.357 6.181.38-.218.518-.304.706-.54-1.031-2.108-2.16-4.075-3.28-6.161"/></g><path fill="#fff" d="M23.688 0v24M.375 0v24"/></svg>