<svg xmlns="http://www.w3.org/2000/svg" width="379" height="74" fill="none" viewBox="0 0 379 74"><path fill="#10aa50" d="M33.622 30.385c-3.95-17.427-12.186-22.067-14.286-25.35A37 37 0 0 1 17.039.539c-.111 1.549-.315 2.524-1.631 3.698C12.765 6.594 1.542 15.742.598 35.544c-.883 18.465 13.574 29.853 15.483 31.03 1.469.72 3.257 0 4.13-.648 6.967-4.782 16.487-17.53 13.406-35.541"/><path fill="#b8c4c2" d="M17.638 56.742c-.364 4.57-.625 7.226-1.549 9.84 0 0 .607 4.348 1.032 8.957h1.508a84 84 0 0 1 1.643-9.651c-1.95-.958-2.56-5.139-2.634-9.146"/><path fill="#12924f" d="M20.27 65.89c-1.972-.91-2.542-5.177-2.63-9.15.488-6.557.63-13.134.426-19.705-.106-3.445.046-31.933-.842-36.1a35 35 0 0 0 2.122 4.1c2.1 3.283 10.338 7.923 14.286 25.353 3.066 17.961-6.402 30.69-13.362 35.502"/><path fill="#21313c" d="M216.426 55.689c1.158.926 3.473 1.308 5.514 1.308 2.646 0 5.239-.493 7.774-2.782 2.58-2.343 4.356-5.936 4.356-11.667 0-5.505-2.096-9.977-6.395-12.594-2.426-1.525-5.569-2.116-9.157-2.116-1.032 0-2.095.057-2.699.328a1.44 1.44 0 0 0-.498.774c-.111.983-.111 8.452-.111 12.867 0 4.524 0 10.839.111 11.613.057.653.387 1.807 1.102 2.29zm-11.005-30.313c.937 0 4.499.162 6.153.162 3.097 0 5.239-.162 11.027-.162 4.852 0 8.932 1.31 11.853 3.817 3.531 3.053 5.404 7.306 5.404 12.482 0 7.36-3.355 11.614-6.725 14.014-3.355 2.505-7.719 3.925-13.936 3.925-3.308 0-8.988-.111-13.729-.163h-.065c-.222-.438.406-2.14.793-2.18 1.29-.148 1.628-.197 2.224-.442.999-.413 1.236-.924 1.347-2.722.166-3.381.111-7.415.111-11.993 0-3.272.055-9.652-.056-11.667-.166-1.69-.878-2.127-2.323-2.454a30 30 0 0 0-3.097-.49c-.108-.328.738-1.807 1.014-2.127m48.122 2.766c-.219.055-.498.602-.498.875-.054 1.962-.108 7.087-.108 10.628a.35.35 0 0 0 .276.273c.715.057 2.48.111 3.967.111 2.098 0 3.311-.274 3.971-.601 1.765-.873 2.581-2.78 2.581-4.852 0-4.743-3.309-6.542-8.214-6.542a15 15 0 0 0-1.985.108zm12.504 21.81c0-4.8-3.528-7.526-9.98-7.526-.273 0-2.322-.054-2.81.057-.165.052-.33.163-.33.271 0 3.435-.057 8.94.108 11.123.111.926.774 2.235 1.6 2.617.883.49 2.867.599 4.245.599 3.804 0 7.167-2.127 7.167-7.141m-22.473-24.48c.496 0 1.964.165 5.714.165 3.528 0 6.395-.111 9.806-.111 4.246 0 10.088 1.527 10.088 7.85 0 3.097-2.204 5.616-5.071 6.816-.167.054-.167.162 0 .219 4.08 1.032 7.662 3.543 7.662 8.34 0 4.687-2.921 7.634-7.166 9.485-2.581 1.146-5.789 1.528-9.033 1.528-2.48 0-9.128-.274-12.823-.217-.387-.165.354-1.91.684-2.18.846-.028 1.686-.16 2.501-.393 1.321-.325 1.478-.754 1.643-2.715.111-1.69.111-7.742.111-12.05 0-5.889.057-9.868 0-11.83-.056-1.527-.606-2.017-1.654-2.29-.826-.163-2.204-.326-3.306-.491-.276-.258.571-1.907.847-2.127M45.831 59.58a2.35 2.35 0 0 1-.167-1.102 1.4 1.4 0 0 1 .167-.733 18 18 0 0 0 2.117-.433c.975-.243 1.342-.774 1.398-2.018.16-2.94.17-8.452.111-12.33v-.114c0-.418 0-.983-.516-1.386a11 11 0 0 0-2.924-1.29c-.462-.14-.717-.382-.704-.666s.304-.62.905-.736c1.598-.165 5.781-1.164 7.425-1.922.17.22.25.497.222.774 0 .17-.026.35-.044.537-.046.55-.098 1.169-.098 1.788a.403.403 0 0 0 .562.324.4.4 0 0 0 .13-.09c3.13-2.45 5.935-3.328 7.373-3.328 2.366 0 4.209 1.133 5.636 3.46a.38.38 0 0 0 .32.186.36.36 0 0 0 .3-.16c2.877-2.183 5.729-3.486 7.636-3.486 4.513 0 7.21 3.38 7.21 9.032 0 1.626-.015 3.688-.03 5.613a606 606 0 0 0-.027 4.364c0 .258.356 1.001.89 1.149.661.32 1.614.485 2.819.691h.046c.09.325-.1 1.587-.284 1.845-.299 0-.712-.023-1.228-.049a69 69 0 0 0-3.716-.113c-2.999 0-4.565.06-6.062.155-.114-.375-.153-1.58-.016-1.833q.926-.161 1.827-.428c.955-.317 1.231-.748 1.29-2.018.024-.9.197-8.836-.11-10.72-.284-1.954-1.755-4.238-4.973-4.238-1.195 0-3.123.496-4.963 1.892a.73.73 0 0 0-.178.467v.036c.217 1.017.217 2.204.217 3.997 0 1.033 0 2.109-.013 3.185-.013 2.189-.023 4.256.013 5.814 0 1.064.642 1.32 1.161 1.523l.725.17c.434.104.883.212 1.549.318.097.453.088.923-.026 1.373a1.1 1.1 0 0 1-.194.47 158 158 0 0 0-5.847-.109c-.749 0-1.972.033-3.048.062-.875.023-1.704.046-2.173.046-.125-.3-.18-.625-.163-.95a1.66 1.66 0 0 1 .173-.887q.346-.065.663-.119a25 25 0 0 0 1.549-.31c.815-.258 1.122-.704 1.182-1.744.16-2.426.284-9.414-.06-11.164-.583-2.81-2.183-4.232-4.75-4.232-1.505 0-3.407.722-4.96 1.889a1.5 1.5 0 0 0-.458 1.12v2.887c-.013 3.51-.023 7.88.062 9.77.052.582.258 1.273 1.35 1.529.24.067.653.136 1.133.214.276.049.578.095.89.152a3.9 3.9 0 0 1-.15 1.845c-.48 0-1.068-.028-1.744-.059-1.032-.044-2.322-.103-3.78-.103-1.724 0-2.925.06-3.887.103-.648.031-1.208.057-1.768.06m55.353-20.357a4.7 4.7 0 0 0-2.637.74c-1.915 1.164-2.89 3.49-2.89 6.904 0 6.395 3.202 10.862 7.788 10.862a4.9 4.9 0 0 0 3.37-1.19c1.41-1.148 2.155-3.497 2.155-6.782 0-6.302-3.127-10.534-7.786-10.534m.883 20.878c-8.284 0-11.234-6.075-11.234-11.76 0-3.975 1.624-7.08 4.826-9.232a14.7 14.7 0 0 1 7.456-2.209c6.32 0 10.735 4.547 10.735 11.056 0 4.426-1.762 7.917-5.099 10.1-1.603.984-4.387 2.042-6.684 2.042m83.452-20.875a4.7 4.7 0 0 0-2.641.74c-1.912 1.164-2.887 3.49-2.887 6.904 0 6.395 3.202 10.862 7.788 10.862a4.9 4.9 0 0 0 3.371-1.19c1.409-1.148 2.154-3.497 2.154-6.782 0-6.302-3.127-10.534-7.785-10.534m.882 20.878c-8.284 0-11.236-6.075-11.236-11.76 0-3.975 1.626-7.08 4.831-9.232a14.7 14.7 0 0 1 7.453-2.209c6.32 0 10.736 4.547 10.736 11.056 0 4.426-1.766 7.917-5.1 10.1-1.603.984-4.387 2.042-6.684 2.042m-28.777-21.087c-2.552 0-4.204 2.016-4.204 5.138 0 3.123 1.42 6.829 5.42 6.829.686 0 1.93-.307 2.547-.986.929-.854 1.535-2.617 1.535-4.48 0-4.07-1.982-6.5-5.298-6.5m-.33 21.533a4.23 4.23 0 0 0-2.065.517c-2.02 1.29-2.957 2.58-2.957 4.08 0 1.406.544 2.521 1.716 3.515 1.419 1.202 3.334 1.785 5.85 1.785 4.95 0 7.172-2.66 7.172-5.3 0-1.838-.921-3.069-2.818-3.763-1.461-.537-3.902-.83-6.89-.83zm.338 12.648c-2.973 0-5.115-.627-6.947-2.036-1.778-1.375-2.581-3.414-2.581-4.823a3.77 3.77 0 0 1 .973-2.452c.516-.588 1.719-1.69 4.493-3.597a.23.23 0 0 0 .144-.217.23.23 0 0 0-.175-.227c-2.284-.875-2.973-2.323-3.182-3.097 0-.026-.013-.072-.023-.119-.065-.307-.127-.593.286-.892.32-.227.834-.532 1.381-.852a19 19 0 0 0 2.217-1.445.35.35 0 0 0 .093-.304.35.35 0 0 0-.186-.258c-3.381-1.139-5.084-3.65-5.084-7.485a7.44 7.44 0 0 1 3.122-6.124c1.36-1.073 4.775-2.366 6.986-2.366h.129c2.274.054 3.557.531 5.332 1.187a8.5 8.5 0 0 0 3.154.516c1.881 0 2.704-.596 3.409-1.29.117.312.178.642.18.975a3.66 3.66 0 0 1-.611 2.24c-.385.532-1.291.921-2.119.921-.085 0-.168 0-.258-.013a7.6 7.6 0 0 1-1.29-.214l-.212.073c-.067.098-.023.209.031.345 0 .034.026.065.031.086q.226 1.034.307 2.09c0 4.013-1.582 5.763-3.293 7.056a11.26 11.26 0 0 1-5.677 2.2c-.044 0-.258.019-.661.055-.258.023-.594.052-.643.052h-.049c-.371.105-1.342.567-1.342 1.424 0 .715.439 1.598 2.537 1.758l1.355.095c2.769.194 6.225.434 7.851.986a5.42 5.42 0 0 1 3.631 5.229c0 3.612-2.561 6.985-6.847 9.055a14.9 14.9 0 0 1-6.47 1.471M144.969 57.67c-1.213-.165-2.096-.33-3.141-.82a1.44 1.44 0 0 1-.387-.761c-.111-1.693-.111-6.597-.111-9.807 0-2.617-.439-4.903-1.549-6.542-1.323-1.853-3.197-2.945-5.623-2.945-2.15 0-5.017 1.474-7.386 3.492-.057.052-.42.398-.413-.14.008-.536.091-1.625.142-2.322a1.19 1.19 0 0 0-.361-1.009c-1.548.774-5.892 1.806-7.5 1.961-1.171.227-1.468 1.355-.219 1.745h.021c1.002.274 1.958.694 2.838 1.246.496.382.442.93.442 1.363.054 3.652.054 9.27-.111 12.323-.057 1.2-.387 1.633-1.27 1.853l.08-.026q-1.008.251-2.039.382c-.276.27-.276 1.85 0 2.178.553 0 3.355-.163 5.678-.163 3.197 0 4.852.163 5.677.163.331-.382.442-1.853.22-2.178a12 12 0 0 1-2.261-.33c-.88-.217-1.102-.653-1.156-1.634-.108-2.563-.108-8.016-.108-11.721 0-1.033.273-1.528.603-1.807 1.102-.983 2.922-1.636 4.522-1.636 1.548 0 2.58.49 3.355 1.143a4.67 4.67 0 0 1 1.548 3.056c.219 2.064.163 6.214.163 9.806 0 1.962-.163 2.455-.883 2.671-.33.165-1.213.328-2.258.439-.33.325-.222 1.85 0 2.178 1.432 0 3.097-.163 5.512-.163 3.033 0 4.96.163 5.735.163.33-.382.438-1.806.219-2.178m165.534 2.189-3.933-10.341h-15.342l-3.931 10.34h-3.592l13.979-34.274h2.71l13.652 34.275zM298.974 29.35l-6.709 17.528h13.303zm21.993 25.585c0 1.311.196 2.816 1.894 2.816 1.167 0 2.323-.824 3.205-1.456v2.914c-.632.485-1.845 1.068-3.835 1.068-.825 0-2.962-.049-3.69-2.088-.291-.825-.341-2.526-.341-3.788V39.1h-4.854v-2.428h4.854v-9.866h2.767v9.855h5.099v2.429h-5.099zm8.927 4.903V25.554h2.913v34.284zm28.101 0c-3.838 0-5.634-.97-5.634-4.222-.531 1.748-3.153 4.708-8.204 4.708-4.903 0-7.282-3.01-7.282-6.31 0-4.612 3.932-6.264 11.613-8l3.871-.875v-1.807c0-2.232-1.115-4.71-5.389-4.71-4.756 0-6.261 1.846-6.261 5.585l-3.156-.534c.583-4.71 3.737-7.574 9.079-7.574 4.029 0 8.496 1.213 8.496 6.99v10.148c0 3.097.095 4.32 2.96 4.32h.485v2.281zm-5.634-12.232-1.455.387c-7.866 2.088-11.262 2.58-11.262 5.972 0 1.602 1.262 3.835 4.66 3.835 2.816 0 6.261-1.698 7.428-4.37.436-.97.629-1.94.629-4.077zm11.131 5.621c.389 1.602 2.136 4.562 6.451 4.562 4.467 0 5.936-2.475 5.936-4.513 0-1.993-1.164-3.355-4.999-4.176l-2.72-.583c-3.592-.774-6.018-2.38-6.018-5.778 0-.823.144-3.058 1.99-4.707 1.602-1.459 4.271-1.944 6.309-1.944.682 0 3.546 0 5.678 1.505a6.33 6.33 0 0 1 2.526 3.74l-2.72.727c-.534-2.671-3.3-3.448-5.631-3.448-4.71 0-5.339 2.478-5.339 3.884 0 2.72 2.864 3.355 4.854 3.74l2.428.485c4.078.826 6.408 3.156 6.408 6.748 0 2.671-2.136 6.942-8.642 6.942-1.941 0-6.844-.291-9.322-6.214z"/></svg>