<svg xmlns="http://www.w3.org/2000/svg" width="135" height="70" fill="none" viewBox="0 0 135 70"><path fill="#00678c" fill-rule="evenodd" d="M0 63.771h4.45V46.146l6.948 15.367c.787 1.847 1.917 2.532 4.107 2.532s3.251-.685 4.073-2.532l6.914-15.367V63.77h4.483V46.146c0-1.711-.685-2.534-2.122-2.98-3.388-1.025-5.648-.136-6.674 2.157L15.37 60.52 8.797 45.323c-.993-2.292-3.286-3.182-6.708-2.156C.686 43.612 0 44.434 0 46.146zm34.671-14.34h4.484v9.686c-.034.547.171 1.78 2.601 1.813 1.267.034 9.652 0 9.72 0V49.362h4.484v15.847c0 3.901-4.826 4.757-7.085 4.791H34.773v-2.977H48.91c2.875-.308 2.533-1.745 2.533-2.225v-1.164H41.96c-4.415-.035-7.256-1.985-7.29-4.21 0-.205.102-9.925 0-9.993m96.174-11.226c-2.737-.069-4.86.205-6.64.958-.512.207-1.334.207-1.402.857.274.272.307.717.547 1.095.41.685 1.13 1.608 1.78 2.087.719.549 1.438 1.096 2.19 1.575 1.335.82 2.84 1.3 4.141 2.122.753.48 1.505 1.095 2.259 1.61.376.273.616.719 1.095.89v-.105c-.239-.306-.308-.751-.547-1.095-.343-.341-.685-.65-1.028-.992-.992-1.334-2.224-2.499-3.56-3.456-1.095-.754-3.491-1.78-3.936-3.046l-.067-.07c.751-.069 1.642-.342 2.361-.548 1.164-.307 2.224-.24 3.422-.547a29 29 0 0 0 1.644-.48v-.307c-.616-.616-1.061-1.437-1.711-2.019-1.745-1.506-3.663-2.978-5.648-4.21-1.061-.684-2.43-1.13-3.559-1.71-.412-.206-1.095-.309-1.334-.65-.618-.753-.959-1.746-1.404-2.637-.992-1.882-1.951-3.97-2.806-5.955-.616-1.334-.994-2.67-1.745-3.901-3.526-5.818-7.36-9.344-13.247-12.8-1.265-.72-2.771-1.028-4.38-1.404-.856-.034-1.711-.102-2.567-.137-.549-.24-1.096-.89-1.575-1.198-1.95-1.232-6.982-3.902-8.42-.377-.925 2.225 1.369 4.415 2.156 5.545.583.787 1.335 1.677 1.746 2.566.24.582.307 1.199.547 1.815.547 1.505 1.061 3.182 1.78 4.586.376.719.786 1.472 1.266 2.123.274.376.753.547.855 1.163-.48.685-.512 1.712-.786 2.568-1.233 3.867-.753 8.659.992 11.5.548.855 1.848 2.737 3.594 2.018 1.54-.616 1.198-2.566 1.643-4.278.103-.41.034-.684.239-.958v.069c.48.958.959 1.882 1.404 2.84 1.061 1.677 2.909 3.423 4.45 4.587.821.615 1.471 1.677 2.497 2.053v-.103h-.067c-.206-.307-.514-.445-.788-.685-.616-.616-1.3-1.37-1.78-2.053-1.436-1.916-2.702-4.04-3.832-6.23-.548-1.06-1.028-2.224-1.471-3.285-.207-.41-.207-1.027-.549-1.232-.514.753-1.266 1.404-1.644 2.328-.65 1.471-.718 3.285-.957 5.168-.138.034-.069 0-.138.068-1.094-.273-1.471-1.403-1.882-2.361-1.026-2.43-1.198-6.332-.308-9.139.24-.718 1.267-2.977.857-3.662-.207-.65-.89-1.026-1.267-1.54-.445-.65-.923-1.471-1.232-2.19-.82-1.917-1.23-4.039-2.121-5.956-.412-.89-1.13-1.814-1.713-2.635-.65-.924-1.367-1.575-1.881-2.67-.171-.376-.41-.992-.137-1.402.068-.274.206-.377.478-.445.445-.377 1.712.103 2.157.307 1.266.514 2.327.993 3.388 1.711.479.342.993.993 1.609 1.164h.72c1.095.24 2.326.069 3.352.376 1.815.583 3.457 1.438 4.93 2.362 4.483 2.84 8.18 6.88 10.678 11.705.41.787.581 1.506.959 2.328.719 1.677 1.609 3.388 2.326 5.031.72 1.609 1.404 3.252 2.431 4.587.513.718 2.566 1.094 3.491 1.47.685.309 1.745.583 2.362.959 1.163.719 2.327 1.54 3.422 2.327.547.41 2.259 1.265 2.361 1.95" clip-rule="evenodd"/><path fill="#00678c" fill-rule="evenodd" d="M95.935 8.463a5.5 5.5 0 0 0-1.403.17v.069h.068c.274.548.753.924 1.095 1.403.274.548.514 1.095.788 1.643l.068-.068c.48-.342.72-.89.72-1.712-.206-.239-.24-.479-.411-.718-.206-.342-.65-.514-.925-.787" clip-rule="evenodd"/><path fill="#ce8b2c" fill-rule="evenodd" d="M59.383 63.771H72.25c1.506 0 2.944-.307 4.107-.855 1.951-.89 2.876-2.087 2.876-3.661v-3.286c0-1.266-1.061-2.465-3.182-3.285-1.096-.41-2.465-.65-3.8-.65h-5.407c-1.814 0-2.67-.55-2.91-1.746-.034-.137-.034-.274-.034-.41v-2.02c0-.104 0-.24.034-.376.24-.925.72-1.165 2.294-1.335h13.176V43.17H66.878c-1.814 0-2.772.103-3.628.377-2.636.82-3.8 2.122-3.8 4.414v2.602c0 2.019 2.26 3.73 6.093 4.141.41.035.855.035 1.3.035h4.621c.171 0 .342 0 .478.034 1.404.137 2.02.376 2.43.889.274.273.343.514.343.822v2.601c0 .307-.205.72-.616 1.061s-1.062.582-1.917.616c-.172 0-.273.035-.445.035H59.383zm47.709-5.167c0 3.046 2.294 4.757 6.88 5.1.445.034.856.067 1.301.067h11.636v-2.977h-11.738c-2.603 0-3.595-.65-3.595-2.224V43.168h-4.485zm-25.019.136V48.13c0-2.703 1.917-4.347 5.649-4.86.41-.034.82-.069 1.197-.069h8.487c.445 0 .822.035 1.267.07 3.731.512 5.612 2.156 5.612 4.86V58.74c0 2.19-.786 3.354-2.635 4.142l4.381 3.97h-5.168l-3.56-3.217-3.594.205h-4.792a10.5 10.5 0 0 1-2.6-.341c-2.84-.789-4.244-2.294-4.244-4.76m4.826-.238c0 .136.07.272.104.445.239 1.231 1.402 1.916 3.182 1.916h4.04l-3.697-3.354h5.167l3.251 2.944q.927-.515 1.13-1.439c.035-.136.035-.306.035-.445V48.405c0-.137 0-.272-.035-.41-.239-1.163-1.402-1.813-3.148-1.813h-6.743c-1.986 0-3.286.855-3.286 2.223zm42.065 5.304h.65v-2.498h.855v-.514h-2.395v.514h.89zm4.962 0h.616v-3.012h-.923l-.753 2.054-.821-2.054h-.89v3.012h.582v-2.292h.034l.856 2.292h.444l.856-2.292v2.292z" clip-rule="evenodd"/></svg>