<svg xmlns="http://www.w3.org/2000/svg" width="255" height="78" fill="none" viewBox="0 0 255 78"><path fill="#000" d="M93 33.42V64h-7.44V23.68h10.16L111 54.29V23.68h7.44V64h-10.16zm43.58 31.16c-10.1 0-12.82-5.57-12.82-11.62v-7.44c0-6 2.72-11.61 12.82-11.61s12.83 5.56 12.83 11.61V53c0 6-2.72 11.58-12.83 11.58m0-24.38c-3.93 0-5.44 1.75-5.44 5.08v7.92c0 3.33 1.51 5.09 5.44 5.09S142 56.53 142 53.2v-7.92c0-3.28-1.48-5.08-5.42-5.08M171.85 64V43.4c0-1.57-.67-2.36-2.36-2.36s-5 1.09-7.68 2.48V64h-7.38V34.51h5.62l.73 2.48a29.6 29.6 0 0 1 11.8-3.08c2.84 0 4.59 1.15 5.56 3.14A29 29 0 0 1 190 33.91c4.9 0 6.65 3.44 6.65 8.71V64h-7.38V43.4c0-1.57-.66-2.36-2.36-2.36a19.55 19.55 0 0 0-7.68 2.48V64zm52.69 0h-6.05l-.55-2a16.15 16.15 0 0 1-8.77 2.6c-5.38 0-7.68-3.69-7.68-8.77 0-6 2.6-8.29 8.59-8.29h7.08v-3.11c0-3.26-.91-4.41-5.63-4.41a41.6 41.6 0 0 0-8.17.9l-.9-5.62a38.3 38.3 0 0 1 10.1-1.39c9.25 0 12 3.26 12 10.64zm-7.38-11.13h-5.45c-2.42 0-3.08.67-3.08 2.91 0 2 .66 3 3 3a11.7 11.7 0 0 0 5.57-1.51zm11.91-8.56c0-6.53 2.9-10.4 9.74-10.4 2.644.026 5.28.307 7.87.84V22.47l7.38-1V64h-5.87l-.73-2.48a15.46 15.46 0 0 1-9.31 3.09c-5.93 0-9.08-3.51-9.08-10.23zM246.68 41a33 33 0 0 0-6.54-.78c-2.66 0-3.69 1.27-3.69 3.93v10.39c0 2.42.91 3.75 3.63 3.75a10.43 10.43 0 0 0 6.6-2.67zM29.14 10.19 0 27v33.63l29.12 16.81 29.14-16.81V27zm13 37-7.76 4.48L25 46.54v10.72l-8.81 5.59v-22.4l7-4.28 9.7 5.11V30.34l9.25-5.56zm51.28-33.38V8.15h-5.17v5.66h-2.64V.22h2.64v5.7h5.17V.22h2.65v13.59zm12.33 0h-2.1l-.19-.67a5.7 5.7 0 0 1-3 .87c-1.86 0-2.66-1.23-2.66-2.92 0-2 .9-2.76 3-2.76h2.45v-1c0-1.09-.31-1.47-1.95-1.47-.951.01-1.898.11-2.83.3l-.31-1.87a14 14 0 0 1 3.5-.46c3.2 0 4.15 1.08 4.15 3.54zm-2.56-3.7h-1.89c-.83 0-1.06.22-1.06 1s.23 1 1 1a4 4 0 0 0 1.93-.51zM111.1 14a12.6 12.6 0 0 1-3.52-.56l.36-1.88a11.5 11.5 0 0 0 3 .43c1.13 0 1.3-.24 1.3-1s-.13-.9-1.78-1.29c-2.5-.58-2.79-1.18-2.79-3.08s.9-2.83 3.81-2.83a14 14 0 0 1 3.06.34l-.25 2a19 19 0 0 0-2.81-.28c-1.11 0-1.3.24-1.3.84 0 .79.07.85 1.45 1.19 2.85.73 3.12 1.09 3.12 3.1S114.18 14 111.1 14m11.71-.2V7c0-.53-.23-.79-.82-.79a7.1 7.1 0 0 0-2.66.83v6.8h-2.56V0l2.56.38v4.34a9.3 9.3 0 0 1 3.73-.94c1.7 0 2.31 1.14 2.31 2.89v7.11zm4.7-11.19V.21h2.56v2.4zm0 11.19V4h2.56v9.8zm4.6-9.72c0-2.46 1.49-3.88 5-3.88 1.276 0 2.548.147 3.79.44l-.29 2.19a21.5 21.5 0 0 0-3.42-.34c-1.82 0-2.41.6-2.41 2v5.15c0 1.43.59 2 2.41 2a21.6 21.6 0 0 0 3.42-.35l.29 2.2c-1.242.293-2.514.44-3.79.44-3.48 0-5-1.43-5-3.88zM146.52 14c-3.5 0-4.44-1.85-4.44-3.86V7.67c0-2 .94-3.86 4.44-3.86S151 5.66 151 7.67v2.48c0 2.01-1 3.85-4.48 3.85m0-8.11c-1.36 0-1.89.58-1.89 1.69v2.64c0 1.1.53 1.69 1.89 1.69s1.89-.59 1.89-1.69V7.59c0-1.11-.53-1.69-1.89-1.69zm11.64.16c-.934.409-1.837.887-2.7 1.43v6.32h-2.56V4h2.16l.17 1.08c.834-.54 1.735-.97 2.68-1.28zm10.22 4.49c0 2.17-1 3.46-3.37 3.46a15 15 0 0 1-2.73-.28v4l-2.55.38V4h2l.25.82a5.54 5.54 0 0 1 3.23-1c2 0 3.14 1.16 3.14 3.4zm-6.1 1.11c.747.159 1.507.246 2.27.26.92 0 1.28-.43 1.28-1.31V7.15c0-.81-.32-1.25-1.26-1.25a3.68 3.68 0 0 0-2.29.89z"/></svg>