<svg xmlns="http://www.w3.org/2000/svg" width="134.75" height="35" viewBox="0 0 134.75 35"><defs><clipPath id="a"><path fill="#005953" d="M0 0h134.75v35H0z" data-name="Rectangle 4514"/></clipPath></defs><g data-name="Groupe 4052"><g fill="#005953" fill-rule="evenodd" clip-path="url(#a)" data-name="Groupe 4051"><path d="M38.367 17.414a8.394 8.394 0 0 1-8.875 13.972 10.915 10.915 0 0 1-16.227 0A8.386 8.386 0 0 1 4.39 17.414a7.885 7.885 0 0 1 7.091-11.4 8 8 0 0 1 1.216.092 9.919 9.919 0 0 1 17.363 0 8 8 0 0 1 1.216-.092 7.885 7.885 0 0 1 7.091 11.4m-6.2-13.273a2.07 2.07 0 1 1 2.078-2.07 2.074 2.074 0 0 1-2.078 2.07M2.771 7.986a2.761 2.761 0 1 1 2.772-2.761 2.766 2.766 0 0 1-2.772 2.761M18.794 26.2a32 32 0 0 1-.214-4.02v-3.9a4.1 4.1 0 0 1 3.982-4.274 2.08 2.08 0 0 1 1.764.745 3.03 3.03 0 0 1 .428 1.97v5.457a30 30 0 0 1-.214 4.02h6.548a5.76 5.76 0 0 1-1.2-3.993v-6.679a5.73 5.73 0 0 0-1.523-4.472 5.9 5.9 0 0 0-4.3-1.491c-2.191 0-4.886.993-5.5 2.709 0-.186.027-1.032.027-1.192V9.963h-5.33a26.4 26.4 0 0 1 .214 4.02v8.2a30 30 0 0 1-.214 4.02Z" data-name="Tracé 2913"/><path d="M93.213 15.728v-.612c0-1.278-.775-1.863-2.539-1.863-1.71 0-2.619.559-3.02 1.863l-5.1-.825a5.72 5.72 0 0 1 2.245-3.221 10.3 10.3 0 0 1 6.013-1.517 11.6 11.6 0 0 1 4.944.932c1.71.932 2.458 2.4 2.458 4.792v6.256a7.73 7.73 0 0 0 1.177 4.712h-6.178V25.02a7.78 7.78 0 0 1-5.184 1.6 6.55 6.55 0 0 1-4.623-1.464 4.78 4.78 0 0 1-1.47-3.62 4.47 4.47 0 0 1 1.951-3.886 11.14 11.14 0 0 1 5.558-1.73c1.042-.106 1.844-.133 3.768-.186m0 4.153v-.745a16 16 0 0 0-4.623.532 1.97 1.97 0 0 0-1.55 1.757c0 .958.8 1.517 2.191 1.517a4.96 4.96 0 0 0 3.02-1.012 2.68 2.68 0 0 0 .962-2.05m6.472 8.438 3.848-2.529a4.87 4.87 0 0 0 4.062 1.81 4.12 4.12 0 0 0 3.26-1.171 4.2 4.2 0 0 0 .855-2.848 6.68 6.68 0 0 1-4.864 1.757c-4.65 0-7.589-3.035-7.589-7.879 0-4.738 3.02-7.853 7.589-7.853a7.44 7.44 0 0 1 4.864 1.544v-1.15h5.6a11.7 11.7 0 0 0-.579 4.568v8.476c0 3.194-.909 5.351-2.779 6.655a11.3 11.3 0 0 1-6.36 1.571c-3.634 0-6.039-.905-7.91-2.955m4.65-10.834c0 2.449 1.389 4.02 3.5 4.02a4.072 4.072 0 0 0 .027-8.119c-2.138 0-3.527 1.624-3.527 4.1m25.377 3.511 4.747.867.05.014a7.7 7.7 0 0 1-1.764 2.742 8.7 8.7 0 0 1-6.307 2.263 8.37 8.37 0 0 1-6.2-2.263 9.04 9.04 0 0 1-2.432-6.5c0-5.271 3.394-8.758 8.5-8.758a7.675 7.675 0 0 1 8.017 6.229 19.4 19.4 0 0 1 .4 3.487 5 5 0 0 0 .027.532h-12.023a3.364 3.364 0 0 0 3.634 3.3 3.9 3.9 0 0 0 2.7-.985 2.34 2.34 0 0 0 .654-.934m-6.907-5.055h6.868a3.11 3.11 0 0 0-3.367-2.609 3.223 3.223 0 0 0-3.5 2.609" data-name="Tracé 2914"/><path d="M51.555 26.243h-5.532a30 30 0 0 0 .214-4.02v-8.2a26.4 26.4 0 0 0-.214-4.02h5.318v1.118c0 .16-.027 1.006-.027 1.192.619-1.717 3.314-2.709 5.5-2.709a5.9 5.9 0 0 1 4.3 1.491 5.73 5.73 0 0 1 1.523 4.472v6.682a5.76 5.76 0 0 0 1.2 3.993h-6.548a30 30 0 0 0 .214-4.02v-5.457a3.03 3.03 0 0 0-.428-1.97 2.08 2.08 0 0 0-1.764-.745 4.1 4.1 0 0 0-3.982 4.274v3.9a32 32 0 0 0 .214 4.02m23.785-16.088h5.532a30 30 0 0 0-.214 4.02v8.2a26.4 26.4 0 0 0 .214 4.02h-5.318v-1.12c0-.16.027-1.006.027-1.192-.619 1.717-3.314 2.709-5.5 2.709a5.9 5.9 0 0 1-4.3-1.491 5.73 5.73 0 0 1-1.523-4.472v-6.682a5.76 5.76 0 0 0-1.2-3.993h6.548a30 30 0 0 0-.214 4.02v5.457a3.03 3.03 0 0 0 .428 1.97 2.08 2.08 0 0 0 1.764.745 4.1 4.1 0 0 0 3.982-4.274v-3.897a32 32 0 0 0-.214-4.02" data-name="Tracé 2915"/></g></g></svg>