<svg xmlns="http://www.w3.org/2000/svg" width="128" height="31" fill="none" viewBox="0 0 128 31"><path fill="#c74634" d="M43.6 9.1h6.5l-3.4-5.6-6.3 10h-2.9l7.7-12.1c.3-.5.9-.8 1.5-.8s1.2.3 1.5.8l7.7 12.1H53l-1.4-2.2H45zm29.9 2.2V.9h-2.4v11.5c0 .3.1.6.4.8.2.2.6.4.9.4h11.1l1.5-2.2H73.5zM33.1 9.4c2.4 0 4.3-1.9 4.3-4.3S35.5.8 33.1.8H22.4v12.7h2.4V3.1h8.1C34 3.1 35 4 35 5.2c0 1.1-.9 2.1-2.1 2.1H26l7.3 6.4h3.5L32 9.4zM7.3 13.6h7.4c3.5 0 6.3-2.8 6.3-6.4C21 3.7 18.2.8 14.7.8H7.3C3.8.8.9 3.6.9 7.2c.1 3.5 2.9 6.4 6.4 6.4m7.3-2.3H7.5c-2.3 0-4.1-1.8-4.1-4.1s1.8-4.1 4.1-4.1h7.1c2.3 0 4.1 1.8 4.1 4.1s-1.9 4.1-4.1 4.1M61 13.6h7.5l1.4-2.2h-8.8c-2.3 0-4.1-1.8-4.1-4.1s1.8-4.1 4.1-4.1h7.2L69.7 1H61c-3.5 0-6.4 2.8-6.4 6.4 0 3.3 2.9 6.2 6.4 6.2m29.9-2.3c-1.9 0-3.5-1.3-4-3h10.4l1.4-2.2H86.9c.5-1.7 2.1-3 4-3h7.2L99.5.9h-8.8c-3.5 0-6.4 2.8-6.4 6.4 0 3.5 2.8 6.4 6.4 6.4h7.5l1.4-2.2h-8.7"/><path fill="#312d2a" d="M9.2 28.6v1.1c-.4.2-.8.4-1.3.5s-1 .2-1.5.2c-1.5 0-2.7-.5-3.5-1.4s-1.2-2.3-1.2-4c0-1.1.2-2 .6-2.8s.9-1.4 1.7-1.8c.7-.4 1.6-.6 2.6-.6.4 0 .9.1 1.3.2.5.1.8.3 1.1.5v1.1c-.5-.2-.9-.4-1.3-.5-.5-.1-.8-.1-1.2-.1-1.1 0-2 .3-2.6 1Q3 23.05 3 25c0 1.4.3 2.4.9 3.1s1.5 1.1 2.6 1.1q1.2 0 2.7-.6m1.7 1.6v-9.5l-.7-.5v-.5h2v10.5zm6.4.1c-1.1 0-2-.3-2.6-1s-.9-1.6-.9-2.8.3-2.1.9-2.8 1.5-1 2.6-1 2 .3 2.6 1 .9 1.6.9 2.8-.3 2.1-.9 2.8c-.7.7-1.5 1-2.6 1m0-1c.7 0 1.3-.2 1.6-.7q.6-.75.6-2.1t-.6-2.1c-.4-.5-.9-.7-1.6-.7s-1.3.2-1.6.7q-.6.75-.6 2.1t.6 2.1c.4.5.8.7 1.6.7m5-1.9v-4.5h1.3v4.5c0 .6.1 1.1.4 1.4s.7.5 1.2.5c.4 0 .9-.2 1.2-.5q.6-.45.9-1.2v-4.8h1.3v7.3h-.9l-.2-1.2c-.3.4-.7.8-1.1 1-.5.2-.9.4-1.5.4-.8 0-1.4-.3-1.9-.8-.5-.4-.7-1.2-.7-2.1m13.6 2.8-.2-1.2c-.3.4-.6.7-1.1 1-.4.2-.9.4-1.4.4-1 0-1.7-.3-2.3-1-.5-.7-.8-1.6-.8-2.8s.3-2.1.8-2.8 1.3-1 2.3-1c.4 0 .8.1 1.2.2.4.2.7.4 1.1.7v-4h1.3v10.5zm-4.4-3.7c0 .9.2 1.6.5 2.1s.8.7 1.5.7c.4 0 .8-.1 1.2-.4.4-.2.7-.6.9-1v-3.2c-.6-.7-1.2-1-2-1-.7 0-1.2.2-1.5.7-.5.5-.6 1.2-.6 2.1m10.9 3.7V20h1.3v10.2zm3.5 0v-7.3h.9l.2 1.2c.3-.4.7-.8 1.1-1s1-.4 1.5-.4c.8 0 1.5.3 1.9.8s.7 1.2.7 2.2v4.5H51v-4.5c0-1.3-.6-1.9-1.7-1.9-.5 0-.9.1-1.3.4q-.6.45-.9 1.2v4.8zm8.8 0v-6.3h-1.3v-.6l1.3-.4V22c0-1.6.8-2.5 2.4-2.5.2 0 .3 0 .5.1v1h-.4q-.6 0-.9.3c-.2.2-.3.6-.3 1.1v.9h1.7v1H56v6.3zm4.4 0v-7.3h.9l.3 1.4c.5-.9 1.2-1.4 2-1.4h.5V24h-.3c-.5 0-1 .1-1.3.4s-.6.7-.7 1.3v4.4h-1.4zm9.5 0-.2-1.2c-.6.9-1.4 1.3-2.4 1.3q-1.05 0-1.8-.6c-.5-.4-.7-1-.7-1.7 0-.8.3-1.4.8-1.8s1.3-.6 2.2-.6h1.7v-.5c0-.5-.1-.9-.3-1.1q-.3-.3-1.2-.3c-.4 0-.7 0-1.1.1s-.9.2-1.4.4v-1c.4-.2.8-.3 1.2-.4.5-.1.9-.1 1.3-.1 1.8 0 2.8.8 2.8 2.5v5zm-2.5-.9c.4 0 .8-.1 1.2-.4.4-.2.7-.6.9-1v-1.4h-1.6c-.6 0-1.1.1-1.4.3s-.5.6-.5 1.1c0 .4.1.8.4 1 .3.3.6.4 1 .4m5 .5v-1.1c.4.2.8.3 1.2.4s.7.1 1.1.1c1.2 0 1.8-.4 1.8-1.1 0-.3-.1-.5-.3-.7s-.5-.3-.9-.4l-1.1-.3c-.7-.2-1.2-.4-1.5-.8-.3-.3-.5-.7-.5-1.2 0-.6.2-1.1.7-1.5s1.2-.6 2-.6c.5 0 .9 0 1.3.1s.7.2 1 .3v1.1c-.7-.3-1.4-.4-2.2-.4-1.1 0-1.6.3-1.6.9 0 .3.1.5.2.6.2.2.5.3.9.4l1.2.3c.7.2 1.2.4 1.5.8s.5.8.5 1.3c0 .7-.3 1.2-.8 1.6s-1.3.6-2.2.6c-.4 0-.9 0-1.3-.1-.3 0-.7-.1-1-.3m7.3-1.9v-4h-1.3v-.6l1.3-.4.5-2h.8v2h1.6v1h-1.6v4c0 .8.3 1.2 1 1.2h.6v1.1c-.1 0-.3 0-.4.1h-.4c-.7 0-1.2-.2-1.6-.6-.3-.4-.5-1-.5-1.8m4.5 2.3v-7.3h.9l.3 1.4c.5-.9 1.2-1.4 2-1.4h.5V24h-.3c-.5 0-1 .1-1.3.4s-.6.7-.7 1.3v4.4h-1.4zm5.1-2.8v-4.5h1.3v4.5c0 .6.1 1.1.4 1.4s.7.5 1.2.5c.4 0 .9-.2 1.2-.5s.7-.7.9-1.2v-4.8h1.3v7.3h-.9l-.2-1.2c-.3.4-.7.8-1.1 1-.5.2-.9.4-1.5.4-.8 0-1.4-.3-1.9-.8-.5-.4-.7-1.2-.7-2.1m13.5 1.4v1c-.6.3-1.3.5-2.2.5-1.1 0-2-.3-2.6-1s-.9-1.6-.9-2.9c0-1.2.3-2.1.9-2.8.6-.6 1.5-1 2.6-1 .7 0 1.3.2 1.9.5v1c-.6-.3-1.2-.5-1.7-.5q-2.4 0-2.4 2.7c0 1 .2 1.7.6 2.2s.9.7 1.7.7c.3 0 .6 0 1-.1.3 0 .7-.2 1.1-.3m2-.9v-4h-1.3v-.6l1.3-.4.5-2h.8v2h1.6v1h-1.6v4c0 .8.3 1.2 1 1.2h.6v1.1c-.1 0-.3 0-.4.1h-.4c-.7 0-1.2-.2-1.6-.6-.3-.4-.5-1-.5-1.8m4.5-.5v-4.5h1.3v4.5c0 .6.1 1.1.4 1.4s.7.5 1.2.5c.4 0 .9-.2 1.2-.5s.7-.7.9-1.2v-4.8h1.3v7.3h-.9l-.2-1.2c-.3.4-.7.8-1.1 1-.5.2-.9.4-1.5.4-.8 0-1.4-.3-1.9-.8-.5-.4-.7-1.2-.7-2.1m8.3 2.8v-7.3h.9l.3 1.4c.5-.9 1.2-1.4 2-1.4h.5V24h-.3c-.5 0-1 .1-1.3.4s-.6.7-.7 1.3v4.4h-1.4zm10.4-.4c-.3.2-.6.3-1 .4s-.9.1-1.4.1c-1.2 0-2-.3-2.6-1s-.9-1.6-.9-2.9c0-1.2.3-2.2.8-2.8.6-.6 1.4-1 2.4-1 2 0 3.1 1.1 3.1 3.4v.8H122c.1.8.3 1.4.7 1.8s1 .6 1.7.6c.4 0 .8 0 1.2-.1s.8-.2 1.1-.4zm-2.7-6.1c-.6 0-1.1.2-1.4.6s-.5.9-.6 1.6h3.8c0-.8-.1-1.3-.4-1.7-.3-.3-.7-.5-1.4-.5"/></svg>