<svg xmlns="http://www.w3.org/2000/svg" width="208" height="70" fill="none" viewBox="0 0 208 70"><path fill="#007dc1" d="M58.735 34.844c0-10.795.017-21.598-.025-32.385 0-1.5.992-2.434 2.492-2.434 2.776-.017 5.569-.025 8.344 0 1.576.017 2.493.975 2.476 2.45-.041 9.554-.025 19.123-.025 28.676v.525c.017 1.06.484 1.834 1.459 2.251.942.4 1.826.192 2.593-.625q4.2-4.503 8.377-9.02c1.709-1.85 3.443-3.676 5.135-5.535.642-.7 1.384-1.033 2.342-1.017 3.493.026 7.003.026 10.495 0 1.034 0 1.851.317 2.284 1.276.442.992.234 1.875-.508 2.684-5.243 5.802-10.47 11.612-15.705 17.414-.417.467-.825.95-1.15 1.483-.584.942-.584 1.868-.042 2.826.584 1.034 1.409 1.868 2.226 2.71a10647 10647 0 0 0 19.064 19.539c.767.792.992 1.659.608 2.676-.366.95-1.092 1.384-2.284 1.384-3.884 0-7.777-.017-11.662 0-.875 0-1.55-.276-2.175-.942-5.644-5.927-11.329-11.82-16.997-17.723-.809-.85-1.709-1.067-2.643-.675-.942.375-1.433 1.176-1.433 2.334v14.53c0 1.567-.792 2.376-2.343 2.384h-8.536c-1.709 0-2.375-.675-2.375-2.36zM111.7 23.982c0-7.143.025-14.296-.025-21.44C111.659.925 112.601 0 114.244 0c2.7.017 5.385 0 8.077 0 1.576 0 2.476.884 2.476 2.45.017 4.169.017 8.345.025 12.513 0 1.8.925 2.734 2.709 2.734h11.212c1.184 0 1.959.642 2.192 1.8.117.56.075 1.118.092 1.693v6.91c0 1.81-.809 2.618-2.618 2.618-3.584 0-7.168-.017-10.753-.017-1.834 0-2.776.925-2.792 2.734-.017 3.676-.075 7.336-.025 11.012.075 5.602 4.368 10.762 9.944 12.079a13.3 13.3 0 0 0 4.977.225c1.359-.192 2.342.533 2.501 1.9.341 2.91.65 5.827.95 8.737.117 1.108-.692 2.125-1.834 2.308-3.076.526-6.152.342-9.178-.341-10.803-2.418-18.739-11.054-20.289-21.999-.159-1.083-.209-2.167-.209-3.242zm95.921 34.136c0-.992-.758-1.684-1.75-1.734a41 41 0 0 1-2.017-.108c-3.451-.259-5.227-1.876-5.852-5.277-.484-2.592-.467-5.227-.484-7.86-.025-7.561-.016-15.122-.016-22.683 0-.225 0-.433-.017-.65-.092-1.225-.975-2.1-2.217-2.1a762 762 0 0 0-8.736 0c-1.317 0-2.251.941-2.309 2.242-.017.317 0 .642 0 1.017-.251-.134-.442-.225-.626-.317-5.251-2.76-10.82-3.651-16.671-2.676-14.897 2.501-24.608 17.422-20.907 32.06 4.702 18.573 26.967 25.966 41.863 13.88.35-.284.492-.276.767.108 1.534 2.192 3.559 3.776 6.077 4.734 2.776 1.06 5.668 1.2 8.602.992 1.042-.075 2.076-.225 3.026-.7.676-.342 1.226-.85 1.242-1.625.059-3.101.042-6.202.025-9.303m-36.244-1.342c-7.244-.025-13.004-5.919-12.979-13.304.025-6.986 5.943-12.788 13.046-12.77 7.285.016 13.037 5.868 13.02 13.27-.025 6.977-5.985 12.812-13.087 12.804M26.2 17.597C12.362 17.622.342 28.31.033 43.155-.283 58.51 11.88 69.496 25.458 69.838c14.521.367 26.55-11.095 26.8-25.574.242-14.738-11.304-26.5-26.058-26.667m-.092 39.179c-7.144 0-13.004-5.869-13.02-13.038-.017-7.177 5.835-13.037 13.045-13.062 7.194-.016 13.02 5.827 13.02 13.046s-5.826 13.054-13.045 13.054"/></svg>