<svg xmlns="http://www.w3.org/2000/svg" width="346" height="61" fill="none" viewBox="0 0 346 61"><path fill="#ed1944" d="M56.973 0H5.86a5.88 5.88 0 0 0-4.124 1.701A5.8 5.8 0 0 0 .022 5.794v13.644h14.182v-2.229a3.13 3.13 0 0 1 .927-2.215 3.18 3.18 0 0 1 2.233-.92h28.127a3.17 3.17 0 0 1 2.23.92 3.13 3.13 0 0 1 .923 2.215v2.229h14.19V5.794a5.8 5.8 0 0 0-1.723-4.1A5.88 5.88 0 0 0 56.973 0m-8.351 43.79c0 .831-.332 1.628-.923 2.216a3.17 3.17 0 0 1-2.23.92H17.343a3.18 3.18 0 0 1-2.233-.92 3.13 3.13 0 0 1-.928-2.215v-2.229H0v13.645a5.8 5.8 0 0 0 1.714 4.092A5.88 5.88 0 0 0 5.838 61h51.114a5.88 5.88 0 0 0 4.124-1.701 5.8 5.8 0 0 0 1.714-4.093V41.563H48.622zm-34.44-20.33H0v14.073h14.182zm48.63 0H48.63v14.073h14.182z"/><path fill="#4e4540" d="M346 42.326a3.95 3.95 0 0 0-.67-2.205 4 4 0 0 0-1.793-1.463 4.02 4.02 0 0 0-4.358.858 3.94 3.94 0 0 0-.864 4.324 3.97 3.97 0 0 0 1.474 1.779 4.02 4.02 0 0 0 5.041-.496 3.95 3.95 0 0 0 1.17-2.797m-3.988 2.986a3.04 3.04 0 0 1-1.679-.501 3 3 0 0 1-1.114-1.343 2.975 2.975 0 0 1 .653-3.265 3.04 3.04 0 0 1 3.29-.648 2.987 2.987 0 0 1 .978 4.883c-.565.56-1.33.874-2.128.874"/><path fill="#4e4540" d="M343.509 41.605a1.24 1.24 0 0 0-.331-.9 1.45 1.45 0 0 0-1.065-.371h-1.44v3.878h.813v-1.271h.504l.72 1.271h.929l-.828-1.428a1.19 1.19 0 0 0 .698-1.18m-.821 0a.55.55 0 0 1-.177.44.56.56 0 0 1-.456.146h-.598v-1.172h.576c.418 0 .655.193.655.579zM106.337 30.768v-.536c0-9.365-6.191-16.166-14.614-16.166s-14.73 6.915-14.73 16.223v.543c0 9.366 6.192 16.11 14.615 16.11s14.729-6.866 14.729-16.174m-22.547-.1v-.364c0-5.908 3.066-10.259 7.818-10.259 4.629 0 7.919 4.415 7.919 10.323v.357c0 5.908-3.067 10.323-7.818 10.323-4.615-.015-7.92-4.494-7.92-10.38m54.893.222v-.837c0-10.68-6.011-15.987-12.389-15.987-4.565 0-7.336 2.622-9.316 5.665v-5.072h-6.796v40.633h6.796v-13.78c1.922 2.8 4.687 5.365 9.316 5.365 6.436 0 12.389-5.365 12.389-15.988m-21.827-.122v-.593c0-6.208 3.484-10.144 7.573-10.144s7.401 3.879 7.401 10.201v.536c0 6.33-3.247 10.144-7.401 10.144s-7.573-3.936-7.573-10.144m51.264 11.281-3.542-4.18c-2.109 2.03-4.319 3.344-7.336 3.344-4.154 0-7.458-2.858-8.063-8.172h19.963c.065-.958.065-1.915.065-2.33 0-9.486-4.571-16.644-13.232-16.644-7.818 0-13.584 6.8-13.584 16.288v.478c0 9.901 6.371 16.11 14.549 16.11a14.7 14.7 0 0 0 6.129-1.235 14.6 14.6 0 0 0 5.051-3.66M155.974 19.73c3.967 0 6.256 3.643 6.616 8.65h-13.469c.453-5.371 3.124-8.65 6.853-8.65m33.195-5.664c-4.319 0-6.911 2.443-8.718 5.25V14.66h-6.796v31.625h6.796V27.132c0-4.358 2.462-6.98 6.011-6.98s5.716 2.444 5.716 6.858v19.288h6.789V25.103c-.014-6.744-3.679-11.037-9.798-11.037m37.176 23.21v-.065c0-4.95-3.729-7.215-8.639-9.422-3.729-1.672-6.249-2.75-6.249-4.836v-.143c0-1.729 1.498-3.1 4.025-3.1 2.526 0 5.168 1.192 7.573 2.807l2.88-4.958a18.3 18.3 0 0 0-10.338-3.4c-5.954 0-10.525 3.572-10.525 9.25v.115c0 5.186 3.966 7.337 8.718 9.366 3.786 1.607 6.256 2.621 6.256 4.893v.057c0 1.972-1.627 3.465-4.449 3.465s-5.896-1.379-8.783-3.7l-3.182 4.829a18.88 18.88 0 0 0 11.842 4.414c6.091.029 10.871-3.371 10.871-9.572m21.035 8.115v-5.55a7.76 7.76 0 0 1-3.664.892c-2.16 0-3.427-1.014-3.427-3.457v-16.83h7.192v-5.787h-7.199v-8.53h-6.796v8.53h-3.491l1.123 5.786h2.368v18.202c0 6.144 3.549 8.116 8.236 8.116 1.973.027 3.92-.445 5.658-1.372m26.018-27.867c-2.045-2.087-5.234-3.222-9.359-3.222a22.8 22.8 0 0 0-10.525 2.507l1.922 5.372a18.2 18.2 0 0 1 7.696-1.914c4.319 0 6.853 2.207 6.853 6.429v1.314a21.8 21.8 0 0 0-7.335-1.25c-6.732 0-11.303 3.336-11.303 10.137v.3c0 6.151 4.449 9.666 9.74 9.666 1.737.07 3.462-.305 5.01-1.088a10.1 10.1 0 0 0 3.831-3.384v3.879h6.673V26.653c0-3.936-1.044-7.043-3.203-9.13m-3.348 18.145c0 3.571-3.009 6.207-6.918 6.143-2.944-.057-5.169-1.85-5.169-5v-.122c0-3.343 2.282-5.308 6.191-5.308a15.6 15.6 0 0 1 5.896 1.129zm35.434 6.494-3.665-4.472c-1.864 1.85-3.729 3.222-6.479 3.222-4.636 0-7.919-4.115-7.919-10.258v-.3c0-5.973 3.247-10.202 7.703-10.202 2.88 0 4.745 1.43 6.429 3.158l3.787-4.95a13.4 13.4 0 0 0-4.641-3.239 13.5 13.5 0 0 0-5.575-1.048c-8.358 0-14.556 6.8-14.556 16.223v.6c0 9.43 6.018 16.052 14.312 16.052 2.017.051 4.02-.353 5.857-1.182a13.3 13.3 0 0 0 4.747-3.604m20.798-12.294-4.773 5.086 6.4 11.33h7.876z"/><path fill="#4e4540" d="M327.427 14.659 316.542 28.56V3.2h-6.789v43.083h6.789v-9.13l18.94-22.495z"/></svg>