<svg xmlns="http://www.w3.org/2000/svg" width="601" height="95" fill="none" viewBox="0 0 601 95"><path fill="#000e9c" d="M62.001 95h-44c-20.8-25.5-23.9-61.1-7.6-89.8l28.5 49.6L70.401 0h46.3zm85.3-89.6c15.9 28.6 12.9 64-7.5 89.6h-43.2l13.3-23.5h-17.6l20.7-36.5h17.7zm43.9 43.5c0 20.8 9.5 30.8 25.9 30.8s25.9-9.9 25.9-30.8-9.5-30.9-25.9-30.9-25.9 9.9-25.9 30.9m-7.5 0c0-25.3 12.6-37.5 33.3-37.5s33.3 12.2 33.3 37.5c0 25.1-12.6 37.4-33.3 37.4s-33.3-12.3-33.3-37.4m99.5 22.9-21.7-57.5c-.3-.9-1.4-2.4-3.4-2.4s-3.6 1.6-3.6 3.6c0 .6.2 1.3.3 1.6l25 65.9c.5 1.5 2 2.5 3.4 2.5s2.9-1 3.4-2.5l25-65.9c.1-.3.3-1 .3-1.6 0-2-1.6-3.6-3.6-3.6s-3.1 1.5-3.4 2.4zm81.1-20.6V82c0 1.9 1.6 3.6 3.6 3.6s3.6-1.7 3.6-3.6V15.6c0-1.9-1.6-3.6-3.6-3.6s-3.6 1.7-3.6 3.6v29h-37.2v-29c0-1.9-1.6-3.6-3.6-3.6s-3.6 1.7-3.6 3.6V82c0 1.9 1.6 3.6 3.6 3.6s3.6-1.7 3.6-3.6V51.2zm41.6-16.4c-13.8 0-22 8.1-22 25.6s8.2 25.8 22 25.8c8.7 0 13.8-3.8 16.1-5.8 1.1-1 1.4-1.7 1.4-2.7 0-1.7-1.4-3.1-3.1-3.1-.8 0-1.3.2-2 .7-2.5 1.8-6.2 4.6-12.4 4.6-9.8 0-15.1-6.2-15.1-19.6 0-13.1 5.2-19.5 15.1-19.5 7.1 0 9.9 3.2 11.5 5 .7.9 1.5 1.3 2.6 1.3 1.7 0 3.1-1.3 3.1-3.1 0-.7-.2-1.3-.8-2-1.7-2.2-6.9-7.2-16.4-7.2m34.1-22.7c0-1.8-1.5-3.4-3.4-3.4-1.8 0-3.4 1.6-3.4 3.4v61c0 8.2 4 12.5 11.1 12.5 1.7 0 3.2-1.4 3.2-3.2s-1.5-3.2-3.2-3.2c-2.9 0-4.3-1.8-4.3-6.1zm51.2 48.3c0-13.5-5.7-19.4-15.5-19.4s-15.5 6-15.5 19.4c0 13.7 5.7 19.6 15.5 19.6 9.9 0 15.5-5.9 15.5-19.6m7 0c0 17.5-8.5 25.8-22.4 25.8-13.8 0-22.4-8.2-22.4-25.8 0-17.5 8.7-25.6 22.4-25.6 13.8 0 22.4 8.1 22.4 25.6m16.5-21.6c0-1.9-1.6-3.4-3.4-3.4-1.9 0-3.4 1.5-3.4 3.4v27.9c0 10.2 3.4 19.4 19.9 19.4 16.6 0 19.9-9.3 19.9-19.4V38.8c0-1.9-1.5-3.4-3.3-3.4-1.9 0-3.5 1.5-3.5 3.4v27.9c0 6.9-2.2 12.9-13 12.9s-13-6-13-12.9V38.8m78.3 11.6s-4.1-9.4-14.1-9.4c-9.7 0-15.1 6.3-15.1 19.4 0 13.4 5.2 19.6 15.1 19.6 8.2 0 14.1-4.7 14.1-14.9zm0-8.7V12.1c0-1.9 1.5-3.4 3.4-3.4s3.4 1.5 3.4 3.4v53c0 14.1-8.8 21.1-20.9 21.1-13.8 0-21.9-8.2-21.9-25.8 0-17.5 7.7-25.6 21.5-25.6 6.8 0 12 3.5 14.5 6.9"/></svg>