<svg xmlns="http://www.w3.org/2000/svg" width="202" height="74" fill="none" viewBox="0 0 202 74"><g fill="#35465f" clip-path="url(#a)"><path d="M25.74 17.46c-3.14 0-5.84.82-8.18 2.54-1.4 1.02-2.78 2.89-3.95 4.54-.69-2.89-1.59-6.63-1.59-6.63l-8.9.01c-.49 0-.89.4-.89.9v3.37c0 .5.4.9.9.9l4.95-.01s1.22 4.37 1.99 7.45c-1.04 1.87-2.04 3.48-2.91 5.15C2.25 45.17 0 51.73 0 58.89c0 8.58 3.77 14.15 9.38 14.15 6.51 0 10.38-5.83 10.38-15.92 0-.19-.01-.85-.03-1.24 1.56.78 3.73 1.43 5.6 1.43 7.21 0 13.18-4.77 14.44-11.34.52-2.71.73-5.17.73-8.51 0-3.57-.38-6.67-1.12-9.21-2-6.86-6.97-10.79-13.64-10.79M9.38 68.06c-2.76 0-4.21-4.62-4.21-9.17 0-5.78 1.67-12.19 6.7-21.9 1.47 6.75 2.7 15.1 2.7 20.12.01 3.3-.49 10.95-5.19 10.95m25.31-23.07c-.79 4.13-4.8 7.31-9.52 7.31-1.98 0-4.02-.69-5.8-1.28-.74-6.34-2.38-14.12-3.86-20.18.94-1.69 1.63-2.93 3.27-4.9 2.38-2.89 4.74-3.45 6.97-3.45 5.46 0 7.73 4.01 8.68 7.24.42 1.42.91 3.91.91 7.75-.01 3.01-.19 5.12-.65 7.51m166.29 4.6-2.63-2.13a.9.9 0 0 0-.58-.23c-.26 0-.48.11-.64.28-.85 1.03-2.46 2.7-2.65 2.9-.94.92-2.23 1.66-3.64 1.66-2.48 0-4.12-.75-4.12-5.17V23.1h8.47c.49 0 .9-.4.9-.9v-3.38c0-.49-.41-.9-.9-.9h-6.63v-.02h-1.84l-.01-9.73a.9.9 0 0 0-.9-.89h-3.37c-.5 0-.9.4-.9.9v9.72h-4.09c-.49 0-.9.4-.9.9v3.38c0 .5.41.9.9.9h4.09v17.81c-1.17 1.34-4.49 4.87-6.05 6.43-.32.32-.64.61-.96.88-1.73 1.46-3.57 2.38-5.79 3.08-2.67.84-4.97 1.07-8.44 1.07-5.26-.01-7.82-3.53-7.82-3.53.45-.46 6.43-6.47 6.43-6.47 4.96-5.11 8.92-9.98 9.74-10.92 0 0 1.04-1.07 1.88-2.63 1.83-3.42 1.86-7.03-1.27-9.53-1.49-1.19-4.18-1.97-8.83-1.86-6.93.17-13.74 4.19-15.14 11.28-.39 1.96-.75 4.18-.75 8.38 0 1.04.01 2.33.06 3.21.1 1.97.31 3.74.65 5.57.16.82.44 1.41.74 2.46-.72.91-1.48 1.76-2.54 2.63-.81.66-2.11.89-2.79.89l-.23.01c-1.88 0-3.06-1.05-4.54-2.63l-.26-.27c-.73-.78-6.06-7.59-10-12.69l8.8-9.33 4.9-5.18c.34-.36.32-.93-.03-1.27l-2.46-2.32a.92.92 0 0 0-1.28.03l-.65.69v-.01l-13.14 13.92-2.97 3.14V.9c0-.5-.4-.9-.9-.9h-3.38c-.5 0-.9.41-.9.9v40.5c-.44.47-2.79 3-4.5 4.87-1.49 1.61-3.49 3.62-5.78 4.82-1.77.92-2.8 1.22-7.25 1.22-4.64 0-8.64-3.21-9.43-7.32-.46-2.39-.64-4.51-.64-7.53 0-3.23.23-5.89.68-7.91.9-4 4.79-7.08 9.38-7.08 3.57 0 6.52 1.58 7.95 3.91.11.19.35.46.6.54.28.09.5.01.7-.08l3-1.61c.26-.13.42-.38.42-.74 0-.15-.04-.28-.11-.4l-.19-.38c-2.35-3.91-6.98-6.25-12.39-6.25-7.01 0-13.12 4.61-14.54 10.95-.53 2.4-.81 5.45-.81 9.05 0 3.33.22 5.8.73 8.51.13.69.49 1.71.73 2.37 0 0-.69.93-2.05 2.2-1.79 1.67-3.66 1.46-4.55 1.28-1.49-.31-2.09-1.71-2.13-3.23l.01-17.99c0-7.72-6-13.11-14.62-13.11-4.52 0-8.91 1.9-11.76 5.09-.46.52-.87 1.1-1.21 1.73 0 0-.12.28-.12.43 0 .36.21.66.51.81v.01l2.9 1.54c.13.07.27.12.42.12.31 0 .57-.16.73-.4 0 0 .22-.33.62-.78 1.88-2.11 4.83-3.54 7.9-3.54 5.75 0 9.26 3.28 9.26 8.09v1.17l-4.96.01c-17.42 0-18.78 11.13-18.78 14.54 0 2.68.92 5.16 2.67 7.18 2.74 3.17 6.16 3.83 9.28 3.83 2.81 0 6.18-1.23 8.73-2.83 1.27-.8 2.46-1.96 3.52-3.21.81 3.54 3.73 6.02 7.09 6.04 2.62.02 4.13-.47 6.28-1.92.68-.46 2.04-1.6 3.03-2.82 2.74 3.05 6.59 4.73 11.13 4.73 4.6 0 6.67-.16 9.61-1.69 1.38-.72 3.21-1.97 4.67-3.46 1.07-1.09 2.21-2.39 3.23-3.61l-.01 7.62c0 .5.4.9.91.9h3.38c.5 0 .9-.4.9-.9V43.29l3.21-3.31c3.57 4.57 8.99 11.46 9.87 12.52l.24.26c1.56 1.67 3.97 4.57 8.22 4.57.18 0 1.62.02 2.65-.43 3.01-1.3 5.14-3.64 5.79-4.33.44.44 1.22 1.24 1.73 1.63 2.85 2.21 6.28 3.14 10.4 3.14 3.86 0 6.55-.16 9.3-1.09 2.29-.78 6.21-3.05 8.45-5.29.73-.74 1.94-1.88 2.91-3.06.31 6.2 3.29 9.44 9.45 9.44 3.51 0 5.43-1.96 6.58-3.07l3.46-3.46c.13-.16.21-.34.21-.56a.8.8 0 0 0-.25-.66m-132.94-8.2c0 5.36-5.78 10.56-11 10.56-3.82 0-5.31-.96-6.07-1.84-.95-1.1-1.41-2.34-1.41-3.81 0-6.03 4.83-9.36 13.59-9.36l4.89-.01zm82.2 2.36s-.36-2.14-.41-5.12c-.02-1.15.01-2.39.05-3.8.03-1.25.24-3.07.42-4.29.45-3.02 1.86-4.71 3.51-6.04 1.83-1.47 4.47-2.31 8.46-2.3 3.82.01 4.4 2.38 3.74 3.69-1.68 3.33-5.9 7.14-10.15 11.77z"/></g><defs><clipPath id="a"><path fill="#fff" d="M0 0h201.26v73.04H0z"/></clipPath></defs></svg>