<svg xmlns="http://www.w3.org/2000/svg" width="78" height="24" fill="none" viewBox="0 0 78 24"><path fill="#000" d="M73.674 18.353q-1.384 0-2.26-.847-.846-.875-.846-2.315V7.285h-3.502V4.348h3.502V0h3.557v4.348h3.84v2.937h-3.84v7.285q0 .846.79.847h2.711v2.936zm-16.561 0V4.348h3.502V5.93h.508q.31-.848 1.016-1.243.735-.395 1.694-.395h1.695v3.162h-1.751q-1.356 0-2.23.735-.876.705-.876 2.202v7.962zm-9.217.395q-2.09 0-3.755-.847a6.35 6.35 0 0 1-2.626-2.456q-.96-1.61-.96-3.869v-.452q0-2.258.96-3.868A6.35 6.35 0 0 1 44.14 4.8q1.665-.847 3.755-.847t3.755.847a6.35 6.35 0 0 1 2.626 2.456q.96 1.61.96 3.868v.452q0 2.26-.96 3.868a6.35 6.35 0 0 1-2.626 2.457q-1.665.847-3.755.847m0-3.162q1.638 0 2.71-1.045 1.074-1.073 1.073-3.05v-.282q0-1.976-1.072-3.021-1.045-1.073-2.711-1.073-1.638 0-2.71 1.073-1.074 1.045-1.074 3.021v.283q0 1.976 1.073 3.049 1.074 1.045 2.711 1.045M24.64 24V4.348h3.502v1.694h.508q.48-.819 1.497-1.44 1.016-.65 2.908-.65 1.695 0 3.134.848 1.44.819 2.315 2.428.876 1.61.876 3.896v.452q0 2.287-.876 3.897-.875 1.61-2.315 2.456a6.23 6.23 0 0 1-3.134.82q-1.27 0-2.146-.311-.847-.283-1.384-.735a5.3 5.3 0 0 1-.818-.96h-.509V24zm7.342-8.358q1.665 0 2.739-1.044 1.1-1.073 1.1-3.107v-.282q0-2.033-1.1-3.077-1.1-1.074-2.74-1.073-1.636 0-2.738 1.073-1.101 1.044-1.101 3.077v.283q0 2.033 1.101 3.105 1.101 1.045 2.739 1.045"/><path fill="#000" fill-rule="evenodd" d="M0 12.007h9.647L0 2.36zm.012 3.34a4.176 4.176 0 0 0 4.164 3.863H19.21V4.176A4.176 4.176 0 0 0 15.308.01v15.338zM11.967 0v9.602L2.365 0z" clip-rule="evenodd"/></svg>