<svg xmlns="http://www.w3.org/2000/svg" width="290" height="70" fill="none" viewBox="0 0 290 70"><path fill="#326690" d="M215.958 19.072c-3.716 2.013-3.561 8.517.465 10.066 4.336 1.548 8.981 1.703 13.317 2.787 1.084.31 2.168.774 2.632 1.858 1.084 2.168.155 5.42-2.323 6.194-3.561 1.084-7.742 1.084-11.149-.31-2.322-.929-3.406-3.252-3.561-5.42-.929 0-2.013 0-2.942.155.155 2.168.619 4.491 2.322 5.885 2.788 2.168 6.349 2.477 9.756 2.632 3.097 0 6.504-.31 9.136-2.013 3.097-2.168 3.407-7.897-.31-9.755-3.406-1.704-7.278-1.859-10.839-2.633-1.704-.464-3.717-.62-5.265-1.703-2.013-1.858-1.084-5.73 1.548-6.349 3.407-.93 7.124-1.084 10.375.155 2.013.62 2.788 2.787 3.097 4.49h2.942c0-1.858-.619-3.87-2.167-5.11-2.478-2.013-5.885-2.167-8.827-2.167-2.632-.155-5.574-.155-8.207 1.238"/><path fill="#000" d="M105.551 19.847c-1.548-1.394-3.871-1.859-5.884-1.859-4.49 0-8.981.155-13.472.155V41.99h2.323c0-3.407-.155-6.813 0-10.065h11.459c2.787-.155 6.039-1.394 7.123-4.181.929-2.633.619-6.04-1.549-7.897m-1.239 7.432c-.774 2.013-3.097 2.633-5.11 2.788-3.561.154-7.123 0-10.53 0v-9.91h10.22c1.704 0 3.717.309 4.801 1.703 1.084 1.393 1.239 3.561.619 5.42"/><path fill="#326690" d="M268.762 18.143V41.99h20.594v-2.013c-5.884-.155-11.768 0-17.807-.155V17.988c-.929.155-1.858.155-2.787.155"/><path fill="#fff" d="M149.838 21.24v5.11h-3.097v1.55h3.097v10.84c0 1.083.309 2.167 1.239 2.786 1.703.775 3.561.62 5.419.465v-1.549c-1.239.155-2.477.31-3.561-.31-.775-.464-.62-1.393-.775-2.167V27.899h4.181c0-.62 0-1.084-.154-1.704h-4.181v-5.11c-.465.155-1.394.155-2.168.155m-19.666 6.04c-2.168 1.393-2.168 5.419.465 6.503 3.561 1.239 7.587.929 11.304 2.013 1.858.62 2.013 3.407.309 4.336-2.477 1.239-5.419 1.084-8.052.62-1.858-.31-3.407-1.55-3.561-3.562h-2.633c.31 1.393.62 2.942 1.858 3.87 2.013 1.395 4.646 1.395 6.969 1.55 2.477 0 5.11-.155 7.277-1.394 1.859-1.084 2.478-3.562 1.394-5.265-.774-1.239-2.168-1.703-3.561-2.013-2.943-.62-6.04-.62-8.982-1.239-1.084-.31-2.013-1.084-2.013-2.168 0-1.548 1.704-2.323 3.097-2.632 2.168-.31 4.646-.465 6.814.464 1.238.465 1.548 1.704 1.858 2.942h2.632c-.155-1.393-.619-2.942-1.858-3.716-2.323-1.548-5.11-1.548-7.742-1.394-1.859-.154-3.872 0-5.575 1.084m54.971-.774c-1.084.465-1.703 1.549-2.322 2.633v-2.633h-2.478c-.155 5.265 0 10.375 0 15.64h2.323v-8.052c0-1.859.619-4.026 2.168-5.11 1.703-1.24 3.871-.93 5.884-.93v-2.012c-1.858-.155-3.717-.31-5.575.464"/><path fill="#326690" d="M243.366 19.382c3.407-1.703 7.278-2.013 10.995-1.703 3.561.31 7.123 1.548 9.445 4.335 2.943 3.097 3.562 8.053 2.323 12.079-.619 2.322-2.168 4.026-3.871 5.574 1.394.93 2.787 1.858 4.181 2.942-.62.62-1.239 1.084-1.858 1.704-1.394-.93-2.788-2.013-4.181-2.788-1.084 0-2.168.62-3.407.93a25 25 0 0 1-9.601 0c-3.406-.62-6.813-2.633-8.671-5.73-1.858-2.942-2.013-6.813-1.239-10.065.929-3.252 3.097-5.884 5.884-7.278m4.646.62c-3.252.774-6.349 3.096-7.433 6.348-1.084 3.562-.774 7.743 1.858 10.685 2.323 2.632 5.73 3.716 9.136 3.716 3.717.155 7.743-.929 10.22-3.871 3.407-4.336 2.943-11.304-1.548-14.71-3.407-2.943-8.052-3.098-12.233-2.169"/><path fill="#000" d="M149.838 21.24h2.477v5.11h4.181c0 .62 0 1.084.155 1.703h-4.181V38.12c0 .774 0 1.703.774 2.168 1.084.464 2.323.31 3.562.31v1.548c-1.858.155-3.716.31-5.42-.465-1.084-.464-1.393-1.703-1.239-2.787v-10.84h-3.096v-1.548h3.096c-.309-1.858-.309-3.561-.309-5.265m-26.634 6.039c-2.787-1.55-6.194-1.704-9.291-1.24-2.632.465-5.11 1.859-6.194 4.336s-1.084 5.42.155 7.898c1.393 2.632 4.336 4.026 7.123 4.18 3.561.31 7.587-.154 10.22-2.942 2.787-3.561 2.168-9.91-2.013-12.233m-.465 11.613c-1.393 1.394-3.406 2.013-5.265 2.013-2.167.155-4.49-.31-6.039-1.703-2.013-1.859-2.322-4.956-1.548-7.588.774-2.323 2.942-3.716 5.265-4.026 2.168-.31 4.645-.155 6.658 1.084 1.549.93 2.323 2.632 2.478 4.336.31 2.168 0 4.335-1.549 5.884m7.433-11.612c1.548-1.085 3.561-1.24 5.42-1.394 2.632-.155 5.574-.155 7.742 1.393 1.239.775 1.703 2.323 1.858 3.717h-2.632c-.155-1.24-.62-2.323-1.858-2.942-2.168-.93-4.491-.93-6.814-.465-1.393.155-3.097.93-3.097 2.633-.155 1.083.929 2.012 2.013 2.167 2.943.775 6.039.62 8.982 1.24 1.393.309 2.787.928 3.561 2.012 1.084 1.703.465 4.336-1.394 5.265-2.167 1.239-4.8 1.394-7.277 1.394-2.323-.155-4.956-.155-6.969-1.549-1.238-.929-1.703-2.322-1.858-3.871h2.633c0 2.013 1.703 3.407 3.561 3.561 2.633.31 5.575.62 8.052-.619 1.704-.929 1.549-3.716-.309-4.336-3.717-1.084-7.743-.774-11.304-2.013-2.478-.774-2.478-4.8-.31-6.194m33.757-1.084c2.478-.619 5.265-.619 7.742.155 1.394.465 2.478 1.549 3.562 2.478 0-.93.155-1.703.155-2.478h2.323c.154 4.8 0 9.6.154 14.401.155 2.013-.309 4.181-1.858 5.575-2.013 1.858-4.955 2.168-7.587 2.168-2.323 0-4.801-.155-6.969-1.24-1.393-.773-2.167-2.322-2.477-3.87h2.323c.464 1.084.929 2.322 2.013 2.787 1.703.774 3.561.774 5.419.774 2.013-.155 4.336-.464 5.575-2.168 1.239-1.703.929-3.871.929-5.884-2.478 2.632-6.349 3.097-9.755 2.632-2.168-.31-4.336-1.084-5.885-2.787-1.703-2.168-1.858-5.11-1.238-7.587.619-2.478 3.096-4.336 5.574-4.956m2.013 1.549c-1.703.31-3.561 1.084-4.491 2.632-1.083 1.858-1.083 4.336-.464 6.194.774 2.013 3.097 3.097 5.11 3.407 2.632.31 5.729 0 7.588-2.013 2.167-2.633 1.858-7.123-.93-9.136-1.858-1.394-4.49-1.394-6.813-1.084m19.201-1.239c1.858-.774 3.717-.62 5.575-.62V27.9c-2.013 0-4.181-.31-5.884.929-1.549 1.084-2.168 3.252-2.168 5.11v8.052h-2.323a263 263 0 0 1 0-15.64h2.478v2.633c.619-.93 1.238-2.013 2.322-2.478m6.504 3.251c1.548-2.633 4.8-3.716 7.742-3.871 3.097-.155 6.504.31 8.672 2.632 1.703 1.549 2.168 3.871 2.323 6.194h-17.498c.155 1.548.619 3.252 1.858 4.336 2.323 2.013 5.729 2.323 8.517 1.548a5.72 5.72 0 0 0 4.026-3.716h2.632c-.774 2.632-3.097 4.49-5.729 5.11-3.562.774-7.743.62-10.84-1.549-3.097-2.167-3.716-7.277-1.703-10.684m4.49-1.239c-1.703.93-2.632 2.787-2.942 4.646h14.866c-.155-1.084-.465-2.323-1.239-3.097-2.632-3.097-7.433-3.407-10.685-1.549"/><path fill="#fff" d="M40.67 1.265C37.727.8 34.63.645 31.688 1.11c-1.703.31-3.406 1.084-4.8 1.858C22.088 1.42 16.668.49 11.713 1.42c-3.562.619-6.968 2.787-8.827 6.039C.564 11.329.1 15.975.41 20.466c.62 4.955 1.858 9.91 3.252 14.71 1.238 4.182 2.632 8.362 4.955 12.079 1.239 2.013 3.097 4.18 5.574 4.8 2.013.465 4.026-.155 5.575-1.394.774.775 1.703 1.394 2.787 1.704 2.942 1.084 6.194 1.084 9.136-.155.155 4.026 0 8.207 1.549 11.923.62 1.859 1.548 3.562 3.252 4.646 1.858 1.239 4.026 1.393 6.194 1.084 1.858-.31 3.87-.93 5.42-1.859 1.703-1.083 3.096-2.632 3.87-4.49 1.859-4.181 2.014-8.672 2.168-13.162 4.336.31 8.827-.774 12.078-3.717 1.24-1.084 2.323-2.787 1.859-4.49-.465-1.549-2.168-2.633-3.717-2.478-1.703.155-3.252.62-4.955.62 3.717-6.504 6.659-13.472 7.898-20.75.464-3.097.928-6.194 0-9.291-.465-1.703-1.704-3.097-2.943-4.336-2.787-2.787-6.658-4.645-10.53-5.42-4.49-.929-8.98-.464-13.162.775"/><path fill="#fff" d="M40.515 3.123c4.645-1.394 9.6-1.858 14.246-.465 3.716 1.084 7.123 3.252 9.446 6.35.928 1.238 1.238 2.941 1.238 4.49.155 2.787-.464 5.574-1.084 8.207-1.703 7.123-4.8 13.781-8.671 19.975 2.168.93 4.645.465 6.813.155.93-.155 2.168-.465 2.787.465.62.929 0 2.013-.619 2.632-3.252 3.252-8.207 4.026-12.543 3.252-.464 3.871-.929 7.742-1.548 11.768-.31 2.168-1.084 4.491-2.788 5.885-1.548 1.393-3.716 2.013-5.729 2.322s-4.49.155-6.039-1.393c-1.703-1.549-2.787-3.872-2.942-6.04-.465-3.87-.465-7.897-.465-11.768-1.858 1.549-4.335 2.478-6.813 2.323-1.703-.155-3.716-.465-4.955-1.703-.774-.62-.62-1.859.155-2.478 1.393-1.084 3.252-.93 4.8-1.549 1.239-.31 1.858-1.548 2.478-2.322-1.394-.155-2.788-.465-3.872-1.084-1.858 2.013-3.716 4.18-5.42 6.194-1.083 1.239-2.477 2.322-4.18 2.013-1.859-.31-3.252-1.704-4.336-3.097-2.013-2.942-3.407-6.349-4.49-9.756C4.28 31.925 2.885 26.35 2.111 20.621c-.464-4.336 0-8.981 2.478-12.543 2.013-2.942 5.42-4.49 8.826-4.8 4.645-.465 9.291.464 13.627 2.013 3.561-2.323 8.207-2.787 12.388-1.858.464-.31.774-.155 1.084-.31m3.406 1.239c.93.62 1.858 1.084 2.788 1.703 3.716 2.478 6.658 6.04 8.361 10.065.465 1.239 1.084 2.323.93 3.717 0 2.632-.93 5.264-.62 7.897.31 2.787.93 5.73.155 8.517-.155.929-.774 1.858-1.084 2.787 0 .155.155.464.155.464l.929-1.393c2.942-4.8 5.11-10.065 6.658-15.485.775-2.942 1.394-6.04 1.394-9.136 0-1.239-.155-2.633-.929-3.717-1.703-2.167-4.026-3.87-6.659-4.955-3.87-1.239-8.052-1.393-12.078-.464m-10.84.31c-2.941.31-5.729 2.012-7.432 4.335-2.323 3.252-3.407 7.278-3.716 11.15 2.477-1.085 5.11-2.169 7.897-1.55 1.703.465 3.097 2.014 3.407 3.717.774 3.562 1.238 7.123.464 10.685-.62 2.787-2.323 5.265-2.942 8.207.774 0 1.549.154 2.168.464a3.99 3.99 0 0 1 2.013 3.871c-.155 3.872-.155 7.743.155 11.614.155 1.549.155 3.252.62 4.8.619 1.859 1.857 3.717 3.87 4.181 2.168.31 4.336-.31 6.35-1.239 1.857-.928 2.787-3.096 3.096-5.11.62-4.18 1.084-8.361 1.549-12.542.155-1.549-.155-3.097.774-4.49.465-.93 1.394-1.24 2.168-1.704-.62-.93-1.394-1.858-2.013-2.787-2.013-4.336-4.8-8.362-5.73-13.008-.31-2.013-.154-4.335 1.549-5.73 1.858-1.548 4.336-1.393 6.658-1.393a22.2 22.2 0 0 0-6.968-9.755c-4.026-2.942-9.136-4.336-13.936-3.717m-20.594.31c-2.632.464-5.265 2.012-6.659 4.49-1.858 3.252-2.013 6.968-1.703 10.53.62 4.645 1.704 9.29 3.097 13.936 1.239 3.871 2.478 7.742 4.646 11.149.774 1.239 1.703 2.477 3.097 2.942 1.238.31 2.167-.774 2.942-1.548 1.548-2.014 3.406-3.872 5.11-5.885-2.478-2.168-3.717-5.574-3.407-8.98.31-2.479.465-5.11.31-7.743-.31-3.562.31-7.278 1.393-10.84.775-2.632 2.168-4.955 4.026-6.968-4.18-.93-8.671-1.858-12.852-1.084m36.08 15.949c-1.24.929-1.24 2.787-.93 4.18.93 4.491 3.562 8.207 5.42 12.233 1.549-2.942.62-6.348.31-9.6-.31-2.633.465-5.11.62-7.588-1.704 0-3.717-.31-5.42.774m-26.79 1.703c0 2.168.156 4.336 0 6.349-.154 1.858-.619 3.716-.154 5.574.62 3.407 3.562 6.194 7.123 6.194.465-1.703 1.084-3.407 1.858-4.955 2.168-4.18 1.704-8.981.62-13.317-.31-1.239-1.394-2.168-2.633-2.168-2.477 0-4.8 1.084-6.813 2.323m31.435 20.904c-.62.62-.62 1.549-.62 2.323 1.394.465 2.943.465 4.491.31 2.168-.31 4.491-.93 6.194-2.633-2.632.31-5.574.93-8.207-.31-.619-.309-1.393 0-1.858.31m-25.55 3.097c-1.548.93-3.406.775-4.8 1.549 3.097 1.548 7.587 1.084 9.755-1.858 1.084-1.084 0-3.252-1.393-3.097-1.549.929-2.168 2.632-3.562 3.406"/><path fill="#fff" d="M49.186 21.55c.93-.62 2.168-.62 3.097-.31 0 1.239-1.548 2.168-2.632 1.549-.31-.155-.93-.774-.465-1.24m-21.833.156c.929-.31 2.012-.155 2.787.464.464.465 0 1.24-.465 1.394-1.084.774-2.787 0-2.942-1.239 0-.31.31-.62.62-.62"/><path fill="#326690" d="M43.921 4.362c3.871-.93 8.207-.775 11.924.62 2.632.928 4.955 2.786 6.658 4.954.93 1.084.93 2.478.93 3.717 0 3.097-.62 6.039-1.394 9.136-1.549 5.42-3.717 10.684-6.659 15.485l-.929 1.393c0-.155-.155-.464-.155-.464.31-.93.93-1.859 1.084-2.788.774-2.787.155-5.729-.155-8.516-.31-2.633.62-5.265.62-7.898.154-1.238-.465-2.477-.93-3.716-1.858-4.026-4.645-7.587-8.361-10.065-.62-.774-1.704-1.239-2.633-1.858"/><path fill="#326690" d="M33.082 4.671c4.8-.619 9.91.775 13.781 3.717 3.097 2.477 5.73 5.884 6.969 9.755-2.168 0-4.8-.155-6.659 1.394-1.703 1.393-1.858 3.716-1.548 5.73.929 4.8 3.716 8.826 5.729 13.007.465 1.084 1.239 1.858 2.013 2.787-.929.464-1.703.774-2.168 1.703-.774 1.394-.464 2.942-.774 4.49-.465 4.182-.93 8.363-1.549 12.544-.31 2.013-1.238 4.18-3.096 5.11-1.859.929-4.181 1.548-6.35 1.238-2.012-.31-3.406-2.322-3.87-4.18-.465-1.55-.465-3.252-.62-4.8-.155-3.872-.155-7.743-.155-11.614a3.99 3.99 0 0 0-2.013-3.872c-.62-.31-1.393-.464-2.168-.464.62-2.788 2.323-5.265 2.942-8.207.775-3.562.31-7.123-.464-10.685-.31-1.703-1.704-3.252-3.407-3.716-2.787-.62-5.42.31-7.897 1.548.31-3.87 1.394-7.897 3.716-11.149 1.858-2.323 4.646-3.871 7.588-4.336"/><path fill="#326690" d="M12.487 4.981c4.336-.774 8.672 0 12.853 1.239-1.859 2.013-3.252 4.336-4.027 6.968-1.083 3.407-1.548 7.123-1.393 10.84.155 2.632.155 5.11-.31 7.742-.465 3.252.93 6.658 3.407 8.981-1.704 2.013-3.407 3.871-5.11 5.884-.774.93-1.704 1.859-2.942 1.549-1.394-.465-2.323-1.703-3.097-2.942-2.168-3.407-3.407-7.278-4.646-11.15-1.393-4.49-2.477-9.135-3.097-13.936-.31-3.561-.155-7.432 1.704-10.53C7.222 7.15 9.699 5.6 12.487 4.982m36.08 15.948c1.548-1.083 3.716-.929 5.42-.774-.155 2.478-.93 4.955-.62 7.588.31 3.097 1.084 6.504-.31 9.6-2.013-4.026-4.645-7.742-5.42-12.233-.154-1.393-.154-3.097.93-4.18m.62.62c-.465.464 0 1.084.464 1.239 1.084.62 2.632-.31 2.632-1.549-.929-.31-2.168-.31-3.097.31"/><path fill="#326690" d="M21.778 22.634c2.013-1.239 4.336-2.323 6.658-2.168 1.24 0 2.323.93 2.633 2.168 1.084 4.336 1.393 9.136-.62 13.317-.774 1.548-1.393 3.252-1.858 4.955-3.561 0-6.503-2.942-7.123-6.194-.464-1.858.155-3.716.155-5.575.31-2.322.155-4.335.155-6.503m5.575-.93c-.31.156-.62.31-.62.62.155 1.239 1.858 2.013 2.942 1.239.465-.31.93-.93.465-1.394-.774-.62-1.858-.774-2.788-.464m25.86 21.834c.465-.31 1.239-.775 1.858-.31 2.478 1.393 5.42.62 8.207.31-1.703 1.548-3.87 2.322-6.194 2.632-1.548.155-3.097.31-4.49-.31 0-.774 0-1.703.62-2.322m-25.551 3.096c1.394-.774 2.013-2.477 3.407-3.406 1.393-.155 2.632 2.013 1.393 3.097-2.167 2.942-6.658 3.561-9.755 1.858 1.549-.62 3.407-.62 4.955-1.549"/><path fill="#000" d="M40.67 1.265C44.85.18 49.34-.284 53.677.49c3.871.62 7.587 2.633 10.53 5.42 1.238 1.239 2.477 2.633 2.942 4.336.929 3.097.464 6.194 0 9.29-1.394 7.279-4.181 14.247-7.898 20.75 1.704 0 3.252-.464 4.956-.619 1.548-.155 3.406.93 3.716 2.478.464 1.703-.62 3.406-1.858 4.49-3.407 2.943-8.052 3.872-12.233 3.717-.31 4.49-.31 8.981-2.168 13.162-.93 1.858-2.168 3.407-3.872 4.49s-3.561 1.549-5.42 1.859c-2.012.31-4.335.155-6.193-1.084-1.704-1.084-2.633-2.787-3.252-4.646-1.394-3.87-1.239-7.897-1.549-11.923-2.942 1.239-6.193 1.239-9.135.155-1.084-.31-2.014-.93-2.788-1.704-1.548 1.24-3.561 1.859-5.574 1.394-2.478-.62-4.181-2.787-5.575-4.8-2.323-3.717-3.716-7.898-4.955-12.078-1.394-4.8-2.633-9.601-3.252-14.711-.31-4.49 0-9.136 2.478-13.007 1.858-3.097 5.265-5.265 8.826-6.04 5.11-1.083 10.375 0 15.175 1.394 1.549-.774 3.097-1.548 4.8-1.858 3.252-.465 6.35-.155 9.292.31m-.155 1.858c-.31.155-.775-.155-1.084-.155-4.181-.929-8.827-.464-12.388 1.858-4.336-1.548-8.981-2.477-13.627-2.013-3.407.31-6.968 2.013-8.826 4.8-2.478 3.717-2.788 8.362-2.478 12.543.774 5.73 2.168 11.304 3.871 16.724 1.24 3.407 2.478 6.813 4.491 9.755 1.084 1.394 2.477 2.943 4.336 3.097 1.703.155 3.097-.774 4.18-2.013 1.859-2.168 3.562-4.18 5.42-6.194 1.24.62 2.633.93 3.872 1.084-.775.93-1.394 2.013-2.478 2.323-1.548.62-3.407.465-4.8 1.549-.775.619-.93 1.858-.155 2.477 1.239 1.239 3.252 1.549 4.955 1.703 2.478.155 4.955-.619 6.813-2.322 0 3.87 0 7.897.465 11.768.155 2.323 1.239 4.646 2.942 6.04 1.548 1.393 4.026 1.703 6.04 1.393 2.012-.465 4.18-1.084 5.728-2.323 1.704-1.548 2.478-3.716 2.788-5.884.62-3.871 1.084-7.742 1.548-11.768 4.336.774 9.291-.155 12.543-3.252.62-.62 1.394-1.858.62-2.633-.62-.774-1.859-.62-2.788-.464-2.168.464-4.645.929-6.813-.155 3.871-6.194 6.968-12.853 8.671-19.976.62-2.632 1.084-5.42 1.084-8.207-.155-1.548-.31-3.251-1.238-4.49-2.323-3.097-5.73-5.265-9.446-6.349-4.49-.62-9.6-.31-14.246 1.084"/></svg>