<svg xmlns="http://www.w3.org/2000/svg" width="599" height="91" fill="none" viewBox="0 0 599 91"><g clip-path="url(#a)"><path fill="#000" d="M403.5 31.2c-.1 1.3-.4 2.5-.4 3.8 0 8.5.1 16.9-.1 25.4-.2 7.8-6.4 13.7-14.3 13.4V23.5c0-5.1 1.9-6.4 7-7 12.2-1.5 19.9 3.5 23.6 15.1 1.2 3.8 3.3 7.4 5.4 12 2.5-5.4 4.6-10.1 6.8-14.7 5-11 13.2-15.1 24.9-12 1.7.5 4.1 2.9 4.1 4.5.3 17.5.2 35 .2 52.5-8 0-14.1-5.7-14.2-13.6-.2-8.4 0-16.9-.1-25.4 0-1.3-.3-2.5-.4-3.8-.3-.1-.7-.2-1-.2-.7 1.2-1.6 2.3-2.2 3.5-4.7 10.2-9.2 20.4-13.9 30.5-.7 1.6-2.7 3.8-3.9 3.6-1.6-.2-3.5-2.1-4.3-3.7-4.8-10.1-9.3-20.3-14-30.5-.6-1.2-1.4-2.3-2.2-3.4-.3.1-.7.2-1 .3M250 45.3c0-4.7-.1-9.4 0-14.2.2-8.3 6.1-14.4 14.4-14.5q14.25-.15 28.5 0c8.4.1 14.5 6 14.7 14.3q.3 14.55 0 29.1c-.2 8.2-6.1 13.9-14.4 14-9.6.2-19.2.2-28.9 0-8.4-.2-14.1-6.1-14.3-14.6-.1-4.7 0-9.4 0-14.1m28.8 14.5h10.1c2.8 0 4.3-1.4 4.3-4.1.1-6.8.1-13.6 0-20.5 0-2.7-1.4-4.2-4.1-4.2h-20.6c-2.8 0-4.1 1.5-4.1 4.2v20.1c0 3.1 1.7 4.5 4.7 4.4 3.2 0 6.5.1 9.7.1m219.1 14.3c-4.7 0-9.5.1-14.2 0-8.5-.2-14.4-6-14.5-14.4-.2-9.6-.2-19.1 0-28.7.2-8.3 6.3-14.2 14.6-14.3q14.25-.15 28.5 0c8.3.1 14.4 6.2 14.5 14.5.1 9.6.1 19.1 0 28.7-.1 8.2-6 14-14.2 14.2-5 .1-9.9 0-14.7 0m-.4-14.3c3.4 0 6.7-.1 10.1 0 3.1.1 4.7-1.3 4.8-4.4V35.3c0-2.7-1.3-4.2-4.1-4.2h-20.6c-2.8 0-4.2 1.4-4.2 4.1v20.5c0 2.7 1.5 4.1 4.2 4.1zm-267.3-3.7c4 5.7 7.6 10.9 11.2 16-5.7 3.6-13.1 2.2-17.5-3.4-2.7-3.4-5-7.1-7.6-10.6-.7-.9-1.8-1.9-2.8-2-4.8-.2-9.7-.1-15-.1.2 5.9-.5 11.4-5.5 14.8-2.4 1.7-5.5 2.5-8.9 4V23.7c0-5.6 1.8-7.3 7.4-7.3H226c9.8 0 15.7 5.9 15.8 15.5 0 1.9-.1 3.7 0 5.6.6 8.8-2.2 15.5-11.6 18.6m-31.5-12.6h22.1c6.1 0 6.6-.6 6.6-6.6 0-5-.8-5.8-5.9-5.9h-22.8zM132.6 60c-1.7 9.1-6.3 13.6-14.4 13.9-.1-1.2-.2-2.3-.2-3.5V24.2c0-5.9 1.7-7.6 7.5-7.6H160c9.7 0 15.6 5.9 15.7 15.5v12.3c-.1 9.4-6 15.3-15.5 15.3-8.9.1-17.7 0-26.6.1-.2 0-.5.1-1 .2m-.2-12.9h18.3c10.9 0 10.7 1.4 10.6-11.2 0-3.4-1.5-5-5-4.9-6.4.1-12.7 0-19.1 0h-4.8z"/><path fill="#e57000" d="M357.4 45.4c7.6 8.3 14.9 16.3 22.1 24.3-4.8 5.5-12.9 5.5-18.3.1-3.6-3.6-7-7.5-10.4-11.3-.8-.9-1.3-2.1-2.2-3.5-5 5.5-9 10-13.2 14.4-5.5 5.7-13 6-18.9.5 7.3-8 14.7-16.1 22.3-24.5-7.5-8.2-14.8-16.3-22.1-24.3 4.5-5.2 12.8-5.3 18-.2 4.5 4.5 8.7 9.2 13.4 14.3 4.1-4.5 8.1-8.7 11.9-13 3.5-4 7.8-5.8 13-4.7 2.2.5 4.3 1.6 7.2 2.8-7.8 8.6-15.1 16.7-22.8 25.1m209.7-10c4.5-5 8.5-9.4 12.6-13.7 4.5-4.8 11.4-5.9 16.7-2.8.8.5 1.5 1.2 2.5 2-7.5 8.2-14.7 16.2-22.3 24.5 7.5 8.2 14.8 16.3 22.1 24.3-4.8 5.6-13.1 5.5-18.6-.2-4.2-4.4-8.3-9-12.8-13.9-2.3 2.4-4.3 4.7-6.4 6.9-2.2 2.4-4.3 4.9-6.6 7.1-5.3 5.3-12.2 5.6-18.7.4 7.4-8.1 14.8-16.3 22.4-24.6-7.5-8.2-14.7-16.2-22-24.2 4-5.3 12.6-5.5 17.8-.4 3.5 3.5 6.8 7.3 10.2 10.9.9 1.1 1.8 2.1 3.1 3.7M26.4 45.2c-4.5-5-8.9-9.7-13.2-14.5C8.9 26 4.7 21.3.5 16.7c3.8-4.8 11.2-6.2 17.1-3.1 2.1 1.1 4 2.6 5.6 4.3 7.8 8.4 15.5 16.8 23.2 25.3.6.6 1.1 1.4 1.8 2.3-9 9.8-17.8 19.8-27.2 29.3-5.7 5.7-15.5 5-20.6-.9 8.5-9.5 17.1-18.9 26-28.7m28.6 0c9.1-9.9 17.6-19.6 26.6-28.9 6-6.1 15.8-5.8 21.2.3-8.6 9.4-17.2 18.9-26 28.6 8.8 9.7 17.4 19.1 25.9 28.5-5.1 6.5-15.6 6.4-21.9-.1-6.4-6.8-12.6-13.8-18.9-20.7-2.1-2.4-4.3-4.9-6.9-7.7"/><path fill="#000" d="M17.2 4.6c7-6.1 15.1-5.8 21.1.5 4.5 4.7 8.8 9.5 13.3 14.5 4.5-4.9 8.8-9.7 13.2-14.4 6.1-6.4 14.9-6.6 21.1-.4-11.4 12.4-22.7 24.9-34.3 37.6C40.1 29.7 28.7 17.2 17.2 4.6M86 85.8c-6.5 6.1-15 5.9-20.9-.3-4.5-4.7-8.8-9.5-13.4-14.6-4.4 4.9-8.7 9.6-13.1 14.3-6.1 6.5-14.4 6.8-21.3.7C28.6 73.4 40 61 51.7 48.1 63.1 60.8 74.5 73.2 86 85.8"/></g><defs><clipPath id="a"><path fill="#fff" d="M0 0h599v91H0z"/></clipPath></defs></svg>