<svg xmlns="http://www.w3.org/2000/svg" width="789" height="107" fill="none" viewBox="0 0 789 107"><path fill="#f26e7e" fill-rule="evenodd" d="M20.572 58.87c3.912-2.258 3.918-9.57.015-16.33s-10.238-10.41-14.15-8.15c-3.91 2.258-3.917 9.569-.014 16.329s10.238 10.41 14.15 8.152m.024 14.475c3.903 6.76 3.896 14.072-.015 16.33s-10.246-1.392-14.149-8.152-3.897-14.071.015-16.33c3.91-2.258 10.246 1.392 14.149 8.152m26.653 15.41c3.904 6.76 3.897 14.071-.014 16.33s-10.246-1.392-14.15-8.152c-3.902-6.76-3.896-14.071.015-16.33s10.246 1.392 14.15 8.152m-.008-30.805c3.903 6.76 3.897 14.072-.015 16.33-3.91 2.258-10.246-1.392-14.149-8.152s-3.897-14.071.015-16.33c3.91-2.258 10.246 1.392 14.149 8.152" clip-rule="evenodd"/><path fill="#8a3391" fill-rule="evenodd" d="M100.561 50.735c3.903-6.76 3.897-14.071-.014-16.33-3.912-2.258-10.246 1.392-14.15 8.152s-3.896 14.072.015 16.33 10.246-1.392 14.149-8.152m.001 14.468c3.911 2.258 3.918 9.57.015 16.33s-10.239 10.41-14.15 8.151c-3.91-2.258-3.917-9.569-.014-16.329s10.238-10.41 14.149-8.152M73.914 80.588c3.91 2.258 3.917 9.569.014 16.33-3.903 6.759-10.238 10.409-14.15 8.151-3.91-2.258-3.917-9.57-.014-16.33s10.238-10.41 14.15-8.151m-.015-30.798c3.91 2.258 3.917 9.569.014 16.33s-10.238 10.41-14.15 8.151c-3.91-2.258-3.917-9.57-.014-16.33s10.238-10.41 14.15-8.151" clip-rule="evenodd"/><path fill="#f7bf2a" fill-rule="evenodd" d="M67.622 8.178c0 4.516-6.328 8.177-14.135 8.177s-14.134-3.66-14.134-8.177S45.68 0 53.487 0s14.135 3.661 14.135 8.178M40.974 23.546c0 4.517-6.328 8.178-14.135 8.178s-14.134-3.661-14.134-8.178c0-4.516 6.328-8.177 14.134-8.177 7.807 0 14.135 3.661 14.135 8.177m39.197 8.178c7.806 0 14.134-3.661 14.134-8.178 0-4.516-6.328-8.177-14.135-8.177s-14.134 3.661-14.134 8.177c0 4.517 6.328 8.178 14.135 8.178M67.622 38.95c0 4.516-6.328 8.177-14.135 8.177s-14.134-3.661-14.134-8.177c0-4.517 6.328-8.178 14.134-8.178 7.807 0 14.135 3.661 14.135 8.178" clip-rule="evenodd"/><path fill="#000" d="M158.675 63h10.631c13.48 0 21.939-8.053 21.939-20.176 0-12.078-8.459-20.175-21.939-20.175h-18.773c-1.629 0-2.533.905-2.533 2.533v58.264c0 1.629.904 2.533 2.533 2.533h5.609c1.629 0 2.533-.904 2.533-2.533zm21.849-20.176c0 6.83-4.297 11.219-11.897 11.219h-9.952V31.65h9.952c7.6 0 11.897 4.388 11.897 11.173m37.978 44.197c5.971 0 11.083-2.94 14.249-7.238v3.664c0 1.629.905 2.533 2.533 2.533h5.293c1.628 0 2.533-.904 2.533-2.533V41.648c0-1.628-.905-2.533-2.533-2.533h-5.293c-1.628 0-2.533.905-2.533 2.533v22.98c0 7.78-5.609 13.254-12.123 13.254-6.243 0-10.54-4.433-10.54-10.766V41.648c0-1.628-.905-2.533-2.533-2.533h-5.248c-1.628 0-2.533.905-2.533 2.533v26.373c0 11.535 7.464 18.999 18.728 18.999M256.4 22.468v60.978c0 1.629.905 2.533 2.534 2.533h5.247c1.628 0 2.533-.904 2.533-2.533V22.468c0-1.628-.905-2.533-2.533-2.533h-5.247c-1.629 0-2.534.905-2.534 2.533m41.441 64.552c5.971 0 11.083-2.94 14.25-7.238v3.664c0 1.629.904 2.533 2.533 2.533h5.292c1.629 0 2.534-.904 2.534-2.533V41.648c0-1.628-.905-2.533-2.534-2.533h-5.292c-1.629 0-2.533.905-2.533 2.533v22.98c0 7.78-5.61 13.254-12.124 13.254-6.242 0-10.54-4.433-10.54-10.766V41.648c0-1.628-.904-2.533-2.533-2.533h-5.247c-1.629 0-2.533.905-2.533 2.533v26.373c0 11.535 7.464 18.999 18.727 18.999m92.498-48.99c-6.694 0-12.394 3.844-15.515 9.725-2.941-6.062-8.867-9.726-15.923-9.726-5.474 0-10.224 2.85-13.481 7.193v-3.574c0-1.628-.904-2.533-2.533-2.533h-5.293c-1.628 0-2.533.905-2.533 2.533v41.798c0 1.629.905 2.533 2.533 2.533h5.293c1.629 0 2.533-.904 2.533-2.533V60.195c0-7.645 5.79-12.983 11.354-12.983 5.791 0 9.726 4.433 9.726 10.766v25.468c0 1.629.905 2.533 2.533 2.533h5.293c1.628 0 2.533-.904 2.533-2.533V60.195c0-7.102 5.519-12.983 11.354-12.983 5.791 0 9.726 4.433 9.726 10.766v25.468c0 1.629.905 2.533 2.533 2.533h5.293c1.628 0 2.533-.904 2.533-2.533V57.074c0-11.535-7.78-19.045-17.959-19.045m29.085-11.67c0 3.528 2.759 6.287 6.378 6.287s6.424-2.76 6.424-6.288c0-3.573-2.805-6.332-6.424-6.332s-6.378 2.759-6.378 6.333m1.221 15.29v41.797c0 1.629.905 2.533 2.534 2.533h5.247c1.628 0 2.533-.904 2.533-2.533V41.648c0-1.628-.905-2.533-2.533-2.533h-5.247c-1.629 0-2.534.905-2.534 2.533m53.051 29.902-1.628 1.763c-1.041 1.131-1.176 2.353-.136 3.574 5.564 6.514 12.711 10.178 20.311 10.178 14.114 0 22.754-7.735 22.754-18.547 0-9.77-5.836-16.285-20.13-19.542-9.364-2.126-13.3-5.428-13.3-10.45 0-4.613 4.298-7.734 10.224-7.734 5.247 0 9.318 2.442 10.585 7.056.452 1.538 1.221 2.307 2.759 2.307h5.745c1.719 0 2.714-.995 2.398-2.714-1.991-10.811-11.445-15.878-21.94-15.878-12.123 0-20.582 7.284-20.582 17.733 0 9.228 6.65 15.651 19.497 18.366 10.63 2.216 13.932 6.152 13.932 11.083 0 5.518-5.111 9.092-12.259 9.092-5.699 0-10.539-2.533-14.656-6.333-1.221-1.176-2.443-1.176-3.574.045m58.56-5.835h36.053c1.538 0 2.579-.77 2.714-2.307.046-.588.091-1.222.091-1.765 0-12.982-10.042-23.613-24.201-23.613-14.385 0-25.151 10.902-25.151 24.518 0 13.661 10.449 24.518 26.055 24.518 8.595 0 14.657-3.302 19.497-8.188 1.131-1.176 1.041-2.442-.136-3.573l-1.945-1.9c-1.131-1.131-2.352-1.131-3.573-.045-4.026 3.438-8.278 5.202-13.978 5.202-8.278 0-14.43-5.429-15.426-12.847m14.612-19.18c6.966 0 12.213 4.75 13.525 11.309h-27.82c1.674-6.56 7.419-11.31 14.295-11.31m56.385.679c.769 0 1.538.045 2.307.181 1.673.272 2.669-.316 2.804-2.08l.362-4.298c.136-1.583-.543-2.624-2.081-2.85a12 12 0 0 0-1.854-.136c-5.972 0-10.857 3.212-13.843 7.555v-3.936c0-1.628-.904-2.533-2.533-2.533h-5.292c-1.629 0-2.534.905-2.534 2.533v41.798c0 1.629.905 2.533 2.534 2.533h5.292c1.629 0 2.533-.904 2.533-2.533V60.512c0-7.736 5.745-13.3 12.305-13.3m51.414-8.097h-5.473c-1.448 0-2.398.678-2.895 2.036l-11.445 31.981-11.445-31.981c-.497-1.358-1.447-2.036-2.895-2.036h-5.473c-1.855 0-2.669 1.13-2.036 2.895l15.607 41.934c.497 1.402 1.492 2.035 2.94 2.035h6.604c1.448 0 2.443-.633 2.941-2.035l15.606-41.934c.633-1.764-.181-2.895-2.036-2.895m9.932-12.756c0 3.528 2.759 6.287 6.378 6.287s6.424-2.76 6.424-6.288c0-3.573-2.805-6.332-6.424-6.332s-6.378 2.759-6.378 6.333m1.221 15.29v41.797c0 1.629.905 2.533 2.533 2.533h5.248c1.628 0 2.533-.904 2.533-2.533V41.648c0-1.628-.905-2.533-2.533-2.533h-5.248c-1.628 0-2.533.905-2.533 2.533m64.647 31.212-2.036-1.401c-1.311-.905-2.487-.634-3.528.588-3.347 3.709-7.871 5.835-12.847 5.835-8.278 0-15.335-6.062-15.335-15.335 0-9.183 6.831-15.335 14.204-15.335 4.75 0 8.505 2.081 10.495 5.655.724 1.312 1.538 1.945 2.986 1.945h5.971c1.809 0 2.804-1.131 2.126-2.895-3.393-8.686-11.4-13.888-21.894-13.888-13.707 0-24.337 10.63-24.337 24.518 0 13.933 11.309 24.518 25.241 24.518 8.324 0 15.154-3.619 19.723-10.676.905-1.402.543-2.623-.769-3.528m18.868-7.147h36.053c1.538 0 2.579-.77 2.715-2.307.045-.588.09-1.222.09-1.765 0-12.982-10.042-23.613-24.201-23.613-14.385 0-25.151 10.902-25.151 24.518 0 13.661 10.449 24.518 26.056 24.518 8.594 0 14.656-3.302 19.496-8.188 1.131-1.176 1.041-2.442-.136-3.573l-1.945-1.9c-1.131-1.131-2.352-1.131-3.573-.045-4.026 3.438-8.278 5.202-13.978 5.202-8.278 0-14.43-5.429-15.426-12.847m14.612-19.18c6.966 0 12.213 4.75 13.525 11.309h-27.82c1.674-6.56 7.419-11.31 14.295-11.31"/></svg>