<svg xmlns="http://www.w3.org/2000/svg" width="445" height="440" fill="none" viewBox="0 0 445 440"><path fill="#000" d="M125.171 44.13C100.537 26.657 44.466-7.192 27.336 1.362 10.206 9.915.894 50.922.06 81.113c-.921 33.355 9.113 66.738 13.766 80.302a72 72 0 0 0-2.963 20.511v104h37v-104c0-19.33 15.67-35 35-35h279c3.25 0 6.397.443 9.383 1.272l3.874 1.326c12.756 5.225 21.743 17.764 21.743 32.402v104h37v-104c0-7.17-1.048-14.096-3-20.632 4.68-13.678 14.622-46.913 13.704-80.121-.834-30.19-10.147-71.198-27.277-79.752-17.129-8.553-73.2 25.295-97.834 42.768-34.077 24.171-57.868 63.028-59.503 65.737H184.71c-1.281-2.13-25.183-41.427-59.539-65.796"/><path fill="#000" fill-rule="evenodd" d="M93.962 160.926c-17.729 0-32.1 14.413-32.1 32.192v214.616c0 17.779 14.371 32.192 32.1 32.192h256.8c17.728 0 32.1-14.413 32.1-32.192V193.118c0-17.779-14.372-32.192-32.1-32.192zm35.234 82.703 56.634 56.797-56.634 56.798 15.133 15.176 71.766-71.974-71.766-71.972zm103.866 131.913h85.6V354.08h-85.6z" clip-rule="evenodd"/><path fill="#f5c0ce" d="M37.833 109.025c-2.657-22.994 3.834-67.256 10.478-71.45C52.913 34.67 80.628 48.96 99.6 64.016c11.714 9.298 24.611 25.692 25.853 27.828 8.452 14.534 4.547 15.776 0 17.181-21.647 6.686-47.764.271-68.835 13.196-15.214 9.333-16.266 8.595-18.784-13.196m368.473 0c2.657-22.994-3.835-67.256-10.478-71.45-4.602-2.904-32.317 11.385-51.288 26.441-11.715 9.298-24.611 25.692-25.853 27.828-8.452 14.534-4.547 15.776 0 17.181 21.647 6.686 47.764.271 68.835 13.196 15.214 9.333 16.266 8.595 18.784-13.196"/></svg>