<svg xmlns="http://www.w3.org/2000/svg" width="329" height="328" fill="none" viewBox="0 0 329 328"><path fill="#a299ff" d="m275.398 182.797-10.626 66.836 63.212 24.244-.01-60.731z"/><path fill="#7366ff" d="M0 243.506V84.496l52.602 16.679v111.961l85.106 49.135 6.359 24.24-6.359 36.497z"/><path fill="#7366ff" d="m137.721 65.737-85.12 49.126-52.6-30.367L137.69 5l137.708 79.496-29.054 23.148-23.516 7.228z"/><path fill="#5219ff" d="m328 273.854-52.602 30.389-52.57-30.389v-60.715z"/><path fill="#a299ff" d="m137.721 103.424-.031 60.721 52.617 30.358-.009-60.731z"/><path fill="#5219ff" d="m137.69 164.146-52.583 30.357 52.592 30.374 52.608-30.374z"/><path fill="#7366ff" d="m137.721 103.424-52.607 30.373-.007 60.706 52.583-30.358z"/><path fill="url(#a)" d="M275.398 84.496v98.301l-52.57 30.342v-98.267z"/><path fill="url(#b)" d="m275.414 182.766-137.706 79.505v60.737l137.69-79.511z"/><defs><linearGradient id="a" x1="249.114" x2="249.114" y1="84.495" y2="213.14" gradientUnits="userSpaceOnUse"><stop offset=".25" stop-color="#7366ff"/><stop offset="1" stop-color="#5219ff"/></linearGradient><linearGradient id="b" x1="137.707" x2="275.413" y1="252.888" y2="252.888" gradientUnits="userSpaceOnUse"><stop stop-color="#7366ff"/><stop offset="1" stop-color="#a299ff"/></linearGradient></defs></svg>