<svg xmlns="http://www.w3.org/2000/svg" width="446" height="70" fill="none" viewBox="0 0 446 70"><path fill="#f60" d="M59.41 27.8a3.163 3.163 0 0 1 3.162 3.148v32.939a3.15 3.15 0 0 1-3.147 3.15H3.265a3.15 3.15 0 0 1-3.15-3.15V4.15a3.15 3.15 0 0 1 3.152-3.148h6.826c1.732 0 3.147 1.4 3.147 3.148v20.686a3.19 3.19 0 0 0 2.764 2.963h5.107c1.548-.142 2.837-1.402 2.922-2.963V4.148c0-1.732 1.4-3.147 3.148-3.147h6.826c1.732 0 3.15 1.4 3.15 3.147V24.62c0 1.618 1.188 2.992 2.748 3.179h19.507zm-8.99 22.59v-6.446c0-1.731-1.4-3.15-3.147-3.15h-6.829a3.15 3.15 0 0 0-3.15 3.15v6.443a3.15 3.15 0 0 0 3.15 3.147h6.827c1.732 0 3.147-1.4 3.147-3.147zm57.608 16.706-3.264-15.234a57 57 0 0 0-1.545-6.04c-.558-1.76-1.348-3.236-2.333-4.436-1.001-1.203-2.305-2.106-3.923-2.736-1.615-.614-3.733-.93-6.352-.93h-6.857v29.374h-7.47V1.117h16.344c2.704 0 5.323.286 7.871.843 2.533.56 4.781 1.49 6.728 2.78a14.5 14.5 0 0 1 4.693 5.138c1.187 2.133 1.776 4.752 1.776 7.874 0 2.39-.286 4.508-.846 6.325a13.2 13.2 0 0 1-2.52 4.711c-1.114 1.317-2.517 2.432-4.176 3.334s-3.622 1.633-5.854 2.191v.187c2.175.557 3.92 1.273 5.224 2.118 1.301.858 2.346 1.874 3.134 3.064q1.16 1.781 1.802 4.078c.43 1.533.83 3.293 1.232 5.256l3.805 18.078h-7.469zm-1.817-48.559c0-2.733-.488-4.866-1.447-6.37a8.8 8.8 0 0 0-3.821-3.334q-2.383-1.074-5.411-1.289a88 88 0 0 0-6.21-.215h-5.555v24.192h4.106c2.248 0 4.452-.156 6.655-.485a17.9 17.9 0 0 0 5.883-1.893 11.15 11.15 0 0 0 4.208-3.948c1.045-1.704 1.589-3.923 1.589-6.658zm43.693 48.56v-6.028h-.184a10.3 10.3 0 0 1-2.52 3.105 15.8 15.8 0 0 1-3.48 2.22 19 19 0 0 1-3.964 1.33c-1.311.29-2.649.438-3.992.443-1.96 0-3.708-.3-5.224-.915a10.16 10.16 0 0 1-3.822-2.562 11.1 11.1 0 0 1-2.359-4.023c-.545-1.574-.817-3.319-.817-5.253 0-1.747.342-3.293 1.03-4.667a12.3 12.3 0 0 1 2.735-3.621 17.2 17.2 0 0 1 3.948-2.692 26.4 26.4 0 0 1 4.651-1.82 34.7 34.7 0 0 1 9.36-1.36c.775 0 1.532-.014 2.247-.027.716-.015 1.46-.1 2.248-.259v-.972c0-1.675-.028-3.35-.072-5.025a13.4 13.4 0 0 0-.843-4.51 6.95 6.95 0 0 0-2.52-3.234c-1.159-.816-2.891-1.231-5.152-1.231-1.345 0-2.548.13-3.621.373a7.5 7.5 0 0 0-2.774 1.2 6.3 6.3 0 0 0-1.893 2.235c-.485.931-.814 2.075-1.001 3.436h-7.241c.026-2.308.516-4.252 1.473-5.855a12 12 0 0 1 3.707-3.922 16.2 16.2 0 0 1 5.211-2.22 25 25 0 0 1 5.953-.7c5.167 0 9.001 1.172 11.506 3.506 2.507 2.333 3.764 6.04 3.764 11.11v31.935h-6.352zm-4.019-20.645c-1.462 0-3.064.158-4.783.487-1.68.311-3.309.856-4.838 1.618-1.504.76-2.748 1.731-3.762 2.963-1.016 1.231-1.519 2.748-1.519 4.553 0 1.931.589 3.52 1.747 4.765 1.175 1.244 2.72 1.861 4.652 1.861 1.145 0 2.26-.17 3.318-.544a11.8 11.8 0 0 0 2.963-1.473 12.7 12.7 0 0 0 2.505-2.248 11.7 11.7 0 0 0 1.82-2.851c.371-.843.671-1.616.915-2.303.465-1.381.725-2.823.773-4.28.028-.744.044-1.602.044-2.562h-3.837v.014zm59.565-1.631c0 2.992-.301 5.885-.915 8.688-.617 2.807-1.633 5.296-3.065 7.474a16 16 0 0 1-5.626 5.224c-2.317 1.302-5.208 1.96-8.659 1.96-3.204 0-5.895-.5-8.071-1.488-2.175-1-3.935-2.375-5.252-4.15-1.315-1.777-2.274-3.864-2.847-6.285a34 34 0 0 1-.858-7.874V1.117h6.482V29.13h.23a11.1 11.1 0 0 1 1.815-3.634 12.4 12.4 0 0 1 2.852-2.692 13 13 0 0 1 3.591-1.674 14.2 14.2 0 0 1 4.065-.589c2.175 0 4.094.345 5.737 1.045 1.647.703 3.078 1.66 4.265 2.878a16.4 16.4 0 0 1 3.008 4.226 25.5 25.5 0 0 1 1.918 5.107c.472 1.805.801 3.65 1.001 5.54.228 1.875.329 3.708.329 5.484m-7.472-.171a48 48 0 0 0-.155-3.565 42 42 0 0 0-.56-4.052 26 26 0 0 0-1.102-4.05 14 14 0 0 0-1.818-3.523 8.95 8.95 0 0 0-2.704-2.49c-1.06-.645-2.292-.958-3.694-.958-1.488 0-2.818.342-3.964 1.029a10.5 10.5 0 0 0-2.989 2.706q-1.269 1.673-2.106 3.822c-.555 1.424-1 2.889-1.33 4.381a38 38 0 0 0-.7 4.38 39 39 0 0 0-.217 3.82c0 1.748.129 3.578.373 5.497a19.1 19.1 0 0 0 1.472 5.37q1.097 2.47 3.138 4.08c1.358 1.073 3.147 1.602 5.392 1.602 1.491 0 2.808-.285 3.951-.845a9.2 9.2 0 0 0 2.919-2.26c.817-.944 1.476-2.049 2.005-3.293a24 24 0 0 0 1.26-3.863c.313-1.333.528-2.678.658-4.011.114-1.33.171-2.593.171-3.777m53.457.17c0 2.993-.301 5.886-.918 8.688-.614 2.808-1.631 5.297-3.059 7.475a16 16 0 0 1-5.626 5.224c-2.32 1.302-5.211 1.96-8.659 1.96-3.207 0-5.899-.5-8.074-1.488-2.175-1-3.935-2.375-5.252-4.15-1.317-1.777-2.274-3.864-2.847-6.285a34 34 0 0 1-.858-7.874V1.117h6.481V29.13h.231a11.1 11.1 0 0 1 1.815-3.634 12.4 12.4 0 0 1 2.852-2.692 13 13 0 0 1 3.591-1.674 14.2 14.2 0 0 1 4.065-.589c2.175 0 4.091.345 5.737 1.045 1.646.703 3.078 1.66 4.265 2.878a16.4 16.4 0 0 1 3.007 4.226 25.4 25.4 0 0 1 1.919 5.107c.472 1.805.798 3.65 1.001 5.54.228 1.875.329 3.708.329 5.484m-7.472-.17a47 47 0 0 0-.156-3.565 42 42 0 0 0-.56-4.052 26 26 0 0 0-1.101-4.05 14 14 0 0 0-1.818-3.523 9 9 0 0 0-2.704-2.49c-1.06-.645-2.292-.958-3.694-.958-1.488 0-2.818.342-3.964 1.029-1.163.7-2.179 1.62-2.992 2.706q-1.265 1.673-2.103 3.822c-.555 1.424-1 2.889-1.33 4.381a38 38 0 0 0-.7 4.38 39 39 0 0 0-.218 3.82c0 1.748.13 3.578.374 5.497a19.1 19.1 0 0 0 1.472 5.37q1.096 2.47 3.137 4.08c1.359 1.073 3.148 1.602 5.393 1.602 1.491 0 2.808-.285 3.951-.845a9.2 9.2 0 0 0 2.919-2.26c.817-.944 1.475-2.049 2.004-3.293a24 24 0 0 0 1.26-3.863c.314-1.333.529-2.678.659-4.011.114-1.33.171-2.593.171-3.777m18.952-34.943V1.115h8.584v8.59h-8.587zm1.029 57.387V21.573h6.482v45.52zm32.115-40.066V55.04c0 2.434.588 4.309 1.775 5.654 1.188 1.348 3.078 2.004 5.668 2.004a10.4 10.4 0 0 0 2.289-.215 18 18 0 0 0 2.162-.674v5.844a40 40 0 0 1-2.877.37c-.944.102-1.903.143-2.878.143q-3.22 0-5.579-.601c-1.577-.4-2.894-1.058-3.952-1.989-1.06-.915-1.845-2.118-2.359-3.622-.518-1.503-.775-3.35-.775-5.553V27.028h-7.428v-5.47h7.428V10.966l6.481-4.107v14.7h12.282v5.47z"/><path fill="#b8b8b8" d="M372.011 67.275V9.227h-.181L352.406 67.26h-7.371L325.656 9.227h-.229V67.26h-6.668V1.296h11.205l18.719 56.13h.187l18.765-56.13h11.062v65.98zm43.468.02c-3.078 0-5.81-.458-8.172-1.373a19.9 19.9 0 0 1-6.212-3.78 22.4 22.4 0 0 1-4.48-5.626 34 34 0 0 1-2.932-6.883 45.5 45.5 0 0 1-1.618-7.617 63 63 0 0 1-.488-7.817c0-2.733.143-5.468.444-8.188.285-2.66.782-5.293 1.488-7.873a34 34 0 0 1 2.821-7.057 20.9 20.9 0 0 1 4.48-5.668c1.802-1.605 3.948-2.865 6.411-3.78C409.697.718 412.588.26 415.88.26c3.205 0 6.01.472 8.429 1.418 2.3.883 4.409 2.2 6.212 3.879 1.732 1.633 3.163 3.552 4.293 5.768a34.8 34.8 0 0 1 2.691 7.073 49 49 0 0 1 1.374 7.814c.26 2.707.402 5.37.402 7.988a77 77 0 0 1-.63 9.476 56 56 0 0 1-.975 5.369 32 32 0 0 1-1.617 5.097 22.5 22.5 0 0 1-2.36 4.337 11.1 11.1 0 0 1-3.191 3.078l.184.187 13.585-.846v6.399zM431.164 34.1c0-1.719-.057-3.593-.156-5.626a52 52 0 0 0-.7-6.113 37 37 0 0 0-1.561-5.927 18.7 18.7 0 0 0-2.735-5.094 13.1 13.1 0 0 0-4.179-3.552c-1.646-.887-3.635-1.33-5.937-1.33-2.437 0-4.511.428-6.243 1.289a13.3 13.3 0 0 0-4.392 3.448 18.1 18.1 0 0 0-2.906 4.996 35 35 0 0 0-1.688 5.91 51 51 0 0 0-.775 6.187 93 93 0 0 0-.184 5.812c0 1.717.07 3.565.228 5.554.156 1.99.43 3.98.845 5.983a34 34 0 0 0 1.704 5.782 18.6 18.6 0 0 0 2.833 4.954 13.2 13.2 0 0 0 4.208 3.436c1.646.86 3.604 1.288 5.839 1.288 2.52 0 4.666-.4 6.427-1.216a12.8 12.8 0 0 0 4.391-3.264 15.7 15.7 0 0 0 2.764-4.74 30 30 0 0 0 1.504-5.695c.326-2.004.529-4.052.599-6.114.072-2.09.114-4.078.114-5.968"/></svg>