<svg xmlns="http://www.w3.org/2000/svg" width="465" height="70" fill="none" viewBox="0 0 465 70"><path fill="#0075a8" d="m149.776 15.373-1.642-9.701C147.612 2.537 146.418 0 145.448 0s-1.791 2.612-1.791 5.746v2.538c0 3.134-2.612 5.746-5.747 5.746h-3.059v7.015h10.074c3.209 0 5.373-2.538 4.851-5.672m-22.91-8.209H95.075c-.224 0-.374 0-.523.075V5.746c0-3.134-.82-5.746-1.79-5.746s-2.165 2.537-2.687 5.672l-1.642 9.701c-.523 3.135 1.642 5.672 4.776 5.672h9.552c.97 0 1.94-.15 2.687-.448-.299 1.642-1.717 2.836-3.433 2.836H88.582a3.487 3.487 0 0 1-3.433-4.105l1.344-8.134A3.487 3.487 0 0 0 83.06 7.09H16.492c-1.417 0-2.611.82-3.208 2.09L.746 28.357a.8.8 0 0 0 .075 1.045l2.463 2.91c.298.374.82.448 1.194.15l8.507-6.717v40.896a3.503 3.503 0 0 0 3.508 3.507h18.955a3.503 3.503 0 0 0 3.507-3.507v-14.18a3.503 3.503 0 0 1 3.508-3.507H89.7a3.503 3.503 0 0 1 3.508 3.508v14.179a3.503 3.503 0 0 0 3.507 3.507h18.956a3.503 3.503 0 0 0 3.507-3.507V51.194h-10.075c-3.134 0-5.746-2.612-5.746-5.746v-9.776c0-1.866.896-3.508 2.314-4.553v11.717c0 3.134 2.612 5.746 5.746 5.746h15.448c3.134 0 5.746-2.612 5.746-5.746v-29.85c0-3.21-2.612-5.822-5.746-5.822"/><path fill="#59595b" d="M162.463 9.104h21.343c10.149 0 16.94 4.926 16.94 14.404 0 7.76-5.298 12.388-10.447 14.03 1.567 1.268 2.686 3.059 3.582 4.925 2.164 4.403 3.582 9.179 8.134 9.179a6.5 6.5 0 0 0 2.089-.373l-1.044 9.179s-2.761.671-5.15.671c-6.119 0-9.626-2.388-13.283-10.597-1.567-3.656-3.657-10.149-6.493-10.149h-2.91v20.448h-12.836V9.104zm12.836 9.329v12.686h4.626c3.657 0 7.985-1.119 7.985-6.641 0-4.553-2.91-6.045-6.417-6.045z"/><path fill="#59595b" d="M218.06 9.104h12.985l17.462 51.717h-12.985l-3.209-9.776H215l-3.134 9.776h-11.194zm0 32.463h11.119l-3.507-10.895c-1.194-3.657-1.791-8.88-1.791-8.88h-.299s-.746 5.298-1.94 8.805zm30.895-32.463h13.732l13.582 25.672c1.119 2.239 2.686 6.12 3.88 9.18h.299c-.15-2.911-.523-7.016-.523-10.075V9.104h10.523v51.717h-13.433L262.91 35.224c-1.268-2.313-2.686-5.672-3.731-8.433h-.298c.223 2.91.597 6.343.597 9.18v24.85h-10.523zm44.254 25.598c0-18.732 9.254-26.418 23.582-26.418 15.075 0 21.119 8.283 19.478 19.477l-11.941 1.045c1.269-8.209-1.94-11.493-7.761-11.493-5.597 0-10.149 4.105-10.149 17.463 0 14.105 4.925 17.687 10.522 17.687 5.299 0 9.552-3.284 8.657-10.075l11.194 1.12c.821 10.522-6.716 18.208-20.522 18.208-14.03.075-23.06-8.208-23.06-27.014m46.194-25.598h12.836v19.553h15.671V9.104h12.836v51.792H367.91v-21.94h-15.671v21.94h-12.836zm46.493 0h34.253v9.553h-21.492v11.12h17.985v9.477h-17.985v12.09h22.239v9.551h-35zm37.462 0h21.343c10.15 0 16.941 4.926 16.941 14.404 0 7.76-5.299 12.388-10.448 14.03 1.567 1.268 2.687 3.059 3.582 4.925 2.164 4.403 3.582 9.179 8.134 9.179 1.12 0 2.09-.373 2.09-.373l-1.045 9.179s-2.761.671-5.149.671c-6.119 0-9.627-2.388-13.284-10.597-1.567-3.656-3.656-10.149-6.492-10.149h-2.911v20.448h-12.835V9.104zm12.761 9.329v12.686h4.627c3.657 0 7.985-1.119 7.985-6.641 0-4.553-2.91-6.045-6.418-6.045z"/></svg>