<svg xmlns="http://www.w3.org/2000/svg" width="472" height="522" fill="none" viewBox="0 0 472 522"><path fill="#8a3391" d="M442.41 164.044c6.357-1.379 12.047.539 15.63 5.944 7.165 10.808 3.128 31.733-9.109 46.75-12.238 15.018-27.981 18.394-35.146 7.586-7.166-10.808-3.129-31.733 9.107-46.749 6.12-7.51 13.159-12.153 19.517-13.531zm-60.232 123.158c6.245-1.248 11.904.671 15.43 5.99 7.166 10.808 3.029 31.757-9.209 46.774s-27.979 18.394-35.146 7.586c-7.165-10.808-3.028-31.757 9.209-46.773 5.355-6.57 11.358-10.937 17.038-12.846a22 22 0 0 1 2.678-.73zm-66.754 127.743c6.358-1.38 12.025.44 15.607 5.844 7.165 10.808 3.129 31.732-9.109 46.75s-27.957 18.495-35.123 7.687c-7.164-10.808-3.127-31.735 9.11-46.751 6.118-7.508 13.158-12.151 19.514-13.529z"/><path fill="#f26e7e" d="M176.225 420.073c.721-.247 1.538-.4 2.3-.538 9.138-1.633 20.888 4.539 29.766 16.771 11.836 16.311 14.049 37.207 4.995 46.618s-25.893 3.825-37.73-12.484c-11.836-16.312-14.148-37.182-5.095-46.594 1.698-1.764 3.598-3.036 5.764-3.773m-1.383-170.565c9.194-1.903 21.175 4.356 30.191 16.781 11.837 16.31 14.149 37.181 5.094 46.593-9.053 9.412-26.016 3.75-37.853-12.561-11.836-16.311-14.025-37.105-4.971-46.516 1.697-1.765 3.597-3.036 5.763-3.775.587-.202 1.164-.394 1.777-.52zm-73.529 47.787c9.195-1.903 21.173 4.356 30.19 16.779 11.837 16.311 14.148 37.181 5.095 46.594-9.053 9.411-26.017 3.749-37.853-12.561-11.837-16.311-14.025-37.106-4.972-46.518 1.698-1.764 3.597-3.035 5.763-3.774.586-.202 1.164-.394 1.777-.52m-72.398 47.207c.722-.247 1.539-.4 2.3-.538 9.137-1.633 20.811 4.663 29.69 16.896 11.837 16.31 14.125 37.082 5.07 46.493-9.053 9.411-25.993 3.849-37.83-12.461-11.835-16.31-14.047-37.204-4.994-46.616 1.697-1.765 3.597-3.036 5.764-3.774m-5.017-167.181c.721-.247 1.539-.403 2.3-.538 9.138-1.633 20.888 4.539 29.767 16.773 11.835 16.311 14.048 37.205 4.994 46.617s-25.993 3.849-37.83-12.461-14.049-37.204-4.994-46.616c1.697-1.766 3.597-3.037 5.762-3.775"/><path fill="#f7bf2a" d="M237.651 161.72c4.374-1.056 9.212-1.681 14.252-1.752 20.163-.28 36.384 8.183 36.287 18.941-.096 10.757-16.517 19.69-36.68 19.971s-36.383-8.182-36.286-18.94c.073-8.069 9.298-15.082 22.427-18.22m-76.994-34.738c4.376-1.056 9.213-1.681 14.254-1.75 20.162-.28 36.384 8.183 36.287 18.94s-16.517 19.69-36.68 19.972c-20.163.28-36.383-8.184-36.287-18.941.074-8.068 9.299-15.081 22.426-18.221M85.65 91.781c4.375-1.056 9.214-1.68 14.254-1.751 20.162-.28 36.384 8.182 36.285 18.941-.097 10.757-16.494 19.79-36.656 20.07-20.163.28-36.406-8.282-36.31-19.04.072-8.068 9.296-15.08 22.427-18.22m266.874-.914c4.375-1.056 9.213-1.681 14.254-1.751 20.162-.28 36.383 8.182 36.286 18.94s-16.494 19.791-36.656 20.071c-20.163.28-36.407-8.282-36.31-19.04.072-8.069 9.296-15.081 22.426-18.22m-76.699-33.435c4.374-1.056 9.237-1.58 14.277-1.65 20.162-.28 36.384 8.182 36.285 18.94-.096 10.758-16.517 19.69-36.679 19.97-20.163.281-36.384-8.183-36.287-18.94.072-8.068 9.273-15.18 22.403-18.32zm-74.979-32.36c4.374-1.056 9.114-1.656 14.155-1.727 20.162-.28 36.506 8.259 36.409 19.017s-16.518 19.69-36.68 19.971c-20.163.28-36.483-8.16-36.386-18.918.072-8.067 9.374-15.204 22.502-18.343"/><path fill="#f7a8b2" fill-rule="evenodd" d="M1.017 134.465c-.374.195-.36.845-.332 2.159v.028L9.11 396.388c.024 2.716.275 3.332 3.138 4.856L238.66 519.605c5.363 3.163 6.271 2.893 5.667-2.381l-3.942-264.481c.349-3.697-1.277-5.307-3.614-6.433L3.293 135.199c-1.212-.618-1.903-.928-2.281-.733zm25.18 42.318c-.76.135-1.578.291-2.3.538-2.165.738-4.065 2.009-5.762 3.775-9.055 9.412-6.843 30.306 4.995 46.616 11.836 16.31 28.776 21.872 37.83 12.461 9.053-9.412 6.84-30.306-4.995-46.617-8.879-12.234-20.63-18.406-29.767-16.773m178.836 89.506c-9.016-12.425-20.997-18.684-30.191-16.781l.001.002c-.613.126-1.19.318-1.777.52-2.166.739-4.066 2.01-5.763 3.775-9.054 9.411-6.865 30.205 4.971 46.516s28.8 21.973 37.853 12.561c9.055-9.412 6.743-30.283-5.094-46.593m-73.53 47.785c-9.017-12.423-20.995-18.682-30.19-16.779-.613.126-1.191.318-1.777.52-2.166.739-4.065 2.01-5.763 3.774-9.053 9.412-6.865 30.207 4.972 46.518 11.836 16.31 28.8 21.972 37.853 12.561 9.053-9.413 6.742-30.283-5.095-46.594m-100.288 29.89c-.761.138-1.578.291-2.3.538-2.167.738-4.067 2.009-5.764 3.774-9.053 9.412-6.841 30.306 4.995 46.616s28.776 21.872 37.83 12.461 6.766-30.183-5.072-46.493c-8.878-12.233-20.552-18.529-29.689-16.896m147.31 75.571c-.762.138-1.579.291-2.3.538-2.166.737-4.066 2.009-5.764 3.773-9.053 9.412-6.741 30.282 5.095 46.594 11.837 16.309 28.677 21.895 37.73 12.484 9.054-9.411 6.841-30.307-4.995-46.618-8.878-12.232-20.628-18.404-29.766-16.771" clip-rule="evenodd"/><path fill="#fce5aa" fill-rule="evenodd" d="M221.53.299c-1.457.306-2.939 1.032-4.768 2.169L11.84 118.537c-1.731.856-1.51 1.324.29 2.147l231.794 110.242c4.294 2.141 6.073 2.116 10.723-.608l201.276-127.137c4.593-3.021 4.837-3.551-1.133-5.747L229.669 1.765C226.213.368 223.946-.223 221.52.296zm-20.684 24.773c4.374-1.056 9.114-1.656 14.155-1.727 20.162-.28 36.506 8.259 36.409 19.017s-16.518 19.69-36.68 19.971c-20.163.28-36.483-8.16-36.386-18.918.072-8.067 9.374-15.204 22.502-18.343M85.651 91.782c4.374-1.057 9.213-1.682 14.253-1.752 20.162-.28 36.384 8.182 36.285 18.941-.097 10.757-16.494 19.79-36.656 20.07-20.163.28-36.406-8.282-36.31-19.04.072-8.068 9.296-15.08 22.427-18.22m190.174-34.35c4.374-1.056 9.237-1.58 14.277-1.65 20.162-.28 36.384 8.182 36.285 18.94-.096 10.758-16.517 19.69-36.679 19.97-20.163.281-36.384-8.183-36.287-18.94.072-8.068 9.273-15.18 22.403-18.32zm-115.168 69.55c4.376-1.056 9.213-1.681 14.254-1.75 20.162-.28 36.384 8.183 36.287 18.94s-16.517 19.69-36.68 19.972c-20.163.28-36.383-8.184-36.287-18.941.074-8.068 9.299-15.081 22.426-18.221m191.867-36.115c4.375-1.056 9.213-1.681 14.254-1.751 20.162-.28 36.383 8.182 36.286 18.94s-16.494 19.791-36.656 20.071c-20.163.28-36.407-8.282-36.31-19.04.072-8.069 9.296-15.081 22.426-18.22M237.651 161.72c4.374-1.056 9.212-1.681 14.252-1.752 20.163-.28 36.384 8.183 36.287 18.941-.096 10.757-16.517 19.69-36.68 19.971s-36.383-8.182-36.286-18.94c.073-8.069 9.298-15.082 22.427-18.22" clip-rule="evenodd"/><path fill="#b985bd" fill-rule="evenodd" d="M469.395 114.801c-.4.184-.956.47-1.583.897L261.126 246.315c-3.862 2.758-3.846 3.586-3.786 6.624l.012.692 3.854 263.66c.147.812.217 1.542.276 2.156.211 2.214.279 2.93 3.32.589l202.263-134.643.094-.075c3.738-2.998 4.461-3.578 3.964-7.836l-.336-260.785c.069-1.855-.191-2.448-1.392-1.89zm-11.355 55.187c-3.583-5.405-9.273-7.323-15.63-5.944h-.001c-6.358 1.378-13.397 6.021-19.517 13.531-12.236 15.016-16.273 35.941-9.107 46.749 7.165 10.808 22.908 7.432 35.146-7.586 12.237-15.017 16.274-35.942 9.109-46.75m-60.432 123.204c-3.526-5.319-9.185-7.238-15.43-5.99v.001c-.892.178-1.764.423-2.678.73-5.68 1.909-11.683 6.276-17.038 12.846-12.237 15.016-16.374 35.965-9.209 46.773 7.167 10.808 22.909 7.431 35.146-7.586s16.375-35.966 9.209-46.774m-66.577 127.597c-3.582-5.404-9.249-7.224-15.607-5.844l-.001.001c-6.356 1.378-13.396 6.021-19.514 13.529-12.237 15.016-16.274 35.943-9.11 46.751 7.166 10.808 22.886 7.331 35.123-7.687 12.238-15.018 16.274-35.942 9.109-46.75" clip-rule="evenodd"/></svg>