<svg xmlns="http://www.w3.org/2000/svg" id="Layer_1" data-name="Layer 1" viewBox="0 0 290.134 111.362"><defs><style>.cls-2{fill:#2e68e9}</style></defs><title>sub-project-brand-logo-variants</title><path d="M163.82 30.314h20.803c9.878 0 16.537 4.789 16.537 14.067a14.135 14.135 0 0 1-10.177 13.695 15 15 0 0 1 3.518 4.79c2.094 4.265 3.516 8.978 7.93 8.978a5.8 5.8 0 0 0 2.022-.374l-.974 8.905a24.5 24.5 0 0 1-5.013.673c-5.986 0-9.428-2.32-12.946-10.327-1.495-3.59-3.591-9.877-6.36-9.877h-2.844v19.98H163.82Zm12.496 9.054V51.79h4.49c3.593 0 7.783-1.122 7.783-6.509 0-4.415-2.843-5.912-6.286-5.912Zm33.375-9.054h12.496v14.143c0 1.571-.224 3.89-.373 5.612h.3a43 43 0 0 1 3.142-4.714l12.347-15.041h13.469l-16.462 19.83 17.36 30.68h-14.367L225.93 59.647l-3.742 4.564v16.611h-12.496Zm46.246 0h33.448v9.278h-20.951v10.851h17.585v9.279h-17.585v11.823h21.7v9.278h-34.197Z" style="fill:#384745"/><circle cx="34.908" cy="76.394" r="7" class="cls-2"/><path d="M71.459 58.682q-.314 0-.623-.03a36.8 36.8 0 0 1 3.306 12.64h14.965a17.58 17.58 0 0 1 9.794-8.029V58.68H71.487ZM42.107 27.744v9.646a37.05 37.05 0 0 1 21.25 10.55l-4.889-20.196Z" class="cls-2"/><circle cx="104.338" cy="79.894" r="3.5" class="cls-2"/><path d="M121.587 0H14.392A14.435 14.435 0 0 0 0 14.392V96.97a14.435 14.435 0 0 0 14.392 14.392h107.195a14.435 14.435 0 0 0 14.392-14.392V14.392A14.435 14.435 0 0 0 121.587 0M34.908 97.394a21 21 0 1 1 21-21 21.024 21.024 0 0 1-21 21m69.43 0a17.53 17.53 0 0 1-16.644-12.102H67.258a7 7 0 0 1-7-6.991l-.005-4.108a23.163 23.163 0 0 0-23.135-23.144h-11.51a7 7 0 0 1 0-14h2.5v-9.305h-2.5a7 7 0 0 1 0-14h38.368a7 7 0 0 1 6.804 5.353l6.192 25.583h26.415a9.524 9.524 0 0 1 9.514 9.514V64.64a17.495 17.495 0 0 1-8.563 32.753" class="cls-2"/></svg>