<svg xmlns="http://www.w3.org/2000/svg" width="210" height="52" viewBox="0 0 210 52"><title>Logo Scaleway</title><g fill="#510098"><path d="M19.746 39.57h8.38a3.8 3.8 0 0 0 3.337-3.592V23.893a2.905 2.905 0 0 0-5.81 0v7.68a2.18 2.18 0 0 1-2.185 2.182h-3.796a2.91 2.91 0 0 0-2.9 2.946 2.95 2.95 0 0 0 2.974 2.868m3.774-27.594h-8.379a3.796 3.796 0 0 0-3.338 3.587v12.085a2.905 2.905 0 0 0 5.81 0V19.97c0-1.207.979-2.185 2.186-2.185h3.795a2.91 2.91 0 0 0 2.905-2.946 2.954 2.954 0 0 0-2.978-2.864"/><path d="M24.922 6.128c6.816.007 12.34 5.531 12.347 12.347v23.746A3.8 3.8 0 0 1 34 45.35H18.23c-6.82-.003-12.349-5.531-12.35-12.352V9.95A3.816 3.816 0 0 1 9.7 6.13zm0-5.81H9.7a9.634 9.634 0 0 0-9.634 9.63v23.046c0 10.032 8.133 18.165 18.165 18.165h16.09a9.626 9.626 0 0 0 8.783-8.56V18.476A18.156 18.156 0 0 0 24.923.32M65.37 39.904a12.2 12.2 0 0 1-5.72-1.475 13.4 13.4 0 0 1-4.605-3.959.993.993 0 0 1 .143-1.336l2.207-1.953a.98.98 0 0 1 .657-.249h.143a.99.99 0 0 1 .699.454 8.96 8.96 0 0 0 2.999 2.95 7.4 7.4 0 0 0 3.86 1.07c1.463 0 2.558-.302 3.27-.899a2.86 2.86 0 0 0 .988-2.333 2.98 2.98 0 0 0-1.054-2.496c-.842-.67-2.247-1.283-4.176-1.822-5.67-1.394-8.547-4.086-8.547-8.049 0-2.451.817-4.372 2.452-5.72 1.634-1.348 3.75-1.96 6.459-1.96a12.3 12.3 0 0 1 5.287 1.106 12 12 0 0 1 4.2 3.383c.337.42.281 1.033-.127 1.385l-2.137 1.81a1 1 0 0 1-.641.237h-.119a1 1 0 0 1-.686-.409 8 8 0 0 0-2.533-2.336 6.7 6.7 0 0 0-3.244-.728 5.17 5.17 0 0 0-3.134.875 2.45 2.45 0 0 0-1.042 2.108 2.7 2.7 0 0 0 .977 2.214c.768.633 2.153 1.193 4.118 1.663 2.664.715 4.76 1.72 6.255 2.995 1.61 1.373 2.427 3.305 2.427 5.748a7.17 7.17 0 0 1-1.205 4.061 7.66 7.66 0 0 1-3.33 2.725c-1.53.65-3.18.971-4.841.94m21.159.098a9.33 9.33 0 0 1-4.903-1.3 9.1 9.1 0 0 1-3.366-3.607 10.9 10.9 0 0 1-1.201-5.127 11 11 0 0 1 1.18-5.123 8.9 8.9 0 0 1 3.367-3.6 9.2 9.2 0 0 1 4.854-1.303 8.1 8.1 0 0 1 4.085 1.021c1.2.703 2.253 1.631 3.101 2.733a1 1 0 0 1-.176 1.398l-1.805 1.413a1 1 0 0 1-.613.209 1 1 0 0 1-.151 0 1 1 0 0 1-.67-.409c-.993-1.438-2.227-2.137-3.771-2.137a4.54 4.54 0 0 0-2.521.711 4.9 4.9 0 0 0-1.757 2.019 7.5 7.5 0 0 0 0 6.128c.38.833.99 1.542 1.757 2.043a4.54 4.54 0 0 0 2.52.71 5.1 5.1 0 0 0 2.387-.481 5.4 5.4 0 0 0 1.707-1.488.997.997 0 0 1 1.357-.204l1.916 1.34a.993.993 0 0 1 .204 1.442 9.8 9.8 0 0 1-3.268 2.632 9.3 9.3 0 0 1-4.233.98m18.361 0a9.26 9.26 0 0 1-4.854-1.3 9.05 9.05 0 0 1-3.367-3.607 11.67 11.67 0 0 1-.02-10.27 9 9 0 0 1 3.33-3.58 9.2 9.2 0 0 1 4.837-1.303 8.1 8.1 0 0 1 3.861.92 8 8 0 0 1 1.124.714v-.07c0-.55.446-.996.996-.996h2.452c.55 0 .997.446.997.997v16.922c0 .55-.447.997-.997.997h-2.452a.997.997 0 0 1-.996-.997v-.061a8.4 8.4 0 0 1-1.104.703 7.9 7.9 0 0 1-3.807.931m-.074-15.836a4.4 4.4 0 0 0-2.492.707 5 5 0 0 0-1.749 2.01 6.9 6.9 0 0 0-.653 3.048 7 7 0 0 0 .657 3.105c.38.83.985 1.538 1.745 2.043.742.478 1.61.724 2.492.707a4.6 4.6 0 0 0 2.558-.711 4.84 4.84 0 0 0 1.757-2.043 7.5 7.5 0 0 0 0-6.128 4.94 4.94 0 0 0-1.757-2.019 4.6 4.6 0 0 0-2.558-.719"/><rect width="4.453" height="27.21" x="117.432" y="12.13" rx=".997"/><path d="M161.381 39.426a1 1 0 0 1-.952-.694l-3.207-10.104-3.468 10.124a1.005 1.005 0 0 1-.952.674h-2.452a1 1 0 0 1-.944-.686l-5.593-16.923a.993.993 0 0 1 .973-1.307h2.578c.43.002.811.28.943.69l3.4 10.537 3.456-10.54a.99.99 0 0 1 .944-.687h2.414a.99.99 0 0 1 .948.694l3.322 10.414 3.35-10.418a.99.99 0 0 1 .96-.69h2.333q.2-.003.388.07a.995.995 0 0 1 .576 1.225l-5.495 16.922a1 1 0 0 1-.948.69zm19.023.576a9.27 9.27 0 0 1-4.858-1.3 9.1 9.1 0 0 1-3.366-3.607 11.7 11.7 0 0 1-.02-10.27 9 9 0 0 1 3.329-3.58 9.2 9.2 0 0 1 4.841-1.303 8.13 8.13 0 0 1 4.968 1.646v-.07a.997.997 0 0 1 1.006-1.008h2.45c.551 0 .998.446.998.997v16.922c-.002.55-.448.995-.997.997h-2.451a1 1 0 0 1-.997-.997v-.061a8.4 8.4 0 0 1-1.1.703 7.9 7.9 0 0 1-3.803.931m-.074-15.836a4.46 4.46 0 0 0-2.496.707 4.94 4.94 0 0 0-1.745 2.01 6.8 6.8 0 0 0-.657 3.048 7 7 0 0 0 .657 3.105c.38.83.985 1.538 1.745 2.043a4.46 4.46 0 0 0 2.496.707 4.6 4.6 0 0 0 2.554-.711 4.8 4.8 0 0 0 1.757-2.043 7.5 7.5 0 0 0 0-6.128 4.9 4.9 0 0 0-1.757-2.019 4.6 4.6 0 0 0-2.554-.719m-40.247 9.283a1.095 1.095 0 0 0-1.47.192 6.5 6.5 0 0 1-1.598 1.446 6.4 6.4 0 0 1-3.105.682 4.25 4.25 0 0 1-3.469-1.49 6.05 6.05 0 0 1-1.336-2.82h12.8a.99.99 0 0 0 .989-.899c.029-.278.04-.666.04-1.148a9.96 9.96 0 0 0-1.164-4.784 8.94 8.94 0 0 0-3.268-3.432 8.8 8.8 0 0 0-4.637-1.266 9.2 9.2 0 0 0-4.833 1.315 9 9 0 0 0-3.33 3.612 11 11 0 0 0-1.177 5.123 10.9 10.9 0 0 0 1.197 5.128 9.1 9.1 0 0 0 3.367 3.607 9.33 9.33 0 0 0 4.902 1.3 10.3 10.3 0 0 0 5.107-1.19 9.9 9.9 0 0 0 3-2.561 1.103 1.103 0 0 0-.242-1.577zm-9.344-8.073a4.22 4.22 0 0 1 3.146-1.226c1.365 0 2.394.343 3.15 1.05a4.67 4.67 0 0 1 1.226 2.235h-8.85a5.45 5.45 0 0 1 1.328-2.06m79.016-4.436a.99.99 0 0 0-.817-.409h-2.313a1 1 0 0 0-.927.638l-4.784 12.334-4.544-12.367a.99.99 0 0 0-.923-.63h-2.57a.997.997 0 0 0-.915 1.369l6.668 17.568a2.6 2.6 0 0 1-.969 1.635c-.625.408-1.805.47-2.45.51a1.083 1.083 0 0 0-1.018 1.079v1.691a1.08 1.08 0 0 0 1.082 1.079c1.042 0 2.713.102 4.017-.588 2.684-1.418 3.084-3.175 3.84-5.173l6.737-17.817a1 1 0 0 0-.114-.92"/></g></svg>