<svg xmlns="http://www.w3.org/2000/svg" width="252" height="70" fill="none" viewBox="0 0 252 70"><path fill="#4ca135" d="m240.167 18.117-3.263 4.268v12.469l13.473-16.737z"/><path fill="#353230" d="m213.808 18.117 13.431 16.737-14.059 17.824h9.749l9.163-11.8 9.247 11.842h9.749l-14.184-17.866-12.887-16.737z"/><path fill="#353230" d="M183.724 1.213v51.465h7.531V29.916h22.553V23.39h-22.553V7.908h24.352V1.213zM30 27.657c-1.464-1.13-3.096-2.009-4.895-2.678a71 71 0 0 0-5.272-1.8c-1.465-.46-2.804-.961-4.059-1.422q-1.883-.69-3.263-1.632a7.6 7.6 0 0 1-2.176-2.3c-.544-.921-.795-2.05-.795-3.39 0-1.422.293-2.636.878-3.598a8.4 8.4 0 0 1 2.302-2.552 9.4 9.4 0 0 1 3.138-1.465c1.171-.293 2.301-.46 3.43-.46 2.135 0 4.06.46 5.733 1.297 1.715.879 3.054 2.008 4.058 3.347l.126.21 5.356-5.189-.126-.125c-1.59-1.8-3.724-3.264-6.36-4.31C25.481.544 22.636 0 19.623 0a25.3 25.3 0 0 0-6.36.837 17 17 0 0 0-5.69 2.678 14.5 14.5 0 0 0-4.1 4.602c-1.046 1.841-1.59 4.1-1.59 6.653 0 2.385.376 4.393 1.171 5.983s1.8 2.97 3.097 4.059a17.5 17.5 0 0 0 4.31 2.72 35.5 35.5 0 0 0 4.853 1.757c1.673.544 3.222 1.046 4.644 1.548s2.72 1.13 3.808 1.799c1.088.711 1.924 1.548 2.552 2.552s.962 2.26.962 3.766-.293 2.803-.92 3.85a9.5 9.5 0 0 1-2.343 2.635c-.963.712-2.05 1.214-3.222 1.548a13 13 0 0 1-3.557.502c-2.3 0-4.476-.543-6.485-1.631-1.966-1.088-3.598-2.51-4.77-4.268l-.125-.167L0 46.36l.126.167c1.966 2.469 4.518 4.352 7.53 5.607a24.4 24.4 0 0 0 9.415 1.883c2.26 0 4.519-.335 6.653-.963s4.058-1.59 5.732-2.887c1.632-1.297 2.97-2.928 3.975-4.895s1.506-4.31 1.506-6.987c0-2.553-.46-4.728-1.38-6.402A12.9 12.9 0 0 0 30 27.657m17.615-9.54h-7.197V52.72h7.197zm34.854 5.188c-1.297-2.008-3.013-3.556-5.147-4.56-2.26-1.088-4.644-1.59-7.113-1.59-2.594 0-5.02.46-7.155 1.422-2.134.963-3.974 2.26-5.48 3.892-1.507 1.631-2.679 3.556-3.515 5.732-.837 2.175-1.256 4.519-1.256 6.987s.419 4.812 1.256 6.946c.836 2.134 2.008 4.058 3.514 5.648a16.3 16.3 0 0 0 5.523 3.808c2.134.92 4.56 1.38 7.197 1.38 2.468 0 4.812-.501 6.987-1.547 2.05-.963 3.724-2.343 4.98-4.143v3.975c0 1.758-.21 3.39-.586 4.937-.419 1.507-1.046 2.804-1.967 3.934-.92 1.087-2.134 1.966-3.64 2.594s-3.39.962-5.607.962c-2.301 0-4.602-.502-6.82-1.506s-4.058-2.343-5.523-3.975l-.167-.168-4.603 5.607.126.126c2.175 1.966 4.812 3.556 7.824 4.602C64.31 69.456 67.364 70 70.335 70c3.556 0 6.61-.544 9.037-1.59q3.64-1.631 5.9-4.268c1.506-1.757 2.594-3.85 3.222-6.15.627-2.302.962-4.728.962-7.239V18.075H82.51v5.23zm-.544 7.197c.544 1.423.837 2.929.837 4.56 0 1.633-.293 3.223-.837 4.645-.544 1.423-1.297 2.678-2.302 3.766q-1.506 1.57-3.64 2.51c-1.422.628-3.012.92-4.686.92-1.757 0-3.305-.334-4.686-1.003q-2.07-1.005-3.515-2.636a11.4 11.4 0 0 1-2.217-3.766 13.4 13.4 0 0 1-.753-4.477c0-1.59.25-3.138.753-4.603.502-1.422 1.213-2.677 2.217-3.765a10.9 10.9 0 0 1 3.515-2.553c1.38-.627 2.929-.962 4.686-.962 1.716 0 3.264.335 4.644.962a11.8 11.8 0 0 1 3.64 2.595c1.005 1.13 1.8 2.384 2.344 3.807m41.799-9.163a12.2 12.2 0 0 0-4.017-3.054c-1.59-.754-3.556-1.13-5.774-1.13-1.255 0-2.51.167-3.64.502a13.2 13.2 0 0 0-3.222 1.422 14.4 14.4 0 0 0-2.594 2.134 9.7 9.7 0 0 0-1.632 2.302c0-.628-.042-1.381-.083-2.302-.042-1.088-.084-2.05-.168-2.928v-.168h-6.82v.21c.084 1.087.126 2.384.167 3.807.042 1.464.084 2.636.084 3.514v27.03h7.197V34.31c0-3.348.837-6.067 2.51-8.076 1.674-1.966 3.808-3.012 6.444-3.012 1.548 0 2.803.293 3.807.837.963.543 1.758 1.297 2.302 2.217.543.92.962 2.05 1.171 3.264.209 1.255.335 2.552.335 3.933v19.163h7.196V31.213c0-1.924-.251-3.765-.753-5.48-.627-1.633-1.422-3.139-2.51-4.394m38.535 27.991a56 56 0 0 1-.125-3.64V30.754c0-1.883-.293-3.682-.879-5.314-.586-1.631-1.464-3.096-2.636-4.31q-1.757-1.82-4.519-2.886c-1.799-.711-3.974-1.046-6.443-1.046q-4.205 0-7.908 1.38c-2.427.921-4.519 2.218-6.234 3.808l-.126.126 3.85 4.644.167-.167c1.13-1.13 2.552-2.093 4.226-2.804 1.673-.753 3.473-1.088 5.355-1.088 2.469 0 4.519.586 6.026 1.8 1.464 1.171 2.217 3.054 2.217 5.523v.753c-2.803 0-5.648.125-8.41.376-2.845.251-5.439.753-7.699 1.548-2.301.795-4.142 1.967-5.564 3.515-1.423 1.548-2.134 3.682-2.134 6.318 0 2.008.418 3.724 1.213 5.063a10.1 10.1 0 0 0 3.054 3.305c1.214.837 2.595 1.423 4.059 1.8 1.464.376 2.929.543 4.268.543 2.636 0 4.937-.502 6.82-1.548 1.841-.962 3.389-2.385 4.644-4.1.042 1.548.209 3.096.586 4.644l.042.167h6.527l-.042-.25a46 46 0 0 1-.335-3.222m-6.987-12.928v1.59c0 2.803-.837 5.188-2.51 7.029q-2.511 2.761-7.155 2.761a12 12 0 0 1-2.469-.25 6.6 6.6 0 0 1-2.176-.88 5.1 5.1 0 0 1-1.548-1.59c-.376-.627-.586-1.464-.586-2.426 0-1.38.461-2.51 1.381-3.305.921-.837 2.134-1.465 3.557-1.925 1.464-.418 3.096-.711 4.853-.879 1.799-.125 3.557-.209 5.23-.209h1.423zM176.276.042h-7.197v52.636h7.197zM47.615 7.113H40.46v7.155h7.155z"/></svg>