<svg xmlns="http://www.w3.org/2000/svg" width="498" height="127" fill="none" viewBox="0 0 498 127"><path fill="#000" d="m159.5 99.5 6.2-14.4c6.7 5 15.6 7.6 24.4 7.6 6.5 0 10.6-2.5 10.6-6.3-.1-10.6-38.9-2.3-39.2-28.9-.1-13.5 11.9-23.9 28.9-23.9 10.1 0 20.2 2.5 27.4 8.2L212 56.5c-6.6-4.2-14.8-7.2-22.6-7.2-5.3 0-8.8 2.5-8.8 5.7.1 10.4 39.2 4.7 39.6 30.1 0 13.8-11.7 23.5-28.5 23.5-12.3 0-23.6-2.9-32.2-9.1m237.9-19.6c-3.1 5.4-8.9 9.1-15.6 9.1-9.9 0-17.9-8-17.9-17.9s8-17.9 17.9-17.9c6.7 0 12.5 3.7 15.6 9.1l17.1-9.5c-6.4-11.4-18.7-19.2-32.7-19.2-20.7 0-37.5 16.8-37.5 37.5s16.8 37.5 37.5 37.5c14.1 0 26.3-7.7 32.7-19.2zM250.2 2.5h-21.4v104.7h21.4zm172.7 0v104.7h21.4V75.8l25.4 31.4h27.4l-32.3-37.3 29.9-34.8h-26.2L444.3 64V2.5zM313.8 80.1c-3.1 5.1-9.5 8.9-16.7 8.9-9.9 0-17.9-8-17.9-17.9s8-17.9 17.9-17.9c7.2 0 13.6 4 16.7 9.2zm0-45v8.5c-3.5-5.9-12.2-10-21.3-10-18.8 0-33.6 16.6-33.6 37.4s14.8 37.6 33.6 37.6c9.1 0 17.8-4.1 21.3-10v8.5h21.4v-72z"/><path fill="#e01e5a" d="M27.2 80c0 7.3-5.9 13.2-13.2 13.2S.8 87.3.8 80 6.7 66.8 14 66.8h13.2zm6.6 0c0-7.3 5.9-13.2 13.2-13.2S60.2 72.7 60.2 80v33c0 7.3-5.9 13.2-13.2 13.2s-13.2-5.9-13.2-13.2z"/><path fill="#36c5f0" d="M47 27c-7.3 0-13.2-5.9-13.2-13.2S39.7.6 47 .6s13.2 5.9 13.2 13.2V27zm0 6.7c7.3 0 13.2 5.9 13.2 13.2S54.3 60.1 47 60.1H13.9C6.6 60.1.7 54.2.7 46.9s5.9-13.2 13.2-13.2z"/><path fill="#2eb67d" d="M99.9 46.9c0-7.3 5.9-13.2 13.2-13.2s13.2 5.9 13.2 13.2-5.9 13.2-13.2 13.2H99.9zm-6.6 0c0 7.3-5.9 13.2-13.2 13.2s-13.2-5.9-13.2-13.2V13.8C66.9 6.5 72.8.6 80.1.6s13.2 5.9 13.2 13.2z"/><path fill="#ecb22e" d="M80.1 99.8c7.3 0 13.2 5.9 13.2 13.2s-5.9 13.2-13.2 13.2-13.2-5.9-13.2-13.2V99.8zm0-6.6c-7.3 0-13.2-5.9-13.2-13.2s5.9-13.2 13.2-13.2h33.1c7.3 0 13.2 5.9 13.2 13.2s-5.9 13.2-13.2 13.2z"/></svg>