<svg xmlns="http://www.w3.org/2000/svg" width="260" height="69" fill="none" viewBox="0 0 260 69"><path fill="#ff00ce" d="M80.841 29.378c-.13-.074-.256-.153-.387-.223a18 18 0 0 0-4.795-1.737 31 31 0 0 1 .297 4.27c0 11.633-6.27 21.799-15.614 27.308.441.37.898.724 1.373 1.053.23.158.471.3.71.45a18 18 0 0 0 9.516 2.719c9.993 0 18.093-8.102 18.093-18.097 0-6.754-3.708-12.636-9.193-15.743"/><path fill="#0086ff" d="M71.941 27.028c1.277 0 2.517.14 3.718.39C73.573 11.94 60.321 0 44.27 0 33.211 0 23.48 5.666 17.81 14.25 7.506 17.348.001 26.903.001 38.214c0 13.82 11.204 25.069 25.023 25.069.913 0 17.801.139 19.245.139 4.706 0 9.168-1.083 13.183-2.924.218-.1.44-.193.656-.296a32 32 0 0 0 2.234-1.206c-3.967-3.318-6.496-8.298-6.496-13.874 0-9.992 8.102-18.094 18.095-18.094"/><path fill="#1e1e9a" d="M75.957 31.688q0-.448-.014-.891a34 34 0 0 0-.074-1.418 32 32 0 0 0-.21-1.96 18 18 0 0 0-3.717-.392c-9.994 0-18.095 8.102-18.095 18.095 0 5.577 2.53 10.557 6.494 13.875 9.344-5.511 15.616-15.675 15.616-27.309m147.831-18.575v8.938h12.804v32.588h9.572V22.05h12.863v-8.937zM121.792 30.509l-3.809-1.54c-1.904-.741-3.247-1.444-3.999-2.091-.719-.619-1.068-1.38-1.068-2.32 0-2.356 1.673-3.498 5.118-3.498 3.512 0 6.571 1.329 9.087 3.953l.23.239 5.004-5.708-.168-.2c-3.497-4.154-8.205-6.259-13.992-6.259-4.098 0-7.536 1.056-10.222 3.14-2.709 2.1-4.084 5.013-4.084 8.658 0 2.874.887 5.233 2.636 7.01 1.721 1.748 4.382 3.377 7.91 4.843l4.047 1.7c1.91.796 3.319 1.519 4.188 2.15.815.593 1.211 1.413 1.211 2.506 0 1.358-.55 2.36-1.679 3.06-1.16.722-2.643 1.086-4.411 1.086-3.727 0-7.412-1.874-10.95-5.57l-.226-.236-5.246 5.771.155.202c3.982 5.182 9.454 7.808 16.267 7.808 4.256 0 7.858-1.096 10.705-3.259 2.873-2.181 4.329-5.272 4.329-9.184 0-2.875-.9-5.273-2.675-7.131-1.747-1.832-4.561-3.557-8.358-5.13m44.402 12.778c-2.252 2.352-5.09 3.546-8.44 3.546-3.196 0-5.97-1.1-8.248-3.273-1.14-1.086-2.005-2.441-2.576-4.025V28.641c.569-1.582 1.435-2.922 2.573-3.982 2.277-2.12 5.055-3.196 8.251-3.196 3.351 0 6.191 1.194 8.44 3.548 2.253 2.36 3.396 5.447 3.396 9.179 0 3.676-1.143 6.738-3.396 9.096m-7.066-30.201c-2.944 0-5.686.594-8.144 1.768-2.167 1.038-3.978 2.442-5.391 4.187v-5.067h-8.54V68.89h9.107V50.046c3.188 3.43 7.548 5.168 12.968 5.168 5.727 0 10.514-2.022 14.225-6.005 3.706-3.98 5.586-9.061 5.586-15.1 0-5.986-1.88-11.041-5.586-15.018-3.711-3.987-8.498-6.005-14.225-6.005m52.315 30.079c-2.303 2.381-5.198 3.588-8.603 3.588-3.459 0-6.351-1.207-8.6-3.587-2.256-2.384-3.399-5.406-3.399-8.976 0-3.625 1.157-6.674 3.437-9.058s5.187-3.616 8.638-3.669c3.407.053 6.288 1.286 8.566 3.669 2.281 2.384 3.437 5.433 3.437 9.058 0 3.57-1.169 6.59-3.476 8.975m-8.603-30.08c-5.938 0-11.02 2.045-15.106 6.078-4.088 4.031-6.161 9.06-6.161 14.945 0 5.886 2.073 10.914 6.161 14.947 4.086 4.032 9.168 6.105 15.106 6.159 5.883 0 10.978-2.058 15.146-6.118s6.283-9.102 6.283-14.988-2.115-10.915-6.286-14.948c-4.166-4.031-9.26-6.074-15.143-6.074"/></svg>