<svg xmlns="http://www.w3.org/2000/svg" width="648" height="89" fill="none" viewBox="0 0 648 89"><path fill="#f26e7e" fill-rule="evenodd" d="M14.3 49.428c3.277-1.896 3.282-8.034.013-13.71s-8.576-8.74-11.852-6.845-3.282 8.035-.012 13.71c3.27 5.677 8.575 8.741 11.852 6.845m.02 12.154c3.27 5.677 3.264 11.815-.012 13.711s-8.582-1.168-11.852-6.844-3.264-11.815.012-13.711 8.583 1.168 11.852 6.844m22.327 12.939c3.27 5.676 3.264 11.814-.012 13.71-3.277 1.897-8.583-1.168-11.853-6.844s-3.264-11.815.013-13.71c3.276-1.897 8.582 1.168 11.852 6.844m-.008-25.864c3.27 5.676 3.264 11.814-.012 13.71s-8.582-1.168-11.852-6.844-3.264-11.815.012-13.71c3.277-1.897 8.583 1.167 11.852 6.843" clip-rule="evenodd"/><path fill="#8a3391" fill-rule="evenodd" d="M81.303 42.598c3.27-5.676 3.264-11.814-.012-13.71s-8.583 1.168-11.852 6.844-3.264 11.815.012 13.71c3.276 1.897 8.583-1.168 11.852-6.844m0 12.148c3.277 1.896 3.283 8.035.013 13.71-3.27 5.677-8.576 8.741-11.852 6.845s-3.282-8.034-.012-13.71 8.576-8.74 11.852-6.845M58.983 67.663c3.276 1.896 3.281 8.035.012 13.71-3.27 5.677-8.576 8.741-11.852 6.845s-3.282-8.034-.012-13.71 8.575-8.74 11.852-6.845m-.013-25.858c3.276 1.896 3.282 8.034.012 13.71s-8.575 8.74-11.852 6.845c-3.276-1.896-3.282-8.035-.012-13.71 3.27-5.677 8.576-8.741 11.852-6.845" clip-rule="evenodd"/><path fill="#f7bf2a" fill-rule="evenodd" d="M53.712 6.866c0 3.792-5.301 6.866-11.84 6.866-6.54 0-11.84-3.074-11.84-6.866S35.332 0 41.872 0c6.539 0 11.84 3.074 11.84 6.866M31.39 19.77c0 3.792-5.3 6.866-11.84 6.866-6.539 0-11.84-3.074-11.84-6.866s5.301-6.866 11.84-6.866c6.54 0 11.84 3.074 11.84 6.866m32.833 6.866c6.539 0 11.84-3.074 11.84-6.866s-5.301-6.866-11.84-6.866c-6.54 0-11.84 3.074-11.84 6.866s5.3 6.866 11.84 6.866m-10.511 6.067c0 3.792-5.301 6.866-11.84 6.866-6.54 0-11.84-3.074-11.84-6.866s5.3-6.866 11.84-6.866c6.539 0 11.84 3.074 11.84 6.866" clip-rule="evenodd"/><path fill="#000" fill-rule="evenodd" d="M211.251 16.212h4.401c1.367 0 2.125.761 2.125 2.13v51.234c0 1.369-.758 2.13-2.125 2.13h-4.401c-1.367 0-2.126-.761-2.126-2.13V18.342c0-1.369.759-2.13 2.126-2.13m-84.656 55.493c1.366 0 2.125-.76 2.125-2.13V52.422h8.916c11.309 0 18.404-6.77 18.404-16.964 0-10.155-7.095-16.964-18.404-16.964H121.89c-1.367 0-2.126.761-2.126 2.13v48.951c0 1.37.759 2.13 2.126 2.13zm2.125-45.642h8.348c6.374 0 9.979 3.69 9.979 9.395 0 5.743-3.605 9.433-9.979 9.433h-8.348zm33.696 8.406v22.137c0 9.699 6.261 15.974 15.71 15.974 5.008 0 9.296-2.472 11.952-6.085v3.08c0 1.37.759 2.13 2.125 2.13h4.44c1.366 0 2.125-.76 2.125-2.13V34.47c0-1.369-.759-2.13-2.125-2.13h-4.44c-1.366 0-2.125.761-2.125 2.13v19.322c0 6.542-4.705 11.144-10.169 11.144-5.237 0-8.841-3.727-8.841-9.052V34.469c0-1.369-.759-2.13-2.125-2.13h-4.402c-1.366 0-2.125.761-2.125 2.13m65 0v22.137c0 9.699 6.261 15.974 15.71 15.974 5.009 0 9.297-2.472 11.953-6.085v3.08c0 1.37.759 2.13 2.125 2.13h4.439c1.367 0 2.125-.76 2.125-2.13V34.47c0-1.369-.758-2.13-2.125-2.13h-4.439c-1.366 0-2.125.761-2.125 2.13v19.322c0 6.542-4.705 11.144-10.17 11.144-5.236 0-8.841-3.727-8.841-9.052V34.469c0-1.369-.759-2.13-2.125-2.13h-4.402c-1.366 0-2.125.761-2.125 2.13m107.537 12.97v22.175c0 1.369-.758 2.13-2.124 2.13h-4.439c-1.367 0-2.126-.761-2.126-2.13V48.2c0-5.325-3.301-9.052-8.158-9.052-4.895 0-9.524 4.944-9.524 10.916v19.55c0 1.369-.759 2.13-2.125 2.13h-4.44c-1.366 0-2.125-.761-2.125-2.13V48.2c0-5.325-3.301-9.052-8.158-9.052-4.667 0-9.525 4.488-9.525 10.916v19.55c0 1.369-.759 2.13-2.125 2.13h-4.439c-1.366 0-2.125-.761-2.125-2.13V34.469c0-1.369.759-2.13 2.125-2.13h4.439c1.366 0 2.125.761 2.125 2.13v3.005c2.77-3.651 6.755-6.047 11.346-6.047 5.92 0 10.89 3.08 13.357 8.177 2.58-4.944 7.362-8.177 12.977-8.177 8.538 0 15.064 6.313 15.064 16.012m19.353-25.825c0-3.005-2.353-5.325-5.389-5.325s-5.35 2.32-5.35 5.325c0 2.966 2.314 5.286 5.35 5.286s5.389-2.32 5.389-5.286m-1.063 12.855c0-1.369-.758-2.13-2.125-2.13h-4.402c-1.366 0-2.125.761-2.125 2.13v35.107c0 1.369.759 2.13 2.125 2.13h4.402c1.367 0 2.125-.761 2.125-2.13z" clip-rule="evenodd"/><rect width="72.093" height="51.468" x="390.306" y="18.662" fill="#fed05d" rx="12"/><path fill="#000" d="M408.732 42.506c0-1.05 1.05-1.722 2.436-1.722 1.554 0 2.688.714 3.36 2.142l4.62-2.52c-1.638-2.856-4.578-4.452-7.98-4.452-2.268 0-4.158.588-5.712 1.806-1.512 1.176-2.268 2.814-2.268 4.872 0 4.368 3.906 5.67 7.014 6.468 2.142.546 3.822 1.176 3.822 2.31 0 1.218-.966 1.806-2.898 1.806-2.142 0-3.486-.924-4.116-2.73l-4.704 2.646c1.554 3.318 4.494 4.998 8.82 4.998 2.394 0 4.41-.588 6.006-1.722 1.638-1.176 2.436-2.856 2.436-4.998.042-4.494-3.948-5.964-7.014-6.594-2.142-.546-3.822-1.176-3.822-2.31m25.717-5.964h-4.746v-5.88l-5.418 1.638v4.242h-3.654v5.208h3.654v8.736c0 5.754 2.73 7.896 10.164 7.056v-4.914c-3.108.168-4.746.126-4.746-2.142V41.75h4.746zm9.566 0h-5.418v21h5.418V47.504c0-2.016.63-3.444 1.932-4.326s2.814-1.218 4.452-1.008v-6.048c-2.856 0-5.376 1.344-6.384 4.032zm48.16-11.134c-6.552-.378-9.87 2.856-9.87 8.778v.21h-3.024v5.208h3.024v15.792h5.418V39.604h4.452v-5.208h-4.452v-.21c0-2.604 1.47-3.78 4.452-3.57zm19.596 27.384c2.142-2.142 3.234-4.788 3.234-7.896s-1.092-5.712-3.234-7.854-4.788-3.234-7.896-3.234-5.754 1.092-7.896 3.234-3.192 4.746-3.192 7.854 1.05 5.754 3.192 7.896 4.788 3.192 7.896 3.192 5.754-1.05 7.896-3.192m-11.97-3.738c-1.05-1.092-1.596-2.478-1.596-4.158s.546-3.066 1.596-4.158c1.092-1.092 2.436-1.638 4.074-1.638s2.982.546 4.074 1.638q1.638 1.638 1.638 4.158t-1.638 4.158c-1.092 1.092-2.436 1.638-4.074 1.638s-2.982-.546-4.074-1.638m24.433-14.658h-5.418v21h5.418V45.358c0-2.016.63-3.444 1.932-4.326s2.814-1.218 4.452-1.008v-6.048c-2.856 0-5.376 1.344-6.384 4.032zm37.021-8.4-6.384 12.264-6.384-12.264h-6.552l10.038 17.934v11.466h5.754V43.93l10.08-17.934zm30.755 29.4-10.332-29.4h-7.182l-10.29 29.4h6.258l1.764-5.292h11.718l1.764 5.292zm-13.902-22.722 4.032 12.012h-8.064zm39.563-6.678-8.4 13.902-8.442-13.902h-5.964v29.4h5.796V36.37l8.274 13.608h.672l8.274-13.65v19.068h5.754v-29.4zm17.238 0h-5.796v29.4h17.01v-5.544h-11.214z"/></svg>