<svg xmlns="http://www.w3.org/2000/svg" width="116" height="24" fill="none" viewBox="0 0 116 24"><path fill="#333" d="M12.3 9 9 9.2c-.1-.3-.2-.5-.4-.8s-.4-.4-.7-.6c-.3-.1-.7-.2-1.1-.2-.6 0-1 .1-1.4.4q-.6.3-.6.9c0 .3.1.6.4.8s.7.4 1.3.5l2.4.5c1.3.3 2.2.7 2.8 1.3s.9 1.3.9 2.3c0 .9-.3 1.6-.8 2.3-.5.6-1.2 1.2-2.1 1.5-.9.4-1.9.5-3 .5-1.7 0-3.1-.4-4.1-1.1q-1.5-1.05-1.8-3l3.6-.2c.1.5.4.9.8 1.2s.9.4 1.6.4c.6 0 1.1-.1 1.5-.4s.6-.6.6-1c0-.3-.1-.6-.4-.8s-.7-.4-1.3-.5l-2.3-.5c-1.3-.3-2.2-.7-2.9-1.3S1.1 10 1.1 9c0-.8.2-1.6.7-2.2s1.1-1.1 1.9-1.4 1.8-.5 2.9-.5c1.7 0 3 .3 3.9 1 1 .9 1.6 1.9 1.8 3.1m4.4 14.3c-.5 0-.9 0-1.3-.1s-.7-.2-1-.3l.8-2.7c.4.1.8.2 1.2.2.3 0 .6-.1.9-.2q.45-.3.6-.9l.2-.6-4.7-13.5h3.8l2.7 9.6h.1l2.7-9.6h3.8l-5.1 14.5c-.2.7-.6 1.3-1 1.8s-.9.9-1.6 1.2c-.4.4-1.2.6-2.1.6m11.5-4.9V5.3h3.5v2.3h.2c.3-.8.7-1.4 1.4-1.8.6-.4 1.4-.7 2.3-.7s1.7.2 2.3.7c.6.4 1.1 1 1.3 1.8h.1q.45-1.2 1.5-1.8c.7-.5 1.5-.7 2.5-.7q1.8 0 3 1.2c.8.8 1.1 1.9 1.1 3.3v8.8h-3.6v-8.1c0-.7-.2-1.3-.6-1.6-.4-.4-.9-.5-1.4-.5q-1.05 0-1.5.6c-.3.4-.6 1-.6 1.6v8h-3.5v-8.2c0-.6-.2-1.2-.5-1.5-.4-.4-.8-.6-1.4-.6-.4 0-.8.1-1.1.3s-.6.5-.8.8c-.2.4-.3.8-.3 1.3v7.9zm21.6 0V.9h3.6v6.6h.1c.2-.4.4-.7.7-1.1q.45-.6 1.2-.9c.5-.2 1.1-.4 1.8-.4 1 0 1.8.2 2.6.7S61.3 7 61.7 8s.7 2.2.7 3.7-.2 2.7-.7 3.7-1.1 1.8-1.9 2.3-1.7.8-2.7.8q-1.05 0-1.8-.3t-1.2-.9c-.3-.4-.6-.7-.7-1.1h-.2v2.1h-3.4zm3.5-6.6c0 .8.1 1.5.3 2 .2.6.5 1 .9 1.4.4.3.9.5 1.5.5s1.1-.2 1.5-.5.7-.8.9-1.4.3-1.3.3-2c0-.8-.1-1.4-.3-2s-.5-1-.9-1.3S56.6 8 56 8s-1.1.2-1.5.5-.7.8-.9 1.3c-.2.6-.3 1.2-.3 2m13.1-8.2c-.5 0-1-.2-1.4-.5-.4-.4-.6-.8-.6-1.3s.2-.9.6-1.3.8-.5 1.4-.5c.5 0 1 .2 1.4.5.4.4.6.8.6 1.3s-.2.9-.6 1.3c-.4.3-.8.5-1.4.5m-1.8 14.8V5.3h3.6v13.1zm12.1.2c-1.3 0-2.5-.3-3.4-.8-1-.6-1.7-1.4-2.2-2.4s-.8-2.2-.8-3.5c0-1.4.3-2.5.8-3.5s1.3-1.8 2.2-2.4c1-.6 2.1-.8 3.4-.8s2.5.3 3.4.8c1 .6 1.7 1.4 2.2 2.4s.8 2.2.8 3.5-.3 2.5-.8 3.5-1.3 1.8-2.2 2.4c-.9.5-2.1.8-3.4.8m0-2.8c.6 0 1.1-.2 1.5-.5s.7-.8.9-1.4.3-1.3.3-2c0-.8-.1-1.4-.3-2s-.5-1.1-.9-1.4-.9-.5-1.5-.5-1.1.2-1.5.5-.7.8-.9 1.4-.3 1.3-.3 2c0 .8.1 1.4.3 2s.5 1.1.9 1.4.9.5 1.5.5M96 9l-3.3.2c-.1-.3-.2-.5-.4-.8s-.4-.4-.7-.6c-.3-.1-.7-.2-1.1-.2-.6 0-1 .1-1.4.4q-.6.3-.6.9c0 .3.1.6.4.8s.7.4 1.3.5l2.4.5c1.3.3 2.2.7 2.8 1.3s.9 1.3.9 2.3c0 .9-.3 1.6-.8 2.3-.5.6-1.2 1.2-2.1 1.5-.9.4-1.9.5-3 .5-1.7 0-3.1-.4-4.1-1.1q-1.5-1.05-1.8-3l3.6-.2c.1.5.4.9.8 1.2s.9.4 1.6.4c.6 0 1.1-.1 1.5-.4s.6-.6.6-1c0-.3-.1-.6-.4-.8s-.7-.4-1.3-.5l-2.3-.5c-1.3-.3-2.2-.7-2.9-1.3s-.9-1.4-.9-2.4c0-.8.2-1.6.7-2.2s1.1-1.1 1.9-1.4 1.8-.5 2.9-.5c1.7 0 3 .3 3.9 1 1.1.9 1.7 1.9 1.8 3.1m4.1-5.4c-.5 0-1-.2-1.4-.5-.4-.4-.6-.8-.6-1.3s.2-.9.6-1.3.8-.5 1.4-.5c.5 0 1 .2 1.4.5.4.4.6.8.6 1.3s-.2.9-.6 1.3c-.4.3-.9.5-1.4.5m-1.8 14.8V5.3h3.6v13.1zm17-9.4-3.3.2c-.1-.3-.2-.5-.4-.8s-.4-.4-.7-.6c-.3-.1-.7-.2-1.1-.2-.6 0-1 .1-1.4.4q-.6.3-.6.9c0 .3.1.6.4.8s.7.4 1.3.5l2.4.5c1.3.3 2.2.7 2.8 1.3s.9 1.3.9 2.3c0 .9-.3 1.6-.8 2.3-.5.6-1.2 1.2-2.1 1.5-.9.4-1.9.5-3 .5-1.7 0-3.1-.4-4.1-1.1q-1.5-1.05-1.8-3l3.6-.2c.1.5.4.9.8 1.2s.9.4 1.6.4c.6 0 1.1-.1 1.5-.4s.6-.6.6-1c0-.3-.1-.6-.4-.8s-.7-.4-1.3-.5l-2.3-.5c-1.3-.3-2.2-.7-2.9-1.3s-.9-1.4-.9-2.4c0-.8.2-1.6.7-2.2s1.1-1.1 1.9-1.4 1.8-.5 2.9-.5c1.7 0 3 .3 3.9 1 1.1.9 1.7 1.9 1.8 3.1"/></svg>