<svg xmlns="http://www.w3.org/2000/svg" width="130" height="24" fill="none" viewBox="0 0 130 24"><g fill="#000" clip-path="url(#a)"><path d="M3.653 6.574a2.9 2.9 0 1 0 0-5.801 2.9 2.9 0 0 0 0 5.801" opacity=".2"/><path d="M3.653 15.223a2.9 2.9 0 1 0 0-5.801 2.9 2.9 0 0 0 0 5.801"/><path d="M3.653 24.033a2.9 2.9 0 1 0 0-5.802 2.9 2.9 0 0 0 0 5.802" opacity=".2"/><path d="M12.355 15.223a2.9 2.9 0 1 0 0-5.801 2.9 2.9 0 0 0 0 5.801m0 8.81a2.9 2.9 0 1 0 0-5.802 2.9 2.9 0 0 0 0 5.802"/><path d="M12.355 6.574a2.9 2.9 0 1 0 0-5.801 2.9 2.9 0 0 0 0 5.801m8.595 0a2.9 2.9 0 1 0 0-5.801 2.9 2.9 0 0 0 0 5.801" opacity=".2"/><path d="M20.95 15.223a2.9 2.9 0 1 0 0-5.801 2.9 2.9 0 0 0 0 5.801"/><path d="M20.95 24.033a2.9 2.9 0 1 0 0-5.802 2.9 2.9 0 0 0 0 5.802" opacity=".2"/><path d="M41.27 21.776c.82 0 1.486-.077 2.28-.23v-2.972c-.486.18-1.024.23-1.536.23-1.256 0-1.717-.614-1.717-1.792v-6.046h3.253V7.995h-3.253V3.589h-3.586v4.406h-2.33v2.971h2.33v6.378c0 2.818 1.486 4.432 4.56 4.432m8.136 0c1.921 0 3.202-.64 3.843-1.64.05.436.204 1.025.41 1.384h3.227c-.18-.615-.308-1.588-.308-2.229v-7.018c0-2.895-2.074-4.534-5.584-4.534-2.664 0-4.738.999-5.891 2.459l2.049 2.023c.922-1.024 2.1-1.562 3.535-1.562 1.742 0 2.51.589 2.51 1.46 0 .743-.512 1.255-3.279 1.255-2.664 0-5.353 1.101-5.353 4.175 0 2.844 2.05 4.227 4.841 4.227m.717-2.715c-1.383 0-2.023-.59-2.023-1.64 0-.922.768-1.537 2.049-1.537 2.05 0 2.613-.128 3.048-.563v1.101c0 1.46-1.23 2.639-3.074 2.639M58.91 6.279h3.74V2.923h-3.74zm.077 15.24h3.587V7.996h-3.587zm6.199.001h3.586V3.333h-3.586zm11.04.256c3.945 0 5.969-2.075 5.969-4.252 0-1.973-1-3.433-4.278-4.022-2.306-.41-3.74-.922-3.74-1.716 0-.692.82-1.178 2.203-1.178 1.23 0 2.254.41 3.023 1.306l2.28-1.921c-1.153-1.435-3.049-2.254-5.303-2.254-3.458 0-5.61 1.844-5.61 4.098 0 2.46 2.254 3.56 4.688 3.996 2.023.359 3.15.743 3.15 1.614 0 .743-.794 1.358-2.305 1.358-1.486 0-2.638-.692-3.176-1.717l-3.023 1.435c.743 1.844 3.279 3.253 6.122 3.253m13.986 0c2.561 0 4.406-1.025 5.789-3.33l-2.869-1.46c-.538 1.076-1.409 1.819-2.92 1.819-2.28 0-3.51-1.845-3.51-4.073s1.307-4.022 3.51-4.022c1.383 0 2.305.743 2.843 1.87l2.895-1.537c-.974-2.126-2.895-3.304-5.738-3.304-4.688 0-7.096 3.432-7.096 6.993 0 3.868 2.92 7.044 7.096 7.044m11.501 0c1.922 0 3.202-.64 3.843-1.64.051.436.205 1.025.41 1.384h3.228c-.18-.615-.308-1.588-.308-2.229v-7.018c0-2.895-2.075-4.534-5.584-4.534-2.664 0-4.74.999-5.892 2.459l2.05 2.023c.921-1.024 2.1-1.562 3.534-1.562 1.742 0 2.511.589 2.511 1.46 0 .743-.513 1.255-3.279 1.255-2.664 0-5.354 1.101-5.354 4.175 0 2.844 2.05 4.227 4.841 4.227m.718-2.715c-1.384 0-2.024-.59-2.024-1.64 0-.922.769-1.537 2.049-1.537 2.049 0 2.613-.128 3.049-.563v1.101c0 1.46-1.23 2.639-3.074 2.639m8.562 2.459h3.586V3.333h-3.586zm12.193.256c2.639 0 4.765-1.05 5.943-2.92l-2.715-1.742c-.717 1.127-1.666 1.742-3.228 1.742-1.767 0-3.048-.974-3.381-2.87H130v-1.254c0-3.56-2.178-6.993-6.84-6.993-4.43 0-6.839 3.458-6.839 7.018 0 5.072 3.817 7.019 6.865 7.019m-3.253-8.607c.564-1.716 1.742-2.51 3.305-2.51 1.767 0 2.843 1.05 3.201 2.51z"/></g><defs><clipPath id="a"><path fill="#fff" d="M0 0h130v24H0z"/></clipPath></defs></svg>