<svg xmlns="http://www.w3.org/2000/svg" width="145" height="32" fill="none" viewBox="0 0 145 32"><path fill="#000" d="M43.887 8.428h-5.753v16.62h-3.38V8.429H29V5.216h14.89z"/><path fill="#000" d="M52.942 15.104h-.028l-3.288 9.945h-3.157l-5.065-14.497h3.437l3.24 10.391 3.325-10.391h3.068l3.288 10.42 3.268-10.42h3.382l-5.056 14.497h-3.157zm13.505-4.552h4.18v14.497h-3.323V13.513h-1.918zm.438-4.47a2.082 2.082 0 1 1 4.164 0c0 1.201-.865 2.039-2.067 2.039-1.2 0-2.1-.838-2.1-2.039zm9.828 6.396c.616-1.144 2.096-2.262 4.47-2.262 3.52 0 5.392 2.348 5.392 5.728v9.105H83.25v-8.687c0-1.983-.892-3.287-2.876-3.287-2.096 0-3.409 1.315-3.409 3.575v8.408H73.64V10.552h3.069zm23.427-1.926h3.069v13.883c0 3.827-2.459 6.731-6.928 6.731-4.358 0-6.342-2.792-6.649-5.054h3.326c.306 1.116 1.284 2.205 3.38 2.205 2.29 0 3.546-1.396 3.546-3.435V22.62c-.811 1.256-2.348 2.234-4.581 2.234-4.134 0-6.677-3.323-6.677-7.319s2.543-7.319 6.677-7.319c2.233 0 3.882.895 4.833 2.411zm-4.164 2.597c-2.411 0-4.022 1.843-4.022 4.384 0 2.54 1.62 4.384 4.022 4.384 2.457 0 4.05-1.872 4.05-4.384s-1.59-4.384-4.048-4.384zm24.06-2.569v14.467h-3.068V22.98c-.923 1.508-2.631 2.41-4.89 2.41-4.273 0-6.703-3.434-6.703-7.57s2.428-7.575 6.698-7.575c2.264 0 3.967.894 4.89 2.41V10.58zm-7.261 11.871c2.542 0 4.079-2.038 4.079-4.638s-1.535-4.635-4.079-4.635c-2.545 0-4.08 2.038-4.08 4.635s1.565 4.638 4.08 4.638m9.911-15.669h3.323v3.77h2.709v2.654h-2.709v7.319c0 1.144.476 1.703 1.62 1.703.349-.003.697-.05 1.035-.14v2.878c-.569.124-1.15.18-1.732.166-2.961 0-4.246-1.534-4.246-4.272zm10.285 11.983c.252 2.29 1.731 3.77 4.05 3.77 1.535 0 2.85-.783 3.38-2.067h3.352c-.866 2.878-3.435 4.916-6.815 4.916-4.384 0-7.233-3.268-7.233-7.597 0-4.22 2.904-7.57 7.207-7.57 4.302 0 7.123 3.267 7.123 7.513 0 .53-.028 1.035-.028 1.035zm.057-2.46h7.709c-.279-2.01-1.677-3.38-3.827-3.38s-3.547 1.397-3.882 3.38"/><path fill="#000" fill-rule="evenodd" d="M0 13.615v13.883s2.28-1.55 4.741-3.263v-7.303c0-3.752 1.14-4.962 4.229-7.236.97-.715 2.46-1.81 3.932-2.893V0S6.776 4.503 4.228 6.379C1.14 8.652 0 9.863 0 13.615M6.289 32V18.117c0-3.752 1.14-4.962 4.228-7.236 2.548-1.876 8.673-6.379 8.673-6.379v12.114q0 .522.006.997c.028 3.355.044 5.145-3.42 7.74C12.912 27.497 6.288 32 6.288 32" clip-rule="evenodd"/></svg>