<svg xmlns="http://www.w3.org/2000/svg" width="109" height="123" fill="none" viewBox="0 0 109 123"><g fill="#00a0df" clip-path="url(#a)"><path d="M.6.9h6.8v7H.6zM14 36.2h6.8v7H14zm0-21.7h6.8v7H14zm6.8-6.9h6.8v7h-6.8zm0 18.6h6.8v7h-6.8zm6.7-8.5h6.8v7h-6.8z"/><path fill-rule="evenodd" d="M.6 19.3h6.8v37.3H14V50h7v14.6h6.8V40.2h6.7v50.6s.9 20.8 20.3 32c-20 0-54.1-9-54.1-49.3z" clip-rule="evenodd"/><path fill-rule="evenodd" d="M37.9 96.7s3.6 17.6 22.7 26.1c17.6 0 51.2-14.1 47.9-53 .1 0-12.3 48.8-70.6 26.9" clip-rule="evenodd"/><path fill-rule="evenodd" d="M74 98.5s26.9-1.5 34.8-37.8v-59S75-2.2 75 22.8c0 20.5.3 58.3 0 71.2 0 1.7-.3 3.2-1 4.5" clip-rule="evenodd"/></g><defs><clipPath id="a"><path fill="#fff" d="M0 0h109v123H0z"/></clipPath></defs></svg>