<svg xmlns="http://www.w3.org/2000/svg" width="209" height="70" fill="none" viewBox="0 0 209 70"><path fill="#000" d="M108.669 25.446h8.521l-12.911 43.349H92.164l-12.91-43.35h8.531l10.47 36.12zm32.278 43.349h-6.509l-.581-2.152a17.4 17.4 0 0 1-9.436 2.797c-5.8 0-8.274-3.97-8.274-9.435 0-6.456 2.808-8.92 9.242-8.92h7.618v-3.292c0-3.519-.979-4.756-6.047-4.756-2.955.035-5.9.363-8.79.98l-.98-6.048a41.2 41.2 0 0 1 10.867-1.506c9.963 0 12.912 3.518 12.912 11.459zm-7.94-11.975h-5.853c-2.604 0-3.325.71-3.325 3.12 0 2.216.721 3.228 3.228 3.228a12.45 12.45 0 0 0 5.982-1.625zm20.389-19.722V59.22c0 1.7.72 2.54 2.539 2.54 1.818 0 5.379-1.173 8.263-2.669V37.098h7.951v31.697h-6.047l-.796-2.711a31.8 31.8 0 0 1-12.685 3.314c-5.272 0-7.166-3.712-7.166-9.372V37.098zm22.971 31.697V24.122l7.94-1.076v45.749zm31.632-.56a22 22 0 0 1-6.972 1.238c-5.789 0-8.715-2.733-8.715-8.392V43.414h-4.756v-6.316h4.756v-7.876l7.94-1.076v8.984h8.134l-.527 6.316h-7.607v16.559c0 1.689.775 2.797 2.862 2.797a15.4 15.4 0 0 0 3.97-.646zM0 .452 34.645 70 69.548.452zm38.734 13.987h4.034v4.003h-4.035zm-8.027 16.139h-3.992v-4.067h4.024zm0-6.047h-3.992v-4.067h4.024zm0-6.046h-3.992v-4.067h4.024zm6.047 18.15h-3.992v-4.077h4.024zm0-6.057h-3.992v-4.067h4.024zm0-6.047h-3.992v-4.067h4.024zm0-6.046h-3.992v-4.067h4.024zm1.98 1.98h4.034v4.023h-4.035zm0 10.07V26.51h4.023v4.024zm48.922-15.719v-6.08h-5.562v6.08h-2.84V.204h2.84v6.133h5.562V.204h2.851v14.612zm13.266 0h-2.26l-.204-.71a6.2 6.2 0 0 1-3.227.935c-2.002 0-2.862-1.323-2.862-3.141 0-2.152.968-2.97 3.228-2.97h2.636V7.854c0-1.162-.334-1.57-2.152-1.57-1.023.01-2.043.118-3.045.322l-.334-2.012a14.5 14.5 0 0 1 3.766-.505c3.443 0 4.465 1.172 4.465 3.82zm-2.754-3.981h-2.034c-.892 0-1.14.236-1.14 1.076 0 .839.247 1.076 1.076 1.076a4.5 4.5 0 0 0 2.077-.539zm8.511 4.206a13.6 13.6 0 0 1-3.788-.613l.388-2.012c1.052.287 2.137.44 3.227.452 1.216 0 1.399-.258 1.399-1.076 0-.817-.14-.979-1.915-1.388-2.69-.624-3.002-1.28-3.002-3.314s.968-3.055 4.099-3.055a14.4 14.4 0 0 1 3.293.376l-.269 2.098a20 20 0 0 0-3.024-.3c-1.194 0-1.398.257-1.398.903 0 .85.075.914 1.56 1.28 3.066.775 3.357 1.162 3.357 3.336s-.614 3.313-3.927 3.313m12.599-.225v-7.36c0-.56-.248-.839-.883-.839a7.8 7.8 0 0 0-2.861.882v7.317h-2.755V0l2.755.409v4.67a10.1 10.1 0 0 1 4.013-1.023c1.829 0 2.485 1.238 2.485 3.12v7.64zm5.057-12.03V.205h2.754v2.583zm0 12.03V4.27h2.754v10.545zm4.949-10.458c0-2.637 1.603-4.175 5.38-4.175 1.373 0 2.741.158 4.077.473l-.312 2.367a23 23 0 0 0-3.679-.365c-1.959 0-2.593.645-2.593 2.151v5.542c0 1.538.634 2.151 2.593 2.151a23 23 0 0 0 3.679-.366l.312 2.357a17.7 17.7 0 0 1-4.077.484c-3.745 0-5.38-1.539-5.38-4.185zm15.504 10.683c-3.766 0-4.777-2-4.777-4.163V8.22c0-2.152 1.011-4.164 4.777-4.164s4.766 1.99 4.766 4.164v2.658c0 2.162-1 4.163-4.766 4.163m0-8.725c-1.463 0-2.033.624-2.033 1.818v2.83c0 1.194.57 1.818 2.033 1.818s2.034-.624 2.034-1.818v-2.83c0-1.227-.571-1.818-2.034-1.818m12.524.172c-1.007.436-1.979.95-2.905 1.538v6.79h-2.701V4.27h2.324l.183 1.173a12.5 12.5 0 0 1 2.873-1.388zm10.996 4.82c0 2.346-1.076 3.733-3.626 3.733a15.7 15.7 0 0 1-2.926-.312v4.304l-2.755.41V4.27h2.152l.269.893a5.97 5.97 0 0 1 3.475-1.075c2.206 0 3.379 1.258 3.379 3.658zm-6.552 1.194c.799.171 1.613.265 2.431.28.99 0 1.377-.452 1.377-1.41V7.65c0-.86-.344-1.334-1.355-1.334a3.96 3.96 0 0 0-2.453.947z"/></svg>