<svg xmlns="http://www.w3.org/2000/svg" xml:space="preserve" width="400" height="70.305" viewBox="280 246.278 400 70.305"><path fill="#ffa300" d="m542.018 314.027 6.558-6.162-15.551-39.062-18.047 45.224h-11.05l29.097-67.738 29.078 67.738zm-181.786-65.191h36.385v9.028h-25.802v16.324h25.802v9.293h-25.802v21.065h25.802v9.482h-36.385zm66.291-2.558 41.402 39.849c2.65 2.562 4.927 5.198 7.117 7.938v-45.23h9.742v67.747l-42.21-40.571a52 52 0 0 1-6.29-7.298v45.314h-9.762zm156.049 2.558h36.368v9.028h-25.814v16.235h25.814v9.303h-25.814v30.625h-10.554zm61.256 0h10.586v65.191h-10.586zm-325.745 0 6.558 6.173-15.547 39.057-18.059-45.23H280l29.094 67.747 29.077-67.747z"/><g fill="#ffa300"><path d="M673.355 248.836c-3.57 0-6.7 2.746-6.7 6.48 0 3.789 3.13 6.59 6.7 6.59 3.624 0 6.645-2.801 6.645-6.59 0-3.735-3.021-6.48-6.645-6.48m0 11.971c-2.966 0-5.272-2.306-5.272-5.491 0-3.075 2.306-5.382 5.272-5.382 2.965 0 5.326 2.306 5.326 5.382.001 3.185-2.36 5.491-5.326 5.491"/><path d="M676.375 253.723c0-1.482-.878-2.142-2.636-2.142h-2.855v7.523h1.153v-3.24h1.263l.055.055 1.922 3.185h1.318l-2.142-3.295c1.099-.164 1.922-.768 1.922-2.086m-4.338 1.154v-2.306h1.537c.77 0 1.593.165 1.593 1.098 0 1.154-.824 1.208-1.812 1.208z"/></g></svg>