<svg xmlns="http://www.w3.org/2000/svg" width="720" height="204" fill="none" viewBox="0 0 720 204"><path fill="#7f7472" d="M295.09 42.08c-3.32-1.66-5.29-.84-6.9 2.72-7.02 15.5-14.25 30.9-21.53 46.28-1.62 3.42-3.47 6.85-6.88 8.92-6.54 3.97-14.07 2.16-18.52-4.84-4.79-7.54-7.85-15.97-11.57-24.06-5.18-11.26-10.4-22.5-15.43-33.82-2.74-6.17-.65-11.22 5.32-13.75 5.39-2.29 10.68.1 13.19 6.01 5.79 13.66 11.53 27.34 17.4 40.96.61 1.42.81 3.78 2.62 3.87 2 .1 1.87-2.26 2.54-3.68 5.95-12.52 9.7-26.07 17.23-37.81 7.63-11.9 24.34-13.79 35.07-4.32-.49 2.56-2.01 4.71-3.06 7.02-1.64 3.63-4.55 1.99-6.78.9-2.17 1.55.88 5.01-2.7 5.6"/><path fill="#7f7372" d="M416.1 30.03c-.14-3.31 1.51-4.85 3.88-5.62 2.52-.81 4.29.84 5.28 2.7 1.46 2.75 2.48 5.75 3.5 8.71 4.98 14.36 9.92 28.74 14.82 43.13.48 1.41.74 3.48 2.15 3.55 2.04.11 1.95-2.22 2.47-3.7 5.61-16.05 11.26-32.09 16.81-48.16 1.08-3.12 2.28-6.28 5.96-6.47 4.09-.22 5.43 3.3 6.52 6.42 5.49 15.74 10.82 31.54 16.36 47.27.48 1.36.16 3.8 2.41 3.85 2.42.05 2.35-2.3 2.93-3.94 5.65-16.22 11.35-32.43 16.93-48.67 1.22-3.55 3.16-5.45 7.01-4.12 3.89 1.35 3.47 4.3 2.39 7.3-7.61 21.12-15.2 42.24-22.93 63.31-1.03 2.82-3 5.35-6.4 5.48-3.47.13-4.7-2.66-5.65-5.36-5.85-16.5-11.65-33.02-17.42-49.55-.43-1.22-.25-2.88-1.98-3.01-2.04-.15-1.61 1.9-1.98 2.93-5.87 16.3-11.7 32.63-17.35 49.01-1.13 3.27-2.61 5.93-6.29 5.96-3.27.03-4.95-2.61-5.92-5.29-7.73-21.25-15.36-42.55-23.01-63.83-.28-.77-.41-1.59-.49-1.9"/><path fill="#7f7472" d="m320.59 44.24-.94 1.03c-1.98.01-1.39 4.11-3.78 2.73-1.88-1.08-1.68-3.68-.88-5.38 1.76-3.76.98-7.39.29-11.11 8.55-7.14 17.97-10.82 29.31-7.95 4.33 1.09 8.15 3.18 11.15 6.1 3.23 3.13 5.45 1.86 8.14-.16 4.28-3.21 8.78-5.91 14.37-5.95 1.02.44 1.68 1.17 1.88 2.28-2.12 5.25-2.13 5.27 3.77 7.09 1.84.57 3.19 1.69 4.13 3.3 1.58 2.7 2.94 5.57 3.95 8.48 1.04 3.01.62 5.93-3.63 6.21-2.02-7.72-6.57-10.72-14.75-9.71-6.28.78-9.81 5.24-9.86 12.74-.07 12.14.09 24.28-.08 36.42-.13 9.23-8.63 14.37-16.11 9.83-4.06-2.46-5.24-6.54-5.26-11.03-.06-11.97-.04-23.95-.14-35.92-.06-7.09-2.91-10.57-9.77-12.29-1.16-.16 1.32-2.38-.5-1.4-2.06 1.1-3.29.71-4.92-.36-4.7-3.1-5.8-2.52-6.09 3.08 0 .67-.06 1.34-.28 1.97"/><path fill="#7e7371" d="M593.45 74.24c0 6.82-.07 13.64.03 20.46.05 3.53-1.5 6.07-4.89 6.33-3.78.29-4.68-2.9-5.32-5.98-.34-1.63 1.19-4.08-1.05-4.74-1.91-.57-2.98 1.77-4.26 2.99-11.21 10.73-30.67 11.63-42.31 1.71-5.85-4.99-9.11-11.38-7.92-19.28 1.51-10.07 7.93-16.11 17.22-19.13 10.36-3.37 20.94-2.67 31.43-.47 6.92 1.45 7.39 1.16 6.77-5.93-.87-9.77-8.62-16.61-19.2-16.96-7-.23-13.95-.09-20.47 2.9-3.26 1.5-5.67.38-6.92-2.53-1.38-3.19 1.39-4.53 3.66-5.39 15.04-5.66 29.94-7.15 43.73 3.19 7.32 5.49 9.06 13.81 9.43 22.36.3 6.82.07 13.65.07 20.47"/><path fill="#7e7372" d="M663.38 65.99c-1.94.12-3.1.78-2.59 3.09 2.27 10.25 6.83 18.94 17.5 22.26 10.37 3.22 20.31 1.92 28.99-5.25.89-.73 1.98-1.23 2.8-2.02 2.33-2.27 3.79-.62 5.38 1 1.91 1.94 1.08 3.48-.49 5.12-16.71 17.45-44.19 14.43-57.1-3.7-11.97-16.82-8.17-40.73 4.87-53.14 14.4-13.7 37.95-12.11 48.69 3.56-1.08.76.3 3.17-2.3 3.05-2.93-.13-6.81 1.12-8.05-2.09-1.14-2.95-2.4-.9-3.59-1.09-1.02-.01-1.99-.27-2.89-.69-10.75-5.02-25.67.09-30.55 16.21-1.29 4.25-.74 5.02 3.66 5.15 3.98.12 7.96-.02 11.93.05 1.96.03 4.01-.22 5.72 1.14.41 2.03-1.11 2.06-2.38 2.18-1.78.17-3.58.02-5.14.07 2.05.08 4.38-.29 6.62.29 1.21.31 2.84.67 2.76 2.28-.08 1.48-1.65 1.26-2.72 1.48-.81.17-1.59.38-2.17 1.03h-10.98c-2.65-1.27-5.31-2.34-7.97.02"/><path fill="#807573" d="M315.29 31.51c4.2 2.63 2.38 6.56 1.49 9.73-.6 2.13-1.12 3.98-.63 6.06 2.26 1.14.17-5.04 3.52-2.02-1.72 4.38-2.05 8.92-1.98 13.61.16 10.48.15 20.96.02 31.44-.06 4.56-1.91 8.19-6.25 10.48-3.94 2.08-7.5 1.25-10.72-1.03-3.71-2.62-4.48-6.77-4.49-11.05-.03-13.64-.02-27.28-.06-40.92 0-1.96.38-4.02-1.08-5.72 1.15-.74.38-1.74.42-2.66.07-1.74-.9-3.9.89-5.07 2.03-1.33 2.51 1.15 3.74 1.96 2.8 1.86 3.99-1.16 3.84-2.54-.34-3.18 1.95-3.85 3.65-5.22 2.6.8 3.5 6.07 7.64 2.95"/><path fill="#7f7372" d="M608.15 62.64c0-10.32.03-20.64-.02-30.96-.02-3.84.93-7.57 5.27-7.54 4.4.02 5.06 3.84 5.17 7.64.08 2.9-1.37 7.53.77 8.32 2.83 1.04 3.55-3.77 5.55-5.74 5.21-5.13 11.11-8.76 18.34-10.14 3.18-.61 5.48.28 6.76 3.44 1.39 3.43-1.17 4.83-3.25 6.39-.75.56-1.83.8-2.8.95-16.52 2.55-24.52 16.26-25.22 31.1-.42 8.97-.13 17.97-.16 26.96-.01 1.48.04 2.92-.68 4.37-1.13 2.27-2.55 4.2-5.29 3.48-3.03-.79-4.56-3.02-4.55-6.3.05-10.65.02-21.31.02-31.96.03-.01.06-.01.09-.01"/><path fill="#7f7371" d="M379.42 25.92c-.38-.79-.77-1.58-1.15-2.38 13.58-4.27 30.9 7.26 31.34 21.45.47 15.3.21 30.63.06 45.95-.05 4.79-2.25 8.55-7.1 10.29-4.59 1.65-8.34.61-11.22-3.37 4.67-3.54 4.65-5.77-.05-10.11-1.05-.97-1.17-2.35-1.2-3.69-.1-4.81-.12-9.62 0-14.43.09-3.87 2-5.64 6.01-5.49 5.56.2 5.81-.18 5.9-5.83.05-3.15-.38-6.41 1.02-9.32 1.55-3.21-3.88-4.95-1.45-8.16-.09-.02-.25.2-.61.38-4.15 1.99-5.68-.72-6.94-3.9-.18-.46-.47-1.15-.85-1.17-6.92-.28-8.19-8.16-13.76-10.22"/><path fill="#010000" d="M345.3 180.21v16.87c0 1 .14 2.02-.04 2.99-.28 1.53-.39 3.55-2.51 3.5-2.26-.05-2.22-1.95-2.21-3.67.02-7.49.01-14.99.01-22.48 0-10.66-.04-21.31.05-31.97.01-1.32-1.13-3.61 1.91-3.5 2.56.09 2.88 1.69 2.8 3.73-.07 1.61-.01 3.22-.01 5.27 10.12-12.77 23.01-12.04 31.58-5.93 13.05 9.3 11.02 28.29 5.1 35.59-8.82 10.88-24.13 13.67-36.68-.4"/><path fill="#0f0e0e" d="M566.31 167.73c-5.16 0-10.33.13-15.48-.05-2.48-.08-2.89 1.15-2.5 3.02 3 14.41 18.78 17.79 28.62 11.12 2.1-1.43 4.65-4.97 6.62-2.63 2.45 2.91-1.88 4.75-3.73 6.32-8.56 7.28-26.23 5.39-33.43-6.12-7.58-12.12-3.47-30.53 8.83-36.42 12.42-5.96 26.63.59 29.96 13.87.31 1.24.53 2.5.87 3.75 1.43 5.27-.16 7.12-5.78 7.14-4.66.01-9.32 0-13.98 0"/><path fill="#010000" d="M476.37 167.68c-5.16 0-10.32.07-15.47-.03-2.21-.04-3.06.59-2.41 2.88 4.81 16.83 21.18 17.66 31.06 9.76 1.6-1.28 2.79-3.75 4.95-.71 2.03 2.86-1.14 3.64-2.24 4.45-10.8 8-22.38 8.35-32.32-.85-5.38-4.98-7.65-12.08-6.62-20.16 1.03-8.07 3.66-14.86 10.75-19.04 7.37-4.35 15.38-4.63 22.51.18 6.9 4.65 10.01 11.79 9.71 20.27-.11 3.1-2.39 3.15-4.44 3.2-5.17.13-10.33.05-15.48.05"/><path fill="#80caa2" d="M201.45.91c2.7.06 2.07 2.12 2.07 3.63-.01 13.12-.09 26.24-.15 39.36-.74.69-1.64.65-2.17-.03-4.38-5.55-10.19-9.6-15.11-14.58-.98-1-1.61-2.09-.88-3.52 2.1-1.47.29-3.21.34-4.93-.25 1.68.5 3.36-.59 4.82-.54 1.07-1.27 1.96-2.35 2.51-1.97.31-2.93-1.07-3.94-2.35-1.22-2.12-3.36-3.52-4.57-5.65-.16-.42-.24-.86-.26-1.3.02-1.47.21-2.98-.71-4.3-.59-.84-1.35-1.46-2.34-1.77-1.26-.48-2.58-.32-3.88-.45-1.24-.45-1.95-1.26-1.81-2.65.45-1.61 1.59-2.43 3.16-2.83.69-.18 1.8-.01 1.46-1.41-1.05-4.37 1.47-3.73 4.52-3.77 2.69-.04 5.6.39 8.25-.77h8.99c6-.21 7.32 3.11 8.01 8.58.71 5.67 1.56 11.25 1.28 16.97.24-8.52-1.08-17.09.68-25.56"/><path fill="#8cd3fd" d="M54.49.93C70.15.89 85.82.86 101.48.82c.13 10.4-1.27 20.81.27 31.21.33 2.25.38 4.6-.33 6.84-1.42 2.39-2.48.88-2.98-.52-.96-2.68-3.62-3.14-5.47-4.63-1.44-1.16-1.34.65-1.91 1.17-2.13 2.11-3.31 1.19-3.43-1.32-.2-4.16 1.83-6.92 6.32-7.98-4.92-4.34-8.74-9.16-13.52-13.07-1.76-1.44-2.71-2.4-3.96.24-1.03 2.17-2.87 2.09-4.66 1.21-1.35-.66-2.55-1.53-4.05-.44-2.85-1.04-6.18-1.21-7.21-5.07-.5-1.87-2.67-2.38-4.26-3.2-1.91-.97-2.97-2.16-1.8-4.33"/><path fill="#817472" d="M379.42 25.92c3.8.58 7.55 1.22 8.08 6.12.16 1.49 1.21 1.94 2.48 1.83 3.35-.28 5.5.29 5.92 4.47.31 3 2.13 3.08 4.29.54.47-.56 1.02-.86 1.71-.6s1.25.99.86 1.54c-1.98 2.78-.2 3.92 1.93 5.18.88.52 1.05 1.97.51 2.74-2.75 3.92-1.61 8.32-1.75 12.55-.18 5.21-1.17 6.55-6.2 5.43-5.25-1.17-6.04 1.07-5.87 5.4.2 5.29.05 10.59.05 15.76 2.78.95 1.3-2.53 3.51-2.26.48 3.22 1.07 6.54 1.45 9.89.47 4.19-2.69 3.21-5.02 3.35l-1.32-1.83c.52-1.76.16-3.2-1.51-4.16 0-.33-.01-.67-.01-1 1.65-2.25 1.17-4.92.77-7.23-.62-3.6.34-7.25-.76-10.77-.05-7.32-.09-14.64-.14-21.95 2.69-2.02 5.2-4.09 1.12-7.15-.83-.62-.34-1.5-.57-2.15-1.45-4.17-2.73-8.57-8.76-7.76-2.26.3-3.75-1.35-4.45-3.24-.89-2.42 1.37-2.4 2.78-3.07.44-.22.6-1.07.9-1.63"/><path fill="#010000" d="M405.28 148.51c7.5-10.1 24.93-10.6 32.17.26 1.81 2.71 2.84 6.11 2.83 9.61-.03 8.99.04 17.98-.06 26.97-.01 1.16 1.14 3.19-1.54 3.32-2.44.12-3.19-1.15-3.17-3.36.04-7.99.02-15.99.03-23.98.03-15-11.96-18.79-22.7-13.68-5.26 2.5-7.23 7.41-7.47 12.75-.35 7.81-.06 15.65-.1 23.47-.01 2.02.76 4.68-2.69 4.76-3.8.09-1.94-2.91-1.95-4.33-.14-19.31-.13-38.63.02-57.94.01-1.43-1.86-4.42 1.93-4.35 3.45.07 2.67 2.74 2.68 4.76.05 7.25.02 14.49.02 21.74"/><path fill="#807574" d="M682.33 65.99c.58-1.96 2.48-1.87 4.21-2.54-4.67-2.93-9.85-.58-15.42-2.29 5.05-2.65 10.08.16 14.22-2.14 1.63-1.93 3.9-1.47 5.98-1.52 3.79-.1 7.58.04 11.37-.05 4.83-.11 5.47-1 4.03-5.7-1.22-3.97-3.11-7.6-5.87-10.77-1.25-1.44-3.04-2.68-2.61-5.02.97-.85 1.94-1.7 3.75-3.27-1.89 3.86-.18 6.23 2.46 6.03 2.2-.17 5.18.65 6.98-1.79 6.4 6.78 7.88 15.37 8.52 24.11.22 3.07-1.84 5.2-5.33 5.18-10.76-.09-21.52-.16-32.29-.23"/><path fill="#9ba22a" d="M203.58 141.23c-.02.54-.03 1.08-.05 1.62-2.34.68-3.06-1.47-4.36-2.54-1.52-1.26-2.85-2.79-4.96-3.09-2.62.07-4.34-2.06-6.66-2.71-.59-.3-1.08-.73-1.49-1.24-.65-1.01-1.22-2.12-2.62-2.28-.83-.22-1.62-.51-2.16-1.23-.2-.39-.31-.81-.35-1.24.15-1.73-1.77-3.15-.76-5.02.4-.6.93-1.01 1.63-1.19 3.74.03 3.46 5.23 7.01 5.45.53.46.24-.69.01-.06-.09.24-.18.07-.48-.08-1.28-.62-1.62-1.62-1.19-2.86 1.61-4.67-1.32-5.5-4.85-5.63-1.65-.06-3.63-1.29-4.89.92-.43.56-.94.98-1.68 1.05-.42-.2-.75-.5-.96-.92.03-1.6-.71-2.12-2.22-1.58-1.35-.22-2.31-1.26-3.59-1.62-.44-.18-.84-.41-1.22-.69-.58-.55-.79-1.23-.78-2.01.64-1.67-.58-4.6 2.93-4.34 1.62 1.95 3.72 2.61 6.22 2.48 7.79-.43 15.65.88 23.39-.94 1.68-.4 2.89.4 3.85 1.71.33.49.53 1.02.59 1.61-.16 4.82.39 9.65-.3 14.46-.02 1.39-.03 2.77-.05 4.16.55 2.59.57 5.2-.01 7.81"/><path fill="#343333" d="M303.27 123.85c6-.47 11.78 1.24 17.03 4.95 1.74 1.23 4.22 2.25 2.63 4.84-1.71 2.79-3.91.63-5.5-.39-6.98-4.51-14.39-5.66-22.36-3.41-5.08 1.44-8 4.88-8.6 10.04-.6 5.21 2.79 8.07 6.82 10.34 4.73 2.67 10.17 3.03 15.23 4.62 7.33 2.31 14.83 4.51 16.9 13.46 1.94 8.43-2.65 16.51-10.93 19.53-12.57 4.59-23.5.83-33.8-6.38-1.67-1.17-1.91-3.11-.78-4.33 1.07-1.16 2.64-1.65 4.58.05 6.21 5.44 13.55 8.72 21.95 7.52 10.71-1.53 14.91-5.94 14.05-13.92-.37-3.4-1.74-5.56-4.75-7.34-6.87-4.05-14.86-4.2-22.1-6.91-9.06-3.4-13.7-10.49-12.18-19.25 1.17-6.73 10.01-13.38 17.88-13.44 1.17.01 2.34.02 3.93.02"/><path fill="#0f0e0e" d="M514.28 153.38c4.54-6 8.97-10.32 15.4-12.19 2.59-.75 4.75.14 5.26 2.18.5 2-1.52 2.97-3.74 3.41-11.36 2.23-16.27 10-16.86 21.62-.28 5.47-.08 10.97-.02 16.45.03 2.27-.36 4.04-3.18 3.84-2.9-.2-1.58-2.47-1.59-3.76q-.15-19.695 0-39.39c.01-1.27-1.29-3.58 1.76-3.61 2.5-.03 3.06 1.39 3 3.52-.09 2.32-.03 4.64-.03 7.93"/><path fill="#343334" d="M247.17 182.56c2.98-6.98 5.62-13.17 8.28-19.36 2.74-6.36 5.52-12.71 8.28-19.07.7-1.62 1.72-2.99 3.65-2.2 2.07.86 1.76 2.72 1.05 4.35-3.29 7.53-6.67 15.03-9.99 22.55-2.47 5.6-4.86 11.24-7.4 16.81-.79 1.73-1.6 4.09-3.84 3.96-1.94-.11-2.99-2.01-3.81-3.87-5.75-12.97-11.6-25.89-17.39-38.84-.74-1.65-1.48-3.92.31-4.84 2.4-1.23 3.8.72 4.73 2.89 4.43 10.37 8.92 20.72 13.37 31.07.81 1.88 1.59 3.77 2.76 6.55"/><path fill="#038f88" d="M88.49 87.93c-4.04-3.95-8.08-7.91-12.12-11.86-.49-.98-.07-1.79.46-2.59 1.38-1.49 2.51-3.24 4.24-4.39 1.37-.72 2.72-1.49 4.1-2.2 2.74-1.55 4.42-4.14 6.33-6.49.72-1.23 1.58-2.36 2.47-3.48 1.81-1.8 3.33-4.19 6.52-3.14 2.33 3.5 1.4 7.25.87 10.97-3.05 2.8-3.47-.45-4.68-2.09-1.51 5.93-6.41 8.54-11.02 11.43-.79.43-1.12-.41-1.68-.61.36 1.32 1.7.61 2.43 1.17 3.06 3.09 1.4 9.18 6.85 10.75q.54.48.57 1.2c-1.25 2.51-3.31 1.85-5.34 1.33"/><path fill="#82d5fc" d="M100.48 39.91c-.33-10.28-.71-20.56-.96-30.85-.07-2.87-.85-6.01 1.96-8.24 1.11-1 2.48-.81 3.79-.81 16.1-.01 32.21-.01 48.31.02.64 0 1.27.31 1.9.48-.05.52-.29.91-.76 1.16-.94.42-1.93.52-2.94.57-1.78.08-3.57.01-5.35.12-1.05.04-2.09.05-3.14.01-1.86-.07-3.73-.08-5.59.02-3.25.44-6.49-.12-9.74.04-2.83.02-5.66.09-8.49-.04-2.59.12-5.17.14-7.75 0-1.67.08-3.34-.09-5 .03-2.91.21-2.58 2.55-2.67 4.37-.19 3.9-.14 7.81-.13 11.73.04 9.37.06 18.74-.05 28.1-.04.86-.13 1.72-.45 2.53-.45 1.02-1.15 1.77-2.25 2.09-2.9-.35-4.08-2.99-6.06-4.57-.8-.82-1.62-1.64-2.31-2.57-.47-.83-.97-1.66-.14-2.56.63-.37 1.31-.46 2.02-.34 2.32 1.36 4.37 1.43 5.8-1.29"/><path fill="#58c3f3" d="M95.48 45.91c2.05 1.23 3.57 3 5.04 4.84-1.9 2.2-4.53 1.74-6.95 1.78-12.75.23-25.5-.3-38.25.11-1.57-.23-2.94-1-4.31-1.72-.78-.7-1.56-1.39-2.34-2.09.18-.67.51-1.23 1.17-1.54.43-.15.87-.23 1.32-.23a4.3 4.3 0 0 1 1.91.58c1.52 1.15 3.26.96 4.99.78 1.42-.24 1.6-1.52 2.17-2.5 2.1-3.65 2.99-3.85 6.07-.69 1.42 1.46 2.99 1.17 4.59 1.26 6.43.35 12.97-.9 19.25 1.62 1.85.75 3.58-.12 4.74-1.82.18-.14.39-.26.6-.38"/><path fill="#86d5fd" d="M54.49.93c.62 1.36.74 2.64 2.76 3.43 2.13.83 6.1 1.13 5.15 5.66-.12.59 3.31 1.92 5.09 2.91 4.45 3.69 7.52 8.82 13.59 10.94 2.4.84 3.9 5.03 1.72 8.46-2.81.23-3.98-2.17-5.76-3.59-2-2.11-4.04-4.19-6.17-6.16-1.59-1.55-3.64-2.58-5.04-4.36-1.85-1.97-3.71-3.92-5.83-5.61-3.33-3.12-6.32-6.6-9.87-9.49-.36-.3-.64-.67-.88-1.07-.09-.48.05-.89.42-1.22 1.6.02 3.21.06 4.82.1"/><path fill="#7dca9f" d="M201.45.91c.13.3.39.61.38.91-.2 9.83 1.16 19.73-.76 29.79-2.22-.96-2.5-2.23-2.06-3.83 2.22-8.12-1.31-15.85-1.66-23.8-.11-2.4-1.91-2.43-3.6-1.27-2.81 1.91-2.01-.59-2.28-1.8 3.32.01 6.65 0 9.98 0"/><path fill="#72a130" d="M189.29 185.87c-.31-.28-.62-.56-.92-.85-.05-2.01.3-3.98.57-5.96.07-.28.15-.56.25-.83.11-.27.3-.75.2-.8-.42-.22-.18.39-.44.47-1.12 1.9.19 4.4-1.58 6.1l-6.06-6.18c-.27-.84.24-1.2.9-1.48 1.61-.1 2.03-1.28 2.3-2.59.29-.91.75-1.71 1.42-2.39.75-.67 1.6-1.08 2.62-1.08 1.2.1 2.37.35 3.47.87 1.93 1.45 3.37 3.52 6.15 3.8 1.69.17 2.31 1.73 2.06 3.42-.19 1.3-1.03 1.97-2.29 2.27-4.49 1.06-4.48 1.07-2.14 5.27.34.61.22 1.28-.07 1.91-3.05 2.33-4.04-2.14-6.44-1.95"/><path fill="#84cda5" d="M182.47.92c-3.2.78-6.22 2.81-9.74 1.36-1.11-.46-1.95-.04-2.35 1.06-.89 2.44 2.45 1.82 2.59 3.87-2.16 1.63-5.97-.38-7.66 2.78-.91.37-1.64-.09-2.37-.52-.76-.66-1.87-1.11-1.52-2.45.24-.26.55-.48.56-.9-.05.3-.19.56-.45.82-.3.31-.63.5-1.04.57-1.47-.05-2.41-.95-3.29-1.95-.28-.34-.53-.71-.76-1.08-.46-.74-.96-1.47-1.33-2.27-.13-.44-.1-.86.1-1.27.11-.14.2-.29.28-.45 8.99.16 17.98.29 26.98.43"/><path fill="#1d522d" d="M204.01 54.65c.76 15.43.21 30.87.25 46.3q-.93-.045-1.44-.81c-.62-1.05-.71-2.22-.75-3.39-.1-12.07.01-24.13-.07-36.17-1.23-3.17-2.69.09-4.01-.11-1.87.24-3.61 2.11-5.64.47-.5-.73-.71-1.62-.23-2.31 1.87-2.71.02-3.03-2.01-3.3-2.29-.28-4.78.43-6.77-1.34-.2-.58-.08-1.08.35-1.52 2.91-1.6 6-.88 9.05-.73 3.22 1.15 6.55.74 9.86.62 1.38.19 1.3 1.3 1.41 2.29"/><path fill="#017d74" d="M102.13 101c-.32.03-.55-.1-.68-.39-2.16-3.86-1.23-8.08-1.4-12.18-.01-.88-.13-1.76-.05-2.65.1-1.47.06-2.95.06-4.43.3-5.08-.66-10.21.64-15.25.54-4.38.37-8.77.04-13.15.07-.93.72-1.49 1.34-2.06 2.71-1.63 5.75-1.22 8.7-1.36 1.66.02 3.33.01 4.96.41 1.95 1.38 6.47-.78 5.83 4.2-3.38 2-7.1.97-10.67 1.17-1.44-.12-2.85-.51-4.3-.5-.64.04-1.3.05-1.93.07-1.52.43-.81 1.66-.89 2.59.07.76.06 1.51.08 2.27.14 1.66.08 3.31.04 4.97-.01 9.7 0 19.39.01 29.08-.13 2.02.14 4.08-.56 6.05-.25.56-.66.94-1.22 1.16"/><path fill="#70a22c" d="M204.17 155.79c.05 12.99.09 25.98.14 38.97-.41.31-.85.35-1.32.15-.57-.36-.98-.86-1.4-1.37-1.65-1.99.23-5.85-4.62-6.53-2.75-.39-2.72-4.94-.02-5.6 5.26-1.27 4.06-4.58 3.44-7.98 2.51-5.2.55-10.96 2.03-16.3.38-.72.86-1.3 1.75-1.34"/><path fill="#22a072" d="M203.45 47.89c.05.93.1 1.86.16 2.79-1.08 1.5-2.62 1.42-4.19 1.24-3.91-1.1-7.91-.41-11.86-.61-1.97-.1-4 .25-5.81-.87-1.72-2.39-.01-3.12 1.85-3.67 2.05-.61 4.21-.06 6.27-.52.65-.29 1.27-.66 1.86-1.06 2.07-1.12 1.07-3.78 2.59-5.19 5.03.32 6.59 4.68 9.13 7.89"/><path fill="#7ecca7" d="M203.45 47.89c-3-2.66-5.99-5.33-8.99-7.99-.22-.04-.44-.08-.66-.11-.85-.35-1.53-.94-2.19-1.55-2.54-2.53-5.09-5.04-7.61-7.59-.77-.86-1.55-1.71-1.54-2.97.1-1.23.83-1.74 1.99-1.76.33-.35.67-.35 1 0 2.9 3.63 5.51 7.32 10.18 9.33 2.28.98 3.59 4.27 5.24 6.58.67.94 1.11 2.03 2.49 2.07q.06 1.995.09 3.99"/><path fill="#c7dd2d" d="M156.18 153.9c-1.32-.83-2.9-1.38-3.32-3.15.36-2.12.17-4.26.2-6.4.14-9.28-.38-18.55.27-27.82.45-1.45.9-2.89 2.2-3.85 2.44.55 2.58 2.73 2.18 4.29-1.42 5.43.46 10.74.17 16.1-.08 6.46.52 12.93.02 19.39-.16.53-.47.95-.94 1.25-.26.06-.52.12-.78.19"/><path fill="#1aa8dd" d="M40.17 40.07c-.31-.29-.62-.59-.92-.88q.075-.66.36-1.26c1.07-2.32-.29-4.26-.99-6.3-.39-1.88-1.29-3.71-.44-5.69.35-.38.78-.63 1.28-.74 1.98-.27 3.24 1.18 4.77 2.01 2.11 2.62 5.66 4.71 3.4 8.98-1.58 1.13-.89 3.75-2.98 4.56-1.63.61-3.02-.24-4.48-.68"/><path fill="#c7d72b" d="M204.12 149.85c-.04 1.3-.08 2.6-.11 3.9-.73.74-1.63.83-2.59.68-11.81-.38-23.62-.07-35.43-.2-2.13-.02-4.36.36-6.27-1.06.62-4.48 4.17-2.21 6.47-2.81q2.745.09 5.49 0c7.33-.31 14.67-.08 21.99.05 1.36-.46 4.7 1.58 3.17-2.53-.14-.71-.07-1.39.28-2.03.51-.54 1.15-.71 1.87-.64 1.76.49 2.89 1.93 4.33 2.92.44.49.71 1.06.8 1.72"/><path fill="#7db451" d="M131.3 129.02c-1.22-1.03-2.44-2.05-3.66-3.08-.04-1.16.73-1.9 1.41-2.69.72-.76 1.45-1.51 2.18-2.26 1.24-1.18 2.61-2.22 3.8-3.47.32-.31.66-.58 1.02-.84 3.11-1.85 4.9-5.08 7.64-7.32.75-.13 1.42.03 1.98.56 1.58 3.58-1.18 5.3-3.14 7.37-1.71 1.31-3.33 2.69-4.04 4.84-.5.75-2.83-.36-1.88 1.86-1.44.27-2.12 1.26-2.43 2.6-.78 1-1.48 2.12-2.88 2.43"/><path fill="#9ea949" d="M203.51 100.91c.25.02.5.04.76.04-.18 9.43 1.12 18.89-.63 28.29-.07-5.12-.15-10.23-.22-15.35-.78-.9-1.3-2.04-1.18-3.13.58-5.2-2.34-6.04-6.53-5.46-7.55-.02-15.09.01-22.63-.01-1.79-.01-3.63.2-5.23-.9-.55-.44-.7-.99-.47-1.65 1.79-1.62 4.02-1.24 6.14-1.27 9.41-.16 18.83.24 28.24-.23.29-.07.58-.13.88-.19.28-.06.57-.1.87-.14"/><path fill="#807573" d="M320.59 44.24c-1.28-2.43-1.98-5.13-.54-7.49 1.01-1.66 3.35-.65 5.1-.8.32-.03.82-.04.95.14 1.54 2.17 3.06 4.23 6.19 2.32.09-.06 2.12-.12 1.99 1.21-.05.51-1.21.9-1.86 1.34-4.32-.22-8.27.81-11.83 3.28"/><path fill="#23b0ea" d="M49.66.82c-.02.34-.04.68-.05 1.03.86 1.2 1.12 2.46.35 3.81-.37.46-.84.63-1.42.52-1.2-.72-1.49-2.2-2.57-3.02-7.46-1.57-15-.23-22.49-.71-3.42-.2-6.84-.06-10.25-.1-1.31 0-2.63-.03-3.95-.02-1.67-.02-3.31.33-4.97.5C2.89 3.01 2 1.42.55 1.68-.35.8-.12.24 1.08.24 16.82.22 32.57.22 48.31.24c.45 0 .9.38 1.35.58"/><path fill="#98bf08" d="M154.43 145.83c.07 1.83.28 3.7-1.57 4.92a.98.98 0 0 1-.47-.74c-.38-.77-.72-1.57-.96-2.4-.99-5.02.36-10.23-1.21-15.21-.31-2.24.32-4.38.75-6.54.48-3.52-1-6.78-1.37-10.2.09-.91.42-1.68 1.2-2.21 1.25-.46 2.38-.5 3.14.86.32 10.52-.59 21.03.49 31.52"/><path fill="#51a49f" d="M68.25 68c-4.75-4.54-9.9-8.67-13.93-13.93l.46-.52c2.53-.55 4.85 1.56 7.41.55 1.46-.03 2.88.28 4.15.93 1.61.83 1.62 1.81-.02 2.7-.7.49-2.18.09-2.14 1.28.04 1.26 1.49 1.39 2.43 1.88.41.18.78.41 1.12.68.63.64 1.05 1.41 1.46 2.2.41.8.79 1.6.95 2.5.06.71-.09 1.36-.6 1.9-.45.14-.89.09-1.29-.17"/><path fill="#0a7047" d="m199.36 50.77 4.25-.09c1.02 1.23.53 2.62.4 3.97-.27-.61-.54-1.22-.8-1.83-3.17-.06-6.35.4-9.51-.25-10.25-.45-20.43 1.48-30.68.77-2.14-.15-4.31.09-6.45-.21-.64-.12-1.22-.38-1.74-.76-.55-.52-.59-1.08-.14-1.68q.735-.66 1.68-.93c14.35-1.13 28.65.81 42.99 1.01"/><path fill="#2dabe3" d="m29.47 29.92-7.33-7.84c.82-1.41 2.44-1.37 3.67-2.04.89-.39 1.78-.74 2.78-.66.74.17 1.26.61 1.63 1.25.77 1.52.22 4.47 3.53 3.23 1.02 1.16 1.36 2.5 1.09 4.01-.58 1.14-1.41 2.03-2.56 2.6-1.04.32-1.97.1-2.81-.55"/><path fill="#9ba122" d="M199.52 145.83c-.66-.04-1.32-.09-1.98-.13-.37-.26-.64-.61-.79-1.04-.16-.65-.15-1.32-.09-1.98.32-2.32-2.19-3.09-2.73-4.95-.14-.72 0-1.36.54-1.89 4.26.74 5.92 4.84 9.08 7.01 1.28 2.24.89 4.62.59 7-.27-.34-.53-.69-.8-1.03-1.26-1.03-2.38-2.21-3.82-2.99"/><path fill="#269a94" d="M101.46 87.81c0 4.27-.01 8.53-.01 12.8-2.71-2.28-5.53-4.46-7.44-7.53 2.55-.14 2.68-3.07 4.55-3.98.9-.57 1.56-1.71 2.9-1.29"/><path fill="#1aa1e9" d="M26.49 20.93c-1.16 1.48-2.89.81-4.36 1.15-.59-.6-1.18-1.21-1.77-1.81-.21-1.08-1.05-1.81-1.58-2.71-.5-1.36-.44-2.66.47-3.85 1.53-1.02 3.01-.95 4.45.19.51.57.85 1.24 1.12 1.94.57 1.68 2.57 2.92 1.67 5.09"/><path fill="#96bc37" d="M152.44 147.84c-.02.72-.03 1.45-.05 2.17-4.43-3.64-8.42-7.73-12.13-12.1.41-.58 1-.72 1.67-.68.41.09.8.26 1.15.49.8.65 1.73 1.1 2.63 1.59.89.54 1.62 1.29 2.57 1.73 5.62-.32 2.68 4.59 4.16 6.8"/><path fill="#1aa8dd" d="M32.48 29.92c.05-1.29.72-1.97 2.02-2 3.27-1.11 3.35 1.24 3.64 3.35-.82 1.21-2.33 2.22.34 3.42 1.22.55 2.28 2.37 1.06 4.16l-.29.34c-2.52-1.77-5.09-3.5-6.83-6.14-.6-1.06-.2-2.09.06-3.13"/><path fill="#7f7371" d="M388.51 72.87c.67-.02 1.84-1.28 1.63-.73-1.98 5.36.61 10.54.29 15.78-.09 1.41-.15 2.71-1.93 2.95 0-6 .01-12 .01-18"/><path fill="#25a5e2" d="M40.17 40.07c1.78-.06 3.55-.11 5.33-.17 3.58-.91 2.95 2.09 3.62 3.89-.01 1.45-.4 2.72-1.75 3.51z"/><path fill="#1ea2e0" d="M13.44 13.98c-2.26-1.74-4.41-3.58-6.1-5.9.11-.18.23-.36.34-.54.88-.64 1.96-.69 2.96-.97 1.19-.33 2.12-1.44 3.5-1.18.43.13.8.36 1.12.67 1.88 2.9-.26 5.11-1.27 7.51-.18.14-.37.28-.55.41"/><path fill="#5da89e" d="m68.25 68 1.25-.12c4.52-2.58 5.58 1.58 7.6 3.89.36.68.45 1.43.52 2.19-.42.71-.83 1.41-1.25 2.12-2.71-2.7-5.42-5.39-8.12-8.08"/><path fill="#a4c031" d="M182.49 176.83c-.39.34-.79.67-1.18 1.01-4.01-2.91-7.44-6.46-10.88-9.99.17-.16.34-.33.51-.49 3.34-.65 5.1 1.7 7.03 3.71 1.6 1.93 4.07 2.82 5.69 4.72 0 .79-.15 1.4-1.17 1.04"/><path fill="#146a5d" d="M118.31 116.22c-1.15-.5-2.3-.99-2.88-2.22-.44-.65-.66-1.38-.86-2.13-.06-.8.12-1.54.56-2.22 1.18-1.17 2.58-1.7 4.25-1.42 1.5.54 2.72 1.31 2.59 3.18-.38 1.39-1.85 2.03-2.3 3.37-.3.61-.7 1.15-1.36 1.44"/><path fill="#a5bb2a" d="M170.43 167.85c-3.42-3.3-6.84-6.59-10.26-9.89.7-1.19 1.88-1.46 3.12-1.6 3.51 2.28 5.08 6.36 8.25 8.97.55 1.09.03 1.77-.88 2.31z"/><path fill="#079b97" d="M99.47 89.86c.88 1.21-2.95-.37-1.26 2.59 1.14 2-2.67.34-4.21.64l-.3.02-.21-.21c-.65-1.32-1.09-2.68-.82-4.17 1.68-2.76 4.39.24 6.33-1.11.96.57 1.24 1.3.47 2.24"/><path fill="#97bb36" d="M142.45 137.85c-.73.02-1.46.05-2.2.07-2.7-2.61-6.02-4.61-7.91-8.02.34-.38.76-.63 1.25-.75 4.25 1.58 7.8 3.88 8.86 8.7"/><path fill="#807574" d="M663.38 65.99c-.4-1.26-2.45-1.12-2.36-4.22 3.01 3.9 7.8-.14 10.33 4.22-2.65-.01-5.31-.01-7.97 0"/><path fill="#73a135" d="M189.29 185.87c2.67-1.3 3.75 2.43 6.16 1.94 1.72 1.06 3.3 2.17 1.19 4.29-.47.17-.89.08-1.25-.27-2.24-1.78-4.44-3.59-6.1-5.96"/><path fill="#3b665d" d="m129.62 123.98-1.98 1.95c-2.59-1.19-3.7-3.75-5.37-5.8.12-.45.39-.76.82-.95.9-.26 1.77-.17 2.59.3.37.26.71.55 1.02.88 1.02 1.18 2.36 2.08 2.92 3.62"/><path fill="#a0c32a" d="M202.44 153.8c.52-.01 1.04-.03 1.56-.05.06.68.12 1.36.17 2.03-.25.33-.51.65-.76.98-.52.84-1.03 1.68-2.09 1.94-.99.26-1.97.26-2.96-.03-.48-.17-.89-.44-1.23-.83-.34-.71-.34-1.42.02-2.12 1.49-1.38 3.47-1.43 5.29-1.92"/><path fill="#21a5d5" d="M19.5 17.91c.89.56.96 1.43.87 2.35-2.74-1.63-4.91-3.87-6.93-6.29l.21-.24c1.44-1.08 2.82-.92 4.18.16 1.04 1.15.76 2.83 1.67 4.02"/><path fill="#325f5a" d="M115.46 111.84c-.01.72-.02 1.44-.02 2.16-2.84-1.89-5.01-4.48-7.25-7 .2-.67.6-1.16 1.24-1.45.97-.19 1.74.24 2.46.81.51.43.94.94 1.32 1.49 1 1.18 1.28 2.78 2.25 3.99"/><path fill="#1b5352" d="M103.13 102.02c-.33-.34-.67-.68-1-1.02.17-.07.33-.18.45-.32 1.65-1.37-.24-3.99 1.85-5.21.45-.16.91-.2 1.38-.13.73.24 1.27.71 1.68 1.34 1.36 2.67-.01 4.3-2.15 5.64-.77.15-1.49-.05-2.21-.3"/><path fill="#709e20" d="M189.46 178.81c.22 2.17.7 4.39-1.1 6.21-.33-.34-.66-.67-.99-1.01.04-2.13-.88-4.42 1.08-6.21.91-.23 1.39-.04 1.01 1.01"/><path fill="#0e9393" d="M93.48 87.88c.01 1.67.01 3.34.02 5.01-1.67-1.65-3.34-3.31-5.01-4.96 1.66-.36 3.32-.71 4.98-1.07.26.22.35.45.27.67-.09.24-.18.35-.26.35"/><path fill="#29615a" d="M103.13 102.02c.8-.07 1.59-.13 2.39-.2.59-.54 1.25-.59 1.97-.32 1.37 1.13 2.08 2.57 1.99 4.37l-1.29 1.11c-1.98-1.35-3.64-3.03-5.06-4.96"/><path fill="#a1bc14" d="M163.46 156.83c-.82 1.2-2.14.91-3.3 1.13l-.84-.87c-.63-1.28-.16-2.32.71-3.28.79-.58 1.72-.43 2.62-.46 1.56.2 1.23 1.45 1.36 2.44-.02.43-.21.77-.55 1.04"/><path fill="#7ba148" d="M195.39 191.83c.37-.03.75-.05 1.12-.08 3.37-.84 4.26 1.27 4.68 3.94a2.17 2.17 0 0 1-.83 1.35c-1.67-1.73-3.32-3.47-4.97-5.21"/><path fill="#23b0ea" d="M47.37 47.29c.37-1.13.74-2.25 1.12-3.38-.73-1.25-.62-2.09 1.06-2.16.68.58.98 1.35 1.12 2.2.2 1.46-.12 2.79-1.09 3.94-.31.31-.61.62-.92.93q-.645-.75-1.29-1.53"/><path fill="#a5bb2a" d="M160.44 153.86c-.37 1.07-.74 2.15-1.11 3.22-1.68-.43-2.34-1.88-3.14-3.19q.255-.075.48-.24c1.29-.65 2.56-.81 3.77.21"/><path fill="#1fa5e0" d="M7.34 8.08c-1.78-.88-2.94-2.38-3.99-4 .13-.19.27-.37.4-.56 2.51-1.08 4-.32 4.42 2.41.07.7-.1 1.34-.56 1.9z"/><path fill="#8aa35f" d="M203.52 194.89c.26-.03.53-.07.79-.13.14 1.64.48 3.52-.9 4.6-.86.67-1.63-.64-2.15-1.48.33-.79.76-1.52 1.25-2.22.28-.34.62-.6 1.01-.77"/><path fill="#38acd3" d="M32.48 29.92c1.59 1.07.28 2.09-.06 3.12l-2.94-3.12z"/><path fill="#51a49f" d="M51 50.92c1.25.01 2.54-.2 3.53.86.58.68.55 1.37.02 2.06l-.24.23c-1.45-.69-2.91-1.36-3.31-3.15"/><path fill="#98a22f" d="M203.58 141.23v-7.83c1.21 2.61 1.3 5.22 0 7.83"/><path fill="#7f7371" d="M388.51 91.88c3.09.45 2.91 2.08 1.51 4.16-1.22-1.13-1.1-2.74-1.51-4.16"/><path fill="#70a22c" d="M203.41 195.79c-.04 1.39-.84 1.99-2.14 2.09-.31-.28-.61-.56-.92-.84.04-.42.08-.83.11-1.25.98-.8 1.97-.81 2.95 0"/><path fill="#91c01c" d="m133.49 129.77-1.14.12c-.35-.29-.7-.58-1.04-.87.72-1.06 1.44-2.11 2.17-3.16 1.17 1.29 1.02 2.6.01 3.91"/><path fill="#23605b" d="m122.27 120.14-3.26-3.14c.95-1.11 2.08-1.1 3.3-.54 1.05 1.02 1.06 2.11.2 3.25z"/><path fill="#2c6b67" d="M122.46 116.86c-1.15.04-2.3.09-3.45.13l-.69-.78c.05-.78.11-1.57.17-2.35 1.8-.5 2.72.92 3.91 1.77q.345.615.06 1.23"/><path fill="#1fa5e0" d="M.55 1.68c1.1-1.2 1.99 0 2.97.27.57.59.59 1.22.1 1.87l-.27.27c-.93-.81-1.87-1.61-2.8-2.41"/><path fill="#817472" d="M375.61 35.95c1.81 0 3.62-.03 5.43.01 1.29.03 2.26.52 2.21 2.03-.04 1.18-.75 1.84-1.86 1.85-3.95.05-7.9.04-11.86.02-1.12-.01-1.87-.58-1.95-1.77-.1-1.48.77-2.09 2.1-2.12 1.97-.04 3.95-.01 5.93-.02"/><path fill="#f8f8f8" d="M562.52 61.88c5.56.38 11.46 1.09 17.3 2.46 2.61.61 3.4 1.57 3.57 4.23.58 9.06-2.15 16.5-10.31 21.02-8.58 4.75-17.73 5.8-26.71 1.32-5.19-2.59-8.1-7.21-7.96-13.34.14-5.91 3.08-9.91 8.24-12.56 4.88-2.5 10.12-3 15.87-3.13m135.73-25.93c5.69 5.13 9.4 11.32 10.9 18.94.65 3.29-.3 4.05-3.41 4-6.79-.12-13.59.07-20.39.14-5.96-.06-11.93-.15-17.89-.17-6.93-.03-6.93-.01-5.06-6.75 3.34-12.01 13.66-19.98 25-19.36 3.89.2 7.28 1.97 10.85 3.2"/><path fill="#fff" d="M363.94 145.69c9.31-.18 17.75 8.2 17.65 19.66-.1 11.5-7.93 19.88-17.62 19.66-11.9-.27-18.61-7.92-18.72-21.67-.07-9.25 8.37-18 18.69-17.65"/><path fill="#f8f8f8" d="M564.46 162.92c-4.33 0-8.67-.24-12.97.08-3.34.25-3.59-1.49-3.2-3.86 1.98-11.88 17.24-17.77 26.63-10.17 1.56 1.26 2.6 3.29 3.56 5.13 3.82 7.32 2.93 8.82-5.04 8.82z"/><path fill="#ebebeb" d="M474.4 162.99c-4.49 0-8.98-.15-13.46.05-2.82.13-3.22-1.45-2.6-3.36 2.58-7.98 7.65-15.05 19.09-14.08 6.52.56 13.16 7.37 14.12 15.06.28 2.25-1 2.36-2.69 2.34-4.82-.04-9.64-.01-14.46-.01"/><path fill="#22a072" d="M182.47 27.68c.67.73 1.34 1.45 2.01 2.18 1.75 3.27 4.08 6.3 4.14 10.26-2.84.99-5.9 1-6.9 5.26-.71 3.01-8.51 2.57-12.03-.33-4.1-3.37-6.99-7.9-10.91-11.45-1.17-3.56-.87-7.15-.29-10.75.89-1.76 2.7-2.87 3.43-4.76 1.24-1.15 2.42-.71 3.37.34 1.16 1.29 2.66 1.75 4.24 2.15 2.26 2.19 1.32 3.69-1.08 4.82-.74.35-1.53.6-1.62 1.58-.03.35.16.68.5.76 1.17.29 1.89-.44 2.35-1.32 1.05-1.99 2.23-3.66 4.87-3.11 2.02.7 2.14 2.96 3.5 4.18.4-.81-1.01-2.62 1.31-2.5.86 1.1 1.67 2.26 3.11 2.69"/><path fill="#299f72" d="M174.46 23.92c-1.79.4-2.95 1.1-3.55 3.22-.4 1.41-1.95 3.17-4.2 2.55-1.28-.35-1.92-1.51-1.86-2.61.11-1.97.87-3.15 3.44-2.95 2.09.16 1.77-1.74 1.18-3.2-.59-.51-.72-1.18-.65-1.92.23-1.19.59-2.33 1.49-3.21 2.47-.36 3.51 1.11 4.08 3.18.02.32.04.65.07.97.85 1.32 1.22 2.64 0 3.97"/><path fill="#7fcbaa" d="M174.38 18.97c-1.32-.97-2.64-1.95-3.95-2.92-1.4-.23-2.47-.98-3.32-2.07-.26-.67-.25-1.31.27-1.87 1.28-1.99 2.7-.73 4.08-.18.72.61 1.11 1.55 2 2 3.18 1.16 1.55 3.19.92 5.04"/><path fill="#329e73" d="M174.46 23.92c0-1.33-.01-2.65-.01-3.98 1.99 1.34 3.83 2.82 4.9 5.04-1.48 1.45 1.25 4.6-2.24 5.23-.16-2.34-1.48-4.28-2.65-6.29"/><path fill="#87caa5" d="M185.46 25.92h-1c.17-2.53-.64-5.28 1.9-7.75.59 1.77-.4 3.63.97 4.95 4.31 4.18-.68 2.24-1.87 2.8"/><path fill="#339d73" d="M167.38 12.11c.11.56.21 1.13.32 1.69-2.33 2.17-3.87-.57-5.8-.93-.33-.28-.58-.63-.73-1.04.12-1.46 1.06-2.25 2.27-2.83.62.33 1.25.67 1.87 1 .68.7 1.37 1.41 2.07 2.11"/><path fill="#7cc3a1" d="M173.46 13.93c-2.13.8-1.69-.98-2-2 1.29.05 1.96.71 2 2"/><path fill="#8ad1fb" d="M82.46 31.92c-.61-3.21.76-6.5-4.74-8.17-4.22-1.27-8.72-5.41-10.24-10.82.7-.43 1.78-1.39 2.05-1.2 3.62 2.57 5.91 1.87 7.24-2.44.26-.84 1.85-1.64 2.39-.51 2.6 5.52 9.69 6.82 11.79 12.77.29.82 1.11 2.1 2.17 1.47 1.97-1.18 2.31-.25 2.33 1.4.02 1.64.32 3.1-2.42 3.17-2.8.07-5.22 4.63-4.29 7.28.07.19 1.13.04 1.74.04 4.01.8 5.37 3.12 4 6.99h-2c-.89.62-1.72.18-2.55-.16-1.02-.53-1.78-1.34-2.44-2.25-1.22-1.83-2.85-3.27-4.52-4.66-.51-.47-.88-1.03-1.02-1.72 0-.46.17-.86.51-1.19"/><path fill="#91d3fd" d="M94.48 41.91c.02-3.11-1.77-5.18-4-6.99.04-1.16-.04-2.35.16-3.48.22-1.22 1.73-1.84 2.07-.91 1.5 4.12 7.92 4.05 7.76 9.39-.11 1.3 1.38 2.97-.84 3.78-2.17.77-3.79-.17-5.15-1.79"/><path fill="#010000" d="M437.41 158.82c1.33.65 1.98 1.71 1.98 3.19 0 7.65.01 15.3-.01 22.96 0 .95.14 2.27-1.25 2.26-1.13 0-1.68-1.1-1.64-2.14.35-8.75-1.2-17.57.92-26.27m-12.9-16.51c-1.73 2.15-3.18 2.83-4.91 2.28-.81-.26-.46-1.15-.1-1.66 1.25-1.77 2.8-.96 5.01-.62m12.62 8.51c-.07.7-.38 1.35-1.1 1.37-.95.02-1.51-.69-1.29-1.58.12-.47.8-1.07 1.28-1.12.69-.07 1.02.64 1.11 1.33m.27 8.01c-1.31-1.04-1.34-2.49-.02-3.1 1.16-.54 2.74 0 .83 1.58-.58.47-.75.89-.81 1.52m-24.3-14.35c-.33 2.06-1.54 2.49-3.32 2.56.69-1.54 1.82-2.08 3.32-2.56"/><path fill="#ccd70d" d="M181.37 128.85c.48.79 1.24.98 2.09 1.01.32.3.51.68.56 1.12-.65 1.8 1.87 3.61 0 5.42-1.47 1.01-3.76-1.57-4.79 1-.77 1.93.35 3.48 1.52 4.92 1.07 1.32 1.97 2.69.93 4.47-3.4 2.52-7.04-.46-10.51.49-2.14.11-4.25.13-6.04-1.31-2.26-4.94-1-10.12-1.06-15.21.22-2.03 1.15-3.68 2.73-4.96 1.08-.86 3.81.88 3.5-2.21.6-.48 1.3-.68 2.05-.7 1.03.08 1.93.37 2.39 1.4.09 1.26-.76 2.11-1.45 3.18.93-.4 1.19-1.35 1.92-1.77 2.65-.13 3.92 2.46 6.16 3.15"/><path fill="#9ba42e" d="M202.46 113.86c-.88-.32-1.13-1.84-2.36-1.41-9.1 3.19-18.49.53-27.7 1.41-3.25.31-2.31-2.41-2.93-4 1.83-1.73 4.46-1.67 6.51-2.92 4.55-.95 9.15-.29 13.72-.49 2.11-.09 4.29.26 6.19-1.05 1.04-.46 2.1-.53 3.17-.15 1.7.96 1.77 3.08 3.09 4.31.56 1.4 1.35 2.78.31 4.3"/><path fill="#9da331" d="M176.46 119.85c.18-.79.42-2.27.52-2.26 3.62.34 7.53-.74 10.76 1.67 2.79 2.08 1.93 4.53-.03 6.75 1.86 1.27 4.32.72 5.4 2.95-5.82 1.32-8.41-3.02-11.67-6.11-2.04-.34-3.67-1.39-4.98-3"/><path fill="#9aa522" d="M175.46 107.86c-1.03 3.58-4 1.34-6 2-1.87 1.19-.16 3.76-1.93 4.99-.93-.18-1.34-.87-1.65-1.66-.39-1.44-1.7-2.37-2.09-3.82-.12-.7-.04-1.37.24-2.02 3.68-2.15 7.61-2.48 11.71-1.55.33.75.3 1.45-.28 2.06"/><path fill="#c7d02e" d="M174.43 124.87c-.4-.82-1.14-1-1.96-1.03-2.5-1.27-5.12-2.43-5-5.91.07-.79.4-1.47.98-2.02.32-.02.64-.04.96-.05 1.03.8 1.44 2.3 2.92 2.6.39.2.74.47 1.05.79.83.96 1.23 2.34 2.67 2.71.8.39 1.49.94 2.12 1.57.81 1.96 3.51 2.74 3.34 5.32h-.14c-3.41 1.9-3.94-1.99-5.93-2.95-.86.17-1.26-.11-1.01-1.03"/><path fill="#9ba539" d="M202.46 113.86c.14-1.45-.32-2.75-1-4-1.2-1.06-.39-3.13-1.99-3.99-1 0-2.01 0-3.01.01-4.2 1.69-8.46 1.25-12.73.33-.73-2.28 1.06-1.71 2.12-1.81 3.52-.31 7.1.52 10.59-.51 8.17.1 6.96-1.28 6.98 10q-.495-.03-.96-.03"/><path fill="#c6d229" d="M184.45 135.85c-.44-1.65-3.42-2.79-.98-5 1.94-.76 2.1 1.14 2.97 1.99.36.33.71.67 1.07 1 .96.86 2.58 1.23 2.27 3.04-.48.89-1.21 1.37-2.23 1.39-1.42-.31-2.64-.89-3.1-2.42"/><path fill="#9ea71e" d="m189.43 136.87-1.92-3.03c2.83-1.11 4.1 3.17 6.95 2v1.97c-.49.97-1.34 1.48-2.34 1.78-1.05.21-2.04.13-2.89-.61-.43-.74-.31-1.45.2-2.11"/><path fill="#c7d22e" d="M168.46 115.92v1.93c-1.39.82-2.24-.44-3.31-.85-.36-.19-.7-.42-1.03-.66-.81-.64-1.54-1.35-2.21-2.14-.53-.68-.94-1.41-.8-2.32.24-.62.67-1.08 1.26-1.38.41-.11.83-.11 1.25-.01 1.06.64 2.06 1.37 2.79 2.4.37.65.74 1.31 1.11 1.96.32.36.63.71.94 1.07"/><path fill="#9ba42e" d="M177.42 123.92c-.65-.39-1.29-.77-1.94-1.16-.57-.64-.64-1.27.02-1.9.32-.34.64-.67.96-1.01 2.05.35 3.94.99 5 3l-1 1c-.98 1.39-2.04-.57-3.04.07"/><path fill="#a2ac0e" d="M177.42 123.92c.91-4.76 2.07 1.69 3.04-.07-.39 1.82 3.57 2.73 1.04 5-1.07-1.88-3.49-2.65-4.08-4.93"/><path fill="#9a9d17" d="M172.53 119.83c-.05-.29-.09-.59-.12-.88q-.765-.6.06-1.11c1.71-.35 3.46-.76 2.98 2.06-1 .79-1.97.69-2.92-.07"/><path fill="#9fac0c" d="M186.44 132.83c-.99-.66-1.98-1.33-2.97-1.99-.01-.33-.01-.66-.01-.99 2.21-.23 3.2.78 2.98 2.98"/><path fill="#aeb60b" d="M172.53 119.83c.97.02 1.94.05 2.91.07q.015.48.06.96c-.01.63-.01 1.27-.02 1.9-1.36-.6-2.37-1.54-2.95-2.93"/><path fill="#a5ab0b" d="m172.46 117.84-.06 1.11c-1.84-.21-2.83-1.25-2.99-3.09 1.57-.19 2.02 1.35 3.05 1.98"/><path fill="#010000" d="M321.74 133.52c-4.02-1.18-7.18-3.96-11.13-4.82-5.8-1.26-11.54-1.53-17.15.3-4.81 1.57-7.45 5.18-8.05 10.33-.62 5.33 1.84 8.9 6.13 11.53 4.62 2.83 10 3.4 15.08 4.77 3.06.83 6 1.81 8.84 3.2 5.63 2.75 9.87 7.04 9.47 13.37-.45 7.05-4.67 12.18-11.58 14.75-11.89 4.41-21.98.23-31.55-6.51-.69-.49-1.42-1.16-.85-2.01.54-.79 1.49-.58 2.25-.13 2.84 1.7 5.5 3.81 8.52 5.08 8.13 3.44 16.32 3.82 24.43-.44 5.2-2.74 5.4-7.36 5.34-12.37-.06-4.19-1.97-6.67-5.57-8.58-7.14-3.79-15.32-3.99-22.68-7.03-8.86-3.65-13.23-12.3-9.47-19.8 2.72-5.42 7.29-8.76 13.04-9.86 8.83-1.69 17.14-.07 24.31 5.77.25.2.48.49.59.78.11.28.03.62.03 1.67m-55.17 9.5c1.57 1.99.46 3.45-.19 4.91-5.45 12.24-10.9 24.48-16.38 36.71-.59 1.33-1.06 2.92-2.94 3.01-1.54.08-1.86-1.31-2.3-2.27a6606 6606 0 0 1-18.08-40.31c-.22-.49.11-1.22.22-2.18 3.47 1.48 3.96 4.71 5.07 7.23 4.18 9.53 8.03 19.21 12.1 28.8.61 1.44.89 3.59 2.86 3.7 2.32.13 2.69-2.15 3.38-3.76 4.41-10.34 8.74-20.71 13.18-31.04.69-1.62 1.23-3.43 3.08-4.8"/><path fill="#4aaaa4" d="M54.55 53.84c-.01-.69-.01-1.37-.02-2.06 2-1.08 4.17-.84 6.31-.86l39.67-.18c.63-.39 1.27-.78 1.9-1.16.14.14.28.27.42.41.12.41.02.75-.31 1.02-.35.3-.69.61-1.04.91-.6.72-1.04 1.62-2.06 1.88-1.65 1.37-3.3 2.73-4.95 4.1-4.15.93-7.75-1.94-12.26-1.42 3.37-.72 3.3 1.3 3.37 3.22.27 3.39-4.39 1.88-4.69 4.72-1.63 1.62-3.58.62-5.4.67-.73-.09-1.42-.31-2.06-.66-.99-.7-1.83-1.54-2.43-2.6-1.28-6.65-2.17-7.3-9.51-6.93-2.8 2.83-4.57-1.06-6.94-1.06"/><path fill="#01958f" d="M99.47 89.86c-.03-.82-.23-1.56-1.04-1.97-1.25.33-1.58-.65-2.04-1.43-.42-.75-.34-1.93-1.38-2.1-.31-.05-.14 1.04-.39 1.56q-.585.45-1.14-.03c-3.38.04-6.78.19-5.22-5.01.46-1.55-.68-2.45-1.95-3.06-2.31-1.12-.4-1.99.16-2.94-.33-.33-.94-.39-.99-.99 1.03-1.81 1.11-3.81 4.48-4.12 2.49-.23 4.38-4.06 5.48-6.99.49-1.3.83-2.88 2.36-2.63 2.82.46-.24 1.94.27 2.76.67 1.08 1.6 2 2.41 2.99.14.23.29.46.43.7.15 4.58.02 9.16.07 13.74-.16 1.88-.72 3.8.49 5.56v1.92c-.67.67-1.33 1.35-2 2.04"/><path fill="#48aba5" d="M85.48 59.9c-1.15-.3-2.96.72-3.32-1.04-.26-1.23 1.62-.59 2.43-1.68-1.44-.19-2.71-.35-4.03-.52.62-1.59 10.71-.47 13.92 1.24-.68.98-1.37 1.95-2.05 2.93-.6 1.08-1.41 1.78-2.75 1.52-1.2-1.15-2.9-1.45-4.2-2.45"/><path fill="#47aba3" d="M75.48 63.9h5c3.04-1.5 3.98.96 5.28 2.77.16.47.04.87-.3 1.21-1.35.62-2.23 2.18-3.98 2.02-1.45-.81-3.1.36-4.55-.49-1.35-.8-1.79-2.14-2.11-3.54-.07-.76.12-1.42.66-1.97"/><path fill="#1f8e8a" d="m99.43 53.81 2.06-1.88c-.01 4.66-.03 9.32-.04 13.98-.33.45-.65.44-.96-.02l-.02.01c-.49-4.02 1.11-8.22-1.04-12.09"/><path fill="#199390" d="M85.46 67.88c.01-.33.01-.66-.01-1 .35-2.46 1.17-4.55 4.03-4.97.98-.36 1.97-.72 2.95-1.08-2.05 2.63-3.44 5.89-6.97 7.05"/><path fill="#249198" d="M97.46 85.9c.04.81.21 1.54.98 1.99-1.66 3.83-3.31.48-4.96-.01-.01-.34-.01-.68-.02-1.02l.03-.98c.33-.01.65-.01.98-.02 1-.84 2-.79 2.99.04"/><path fill="#51afac" d="M77.49 68.89c1.42-.03 3.18-1.38 4 1.01-1.38 1.26-2.01 3.24-3.87 4.05-.38-.35-.75-.71-1.13-1.07.76-1.22.02-2.82 1-3.99"/><path fill="#109390" d="m85.48 73.88.99.99c-2.23.1-4.48.21-2.6-3.15.55.74 1.08 1.45 1.61 2.16"/><path fill="#4cbff6" d="M111.46 1.06h8c2.02 2.64 1.25 6.37 3.5 8.92.53 2.61-1.18 4.07-3.03 5.12-4.91 2.79-8.03 6.53-7.53 12.51-1.01 1.92-2.07 1.79-3.24.04-.19-.07-.06.07.05.53.56 2.37 1.44 6.02-1.19 6.31-2.65.29-2.57-3.89-3.63-6.16-.29-1.06-.33-2.14-.34-3.23-.03-4.39-.04-8.78-.05-13.17 0-2.07-.19-4.34 2.27-5.42 3.92 1.44 2.31 4.41 1.92 7.03-.1.66.01-.18-.09.48.27-.16.27-.5.51-.7 2.02-1.37 1.29-3.47 1.44-5.33.22-2.36-.47-4.9 1.41-6.93"/><path fill="#51c5fc" d="M128.51 1.08c2.99-.01 5.99-.02 8.98-.04 1.99.64 3.98.65 5.97-.01 1.01.01 2.03.03 3.04.04 2.04.58 3.81 2.27 1.55 3.56-4.54 2.6-6.99 7.47-11.64 9.79-2.19-.5-2.63-2.34-3.08-4.12-.38-1.48-.68-2.96-2.54-3.27-2.48-1.32-3.2-3.32-2.28-5.95"/><path fill="#4ec2fa" d="M128.51 1.08c1.47 1.33-.05 4.48 2.96 4.86-.22 5.06-3.51 6.52-9 4-4.52-1.77-2.47-5.76-3.01-8.88 3.02.01 6.03.01 9.05.02"/><path fill="#4ab6ec" d="M107.47 6.94c-2.39.36-1.97 2.22-1.98 3.8-.03 5.06-.01 10.12-.02 15.18-3.32-.9-1.39-3.67-2.02-5.53-.28-.82 1.36-2.47-.97-2.46-.02-4.41.11-8.82-.1-13.22-.15-3.18 1.24-4.1 4.1-3.62.33.33.61.7.83 1.11.4 1.56 1.01 3.13.16 4.74"/><path fill="#51b9ed" d="M102.48 17.93c.47-.64.93-1.28 1.51-2.09 1.52 3.26-.85 7.05 1.48 10.08 0 1 .01 2 .01 3.01 1.98 5.22-.91 10.26-.56 15.42-.36 1.49-.02 3.46-2.43 3.55 0-10-.01-19.99-.01-29.97"/><path fill="#5dc8f5" d="M136.46 13.93c2.96-3.24 5.32-7.03 9.7-8.83 1.84-.76 2.59-2.48.33-4.02 2.04.03 4.07.05 6.11.08.19.39.22.8.06 1.21-.29.58-.68 1.08-1.11 1.55-.87.93-1.76 1.85-2.64 2.78-2.13 2.17-4.4 4.16-6.85 5.95-1.94.71-2.81 2.47-3.89 4.03-.33.34-.72.53-1.19.61q-.72-.15-1.08-.78c-.32-.98-.25-1.86.56-2.58"/><path fill="#46bff6" d="M106.48 1.95c0-.29 0-.58.01-.87 1.66-.01 3.32-.01 4.98-.02 0 3.6-.15 7.22.06 10.81.16 2.75-1.36 2.38-3.05 2.06-1.3-3.89.56-8.3-2-11.98"/><path fill="#48c4e8" d="M102.49 47.89c1.42-1.06.85-2.61.99-3.98 3.6-1.45 5.65-4.94 8.94-6.81.96-.24 1.88-.19 2.77.26.4.28.66.66.79 1.12.03.46-.06.91-.26 1.33-1.56 1.47-3.63 2.37-4.78 4.31-.3.33-.63.61-.98.88-1.85 1.24-3.25 2.98-4.94 4.41-.76.56-1.57.96-2.54.59l-.07-.41c.03-.57.06-1.14.08-1.7"/><path fill="#58c3f3" d="M90.45 40.98c.68.31 1.35.62 2.03.93.34.66.67 1.33 1.01 1.99-.18.18-.37.35-.55.53-1.93.62-3.59.68-3.98-1.91.15-.84.74-1.27 1.49-1.54"/><path fill="#5dc8f5" d="M143.45 1.04c-1.99 1.37-3.98 1.36-5.97.01 2-.01 3.98-.01 5.97-.01"/><path fill="#26a08a" d="M152.53 2.12c.01-.32.04-.64.07-.97.87-.07 1.74-.13 2.61-.2.2.24.36.51.46.81-.12.69-.21 1.38-.64 1.97-.34.35-.75.52-1.24.5-.96-.38-1.61-.95-1.26-2.11"/><path fill="#58c3f3" d="M93.48 43.91c.96.37 1.6 1.06 2 2l-.02.02c-1.35.92-2.92 1.49-3.81-.26-.68-1.36 1.29-1.02 1.8-1.74z"/><path fill="#53c3f7" d="M93.45 43.93c-.35.5-1.1 1.28-.98 1.46.75 1.1 1.99.27 2.99.54.61 5.15-3.54 4.78-5.78 3.74-6.87-3.19-13.97-.94-20.86-1.86-1.52-.2-5.89 2.39-4.03-2.96.25-.73-.85-.83-1.49-.79-1.2.08-1.82.88-1.73 1.98.25 3.05-1.12 4.27-4.08 3.85-.96-2.43-3.52-.83-4.98-1.98-.67 0-1.34-.01-2.01-.01-1.09-1.86.21-2.99 1.28-4.19.35-.28.73-.51 1.13-.71 1.01-.41 1.83-1.13 2.73-1.73.37-.23.77-.41 1.17-.58 1.47-.68 3.03-1.2 4.21-2.52-1.06-1.54-2.7-.6-4-.99-3.37-.52-4.71-2.79-4.81-5.86-.13-4.07-.44-8.16.25-12.22 1.03-2.33 3.39-2.94 4.68-1.38 1.95 2.35 4.43 1.44 6.57 2.21 1.16.42 1.01-2.63 2.81-1.34.93.75 1.68 1.64 2.13 2.76.83 3.6 2.66 6.33 6.23 7.85 2.15.92 3.75 2.72 5.33 4.43.73.86 1.76 1.27 2.73 1.76 1.37 1.13 3.47 1.39 4.08 3.43-.03.73-.36 1.33-.84 1.85-.8.82-1.86 2.07-.69 2.79 1.42.87 1.08-1.51 2.08-1.88.71-.28 1.37-.26 1.93.34.31 2.61 2.38 1.81 3.95 2.01"/><path fill="#63c1fb" d="M52.49 47.91c2.27-.88 5.51-4.17 4.98 1.98-1.76-.4-4.32 1.19-4.98-1.98"/><path fill="#4ec3f8" d="M52.49 43.91c-.57 1.38-2.12 2.26-2 3.99h-.9c.01-1.35.01-2.7.02-4.05.46-.81.97-1.54 2.07-1.4.66.26 1.18.61.81 1.46M49.44 5.96c.06-1.37.11-2.74.17-4.11.3.05.59.09.89.12 1.43 2.37 3.66 4.27 4.09 7.22-1.4 9.23-2.53 18.45-.94 27.79.22 1.3-.29 2.62-1.82 3.12-1.08-.52-.74-1.53-.82-2.39 0-7.89-.01-15.77-.01-23.66-.02 7.67-.01 15.35-.01 23.02-.16 1.08.47 2.44-1.05 3.04-.97-.3-1.3-1.1-1.55-1.96-.19-.86-.1-1.72.05-2.57.3-2.56-.4-5.06-.42-7.6-.1-.87-.09-1.74.02-2.6.07-4.44.09-8.89-.03-13.33.09-2.13-.15-4.33 1.43-6.09"/><path fill="#54c3f0" d="M79.48 34.92c-1.16-2.28-3.24-3.91-5.37-4.71-4.06-1.52-5.63-4.56-6.63-8.29 1.68-1.28 2.55.25 3.63 1.04 2.03 1.77 3.89 3.75 6.37 4.95 1.66 1.34 3.31 2.67 4.96 4.01-.02.33-.03.67-.05 1-.79.92-1.02 2.66-2.91 2"/><path fill="#55c1f0" d="M53.49 7.94c-1.65-1.66-2.57-3.69-2.99-5.97 3.77 2.87 7.03 6.25 10.01 9.92.44 1.55 3.35 1.78 2.21 4.16-4.88 1.76-5.47-2.85-7.63-5.13-.59-.96-.62-2.22-1.6-2.98"/><path fill="#59bfeb" d="M77.49 27.91c-3.23.25-4.95-2.18-7.01-3.99-.69-1.17-.7-1.99.98-1.99 2.4 1.61 4.41 3.6 6.03 5.98"/><path fill="#59c1ee" d="M62.49 15.93c-.66-1.34-1.32-2.69-1.98-4.04 2.65 1.36 4.68 3.34 6.03 6-.19.15-.37.3-.56.46-1.95.32-3.42-.06-3.49-2.42"/><path fill="#59c1ee" d="M71.46 21.94c-.78.44-.96 1.17-.98 1.99-1.03-.62-1.46-2.13-3-2-.34-1-.67-2-1.01-3-.35-.22-.47-.43-.36-.65.12-.22.23-.33.35-.33l.06-.05c1.62 1.38 3.88 1.98 4.94 4.04"/><path fill="#6ea123" d="M203.41 195.79c-.98 0-1.97 0-2.95.01-.57-2.08-1.93-3.39-3.96-4.05 1.23-1.74-1.37-2.45-1.05-3.94-.43-2.49-4.25-3.82-2.38-7.18.28-.5-1.77-1.39-.54-2.4.84-.69 1.94-.34 2.72.4 1.08 1.02 2.25 1.57 3.51.53.4-.33.59-1.23.48-1.8-.36-1.82-1.96-1.6-3.22-1.52-2.96.19-2.85-2.93-4.58-4.03-1.45-.85-1.54-2.04-.89-3.43.37-.83.89-1.56 1.47-2.24 1.81-1.67 2.8-4.16 5.16-5.31.9-.32 1.81-.66 2.63.17 1.05 2.16-.42 3.51-1.57 4.97-1.14 1.15-1.1 2.42-.35 3.75.15.49.21.99.06 1.42.03-.06.02.21.02.21s.4-.07.45-.07c1.7.07 2.03 1.69 3.02 2.54 1.7 3.95 2.35 6.82-3.48 8.27-4.62 1.15.28 3.38-.16 5.35 2.38-.51 1.03-4.12 3.48-3.22 2.12.78.88 2.73.42 4.23-.77 2.53.93 4.37 1.82 6.44-.01.3-.05.6-.11.9"/><path fill="#a0c636" d="M188.45 170.82c-.65.34-1.31.67-1.96 1.01-.68.54-1.39.63-2.15.16q-.45-.675-.39-1.5c1.33-2.47 2.7-4.84 5.91-2.15.23 1.23-.28 2.03-1.41 2.48"/><path fill="#a4c031" d="M184.48 171.82c.67 0 1.34.01 2 .01-.34.64-.69 1.28-1.03 1.92-.55.71-.95 1.66-2.15 1.3-1.28-.76-3.51-1.23-2.64-3.17.71-1.55 2.5-.69 3.82-.06"/><path fill="#78a318" d="M183.48 174.8c.66-.35 1.32-.69 1.97-1.04-.34 1.65 1.09 4.99-2.96 3.08l.85-1c-.27-.4-.21-.74.14-1.04"/><path fill="#6ea123" d="m189.46 178.81-1.01-1.01c.12-1.58.79-2.77 2.67-3.42-.17 1.76-.43 3.25-1.66 4.43"/><path fill="#74a011" d="M188.45 170.82c.34-.66.68-1.32 1.02-1.99.64-.63 1.3-.63 1.98-.05-.55 1.01-.63 2.02-.01 3.03-1.1-.01-2.26.15-2.99-.99"/><path fill="#1c9a72" d="M163.44 9c.15 1.51-1.36 1.91-1.96 2.92-1.73 1.76-2.47 4.95-5.98 4.15-2.33-5.34-.87-8.01 4.95-9.11l1.09-.18.1.09c.59.7 1.19 1.42 1.8 2.13"/><path fill="#009963" d="M160.44 6.96c-3.22 2.16-7.04 4.05-3.97 8.98.6.64.78 1.4.72 2.25-.86 1.63.43 4.71-3.07 4.56-1.14-1.43-.97-3.15-1.05-4.81-.02-3.03-.28-6.07.33-9.07.2-.79.53-1.53.98-2.21.8-1.13 1.81-1.91 3.26-1.97.92.75 1.86 1.51 2.8 2.27"/><path fill="#009066" d="m157.62 4.69-2.13 2.19c-2.49-.24-1.68-1.62-1.03-2.95l.06-.01c.97-.81 1.92-.71 2.87.05.14.21.21.46.23.72"/><path fill="#1c9a72" d="M157.39 3.96c-.96-.02-1.91-.03-2.87-.05-.03-.94.27-1.7 1.15-2.15.87.5 1.55 1.15 1.72 2.2"/><path fill="#86dab4" d="M161.53 6.78c-.08-.75-.15-1.5-.23-2.26.37.15.89.2 1.07.47.57.88.89 1.8-.74 1.87-.01 0-.1-.08-.1-.08"/><path fill="#003606" d="M203.22 97.88c.09 1.01.19 2.02.28 3.03l-.03.02c-2.75 1.68-5.79.84-8.7.9-6.42.12-12.85.08-19.26.01-2.93-.65-5.95-.37-8.9-.84-1.17-.19-2.4-.69-2.43-2.09-.03-1.41 1.29-1.67 2.35-2.19 2.45-1.2 5.66 1.31 7.69-1.64.01-1.97-.44-4.42 1.32-5.51 4.16-2.58 3.88-5.77 2.11-9.47 2.32-4.89 5.78-8.62 10.87-10.71 4.3 3.27.14 5.61-1.08 8.84 2.44-1.06 4.68-1.45 5.62 2.19 1.44-3.98 1.6-7.16-.19-10.18-1.03-1.73-.94-3.45-.45-5.26.8-2.57 3.02-3.72 5.07-5.03 2.06-.34 2.76-4.71 5.86-1.97-.87 5.93-.33 11.89-.36 17.83-.03 6.79-.16 13.57-.62 20.33-.09.4-.19.82-.44 1.17-.07.1-.34.17-.33.22.08.4.2.4.34-.02.54-.2.97-.11 1.28.37"/><path fill="#1f502e" d="M183.45 53.9c2.67 0 5.34.01 8.01.01.33.57.23 1.06-.3 1.45-5.36.79-10.74 1.02-15.5 1.03 4.71.52 10.06-1.08 15.42-.33 1.06.48 2.02 1 .84 2.29-3.13 1.61-6.51.86-9.78.87-3.3.01-6.17.9-8.85 2.74-1.44.99-2.9 1.59-1.15 3.71 1.29 1.56.1 3.2-1.02 4.42-2.51 2.73-4.32 5.83-5.68 9.27-1.09 2.77-3.04 4.7-6.07 5.35-.79.03-1.51-.15-2.14-.63-1.42-2.81-1.97-5.61.55-8.11 1.07-1.07.42-2.2.27-3.19-.81-5.31 1.27-9.58 4.3-13.68 1.07-1.45 2.32-1.79 2.73-1.75-2.12.23-5.4 1.53-8.66-.17-.82-.9-.88-1.91-.46-3 .68-1.11 1.78-1.19 2.91-1.18.55.03 1.09.13 1.61.28 5.15.29 10.3.59 15.43-.31 2.54.16 5.2-.76 7.54.93"/><path fill="#00360a" d="M203.22 97.88c-.59 0-1.18-.01-1.77-.01 1.34-12.37.95-24.78 1-37.18 0-1.01.05-2 .88-2.73-.03 13.3-.07 26.61-.11 39.92"/><path fill="#014a20" d="m159.49 53.87-3.02.03c-.88-.39-1.54-.87-.96-1.97 12.97.01 25.95.01 38.92.02.21.87.08 1.39-.98.96h-9.97c-7.97 1.09-15.98 1.05-23.99.96"/><path fill="#04532b" d="M159.49 53.87c4.4-2.06 9.06-.61 13.58-.93 3.45-.24 6.93-.04 10.4-.04-.01.33-.02.66-.02.99-2.67 0-5.33.01-8 .01-5.33.78-10.66.8-15.99-.01z"/><path fill="#005425" d="M193.44 52.91c.33-.32.66-.64.98-.96 2.92.38 6.02-1.08 8.78.87-3.23 1.53-6.49 1.81-9.76.09"/><path fill="#275533" d="M197.48 59.93c-1.35 1.63-2.7 3.26-4.05 4.9-.31.38-.71.56-1.2.53-2.23-1.17-1.31-2.63-.37-4.08.2-.13.4-.25.6-.38 1.97 1.19 2.93-2.8 5.02-.97m-6.02-2.03c.13-.24.28-.47.36-.72.02-.05-.24-.18-.36-.28-.59-.66-.6-1.33 0-2 0-.33 0-.66.01-.99 5.28 1.62.96 4.61 1 6.98-2.27-.35-1.75-1.64-1.01-2.99"/><path fill="#007b76" d="M121.47 53.9c-.69-3.72-4.54-.75-6-2.84.83-1.19 2.09-1.39 3.39-1.51 6.29-.14 12.58-.06 18.88-.05 1.97.01 4.01-.22 5.75 1.08.9 1.2.9 2.42.04 3.64-7.38 1.59-14.74 2.19-22.06-.32"/><path fill="#0a4f48" d="M102.49 63.89c0-1.66.01-3.32.01-4.98 1.54-1.21 3.57-.58 5.22-1.39.52.04.95.24 1.31.61.32.43.54.89.7 1.39.79 2.95 1.7 5.93-1.72 7.98-2.26 4.88-.55 10.04-1.11 15.03-.26 2.3 1 5.78-3.46 5.55.01-6.34.08-12.69.02-19.03-.01-1.76.37-3.63-.97-5.16"/><path fill="#055554" d="M102.49 63.89c1.06.2 1.94.68 1.9 1.88-.24 7.37 1.03 14.81-.91 22.11 2.27 2.26 3.75 4.73 1.99 7.99-.33 0-.66 0-.98.01-1.13.62-1.44-.4-1.97-.98z"/><path fill="#007966" d="M121.47 53.9h22c2.33-1.41 4.58-2.31 6.15.98-1.71 1.74-3.91 1.49-6.05 1.47-5.61.09-11.24.19-16.84.01-4.89-.15-9.49 1.02-14.15 2.02-.86.19-1.68.12-2.46-.32-.47-.3-.85-.7-1.15-1.17-.45-1.1-.29-2.1.5-3 4 .02 8 .01 12 .01"/><path fill="#21a9ab" d="M118.49 50.85c-1 .07-2.01.13-3.01.2-1.67-.06-3.35-.11-5.02-.17-.66-.44-1.39-.79-1.76-1.57-.74-1.92-.39-3.68.79-5.31.31-.07.63-.11.95-.13 1.53.42 1.87 1.71 2.21 2.99.19 1.08.79 1.71 1.95 1.75 1.33.13 2.7.1 3.83.98.31.4.33.83.06 1.26"/><path fill="#124c4d" d="M107.49 57.84c-.89 3.98-3.34.65-4.99 1.07-.01-.67-.03-1.34-.04-2.01.71-1.12 1.58-1.98 3.07-1.75 1.3.42 2.36 1.03 1.96 2.69"/><path fill="#17948b" d="M100.49 65.89c.32 0 .64.01.96.02 0 5.32.01 10.63.01 15.95-.34.36-.68.35-1.01-.01.01-5.32.03-10.64.04-15.96"/><path fill="#29a1a1" d="M109.44 49.88c.34.33.67.67 1.01 1-2.64.04-5.28.09-7.92.13-.01-.34-.03-.68-.04-1.02.67-.34 1.34-.68 2.01-1.01 1.77-.39 3.5-.5 4.94.9"/><path fill="#02524b" d="M102.52 94.9c.66.33 1.32.65 1.97.98-.86 1.51 1.4 4.26-1.91 4.8z"/><path fill="#256e66" d="M107.49 57.84c-.64-.67-1.27-1.34-1.91-2-.68-.46-1.67-.75-1.11-1.93.67 0 1.33-.01 2-.01 1.79.21 2.42 1.58 3.01 2.99h.01c.29.95-.1 1.22-.99 1-.34-.02-.67-.03-1.01-.05"/><path fill="#055554" d="M104.47 53.91c.37.64.74 1.29 1.1 1.93-1.04.35-2.08.71-3.12 1.06.67-1.01-1.72-4.06 2.02-2.99"/><path fill="#167666" d="M109.49 56.89c-1-1-2.01-1.99-3.01-2.99 1-1.11 1.99.3 2.99.01 0 .99.01 1.99.02 2.98"/><path fill="#28938d" d="M100.45 81.85c.34 0 .67.01 1.01.01v4.03c-.97-1.19-2.63-2.2-1.01-4.04"/><path fill="#6ca125" d="M201.45 173.82c-1.33-.67-2.67-1.33-4-2v-1.99c.29-1.34.3-2.68 0-4.03.11-1.88 2.63-2.8 1.99-4.99-.78-1.95 1.15-2.09 1.98-2.98.66-.36 1.32-.71 1.99-1.07-.83 5.67 1.18 11.66-1.96 17.06"/><path fill="#1fa274" d="M159.47 33.92c1.81.02 2.9.37 4.27 2.24 3.16 4.31 5.8 9.71 12.58 9.83 3.66.06 5.83-.65 5.18-4.87-.12-.77.16-1.6.3-2.84 2.27 1.12 4.35 2.08 6.67 1.63.46-.3.88-.26 1.28.11.33.7.31 1.38-.09 2.05-.6.55-1.41.61-2.14.83.74 1.94 4.09 1.24 3.94 4.01-1.81 1.79-4.08.74-6.14.99-1.56.18-3.48-.44-3.86 1.99-6.5 1.13-13.06.19-19.59.52-2.11.11-4.27-.44-6.33.42-.34.08-.68.15-1.02.23-.21-.2-.42-.4-.64-.6-.31-.5-.52-1.04-.64-1.61.06-3.93-1.04-7.95.83-11.75 1.29-.81 1.59.16 1.91 1.08-.09-.79-.49-1.54-.56-2.3-.44-4.75-2.6-9.59.64-14.19.56-.8 1.03-1.2 1.86-.4 1.25 7.23-.25 14.52 1.1 20.97 1.04-2.11-1.98-5.55.45-8.34"/><path fill="#40926c" d="M155.54 50.82c4.41-1.96 9.04-.6 13.56-.87 4.1-.25 8.23-.06 12.35-.07 5.96.56 12.02-1.07 17.91.89-14.6.02-29.21.04-43.82.05"/><path fill="#16a173" d="M191.46 46.9c-2.32-1.47-5.6-1.82-6.28-5.49 1.5.17 2.89.34 4.28.5.7-.73 1.55-.9 2.5-.69 2.69 1.29 1.4 3.01.5 4.69-.33.33-.67.66-1 .99"/><path fill="#1fa274" d="M192.46 45.91c-1.3-1.33 1.3-2.66 0-4 .15-1.19.28-2.4 2.01-2.01-.68 2 1.58 4.98-2.01 6.01"/><path fill="#2d996f" d="M189.46 39.91h-.99c-2.95-2.71-3.28-6.45-3.99-10.05 3.07 2.29 5.7 5 7.98 8.07-.71 1.1-1.8 1.62-3 1.98"/><path fill="#22a072" d="m189.46 39.91 3-1.98 2 1.97-2.01 2.01h-3c.01-.67.01-1.33.01-2"/><path fill="#ccd807" d="M165.47 145.83h6c2.88 1.57 6.2 1.89 9.12 1.3 3.78-.77 7.21-.35 10.75.6 1.59 1.13 5.09.35 4.13 4.07-8 0-15.99.01-23.99.01-1.67-1.37-3.34-1.38-5.01.01-2.3.41-4.84-.88-6.94.97-.69.62-1.39.63-2.07-.01-2.95-4.13.64-8.69-.88-13.02-.62-1.77-.1-3.93-.1-5.91 1.74-3.75 2.81-1.62 3.91.43.37 1.11.6 2.28.46 3.42-.51 3.9.88 6.66 4.62 8.13"/><path fill="#cdd711" d="M159.46 133.84q-1.5-2.055-3 0c.31-5.96-1.76-11.9-.04-17.89.3-1.06.1-2.3-.92-3.13-.28-.42-.25-.83.05-1.23.63-.36 1.27-.38 1.93-.11 1.03.7 1.42 1.97 2.42 2.68.72.29 1.39.1 2.05-.19l.51-.15c.67.67 1.34 1.34 2 2.02.04.33.15.75-.02.98-3.41 4.49-.85 6.97 3.01 9.02-.67 1.33-1.33 2.66-2 4-1.57 1.35-3.3 1.52-5.16.69-2.63-1.52-.86-4.38-1.93-6.08.66 1.77-.52 4.28 1.58 6 .64 1.25.58 2.39-.48 3.39"/><path fill="#b2c60e" d="M157.44 152.77c.69 0 1.38.01 2.07.01 12.59.01 25.17 0 37.76.07 1.74.01 3.68-.65 5.17.94-.98 2.35-3.07 1.99-4.99 2.03-1.89 1.45-3.37-.85-5.13-.55-3.08-.02-6.15.15-9.23.03-5.42-.31-10.84.29-16.26-.1-1.27-.07-2.45-.39-3.36-1.36-1.01 0-2.03.01-3.04.01-1.26-.07-2.52-.13-3.77-.2.26-.29.52-.58.78-.88"/><path fill="#a2c306" d="M154.43 145.83c-1.78-2.01-.89-4.44-.92-6.66-.11-8.43-.05-16.86-.05-25.29.42-.26.83-.27 1.25 0 .26.68.32 1.33-.19 1.93z"/><path fill="#cbde49" d="M154.52 115.8c-.04-.64-.09-1.29-.13-1.93-.92-1.25-1.12-2.52-.07-3.8 1.81-.31 1.79.56 1.19 1.82-.01.31-.01.62-.01.93-.1 1.07.14 2.25-.98 2.98"/><path fill="#15a8e3" d="M43.49 27.92c-1.33-.67-2.67-1.33-4-2-1.63-1.41.92-5.14-2.96-5.28-.45.08-.9.11-1.35.1-1.78-.23-2.5-1.28-2.33-3.01.45-2.17 1.57-3.68 3.93-3.96 2.95-.57 4.79 1 6.28 3.25.4.24.76.52 1.11.81.87.81 1.74 1.61 2.14 2.78.54 3-1.07 5.18-2.82 7.31"/><path fill="#09a9e6" d="M43.49 27.92c-.77-3.02 2.77-4.97 2-7.99 2.04-1.15 2.65.31 3.26 1.77.58 1.35-.25 2.93.69 4.23 0 .66.01 1.33.01 1.99a14.3 14.3 0 0 0 0 8c-.02.67-.05 1.34-.07 2.01-1.95.78-3.66 1.21-2.9-1.98 2.68-4.04-2.12-5.31-2.99-8.03"/><path fill="#15a8e3" d="M37.49 31.91c-.35-1.82-.64-3.67-2.99-3.99-.69-1.24-1.16-2.54-1.01-4 .57-1.65 1.79-2.82 3-4 2.79 1.29 2.79 3.51 2 5.99.33 2 1.34 3.89 1 6-.67.53-1.34.53-2 0"/><path fill="#27a8e9" d="M37.49 31.91c.67 0 1.33 0 2 .01 1.62 2.3 4.01 4.59.05 6.93-.22-1.94-1.38-3.58-2.79-4.5-3.23-2.11.6-1.63.74-2.44"/><path fill="#03aada" d="M46.47 35.95c.12 1.9 1.48 1.98 2.9 1.98.06.66.12 1.32.19 1.98.54.71.44 1.35-.18 1.95-.3.69-.6 1.38-.9 2.06-1.63-.87-.2-4-2.98-4.02.5-1.27-2.5-3.41.97-3.95"/><path fill="#0da9e1" d="M38.49 25.92c-.7-1.99-.52-4.27-2-5.99.09-.64.55-1.73.84-1.46 1.17 1.08 3.07 1.78 3.06 3.67-.01 1.26-.58 2.52-.9 3.78z"/><path fill="#ccd816" d="M191.45 148.83c-5.5-1.2-11.08-1.01-16.66-1-1.52 0-3.06.07-3.33-2 3.33-1.2 6.67 2.34 10 0 2.57-2.24 3.92-5.4 6.01-8 .65-.32 1.31-.65 1.96-.97.02.62.05 1.24.07 1.86.6.73 1.08 1.51 1.01 2.51-.01.72-.13 1.44.06 2.15.48-.39.22-1.1.66-1.53 2.94-.8 3.92 2.43 6.2 2.98.04.28.08.57.1.86-.02.71-.05 1.42-.07 2.12-1.75 1.82-4 .71-6.01 1.02"/><path fill="#cdda05" d="M191.45 148.83c1.76-1.79 4-.69 6.01-1 1.04.99 1.89 2.08 2.33 3.98h-4.34c-.03-2.75-3.15-1.33-4-2.98"/><path fill="#ccd80f" d="M166.46 151.82c1.67-3.15 3.33-3.15 5.01-.01-1.67 0-3.34.01-5.01.01"/><path fill="#a4aa09" d="M199.52 145.83c2.29-.31 3.21 1.13 3.8 2.98-1.99-.06-2.94-1.47-3.8-2.98"/><path fill="#8fc119" d="M150.46 115.85c1.56 3.15 2.32 6.47 1.99 10-1.5 3.21-4.97 2.99-7.53 4.34-.64.3-1.31.38-2.01.26-.43-.12-.83-.32-1.21-.55-1.03-.84-2.46-.93-3.46-1.84-.39-.57-.5-1.21-.43-1.89.44-1.43.71-2.88.57-4.38-1.15-2.97 1.58-3.59 3.02-4.99 3.05-.07 6.02-.9 9.06-.95"/><path fill="#92c314" d="M138.47 125.86c0 .66 0 1.32-.01 1.98.15.83.91 1.14 1.43 1.67.68.73 1.51 1.25 2.35 1.76 1.26.93 2.38 1.99 3.25 3.31.38.66.6 1.35.56 2.12-.66 2.04-1.9 2.27-3.57 1.13l-.03.01c-2.45-3.29-5.52-5.89-8.97-8.07-.01-1.31-.01-2.61-.02-3.92.49-1.38 1.27-2.35 2.93-2.11 1.06.36 1.71 1.1 2.08 2.12"/><path fill="#93c425" d="M150.46 115.85c-2.73 3.09-5.86 2.35-9.06.94 1.84-1.92 4.29-3.49 4-6.69.08-.2.16-.4.23-.61 1.49-1.23 3.08-2.35 4.01-4.14.29-.37.66-.63 1.1-.81 1.06.02 1.78.56 2.24 1.47.45 1.95-.18 3.72-.87 5.48-.23.36-.55.65-.91.85-.34.31-1.42.01-.91 1.09.01.01.18.41.18.41 0 .68 0 1.34-.01 2.01"/><path fill="#25716a" d="m145.4 110.11-1.61-.15c-1.94 0-2.11 3.12-4.41 2.5-2.59-2.79-1.38-5.31 1.31-6.55 1.71-.79 0-1.43.53-1.9 1.3-1.32 2.8-.71 4.26-.49 1.1.67 2.23 1.28 3.15 2.22.32 2.24-1.57 2.91-2.85 4.01-.15.08-.27.2-.38.36"/><path fill="#286c4a" d="M139.47 111.86c1.73.01 2.04-3.16 4.32-1.91-1.58 3.41-4.16 5.9-7.3 7.88-.33-.29-.55-.66-.62-1.1.02-1.38.73-2.44 1.63-3.39.57-.61 1.36-.92 1.97-1.48"/><path fill="#196a6b" d="M136.43 116.86c.01.32.03.65.05.97-.26.11-.53.16-.81.16-1.62.99-3.25 1.97-4.77-.17-.51-1.02-.57-2.08-.25-3.17.2-.53.53-.96.98-1.3 3.42-1.29 4.57.49 4.8 3.51"/><path fill="#8ac50f" d="M138.47 125.86c-1.36-.05-1.97-.83-2.08-2.11-.94-2.28.86-1.77 1.98-1.96 2.57 1.29 1.6 2.67.1 4.07"/><path fill="#167361" d="M129.62 123.98c-1.97-.27-2.83-1.98-4.11-3.15 1.4-1.23 2.98-1.36 4.67-.72.8.39 1.34.98 1.52 1.87-.7.67-1.39 1.34-2.08 2"/><path fill="#196953" d="M131.69 121.99c-.41-.38-.82-.75-1.23-1.13-.33-.28-.47-.63-.43-1.07.24-.82.65-1.52 1.44-1.93 1.37 1 2.81-.11 4.21.14-.47 2.18-2.75 2.56-3.99 3.99"/><path fill="#98a22d" d="M196.43 103.89c-2.28 1.89-4.98.6-7.46.97-1.85.28-3.91-.67-5.51 1-2.67 1.57-5.34 1.4-8.01.01-3.66.66-7.33 1.33-10.99 1.99-.95.96-2.1 1.21-3.39 1-.49-.11-.94-.31-1.37-.59-.39-.35-.65-.78-.79-1.28-.26-1.61-.38-3.18 1.47-4.03 2.48-.6 4.91-.89 7.08.9 9.66 0 19.31.02 28.97.03"/><path fill="#699523" d="M203.27 101.81c-1.23 1.68-3.02.97-4.58.98-10.4.08-20.81.08-31.21.11-2.56.99-5.23.15-7.82.5q-1.71.75-3.57 1.02c-.48.07-.97.06-1.45 0-.97-.25-1.83-.68-2.39-1.56-.06-.88.44-1.39 1.16-1.77.5-.22 1.01-.36 1.55-.45.56-.09 1.11-.13 1.67-.15.59-.03 1.18-.04 1.77-.05 14.94 1.03 29.92.61 44.87 1.37"/><path fill="#2e490f" d="M203.27 101.81c-15.61-.03-31.21-.07-46.82-.1.56-2.44 2.82-2.62 4.32-2.2 4.52 1.27 9.18.35 13.68 1.33 9.68.03 19.36.06 29.03.1q.045.465-.21.87"/><path fill="#9fa63f" d="m158.55 102.88 8.93.03c-.01.32-.01.63-.01.95l-8.02.03c-.89.19-1.27-.08-.9-1.01"/><path fill="#0aa0df" d="M23.51 16.92c0-.66 0-1.33-.01-1.99 3.08-6.59 2.76-7.12-4.83-7.74-1.51-.12-2.94-.32-4.18-1.26-1.2-.72-2.01-1.65-1.51-3.16.56-1.69 2.05-1.21 3.27-1.32 2.39-.2 4.84.43 7.2-.4 6.74-.03 13.48-.08 20.22-.07 1.57 0 3.47-.48 3.81 1.97-.11.19-.22.38-.32.57-1.26 1.16-2.79 2.01-3.91 3.35-1.23 1.28-2.22 2.79-3.65 3.88-3.49 2.11-5.66 6.15-10.09 6.88-1-1.32-1.86-1.39-3.76-.48-.74.36-1.55.37-2.24-.23"/><path fill="#11a8e4" d="M39.49 9.9c1-1.32 2.01-2.64 3.01-3.96 1.96 1 3.22-3.6 5.41-.67.27 1.06-.27 2.21.38 3.39.07.5.74-.4.11-.21-.33.1-.45-.29-.41-.71.07-.65-.04-1.33.51-1.83.31.01.62.02.93.04v5.98c-1.3 3.24.39 6.76-.95 9.99-1.03-.62-1.46-2.14-3-2-1.29-.04-1.96-.71-2-2 .4-.48.74-1.01 1.04-1.56-.52.4-.56 1.13-1.04 1.55-1.09-.64-4.28 1.72-3.11-2.38.3-1.05-1.89-.32-2.89-.62-1.39-2.48.95-3.49 2.01-5.01"/><path fill="#0fa1e1" d="M23.45 1.05c-2.06 1.67-4.49.81-6.73.83-3.45.04-3.6 1.54-2.23 4.05-1.54-.14-1.97 1.37-3 2-.82-1.67-2.79-1.05-3.98-1.98-.59-2-2.16-2.21-3.89-2.14-.03-.62-.07-1.25-.1-1.87 1.67-.29 3.34-.58 5.01-.88 1.32.92 2.64.94 3.95-.02 3.66.01 7.31.01 10.97.01"/><path fill="#06a3de" d="M48.51 5.92V8.8c-.27.01-.54.03-.81.04-.08-1.3-.15-2.61-.23-3.91-.58-.67-.57-1.33.02-1.99l-.01.01c1.16.71 1 1.87 1.03 2.97"/><path fill="#12a1cf" d="M12.48 1.05c-1.31 2.21-2.63 2.24-3.95.02 1.31-.01 2.63-.01 3.95-.02"/><path fill="#8ebf19" d="M152.44 147.84c-1.19-2.39-.64-6.22-4.97-6.01-.37-.36-.72-1.01-.44-1.27 3.77-3.71.57-5.27-2.11-7.01-.65-1.22-.62-2.4.22-3.53 2.54-.86 4.42.55 6.33 1.84 1.74 5.23.74 10.64.97 15.98"/><path fill="#8ec20f" d="M151.46 131.85c-2.25.09-4.51.2-6.01-1.99-.33.35-.66.33-.98-.02 1.58-3.48 6-1.31 7.99-3.99-.33 2-1.34 3.89-1 6"/><path fill="#a2c11d" d="M150.47 111.86c.34 0 .68-.01 1.02-.01.76-.88.44-2.92 2.53-2.39.17.14.35.28.52.42l-.15 3.99-.46-.01h-.46c-1-.01-1.99-.01-2.99-.02h-.01c-.58-.65-.63-1.31 0-1.98"/><path fill="#54a59f" d="M61.48 54.9c2.93-1.46 5.68-1.76 8.51.5 2.36 1.89 2.36 4.02 1.49 6.49-.51.63-1.2.88-1.99.92-.79-.04-1.44-.39-2.01-.92-.51-1.73-2.53-2.85-2-5 .36-.21 1.69-.23.65-.82-1.34-.75-3.08-.81-4.65-1.17"/><path fill="#4faba3" d="M77.49 68.89c1 1.66 1.11 3.11-1 3.99-1.93-2.23-3.03-5.61-6.99-5.01 0-.66-.01-1.32-.01-1.98 2-1.82 4-1.24 6 0 .66 1 1.33 2 2 3"/><path fill="#4aaaa4" d="M65.49 56.9c.52 1.72 2.84 2.73 2 5-.96-.07-2.07.14-2.83-.29-1.34-.74-3.14-1.66-2.82-3.44.34-1.95 2.34-1.03 3.65-1.27"/><path fill="#42af9e" d="M75.48 65.89h-6c-.79-.44-.97-1.18-.99-2 .54-.66 1.27-.9 2.09-.94 1.09-.06 2.09.14 2.91.93.67 0 1.33 0 2 .01-.01.67-.01 1.33-.01 2"/><path fill="#4aaaa4" d="M70.48 63.89c-.66 0-1.33 0-1.99.01-.79-.44-.98-1.18-1.01-2h2c.54.56 1.63.84 1 1.99"/><path fill="#07553c" d="M155.51 51.93c.32.66.64 1.31.96 1.97.01.99.03 1.99.04 2.98 3.05 4.78 1.65 10.14 1.22 15.06-.48 5.48-.83 10.79.09 16.22.36 2.1.18 4.31-.16 6.46-.18.95-.57 1.8-1.19 2.53-.69.62-1.37 1.31-2.36.48-1.36-1.85-.92-4.01-1.05-6.08 0-2.7 0-5.39-.02-8.09.13-9.69-.21-19.39.15-29.08.16-.98.5-1.86 1.32-2.48.33.02.66.03 1 .03"/><path fill="#017d74" d="M154.5 51.91c-.06.65-.13 1.3-.19 1.95-.48.36-1.02.62-1.56.88-.52.32-1.05.6-1.65.74-.64.07-1.21-.07-1.64-.58-1.76-1.79-3.99-.68-6-1v-2.8c3.58-2.58 7.25-2.05 10.96-.31 0 0 .1.25.1.26-.02.28-.03.57-.02.86"/><path fill="#1ba9e1" d="M36.49 19.93c-.34 1.83-.65 3.68-3 4-1.32.54-.94 3.63-2.73 2.64-1.89-1.04-.77-3.73-1.26-5.64.91-1.56 1.69-3.3 4-3 .1 2 1.54 2.01 2.99 2"/><path fill="#23ace8" d="M33.49 17.93c-1.21 1.16-2.32 2.45-4 3l-1.01-1.01c-.71-1.35.12-2.18 1.02-2.98 4.37-.87 5.81-5.9 9.98-7.04-.67 1.67-1.34 3.35-2.01 5.02-2.56-.64-2.78 1.83-3.98 3.01"/><path fill="#0fa1e1" d="M29.51 16.94c-.34.99-.68 1.99-1.02 2.98-.67.34-1.33.67-2 1.01-.53-1.68-1.84-2.79-2.99-4.01 2.49.05 3.31-2.52 5.28-3.37 1.16.95-1.09 2.62.73 3.39"/><path fill="#cad22a" d="M197.43 144.85c-3.59 2.2-3.58-2.82-6-2.98-.67.57-1.33.56-1.98-.05.01-1.03.03-2.06.04-3.09.99.04 1.97.07 2.96.11 2.21.66 3.71 2.19 4.93 4.06.02.65.04 1.3.05 1.95"/><path fill="#9ba107" d="M197.39 142.9c-2.43-.4-3.69-2.22-4.93-4.06.43-.8 1.18-.98 2-1.02.95 1.7 5.61 1.28 2.93 5.08"/><path fill="#0fa1e1" d="M14.5 5.94c1.97 0 3.95.01 5.92 0 2.52-.02 5.19-.06 6.3 2.73 1.23 3.1-.83 4.85-3.22 6.26-1.06-1.43-2.62-.87-4-1.01-.1-.17-.21-.28-.34-.32.22-.45-.19-.55-.22-.22-.08.99-.02 1.89-1.44 1.55-.97-1.42-2.56-.83-3.86-1.19-1.06-2.74 2.81-4.96.86-7.8"/><path fill="#1ea2e0" d="M17.5 14.93c1.78-1.17.3-2.86.25-4.44 2.03.8 1.63 2.22 1.74 3.44v3.99c-.65-1-1.32-1.99-1.99-2.99"/><path fill="#8dc023" d="M145.47 133.84c1.71.4 3.93-1.02 4.97 1.75s-.82 3.68-2.52 4.89c-.31.22-.3.89-.44 1.35-.96-.37-1.61-1.04-2.01-1.98-.39-1.33 1.25-2.67 0-4-.33-.33-.66-.67-.99-1 .29-.38.38-.95.99-1.01"/><path fill="#91c01c" d="M145.47 135.84c1.39 1.33 1.39 2.67 0 4-1.44-.02-2.9 0-2.98-2.01 1.46.03 2.87 0 2.98-1.99"/><path fill="#17a4ef" d="M7.51 5.95c2.34-1.39 4.55-2.5 3.99 1.98-1.3-.03-2.59-.07-3.89-.1-.03-.63-.07-1.25-.1-1.88"/><path fill="#a6c21e" d="M193.45 153.84c1.33.66 2.67 1.32 4 1.99v2c.57 2.37-.97 3.42-2.72 4.32-2.09-1.19-3.41-.39-4.22 1.67.14 3.65-2.03 3.16-4.35 2.44-1.31-.98-2.84-1.52-4.33-2.14-1.21-.51-2.21-.18-2.97.88-1 1.38.35 1.99.94 2.86.54 2.11-.61 3.21-2.35 3.97-2.07-1.71-4-3.66-6.8-4.17.27-.61.53-1.21.8-1.81-.53-1.04-.12-1.89.48-2.74.06-.08.91-.41.16-.41-1.96-.01-3.26-.57-3.28-2.73-.01-2.32 1.5-3.12 3.51-3.35.99-.11 1.98-.12 2.97-.13 4.97.66 9.89-1.13 14.88-.3 1.79.26 1.43-2.64 3.28-2.35"/><path fill="#a4c11d" d="M177.46 171.82c.67-1.33 1.33-2.67 2-4 .15-1.88 1.02-2.83 3.01-2.35 2.02 1.28 1.57 3.47 1.99 5.35 0 .33.01.67.01 1-.91 1.17-2.06-.48-3.18.4.72.85 1.45 1.71 2.18 2.58-.04.34-.09.69-.14 1.03-2.86-.01-4.09-2.41-5.87-4.01"/><path fill="#196f65" d="M112.49 107.9c-.34-.34-.68-.68-1.03-1.02-.38-4.29.85-4.95 6.51-3.54 1.47 1.64 3.24 1.74 5.37 1.52 4.4-.47 8.85-.72 13.26.17 3.03 2.17 2.7 4.11-.39 5.87-4.21 2.3-8.43 4.39-12.7.1-1.23-.92-2.26-2.25-4.05-2.12l-4.03.99c-1.81.57-1.88-1.44-2.94-1.97"/><path fill="#226c65" d="M123.47 109.86c4 3.48 8 2.78 12 .01 2.1.49 3.31 1.65 3 3.96l-2.04 3.03c-1.11-1.91-2.29-3.71-4.98-2.99-1.1 1.2-2.71 1.56-4 2.46-.87.37-1.74.44-2.62.06-.9.11-.56-2.5-2.11-.94 0 .01-.25.41-.25.41-1.85.39-2.87-.91-4-1.99.55-1.33 1.55-1.99 2.98-2.01.77-.59 1.02-1.67 2.02-2"/><path fill="#217369" d="M123.47 109.86c-.05 1.29-.71 1.96-2.01 2 .17-1.56-1.37-1.97-2.01-2.98 1.84-1.7 2.85-.02 4.02.98"/><path fill="#356e68" d="M112.49 107.9c1.54-.19 1.93 1.35 2.94 1.96l.03 1.98c-1.59-.87-2.9-1.93-2.97-3.94"/><path fill="#a1c016" d="M175.46 157.83c-.66 0-1.33-.04-1.99.01-1.49.11-3.4-.71-3.6 2.01-.23 3.13 2.43 1.32 3.58 2.36-.65 1.17-1.32 2.4-2 3.63-4.12-1.71-6-5.4-7.99-9v-.98c.68-1.14 2.34-.8 2.99-1.99 5.67 0 11.33-.01 17-.01-2.64 3.91-6.05.37-8.91 1.37 1.72.68 4.06-.57 6.12.87-1.31 2.26-3.84.37-5.2 1.73"/><path fill="#1a7062" d="M124.47 115.85c1 0 1.99.01 2.99.01.16.16.32.32.49.47.44.88.38 1.75-.1 2.6-.62.78-1.51.9-2.43.96-.97-.06-1.93-.12-2.9-.19-.02-.95-.04-1.9-.05-2.85.01-.34.01-.67.02-1.01.65-.6 1.31-.6 1.98.01"/><path fill="#066855" d="M125.41 119.9c.44-.8 1.18-1.01 2.02-1.01.75-.09 1.49-.04 2.2.25.34.17.62.42.81.75.01.32.01.65.01.97-1.65-.01-3.31-.01-4.96-.02-.01-.32-.04-.63-.08-.94"/><path fill="#a3c630" d="M194.46 161.82c1-1.33 2-2.67 3-4h1c1.35 1.74-.43 2.7-.99 3.96-2.21 1.13-2.53 4.2-5.08 4.99-2.55-.62-1.1-2.32-.99-3.66.7-1.15 1.38-2.4 3.06-1.29"/><path fill="#99c43c" d="m197.46 161.78.99-3.96c.99 0 1.98.01 2.97.01-.66.99-1.32 1.98-1.98 2.98-.65.33-1.31.65-1.98.97"/><path fill="#226861" d="M118.47 104.86c-2.79-.92-5.97-3.17-7.01 2.01-.66-.33-1.32-.67-1.98-1-1.28-1-1.83-2.38-2-3.95 1.71-1.2 3.8-.77 5.66-1.37 2.16-.23 4.31-.12 6.47-.13 1.7-.16 3.4-.1 5.1-.01 4.01.06 8.02.01 12.02.03 1.85 0 3.71.07 5.57-.02 1.24-.09 2.47-.51 3.73-.08.46.23.74.6.85 1.11-.05 1.05-.49 1.87-1.42 2.39-1.33.96-2.66.06-4 .01-1.51 1.66-3.52 1.51-5.49 1.48-4.26-.53-8.51-.77-12.76.05-1.63.33-3.25.44-4.74-.52"/><path fill="#02524b" d="M112.47 101.86c-1.66.52-3.32.38-4.99.06-.65-.03-1.31-.07-1.96-.1-.1-1.73 2.93-2.86.95-4.95 2.24-4.68 1.12-9.57.57-14.32-.24-2.1-.55-4.16-.48-6.27.38-1.43.49-2.94 1.15-4.29.38-.77.99-1.51 1.87-.74.64.57.35 1.43.4 2.59.36-4.25-.11-8.18.62-12 .17-.44.44-.8.79-1.11 1.4 1.12 2.88 2.11 4.6 2.67 2.37 2.2 4.84 4.31 6.01 7.47-.03.47-.19.89-.49 1.27-2.53.68-4.49-.34-6.57-1.81-.75.71-.02 2.18-.61 3.3-3.4 5.53.23 11.25-.44 16.85 1.71 4.06 1.73 7.92-1.42 11.38"/><path fill="#134c4c" d="M107.48 75.88c-.09 4.94 2.07 9.56 1.85 14.6-.12 2.75.52 5.31-2.86 6.39l-1-1c-.66-2.66-1.33-5.33-1.99-7.99 2.41-.37 1.97-2.25 1.98-3.83.03-4.77-.01-9.55.02-14.32.01-1.58-.43-3.46 1.98-3.83 2.41 3.32.15 6.65.02 9.98"/><path fill="#a5bb2a" d="M166.45 153.85c.87 3.47-1.97 1.36-2.99 1.99-1.07-.68-.12-1.33.02-2 .99.01 1.98.01 2.97.01"/><path fill="#5bc7fd" d="m49.38 41.85.18-1.95c.74-.46.91-1.19.93-1.98.33-.48.66-.46.99-.01 0 .66 0 1.33.01 1.99q1.26 1.5 0 3c-.63.31-1.26.63-1.9.94z"/><path fill="#1d9f68" d="M159.47 33.92v9.87c-2.73-7.49-1.82-15.21-2.01-22.85-1.02-.78-.98-1.9-.99-3.01 0-.66 0-1.32-.01-1.98 2.12-.77 1.79-4.61 5.01-4.02 1.31 1.69-.21 3.06-.53 4.56-.09.7-.13 1.41-.18 2.11-.07 1.25-.38 2.41-1.3 3.33.01 3.99.01 7.99.01 11.99"/><path fill="#179f6f" d="M159.47 17.93v-2c5.39-2.17 7.9-1.42 9.99 3 0 .67 0 1.33-.01 2-4.15 3.24-4.2-3.09-7-2.99-.99.8-1.98.8-2.98-.01"/><path fill="#2d986f" d="M159.47 17.93h2.99c.09 2.14.16 4.28-2.99 3.99z"/><path fill="#11a072" d="M183.6 32.9c-1.59 1.14-2.98 1.33-3.3.53-.73-1.8.81-1 1.56-.96.42.03.83.2 1.74.43"/><path fill="#1c9a72" d="M169.47 18.93c-2.65-3.28-6.31-3.16-9.99-3 .57-1.39 2.12-2.28 2-4.01 2.33-.22 3.8 2.37 6.22 1.88 1.33.24 2.23 1.01 2.74 2.25 0 1.07.15 2.18-.97 2.88"/><path fill="#60c3f3" d="M86.48 38.91c-1.01-1.42-3.46-.93-4-3-.6-1.12.2-1.54.98-1.97 2.11 1.21 3.75 2.9 5.01 4.97-.66.62-1.33.62-1.99 0"/><path fill="#4ec0eb" d="M86.48 38.91h1.99c.66.69 1.32 1.37 1.98 2.06l-.97.94h-1.99c-2.1.77-2.78.11-2-2 .32-.33.65-.66.99-1"/><path fill="#51bce7" d="M83.46 33.95c-.33.66-.65 1.31-.98 1.97-1.1-.03-2.27.16-3-1 1.02-.6 1.42-2.11 2.93-2 .35.34.7.69 1.05 1.03"/><path fill="#cdd609" d="M159.46 133.84v-4h6v15.99c-5.09.96-6.73-1.34-6.05-6.16.28-1.9.05-3.88.05-5.83"/><path fill="#ccd702" d="M187.47 137.84c-.16 4.05-1.84 6.95-6.01 8-.38-.7-.59-1.6-1.16-2.08-2.73-2.29-3.88-4.99-2.06-8.28 2.22-4.02 4.04 1.78 6.21.37 1 .66 2.01 1.32 3.02 1.99"/><path fill="#ccd80b" d="M167.46 125.85c-3.36.6-4.89-1.99-6.83-3.88-.68-.67-1.05-1.58 0-1.89 2.24-.65 2.2-3.17 3.84-4.23.33.01.66.02.99.04 1.64 2.67 2.61 5.77 5 7.96.58 3.04-.8 3.14-3 2"/><path fill="#cdd711" d="M170.46 123.85c-3.98-1.2-5.51-3.95-5-7.96 1 .65 2 1.31 3.01 1.96-.52 3.24 3.46 3.47 4.01 5.99-.68 0-1.35.01-2.02.01"/><path fill="#cad503" d="M174.43 124.87c.34.34.67.69 1.01 1.03-.31.9-.54 1.84-.96 2.69-.59 1.21-1.87 1.67-2.82.95-1.26-.95-.05-2.04.58-2.84.58-.72 1.45-1.22 2.19-1.83"/><path fill="#97a629" d="M175.46 105.87c2.67 0 5.34 0 8-.01 4.33.01 8.66.01 12.99.02-.49 2.71-2.65 1.94-4.3 1.96-5.56.07-11.13.03-16.69.03z"/><path fill="#9ca726" d="M199.46 105.87c4.04-.35 2.11 2.27 1.99 3.99-2.63-.34-1.82-2.41-1.99-3.99"/><path fill="#a2ab12" d="M160.38 107.89c1.36-.01 2.72-.02 4.08-.02 0 .66.01 1.32.01 1.98-.2.45-.52.78-.98.97-.32-.01-.65-.02-.97-.02-1.55-.36-2.56-1.11-2.14-2.91"/><path fill="#979f02" d="M163.5 110.81c.33-.32.65-.65.98-.97.85.89 2.99.95 1.95 3.04-1.43-.05-2.43-.71-2.93-2.07"/><path fill="#cbd91f" d="M161.46 111.89c.33.65.67 1.29 1 1.94l-.01.05c-.97.77-2 .93-3.1.26-.88-1.23-1.07-2.53-.41-3.91 2.13-1.38 2.08.51 2.52 1.66"/><path fill="#d0d946" d="M161.46 111.89c-.67-.67-1.34-1.34-2-2.01-.49-.44-.57-.99-.37-1.59.14-.14.28-.27.42-.41.29.01.58.01.87.01.71.97 1.43 1.94 2.14 2.9-.35.37-.7.74-1.06 1.1"/><path fill="#4facaa" d="M89.49 61.92c-1.34 1.66-2.69 3.31-4.03 4.97-1.98-.46-2.62-3.14-4.97-2.99-.46-1.29-1.75-3.12 1.15-2.76 1.64.2 2.85.08 3.85-1.24 1.75-.17 4.34-1.98 4 2.02"/><path fill="#47aba3" d="M70.48 63.89c-.33-.66-.66-1.33-1-1.99h2c1.29.05 1.96.71 2 2-1-.01-2-.01-3-.01"/><path fill="#109592" d="m97.46 85.9-2.99-.03c-1.08-1.11-2.26-2.79-.31-3.46 2.6-.91 2.4 2.07 3.3 3.49"/><path fill="#50c2f5" d="M115.39 37.89c-.97.01-1.95.01-2.92.02-1.33-.67-1.64-1.91-.6-2.71 3.54-2.73 1.21-4.94-.4-7.28-1.73-6.82 1.91-10.77 7.39-13.69 1.8-.96 3.46-1.98 3.61-4.3 3.57-.05 7.57.87 9-4 1.95-.11 3.11.58 3 2.76-.1 2.02.34 3.86 1.99 5.23 0 .96.01 1.92.01 2.88-.03.74-.41 1.3-.94 1.79-1.58.98-2.63 2.53-3.96 3.78-.42.24-.86.41-1.33.52-.97.14-1.91.05-2.76-.47-3.36-4.26 2.77-3.08 2.39-5.03-4.73 1.83-4.73 1.83-3.18 4.46.9 2.99-1.6 4.48-3.02 6.28-1.23 1.55-2.45 3.06-3.34 4.84-.37.55-.8 1.04-1.26 1.5-1.3 1.05-2.08 2.68-3.68 3.42"/><path fill="#50c2f9" d="M111.47 27.92c5.04 3.07 5.22 3.71 1.59 7.44-.84.86-1.11 1.53-.59 2.55-2.69 2.46-4.29 6.55-8.99 6-.36-5.13 2.17-9.88 2-14.99.79 1.59 1.58 3.19 2.77 5.57.17-3.74.3-6.79.45-10 2.19.88 0 3.23 1.94 3.82.15.04.34.01.48-.06.14-.06.24-.21.35-.33"/><path fill="#3db9ec" d="M106.48 1.95c2.96.6 1.85 2.98 1.96 4.71.15 2.42.04 4.85.04 7.27-.04.93-.09 1.86-.13 2.79-.29.01-.58.01-.87.02v-9.8c-.94-1.55-1.11-3.24-1-4.99"/><path fill="#1facaf" d="M135.38 17.88c.37-.36.73-.72 1.1-1.07.34.06.68.11 1.02.17.98.62 1.45 1.67 2.13 2.55.63 1.04.84 2.1.24 3.23-.68.77-1.49.52-2.25.29-.82.62.45.74.32 1.2-2.08 5.34-6.43 8.69-10.86 11.79-1.55 1.08-2.2-.73-2.1-2.2.13-1.91 1.68-3.74.26-5.72.33-3.3 2.76-4.76 5.34-6.11.3-.01.59-.04.89-.08 1.02-1.64 2.41-2.89 3.91-4.05"/><path fill="#0faaae" d="M138.47 19.92c-1.15-.71-.98-1.86-.98-2.95l-.09-.14c1.48-1.53 1.92-3.91 4.04-4.92 2.34-1.97 4.69-3.94 7.03-5.91.34.32.58.71.69 1.17-.16 2.85-1.98 4.13-4.19 5.03 1.08.75 2.65 1.67 2.9 3.67-.06 1.35-.77 2.11-2.1 2.3-2.66-.41-4.66 2.01-7.3 1.75"/><path fill="#06a7b7" d="M148.51 6.95c-.01-.31-.02-.63-.02-.94.59-1.42 1.73-2.31 2.95-3.12.75.61 1.35 1.32 1.51 2.31-.2 1.83-.8 3.29-3.02 3.25-.8-.2-1-.96-1.42-1.5"/><path fill="#03a0a4" d="M152.47 4.94c-.81-.45-.97-1.23-1.03-2.05l1.1-.77 1.93 1.81c.06 1.08-.19 2.27 1.03 2.95-.34.35-.69.7-1.03 1.05-2.54.24-1.21-2.08-2-2.99"/><path fill="#45bcdc" d="M141.45 11.92c-1.28 1.69-1.88 3.94-4.04 4.92.64-2.23 1.07-4.61 4.04-4.92"/><path fill="#09adb1" d="M111.48 47.9c.13-1.47-.33-2.78-1.05-4.03.54-2.69 2.19-4.04 4.92-4.08.19.15.38.31.57.46 1.26 2.46-.34 4.15-1.6 5.94-.78.84-1.28 2.18-2.84 1.71"/><path fill="#0aaab5" d="M109.44 49.88c-1.67-.19-3.52.65-4.94-.9 1.26-2.06 2.85-3.79 4.98-4.97-.01 1.95-.02 3.91-.04 5.87"/><path fill="#2bafca" d="M115.39 37.89c.29-1.9 1.39-3.15 3.12-3.89 1.12 1.13 1.08 2.41.5 3.76-.92 1.17-2.02 1.8-3.54 1.16-.02-.34-.05-.69-.08-1.03"/><path fill="#09adb1" d="M115.47 38.92c.99-.34 1.98-.69 2.96-1.03.45-.32.88-.3 1.31.05.25.46.33.94.26 1.46-.15.51-.47.89-.94 1.15-1.32.53-2.51.34-3.57-.62l-.13-.12c.03-.3.07-.6.11-.89"/><path fill="#4ec5f7" d="M66.47 17.94c.01.33.01.65.01.98-3.68 1.42 1.67 3.66-.81 5.29-3.2-3.44-8.21-3.82-12.18-6.28-1.53-3.21 1.46-5.3 2-7.99 2.5 1.8 2.91 6.04 7 5.99 1.12 1.08 2.12 2.39 3.98 2.01"/><path fill="#54c6fa" d="M55.49 9.93c1.24 3.14-2.71 4.99-2 7.99 0 4.31.01 8.63 0 12.94-.01 3.35 1.19 5.49 5 5.05 1.26 2.64-.8 4.17-2 5.99h-1c-.61-.66-.5-1.46-.52-1.29.07.63.28 2.32-1.48 3.28h-1l-1-1v-3c1.5-1.31.94-3.08.98-4.68.24-9.1-.64-18.24 1.02-27.29 1.29.06 1.95.73 2 2.01"/><path fill="#59c3f9" d="M56.49 41.91c-.75-2.47 1.45-3.95 2-5.99 1.63.33 3.94-.95 4.71 1.37.94 2.8-2.1 2.18-3.22 3.24-1.03.97-2.11 1.48-3.49 1.38"/><path fill="#4ec5f8" d="M85.48 39.91c.05 1.29.72 1.95 2 2-.36 1.27 1.87 2.92-.37 3.8-1.13.45-2.93.61-3.32-1.05-.42-1.75-1.29-4.04 1.69-4.75"/><path fill="#58c3f3" d="M78.45 45.36c-.82-.12-.87-.78-.86-1.42 0-.63.03-1.4.9-1.4.86 0 .9.77.9 1.4 0 .64-.02 1.33-.94 1.42"/><path fill="#4ec3f8" d="M53.49 43.91c.47-1.65.94-3.3 1.43-5 1.04.85.37 2.01.57 3-.05 1.28-.71 1.95-2 2"/><path fill="#51c9fe" d="M51.49 37.91c-.33 0-.66 0-.99.01V13.2c.33 0 .66-.01.99-.01z"/><path fill="#23b0ea" d="M48.49 21.93c.44-3.32-.98-6.81.95-9.99v13.99c-1.36-1.09-.82-2.63-.95-4m.96 13.99c-1.48-2.67-1.45-5.33 0-8z"/><path fill="#a2c526" d="M192.45 163.81c-.23.98-1.55 1.95-.06 2.97-.31.67-.62 1.33-.94 2-.66.02-1.32.04-1.98.05-2.92-2.48-3.33 1.35-5.01 1.99-1.35-1.39-1.57-3.23-1.99-4.98 1.32-1.24 2.65-1.01 3.98-.02 1.36-.13 3.42.81 3.01-1.99.99-.88 1.99-.81 2.99-.02"/><path fill="#6f9e36" d="M197.46 165.8c1.36.14 2.01.87 1.92 2.26-.08 1.21-.87 1.63-1.92 1.77-2.84-1.34-2.83-2.69 0-4.03"/><path fill="#6ca116" d="M197.45 171.82c-.15.99-.39 1.97-1.7 1.76-.3-.05-.82-.7-.75-.89.46-1.16 1.57-.75 2.45-.87"/><path fill="#11ada4" d="m154.55 36.96-.12 12.91c-1.55.29-1.71-.93-2.1-1.91-.37-2.1-.05-4.29-.87-6.33-.62-2.68-.04-5.51-1.08-8.14-.46-4.95-1.2-9.92 1.06-14.68.78-1.03 1.64-1.81 2.99-.87.04 1.64.09 3.29.13 4.93-.01 4.69 1.98 9.39-.01 14.09"/><path fill="#01aca3" d="M154.43 17.94c-.81.02-1.54.21-1.98.98-2.76-.32-1.98-2.88-2.81-4.41-1.42-2.15 1.05-4.4-.17-6.56 1.94-.06 2.28-1.73 2.99-3.01.66 1 1.33 2 1.99 2.99 0 3.34-.01 6.67-.02 10.01"/><path fill="#1c9a72" d="M154.55 36.96c.01-4.7.01-9.39.02-14.09 1.72-1.23.04-3.77 1.91-4.95 1.14.74.96 1.91.99 3.01-1.98 2.68-2.47 5.63-1.56 8.82 1.04 3.65.44 7.33.5 11.37-1.58-1.33-.35-3.31-1.86-4.16"/><path fill="#215332" d="M191.46 57.9c.03 1.1-.15 2.27 1 3 .34 1.33-1.77 2.68.02 4.01.24 2.94-1.85 3.99-4.02 4.99-3.72 2.94-7.04 6.27-10.01 9.96-1.21 2.74-3.45 4.65-5.46 6.74-2.41 1.89-4.18 4.61-7.26 5.66-1.09-.2-2.18-.01-3.27.01-1.92-.19-4.25.11-3.7-3.06.45-1.17.78-2.35.15-3.57-.1-.68.03-1.28.55-1.75 3-1.5 4.74-3.89 5.64-7.16.69-2.51 2.12-4.81 4.05-6.62 1.78-1.67 4.91-2.87.07-4.85-1.39-.57-.76-2.29.96-3.38 4.72-2.99 9.59-4.85 15.3-4.03 1.95.29 3.98.05 5.98.05"/><path fill="#003106" d="M165.46 91.86c2.32-2 4.64-4.01 6.96-6.01 3.79-.98 2.12 1.75 1.89 3.05-.39 2.21-1.66 4.43 1.16 5.96.11 1.29 2.48 3.39-1.46 3.09-2.9-.22-5.93-.59-9.31.56 3.05 2.89 7.11-.17 9.75 2.31-5.98.57-12.08-1.02-18 .88h-.47l-.45-.15c-.63-.5-.62-1.13-.36-1.81 1.87-1.84 3.89-3.53 5.72-5.42 1.4-1.05 2.83-2.04 4.57-2.46"/><path fill="#00360a" d="M188.46 69.89c1.34-1.66 2.68-3.33 4.02-4.99.32-.01.64-.04.95-.08-.91 4.42 3.47 7.96 2.06 12.5-.49 1.56.84 3.81-1.87 4.48-2.8.69-2.13-1.33-2.47-2.84-.23-1.04-1.19-.68-1.98-.2-1.11.67-1.31 2.34-2.99 2.6-1.52-2.43-.46-4.25 1.28-5.99 1.57-1.57 3.12-3.21 1-5.48"/><path fill="#00340a" d="M175.46 94.87c-3.23.03-6.26.09-2.76-4.38.29-.37 3.14-3.36-.28-4.64 1.67-2.35 3.62-4.41 6.03-6 .3.74.38 1.79.92 2.17 3.75 2.65 1.7 5.02-.72 6.46-2.69 1.62-3.61 3.52-3.19 6.39"/><path fill="#004017" d="M201.46 97.87c-.47 2.44-1.82 2.09-3.6 1.32.92-1.91 2.43-1.07 3.6-1.32"/><path fill="#00360a" d="M197.53 67.39c-.44.41-.76.71-1.08 1-.28-.34-.78-.67-.78-1.01s.5-.67.79-1.01c.32.31.63.61 1.07 1.02"/><path fill="#1b4b2a" d="M156.46 95.87c.01-12.99.03-25.99.04-38.98h12.83c-5.03 1.43-10.38 7.79-9.74 11.76.88 5.43-3.19 9.94-2.13 15.24 2.09 3.22.97 6.92 1.43 10.37.2 1.35-.58 2.64-2.43 1.61"/><path fill="#23502a" d="M156.46 95.87c2.34-1.44 1.37-3.77 1.43-5.74.06-2.07-.26-4.16-.42-6.24h1.99v2c.84 1 .72 2 0 3 .25.87-.77 3.03 1.76 1.51.84-.5 1.11.72 1.24 1.48.71 1.33-.91 1.96-.92 3.07-1.75 2-3.08 4.5-6.07 4.99-.91-1.03.89-2.05.02-3.08.33-.34.65-.67.97-.99"/><path fill="#215332" d="M191.45 54.9v2c-5.63-.01-11.26-.01-16.9-.04-.3 0-.6-.2-2.23-.79 7.3.18 13.11-1.67 19.13-1.17"/><path fill="#1b4b2a" d="M159.46 53.9c5.33 0 10.66 0 15.99.01-5.33 1.62-10.66 1.62-15.99-.01"/><path fill="#2eaaa3" d="M153.46 47.89c.02.81.18 1.54.96 1.98.02.31.02.62 0 .92l-10.96.3c-8.33-.08-16.66-.16-24.98-.25-.01-.31-.01-.62-.01-.93 1.43-1.59 3.34-1.44 5.21-1.44 8.37.1 16.75-.36 25.11-.16 1.62.51 3.06-.96 4.67-.42"/><path fill="#005346" d="M107.48 75.88c0-3.33-.01-6.66-.01-9.99 4.61-1.73-.17-4.84 1.03-7.06 2.24-.99 2.8.33 2.98 2.17-.77 4.58 1.02 9.43-1.66 14.11-.26-1.26-.47-2.27-.74-3.54-1.1 1.48-.03 3.36-1.6 4.31"/><path fill="#167666" d="M111.49 61c-.98-.74-1.46-2.17-2.98-2.17 0-.31 0-.63-.01-.94.33-.33.66-.66.99-1 .66.33 1.32.67 1.98 1 .98-.62 2.01-.84 2.87.08.55.59-.1 1.08-.47 1.53-.72.59-1.68.75-2.41 1.33z"/><path fill="#017e6c" d="M112.48 58.9c.37-.19.73-.39 1.1-.58l-2.1-.42c6.44-3.91 13.6-2.93 20.6-2.99 3.8-.03 7.59 0 11.39 0 1.62 3.03-.45 3.79-2.72 4.23-3.07.59-6.25-.09-9.35.79 2.46.71 5.03.29 7.53.57 2.01.22 4.52-.24 4.99 2.81-.13.58-.44 1-.96 1.3-4.78 1.55-9.69.59-14.54.78-4.96.16-9.82-.06-13.58-4.02-1.1-.52-2.66-.62-2.36-2.47"/><path fill="#057e6f" d="M143.47 63.89c-.65-3-3.08-1.85-4.85-1.96-2.8-.16-5.62-.05-8.43-.06-1.47-.01-2.69-.39-2.54-2.21.13-1.54 1.31-1.73 2.52-1.73 3.31-.03 6.62-.09 9.92 0 2.19.06 3.57-.54 3.37-3.02h8c.8 1.39.45 2.9.39 4.35-.24 5.87-2.79 7.26-8.38 4.63"/><path fill="#07b0b0" d="M123.47 49.87c-1.66.02-3.33.03-4.99.05l-5-.03c-.8-1.33.7-2.65-.01-3.98.54-2.04 2.73-3.52 2.01-5.98 1.33-.01 2.66-.01 3.98-.02.34-.35.73-.41 1.17-.22 1.44 1.46 4.69 1.01 4.5 4.22-.25 1.37-.34 2.77-.58 4.14-.16.72-.58 1.3-1.08 1.82"/><path fill="#0eb1b1" d="M113.47 45.91c4.05 1.32-.2 2.65.01 3.98-1.3-.02-1.96-.69-2-1.98.66-.67 1.33-1.34 1.99-2"/><path fill="#c7dd2d" d="M159.45 106.91c.01.32.03.65.05.97l-.06.03c-1.43.92-.51 3.03-2 3.92l-1.93.06c-.32-.67-.65-1.34-.97-2.01l-.2-.02c-.68-.92-.85-1.9-.42-2.98.94-1.55 2.29-2.11 4.06-1.69.77.32 1.2.96 1.47 1.72"/><path fill="#cdd609" d="M159.17 130.12c-2.79-2.32-1.42-4.85-1.63-7.77 2.6 2.5 3.07 4.82 1.63 7.77"/><path fill="#d3dc06" d="M157.44 111.83c.22-1.54-.69-3.65 2-3.93 0 .66.01 1.31.01 1.97.01 1.32.01 2.63.02 3.95.58.67.58 1.35-.01 2.02-1.31-1.01-1.82-2.43-2.02-4.01"/><path fill="#cddf01" d="M159.47 115.85v-2.02c.99.02 1.99.03 2.98.05-.11 2-1.54 1.99-2.98 1.97"/><path fill="#a2c118" d="M175.46 157.83c.87-1.57 2.8-.45 3.99-1.55-1.9-1.16-4.19.35-6.01-1.03 3.26-1.38 6.96.88 10.01-1.41h10c-1.54.85 1.34 5.46-2.94 3.74-2.76-1.11-5.12.11-7.66.22-2.46.1-4.93.02-7.39.03"/><path fill="#cdd905" d="M189.46 141.82c.66.02 1.32.03 1.98.05-.2 1.42 1.52 2.59.51 4.19-3.03-.16-2.37-2.43-2.49-4.24"/><path fill="#91be28" d="M145.47 133.84c-.33.33-.66.66-.99 1l-3-3c-.56-1.11.1-1.61.99-1.99.67 0 1.34-.01 2-.01.33.01.66.01.98.02.01 1.33.01 2.65.02 3.98"/><path fill="#92bf25" d="M145.37 123.92c.02.91-.37 1.66-1.29 1.7-1.41.07-1.84-1.1-2.14-2.18-.29-1.05.48-1.43 1.34-1.48 1.34-.08 2.12.54 2.09 1.96"/><path fill="#91be28" d="M139.47 129.85c-1.25-.22-2.5-.44-1-2.01 1.38.14 2.94-.43 3.99 1-.76 1.03-1.49 2.18-2.99 1.01"/><path fill="#91c01c" d="M139.47 129.85c1-.34 2-.67 3-1.01 0 .34 0 .67.01 1.01-.33.66-.66 1.33-.99 1.99-1.31-.03-1.97-.7-2.02-1.99"/><path fill="#256d6d" d="M145.46 103.85c.03-.82.22-1.56 1.01-1.99 1.97-.93 3.82-1.21 5.26.91.31 1.06-.27 1.69-1.08 2.21-.11.22-.21.44-.29.68-.51.83-1.13.78-1.83.25-1.45-.04-2.95-.01-3.07-2.06"/><path fill="#9ac403" d="m154.52 106.84-.18 3.03c-1.48-.1-1.85 1.39-2.85 1.98-.37-2.1.62-3.97 1.01-5.95.58-.58 1.25-.63 1.97-.3.26.26.36.53.29.81-.08.29-.16.43-.24.43"/><path fill="#94c341" d="M154.36 105.88c-.62.01-1.24.02-1.87.02-.61-.31-1.22-.62-1.84-.93.28-.68.56-1.36.84-2.03.3-.36.64-.39 1-.1.67.33 1.35.67 2.02 1 .54.73.56 1.41-.15 2.04"/><path fill="#77aa6e" d="M148.54 105.9c.61-.08 1.22-.16 1.83-.25-.51 2.5-1.82 4.11-4.58 4.09.92-1.28 1.83-2.56 2.75-3.84"/><path fill="#8fc611" d="M150.47 111.86v2c-1.21-.16-3.12.25-2.72-1.75.38-1.92 1.76-.42 2.72-.25"/><path fill="#29706f" d="M136.47 104.87c1.54-.95 3.24-1.11 4.99-1 .72.84 1.44 1.67 2.44 2.84-4.99-1.02-4.91 1.92-4.43 5.15-.02.81-.2 1.55-1 1.97l-3-3.96c2.16-.88 3.5-1.97.99-4.01-.34-.22-.45-.44-.34-.66.13-.22.24-.33.35-.33"/><path fill="#226c65" d="m130.45 119.88-.99-.06c-1.05-1.2-1.04-2.59-.75-4.04.61-1.18 1.43-1.77 2.74-.94.01 1 .01 2.01.02 3.01-.03.84-.22 1.59-1.02 2.03"/><path fill="#366" d="M131.45 114.84c-.82.04-1.55.23-1.98 1.02-.66.59-1.33.59-1.99.01h-.01c.35-2.63 2.41-1.83 3.99-2 0 .32 0 .65-.01.97"/><path fill="#a5ac0d" d="m159.45 106.91-1.14-1.05c-.8-.9-2.72-.35-2.83-2.16.81-1.03 1.96-.82 3.06-.82.3.33.6.67.9 1-.27 1.01 1.14 2.02.01 3.03"/><path fill="#08595a" d="M152.5 102.84c-.33.03-.67.07-1 .1-1.44-1.46-3.49-.04-5.02-1.08-.01-.32-.02-.65-.02-.97-.95-1.24-.92-2.37.36-3.37 1.33-.51 2.52-.03 3.71.49 1.33.96 3.4 1.37 2.84 3.76-.29.37-.58.72-.87 1.07"/><path fill="#46837e" d="M153.37 101.79c-.96-.99-1.92-1.98-2.88-2.96 1.4-2.06 1.7-2.01 4.15.69.33.71.36 1.43.07 2.16-.45.03-.9.07-1.34.11"/><path fill="#c7db34" d="M155.49 103.7c.94.72 1.89 1.44 2.83 2.16-1.39-.13-2.62.34-3.8.98q-.06-.48-.15-.96l.15-2.04c.32-.02.65-.07.97-.14"/><path fill="#0d4723" d="M154.71 101.68c-.13-.62-.27-1.24-.4-1.86-.37-.69-.47-1.36.2-1.95.33-.34.66-.68.99-1.03 1.54 1.04.22 2.05-.02 3.08.02.54.04 1.09.05 1.63-.26.12-.54.16-.82.13"/><path fill="#23b0ea" d="M47.5 2.93c-.01.66-.01 1.33-.02 1.99-1.4 0-2.32.88-3.26 1.76-1.06.99-1.61.6-1.72-.73 1.41-1.44 2.75-2.98 5-3.02"/><path fill="#06a8e2" d="M43.49 17.93c.02-.67.02-1.33.06-2 .1-1.47.96-2.01 2.35-1.87.74.07 1.3.5 1.36 1.22.11 1.34-1.02 1.49-1.95 1.83-.62.22-1.22.54-1.82.82"/><path fill="#1f8475" d="M154.5 97.88c-.07.65-.13 1.3-.2 1.95-1.3-.23-1.95-2.91-3.82-1-.99-.32-1.99-.65-2.98-.97-.79-.39-1.58-.78-2.09-1.56-1.01-1.87-3.61-2.9-2.99-5.63 2.19-2.43 4.16-.22 6.22.28 1.07.46 2.25 2.06 3.03-.33.19-.39.46-.7.81-.96 1.69-.19 1.24 1.43 1.84 2.17z"/><path fill="#1e7e6e" d="M152.46 53.9c.6-1.04 1.24-.19 1.86-.04.01 9.99.01 19.98.02 29.97-2.3-.32-2.06-2.2-2.19-3.75-.18-2.11.02-4.26-.76-6.3-.43-3.14-.44-6.28-.13-9.42.46-3.48-.81-7.16 1.2-10.46"/><path fill="#278573" d="M152.46 73.89c2.51 2.96-.43 6.95 1.87 9.95 0 2.66-.01 5.32-.01 7.98-.62-.65-1.24-1.3-1.85-1.95-2.28-5.32-2.25-10.65-.01-15.98"/><path fill="#0d8070" d="M152.46 53.9v10c-1.67 1.76 1.12 4.85-1.84 6.23-1.76-1.18-3.07-1.15-3.5 1.3-.26 1.48-.2 2.98-.25 4.47-.2 6.94-1.48 7.95-8.61 6.79-2.82-2.09-2.51-5.63-3.9-8.39-.52-3.06.78-5.07 3.59-6.27 2.16-.92 3.94-2.4 5.52-4.13 4.81.71 8.08-.26 7.11-6.24-.14-.85.57-1.83.89-2.75.32-.34.66-.68.99-1.01"/><path fill="#a6c213" d="M186.45 165.81c-1.33.01-2.65.01-3.98.02-1.55-.16-1.98 1.36-3.01 1.99-1.12-.48-3.87.8-3.11-1.38.58-1.65 1.61-5.24 4.37-4.29 1.94.66 4.96.74 5.73 3.66"/><path fill="#a4c513" d="M192.45 163.81c-1 0-1.99.01-2.99.01-.51-2.7 1.94-3.43 3.42-4.47.65-.45 1.5 1.29 1.58 2.47-1.28.05-1.95.71-2.01 1.99"/><path fill="#277068" d="M136.47 104.87v.99c-6.05.07-12.1.15-18.15.21-.1 0-.31-.28-.28-.38.09-.29.28-.55.42-.83 6.01.28 12.01-2.22 18.01.01"/><path fill="#217369" d="M124.72 107.12h9.65v.5h-9.62z"/><path fill="#2c6b67" d="M124.47 115.85c-.66 0-1.33.01-1.99.01-.52-.57-1.58-1.49-1.47-1.67.74-1.17 2.2-.84 3.17-.65 1.37.27.57 1.46.29 2.31"/><path fill="#256b7d" d="M127.47 115.87c.66 0 1.33 0 1.99-.01v3.97c-.83.02-1.56-.16-2.02-.94z"/><path fill="#03534c" d="m146.46 95.87 1.05 1.98c-1.2.72-1.01 1.92-1.05 3.04-1 .32-2 .63-3 .95-2.08-.99-4.3-.26-6.44-.49-4.18.26-8.4-.56-12.54.47-1.67 0-3.34-.01-5.01-.01-2.57-1.99-1.61-4.58-1.21-7.09.18-.77.5-1.47 1.07-2.04 1.61-.58 3.01-.08 4.32.85 3.04 6.01 3.2 6.3 9.08 3.03 3.43-1.91 6.33-.36 9.48-.12 1.14.05 2.04-.66 3.08-.97.45-.06.85.07 1.17.4"/><path fill="#084f4a" d="M119.47 94.87c-.08 2.32-1.22 4.63 0 6.95-2.33.02-4.66.03-7 .05-.21-.96-.81-2.64-.56-2.78 4.54-2.51.69-5.48.56-8.21 3.35-.43 5 2.08 7 3.99"/><path fill="#0c534e" d="M124.48 101.83c4.2-2.1 8.67-.42 12.99-.96.34.22.45.43.34.65-.11.21-.22.32-.34.32-4.33 0-8.66-.01-12.99-.01"/><path fill="#065952" d="M137.47 101.84v-.97c2 .3 4.23-.78 5.99.98-2-.01-4-.01-5.99-.01"/><path fill="#0d524d" d="M119.47 94.87c-2.83-.47-4.6-2.77-6.99-4-.3-3.37.24-6.68-1.31-10.13-1-2.22.82-5.4 2.31-7.85 3.24.23 4.7 1.9 4.21 5.17-.31.76-1.72 1.21-.43 2.4 4.19 3.87 4.7 6.96 2.21 12.42z"/><path fill="#115450" d="M117.48 77.88c-.7-2.17-2.26-3.65-4-4.99 0-2.87.41-4.94 4.06-2.82 1.22.7 2.27 2 3.93 1.82 2.33 1.12 2.83 2.76 1.41 4.96-1.52 1.81-3.2 2.8-5.4 1.03"/><path fill="#075a51" d="M122.47 75.88c1.3-1.74-1.31-2.5-1.01-4 0-.33 0-.67.01-1 1.02-.55 1.81.02 2.6.54 2.41 2.72 6 4.5 6.89 8.46-2.98 1.43-4.56.85-7.88-2.87-.25-.35-.45-.72-.61-1.13"/><path fill="#2a7b70" d="M123.46 71.92c-.66-.35-1.33-.69-1.99-1.04l-6.02-6.98c.19-.14.39-.28.58-.43 3.83 1.1 7.06 2.86 8.03 7.17a2.1 2.1 0 0 1-.6 1.28"/><path fill="#237b70" d="M112.48 58.9c.71 1.16 1.89.96 2.98 1.01.44 1.32 1.22 2.65.02 3.98l-.03.02c-1.9-.28-3.13-1.43-3.99-3.07.05-.81.24-1.53 1.02-1.94"/><path fill="#18acaf" d="M120.47 39.92c-.33 0-.67-.01-1-.01v-1c.37-.14.52-.4.41-.78-.05-.16-.22-.23-.42-.23-.34-.01-.68-.01-1.02-.02.02-1.3.05-2.59.07-3.89.32-.36.64-.71.96-1.07 2.24-1.41 3.07-4.53 6.08-5.01 1.7.4 3.48.67 1.83 3.14-.77 1.16-1.16 2.57-1.38 4.19 1.57-2.41 3.24-4.31 6.38-3.24-.14-1.78-2.33-.51-2.35-2.15 3.5-.64 5.64-3.08 7.44-5.94-.59-.66-.59-1.33-.01-2 .67.33 1.33.66 2 .99 1.33 2.04 1.38 4.25-.32 5.86-2.6 2.46-.77 3.9.8 5.55-.54 5.56-5.59 5.21-8.98 6.04-3.25.82-7.03.72-10.49-.43"/><path fill="#4dc2e2" d="M125.54 27.92c-1.7 2.06-3.1 4.49-6.08 5.01.47-4.86 5.83-6.6 7.01-11 .32-.42.65-.45.99-.01 1.03.02 2.07.04 3.1.07-1.67 1.97-3.34 3.95-5.02 5.93"/><path fill="#55c1fa" d="M127.47 21.92c-.33.01-.66.01-.99.01-1.47.72-2.59.52-2.89-1.28-.2-1.22.13-2.13 1.5-2.69 2.61-1.06 5.13-2.35 8.02-3.7-.17 3.5-2.77 4.48-4.78 5.54-1.3.69-1.25 1.13-.86 2.12"/><path fill="#45bcdc" d="M135.38 17.88c-.81 1.82-2.19 3.09-3.92 4.02.29-2.32 1.63-3.64 3.92-4.02"/><path fill="#12adaf" d="M139.47 33.92c-1.34-.2-3.08.57-3.76-1.34-.54-1.49.37-2.67 1.49-3.26 2.84-1.49 1.41-4.32 2.27-6.4-.02-1.1.15-2.27-1-3 1.59-1.06 3.19-2.11 4.78-3.19 1.51-1.02 2.02-.22 2.22 1.19-.04.16-.07.33-.1.49.05.9.92 1.04 1.43 1.54 1.14 4.9 3.78 9.78.15 14.73-2.62.96-5.15 1.09-7.48-.76"/><path fill="#0ea5aa" d="M137.46 21.93c0 .67 0 1.33.01 2-1.2-.18-3.15.38-3.05-1.42.06-1.06 1.97-.42 3.04-.58"/><path fill="#08afaf" d="M147.46 33.92c.08-4.77-.38-9.46-2-13.99-.59-.66-.59-1.33 0-2 .95-.38 1.61-1.05 2-1.99-.54-2.98.85-3.07 3.01-2 1.87 1.19.13 3.8 1.99 4.99-1.66 4.91-.77 9.99-.99 14.99-.1.21-.19.41-.29.62-1.32.85-1.8 3.53-4.24 1.96-.36-.98-.24-1.85.52-2.58"/><path fill="#09abb2" d="M150.47 13.93c-1.46-.01-2.89 0-3.01 2-6.21-3.75.65-5.99 1.04-8.98.32.33.64.66.97.99 2.58 1.62-.43 4.18 1 5.99"/><path fill="#04a4aa" d="M119.46 37.91c.67-.8 1.8-1.54 2.2-.31.32.99-1.22 1.2-2.19 1.31 0-.33 0-.67-.01-1"/><path fill="#15b4af" d="M153.46 47.89c-1.01.65-1.45 2.17-3 2.01-2.44-3.09 1.36-4.95 1.48-7.54.17-.15.35-.3.52-.45 1.79 1.75.69 3.98 1 5.98"/><path fill="#14afb2" d="M151.47 33.91c1.98 2.46.57 5.34 1 7.99l-.01.01c-2.11.93-2.63-.43-2.69-2.04-.08-2.13.18-4.24 1.7-5.96"/><path fill="#2a5633" d="M161.55 94.94c-1.34-1.52.92-1.95.92-3.07 1-.2 1.98-3.71 2.99-.01-.75 1.74-2.55 2.13-3.91 3.08"/><path fill="#1f502e" d="M164.04 85.58c-.26-.31-.96-.79-.91-1.19.05-.43.76-.85 1.26-1.09.13-.06.76.52.85.87.16.64-.04 1.27-1.2 1.41m-4.57 3.3v-3c3.08 1 1.56 2 0 3"/><path fill="#11b2b1" d="M151.47 33.92c1.15 2.56-2.28 5.7.99 8 1.24 3.14-2.7 4.98-2 7.99l-27-.03c0-.66 0-1.31.01-1.97.6-.51 1.23-.96 2.01-1.16 8.24-1.24 16.34-2.8 21.99-9.83 1.34-1 1.77-3.19 4-3"/><path fill="#057e6f" d="M143.47 63.89c.44 3.62-2.45 4.44-4.84 5.31s-3.6 2.11-3.16 4.69c-2.99.79-5.48-.86-8.14-1.67-1.56-2.8-2.36-5.59.14-8.32 5.33 0 10.66 0 16-.01"/><path fill="#157b6c" d="M127.47 63.9c-.86 2.66.32 5.32.01 7.99.58.59.59 1.24.24 1.94-2.48.57-2.68-2.18-4.25-2.93-1.79-3.33-4.23-5.91-7.99-7-.06-1.33-.97-2.65-.02-3.98 3.17 3.82 7.36 4.58 12.01 3.98"/><path fill="#14afb2" d="M147.47 36.91c-.93 4.15-2.33 6.82-7.7 7.37-4.71.48-8.9 4.6-14.3 3.62-1.01-1.16-1.37-2.49-1-4-.11-1.69-1.23-2.07-2.65-1.99-1.63.1-1.96-.62-1.35-2.01 4.46-2.46 9.54.22 14.21-1.85 2.25-1 4.02-1.78 4.79-4.15h8z"/><path fill="#09adb1" d="M124.47 43.91c.68 1.24 1.15 2.54 1 4h-2c.13-1.39-.44-2.95 1-4"/><path fill="#168573" d="M150.47 69.89c2.07-1.53-.08-4.47 1.99-6v9.99c0 5.33.01 10.66.01 15.98h-.01c-1.63.07-3.21.25-3.99 2-2.08.14-3.71-2.44-6.01-.99-.21-.12-.41-.24-.63-.36-1.09-1.31-2.43-2.56-1.17-4.49.95-.98 2.18-1.32 3.47-1.5 3.55.09 4.88-1.66 4.91-5.16.04-3.17-.96-6.61 1.43-9.47"/><path fill="#108976" d="M148.46 91.88c.28-1.23-1.55-2.61-.09-3.6 1.86-1.26 2.89.6 4.09 1.59-.17 1.39.43 2.87-.46 4.17-1.9.39-2.36-1.46-3.54-2.16"/><path fill="#065952" d="M146.46 95.87h-1.01c-1.7.68-2.84-.67-4.23-1.14-1.02-.56-1.72-1.39-2.13-2.48-.12-.44-.12-.88-.04-1.33.27-.65.72-1.11 1.37-1.39 1.1-.2 1.49.69 2.03 1.35v-.01c1.34 1.68 2.68 3.34 4.01 5"/><path fill="#0c8571" d="M150.47 69.89v8.8c0 7.17 0 7.17-7 7.18-1.02-1.08-2.45-.65-3.68-.99-.68-.19-1.28-.5-1.7-1.1-.26-.71-.22-1.37.38-1.91 6.99-.01 6.96-.01 7.02-6.92.02-1.96-.56-4.07.58-5.85.75-1.17 1.24-3.18 3-2.93 2.1.33 1.15 2.38 1.4 3.72"/><path fill="#0f7f6e" d="M138.47 81.88v1.99c-1.81 1.16-2.65-.26-3.63-1.33-2.35-2.98-3.93-6.61-7.36-8.67v-1.99c2.95-.48 5.54.48 7.99 2.01 1.94 2.31 1.53 5.5 3 7.99"/><path fill="#06554f" d="M122.47 75.88h1c-.52 3.36 3.15 4.33 3.96 6.94.01 4.16 1.14 8.72-3.96 11.05-1.45.15-2.75-.32-4-1 0-2.62-.05-5.24 0-7.86.04-1.94-.56-3.15-2.76-3.14-1.47.01-3.26.05-3.08-2.13.21-2.51 2.35-1.63 3.83-1.86 2.08.34 3.73-.38 5.01-2"/><path fill="#0c534e" d="M123.47 93.87c2.87-3.53 3.01-7.74 3-11.99 1.75-.24 2.43.05 1.91 1.3-1.31 3.13 2.14 1.86 2.54 3.22 1.23 3.25-1.54 5.58-2.08 8.99 1.96-1.36 2.85-2.93 3.61-4.65.71-1.63 1.19-3.61 3.67-3.31 1.3.69 1.02 1.93 1.02 3.05 0 1.8 1.09 1.72 2.34 1.39.67.67 1.33 1.34 2 2 1.3 1.01 2.72 1.97 1.99 3.99-4.65-.49-9.03-1.09-13.62 1.66-3.75 2.25-5.97-.12-6.38-5.65"/><path fill="#165955" d="M143.47 97.87c-.66-1.33-1.33-2.66-1.99-3.99 1.73-.13 2.61 1.42 3.98 2-.37.95-1.04 1.61-1.99 1.99"/><path fill="#135651" d="M130.47 86.88c-4.41.5-2.46-3.06-3.17-4.93-.04-.12-.25-.23-.38-.24-.15-.01-.3.11-.45.18-2.6-1.2-4.56-2.72-3-5.99 2.24 1.5 3.63 4.51 7.03 3.93 1.02-.17 1.55.46 2.04 1.2 1.52 4.84 1.38 5.24-2.07 5.85"/><path fill="#29796e" d="m131.47 80.88-.97-1.06c-2.34-2.63-4.69-5.26-7.04-7.89 0-.34.01-.69.01-1.03 2.22-.19 2.66 2 4 2.98 5.65-.31 5.42 5.25 8.01 8 .47.92-.12 1.24-.84 1.5-1.77.07-2.27-1.46-3.17-2.5"/><path fill="#09abb2" d="M145.47 17.93v2c-.76-.19-2.17-.39-2.17-.56.04-1.32 1.2-1.3 2.17-1.44"/><path fill="#227d70" d="M134.45 82.89c.34-.34.69-.68 1.03-1.02 1.02.63 1.45 2.15 2.99 2 .66.01 1.33.01 1.99.02.31.99.27 1.99.02 2.98.56 1.39 2.14 2.28 1.97 4.02-.66-.34-1.33-.67-1.99-1.01-1.49.63-1.97-.69-2.76-1.41-1.18-1.8-4.06-2.62-3.25-5.58"/><path fill="#0d8070" d="M140.48 86.87c-.63-.99-.63-1.98-.02-2.98 1.44 0 2.44.67 3.01 1.99-1 .33-1.99.66-2.99.99"/><path fill="#195451" d="M139.47 91.87c-.11.98-.17 2.17-1.36 2.31-1.34.16-2.23-1.03-2.32-2.06-.12-1.39.41-2.82.67-4.24.32-.33.69-.4 1.11-.2 1.05.82 1.53 1.97 1.88 3.2.01.33.02.66.02.99"/><path fill="#0c534e" d="M139.46 90.88c-.66-1-1.32-2-1.99-3 .33-.38.67-.4 1.02-.01l1.98 2.01c-.34.34-.68.67-1.01 1"/><path fill="#04564f" d="M138.49 87.87c-.34 0-.68.01-1.02.01h-1.01c-4.23 2.28-3.44 8.37-8.45 10.16-2.68-4.18 2.55-7.22 2.46-11.16 4.09-1.38.77-3.99 1-6 .99.67 1.99 1.34 2.98 2.01 1.35 1.66 2.69 3.32 4.04 4.98"/></svg>