<svg xmlns="http://www.w3.org/2000/svg" width="348" height="84" fill="none" viewBox="0 0 348 84"><g clip-path="url(#a)"><path fill="#142149" d="m347.68 60.4-8.75-15.09a13.598 13.598 0 0 0 3.268-23.043A13.6 13.6 0 0 0 333.6 19.2h-19.2a2.39 2.39 0 0 0-2.22 1.48c-.12.292-.181.604-.18.92v40a2.4 2.4 0 0 0 2.4 2.4h1.6a2.4 2.4 0 0 0 2.4-2.4V46.4h14l9.52 16.4A2.4 2.4 0 0 0 344 64h1.63a2.41 2.41 0 0 0 2.08-1.2 2.4 2.4 0 0 0 0-2.4zM318.4 25.6h15.2a7.198 7.198 0 0 1 5.091 12.291A7.2 7.2 0 0 1 333.6 40h-15.2zm-20-6.4h-33.6a2.39 2.39 0 0 0-2.22 1.48c-.12.292-.181.604-.18.92v1.6a2.4 2.4 0 0 0 .7 1.7 2.4 2.4 0 0 0 1.7.7h13.6v36a2.4 2.4 0 0 0 2.4 2.4h1.6a2.41 2.41 0 0 0 2.4-2.4v-36h13.6a2.4 2.4 0 0 0 2.4-2.4v-1.6a2.4 2.4 0 0 0-.703-1.697 2.4 2.4 0 0 0-1.697-.703m-35.2 38.4h-21.6v-36a2.38 2.38 0 0 0-.7-1.7 2.38 2.38 0 0 0-1.7-.7h-1.6a2.39 2.39 0 0 0-2.4 2.4v40a2.4 2.4 0 0 0 2.4 2.4h25.6a2.4 2.4 0 0 0 2.4-2.4V60a2.38 2.38 0 0 0-.7-1.7 2.38 2.38 0 0 0-1.7-.7m-40.8-36a2.4 2.4 0 0 0-.7-1.7 2.38 2.38 0 0 0-1.7-.7h-1.6a2.39 2.39 0 0 0-2.4 2.4v24.8a12 12 0 0 1-12 12 12 12 0 0 1-12-12V21.6a2.4 2.4 0 0 0-2.4-2.4H188a2.39 2.39 0 0 0-2.4 2.4v24.8A18.4 18.4 0 0 0 204 64.8a18.4 18.4 0 0 0 18.4-18.4zm-48.8-2.4h-1.51a2.38 2.38 0 0 0-2.23 1.51L156 55.35l-13.86-34.64a2.38 2.38 0 0 0-2.23-1.51h-1.51a2.4 2.4 0 0 0-2.23 3.29l16 40A2.39 2.39 0 0 0 154.4 64h3.2a2.39 2.39 0 0 0 2.23-1.51l16-40a2.398 2.398 0 0 0-2.23-3.29"/><path fill="#c9f4ff" d="M33.45 2.24A4.78 4.78 0 0 0 29.39 0H4.8A4.8 4.8 0 0 0 .74 7.36l5 8 32.71-5.12z"/><path fill="#51b9ff" d="M38.49 10.24A4.78 4.78 0 0 0 34.43 8H9.84a4.8 4.8 0 0 0-4.06 7.36l7.06 11.2 32.71-5.12z"/><path fill="#007bfc" d="M12.84 26.56a4.8 4.8 0 0 1 4.06-7.36h24.59a4.78 4.78 0 0 1 4.06 2.24l22 34.9a4.8 4.8 0 0 1 0 5.12L55.26 81a4.8 4.8 0 0 1-8.12 0zM74.85 37A4.8 4.8 0 0 0 83 37l4.2-6.7 8.06-12.79a4.8 4.8 0 0 0 0-5.12l-6.4-10.15A4.78 4.78 0 0 0 84.8 0H60.21a4.8 4.8 0 0 0-4.06 7.36z"/></g><defs><clipPath id="a"><path fill="#fff" d="M0 0h348v83.2H0z"/></clipPath></defs></svg>