<svg xmlns="http://www.w3.org/2000/svg" width="338" height="310" fill="none" viewBox="0 0 338 310"><path fill="#2bace4" fill-rule="evenodd" d="M269.8 1.2c-.33.213-1.174.391-1.876.394s-1.388.186-1.524.406-.957.4-1.824.4-1.576.18-1.576.4-.705.4-1.567.4c-.861 0-1.626.174-1.7.387-.073.213-.732.433-1.463.488s-1.418.24-1.524.412-.725.313-1.375.313-1.494.158-1.876.351c-1.318.666-3.555 1.249-4.79 1.249-.681 0-1.298.172-1.372.382-.073.211-.796.427-1.607.481s-1.385.241-1.277.417c.159.257-1.732.443-2.904.286-.141-.019-.371.153-.512.381-.142.229-.915.46-1.719.515s-1.373.242-1.265.418-.532.32-1.425.32S235 9.78 235 10s-.72.4-1.6.4-1.6.18-1.6.4-.72.4-1.6.4-1.6.18-1.6.4-.63.4-1.4.4-1.4.18-1.4.4-.63.4-1.4.4-1.4.18-1.4.4-.799.4-1.776.4-1.888.18-2.024.4-.766.4-1.4.4-1.266.183-1.404.407-.42.301-.627.174c-.207-.128-.735-.119-1.174.021-.793.251-.797.616-.696 60.125L214 135l1.7.123c1.006.073 1.7-.05 1.7-.3 0-.233.594-.423 1.32-.423s1.491-.17 1.7-.378c.209-.207 1.225-.42 2.258-.473s1.787-.243 1.677-.423c-.111-.179.528-.326 1.421-.326s1.624-.18 1.624-.4.63-.4 1.4-.4 1.4-.155 1.4-.344c0-.19.945-.472 2.1-.627l2.7-.363c.33-.045.96-.262 1.4-.484s1.16-.393 1.6-.381 1.22-.191 1.733-.45 1.233-.424 1.6-.367.762-.044.879-.222c.117-.179.882-.37 1.7-.425s1.488-.244 1.488-.419.572-.318 1.272-.318c1.206 0 3.167-.499 4.928-1.254.44-.188 1.373-.381 2.072-.427.7-.047 1.184-.228 1.077-.402-.177-.287 1.708-.508 2.951-.347.275.036.5-.123.5-.352 0-.23.615-.418 1.367-.418.751 0 1.426-.172 1.5-.382.073-.211.821-.429 1.661-.484.841-.056 1.616-.244 1.724-.418s.815-.316 1.572-.316 1.376-.18 1.376-.4.619-.4 1.376-.4 1.488-.18 1.624-.4.921-.4 1.744-.4 1.712-.216 1.976-.48c.369-.369.48-14.284.48-60.2V.8l-2.1.006c-1.155.003-2.37.181-2.7.394m-73.259 34.336c-.078.209-.861.494-1.741.633-.88.138-2.275.361-3.1.494s-1.5.399-1.5.59-.529.347-1.176.347-1.288.18-1.424.4-.957.4-1.824.4-1.576.18-1.576.4-.705.4-1.567.4c-.861 0-1.626.163-1.7.363-.073.2-.763.421-1.533.491s-1.49.25-1.6.397-.83.328-1.6.4-1.495.262-1.612.422-.882.335-1.7.39-1.488.244-1.488.419-.619.318-1.376.318-1.488.18-1.624.4-.766.4-1.4.4-1.264.18-1.4.4-.856.4-1.6.4-1.464.18-1.6.4-.856.4-1.6.4-1.464.18-1.6.4-.957.4-1.824.4-1.576.18-1.576.4-.439.4-.976.4-1.088.18-1.224.4-1.047.4-2.024.4-1.776.18-1.776.4-.72.4-1.6.4-1.6.155-1.6.345-.451.258-1.002.152c-.552-.105-1.278.037-1.614.316-.337.28-1.145.493-1.798.474-.652-.018-1.186.145-1.186.363 0 .219-.153.303-.339.187s-.727.151-1.2.592l-.861.802v51.542c0 53.266-.007 53.03 1.451 51.629.192-.184.979-.391 1.749-.46.77-.068 1.495-.254 1.61-.412.116-.158.971-.332 1.9-.387.93-.055 1.69-.224 1.69-.376 0-.282 1.423-.64 4.1-1.032.825-.12 1.5-.36 1.5-.533 0-.312 1.427-.634 4.7-1.061.935-.122 1.7-.383 1.7-.581s.72-.36 1.6-.36 1.6-.18 1.6-.4.6-.4 1.333-.4c.734 0 1.46-.126 1.614-.28.321-.321 6.893-1.789 7.953-1.778.385.005.7-.161.7-.367s.72-.375 1.6-.375 1.6-.18 1.6-.4.774-.4 1.72-.4 1.894-.174 2.107-.387c.212-.212.968-.43 1.68-.485.711-.054 1.293-.24 1.293-.413s.594-.315 1.32-.315 1.491-.165 1.7-.366c.209-.202 1.01-.423 1.78-.492.77-.068 1.49-.245 1.6-.392s.74-.325 1.4-.394 1.392-.262 1.627-.429c.234-.167.987-.346 1.672-.398s1.157-.238 1.05-.412c-.108-.174.524-.317 1.404-.317s1.705-.171 1.834-.379c.129-.209.235-23.744.236-52.3l.002-51.921-1.372-.122c-.754-.067-1.435.049-1.512.258M122.2 38.073c0 .18-.619.327-1.376.327s-1.488.18-1.624.4-.766.4-1.4.4-1.264.18-1.4.4-.856.4-1.6.4-1.464.18-1.6.4-.957.4-1.824.4-1.576.18-1.576.4-.731.4-1.624.4c-.98 0-1.525.158-1.376.4.151.245-.47.4-1.6.4s-1.751.155-1.6.4c.149.242-.396.4-1.376.4-.893 0-1.624.18-1.624.4s-.72.4-1.6.4-1.6.18-1.6.4-.72.4-1.6.4-1.6.18-1.6.4-.619.4-1.376.4-1.488.18-1.624.4-.856.4-1.6.4-1.464.18-1.6.4-.856.4-1.6.4-1.464.18-1.6.4-.867.4-1.624.4-1.376.164-1.376.365-.524.283-1.165.182-1.281.004-1.424.235c-.142.23-.797.418-1.454.418-.658 0-1.705.263-2.326.584s-1.238.476-1.371.343c-.132-.133-.55.01-.927.316-.595.483-.64.477-.333-.043.293-.498.249-.516-.26-.104-.337.273-1.137.565-1.777.648-1.276.165-2.389.515-3.458 1.085-.382.204-1.042.371-1.467.371-2.198 0-2.038-4.752-2.038 60.443V172.8h1.776c.977 0 1.888-.18 2.024-.4s.946-.4 1.8-.4 1.664-.18 1.8-.4.777-.4 1.424-.4 1.176-.18 1.176-.4.72-.4 1.6-.4 1.6-.161 1.6-.358.675-.46 1.5-.585c3.58-.541 4.5-.766 4.5-1.101 0-.196.619-.356 1.376-.356s1.488-.18 1.624-.4 1.036-.4 2-.4 1.864-.18 2-.4.777-.4 1.424-.4 1.176-.18 1.176-.4.63-.4 1.4-.4 1.4-.155 1.4-.345 1.207-.468 2.683-.619c1.475-.152 2.87-.429 3.1-.617.229-.189 1.047-.395 1.817-.46s1.58-.245 1.8-.401c.22-.155.94-.386 1.6-.513a82 82 0 0 0 3-.662c.99-.238 2.34-.534 3-.658s1.404-.388 1.654-.586c.249-.198 1.104-.384 1.9-.414s1.446-.205 1.446-.39c0-.184.731-.335 1.624-.335.98 0 1.525-.158 1.376-.4s.436-.4 1.496-.4c.959 0 1.96-.216 2.224-.48.369-.369.48-14.357.48-60.527V37.745h-1.2c-.66 0-1.2.148-1.2.328m150.304 96.801c-.057.165-.703.346-1.434.401-.732.055-1.418.24-1.524.412s-.777.313-1.49.313-1.467.171-1.677.381c-.209.209-1.044.425-1.854.48s-1.396.223-1.302.376c.16.259-.397.396-4.123 1.01-.825.136-1.692.401-1.927.588-.234.188-.987.384-1.672.436s-1.169.22-1.075.372-.593.376-1.527.498c-3.259.426-4.708.75-4.926 1.103-.121.196-.84.356-1.597.356s-1.376.18-1.376.4-.619.4-1.376.4-1.488.18-1.624.4-.957.4-1.824.4-1.576.18-1.576.4-.72.4-1.6.4-1.6.18-1.6.4-.619.4-1.376.4-1.488.18-1.624.4-.867.4-1.624.4-1.376.18-1.376.4-.72.4-1.6.4-1.6.18-1.6.4-.709.4-1.576.4-1.688.18-1.824.4-.657.4-1.157.4-1.039.13-1.198.288c-.158.159-.89.236-1.626.173s-1.457.077-1.602.312-.758.427-1.361.427c-2.137 0-2.056-1.225-2.056 31.253v30.293l.85.27c.467.148.962.095 1.1-.118.238-.369 1.335-.656 4.45-1.164.77-.126 1.604-.392 1.854-.592.249-.2 1.104-.387 1.9-.417s1.446-.205 1.446-.39c0-.184.619-.335 1.376-.335s1.488-.18 1.624-.4.676-.4 1.2-.4 1.064-.18 1.2-.4.946-.4 1.8-.4 1.664-.18 1.8-.4.957-.4 1.824-.4 1.576-.18 1.576-.4.619-.4 1.376-.4 1.488-.18 1.624-.4.867-.4 1.624-.4 1.376-.18 1.376-.4.709-.4 1.576-.4 1.688-.18 1.824-.4.777-.4 1.424-.4 1.176-.18 1.176-.4.63-.4 1.4-.4 1.4-.18 1.4-.4.799-.4 1.776-.4 1.888-.18 2.024-.4.856-.4 1.6-.4 1.464-.18 1.6-.4.777-.4 1.424-.4 1.176-.18 1.176-.4.81-.4 1.8-.4 1.8-.157 1.8-.348c0-.192 1.26-.473 2.8-.625 1.54-.151 2.8-.445 2.8-.651s.435-.376.967-.376c2.404 0 2.233 2.395 2.233-31.238v-30.753l-.996.082c-.547.046-1.042.218-1.1.383M197.8 153.6c-.33.213-1.095.391-1.7.394s-1.1.186-1.1.406-.731.4-1.624.4c-.98 0-1.525.158-1.376.4.211.341-1.607.632-2.73.437-.181-.031-.215.128-.076.353.153.248-.31.43-1.17.46-1.918.067-2.11.102-2.457.45-.165.165-.9.3-1.634.3s-1.333.18-1.333.4-.525.4-1.167.4c-.641 0-1.226.165-1.3.366-.073.201-.943.417-1.933.48s-1.895.25-2.012.416-.87.345-1.674.4c-.804.054-1.373.242-1.265.418s-.442.32-1.225.32-1.424.18-1.424.4-.619.4-1.376.4-1.488.18-1.624.4-1.057.4-2.047.4c-1.098 0-1.704.156-1.553.4s-.47.4-1.6.4-1.751.155-1.6.4c.144.233-.255.4-.953.4-.66 0-1.311.18-1.447.4s-.946.4-1.8.4-1.657.169-1.785.375c-.127.207-.611.303-1.074.214-.464-.09-1.135-.008-1.492.181s-1.279.442-2.049.563-2.12.492-3 .825c-.88.334-2.194.615-2.92.624s-1.867.301-2.536.647-1.448.54-1.731.431c-1.388-.532-1.413.17-1.413 39.027v38.328l2-.071c1.1-.039 2-.187 2-.329s.765-.303 1.7-.357 1.76-.269 1.833-.478c.074-.209.839-.38 1.7-.38.862 0 1.567-.18 1.567-.4s.525-.4 1.167-.4c.641 0 1.226-.171 1.3-.379.073-.209.988-.434 2.033-.5 1.045-.067 1.9-.256 1.9-.421s.529-.3 1.176-.3 1.288-.18 1.424-.4.856-.4 1.6-.4 1.452-.16 1.573-.356c.218-.353 1.667-.678 4.927-1.103.935-.122 1.7-.383 1.7-.581s.54-.36 1.2-.36 1.2-.18 1.2-.4.799-.4 1.776-.4 1.888-.18 2.024-.4.698-.4 1.25-.4c.551 0 1.331-.176 1.732-.39s1.289-.433 1.973-.485 1.245-.237 1.245-.41.529-.315 1.176-.315 1.288-.18 1.424-.4 1.047-.4 2.024-.4 1.776-.18 1.776-.4.731-.4 1.624-.4c.98 0 1.525-.158 1.376-.4-.147-.238.329-.4 1.176-.4.783 0 1.424-.18 1.424-.4s.72-.4 1.6-.4 1.6-.18 1.6-.4.81-.4 1.8-.4 1.802-.135 1.805-.3c.009-.511.012-76.667.003-77.249-.007-.465-.111-.465-.685 0-.46.373-.58.389-.376.049.358-.597.252-.616-.547-.1m-75.4 18.775c-1.728.693-3.66 1.205-4.9 1.298-.715.053-1.3.239-1.3.412s-.525.315-1.167.315c-.641 0-1.226.163-1.3.363-.073.2-.763.421-1.533.491s-1.494.257-1.609.414-1.06.33-2.1.384-1.891.223-1.891.377c0 .267-1.009.534-3.904 1.034-.717.124-1.402.386-1.523.581-.121.196-1.02.356-1.997.356s-1.776.18-1.776.4-.54.4-1.2.4c-.69 0-1.203.212-1.206.5q-.007.5-.394-.1t-.394-.1c-.004.304-.556.5-1.406.5-.77 0-1.4.18-1.4.4s-.405.402-.9.405c-1.423.009-8.107 1.463-9.056 1.972-.473.253-1.024.359-1.225.235-.2-.124-.477-.042-.615.181-.138.224-.835.407-1.548.407s-1.484.188-1.715.419c-.23.23-1.031.472-1.78.538-.748.065-1.631.233-1.961.372-1.303.55-5.491 1.593-7.1 1.767l-1.7.185v60.837l3.5-.231c1.925-.128 4.13-.491 4.9-.808.77-.316 1.609-.499 1.863-.406a.634.634 0 0 0 .724-.252c.143-.231.88-.421 1.637-.421s1.376-.142 1.376-.315.495-.357 1.1-.41c1.775-.152 2.459-.301 2.755-.597.153-.153.788-.278 1.412-.278s1.133-.18 1.133-.4.619-.4 1.376-.4 1.488-.18 1.624-.4.946-.4 1.8-.4 1.664-.18 1.8-.4.766-.4 1.4-.4 1.264-.18 1.4-.4.867-.4 1.624-.4 1.376-.18 1.376-.4.684-.4 1.52-.4 1.691-.171 1.901-.381c.209-.209 1.055-.426 1.88-.482.824-.055 1.499-.244 1.499-.419s.525-.318 1.167-.318c.641 0 1.226-.171 1.3-.38.073-.209.91-.425 1.859-.48s1.814-.244 1.923-.42.807-.32 1.551-.32 1.464-.18 1.6-.4.867-.4 1.624-.4 1.376-.18 1.376-.4.525-.4 1.167-.4c.641 0 1.226-.17 1.3-.379.073-.208.988-.421 2.033-.474s1.9-.243 1.9-.422.54-.325 1.2-.325h1.2v-30.4c0-21.129-.129-30.4-.424-30.4-.233 0-.312-.18-.176-.4.29-.469-.464-.48-1.6-.025" clip-rule="evenodd"/><path fill="#2c2c2c" fill-rule="evenodd" d="M.443 271.033c-.511 1.332.483 5.986 1.766 8.262.215.382.391 1.046.391 1.476s.18.893.4 1.029.4.676.4 1.2.144 1.042.321 1.151c.176.109.569 1.11.872 2.224s.699 2.025.879 2.025.328.54.328 1.2.18 1.2.4 1.2.4.54.4 1.2.18 1.2.4 1.2.4.54.4 1.2.18 1.2.4 1.2.4.439.4.976.18 1.088.4 1.224.4.766.4 1.4.18 1.264.4 1.4.4.597.4 1.024.18.776.4.776.4.54.4 1.2.18 1.2.4 1.2.4.54.4 1.2.18 1.2.4 1.2.4.54.4 1.2v1.2h9.2v-.976c0-.537.18-1.088.4-1.224s.4-.597.4-1.024.18-.776.4-.776.4-.54.4-1.2.18-1.2.4-1.2.4-.54.4-1.2.18-1.2.4-1.2.4-.54.4-1.2.18-1.2.4-1.2.4-.439.4-.976.18-1.088.4-1.224.4-.687.4-1.224.18-.976.4-.976.4-.54.4-1.2.18-1.2.4-1.2.4-.54.4-1.2c0-.933.178-1.2.8-1.2s.8.267.8 1.2c0 .66.18 1.2.4 1.2s.4.54.4 1.2.18 1.2.4 1.2.4.439.4.976.18 1.088.4 1.224.4.687.4 1.224.18.976.4.976.4.33.4.733c0 .404.131.864.29 1.024.16.159.506 1.349.77 2.643s.751 2.949 1.083 3.677c.331.727.662 1.683.735 2.123.122.739.488.809 4.827.913l4.695.112v-1.212c0-.667.18-1.213.4-1.213s.4-.349.4-.776.18-.888.4-1.024.4-.599.4-1.029.162-1.094.361-1.476c.62-1.196 3.239-9.695 3.239-10.515 0-.429.18-.78.4-.78s.4-.54.4-1.2.18-1.2.4-1.2.4-.54.4-1.2.18-1.2.4-1.2.4-.54.4-1.2.18-1.2.4-1.2.4-.54.4-1.2.18-1.2.4-1.2.4-.439.4-.976.18-1.088.4-1.224.4-.687.4-1.224.18-.976.4-.976.4-.54.4-1.2.18-1.2.4-1.2.4-.54.4-1.2.18-1.2.4-1.2.4-.54.4-1.2v-1.2h-4.829c-5.253 0-5.971.261-5.971 2.171 0 .566-.18 1.029-.4 1.029s-.4.54-.4 1.2-.18 1.2-.4 1.2-.4.54-.4 1.2-.18 1.2-.4 1.2-.4.72-.4 1.6-.18 1.6-.4 1.6-.4.439-.4.976-.18 1.088-.4 1.224-.4.676-.4 1.2-.18 1.064-.4 1.2-.4.687-.4 1.224-.169.976-.376.976-.432.674-.5 1.497c-.163 1.969-1.524 2.445-1.524.532 0-.676-.18-1.229-.4-1.229s-.4-.54-.4-1.2-.18-1.2-.4-1.2-.4-.54-.4-1.2-.18-1.2-.4-1.2-.4-.439-.4-.976-.18-1.088-.4-1.224-.4-.687-.4-1.224-.18-.976-.4-.976-.4-.54-.4-1.2-.18-1.2-.4-1.2-.4-.54-.4-1.2-.156-1.2-.346-1.2-.46-.835-.6-1.856c-.351-2.565-.973-2.916-5.183-2.931-3.868-.014-4.671.357-4.671 2.158 0 .566-.18 1.029-.4 1.029s-.4.54-.4 1.2-.18 1.2-.4 1.2-.4.54-.4 1.2-.18 1.2-.4 1.2-.4.54-.4 1.2-.18 1.2-.4 1.2-.4.439-.4.976-.18 1.088-.4 1.224-.4.676-.4 1.2-.18 1.064-.4 1.2-.4.599-.4 1.029-.165 1.094-.367 1.476-.685 1.775-1.074 3.095l-.708 2.4-.492-2.4c-.27-1.32-.701-3.12-.958-4s-.563-2.097-.68-2.705-.372-1.203-.567-1.324c-.195-.12-.354-.57-.354-1s-.158-1.094-.351-1.476c-.589-1.167-1.249-3.503-1.249-4.423 0-.48-.18-.872-.4-.872s-.4-.54-.4-1.2-.18-1.2-.4-1.2-.4-.283-.4-.629c0-1.795-9.496-2.86-10.157-1.138m66.257-.035c-.275.313-.5 1.026-.5 1.585s-.18 1.017-.4 1.017-.4.36-.4.8-.18.8-.4.8-.4.36-.4.8-.18.8-.4.8-.4.54-.4 1.2-.18 1.2-.4 1.2-.4.36-.4.8-.18.8-.4.8-.4.45-.4 1-.18 1-.4 1-.4.36-.4.8-.18.8-.4.8-.4.36-.4.8-.18.8-.4.8-.4.439-.4.976-.18 1.088-.4 1.224-.4.597-.4 1.024-.18.776-.4.776-.4.36-.4.8-.18.8-.4.8-.4.54-.4 1.2-.18 1.2-.4 1.2-.4.36-.4.8-.18.8-.4.8-.4.272-.4.605-.159.918-.354 1.3c-1.598 3.135-2.846 5.886-2.846 6.276 0 .258-.371 1.236-.824 2.174-1.57 3.249-1.32 3.445 4.387 3.445h4.963l.637-1.8c.35-.99.772-1.86.937-1.933.165-.074.3-.391.3-.705s.38-1.379.844-2.366l.844-1.796H78.6v1.2c0 .66.18 1.2.4 1.2s.4.36.4.8.18.8.4.8.4.439.4.976.18 1.088.4 1.224.4.519.4.852c0 1.454 1.003 1.748 5.971 1.748H91.8v-1.2c0-.66-.18-1.2-.4-1.2s-.4-.36-.4-.8-.18-.8-.4-.8-.4-.54-.4-1.2-.18-1.2-.4-1.2-.4-.36-.4-.8-.18-.8-.4-.8-.4-.36-.4-.8-.18-.8-.4-.8-.4-.45-.4-1-.18-1-.4-1-.4-.36-.4-.8-.18-.8-.4-.8-.4-.36-.4-.8-.18-.8-.4-.8-.4-.54-.4-1.2-.18-1.2-.4-1.2-.4-.36-.4-.8-.18-.8-.4-.8-.4-.445-.4-.989c0-.849-1.207-3.974-2.434-6.306-.201-.382-.366-.967-.366-1.3s-.18-.605-.4-.605-.4-.36-.4-.8-.18-.8-.4-.8-.4-.54-.4-1.2-.18-1.2-.4-1.2-.4-.36-.4-.8-.18-.8-.4-.8-.4-.36-.4-.8-.18-.8-.4-.8-.4-.54-.4-1.2-.18-1.2-.4-1.2-.4-.36-.4-.8c0-1.035-8.606-1.218-9.5-.202m18.167-.331c-.506.506-.264 2.063.59 3.795.471.956.993 2.098 1.16 2.538s.681 1.653 1.143 2.696c.462 1.042.84 2.157.84 2.476s.18.692.4.828.4.687.4 1.224.18.976.4.976.4.36.4.8.18.8.4.8.4.54.4 1.2.18 1.2.4 1.2.4.36.4.8.18.8.4.8.4.54.4 1.2.18 1.2.4 1.2.4.36.4.8.18.8.4.8.4.45.4 1 .18 1 .4 1 .4.36.4.8.18.8.4.8.4.54.4 1.2.18 1.2.4 1.2.4.36.4.8.18.8.4.8.4.54.4 1.2.18 1.2.4 1.2.4.36.4.8.18.8.4.8.4.463.4 1.029c0 1.824.788 2.171 4.939 2.171 4.469 0 5.061-.169 5.061-1.443 0-.526.18-.957.4-.957s.4-.439.4-.976.18-1.088.4-1.224.4-.597.4-1.024.18-.776.4-.776.4-.349.4-.776.18-.888.4-1.024.4-.687.4-1.224.18-.976.4-.976.4-.272.4-.605.165-.918.367-1.3c.718-1.357 2.033-4.492 2.033-4.845 0-.197.269-.874.598-1.504s.598-1.641.6-2.246c.001-.605.182-1.1.402-1.1s.4-.36.4-.8.18-.8.4-.8.4-.54.4-1.2.18-1.2.4-1.2.4-.343.4-.762c0-.659.486-1.827 2.05-4.933.193-.382.35-.967.35-1.3s.18-.605.4-.605.4-.36.4-.8.18-.8.4-.8.4-.9.4-2v-2h-4.829c-5.24 0-5.971.263-5.971 2.148 0 .553-.18 1.116-.4 1.252s-.4.687-.4 1.224-.18.976-.4.976-.4.54-.4 1.2-.18 1.2-.4 1.2-.4.36-.4.8-.18.8-.4.8-.4.439-.4.976-.18 1.088-.4 1.224-.4.687-.4 1.224-.18.976-.4.976-.4.349-.4.776-.18.888-.4 1.024-.4.676-.4 1.2-.18 1.064-.4 1.2-.4.687-.4 1.224-.18.976-.4.976-.4.521-.4 1.157c0 .637-.252 1.254-.561 1.373-.703.269-1.039-.053-1.039-.997 0-.403-.18-.733-.4-.733s-.4-.54-.4-1.2-.18-1.2-.4-1.2-.4-.36-.4-.8-.18-.8-.4-.8-.4-.54-.4-1.2-.18-1.2-.4-1.2-.4-.412-.4-.915c0-.958-1.276-4.894-1.735-5.353-.146-.146-.265-.685-.265-1.199 0-.513-.18-.933-.4-.933s-.4-.36-.4-.8-.18-.8-.4-.8-.4-.54-.4-1.2-.18-1.2-.4-1.2-.4-.283-.4-.629c0-1.475-.987-1.771-5.905-1.771-2.619 0-4.882.12-5.028.267M125.4 290v19.6H155V300h-19.6v-5.2h16.4v-9.6h-16.4V280h9.167c11.442 0 10.433.441 10.433-4.563 0-5.518 1.458-5.037-15.28-5.037H125.4zm34.1-19.002c-.843.958-.715 38.034.133 38.359.348.134 2.598.243 5 .243H169v-7.1l-.001-7.1 8.025.13c10.43.17 10.047.373 9.89-5.248l-.114-4.082-8.9-.108-8.9-.107V280.4h9.72c11.509 0 10.68.388 10.68-5 0-2.609-.17-4.21-.48-4.52-.763-.763-28.743-.651-29.42.118m32.745-.052c-.326.393-.424 5.837-.349 19.5L192 309.4l4.9.112 4.9.113V297.6h2.218c2.272 0 4.182 1.139 4.182 2.494 0 .291.36.789.8 1.106s.8.857.8 1.2.36.883.8 1.2.8.857.8 1.2.36.883.8 1.2.8.762.8.988c.003 1.978 1.739 2.612 7.147 2.612h5.253v-1.2c0-.66-.18-1.2-.4-1.2s-.4-.236-.4-.525c0-.288-.36-.911-.8-1.383s-.8-1.096-.8-1.387-.36-.788-.8-1.105-.8-.807-.8-1.088-.18-.512-.4-.512-.4-.27-.4-.6-.18-.6-.4-.6-.4-.23-.4-.512c0-.281-.36-.771-.8-1.088s-.8-.897-.8-1.288c0-.392-.18-.712-.4-.712-.714 0-.423-.739.393-.998.964-.306 4.007-3.169 4.007-3.771 0-.237.18-.431.4-.431s.4-.27.4-.6.18-.6.4-.6.4-.72.4-1.6.18-1.6.4-1.6c.231 0 .4-1.267.4-3s-.169-3-.4-3c-.22 0-.4-.54-.4-1.2s-.18-1.2-.4-1.2-.4-.28-.4-.622c0-.968-4.723-5.383-6.041-5.646-.638-.128-1.159-.389-1.159-.582s-.889-.35-1.976-.35-2.088-.18-2.224-.4c-.412-.667-18.795-.528-19.355.146M241 270.8c0 .22-.54.4-1.2.4s-1.2.18-1.2.4-.36.4-.8.4-.8.18-.8.4-.36.4-.8.4-.8.18-.8.4-.183.4-.407.4c-.542 0-5.593 5.066-5.593 5.609 0 .234-.36.811-.8 1.283s-.8 1.275-.8 1.783c0 .509-.18.925-.4.925s-.4.54-.4 1.2-.18 1.2-.4 1.2c-.242 0-.4 1.733-.4 4.4s.158 4.4.4 4.4c.22 0 .4.414.4.92 0 1.054.853 3.072 1.3 3.077.165.002.3.363.3.803s.18.8.4.8.4.32.4.712.36.971.8 1.288.8.82.8 1.117c0 .658.973 1.683 1.597 1.683.25 0 .909.54 1.464 1.2.556.66 1.264 1.2 1.575 1.2s.564.18.564.4.36.4.8.4.8.18.8.4.54.4 1.2.4 1.2.18 1.2.4c0 .25 2.392.4 6.376.4 3.82 0 6.476-.16 6.624-.4.136-.22.597-.4 1.024-.4s.776-.18.776-.4.36-.4.8-.4.8-.18.8-.4.32-.4.712-.4.971-.36 1.288-.8.813-.8 1.102-.8c.682 0 3.298-2.616 3.298-3.298 0-.289.36-.785.8-1.102s.8-.897.8-1.288c0-.392.18-.712.4-.712s.4-.324.4-.72.225-.945.5-1.219c1.429-1.427.557-16.461-.955-16.461-.19 0-.345-.254-.345-.563 0-.778-6.604-7.437-7.375-7.437-.344 0-.625-.18-.625-.4s-.36-.4-.8-.4-.8-.18-.8-.4-.529-.4-1.176-.4-1.288-.18-1.424-.4c-.146-.236-2.537-.4-5.824-.4-3.451 0-5.576.152-5.576.4m29.067-.133c-.147.146-.267 8.966-.267 19.6V309.6h4.957c6.035 0 5.443 1.178 5.443-10.833 0-6.111.144-9.567.4-9.567.22 0 .4.243.4.541 0 .297.54 1.105 1.2 1.796s1.2 1.405 1.2 1.587c0 .183.63 1.068 1.4 1.968s1.4 1.759 1.4 1.911.54.78 1.2 1.397 1.2 1.337 1.2 1.6.54.983 1.2 1.6 1.2 1.319 1.2 1.56.72 1.181 1.6 2.088 1.6 1.815 1.6 2.018c0 1.571 1.955 2.334 5.982 2.334h4.018v-39.225l-4.9.113-4.9.112-.107 10.1c-.066 6.277-.256 10.1-.5 10.1-.216 0-.393-.288-.393-.64 0-.351-.54-1.143-1.2-1.76s-1.2-1.319-1.2-1.56-.72-1.181-1.6-2.088-1.6-1.853-1.6-2.104-.36-.68-.8-.955-.8-.696-.8-.936-.54-.94-1.2-1.557-1.2-1.371-1.2-1.677-.63-1.224-1.4-2.041c-.77-.816-1.4-1.669-1.4-1.896s-.624-1.037-1.387-1.799l-1.386-1.387h-3.947c-2.171 0-4.067.12-4.213.267m36.621 4.633.112 4.9 5.295.112 5.295.111.105 14.489.105 14.488 4.543.114c3.007.075 4.731-.043 5.1-.349.778-.646.833-28.187.057-28.5-.275-.111 1.975-.216 5-.233l5.5-.032v-10h-31.225zm-56.715 5.056c.121.195.684.472 1.251.614 1.23.309 3.776 2.748 3.776 3.617 0 .337.18.613.4.613s.4.54.4 1.2.18 1.2.4 1.2c.222 0 .4 1.059.4 2.376 0 1.307-.18 2.488-.4 2.624s-.4.687-.4 1.224-.18.976-.4.976-.4.291-.4.647c0 .769-3.06 3.753-3.849 3.753-.303 0-.551.18-.551.4 0 .235-1.375.4-3.325.4-4.335 0-8.675-1.887-8.675-3.771 0-.346-.18-.629-.4-.629s-.4-.36-.4-.8-.18-.8-.4-.8c-.24 0-.4-1.6-.4-4s.16-4 .4-4c.22 0 .4-.36.4-.8s.18-.8.4-.8.4-.294.4-.653c0-.866 1.892-2.46 3.282-2.765.61-.134 1.212-.41 1.337-.613.293-.473 6.462-.486 6.754-.013m-37.979.527c1.29.345 1.806.688 1.806 1.2 0 .394.18.717.4.717s.4.54.4 1.2-.18 1.2-.4 1.2-.4.283-.4.629c0 .808-.963 1.771-1.771 1.771-.346 0-.629.18-.629.4 0 .244-1.867.4-4.8.4h-4.8v-8h4.194c2.307 0 5.007.217 6 .483m-140.294 4.6c.275.592.5 1.311.5 1.597s.18.52.4.52.4.439.4.976.18 1.088.4 1.224.4.597.4 1.024.18.776.4.776.4.18.4.4c0 .233-1.333.4-3.2.4-2.933 0-3.2-.067-3.2-.8 0-.44.18-.8.4-.8s.4-.54.4-1.2.18-1.2.4-1.2.4-.36.4-.8.18-.8.4-.8.4-.54.4-1.2c0-1.487.442-1.534 1.1-.117" clip-rule="evenodd"/><path fill="#28b0b4" fill-rule="evenodd" d="M199.594 87.4c0 27.28.048 38.381.106 24.669s.058-36.032 0-49.6-.106-2.349-.106 24.931m-.002 105c0 19.91.048 28.055.108 18.1.059-9.955.059-26.245 0-36.2-.06-9.955-.108-1.81-.108 18.1" clip-rule="evenodd"/><path fill="#28b0b4" fill-rule="evenodd" d="M199.594 87.4c0 27.28.048 38.381.106 24.669s.058-36.032 0-49.6-.106-2.349-.106 24.931m-.002 105c0 19.91.048 28.055.108 18.1.059-9.955.059-26.245 0-36.2-.06-9.955-.108-1.81-.108 18.1" clip-rule="evenodd"/><path fill="#28b0b4" fill-rule="evenodd" d="M199.594 87.4c0 27.28.048 38.381.106 24.669s.058-36.032 0-49.6-.106-2.349-.106 24.931m-.002 105c0 19.91.048 28.055.108 18.1.059-9.955.059-26.245 0-36.2-.06-9.955-.108-1.81-.108 18.1" clip-rule="evenodd"/></svg>