<svg xmlns="http://www.w3.org/2000/svg" width="100" height="100" fill="none" viewBox="0 0 100 100"><g fill-rule="evenodd" clip-path="url(#a)" clip-rule="evenodd"><path fill="url(#b)" d="M40.478 24.868V6.57l-9.334 2.146c-7.727 1.776-11.59 2.664-14.636 4.694a20 20 0 0 0-6.264 6.706C8.426 23.295 7.802 27.21 6.556 35.04L.523 72.949c-.436 2.74-.654 4.11-.44 5.396a8 8 0 0 0 1.193 3.058c.712 1.092 1.8 1.953 3.976 3.674l15.713 12.431a12 12 0 0 1-3.257-4.187c-1.564-3.338-.803-8.121.72-17.688l4.141-26.03c1.246-7.83 1.869-11.744 3.687-14.921a20 20 0 0 1 6.264-6.707c2.007-1.338 4.37-2.18 7.958-3.107"/><path fill="url(#c)" d="M40.478 24.868c1.857-.48 4.042-.982 6.676-1.588l5.25-1.207c3.935-.905 5.903-1.357 7.335-.801a5 5 0 0 1 2.719 2.539c.652 1.39.334 3.385-.3 7.373l-2.104 13.224c-.748 4.697-1.121 7.046-2.212 8.952a12 12 0 0 1-3.758 4.024c-1.827 1.218-4.144 1.752-8.78 2.818l-6.318 1.453-1.143 7.166c-.637 3.99-.955 5.986-.303 7.378a5 5 0 0 0 2.72 2.54c1.432.556 3.401.102 7.34-.805l5.255-1.21c7.721-1.78 11.582-2.669 14.626-4.7a20 20 0 0 0 6.26-6.705c1.817-3.176 2.44-7.089 3.685-14.915l4.143-26.03c1.523-9.572 2.284-14.357.72-17.696A12 12 0 0 0 75.765.583C72.328-.75 67.606.335 58.161 2.506L29.47 9.102z"/><path fill="url(#d)" d="M59.522 75.132V93.43l9.334-2.146c7.727-1.776 11.59-2.664 14.636-4.694a20 20 0 0 0 6.264-6.707c1.819-3.177 2.442-7.092 3.688-14.921l6.033-37.912c.436-2.74.654-4.11.44-5.396a8 8 0 0 0-1.193-3.057c-.713-1.092-1.8-1.953-3.976-3.674L79.035 2.492a12 12 0 0 1 3.257 4.187c1.564 3.338.803 8.121-.72 17.688l-4.141 26.03c-1.246 7.83-1.869 11.744-3.687 14.921a20 20 0 0 1-6.264 6.707c-2.007 1.338-4.37 2.18-7.958 3.107"/><path fill="url(#e)" d="M59.522 75.132c-1.857.48-4.042.982-6.676 1.588l-5.25 1.207c-3.935.905-5.903 1.357-7.335.801a5 5 0 0 1-2.719-2.539c-.652-1.39-.334-3.385.3-7.373l2.104-13.224c.747-4.697 1.121-7.046 2.212-8.952a12 12 0 0 1 3.758-4.024c1.827-1.218 4.144-1.752 8.78-2.818l6.318-1.453 1.143-7.166c.637-3.99.955-5.986.303-7.378a5 5 0 0 0-2.72-2.54c-1.432-.556-3.401-.102-7.34.805l-5.255 1.21c-7.721 1.78-11.582 2.669-14.626 4.7a20 20 0 0 0-6.26 6.705c-1.817 3.176-2.44 7.089-3.685 14.915l-4.143 26.03c-1.523 9.572-2.285 14.358-.72 17.696a12 12 0 0 0 6.524 6.095c3.437 1.334 8.159.248 17.604-1.923l28.708-6.603z"/></g><defs><radialGradient id="b" cx="0" cy="0" r="1" gradientTransform="rotate(81.994 3.985 25.306)scale(71.8503 106.445)" gradientUnits="userSpaceOnUse"><stop offset=".231" stop-color="#b3c8ff"/><stop offset=".577" stop-color="#c1d3ff"/><stop offset="1" stop-color="#cad9ff"/></radialGradient><radialGradient id="c" cx="0" cy="0" r="1" gradientTransform="rotate(103.751 22.068 22.902)scale(54.8607 85.7165)" gradientUnits="userSpaceOnUse"><stop offset=".274" stop-color="#b3c8ff"/><stop offset=".472" stop-color="#9eb9ff"/><stop offset=".762" stop-color="#6f97ff"/><stop offset="1" stop-color="#5282ff"/></radialGradient><radialGradient id="d" cx="0" cy="0" r="1" gradientTransform="rotate(-98.006 71.464 10.004)scale(71.8503 106.445)" gradientUnits="userSpaceOnUse"><stop offset=".231" stop-color="#b3c8ff"/><stop offset=".577" stop-color="#c1d3ff"/><stop offset="1" stop-color="#cad9ff"/></radialGradient><radialGradient id="e" cx="0" cy="0" r="1" gradientTransform="rotate(-76.245 84.538 14.4)scale(54.8616 85.74)" gradientUnits="userSpaceOnUse"><stop offset=".274" stop-color="#b3c8ff"/><stop offset=".472" stop-color="#9eb9ff"/><stop offset=".762" stop-color="#6f97ff"/><stop offset="1" stop-color="#5282ff"/></radialGradient><clipPath id="a"><path fill="#fff" d="M0 0h100v100H0z"/></clipPath></defs></svg>