<svg xmlns="http://www.w3.org/2000/svg" width="250" height="52" fill="none" viewBox="0 0 250 52"><path fill="#236bf5" d="M83.034 26.252c1.34 8.25-5.82 12.89-13.08 13.43-4.62 9.5-20.91 15.91-35 9-6 .91-9.35-.6-11.9-3.48 5.14-6.64 20.77-18.59 39.86-12.41 10.2 3.29 12.85-4.45 10.28-7.35-9.62-10.92-31.34-1.09-32.11-.27 8.53-13.06 39.04-16.72 41.95 1.08m-29.24-15c.05 0-6.94-2.49-16.7 1.73a10 10 0 0 1-1.16-.5c9.4-6.24 17.63-8.89 24.68-7.86-4.27-4.9-24.76-8.51-36.5 3.26-14.51-2.86-24.67 9.44-24.09 20.67s12.84 18.24 19.82 16.33q.25-.03.5 0c1.56-7.42 7.86-24.69 33.45-33.62zm58.45 10.26 1.26-5.72h-21.82l-.49 2.22a2.55 2.55 0 0 0 2.64 3.3h10.13l-17.95 15.85-1.21 5.32h23.15l1.33-5.82h-14.64zm14.58 4.61c-1-.26-6.77-1.12-6.41-3.11.4-2.22 3.12-2.44 4.45-2.4 2.73.08 3.59 1.28 3.73 1.71a2.42 2.42 0 0 0 2.52 1.7h4.31c.48-2.67.6-8.82-9.41-8.82-3.21 0-7.5.8-10.33 4.07-1.52 1.75-4.13 6.1-1.46 9.36 1.4 1.65 5 2.94 9 3.71 2.53.5 3.87 1.51 3.59 2.71-.17.8-1.18 2.61-4.9 2.61-1.67 0-5.27-.27-4.59-4h-6.82c-.8 3.4-1.1 9.32 9.3 9.32 4 0 12.16-.51 14.29-9 1.5-6.19-5.41-7.37-7.27-7.85zm24.09 9.43a6.1 6.1 0 0 1-4.37 1.6c-5.15.05-4.57-5-3.87-8.12s2.36-8 7.25-8c3.47 0 3.87 2.25 4.05 2.91h7c-.24-7.41-5.92-8.82-9.93-8.72-11 .27-14.18 9.46-15.17 13.73-2.87 12.48 5.11 14 8.93 14a15 15 0 0 0 14-8.72h-5a3.71 3.71 0 0 0-2.89 1.33zm28.65 2.56a13.1 13.1 0 0 1-7.93 4.46c-6.1 1-14.48.75-12.37-8 .68-2.8 1.72-4.64 3.83-6 3.52-2.31 8.19-2.64 9.71-2.81.52-.05 4.35-.34 5-2.61s-2.88-2.39-3.86-2.4c-3 0-4 1.17-4.55 1.9h-6.71c2.71-7.14 10.2-7.41 12.22-7.41 2.26 0 11.35 0 9.61 7.52-2.63 11.45-2.72 12.6-4.95 15.36zm-3-9.08a26.7 26.7 0 0 1-4.21 1.3c-1.4.42-4 .59-5.32 1.81-1.1 1-3 5.32 1.57 5.41a7.34 7.34 0 0 0 7.43-6.21c.22-1.04.53-2.3.53-2.3zm17.26-21h-3.6l-7.88 34.49h7l7.16-31.22a2.55 2.55 0 0 0-.442-2.382 2.55 2.55 0 0 0-2.238-.928zm18.19 26.27h5a15.23 15.23 0 0 1-14 8.72c-10.67 0-10-9.52-8.92-14 3-12.55 11.42-13.73 15.16-13.73 5 0 12.81 2.06 8.84 15.74h-17.35c-.43 1.81-.79 6.26 4 6.21a5.9 5.9 0 0 0 3.69-1c.64-.45 1.24-1.94 3.58-1.98zm-10.25-7.82h10.23c.87-4.9-2.16-5.42-3.88-5.42-1.47-.04-4.96.49-6.35 5.38zm25.28-7.72c-4.69 3.2-6.25 8.35-6.79 10.83-.43 1.94-2.95 12.93-2.95 12.93h7s2.68-12.14 3.2-13.73c.55-1.93 2.36-7.16 9.36-6.95l1.62-6a18.9 18.9 0 0 0-11.44 2.88zm12.25-8.12.21-.85h3.78l-.18.84h-1.35l-.78 3.69h-1l.77-3.69zm6.21-.85.34 3.28 1.77-3.28h1.39l-1 4.53h-.93l.82-3.6-1.91 3.6h-.76l-.44-3.6-.67 3.6h-.94l.95-4.53z"/></svg>