<svg xmlns="http://www.w3.org/2000/svg" width="277" height="70" fill="none" viewBox="0 0 277 70"><path fill="#101010" fill-rule="evenodd" d="m54.016 53.458-2.279-8.505 1.317-.353 2.895 10.805-35.78-9.81 26.11-26.277 2.894 10.8-1.317.353-2.28-8.511-22.791 22.938z" clip-rule="evenodd"/><path fill="url(#a)" fill-rule="evenodd" d="m14.468 36.517 1.426 5.322-6.678 6.677 9.122 2.444 1.426 5.321L0 50.986z" clip-rule="evenodd"/><path fill="url(#b)" fill-rule="evenodd" d="m56.173 19.764-5.321-1.426-2.444-9.122-6.677 6.678-5.322-1.426L50.877 0z" clip-rule="evenodd"/><path fill="url(#c)" fill-rule="evenodd" d="m49.998 64.465 3.895-3.896 9.122 2.445-2.445-9.122 3.896-3.895L69.76 69.76z" clip-rule="evenodd"/><path fill="url(#d)" fill-rule="evenodd" d="M33.786 66.893 32.61 54.819l8.232 2.205z" clip-rule="evenodd"/><path fill="url(#e)" fill-rule="evenodd" d="m20.35 21.19 5.019 11.044 6.026-6.026z" clip-rule="evenodd"/><path fill="url(#f)" fill-rule="evenodd" d="M66.674 33.555 54.599 32.38l2.206 8.231z" clip-rule="evenodd"/><path fill="#101010" d="M49.227 33.367a3.18 3.18 0 1 0-1.647-6.145 3.18 3.18 0 0 0 1.647 6.145m4.109 14.482a3.18 3.18 0 1 0-1.646-6.145 3.18 3.18 0 0 0 1.646 6.145m2.469 9.655a3.18 3.18 0 1 0-1.647-6.145 3.18 3.18 0 0 0 1.647 6.145m-33.418-9.187a3.18 3.18 0 1 0-1.646-6.144 3.18 3.18 0 0 0 1.646 6.144M46.766 23.71a3.18 3.18 0 1 0-1.646-6.144 3.18 3.18 0 0 0 1.646 6.144"/><path fill="#101010" fill-rule="evenodd" d="M49.735 27.322s-.963-.277-1.258-.728c-.232-.357-.655-1.692-.737-1.943-.334-1.02.724-1.987.724-1.987l-4.018 1.156s1.365-.416 1.943 1.193c.09.248.256 1.362.333 2.051.088.49-.536 1.16-.536 1.16zm5.792 23.981s-.748-.054-.946-.684c-.117-.438-.16-.582-.286-1.069a5.5 5.5 0 0 1-.213-.794c-.263-1.21.422-1.674.422-1.674l-3.113.742s.92.078 1.362 1.24c.095.245.193.647.245.913.111.432.12.463.238.887.2.693-.232 1.012-.232 1.012z" clip-rule="evenodd"/><path fill="#101010" fill-rule="evenodd" d="M24.855 44.637s-.61-.518.505-2.029c.628-.85 1.52-1.767 2.489-2.807 1.767-1.9 3.943-4.067 6.105-6.248 1.826-1.84 3.651-3.683 5.312-5.28 1.384-1.33 2.634-2.51 3.66-3.4.203-.176.418-.306.584-.474.994-.996 2.1-.588 2.1-.588l-2.92-2.792s.22 1.246-.494 2.073c-.154.18-.297.385-.468.587-.886 1.033-2.059 2.29-3.379 3.682-1.588 1.674-3.416 3.508-5.247 5.346-2.164 2.175-4.32 4.366-6.208 6.146-1.033.974-1.953 1.86-2.791 2.505-1.225.94-2.566.695-2.566.695z" clip-rule="evenodd"/><path fill="#101010" fill-rule="evenodd" d="M23.416 47.686s.355-.607 2.286-.298c1.042.169 2.288.447 3.67.774 2.525.597 5.487 1.416 8.449 2.218 2.505.676 4.959 1.39 7.17 2.045 1.84.545 5.123 1.403 5.352 1.468 1.498.43 1.406 1.086 1.406 1.086l.747-2.651s-.534.656-1.77.256a180 180 0 0 0-5.35-1.447c-2.237-.552-4.738-1.235-7.24-1.916-2.963-.807-5.931-1.597-8.412-2.358-1.358-.416-2.595-.752-3.559-1.187-1.937-.874-1.402-2.023-1.402-2.023z" clip-rule="evenodd"/><path fill="#101010" d="M100.974 23.012h-11.07c.326.61.815 1.56.937 1.763.203.305.65.678 1.587.678h3.296c.489 0 .651.271.57.577l-8.383 20.72h10.621c.936 0 1.343-.34 1.547-.68l.936-1.728h-7.936c-.407 0-.651-.238-.529-.645zm20.96 0V46.24c.04.17.162.51.854.51h2.076V23.96c0-.407-.326-.95-1.18-.95zm35.688 0h-11.639c-.488 0-.895.339-.895.746v1.661h4.11V46.24c0 .17.122.51.814.51h2.076V25.995c.04-.305.325-.577.732-.577h2.279c.936 0 1.384-.339 1.547-.644zm27.713 23.738h-3.215l-2.564-16.346-2.564 16.345h-3.215l4.314-23.737h1.587c1.221 0 1.424.644 1.546 1.288zm19.292-23.738v23.737h5.657c1.994 0 3.581-1.322 3.622-2.984v-17.77c-.041-1.66-1.628-2.983-3.622-2.983zm6.389 20.075c0 .915-.732 1.255-1.546 1.255h-1.913V25.453h1.913c.814 0 1.546.34 1.546 1.221zm28.405 1.255v-8.24c0-.306.326-.577.692-.577h1.221c.936 0 1.343-.34 1.547-.645.122-.203.61-1.187.936-1.797h-4.396V26.03c0-.34.285-.577.692-.577h2.361c.936 0 1.383-.373 1.546-.678l.977-1.763h-7.61c-.489 0-.855.305-.896.678v23.06h6.512c.936 0 1.383-.34 1.587-.645.122-.204.61-1.153.936-1.763zm30.198 0V23.758c0-.407-.407-.712-.895-.746h-2.035v23.737h7c.936 0 1.383-.339 1.587-.644.122-.204.61-1.153.936-1.763z"/><defs><linearGradient id="a" x1="52.72" x2="-31.323" y1="10.445" y2="282.074" gradientUnits="userSpaceOnUse"><stop stop-color="#ff8f00"/><stop offset="1" stop-color="#fe00ff"/></linearGradient><linearGradient id="b" x1="-88.922" x2="155.665" y1="222.712" y2="165.956" gradientUnits="userSpaceOnUse"><stop stop-color="#ff8f00"/><stop offset="1" stop-color="#fe00ff"/></linearGradient><linearGradient id="c" x1="140.699" x2="-60.503" y1="258.682" y2="84.436" gradientUnits="userSpaceOnUse"><stop stop-color="#ff8f00"/><stop offset="1" stop-color="#fe00ff"/></linearGradient><linearGradient id="d" x1="337.24" x2="-211.632" y1="76.865" y2="272.898" gradientUnits="userSpaceOnUse"><stop stop-color="#ff8f00"/><stop offset="1" stop-color="#fe00ff"/></linearGradient><linearGradient id="e" x1="284.881" x2="-19.587" y1="21.377" y2="427.212" gradientUnits="userSpaceOnUse"><stop stop-color="#ff8f00"/><stop offset="1" stop-color="#fe00ff"/></linearGradient><linearGradient id="f" x1="1.226" x2="74.25" y1="45.245" y2="45.245" gradientUnits="userSpaceOnUse"><stop stop-color="#ff8f00"/><stop offset="1" stop-color="#fe00ff"/></linearGradient></defs></svg>