<?xml version="1.0" encoding="UTF-8"?>
<svg id="Layer_2" data-name="Layer 2" xmlns="http://www.w3.org/2000/svg" viewBox="0 0 265.37 264.72">
  <g id="Layer_1-2" data-name="Layer 1">
    <g>
      <rect width="265.37" height="264.72" rx="41.93" ry="41.93" fill="#1e57eb"/>
      <path d="M72.48,53.37c-3.28,2.84-5.71,6.63-7.3,11.38-1.59,4.75-2.39,10.61-2.39,17.61v19.85c0,7.24-1.5,12.44-4.5,15.59-2.59,2.72-6.93,4.26-13.01,4.63h-3v19.85h2.99c6.09.37,10.44,1.93,13.03,4.68,3,3.18,4.5,8.43,4.5,15.73v19.67c0,6.99.8,12.88,2.39,17.65,1.59,4.78,4.03,8.58,7.3,11.42,3.28,2.84,7.41,4.88,12.41,6.13,4.99,1.25,10.86,1.87,17.61,1.87v-16.39c-7.99,0-13.42-1.76-16.29-5.29-2.87-3.53-4.31-9.04-4.31-16.53v-24.54c0-3.43-.52-6.68-1.55-9.74-1.03-3.06-2.95-5.74-5.76-8.05-2.81-2.31-6.81-4.1-11.99-5.38-.27-.07-.56-.12-.84-.19v-1.97c.28-.06.57-.12.84-.19,5.18-1.28,9.18-3.04,11.99-5.29,2.81-2.25,4.73-4.88,5.76-7.91,1.03-3.03,1.55-6.32,1.55-9.88v-24.63c0-7.55,1.44-13.06,4.31-16.53,2.87-3.46,8.3-5.2,16.29-5.2v-16.48c-6.74,0-12.61.64-17.61,1.92-5,1.28-9.13,3.34-12.41,6.18ZM207.08,117.8c-3.06-3.15-4.59-8.35-4.59-15.59v-19.85c0-6.99-.8-12.86-2.39-17.61-1.59-4.74-4.03-8.54-7.3-11.38-3.28-2.84-7.4-4.9-12.36-6.18-4.96-1.28-10.82-1.92-17.56-1.92v16.48c8.05,0,13.52,1.75,16.39,5.24,2.87,3.5,4.31,8.99,4.31,16.48v24.63c0,3.56.5,6.85,1.5,9.88,1,3.03,2.9,5.67,5.71,7.91,2.81,2.25,6.8,4.01,11.99,5.29.27.07.56.12.84.19v1.97c-.28.06-.57.12-.84.19-5.18,1.28-9.18,3.08-11.99,5.38-2.81,2.31-4.71,5-5.71,8.05-1,3.06-1.5,6.31-1.5,9.74v24.54c0,7.49-1.44,13-4.31,16.53-2.87,3.53-8.33,5.29-16.39,5.29v16.39c6.74,0,12.59-.62,17.56-1.87,4.96-1.25,9.08-3.29,12.36-6.13,3.28-2.84,5.71-6.65,7.3-11.42,1.59-4.78,2.39-10.66,2.39-17.65v-19.67c0-7.24,1.51-12.46,4.54-15.64,3.03-3.18,8.38-4.81,16.06-4.87v-19.67c-7.62,0-12.96-1.58-16.01-4.73Z" fill="#fff"/>
    </g>
  </g>
</svg>